<?xml version="1.0" encoding="utf-8"?>
<!-- Generator: Adobe Illustrator 14.0.0, SVG Export Plug-In . SVG Version: 6.00 Build 43363)  -->
<!DOCTYPE svg PUBLIC "-//W3C//DTD SVG 1.1//EN" "http://www.w3.org/Graphics/SVG/1.1/DTD/svg11.dtd">
<svg version="1.1" id="Layer_1" xmlns="http://www.w3.org/2000/svg" xmlns:xlink="http://www.w3.org/1999/xlink" x="0px" y="0px"
	 width="110.329px" height="80.751px" viewBox="0 0 110.329 80.751" enable-background="new 0 0 110.329 80.751"
	 xml:space="preserve">
<path fill="#EE3825" d="M98.515,61.338l-3.357-3.359c10.98-10.98,10.978-28.846-0.004-39.827l3.361-3.361
	C111.349,27.624,111.349,48.507,98.515,61.338z M92.703,20.603l-3.357,3.363c7.771,7.776,7.771,20.427,0,28.2l3.357,3.367
	C102.333,45.898,102.333,30.231,92.703,20.603z M86.706,26.599l-3.36,3.361c4.473,4.468,4.473,11.743,0,16.21l3.363,3.363
	C93.03,43.211,93.03,32.921,86.706,26.599z M11.28,61.338l3.36-3.359C3.661,46.998,3.663,29.133,14.645,18.152l-3.365-3.361
	C-1.551,27.624-1.551,48.507,11.28,61.338z M17.095,55.527l3.357-3.361c-7.771-7.773-7.771-20.426,0-28.203l-3.357-3.362
	C7.466,30.231,7.466,45.898,17.095,55.527z M23.09,49.533l3.362-3.363c-4.47-4.467-4.47-11.742,0.002-16.21l-3.362-3.361
	C16.766,32.921,16.766,43.211,23.09,49.533z M76.959,7.433v65.694c0,2.817-2.31,5.127-5.128,5.127H37.974
	c-2.821,0-5.13-2.31-5.13-5.127V7.433c0-2.82,2.309-5.129,5.13-5.129h33.857C74.65,2.304,76.959,4.613,76.959,7.433z M48.862,6.624
	c0,0.341,0.277,0.621,0.623,0.621h10.829c0.346,0,0.62-0.28,0.62-0.621C60.934,6.278,60.66,6,60.314,6H49.485
	C49.141,6,48.862,6.278,48.862,6.624z M57.465,73.127c0-1.42-1.149-2.566-2.566-2.566c-1.417,0-2.564,1.148-2.564,2.566
	c0,1.413,1.147,2.561,2.564,2.561C56.316,75.688,57.465,74.543,57.465,73.127z M73.39,10.438H36.411V68.76H73.39V10.438z"/>
</svg>
