<?xml version="1.0" standalone="no"?>
<!DOCTYPE svg PUBLIC "-//W3C//DTD SVG 1.1//EN" "http://www.w3.org/Graphics/SVG/1.1/DTD/svg11.dtd" >
<svg xmlns="http://www.w3.org/2000/svg" xmlns:xlink="http://www.w3.org/1999/xlink" version="1.1">
<metadata>
Created by FontForge 20160407 at Tue Aug 30 04:10:34 2016
 By Jimmy Warting
</metadata>
<defs>
<font id="Commerce-Condensed-Bold" horiz-adv-x="0" >
  <font-face 
    font-family="Commerce-Condensed"
    font-weight="700"
    font-stretch="normal"
    units-per-em="2048"
    panose-1="2 2 8 0 0 0 0 0 0 0"
    ascent="1638"
    descent="-410"
    x-height="1112"
    cap-height="1493"
    bbox="-725 -487 2097 2038"
    underline-thickness="50"
    underline-position="-125"
    unicode-range="U+0020-F02A"
  />
<missing-glyph horiz-adv-x="1536" 
d="M256 0v1280h1024v-1280h-1024zM1247 33v1214h-958v-1214h958z" />
    <glyph glyph-name=".notdef" horiz-adv-x="1536" 
d="M256 0v1280h1024v-1280h-1024zM1247 33v1214h-958v-1214h958z" />
    <glyph glyph-name=".null" 
 />
    <glyph glyph-name="nonmarkingreturn" 
 />
    <glyph glyph-name="space" unicode=" " horiz-adv-x="461" 
 />
    <glyph glyph-name="space" unicode="&#x2031;" horiz-adv-x="461" 
 />
    <glyph glyph-name="space" unicode="&#x2025;" horiz-adv-x="461" 
 />
    <glyph glyph-name="space" unicode="&#x2024;" horiz-adv-x="461" 
 />
    <glyph glyph-name="space" unicode="&#x2023;" horiz-adv-x="461" 
 />
    <glyph glyph-name="space" unicode="&#x201f;" horiz-adv-x="461" 
 />
    <glyph glyph-name="space" unicode="&#x201b;" horiz-adv-x="461" 
 />
    <glyph glyph-name="space" unicode="&#x2017;" horiz-adv-x="461" 
 />
    <glyph glyph-name="space" unicode="&#x2016;" horiz-adv-x="461" 
 />
    <glyph glyph-name="space" unicode="&#x2015;" horiz-adv-x="461" 
 />
    <glyph glyph-name="exclam" unicode="!" horiz-adv-x="430" 
d="M344 1493l-45 -1055h-168l-45 1055h258zM336 0h-242v244h242v-244z" />
    <glyph glyph-name="quotedbl" unicode="&#x22;" horiz-adv-x="637" 
d="M578 926h-193v567h193v-567zM252 926h-193v567h193v-567z" />
    <glyph glyph-name="numbersign" unicode="#" horiz-adv-x="866" 
d="M868 889h-147l-33 -285h127v-162h-147l-50 -442h-184l51 442h-166l-49 -442h-186l51 442h-135v162h156l30 285h-135v162h156l51 442h182l-51 -442h166l51 442h182l-51 -442h131v-162zM537 889h-164l-33 -285h164z" />
    <glyph glyph-name="dollar" unicode="$" horiz-adv-x="829" 
d="M807 401q0 -158 -86 -270q-88 -119 -246 -131v-240h-123v240q-192 21 -332 233l170 132q49 -133 162 -166v485q-311 194 -311 426q0 148 84 258q82 107 227 125v182h123v-182q179 -34 285 -188l-156 -134q-60 104 -129 119v-428q161 -101 232 -188q100 -119 100 -273z
M352 932v358q-102 -33 -102 -151q0 -114 102 -207zM590 391q0 111 -115 215v-407q115 45 115 192z" />
    <glyph glyph-name="percent" unicode="%" horiz-adv-x="1511" 
d="M733 1155q0 -137 -98 -240q-99 -100 -238 -100q-140 0 -237 100q-99 102 -99 240t99 240q98 98 237 98q138 0 238 -98q98 -103 98 -240zM1253 1513l-837 -1533h-154l838 1533h153zM1450 340q0 -137 -98 -240q-99 -100 -238 -100q-140 0 -237 100q-99 102 -99 240t99 240
q98 98 237 98q138 0 238 -98q98 -103 98 -240zM569 1155q0 69 -49 121q-51 51 -123 51q-70 0 -121 -51.5t-51 -120.5q0 -70 51 -123q51 -51 121 -51q72 0 123 51q49 52 49 123zM1286 340q0 69 -49 121q-51 51 -123 51q-70 0 -121 -51t-51 -121q0 -72 51 -123t121 -51
q72 0 123 51q49 52 49 123z" />
    <glyph glyph-name="percent" unicode="&#x202f;" horiz-adv-x="1511" 
d="M733 1155q0 -137 -98 -240q-99 -100 -238 -100q-140 0 -237 100q-99 102 -99 240t99 240q98 98 237 98q138 0 238 -98q98 -103 98 -240zM1253 1513l-837 -1533h-154l838 1533h153zM1450 340q0 -137 -98 -240q-99 -100 -238 -100q-140 0 -237 100q-99 102 -99 240t99 240
q98 98 237 98q138 0 238 -98q98 -103 98 -240zM569 1155q0 69 -49 121q-51 51 -123 51q-70 0 -121 -51.5t-51 -120.5q0 -70 51 -123q51 -51 121 -51q72 0 123 51q49 52 49 123zM1286 340q0 69 -49 121q-51 51 -123 51q-70 0 -121 -51t-51 -121q0 -72 51 -123t121 -51
q72 0 123 51q49 52 49 123z" />
    <glyph glyph-name="percent" unicode="&#x202e;" horiz-adv-x="1511" 
d="M733 1155q0 -137 -98 -240q-99 -100 -238 -100q-140 0 -237 100q-99 102 -99 240t99 240q98 98 237 98q138 0 238 -98q98 -103 98 -240zM1253 1513l-837 -1533h-154l838 1533h153zM1450 340q0 -137 -98 -240q-99 -100 -238 -100q-140 0 -237 100q-99 102 -99 240t99 240
q98 98 237 98q138 0 238 -98q98 -103 98 -240zM569 1155q0 69 -49 121q-51 51 -123 51q-70 0 -121 -51.5t-51 -120.5q0 -70 51 -123q51 -51 121 -51q72 0 123 51q49 52 49 123zM1286 340q0 69 -49 121q-51 51 -123 51q-70 0 -121 -51t-51 -121q0 -72 51 -123t121 -51
q72 0 123 51q49 52 49 123z" />
    <glyph glyph-name="percent" unicode="&#x202d;" horiz-adv-x="1511" 
d="M733 1155q0 -137 -98 -240q-99 -100 -238 -100q-140 0 -237 100q-99 102 -99 240t99 240q98 98 237 98q138 0 238 -98q98 -103 98 -240zM1253 1513l-837 -1533h-154l838 1533h153zM1450 340q0 -137 -98 -240q-99 -100 -238 -100q-140 0 -237 100q-99 102 -99 240t99 240
q98 98 237 98q138 0 238 -98q98 -103 98 -240zM569 1155q0 69 -49 121q-51 51 -123 51q-70 0 -121 -51.5t-51 -120.5q0 -70 51 -123q51 -51 121 -51q72 0 123 51q49 52 49 123zM1286 340q0 69 -49 121q-51 51 -123 51q-70 0 -121 -51t-51 -121q0 -72 51 -123t121 -51
q72 0 123 51q49 52 49 123z" />
    <glyph glyph-name="percent" unicode="&#x202c;" horiz-adv-x="1511" 
d="M733 1155q0 -137 -98 -240q-99 -100 -238 -100q-140 0 -237 100q-99 102 -99 240t99 240q98 98 237 98q138 0 238 -98q98 -103 98 -240zM1253 1513l-837 -1533h-154l838 1533h153zM1450 340q0 -137 -98 -240q-99 -100 -238 -100q-140 0 -237 100q-99 102 -99 240t99 240
q98 98 237 98q138 0 238 -98q98 -103 98 -240zM569 1155q0 69 -49 121q-51 51 -123 51q-70 0 -121 -51.5t-51 -120.5q0 -70 51 -123q51 -51 121 -51q72 0 123 51q49 52 49 123zM1286 340q0 69 -49 121q-51 51 -123 51q-70 0 -121 -51t-51 -121q0 -72 51 -123t121 -51
q72 0 123 51q49 52 49 123z" />
    <glyph glyph-name="percent" unicode="&#x202b;" horiz-adv-x="1511" 
d="M733 1155q0 -137 -98 -240q-99 -100 -238 -100q-140 0 -237 100q-99 102 -99 240t99 240q98 98 237 98q138 0 238 -98q98 -103 98 -240zM1253 1513l-837 -1533h-154l838 1533h153zM1450 340q0 -137 -98 -240q-99 -100 -238 -100q-140 0 -237 100q-99 102 -99 240t99 240
q98 98 237 98q138 0 238 -98q98 -103 98 -240zM569 1155q0 69 -49 121q-51 51 -123 51q-70 0 -121 -51.5t-51 -120.5q0 -70 51 -123q51 -51 121 -51q72 0 123 51q49 52 49 123zM1286 340q0 69 -49 121q-51 51 -123 51q-70 0 -121 -51t-51 -121q0 -72 51 -123t121 -51
q72 0 123 51q49 52 49 123z" />
    <glyph glyph-name="percent" unicode="&#x202a;" horiz-adv-x="1511" 
d="M733 1155q0 -137 -98 -240q-99 -100 -238 -100q-140 0 -237 100q-99 102 -99 240t99 240q98 98 237 98q138 0 238 -98q98 -103 98 -240zM1253 1513l-837 -1533h-154l838 1533h153zM1450 340q0 -137 -98 -240q-99 -100 -238 -100q-140 0 -237 100q-99 102 -99 240t99 240
q98 98 237 98q138 0 238 -98q98 -103 98 -240zM569 1155q0 69 -49 121q-51 51 -123 51q-70 0 -121 -51.5t-51 -120.5q0 -70 51 -123q51 -51 121 -51q72 0 123 51q49 52 49 123zM1286 340q0 69 -49 121q-51 51 -123 51q-70 0 -121 -51t-51 -121q0 -72 51 -123t121 -51
q72 0 123 51q49 52 49 123z" />
    <glyph glyph-name="percent" unicode="&#x2029;" horiz-adv-x="1511" 
d="M733 1155q0 -137 -98 -240q-99 -100 -238 -100q-140 0 -237 100q-99 102 -99 240t99 240q98 98 237 98q138 0 238 -98q98 -103 98 -240zM1253 1513l-837 -1533h-154l838 1533h153zM1450 340q0 -137 -98 -240q-99 -100 -238 -100q-140 0 -237 100q-99 102 -99 240t99 240
q98 98 237 98q138 0 238 -98q98 -103 98 -240zM569 1155q0 69 -49 121q-51 51 -123 51q-70 0 -121 -51.5t-51 -120.5q0 -70 51 -123q51 -51 121 -51q72 0 123 51q49 52 49 123zM1286 340q0 69 -49 121q-51 51 -123 51q-70 0 -121 -51t-51 -121q0 -72 51 -123t121 -51
q72 0 123 51q49 52 49 123z" />
    <glyph glyph-name="percent" unicode="&#x2028;" horiz-adv-x="1511" 
d="M733 1155q0 -137 -98 -240q-99 -100 -238 -100q-140 0 -237 100q-99 102 -99 240t99 240q98 98 237 98q138 0 238 -98q98 -103 98 -240zM1253 1513l-837 -1533h-154l838 1533h153zM1450 340q0 -137 -98 -240q-99 -100 -238 -100q-140 0 -237 100q-99 102 -99 240t99 240
q98 98 237 98q138 0 238 -98q98 -103 98 -240zM569 1155q0 69 -49 121q-51 51 -123 51q-70 0 -121 -51.5t-51 -120.5q0 -70 51 -123q51 -51 121 -51q72 0 123 51q49 52 49 123zM1286 340q0 69 -49 121q-51 51 -123 51q-70 0 -121 -51t-51 -121q0 -72 51 -123t121 -51
q72 0 123 51q49 52 49 123z" />
    <glyph glyph-name="percent" unicode="&#x2027;" horiz-adv-x="1511" 
d="M733 1155q0 -137 -98 -240q-99 -100 -238 -100q-140 0 -237 100q-99 102 -99 240t99 240q98 98 237 98q138 0 238 -98q98 -103 98 -240zM1253 1513l-837 -1533h-154l838 1533h153zM1450 340q0 -137 -98 -240q-99 -100 -238 -100q-140 0 -237 100q-99 102 -99 240t99 240
q98 98 237 98q138 0 238 -98q98 -103 98 -240zM569 1155q0 69 -49 121q-51 51 -123 51q-70 0 -121 -51.5t-51 -120.5q0 -70 51 -123q51 -51 121 -51q72 0 123 51q49 52 49 123zM1286 340q0 69 -49 121q-51 51 -123 51q-70 0 -121 -51t-51 -121q0 -72 51 -123t121 -51
q72 0 123 51q49 52 49 123z" />
    <glyph glyph-name="ampersand" unicode="&#x26;" horiz-adv-x="1059" 
d="M995 -20q-166 3 -286 112q-118 -112 -291 -112q-159 0 -256 98q-99 94 -99 252q0 207 195 422q-117 261 -117 411q0 159 82 250q85 100 240 100q137 0 219 -86q82 -85 82 -223q0 -120 -84 -248q-35 -54 -170 -204q41 -88 82 -156t102 -150q43 116 90 279l209 -57
q-22 -104 -139 -392q64 -57 141 -69v-227zM543 1204q0 162 -92 162q-101 0 -101 -147q0 -116 70 -287q123 159 123 272zM563 246q-138 168 -203 301q-63 -97 -63 -185q0 -66 43 -112q41 -47 106 -47t117 43z" />
    <glyph glyph-name="quotesingle" unicode="'" horiz-adv-x="475" 
d="M334 926h-193v567h193v-567z" />
    <glyph glyph-name="parenleft" unicode="(" horiz-adv-x="569" 
d="M504 -178h-197q-241 378 -241 846q0 116 15 228t44.5 216t74 202.5t107.5 198.5h197q-242 -375 -242 -845t242 -846z" />
    <glyph glyph-name="parenright" unicode=")" horiz-adv-x="532" 
d="M485 668q0 -468 -241 -846h-197q242 376 242 846t-242 845h197q60 -92 106 -194.5t75.5 -206.5t44.5 -216t15 -228z" />
    <glyph glyph-name="asterisk" unicode="*" horiz-adv-x="829" 
d="M782 1151q-9 0 -309 -37q129 -138 227 -221l-161 -113q-31 85 -125 289q-38 -77 -125 -289l-162 113q50 42 106.5 97t120.5 124q-115 17 -309 37l61 182q121 -72 261 -137q-11 140 -50 297h193q-36 -159 -49 -297q69 33 132.5 66t127.5 71z" />
    <glyph glyph-name="asterisk" horiz-adv-x="829" 
d="M782 1151q-9 0 -309 -37q129 -138 227 -221l-161 -113q-31 85 -125 289q-38 -77 -125 -289l-162 113q50 42 106.5 97t120.5 124q-115 17 -309 37l61 182q121 -72 261 -137q-11 140 -50 297h193q-36 -159 -49 -297q69 33 132.5 66t127.5 71z" />
    <glyph glyph-name="plus" unicode="+" horiz-adv-x="1145" 
d="M1090 422h-418v-422h-201v422h-418v203h418v422h201v-422h418v-203z" />
    <glyph glyph-name="comma" unicode="," horiz-adv-x="489" 
d="M369 0l-142 -256h-108l100 256h-92v244h242v-244z" />
    <glyph glyph-name="hyphen" unicode="-" horiz-adv-x="692" 
d="M598 461h-502v190h502v-190z" />
    <glyph glyph-name="period" unicode="." horiz-adv-x="477" 
d="M360 0h-241v244h241v-244z" />
    <glyph glyph-name="slash" unicode="/" horiz-adv-x="569" 
d="M612 1513l-454 -1533h-201l455 1533h200z" />
    <glyph glyph-name="zero" unicode="0" horiz-adv-x="868" 
d="M795 389q0 -98 -20 -174.5t-58 -124.5q-44 -55 -115 -82.5t-168 -27.5q-194 0 -282 110q-78 99 -78 299v715q0 202 78 301q85 108 282 108q196 0 283 -108q78 -101 78 -301v-715zM553 326v843q0 142 -119 142t-119 -142v-843q0 -144 119 -144t119 144z" />
    <glyph glyph-name="one" unicode="1" horiz-adv-x="868" 
d="M649 0h-229v1184h-201v137q204 109 301 192h129v-1513z" />
    <glyph glyph-name="two" unicode="2" horiz-adv-x="868" 
d="M799 1184q0 -112 -41.5 -242t-122.5 -274q-71 -124 -307 -457h448v-211h-706v201q250 371 299 450q188 317 188 492q0 168 -115 168q-90 0 -114 -92q-9 -34 -9 -164h-241v69q0 171 102 281q102 108 275 108q145 0 243 -94q101 -94 101 -235z" />
    <glyph glyph-name="three" unicode="3" horiz-adv-x="868" 
d="M786 418q0 -438 -368 -438q-207 0 -283 131q-55 94 -55 321h229q0 -132 8 -160q23 -90 107 -90q92 0 115 109q6 30 6 180q0 117 -49.5 164t-167.5 47v203q120 0 166 55q41 52 41 172q0 199 -103 199q-83 0 -104 -74q-11 -42 -11 -141h-229v71q0 158 94 252t252 94
t246 -116q84 -110 84 -267q0 -129 -27 -196q-33 -93 -133 -146q116 -60 154 -155q28 -73 28 -215z" />
    <glyph glyph-name="four" unicode="4" horiz-adv-x="868" 
d="M840 360h-135v-360h-234v360h-442v191l430 942h246v-942h135v-191zM475 551v582h-4l-248 -582h252z" />
    <glyph glyph-name="five" unicode="5" horiz-adv-x="868" 
d="M788 442q0 -216 -65 -323q-83 -139 -279 -139q-223 0 -303 122q-61 95 -61 330h229q0 -132 6 -158q20 -92 107 -92q125 0 125 183v337q0 138 -107 138q-97 0 -137 -113h-197q19 506 19 766h616l-8 -211h-399l-15 -321l5 -5q70 86 194 86q270 0 270 -393v-207z" />
    <glyph glyph-name="six" unicode="6" horiz-adv-x="868" 
d="M795 434q0 -214 -72 -323q-85 -131 -289 -131q-194 0 -282 110q-78 99 -78 299v715q0 202 78 301q85 108 282 108q191 0 266 -124q64 -101 64 -297h-221q0 119 -8 143q-22 76 -101 76q-119 0 -119 -142v-350q96 99 209 99q135 0 205 -89q66 -81 66 -217v-178zM553 326
v247q0 142 -107 142q-46 0 -131 -68v-321q0 -144 119 -144t119 144z" />
    <glyph glyph-name="seven" unicode="7" horiz-adv-x="868" 
d="M768 1350l-301 -1350h-240l297 1282h-424v211h668v-143z" />
    <glyph glyph-name="eight" unicode="8" horiz-adv-x="868" 
d="M795 414q0 -434 -361 -434q-360 0 -360 434q0 281 153 383q-133 95 -133 297q0 419 340 419q170 0 255 -104t85 -315q0 -202 -133 -297q78 -52 116 -146.5t38 -236.5zM545 1106q0 205 -111 205q-110 0 -110 -205t110 -205q111 0 111 205zM565 430q0 248 -131 248
t-131 -248t131 -248t131 248z" />
    <glyph glyph-name="nine" unicode="9" horiz-adv-x="868" 
d="M795 389q0 -98 -20 -174.5t-58 -124.5q-44 -55 -115 -82.5t-168 -27.5q-330 0 -330 421h222q0 -119 8 -143q18 -76 100 -76q119 0 119 144v348q-96 -99 -209 -99q-135 0 -205 89q-65 80 -65 217v178q0 219 69 323q86 131 291 131q196 0 283 -108q78 -101 78 -301v-715z
M553 846v323q0 142 -119 142t-119 -142v-249q0 -142 107 -142q48 0 131 68z" />
    <glyph glyph-name="colon" unicode=":" horiz-adv-x="457" 
d="M350 575h-241v244h241v-244zM350 0h-241v244h241v-244z" />
    <glyph glyph-name="semicolon" unicode=";" horiz-adv-x="463" 
d="M356 575h-241v244h241v-244zM356 0l-141 -256h-109l101 256h-92v244h241v-244z" />
    <glyph glyph-name="less" unicode="&#x3c;" horiz-adv-x="1161" 
d="M1098 0l-1037 436v174l1037 437v-216l-748 -307l748 -309v-215z" />
    <glyph glyph-name="equal" unicode="=" horiz-adv-x="1143" 
d="M1090 637h-1037v203h1037v-203zM1090 207h-1037v203h1037v-203z" />
    <glyph glyph-name="greater" unicode="&#x3e;" horiz-adv-x="1145" 
d="M1090 436l-1037 -436v215l748 309l-748 307v216l1037 -437v-174z" />
    <glyph glyph-name="question" unicode="?" horiz-adv-x="758" 
d="M711 1237q0 -122 -66 -231q-121 -195 -123 -201q-65 -145 -65 -367h-197v174q0 116 55 250q10 22 103 203q55 107 55 166q0 38 -24 65t-62 27q-106 0 -145 -156l-197 74q96 272 371 272q118 0 207 -79q88 -81 88 -197zM475 0h-242v244h242v-244z" />
    <glyph glyph-name="at" unicode="@" horiz-adv-x="1651" 
d="M1563 887q0 -216 -142 -395q-152 -197 -364 -197q-50 0 -82 33q-32 28 -35 80l-4 2q-103 -115 -221 -115q-133 0 -226 104q-92 106 -92 240q0 202 119 354q125 168 322 168q156 0 239 -135l33 107h166q-77 -268 -88 -304q-55 -192 -55 -307q0 -37 32 -57q112 0 181 141
q57 114 57 238q0 239 -156 377q-151 133 -391 133q-258 0 -422 -174q-162 -175 -162 -437t172 -432q175 -170 437 -170q266 0 436 172h170q-101 -155 -266 -245q-160 -88 -353 -88q-337 0 -557 217q-223 214 -223 551q0 326 222.5 545.5t547.5 219.5q280 0 488 -170
q217 -180 217 -456zM1014 795q0 70 -43 127q-45 53 -115 53q-107 0 -184 -105q-70 -94 -70 -204q0 -77 43 -127q46 -58 117 -58q107 0 184 105q68 95 68 209z" />
    <glyph glyph-name="A" unicode="A" horiz-adv-x="879" 
d="M870 0h-245l-45 332h-279l-45 -332h-246l273 1493h315zM543 555l-101 641h-4l-100 -641h205z" />
    <glyph glyph-name="B" unicode="B" horiz-adv-x="1022" 
d="M911 432q0 -202 -96 -313q-100 -119 -301 -119h-401v1493h376q394 0 394 -395q0 -99 -43 -185q-47 -92 -133 -127q204 -88 204 -354zM629 1071q0 211 -166 211h-96v-401h92q79 0 125 55q45 52 45 135zM657 440q0 230 -208 230h-82v-459h106q184 0 184 229z" />
    <glyph glyph-name="C" unicode="C" horiz-adv-x="887" 
d="M827 362q0 -173 -102 -278q-101 -104 -274 -104q-180 0 -285 102t-105 280v768q0 179 105 281t285 102q221 0 311 -159q65 -121 65 -359h-254q0 150 -8 183q-24 112 -114 112q-136 0 -136 -166v-755q0 -166 136 -166q127 0 127 190q0 43 -3 76q-2 31 -2 66h254v-173z" />
    <glyph glyph-name="D" unicode="D" horiz-adv-x="938" 
d="M858 451q0 -451 -401 -451h-377v1493h377q401 0 401 -451v-591zM604 420v653q0 111 -35 158q-38 51 -147 51h-88v-1071h88q109 0 147 51q35 47 35 158z" />
    <glyph glyph-name="E" unicode="E" horiz-adv-x="823" 
d="M766 0h-709v1493h680v-223h-426v-385h328v-223h-328v-439h455v-223z" />
    <glyph glyph-name="F" unicode="F" horiz-adv-x="784" 
d="M760 1270h-455v-385h340v-223h-340v-662h-254v1493h709v-223z" />
    <glyph glyph-name="G" unicode="G" horiz-adv-x="922" 
d="M844 0h-123l-47 113q-109 -133 -256 -133q-164 0 -254 112q-42 52 -64 120.5t-22 149.5v768q0 172 100 279q101 104 273 104q219 0 309 -153q71 -121 71 -350h-241q0 128 -17 182q-30 98 -129 98q-112 0 -112 -164v-766q0 -157 119 -157q143 0 143 219q0 41 -2 71.5
t-2 61.5h-162v203h416v-758z" />
    <glyph glyph-name="H" unicode="H" horiz-adv-x="1059" 
d="M918 0h-254v662h-271v-662h-254v1493h254v-608h271v608h254v-1493z" />
    <glyph glyph-name="I" unicode="I" horiz-adv-x="584" 
d="M418 0h-254v1493h254v-1493z" />
    <glyph glyph-name="J" unicode="J" horiz-adv-x="612" 
d="M526 297q0 -173 -94 -248q-81 -69 -262 -69h-84v223q100 0 131 14q55 24 55 111v1165h254v-1196z" />
    <glyph glyph-name="K" unicode="K" horiz-adv-x="874" 
d="M844 0h-258l-207 694h-4q-103 -83 -103 -471q0 -138 13 -223h-254v1493h254v-551h4l266 551h254l-274 -555z" />
    <glyph glyph-name="L" unicode="L" horiz-adv-x="711" 
d="M696 0h-653v1493h254v-1270h399v-223z" />
    <glyph glyph-name="M" unicode="M" horiz-adv-x="1276" 
d="M1153 0h-221v1167h-4l-230 -1167h-123l-229 1167h-4v-1167h-221v1493h334l180 -872h4l180 872h334v-1493z" />
    <glyph glyph-name="N" unicode="N" horiz-adv-x="1059" 
d="M918 0h-222l-323 934h-4v-934h-230v1493h236l309 -854h4v854h230v-1493z" />
    <glyph glyph-name="O" unicode="O" horiz-adv-x="1028" 
d="M903 362q0 -178 -104.5 -280t-284.5 -102q-178 0 -283.5 102t-105.5 280v768q0 179 105.5 281t283.5 102q180 0 284.5 -102t104.5 -281v-768zM649 369v755q0 166 -135 166t-135 -166v-755q0 -166 135 -166t135 166z" />
    <glyph glyph-name="P" unicode="P" horiz-adv-x="895" 
d="M860 1053q0 -281 -158 -373q-113 -68 -411 -68v-612h-254v1493h364q238 0 344 -100q115 -106 115 -340zM606 1053q0 129 -45 180q-46 49 -172 49h-98v-459h98q125 0 172 51q45 48 45 179z" />
    <glyph glyph-name="Q" unicode="Q" horiz-adv-x="1028" 
d="M942 -113q-156 0 -258 140q-86 -47 -207 -47q-180 0 -284.5 102t-104.5 280v768q0 179 105 281q103 102 284 102q177 0 285 -102q104 -102 104 -281v-768q0 -110 -43 -192q63 -54 119 -57v-226zM612 442v682q0 166 -135 166t-135 -166v-755q0 -166 135 -166q58 0 86 22
q-27 49 -67 80v230q65 -35 116 -93z" />
    <glyph glyph-name="R" unicode="R" horiz-adv-x="1024" 
d="M924 0h-258l-181 618q-51 -6 -131 -6v-612h-254v1493h357q113 0 195 -26.5t132 -80.5q103 -108 103 -333q0 -297 -178 -377zM633 1053q0 120 -35 170q-41 59 -154 59h-90v-459h90q112 0 154 60q35 49 35 170z" />
    <glyph glyph-name="S" unicode="S" horiz-adv-x="866" 
d="M823 362q0 -177 -108 -280q-111 -102 -293 -102q-169 0 -275 124q-97 113 -106 289l242 35q15 -225 151 -225q148 0 148 137q0 117 -133 244q-84 75 -248 227q-135 150 -135 332q0 181 108 276q52 49 121.5 71.5t163.5 22.5q156 0 250 -106q87 -98 102 -254l-242 -29
q-9 166 -135 166q-127 0 -127 -145q0 -102 135 -227q82 -76 134 -125t114 -107q133 -151 133 -324z" />
    <glyph glyph-name="T" unicode="T" horiz-adv-x="694" 
d="M719 1270h-246v-1270h-254v1270h-246v223h746v-223z" />
    <glyph glyph-name="U" unicode="U" horiz-adv-x="1030" 
d="M903 377q0 -187 -100 -291q-100 -106 -289 -106q-187 0 -287 106q-102 107 -102 291v1116h254v-1126q0 -164 135 -164t135 164v1126h254v-1116z" />
    <glyph glyph-name="V" unicode="V" horiz-adv-x="926" 
d="M879 1493l-310 -1493h-254l-309 1493h250l184 -1036h4l185 1036h250z" />
    <glyph glyph-name="W" unicode="W" horiz-adv-x="1419" 
d="M1358 1493l-260 -1493h-213l-185 987h-4l-172 -987h-213l-280 1493h237l156 -950h4l166 950h209l172 -950h4l141 950h238z" />
    <glyph glyph-name="X" unicode="X" horiz-adv-x="868" 
d="M860 0h-250l-172 545h-4l-176 -545h-250l291 782l-270 711h250l155 -473h4l142 473h249l-256 -711z" />
    <glyph glyph-name="Y" unicode="Y" horiz-adv-x="940" 
d="M903 1493q-44 -117 -85 -222t-83 -214q-106 -278 -139 -436v-621h-254v621q-12 52 -30 114.5t-52 162t-57 159.5q-42 109 -91 236.5t-77 199.5h258l178 -569h4l170 569h258z" />
    <glyph glyph-name="Z" unicode="Z" horiz-adv-x="946" 
d="M838 0h-729v244l473 1026h-416v223h672v-244l-467 -1026h467v-223z" />
    <glyph glyph-name="bracketleft" unicode="[" horiz-adv-x="483" 
d="M461 -158h-438v1651h438v-98h-242v-1452h242v-101z" />
    <glyph glyph-name="backslash" unicode="\" horiz-adv-x="596" 
d="M627 -20h-201l-455 1533h201z" />
    <glyph glyph-name="bracketright" unicode="]" horiz-adv-x="676" 
d="M557 -158h-438v101h241v1452h-241v98h438v-1651z" />
    <glyph glyph-name="asciicircum" unicode="^" horiz-adv-x="1149" 
d="M1073 625h-223l-279 624l-278 -624h-219l389 868h221z" />
    <glyph glyph-name="underscore" unicode="_" horiz-adv-x="922" 
d="M973 -258h-1024v102h1024v-102z" />
    <glyph glyph-name="grave" unicode="`" horiz-adv-x="528" 
d="M483 1245h-170l-268 297h277z" />
    <glyph glyph-name="a" unicode="a" horiz-adv-x="862" 
d="M799 0h-219l-13 86q-130 -106 -268 -106q-115 0 -172 69q-61 67 -61 180q0 196 153 328q50 41 137.5 88.5t198.5 89.5v66q0 143 -113 143q-63 0 -96.5 -40t-34.5 -118h-229q9 165 106 256t263 91q333 0 333 -302q0 -77 -6 -239q-6 -163 -6 -244q0 -212 27 -348zM555 272
v293q-117 -68 -172 -116q-88 -84 -88 -179q0 -100 106 -100q82 0 154 102z" />
    <glyph glyph-name="b" unicode="b" horiz-adv-x="866" 
d="M784 289q0 -131 -51 -211q-61 -98 -182 -98q-81 0 -141 34q-48 30 -105 103h-4v-117h-217v1493h229v-475q64 53 109 80q65 35 129 35q120 0 182 -99q51 -80 51 -211v-534zM555 350v414q0 180 -111 180q-49 0 -131 -59v-658q76 -57 131 -57q111 0 111 180z" />
    <glyph glyph-name="c" unicode="c" horiz-adv-x="858" 
d="M786 393q0 -413 -356 -413t-356 413v326q0 414 356 414q347 0 356 -400h-229q0 211 -127 211t-127 -182v-410q0 -182 127 -182q89 0 115 90q12 40 12 162h229v-29z" />
    <glyph glyph-name="d" unicode="d" horiz-adv-x="864" 
d="M782 0h-217v117h-4q-57 -72 -104 -103q-60 -34 -142 -34q-124 0 -182 98q-51 80 -51 211v534q0 131 51 211q58 99 182 99q64 0 129 -35q47 -31 109 -80v475h229v-1493zM553 227v658q-83 59 -131 59q-111 0 -111 -180v-414q0 -180 111 -180q54 0 131 57z" />
    <glyph glyph-name="e" unicode="e" horiz-adv-x="868" 
d="M791 377q-8 -397 -357 -397q-356 0 -356 413v326q0 414 356 414q357 0 357 -414v-207h-484v-160q0 -182 127 -182t127 207h230zM561 702v60q0 182 -127 182t-127 -182v-60h254z" />
    <glyph glyph-name="f" unicode="f" horiz-adv-x="483" 
d="M496 1323q-93 0 -119.5 -16t-26.5 -70q0 -27 2 -53.5t2 -71.5h131v-190h-131v-922h-229v922h-135v190h135q0 215 27 279q48 122 229 122h115v-190z" />
    <glyph glyph-name="g" unicode="g" horiz-adv-x="938" 
d="M887 -86q0 -266 -471 -266q-365 0 -365 178q0 62 43 113q45 47 107 61v4q-105 40 -105 141q0 97 140 181q-103 71 -132 174q-16 62 -16 225q0 212 72 305q80 103 284 103q154 0 254 -119q49 67 76 88q45 31 113 31v-191l-37 2h-12q-56 0 -99 -37q25 -87 25 -174
q0 -68 -7.5 -130.5t-22.5 -110.5t-36 -80q-80 -127 -282 -127q-68 0 -74 -2q-45 -10 -45 -50q0 -54 154 -63q209 -9 282 -33q154 -55 154 -223zM535 709q0 109 -11 153q-20 82 -104 82q-75 0 -101 -86q-14 -43 -14 -149q0 -105 14 -148q26 -86 101 -86q83 0 104 82
q11 46 11 152zM682 -104q0 60 -74 75q-33 9 -121 9q-87 0 -120 -9q-74 -15 -74 -75q0 -59 76 -74q29 -8 118 -8q90 0 119 8q76 15 76 74z" />
    <glyph glyph-name="h" unicode="h" horiz-adv-x="858" 
d="M774 0h-229v862q0 82 -82 82q-52 0 -148 -72v-872h-229v1493h229v-483q80 69 119 90q64 33 148 33q93 0 147 -72q45 -60 45 -162v-899z" />
    <glyph glyph-name="i" unicode="i" horiz-adv-x="500" 
d="M365 0h-230v1112h230v-1112zM340 1219h-182v167h182v-167z" />
    <glyph glyph-name="j" unicode="j" horiz-adv-x="522" 
d="M438 -63q0 -289 -266 -289h-88v211q65 0 88 10q37 18 37 78v1163h229v-1173zM416 1219h-183v167h183v-167z" />
    <glyph glyph-name="k" unicode="k" horiz-adv-x="924" 
d="M842 0h-232l-184 553h-4l-109 -164v-389h-229v1493h229v-774h4l252 393h246l-240 -350z" />
    <glyph glyph-name="l" unicode="l" horiz-adv-x="500" 
d="M365 0h-230v1493h230v-1493z" />
    <glyph glyph-name="m" unicode="m" horiz-adv-x="1376" 
d="M1260 0h-230v862q0 82 -82 82q-50 0 -145 -72v-872h-230v862q0 82 -79 82q-49 0 -148 -72v-872h-229v1112h217v-111q82 72 115 91q68 41 139 41q75 0 123 -31q39 -29 77 -101q135 132 256 132q216 0 216 -234v-899z" />
    <glyph glyph-name="n" unicode="n" horiz-adv-x="922" 
d="M805 0h-230v862q0 82 -81 82q-52 0 -148 -72v-872h-229v1112h217v-111q86 75 125 97q68 35 153 35q94 0 148 -72q45 -60 45 -162v-899z" />
    <glyph glyph-name="o" unicode="o" horiz-adv-x="864" 
d="M788 393q0 -413 -356 -413t-356 413v326q0 414 356 414t356 -414v-326zM559 352v410q0 182 -127 182t-127 -182v-410q0 -182 127 -182t127 182z" />
    <glyph glyph-name="p" unicode="p" horiz-adv-x="868" 
d="M784 289q0 -131 -51 -211q-61 -98 -182 -98q-66 0 -129 34q-47 31 -109 80v-446h-229v1464h217v-115h4q109 136 246 136q120 0 182 -99q51 -80 51 -211v-534zM555 350v414q0 180 -111 180q-46 0 -131 -59v-658q76 -57 131 -57q111 0 111 180z" />
    <glyph glyph-name="q" unicode="q" horiz-adv-x="868" 
d="M784 -352h-229v446q-62 -49 -109 -80q-62 -34 -129 -34q-121 0 -182 98q-51 80 -51 211v534q0 131 51 211q61 99 182 99q142 0 246 -136h4v115h217v-1464zM555 227v658q-83 59 -131 59q-111 0 -111 -180v-414q0 -180 111 -180q56 0 131 57z" />
    <glyph glyph-name="r" unicode="r" horiz-adv-x="633" 
d="M582 891q-94 22 -148 22q-65 0 -108 -41q-45 -38 -45 -106v-766h-230v1112h219v-129h4q90 150 308 150v-242z" />
    <glyph glyph-name="s" unicode="s" horiz-adv-x="752" 
d="M713 279q0 -144 -88 -222q-91 -77 -234 -77q-298 0 -350 309l201 57q24 -176 151 -176q103 0 103 96q0 78 -113 166q-145 118 -207 166q-110 107 -110 238t88 213q90 84 219 84q133 0 220.5 -82t115.5 -213l-195 -33q-27 139 -131 139q-100 0 -100 -90q0 -68 110 -154
q175 -133 207 -165q113 -113 113 -256z" />
    <glyph glyph-name="t" unicode="t" horiz-adv-x="692" 
d="M602 -8q-46 -12 -115 -12q-268 0 -268 249v693h-127v190h127v301h230v-301h153v-190h-153v-641q0 -69 47 -84q17 -7 106 -7v-198z" />
    <glyph glyph-name="u" unicode="u" horiz-adv-x="950" 
d="M819 0h-217v113q-77 -70 -125 -97q-64 -36 -153 -36q-95 0 -148 71q-45 60 -45 162v899h229v-862q0 -80 82 -80q53 0 148 70v872h229v-1112z" />
    <glyph glyph-name="v" unicode="v" horiz-adv-x="776" 
d="M766 1112l-266 -1112h-224l-266 1112h234l141 -743h4l143 743h234z" />
    <glyph glyph-name="w" unicode="w" horiz-adv-x="1169" 
d="M1141 1112l-254 -1112h-185l-124 702h-5l-149 -702h-184l-213 1112h221l100 -694h4l146 692h170l123 -692h4l125 694h221z" />
    <glyph glyph-name="x" unicode="x" horiz-adv-x="768" 
d="M758 0h-238l-133 377h-4l-133 -377h-238l246 590l-227 522h237l117 -309l123 309h237l-237 -518z" />
    <glyph glyph-name="y" unicode="y" horiz-adv-x="770" 
d="M764 1112l-289 -1194q-33 -138 -102 -201q-73 -67 -211 -67h-96v190q117 0 157 29q49 37 49 151q0 73 -26 204t-84 339q-17 60 -47 167t-60 214.5t-47 167.5h234l147 -711h4l139 711h232z" />
    <glyph glyph-name="z" unicode="z" horiz-adv-x="762" 
d="M717 0h-674v190l420 732h-391v190h645v-190l-428 -732h428v-190z" />
    <glyph glyph-name="braceleft" unicode="{" horiz-adv-x="506" 
d="M528 -178h-225q-229 0 -229 291q0 27 0.5 36t3 41.5t6.5 85.5q8 96 8 154q0 182 -117 182v121q117 0 117 180q0 56 -8 152t-8 160q0 288 227 288h225v-98q-5 0 -63 4q-29 2 -64 2q-114 0 -114 -110q0 -13 6 -103q6 -88 6 -153q0 -360 -168 -381v-6q168 -28 168 -375
q0 -62 -6 -158q-6 -94 -6 -110q0 -109 119 -109q3 0 61 4q27 2 61 2v-100z" />
    <glyph glyph-name="bar" unicode="|" horiz-adv-x="375" 
d="M289 -20h-201v1533h201v-1533z" />
    <glyph glyph-name="braceright" unicode="}" horiz-adv-x="633" 
d="M594 604q-117 0 -117 -180q0 -56 8 -152q9 -91 9 -161q0 -289 -228 -289h-225v100q35 0 63 -2q54 -4 60 -4q119 0 119 109q0 19 -7 104q-6 88 -6 154q0 356 168 379v6q-168 27 -168 376q0 63 6 158q7 87 7 109q0 110 -115 110q-35 0 -64 -2q-56 -4 -63 -4v98h225
q230 0 230 -288q0 -71 -9 -164q-10 -120 -10 -154q0 -182 117 -182v-121z" />
    <glyph glyph-name="asciitilde" unicode="~" horiz-adv-x="1149" 
d="M1063 514q-63 -57 -87 -78.5t-34 -29.5q-70 -52 -151 -52q-72 0 -207.5 65.5t-237.5 65.5q-105 0 -172 -131l-90 178q65 75 119 113q71 47 153 47q79 0 226 -65.5t211 -65.5q85 0 180 131z" />
    <glyph glyph-name="Zcaron" horiz-adv-x="946" 
d="M838 0h-729v244l473 1026h-416v223h672v-244l-467 -1026h467v-223z" />
    <glyph glyph-name="ogonek" horiz-adv-x="526" 
d="M510 -326q-172 -123 -291 -123q-88 0 -143 52q-58 52 -58 137q0 226 441 303v-25q-273 -106 -273 -256q0 -96 101 -96q68 0 184 82z" />
    <glyph glyph-name="caron" horiz-adv-x="586" 
d="M602 1528l-196 -295h-226l-196 295h188l121 -182l121 182h188z" />
    <glyph glyph-name="quotesinglbase" unicode="&#x201a;" horiz-adv-x="377" 
d="M313 0l-141 -256h-109l101 256h-92v244h241v-244z" />
    <glyph glyph-name="florin" unicode="&#x192;" horiz-adv-x="831" 
d="M801 1309q-45 26 -105 26q-152 0 -161 -413h208v-172h-217q-8 -136 -12.5 -220t-9.5 -186q-13 -145 -39 -264t-66 -207q-101 -225 -288 -225q-22 0 -80 10v190q36 -5 45 -7t14 -3q99 0 152 207q36 150 51 410q8 196 10 295h-190v172h204q34 591 388 591q18 0 96 -10v-194
z" />
    <glyph glyph-name="quotedblbase" unicode="&#x201e;" horiz-adv-x="829" 
d="M729 0l-141 -256h-109l101 256h-93v244h242v-244zM350 0l-141 -256h-109l101 256h-92v244h241v-244z" />
    <glyph glyph-name="ellipsis" unicode="&#x2026;" horiz-adv-x="1915" 
d="M1757 0h-233v244h233v-244zM1075 0h-233v244h233v-244zM393 0h-233v244h233v-244z" />
    <glyph glyph-name="dagger" unicode="&#x2020;" horiz-adv-x="936" 
d="M844 932l-342 86l92 -350q-47 -164 -66 -414q-6 -135 -22 -420h-78q-4 94 -7 151.5t-6 117t-7 151.5q-20 254 -68 414l92 350l-342 -86v256l334 -88l-80 413h246l-80 -413l334 88v-256z" />
    <glyph glyph-name="daggerdbl" unicode="&#x2021;" horiz-adv-x="942" 
d="M848 162l-334 86l80 -414h-246l80 414l-334 -86v256l342 -86l-92 342l92 344l-342 -86v256l334 -88l-80 413h246l-80 -413l334 88v-256l-342 86l92 -344l-92 -342l342 86v-256z" />
    <glyph glyph-name="circumflex" unicode="&#x2c6;" horiz-adv-x="586" 
d="M602 1245h-188l-121 185l-121 -185h-188l196 297h226z" />
    <glyph glyph-name="perthousand" unicode="&#x2030;" horiz-adv-x="1962" 
d="M1976 311q0 -126 -90 -219q-89 -92 -217 -92t-217 92q-90 95 -90 219q0 126 90 219q89 91 217 91t217 -91q90 -91 90 -219zM600 1184q0 -126 -90 -219q-88 -93 -217 -93q-128 0 -217 93q-90 91 -90 219q0 126 90 219q90 90 217 90t217 -90q90 -95 90 -219zM1139 1513
l-842 -1533h-143l841 1533h144zM1251 311q0 -126 -90 -219q-89 -92 -217 -92t-217 92q-90 95 -90 219q0 126 90 219q89 91 217 91t217 -91q90 -91 90 -219zM1812 311q0 58 -40 103q-46 41 -103 41q-59 0 -100 -41q-43 -43 -43 -103q0 -59 43 -102q39 -43 100 -43
q63 0 103 43q40 45 40 102zM436 1184q0 58 -41 102q-43 41 -102 41q-61 0 -100 -41q-43 -43 -43 -102q0 -60 43 -103q40 -43 100 -43q62 0 102 43q41 44 41 103zM1087 311q0 58 -40 103q-46 41 -103 41q-59 0 -100 -41q-43 -43 -43 -103q0 -59 43 -102q39 -43 100 -43
q63 0 103 43q40 45 40 102z" />
    <glyph glyph-name="Scaron" unicode="&#x160;" horiz-adv-x="866" 
d="M823 362q0 -177 -108 -280q-111 -102 -293 -102q-169 0 -275 124q-97 113 -106 289l242 35q15 -225 151 -225q148 0 148 137q0 117 -133 244q-84 75 -248 227q-135 150 -135 332q0 181 108 276q52 49 121.5 71.5t163.5 22.5q156 0 250 -106q87 -98 102 -254l-242 -29
q-9 166 -135 166q-127 0 -127 -145q0 -102 135 -227q82 -76 134 -125t114 -107q133 -151 133 -324z" />
    <glyph glyph-name="guilsinglleft" unicode="&#x2039;" horiz-adv-x="598" 
d="M518 874l-239 -317l233 -319h-197l-235 321l235 315h203z" />
    <glyph glyph-name="OE" unicode="&#x152;" horiz-adv-x="1397" 
d="M1337 0h-848q-212 0 -323 123q-107 116 -107 332v583q0 215 109 336q36 40 84 66.5t106 39.5t131 13h820v-223h-443v-385h344v-223h-344v-439h471v-223zM612 383v733q0 156 -141 156q-158 0 -158 -197v-651q0 -197 158 -197q141 0 141 156z" />
    <glyph glyph-name="Lslash" horiz-adv-x="881" 
d="M823 0h-653v594l-111 -45v168l111 45v717h254v-617l238 96v-167l-238 -97v-473h399v-221z" />
    <glyph glyph-name="ordmasculine" horiz-adv-x="621" 
d="M541 1069q0 -250 -232 -250q-231 0 -231 250v197q0 247 231 247q232 0 232 -247v-197zM373 1053v227q0 102 -64 102q-63 0 -63 -102v-227q0 -101 63 -101q64 0 64 101z" />
    <glyph glyph-name="fraction" horiz-adv-x="711" 
d="M868 1499l-839 -1519h-187l840 1519h186z" />
    <glyph glyph-name="breve" horiz-adv-x="575" 
d="M590 1534q-12 -133 -90 -211q-77 -80 -211 -80t-211 80q-81 78 -90 211h118q17 -152 183 -152q82 0 127.5 38t54.5 114h119z" />
    <glyph glyph-name="quoteleft" unicode="&#x2018;" horiz-adv-x="498" 
d="M375 1513l-101 -256h93v-243h-242v243l141 256h109z" />
    <glyph glyph-name="quoteright" unicode="&#x2019;" horiz-adv-x="483" 
d="M367 1249l-142 -256h-108l100 256h-92v244h242v-244z" />
    <glyph glyph-name="quotedblleft" unicode="&#x201c;" horiz-adv-x="915" 
d="M772 1513l-100 -256h92v-243h-242v243l142 256h108zM393 1513l-100 -256h92v-243h-242v243l142 256h108z" />
    <glyph glyph-name="quotedblright" unicode="&#x201d;" horiz-adv-x="778" 
d="M702 1249l-141 -256h-108l100 256h-92v244h241v-244zM324 1249l-142 -256h-108l100 256h-92v244h242v-244z" />
    <glyph glyph-name="bullet" unicode="&#x2022;" 
 />
    <glyph glyph-name="emdash" unicode="&#x2013;" horiz-adv-x="2148" 
d="M2097 481h-2048v150h2048v-150z" />
    <glyph glyph-name="endash" unicode="&#x2014;" horiz-adv-x="1124" 
d="M1073 481h-1024v150h1024v-150z" />
    <glyph glyph-name="tilde" unicode="&#x2dc;" horiz-adv-x="604" 
d="M637 1516q-47 -244 -211 -244q-49 0 -133 41q-87 41 -123 41q-83 0 -86 -92h-115q47 243 211 243q54 0 133 -39q88 -41 123 -41q83 0 86 91h115z" />
    <glyph glyph-name="trademark" unicode="&#x2122;" horiz-adv-x="1946" 
d="M1860 641h-189v625h-4l-225 -625h-142l-225 625h-4v-625h-188v852h278l211 -559l211 559h277v-852zM774 1337h-246v-696h-196v696h-246v156h688v-156z" />
    <glyph glyph-name="scaron" unicode="&#x161;" horiz-adv-x="752" 
d="M713 279q0 -144 -88 -222q-91 -77 -234 -77q-298 0 -350 309l201 57q24 -176 151 -176q103 0 103 96q0 78 -113 166q-145 118 -207 166q-110 107 -110 238t88 213q90 84 219 84q133 0 220.5 -82t115.5 -213l-195 -33q-27 139 -131 139q-100 0 -100 -90q0 -68 110 -154
q175 -133 207 -165q113 -113 113 -256z" />
    <glyph glyph-name="guilsinglright" unicode="&#x203a;" horiz-adv-x="610" 
d="M524 559l-235 -321h-197l234 319l-240 317h203z" />
    <glyph glyph-name="oe" unicode="&#x153;" horiz-adv-x="1286" 
d="M1229 377q-5 -198 -87.5 -297.5t-244.5 -99.5q-177 0 -248 129q-67 -129 -258 -129q-332 0 -332 413v326q0 414 332 414q198 0 262 -125q70 125 244 125q332 0 332 -414v-207h-469v-160q0 -182 112 -182q127 0 127 207h230zM999 702v60q0 182 -127 182q-112 0 -112 -182
v-60h239zM530 352v410q0 182 -114 182q-127 0 -127 -182v-410q0 -182 127 -182q114 0 114 182z" />
    <glyph glyph-name="dotlessi" horiz-adv-x="500" 
d="M365 0h-230v1112h230v-1112z" />
    <glyph glyph-name="dotlessi" unicode="&#x131;" horiz-adv-x="500" 
d="M365 0h-230v1112h230v-1112z" />
    <glyph glyph-name="zcaron" horiz-adv-x="762" 
d="M717 0h-674v190l420 732h-391v190h645v-190l-428 -732h428v-190z" />
    <glyph glyph-name="Ydieresis" horiz-adv-x="940" 
d="M903 1493q-44 -117 -85 -222t-83 -214q-106 -278 -139 -436v-621h-254v621q-12 52 -30 114.5t-52 162t-57 159.5q-42 109 -91 236.5t-77 199.5h258l178 -569h4l170 569h258z" />
    <glyph glyph-name="Ydieresis" unicode="&#x178;" horiz-adv-x="940" 
d="M903 1493q-44 -117 -85 -222t-83 -214q-106 -278 -139 -436v-621h-254v621q-12 52 -30 114.5t-52 162t-57 159.5q-42 109 -91 236.5t-77 199.5h258l178 -569h4l170 569h258z" />
    <glyph glyph-name="fl" unicode="&#xa0;" horiz-adv-x="991" 
d="M897 0h-229v1479h229v-1479zM598 1311q-90 0 -119 -17q-26 -14 -26 -67q0 -27 2 -53.5t2 -71.5h131v-189h-131v-913h-230v913h-135v189h135q0 203 29 276q50 121 227 121h115v-188z" />
    <glyph glyph-name="exclamdown" unicode="&#xa1;" horiz-adv-x="485" 
d="M365 868h-242v244h242v-244zM373 -381h-258l45 1055h168z" />
    <glyph glyph-name="cent" unicode="&#xa2;" horiz-adv-x="823" 
d="M788 414q0 -186 -90 -299q-95 -121 -258 -121q-59 0 -114 14l-68 -248h-154l82 299q-151 97 -151 355v327q0 414 373 414q23 0 71 -4l72 264h151l-84 -311q157 -93 160 -350h-213q0 105 -30 149l-187 -696q29 -17 66 -17q97 0 129 84q16 50 16 168h229v-28zM446 963
q-6 2 -32 2q-150 0 -150 -183v-409q0 -9 12 -68h5z" />
    <glyph glyph-name="sterling" unicode="&#xa3;" horiz-adv-x="831" 
d="M797 289q0 -137 -66 -221q-69 -88 -207 -88q-143 0 -262 98q-127 -89 -225 -98v221q113 36 143 196q15 67 15 262h-158v175h129q-57 248 -57 340q0 339 337 339q330 0 330 -417h-209q-6 114 -20 149q-29 78 -107 78q-102 0 -102 -131q0 -79 20 -180q15 -60 39 -178h203
v-175h-184q-3 -145 -10 -215q-17 -125 -62 -204q71 -50 143 -50q105 0 105 222h205v-123z" />
    <glyph glyph-name="currency" unicode="&#xa4;" horiz-adv-x="979" 
d="M928 412l-103 -111l-98 100q-107 -73 -238 -73q-132 0 -239 73l-96 -100l-103 111l96 94q-75 106 -75 242q0 133 75 239l-96 94l103 111l96 -100q106 75 239 75q135 0 238 -75l98 100l103 -111l-97 -94q76 -105 76 -239q0 -137 -76 -242zM719 748q0 96 -66 170
q-65 71 -164 71q-96 0 -161 -71q-68 -73 -68 -170q0 -98 66 -170q64 -74 163 -74q100 0 164 74q66 72 66 170z" />
    <glyph glyph-name="yen" unicode="&#xa5;" horiz-adv-x="954" 
d="M887 1493l-187 -524h179v-174h-248l-56 -166h304v-174h-304v-455h-196v455h-303v174h303l-55 166h-248v174h178l-186 524h204l207 -619h4l199 619h205z" />
    <glyph glyph-name="brokenbar" unicode="&#xa6;" horiz-adv-x="385" 
d="M293 881h-201v632h201v-632zM293 -20h-201v632h201v-632z" />
    <glyph glyph-name="section" unicode="&#xa7;" horiz-adv-x="944" 
d="M879 580q0 -100 -60 -172q-59 -69 -162 -72q103 -103 103 -223t-76.5 -199.5t-194.5 -79.5q-174 0 -348 168l150 119q64 -125 162 -125q118 0 118 102q0 77 -131 205q-120 120 -243 240q-129 150 -129 266q0 101 62.5 163.5t164.5 71.5q-102 78 -102 218q0 123 86 190
q79 61 208 61q181 0 297 -163l-141 -105q-98 109 -156 109q-106 0 -106 -97q0 -74 129 -194q160 -148 240 -223q129 -138 129 -260zM690 559q0 56 -143 205q-144 147 -201 147q-39 0 -63 -24q-27 -24 -27 -62q0 -55 143 -204q145 -154 197 -154q37 0 65.5 28.5t28.5 63.5z
" />
    <glyph glyph-name="dieresis" unicode="&#xa8;" horiz-adv-x="582" 
d="M563 1270h-221v223h221v-223zM240 1270h-222v223h222v-223z" />
    <glyph glyph-name="copyright" unicode="&#xa9;" horiz-adv-x="1690" 
d="M1624 748q0 -332 -223 -549q-225 -219 -555 -219q-331 0 -555 219q-112 109 -167.5 246t-55.5 303q0 328 225 546q223 219 553 219q328 0 553 -219q112 -108 168.5 -244.5t56.5 -301.5zM1423 748q0 250 -163 430q-165 176 -414 176t-414 -176q-82 -88 -123 -195.5
t-41 -234.5q0 -255 162 -431q54 -58 119 -97.5t140 -59t157 -19.5q250 0 413.5 177.5t163.5 429.5zM1245 618q-24 -146 -125 -233q-101 -92 -246 -92q-97 0 -175.5 34t-137.5 99q-121 133 -121 326q0 198 117 327q114 129 313 129q149 0 248 -86q100 -86 121 -233h-160
q-30 158 -209 158q-117 0 -182 -91q-55 -76 -55 -200q0 -119 59 -205q67 -96 182 -96q80 0 138 43q58 41 67 120h166z" />
    <glyph glyph-name="ordfeminine" unicode="&#xaa;" horiz-adv-x="627" 
d="M551 831h-143l-9 43q-75 -55 -174 -55q-151 0 -151 152q0 118 100 196q64 53 207 107v39q0 78 -70 78q-73 0 -78 -86h-159q6 105 78 157q63 51 172 51q217 0 217 -182q0 -2 -4 -166q-2 -71 -2 -170q3 -85 16 -164zM381 1006v151q-69 -35 -98 -61q-50 -44 -50 -99
q0 -53 60 -53q26 0 57 21t31 41z" />
    <glyph glyph-name="guillemotleft" unicode="&#xab;" horiz-adv-x="940" 
d="M860 874l-239 -317l233 -319h-197l-235 321l235 315h203zM518 874l-239 -317l233 -319h-197l-235 321l235 315h203z" />
    <glyph glyph-name="logicalnot" unicode="&#xac;" horiz-adv-x="1157" 
d="M1098 205h-201v432h-836v203h1037v-635z" />
    <glyph glyph-name="minus" unicode="&#xad;" horiz-adv-x="1145" 
d="M1090 418h-1037v200h1037v-200z" />
    <glyph glyph-name="registered" unicode="&#xae;" horiz-adv-x="1690" 
d="M1624 748q0 -332 -223 -549q-225 -219 -555 -219q-331 0 -555 219q-112 109 -167.5 246t-55.5 303q0 328 225 546q223 219 553 219q328 0 553 -219q112 -108 168.5 -244.5t56.5 -301.5zM1423 748q0 250 -163 430q-165 176 -414 176t-414 -176q-82 -88 -123 -195.5
t-41 -234.5q0 -255 162 -431q54 -58 119 -97.5t140 -59t157 -19.5q250 0 413.5 177.5t163.5 429.5zM1194 319h-186l-191 365h-106v-365h-168v859h321q330 0 330 -256q0 -211 -205 -230zM1022 938q0 106 -174 106h-137v-227h145q166 0 166 121z" />
    <glyph glyph-name="macron" unicode="&#xaf;" horiz-adv-x="596" 
d="M600 1317h-602v133h602v-133z" />
    <glyph glyph-name="ring" unicode="&#xb0;" horiz-adv-x="535" 
d="M475 1442q0 -87 -61 -148t-148 -61q-84 0 -145 61q-64 61 -64 148q0 86 64 147q62 62 145 62q86 0 148 -62q61 -61 61 -147zM373 1442q0 43 -31 76q-30 30 -76 30q-43 0 -73 -30q-33 -30 -33 -76q0 -47 33 -76q31 -31 73 -31q45 0 76 31t31 76z" />
    <glyph glyph-name="plusminus" unicode="&#xb1;" horiz-adv-x="1151" 
d="M1094 561h-418v-285h-201v285h-418v203h418v283h201v-283h418v-203zM1094 0h-1037v203h1037v-203z" />
    <glyph glyph-name="twosuperior" unicode="&#xb2;" horiz-adv-x="623" 
d="M555 1315q0 -150 -80 -295q-58 -106 -184 -250h258v-166h-481v168q151 175 225 303t74 215q0 60 -58 60q-65 0 -65 -111h-176v41q0 105 77 170q76 63 187 63q90 0 157 -55q66 -57 66 -143z" />
    <glyph glyph-name="threesuperior" unicode="&#xb3;" horiz-adv-x="627" 
d="M555 856q0 -264 -256 -264q-132 0 -184 74q-43 58 -43 198h176q0 -49 4 -69q9 -37 51 -37q44 0 53 49q2 6 2 82q0 66 -24 90q-30 22 -92 22v154q64 0 88 27t24 92q0 84 -53 84q-51 0 -51 -94h-172v41q0 97 64.5 152.5t166.5 55.5q106 0 170 -61q64 -64 64 -168
q0 -152 -97 -205q67 -32 93 -92q16 -42 16 -131z" />
    <glyph glyph-name="acute" unicode="&#xb4;" horiz-adv-x="401" 
d="M420 1542l-268 -297h-170l161 297h277z" />
    <glyph glyph-name="mu" unicode="&#xb5;" 
 />
    <glyph glyph-name="paragraph" unicode="&#xb6;" horiz-adv-x="1102" 
d="M1059 1362h-115v-1528h-168v1528h-178v-1528h-168v895q-171 0 -278 105q-109 101 -109 270q0 389 426 389h590v-131z" />
    <glyph glyph-name="periodcentered" unicode="&#xb7;" horiz-adv-x="375" 
d="M324 524q0 -57 -39 -98q-41 -41 -99 -41q-55 0 -96 41t-41 98q0 58 41 99q40 39 96 39q58 0 99 -39q39 -40 39 -99z" />
    <glyph glyph-name="periodcentered" unicode="&#x2219;" horiz-adv-x="375" 
d="M324 524q0 -57 -39 -98q-41 -41 -99 -41q-55 0 -96 41t-41 98q0 58 41 99q40 39 96 39q58 0 99 -39q39 -40 39 -99z" />
    <glyph glyph-name="cedilla" unicode="&#xb8;" horiz-adv-x="410" 
d="M434 -276q0 -98 -82 -158q-71 -53 -172 -53q-100 0 -203 47l35 102q75 -35 133 -35q44 0 84 23q37 21 37 63q0 74 -96 74q-42 0 -74 -14l-45 37l139 190h99l-84 -125q32 4 43 4q71 0 129 -43q57 -42 57 -112z" />
    <glyph glyph-name="onesuperior" unicode="&#xb9;" horiz-adv-x="467" 
d="M385 604h-197v692h-106v101q111 41 203 116h100v-909z" />
    <glyph glyph-name="degree" unicode="&#xba;" horiz-adv-x="741" 
d="M666 1219q0 -123 -86 -209q-85 -88 -209 -88q-128 0 -209 88q-86 85 -86 209q0 123 86 208q82 86 209 86q123 0 209 -86t86 -208zM539 1219q0 72 -47 127q-51 53 -121 53q-73 0 -121 -53q-47 -53 -47 -127q0 -75 47 -127q48 -54 121 -54t120.5 53.5t47.5 127.5z" />
    <glyph glyph-name="guillemotright" unicode="&#xbb;" horiz-adv-x="952" 
d="M866 559l-235 -321h-197l234 319l-240 317h203zM524 559l-235 -321h-197l234 319l-240 317h203z" />
    <glyph glyph-name="onequarter" unicode="&#xbc;" horiz-adv-x="1282" 
d="M1237 207h-78v-207h-168v207h-291v166q40 81 86 171.5t82 160t97 190.5h194v-530h78v-158zM1120 1513l-839 -1533h-187l840 1533h186zM348 604h-196v692h-107v101q102 39 203 114h100v-907zM991 365v274h-4l-127 -274h131z" />
    <glyph glyph-name="onehalf" unicode="&#xbd;" horiz-adv-x="1284" 
d="M1243 711q0 -151 -78 -295q-26 -49 -77 -117t-109 -133h258v-166h-481v168q151 175 225 302.5t74 215.5q0 59 -58 59q-65 0 -65 -110h-176v41q0 109 82 172q73 61 182 61q94 0 158 -55q65 -56 65 -143zM1102 1513l-840 -1533h-186l839 1533h187zM342 604h-197v692h-106
v101q111 41 203 116h100v-909z" />
    <glyph glyph-name="threequarters" unicode="&#xbe;" horiz-adv-x="1280" 
d="M1255 207h-77v-207h-168v207h-291v166q123 243 264 522h195v-530h77v-158zM1178 1513l-840 -1533h-186l839 1533h187zM506 856q0 -264 -256 -264q-134 0 -184 74q-43 58 -43 198h176q0 -49 4 -69q9 -37 51 -37q44 0 53 49q2 6 2 82q0 66 -24 90q-27 22 -92 22v154
q66 0 90 27q22 28 22 92q0 84 -53 84q-51 0 -51 -94h-172v41q0 98 69 155q65 53 162 53q106 0 170 -61q64 -64 64 -168q0 -152 -97 -205q71 -33 92 -92q17 -40 17 -131zM1010 365v274h-4l-127 -274h131z" />
    <glyph glyph-name="questiondown" unicode="&#xbf;" horiz-adv-x="657" 
d="M473 868h-242v244h242v-244zM662 -129q-96 -272 -371 -272q-117 0 -205 79q-90 82 -90 197q0 124 65 231q122 199 123 201q32 70 49 164t17 203h196v-174q0 -117 -55 -248q-15 -30 -32 -65t-70 -138q-56 -109 -56 -168q0 -35 24.5 -63.5t61.5 -28.5q105 0 146 158z" />
    <glyph glyph-name="Agrave" unicode="&#xc0;" horiz-adv-x="879" 
d="M870 0h-245l-45 332h-279l-45 -332h-246l273 1493h315zM543 555l-101 641h-4l-100 -641h205zM553 1575h-109l-174 192h179z" />
    <glyph glyph-name="Aacute" unicode="&#xc1;" horiz-adv-x="879" 
d="M870 0h-245l-45 332h-279l-45 -332h-246l273 1493h315zM543 555l-101 641h-4l-100 -641h205zM637 1757l-174 -192h-109l105 192h178z" />
    <glyph glyph-name="Acircumflex" unicode="&#xc2;" horiz-adv-x="879" 
d="M870 0h-245l-45 332h-279l-45 -332h-246l273 1493h315zM543 555l-101 641h-4l-100 -641h205zM637 1565h-123l-78 110l-78 -110h-120l127 178h145z" />
    <glyph glyph-name="Atilde" unicode="&#xc3;" horiz-adv-x="879" 
d="M870 0h-245l-45 332h-279l-45 -332h-246l273 1493h315zM543 555l-101 641h-4l-100 -641h205zM664 1731h-2q-29 -158 -134 -158q-31 0 -84 24q-50 25 -77 25q-54 0 -54 -57h-73q27 157 135 157q36 0 84 -22q51 -25 78 -25q53 0 53 56h74z" />
    <glyph glyph-name="Adieresis" unicode="&#xc4;" horiz-adv-x="879" 
d="M870 0h-245l-45 332h-279l-45 -332h-246l273 1493h315zM543 555l-101 641h-4l-100 -641h205z" />
    <glyph glyph-name="Aring" unicode="&#xc5;" horiz-adv-x="879" 
d="M870 0h-245l-45 332h-279l-45 -332h-246l273 1493h315zM543 555l-101 641h-4l-100 -641h205z" />
    <glyph glyph-name="AE" unicode="&#xc6;" horiz-adv-x="1399" 
d="M1389 0h-717v352h-295l-107 -352h-258l477 1493h871v-223h-434v-385h336v-223h-336v-439h463v-223zM672 575v732h-4l-222 -732h226z" />
    <glyph glyph-name="Ccedilla" unicode="&#xc7;" horiz-adv-x="887" 
d="M827 362q0 -173 -102 -278q-101 -104 -274 -104q-180 0 -285 102t-105 280v768q0 179 105 281t285 102q221 0 311 -159q65 -121 65 -359h-254q0 150 -8 183q-24 112 -114 112q-136 0 -136 -166v-755q0 -166 136 -166q127 0 127 190q0 43 -3 76q-2 31 -2 66h254v-173z" />
    <glyph glyph-name="Egrave" unicode="&#xc8;" horiz-adv-x="823" 
d="M766 0h-709v1493h680v-223h-426v-385h328v-223h-328v-439h455v-223zM545 1585h-109l-174 193h178z" />
    <glyph glyph-name="Eacute" unicode="&#xc9;" horiz-adv-x="823" 
d="M766 0h-709v1493h680v-223h-426v-385h328v-223h-328v-439h455v-223zM588 1778l-174 -193h-109l105 193h178z" />
    <glyph glyph-name="Ecircumflex" unicode="&#xca;" horiz-adv-x="823" 
d="M766 0h-709v1493h680v-223h-426v-385h328v-223h-328v-439h455v-223zM590 1556h-123l-78 111l-78 -111h-121l127 179h146z" />
    <glyph glyph-name="Edieresis" unicode="&#xcb;" horiz-adv-x="823" 
d="M766 0h-709v1493h680v-223h-426v-385h328v-223h-328v-439h455v-223z" />
    <glyph glyph-name="Igrave" unicode="&#xcc;" horiz-adv-x="584" 
d="M418 0h-254v1493h254v-1493zM424 1575h-109l-174 192h178z" />
    <glyph glyph-name="Iacute" unicode="&#xcd;" horiz-adv-x="584" 
d="M418 0h-254v1493h254v-1493zM477 1778l-174 -193h-108l104 193h178z" />
    <glyph glyph-name="Icircumflex" unicode="&#xce;" horiz-adv-x="584" 
d="M418 0h-254v1493h254v-1493z" />
    <glyph glyph-name="Idieresis" unicode="&#xcf;" horiz-adv-x="584" 
d="M418 0h-254v1493h254v-1493z" />
    <glyph glyph-name="Eth" unicode="&#xd0;" horiz-adv-x="1069" 
d="M965 451q0 -451 -402 -451h-377v662h-82v223h82v608h377q402 0 402 -451v-591zM711 420v653q0 109 -35 158q-39 51 -148 51h-88v-397h152v-223h-152v-451h88q109 0 148 51q35 49 35 158z" />
    <glyph glyph-name="Ntilde" unicode="&#xd1;" horiz-adv-x="1059" 
d="M918 0h-222l-323 934h-4v-934h-230v1493h236l309 -854h4v854h230v-1493z" />
    <glyph glyph-name="Ograve" unicode="&#xd2;" horiz-adv-x="1028" 
d="M903 362q0 -178 -104.5 -280t-284.5 -102q-178 0 -283.5 102t-105.5 280v768q0 179 105.5 281t283.5 102q180 0 284.5 -102t104.5 -281v-768zM649 369v755q0 166 -135 166t-135 -166v-755q0 -166 135 -166t135 166zM637 1595h-109l-174 193h178z" />
    <glyph glyph-name="Oacute" unicode="&#xd3;" horiz-adv-x="1028" 
d="M903 362q0 -178 -104.5 -280t-284.5 -102q-178 0 -283.5 102t-105.5 280v768q0 179 105.5 281t283.5 102q180 0 284.5 -102t104.5 -281v-768zM649 369v755q0 166 -135 166t-135 -166v-755q0 -166 135 -166t135 166zM680 1788l-174 -193h-109l105 193h178z" />
    <glyph glyph-name="Ocircumflex" unicode="&#xd4;" horiz-adv-x="1028" 
d="M903 362q0 -178 -104.5 -280t-284.5 -102q-178 0 -283.5 102t-105.5 280v768q0 179 105.5 281t283.5 102q180 0 284.5 -102t104.5 -281v-768zM649 369v755q0 166 -135 166t-135 -166v-755q0 -166 135 -166t135 166zM711 1575h-123l-78 111l-78 -111h-121l127 178h146z
" />
    <glyph glyph-name="Otilde" unicode="&#xd5;" horiz-adv-x="1028" 
d="M903 362q0 -178 -104.5 -280t-284.5 -102q-178 0 -283.5 102t-105.5 280v768q0 179 105.5 281t283.5 102q180 0 284.5 -102t104.5 -281v-768zM649 369v755q0 166 -135 166t-135 -166v-755q0 -166 135 -166t135 166zM727 1761h-2q-27 -157 -133 -157q-31 0 -84 24
q-51 25 -78 25q-53 0 -53 -58h-74q29 158 135 158q36 0 84 -22q51 -25 78 -25q53 0 53 55h74z" />
    <glyph glyph-name="Odieresis" unicode="&#xd6;" horiz-adv-x="1028" 
d="M903 362q0 -178 -104.5 -280t-284.5 -102q-178 0 -283.5 102t-105.5 280v768q0 179 105.5 281t283.5 102q180 0 284.5 -102t104.5 -281v-768zM649 369v755q0 166 -135 166t-135 -166v-755q0 -166 135 -166t135 166z" />
    <glyph glyph-name="multiply" unicode="&#xd7;" horiz-adv-x="1151" 
d="M1094 145l-142 -145l-377 381l-376 -381l-142 145l377 379l-377 379l142 144l376 -381l377 381l142 -144l-375 -379z" />
    <glyph glyph-name="Oslash" unicode="&#xd8;" horiz-adv-x="942" 
d="M926 1663l-121 -313q55 -92 55 -220v-768q0 -178 -104 -280q-108 -102 -285 -102q-102 0 -184 34l-103 -262h-168l142 365q-76 92 -76 245v768q0 179 105.5 281t283.5 102q126 0 211 -49l78 199h166zM598 1204q-21 86 -127 86q-135 0 -135 -166v-592h4zM606 369v508h-4
l-240 -627q26 -47 109 -47q135 0 135 166z" />
    <glyph glyph-name="Ugrave" unicode="&#xd9;" horiz-adv-x="1030" 
d="M903 377q0 -187 -100 -291q-100 -106 -289 -106q-187 0 -287 106q-102 107 -102 291v1116h254v-1126q0 -164 135 -164t135 164v1126h254v-1116zM647 1585h-108l-174 193h178z" />
    <glyph glyph-name="Uacute" unicode="&#xda;" horiz-adv-x="1030" 
d="M903 377q0 -187 -100 -291q-100 -106 -289 -106q-187 0 -287 106q-102 107 -102 291v1116h254v-1126q0 -164 135 -164t135 164v1126h254v-1116zM741 1778l-174 -193h-108l104 193h178z" />
    <glyph glyph-name="Ucircumflex" unicode="&#xdb;" horiz-adv-x="1030" 
d="M903 377q0 -187 -100 -291q-100 -106 -289 -106q-187 0 -287 106q-102 107 -102 291v1116h254v-1126q0 -164 135 -164t135 164v1126h254v-1116z" />
    <glyph glyph-name="Udieresis" unicode="&#xdc;" horiz-adv-x="1030" 
d="M903 377q0 -187 -100 -291q-100 -106 -289 -106q-187 0 -287 106q-102 107 -102 291v1116h254v-1126q0 -164 135 -164t135 164v1126h254v-1116z" />
    <glyph glyph-name="Yacute" unicode="&#xdd;" horiz-adv-x="940" 
d="M903 1493q-44 -117 -85 -222t-83 -214q-106 -278 -139 -436v-621h-254v621q-12 52 -30 114.5t-52 162t-57 159.5q-42 109 -91 236.5t-77 199.5h258l178 -569h4l170 569h258zM686 1778l-174 -193h-109l105 193h178z" />
    <glyph glyph-name="Thorn" unicode="&#xde;" horiz-adv-x="940" 
d="M883 764q0 -280 -156 -373q-113 -67 -414 -67v-324h-254v1493h254v-289q301 0 414 -67q156 -93 156 -373zM629 764q0 127 -45 180q-46 49 -172 49h-99v-458h99q127 0 172 51q45 48 45 178z" />
    <glyph glyph-name="germandbls" unicode="&#xdf;" horiz-adv-x="827" 
d="M770 422q0 -183 -35 -277q-53 -145 -203 -145h-135v197q22 -3 32 -4t16 -2t8 -1q79 0 79 140v209q0 159 -126 159v191q102 15 102 160q0 41 -2 71q-4 62 -4 64q0 66 -26 98.5t-81 32.5q-108 0 -108 -152v-1163h-230v1116q0 389 326 389q348 0 348 -407q0 -255 -149 -277
v-4q188 -59 188 -395z" />
    <glyph glyph-name="agrave" unicode="&#xe0;" horiz-adv-x="862" 
d="M799 0h-219l-13 86q-130 -106 -268 -106q-115 0 -172 69q-61 67 -61 180q0 196 153 328q50 41 137.5 88.5t198.5 89.5v66q0 143 -113 143q-63 0 -96.5 -40t-34.5 -118h-229q9 165 106 256t263 91q333 0 333 -302q0 -77 -6 -239q-6 -163 -6 -244q0 -212 27 -348zM555 272
v293q-117 -68 -172 -116q-88 -84 -88 -179q0 -100 106 -100q82 0 154 102zM586 1214h-109l-174 193h178z" />
    <glyph glyph-name="aacute" unicode="&#xe1;" horiz-adv-x="862" 
d="M799 0h-219l-13 86q-130 -106 -268 -106q-115 0 -172 69q-61 67 -61 180q0 196 153 328q50 41 137.5 88.5t198.5 89.5v66q0 143 -113 143q-63 0 -96.5 -40t-34.5 -118h-229q9 165 106 256t263 91q333 0 333 -302q0 -77 -6 -239q-6 -163 -6 -244q0 -212 27 -348zM555 272
v293q-117 -68 -172 -116q-88 -84 -88 -179q0 -100 106 -100q82 0 154 102zM629 1407l-174 -193h-109l105 193h178z" />
    <glyph glyph-name="acircumflex" unicode="&#xe2;" horiz-adv-x="862" 
d="M799 0h-219l-13 86q-130 -106 -268 -106q-115 0 -172 69q-61 67 -61 180q0 196 153 328q50 41 137.5 88.5t198.5 89.5v66q0 143 -113 143q-63 0 -96.5 -40t-34.5 -118h-229q9 165 106 256t263 91q333 0 333 -302q0 -77 -6 -239q-6 -163 -6 -244q0 -212 27 -348zM555 272
v293q-117 -68 -172 -116q-88 -84 -88 -179q0 -100 106 -100q82 0 154 102zM627 1200h-123l-78 111l-78 -111h-121l127 178h146z" />
    <glyph glyph-name="atilde" unicode="&#xe3;" horiz-adv-x="862" 
d="M799 0h-219l-13 86q-130 -106 -268 -106q-115 0 -172 69q-61 67 -61 180q0 196 153 328q50 41 137.5 88.5t198.5 89.5v66q0 143 -113 143q-63 0 -96.5 -40t-34.5 -118h-229q9 165 106 256t263 91q333 0 333 -302q0 -77 -6 -239q-6 -163 -6 -244q0 -212 27 -348zM555 272
v293q-117 -68 -172 -116q-88 -84 -88 -179q0 -100 106 -100q82 0 154 102zM676 1370h-2q-29 -158 -133 -158q-29 0 -84 25t-78 25q-53 0 -53 -58h-74q27 158 135 158q37 0 84 -23q52 -24 78 -24q53 0 53 55h74z" />
    <glyph glyph-name="adieresis" unicode="&#xe4;" horiz-adv-x="862" 
d="M799 0h-219l-13 86q-130 -106 -268 -106q-115 0 -172 69q-61 67 -61 180q0 196 153 328q50 41 137.5 88.5t198.5 89.5v66q0 143 -113 143q-63 0 -96.5 -40t-34.5 -118h-229q9 165 106 256t263 91q333 0 333 -302q0 -77 -6 -239q-6 -163 -6 -244q0 -212 27 -348zM555 272
v293q-117 -68 -172 -116q-88 -84 -88 -179q0 -100 106 -100q82 0 154 102z" />
    <glyph glyph-name="aring" unicode="&#xe5;" horiz-adv-x="862" 
d="M799 0h-219l-13 86q-130 -106 -268 -106q-115 0 -172 69q-61 67 -61 180q0 196 153 328q50 41 137.5 88.5t198.5 89.5v66q0 143 -113 143q-63 0 -96.5 -40t-34.5 -118h-229q9 165 106 256t263 91q333 0 333 -302q0 -77 -6 -239q-6 -163 -6 -244q0 -212 27 -348zM555 272
v293q-117 -68 -172 -116q-88 -84 -88 -179q0 -100 106 -100q82 0 154 102z" />
    <glyph glyph-name="ae" unicode="&#xe6;" horiz-adv-x="1286" 
d="M1241 377q-6 -397 -356 -397q-97 0 -166.5 37t-112.5 108q-160 -145 -305 -145q-120 0 -188 65q-70 64 -70 184q0 98 39 180t117 148q51 43 137 89.5t194 88.5v66q0 143 -110 143q-125 0 -131 -158h-230q11 157 99 250q89 97 237 97q178 0 264 -103q82 103 244 103
q338 0 338 -414v-207h-481v-160q0 -182 125 -182q127 0 127 207h229zM1012 702v60q0 182 -127 182q-125 0 -125 -182v-60h252zM530 272v293q-113 -67 -170 -116q-88 -84 -88 -179q0 -100 107 -100q82 0 151 102z" />
    <glyph glyph-name="ccedilla" unicode="&#xe7;" horiz-adv-x="858" 
d="M786 393q0 -413 -356 -413t-356 413v326q0 414 356 414q347 0 356 -400h-229q0 211 -127 211t-127 -182v-410q0 -182 127 -182q89 0 115 90q12 40 12 162h229v-29z" />
    <glyph glyph-name="egrave" unicode="&#xe8;" horiz-adv-x="868" 
d="M791 377q-8 -397 -357 -397q-356 0 -356 413v326q0 414 356 414q357 0 357 -414v-207h-484v-160q0 -182 127 -182t127 207h230zM561 702v60q0 182 -127 182t-127 -182v-60h254zM547 1214h-109l-174 193h178z" />
    <glyph glyph-name="eacute" unicode="&#xe9;" horiz-adv-x="868" 
d="M791 377q-8 -397 -357 -397q-356 0 -356 413v326q0 414 356 414q357 0 357 -414v-207h-484v-160q0 -182 127 -182t127 207h230zM561 702v60q0 182 -127 182t-127 -182v-60h254zM610 1407l-174 -193h-108l104 193h178z" />
    <glyph glyph-name="ecircumflex" unicode="&#xea;" horiz-adv-x="868" 
d="M791 377q-8 -397 -357 -397q-356 0 -356 413v326q0 414 356 414q357 0 357 -414v-207h-484v-160q0 -182 127 -182t127 207h230zM561 702v60q0 182 -127 182t-127 -182v-60h254zM623 1202h-123l-78 111l-78 -111h-121l127 178h146z" />
    <glyph glyph-name="edieresis" unicode="&#xeb;" horiz-adv-x="868" 
d="M791 377q-8 -397 -357 -397q-356 0 -356 413v326q0 414 356 414q357 0 357 -414v-207h-484v-160q0 -182 127 -182t127 207h230zM561 702v60q0 182 -127 182t-127 -182v-60h254z" />
    <glyph glyph-name="igrave" unicode="&#xec;" horiz-adv-x="500" 
d="M365 0h-230v1112h230v-1112zM362 1217h-108l-174 192h178z" />
    <glyph glyph-name="iacute" unicode="&#xed;" horiz-adv-x="500" 
d="M365 0h-230v1112h230v-1112zM457 1409l-174 -192h-109l105 192h178z" />
    <glyph glyph-name="icircumflex" unicode="&#xee;" horiz-adv-x="500" 
d="M365 0h-230v1112h230v-1112z" />
    <glyph glyph-name="idieresis" unicode="&#xef;" horiz-adv-x="500" 
d="M365 0h-230v1112h230v-1112z" />
    <glyph glyph-name="eth" unicode="&#xf0;" horiz-adv-x="842" 
d="M799 1339l-195 -75q154 -277 154 -615v-289q0 -380 -357 -380q-356 0 -356 380v289q0 379 363 379q45 0 69 -2q-10 76 -59 166l-215 -84l-56 149l191 72q-51 74 -96 115l176 49q49 -35 96 -94l223 86zM528 338v334q0 168 -127 168t-127 -168v-334q0 -168 127 -168
t127 168z" />
    <glyph glyph-name="ntilde" unicode="&#xf1;" horiz-adv-x="922" 
d="M805 0h-230v862q0 82 -81 82q-52 0 -148 -72v-872h-229v1112h217v-111q86 75 125 97q68 35 153 35q94 0 148 -72q45 -60 45 -162v-899z" />
    <glyph glyph-name="ograve" unicode="&#xf2;" horiz-adv-x="864" 
d="M788 393q0 -413 -356 -413t-356 413v326q0 414 356 414t356 -414v-326zM559 352v410q0 182 -127 182t-127 -182v-410q0 -182 127 -182t127 182zM535 1225h-109l-174 192h178z" />
    <glyph glyph-name="oacute" unicode="&#xf3;" horiz-adv-x="864" 
d="M788 393q0 -413 -356 -413t-356 413v326q0 414 356 414t356 -414v-326zM559 352v410q0 182 -127 182t-127 -182v-410q0 -182 127 -182t127 182zM578 1407l-175 -193h-108l104 193h179z" />
    <glyph glyph-name="ocircumflex" unicode="&#xf4;" horiz-adv-x="864" 
d="M788 393q0 -413 -356 -413t-356 413v326q0 414 356 414t356 -414v-326zM559 352v410q0 182 -127 182t-127 -182v-410q0 -182 127 -182t127 182zM631 1202h-123l-78 111l-78 -111h-121l127 178h146z" />
    <glyph glyph-name="otilde" unicode="&#xf5;" horiz-adv-x="864" 
d="M788 393q0 -413 -356 -413t-356 413v326q0 414 356 414t356 -414v-326zM559 352v410q0 182 -127 182t-127 -182v-410q0 -182 127 -182t127 182zM645 1370h-2q-27 -158 -133 -158q-29 0 -84 25t-78 25q-53 0 -53 -58h-74q29 158 135 158q38 0 84 -23q52 -24 78 -24
q53 0 53 55h74z" />
    <glyph glyph-name="odieresis" unicode="&#xf6;" horiz-adv-x="864" 
d="M788 393q0 -413 -356 -413t-356 413v326q0 414 356 414t356 -414v-326zM559 352v410q0 182 -127 182t-127 -182v-410q0 -182 127 -182t127 182z" />
    <glyph glyph-name="divide" unicode="&#xf7;" horiz-adv-x="1135" 
d="M731 952q0 -67 -47 -116q-50 -50 -117 -50q-69 0 -114 50q-50 48 -50 116q0 67 50 117q45 47 114 47q67 0 117 -47q47 -50 47 -117zM1085 422h-1036v203h1036v-203zM731 94q0 -69 -47 -114q-50 -50 -117 -50q-69 0 -114 50q-50 45 -50 114q0 67 50 117q45 49 114 49
q68 0 117 -49q47 -50 47 -117z" />
    <glyph glyph-name="oslash" unicode="&#xf8;" horiz-adv-x="827" 
d="M782 1335l-110 -295q98 -104 98 -321v-326q0 -413 -356 -413q-78 0 -142 22l-92 -250h-135l119 316q-107 106 -107 325v326q0 414 357 414q71 0 145 -23l84 225h139zM496 913q-28 31 -82 31q-127 0 -127 -182v-404h4zM541 352v379h-4l-201 -536q32 -25 78 -25
q127 0 127 182z" />
    <glyph glyph-name="ugrave" unicode="&#xf9;" horiz-adv-x="950" 
d="M819 0h-217v113q-77 -70 -125 -97q-64 -36 -153 -36q-95 0 -148 71q-45 60 -45 162v899h229v-862q0 -80 82 -80q53 0 148 70v872h229v-1112zM608 1204h-108l-174 193h178z" />
    <glyph glyph-name="uacute" unicode="&#xfa;" horiz-adv-x="950" 
d="M819 0h-217v113q-77 -70 -125 -97q-64 -36 -153 -36q-95 0 -148 71q-45 60 -45 162v899h229v-862q0 -80 82 -80q53 0 148 70v872h229v-1112zM702 1407l-174 -193h-108l104 193h178z" />
    <glyph glyph-name="ucircumflex" unicode="&#xfb;" horiz-adv-x="950" 
d="M819 0h-217v113q-77 -70 -125 -97q-64 -36 -153 -36q-95 0 -148 71q-45 60 -45 162v899h229v-862q0 -80 82 -80q53 0 148 70v872h229v-1112z" />
    <glyph glyph-name="udieresis" unicode="&#xfc;" horiz-adv-x="950" 
d="M819 0h-217v113q-77 -70 -125 -97q-64 -36 -153 -36q-95 0 -148 71q-45 60 -45 162v899h229v-862q0 -80 82 -80q53 0 148 70v872h229v-1112z" />
    <glyph glyph-name="yacute" unicode="&#xfd;" horiz-adv-x="770" 
d="M764 1112l-289 -1194q-33 -138 -102 -201q-73 -67 -211 -67h-96v190q117 0 157 29q49 37 49 151q0 73 -26 204t-84 339q-17 60 -47 167t-60 214.5t-47 167.5h234l147 -711h4l139 711h232zM612 1407l-174 -193h-108l104 193h178z" />
    <glyph glyph-name="thorn" unicode="&#xfe;" horiz-adv-x="827" 
d="M764 289q0 -131 -51 -211q-61 -98 -183 -98q-66 0 -129 34q-52 36 -108 80v-446h-230v1845h230v-485h4q91 125 233 125q121 0 183 -99q51 -80 51 -211v-534zM535 350v414q0 180 -111 180q-48 0 -131 -59v-658q75 -57 131 -57q111 0 111 180z" />
    <glyph glyph-name="ydieresis" unicode="&#xff;" horiz-adv-x="770" 
d="M764 1112l-289 -1194q-33 -138 -102 -201q-73 -67 -211 -67h-96v190q117 0 157 29q49 37 49 151q0 73 -26 204t-84 339q-17 60 -47 167t-60 214.5t-47 167.5h234l147 -711h4l139 711h232z" />
    <glyph glyph-name="lslash" horiz-adv-x="553" 
d="M535 872l-144 -73v-799h-229v682l-144 -74v152l144 74v645h229v-529l144 74v-152z" />
    <glyph glyph-name="dotaccent" horiz-adv-x="305" 
d="M262 1257h-221v222h221v-222z" />
    <glyph glyph-name="hungarumlaut" horiz-adv-x="653" 
d="M717 1528l-268 -295h-170l161 295h277zM356 1528l-256 -295h-161l141 295h276z" />
    <glyph glyph-name="fi" horiz-adv-x="991" 
d="M899 1270h-229v209h229v-209zM899 0h-229v1102h229v-1102zM600 1311q-93 0 -119 -17q-26 -14 -26 -67q0 -27 2 -53.5t2 -71.5h131v-189h-131v-913h-230v913h-135v189h135q0 208 27 276q53 121 229 121h115v-188z" />
    <glyph glyph-name="sac" unicode="&#xf008;" horiz-adv-x="2" 
d="M686 1393l-174 -193h-109l105 193h178z" />
    <glyph glyph-name="huyen" unicode="&#xf00d;" horiz-adv-x="2" 
d="M686 1393h-108l-175 192h179z" />
    <glyph glyph-name="hoi" unicode="&#xf012;" horiz-adv-x="2" 
d="M686 1393l2 -9q0 -20 -7.5 -36.5t-23 -33.5t-22.5 -24q-32 -32 -37 -82h-2h-86q2 44 25 78t47 70q8 16 8 30q0 25 -29 25q-40 0 -55 -45l-82 20q37 82 149 82q49 0 80 -20q33 -20 33 -55z" />
    <glyph glyph-name="nga" unicode="&#xf01d;" horiz-adv-x="2" 
d="M686 1393h-2q-27 -158 -133 -158q-33 0 -84.5 24.5t-77.5 24.5q-53 0 -53 -57h-74q29 157 135 157q36 0 84 -22q55 -25 78 -25q53 0 53 56h74z" />
    <glyph glyph-name="nang" unicode="&#xf02a;" horiz-adv-x="2" 
d="M686 1393h-182v168h182v-168z" />
    <glyph glyph-name="aa" horiz-adv-x="2" 
d="M686 1393h4q-9 -81 -60 -121.5t-134 -40.5q-76 0 -124 44t-59 116h117q0 -29 20.5 -46.5t47.5 -17.5q36 0 51.5 16.5t19.5 49.5h117z" />
    <glyph glyph-name="ab" horiz-adv-x="2" 
d="M686 1393h-123l-78 110l-77 -110h-121l127 178h145z" />
    <glyph glyph-name="dth" unicode="&#x111;" horiz-adv-x="864" 
d="M782 0h-217v117h-4q-57 -72 -104 -103q-60 -34 -142 -34q-124 0 -182 98q-51 80 -51 211v534q0 131 51 211q58 99 182 99q64 0 129 -35q47 -31 109 -80v233h-244v99h244v143h229v-143h74v-99h-74v-1251zM553 227v658q-83 59 -131 59q-111 0 -111 -180v-414
q0 -180 111 -180q54 0 131 57z" />
    <glyph glyph-name="dth" unicode="&#x20ab;" horiz-adv-x="864" 
d="M782 0h-217v117h-4q-57 -72 -104 -103q-60 -34 -142 -34q-124 0 -182 98q-51 80 -51 211v534q0 131 51 211q58 99 182 99q64 0 129 -35q47 -31 109 -80v233h-244v99h244v143h229v-143h74v-99h-74v-1251zM553 227v658q-83 59 -131 59q-111 0 -111 -180v-414
q0 -180 111 -180q54 0 131 57z" />
    <glyph glyph-name="dhoa" unicode="&#x110;" horiz-adv-x="1069" 
d="M965 451q0 -451 -402 -451h-377v662h-82v223h82v608h377q402 0 402 -451v-591zM711 420v653q0 109 -35 158q-39 51 -148 51h-88v-397h152v-223h-152v-451h88q109 0 148 51q35 49 35 158z" />
    <glyph glyph-name="octh" unicode="&#x1a1;" horiz-adv-x="864" 
d="M788 393q0 -413 -356 -413t-356 413v326q0 414 356 414q107 0 180 -38t111.5 -98t46.5 -125q94 21 94 89h-51v172h121v-166q0 -44 -25 -76.5t-60 -49t-69 -16.5q8 -29 8 -106v-326zM559 352v410q0 182 -127 182t-127 -182v-410q0 -182 127 -182t127 182z" />
    <glyph glyph-name="ochoa" unicode="&#x1a0;" horiz-adv-x="1028" 
d="M903 362q0 -178 -104.5 -280t-284.5 -102q-178 0 -283.5 102t-105.5 280v768q0 179 105.5 281t283.5 102q180 0 285 -102q34 -28 58.5 -75.5t29.5 -82.5q38 2 69 24.5t31 63.5h-49v172h121v-165q-1 -49 -27.5 -81t-63 -46.5t-71.5 -14.5q6 -18 6 -76v-768zM649 369v755
q0 166 -135 166t-135 -166v-755q0 -166 135 -166t135 166z" />
    <glyph glyph-name="ucth" unicode="&#x1b0;" horiz-adv-x="950" 
d="M819 0h-217v113q-77 -70 -125 -97q-64 -36 -153 -36q-95 0 -148 71q-45 60 -45 162v899h229v-862q0 -80 82 -80q53 0 148 70v872h229v-266q60 13 90.5 35t30.5 59h-51v172h121v-160q0 -57 -31 -90.5t-74.5 -46t-85.5 -12.5v-803z" />
    <glyph glyph-name="uchoa" unicode="&#x1af;" horiz-adv-x="1030" 
d="M903 377q0 -187 -100 -291q-100 -106 -289 -106q-187 0 -287 106q-102 107 -102 291v1116h254v-1126q0 -164 135 -164t135 164v1126h254v-266q60 13 90.5 35t30.5 59h-51v172h121v-160q0 -57 -31 -90.5t-74.5 -46t-85.5 -12.5v-807z" />
    <glyph glyph-name="aath" unicode="&#x103;" horiz-adv-x="862" 
d="M799 0h-219l-13 86q-130 -106 -268 -106q-115 0 -172 69q-61 67 -61 180q0 196 153 328q50 41 137.5 88.5t198.5 89.5v66q0 143 -113 143q-63 0 -96.5 -40t-34.5 -118h-229q9 165 106 256t263 91q333 0 333 -302q0 -77 -6 -239q-6 -163 -6 -244q0 -212 27 -348zM555 272
v293q-117 -68 -172 -116q-88 -84 -88 -179q0 -100 106 -100q82 0 154 102zM637 1364h4q-9 -81 -61 -121.5t-134 -40.5q-74 0 -123.5 44t-58.5 116h117q0 -29 20.5 -46.5t47.5 -17.5q36 0 51.5 16.5t19.5 49.5h117z" />
    <glyph glyph-name="aahoa" unicode="&#x102;" horiz-adv-x="879" 
d="M870 0h-245l-45 332h-279l-45 -332h-246l273 1493h315zM543 555l-101 641h-4l-100 -641h205zM637 1718h4q-9 -80 -60.5 -121t-134.5 -41q-74 0 -123.5 44t-58.5 116h117q0 -29 20.5 -46t47.5 -17q36 0 51.5 15.5t19.5 49.5h117z" />
    <glyph glyph-name="abth" horiz-adv-x="862" 
d="M799 0h-219l-13 86q-130 -106 -268 -106q-115 0 -172 69q-61 67 -61 180q0 196 153 328q50 41 137.5 88.5t198.5 89.5v66q0 143 -113 143q-63 0 -96.5 -40t-34.5 -118h-229q9 165 106 256t263 91q333 0 333 -302q0 -77 -6 -239q-6 -163 -6 -244q0 -212 27 -348zM555 272
v293q-117 -68 -172 -116q-88 -84 -88 -179q0 -100 106 -100q82 0 154 102zM627 1200h-123l-78 111l-78 -111h-121l127 178h146z" />
    <glyph glyph-name="abhoa" horiz-adv-x="879" 
d="M870 0h-245l-45 332h-279l-45 -332h-246l273 1493h315zM543 555l-101 641h-4l-100 -641h205zM637 1565h-123l-78 110l-78 -110h-120l127 178h145z" />
    <glyph glyph-name="ebth" horiz-adv-x="868" 
d="M791 377q-8 -397 -357 -397q-356 0 -356 413v326q0 414 356 414q357 0 357 -414v-207h-484v-160q0 -182 127 -182t127 207h230zM561 702v60q0 182 -127 182t-127 -182v-60h254zM623 1202h-123l-78 111l-78 -111h-121l127 178h146z" />
    <glyph glyph-name="ebhoa" horiz-adv-x="823" 
d="M766 0h-709v1493h680v-223h-426v-385h328v-223h-328v-439h455v-223zM590 1556h-123l-78 111l-78 -111h-121l127 179h146z" />
    <glyph glyph-name="obth" horiz-adv-x="864" 
d="M788 393q0 -413 -356 -413t-356 413v326q0 414 356 414t356 -414v-326zM559 352v410q0 182 -127 182t-127 -182v-410q0 -182 127 -182t127 182zM631 1202h-123l-78 111l-78 -111h-121l127 178h146z" />
    <glyph glyph-name="obhoa" horiz-adv-x="1028" 
d="M903 362q0 -178 -104.5 -280t-284.5 -102q-178 0 -283.5 102t-105.5 280v768q0 179 105.5 281t283.5 102q180 0 284.5 -102t104.5 -281v-768zM649 369v755q0 166 -135 166t-135 -166v-755q0 -166 135 -166t135 166zM711 1575h-123l-78 111l-78 -111h-121l127 178h146z
" />
    <glyph glyph-name="athsac" horiz-adv-x="862" 
d="M799 0h-219l-13 86q-130 -106 -268 -106q-115 0 -172 69q-61 67 -61 180q0 196 153 328q50 41 137.5 88.5t198.5 89.5v66q0 143 -113 143q-63 0 -96.5 -40t-34.5 -118h-229q9 165 106 256t263 91q333 0 333 -302q0 -77 -6 -239q-6 -163 -6 -244q0 -212 27 -348zM555 272
v293q-117 -68 -172 -116q-88 -84 -88 -179q0 -100 106 -100q82 0 154 102zM629 1407l-174 -193h-109l105 193h178z" />
    <glyph glyph-name="athhuyen" horiz-adv-x="862" 
d="M799 0h-219l-13 86q-130 -106 -268 -106q-115 0 -172 69q-61 67 -61 180q0 196 153 328q50 41 137.5 88.5t198.5 89.5v66q0 143 -113 143q-63 0 -96.5 -40t-34.5 -118h-229q9 165 106 256t263 91q333 0 333 -302q0 -77 -6 -239q-6 -163 -6 -244q0 -212 27 -348zM555 272
v293q-117 -68 -172 -116q-88 -84 -88 -179q0 -100 106 -100q82 0 154 102zM586 1214h-109l-174 193h178z" />
    <glyph glyph-name="athhoi" unicode="&#x1ea3;" horiz-adv-x="862" 
d="M799 0h-219l-13 86q-130 -106 -268 -106q-115 0 -172 69q-61 67 -61 180q0 196 153 328q50 41 137.5 88.5t198.5 89.5v66q0 143 -113 143q-63 0 -96.5 -40t-34.5 -118h-229q9 165 106 256t263 91q333 0 333 -302q0 -77 -6 -239q-6 -163 -6 -244q0 -212 27 -348zM555 272
v293q-117 -68 -172 -116q-88 -84 -88 -179q0 -100 106 -100q82 0 154 102zM582 1399l2 -8q0 -30 -12 -47.5t-42.5 -48t-35.5 -81.5h-2h-86q2 44 26 79.5t45 68.5q8 16 8 31q0 24 -28 24q-40 0 -56 -45l-82 21q37 82 150 82q45 0 80 -21q33 -21 33 -55z" />
    <glyph glyph-name="athnga" horiz-adv-x="862" 
d="M799 0h-219l-13 86q-130 -106 -268 -106q-115 0 -172 69q-61 67 -61 180q0 196 153 328q50 41 137.5 88.5t198.5 89.5v66q0 143 -113 143q-63 0 -96.5 -40t-34.5 -118h-229q9 165 106 256t263 91q333 0 333 -302q0 -77 -6 -239q-6 -163 -6 -244q0 -212 27 -348zM555 272
v293q-117 -68 -172 -116q-88 -84 -88 -179q0 -100 106 -100q82 0 154 102zM676 1370h-2q-29 -158 -133 -158q-29 0 -84 25t-78 25q-53 0 -53 -58h-74q27 158 135 158q37 0 84 -23q52 -24 78 -24q53 0 53 55h74z" />
    <glyph glyph-name="athnang" unicode="&#x1ea1;" horiz-adv-x="862" 
d="M799 0h-219l-13 86q-130 -106 -268 -106q-115 0 -172 69q-61 67 -61 180q0 196 153 328q50 41 137.5 88.5t198.5 89.5v66q0 143 -113 143q-63 0 -96.5 -40t-34.5 -118h-229q9 165 106 256t263 91q333 0 333 -302q0 -77 -6 -239q-6 -163 -6 -244q0 -212 27 -348zM555 272
v293q-117 -68 -172 -116q-88 -84 -88 -179q0 -100 106 -100q82 0 154 102zM522 -270h-182v168h182v-168z" />
    <glyph glyph-name="ahoasac" horiz-adv-x="879" 
d="M870 0h-245l-45 332h-279l-45 -332h-246l273 1493h315zM543 555l-101 641h-4l-100 -641h205zM637 1757l-174 -192h-109l105 192h178z" />
    <glyph glyph-name="ahoahuyen" horiz-adv-x="879" 
d="M870 0h-245l-45 332h-279l-45 -332h-246l273 1493h315zM543 555l-101 641h-4l-100 -641h205zM553 1575h-109l-174 192h179z" />
    <glyph glyph-name="ahoahoi" unicode="&#x1ea2;" horiz-adv-x="879" 
d="M870 0h-245l-45 332h-279l-45 -332h-246l273 1493h315zM543 555l-101 641h-4l-100 -641h205zM580 1759l2 -8q0 -43 -54 -94q-31 -34 -36 -82h-3h-86q3 31 15.5 56.5t32.5 53.5t24 37q8 17 8 31q0 25 -28 25q-39 0 -56 -45l-82 20q37 82 150 82q47 0 80 -20q33 -22 33 -56
z" />
    <glyph glyph-name="ahoanga" horiz-adv-x="879" 
d="M870 0h-245l-45 332h-279l-45 -332h-246l273 1493h315zM543 555l-101 641h-4l-100 -641h205zM664 1731h-2q-29 -158 -134 -158q-31 0 -84 24q-50 25 -77 25q-54 0 -54 -57h-73q27 157 135 157q36 0 84 -22q51 -25 78 -25q53 0 53 56h74z" />
    <glyph glyph-name="ahoanang" unicode="&#x1ea0;" horiz-adv-x="879" 
d="M870 0h-245l-45 332h-279l-45 -332h-246l273 1493h315zM543 555l-101 641h-4l-100 -641h205zM541 -270h-183v168h183v-168z" />
    <glyph glyph-name="ethsac" horiz-adv-x="868" 
d="M791 377q-8 -397 -357 -397q-356 0 -356 413v326q0 414 356 414q357 0 357 -414v-207h-484v-160q0 -182 127 -182t127 207h230zM561 702v60q0 182 -127 182t-127 -182v-60h254zM610 1407l-174 -193h-108l104 193h178z" />
    <glyph glyph-name="ethhuyen" horiz-adv-x="868" 
d="M791 377q-8 -397 -357 -397q-356 0 -356 413v326q0 414 356 414q357 0 357 -414v-207h-484v-160q0 -182 127 -182t127 207h230zM561 702v60q0 182 -127 182t-127 -182v-60h254zM547 1214h-109l-174 193h178z" />
    <glyph glyph-name="ethhoi" unicode="&#x1ebb;" horiz-adv-x="868" 
d="M791 377q-8 -397 -357 -397q-356 0 -356 413v326q0 414 356 414q357 0 357 -414v-207h-484v-160q0 -182 127 -182t127 207h230zM561 702v60q0 182 -127 182t-127 -182v-60h254zM563 1399l2 -8q0 -19 -7.5 -36.5t-23 -34.5t-22.5 -24q-32 -32 -37 -82h-2h-86q2 44 25 78
t47 70q8 16 8 31q0 24 -29 24q-40 0 -55 -45l-82 21q37 82 150 82q46 0 79 -21q33 -20 33 -55z" />
    <glyph glyph-name="ethnga" unicode="&#x1ebd;" horiz-adv-x="868" 
d="M791 377q-8 -397 -357 -397q-356 0 -356 413v326q0 414 356 414q357 0 357 -414v-207h-484v-160q0 -182 127 -182t127 207h230zM561 702v60q0 182 -127 182t-127 -182v-60h254zM647 1380h-2q-27 -157 -133 -157q-31 0 -84 24q-51 25 -78 25q-53 0 -53 -58h-74
q29 158 135 158q37 0 84 -22q51 -25 78 -25q53 0 53 55h74z" />
    <glyph glyph-name="ethnang" unicode="&#x1eb9;" horiz-adv-x="868" 
d="M791 377q-8 -397 -357 -397q-356 0 -356 413v326q0 414 356 414q357 0 357 -414v-207h-484v-160q0 -182 127 -182t127 207h230zM561 702v60q0 182 -127 182t-127 -182v-60h254zM494 -281h-183v168h183v-168z" />
    <glyph glyph-name="ehoasac" horiz-adv-x="823" 
d="M766 0h-709v1493h680v-223h-426v-385h328v-223h-328v-439h455v-223zM588 1778l-174 -193h-109l105 193h178z" />
    <glyph glyph-name="ehoahuyen" horiz-adv-x="823" 
d="M766 0h-709v1493h680v-223h-426v-385h328v-223h-328v-439h455v-223zM545 1585h-109l-174 193h178z" />
    <glyph glyph-name="ehoahoi" unicode="&#x1eba;" horiz-adv-x="823" 
d="M766 0h-709v1493h680v-223h-426v-385h328v-223h-328v-439h455v-223zM541 1769l2 -8q0 -31 -12 -47.5t-42.5 -47t-35.5 -81.5h-2h-86q2 44 26 79.5t45 68.5q8 16 8 30q0 25 -28 25q-40 0 -56 -45l-81 20q35 82 149 82q47 0 80 -20q33 -22 33 -56z" />
    <glyph glyph-name="ehoanga" unicode="&#x1ebc;" horiz-adv-x="823" 
d="M766 0h-709v1493h680v-223h-426v-385h328v-223h-328v-439h455v-223zM604 1741h-2q-27 -158 -133 -158q-33 0 -84.5 24.5t-77.5 24.5q-53 0 -53 -57h-74q29 158 135 158q35 0 84 -23q52 -24 78 -24q53 0 53 55h74z" />
    <glyph glyph-name="ehoanang" unicode="&#x1eb8;" horiz-adv-x="823" 
d="M766 0h-709v1493h680v-223h-426v-385h328v-223h-328v-439h455v-223zM492 -281h-183v168h183v-168z" />
    <glyph glyph-name="othsac" horiz-adv-x="864" 
d="M788 393q0 -413 -356 -413t-356 413v326q0 414 356 414t356 -414v-326zM559 352v410q0 182 -127 182t-127 -182v-410q0 -182 127 -182t127 182zM578 1407l-175 -193h-108l104 193h179z" />
    <glyph glyph-name="othhuyen" horiz-adv-x="864" 
d="M788 393q0 -413 -356 -413t-356 413v326q0 414 356 414t356 -414v-326zM559 352v410q0 182 -127 182t-127 -182v-410q0 -182 127 -182t127 182zM535 1225h-109l-174 192h178z" />
    <glyph glyph-name="othhoi" unicode="&#x1ecf;" horiz-adv-x="864" 
d="M788 393q0 -413 -356 -413t-356 413v326q0 414 356 414t356 -414v-326zM559 352v410q0 182 -127 182t-127 -182v-410q0 -182 127 -182t127 182zM561 1399l2 -8q0 -19 -7.5 -36.5t-23 -34.5t-22.5 -24q-32 -32 -37 -82h-2h-86q2 44 25 78t47 70q8 16 8 31q0 24 -29 24
q-40 0 -55 -45l-82 21q37 82 150 82q46 0 79 -21q33 -20 33 -55z" />
    <glyph glyph-name="othnga" horiz-adv-x="864" 
d="M788 393q0 -413 -356 -413t-356 413v326q0 414 356 414t356 -414v-326zM559 352v410q0 182 -127 182t-127 -182v-410q0 -182 127 -182t127 182zM645 1370h-2q-27 -158 -133 -158q-29 0 -84 25t-78 25q-53 0 -53 -58h-74q29 158 135 158q38 0 84 -23q52 -24 78 -24
q53 0 53 55h74z" />
    <glyph glyph-name="othnang" unicode="&#x1ecd;" horiz-adv-x="864" 
d="M788 393q0 -413 -356 -413t-356 413v326q0 414 356 414t356 -414v-326zM559 352v410q0 182 -127 182t-127 -182v-410q0 -182 127 -182t127 182zM522 -281h-182v168h182v-168z" />
    <glyph glyph-name="ohoasac" horiz-adv-x="1028" 
d="M903 362q0 -178 -104.5 -280t-284.5 -102q-178 0 -283.5 102t-105.5 280v768q0 179 105.5 281t283.5 102q180 0 284.5 -102t104.5 -281v-768zM649 369v755q0 166 -135 166t-135 -166v-755q0 -166 135 -166t135 166zM680 1788l-174 -193h-109l105 193h178z" />
    <glyph glyph-name="ohoahuyen" horiz-adv-x="1028" 
d="M903 362q0 -178 -104.5 -280t-284.5 -102q-178 0 -283.5 102t-105.5 280v768q0 179 105.5 281t283.5 102q180 0 284.5 -102t104.5 -281v-768zM649 369v755q0 166 -135 166t-135 -166v-755q0 -166 135 -166t135 166zM637 1595h-109l-174 193h178z" />
    <glyph glyph-name="ohoahoi" unicode="&#x1ece;" horiz-adv-x="1028" 
d="M903 362q0 -178 -104.5 -280t-284.5 -102q-178 0 -283.5 102t-105.5 280v768q0 179 105.5 281t283.5 102q180 0 284.5 -102t104.5 -281v-768zM649 369v755q0 166 -135 166t-135 -166v-755q0 -166 135 -166t135 166zM643 1790l2 -8q0 -31 -13.5 -49.5t-39.5 -44.5
q-32 -35 -37 -82h-2h-86q2 43 25 77t47 70q8 16 8 31q0 24 -29 24q-40 0 -55 -45l-82 21q37 82 149 82q49 0 80 -21q33 -20 33 -55z" />
    <glyph glyph-name="ohoanga" horiz-adv-x="1028" 
d="M903 362q0 -178 -104.5 -280t-284.5 -102q-178 0 -283.5 102t-105.5 280v768q0 179 105.5 281t283.5 102q180 0 284.5 -102t104.5 -281v-768zM649 369v755q0 166 -135 166t-135 -166v-755q0 -166 135 -166t135 166zM727 1761h-2q-27 -157 -133 -157q-31 0 -84 24
q-51 25 -78 25q-53 0 -53 -58h-74q29 158 135 158q36 0 84 -22q51 -25 78 -25q53 0 53 55h74z" />
    <glyph glyph-name="ohoanang" unicode="&#x1ecc;" horiz-adv-x="1028" 
d="M903 362q0 -178 -104.5 -280t-284.5 -102q-178 0 -283.5 102t-105.5 280v768q0 179 105.5 281t283.5 102q180 0 284.5 -102t104.5 -281v-768zM649 369v755q0 166 -135 166t-135 -166v-755q0 -166 135 -166t135 166zM604 -281h-182v168h182v-168z" />
    <glyph glyph-name="ithsac" horiz-adv-x="500" 
d="M365 0h-230v1112h230v-1112zM457 1409l-174 -192h-109l105 192h178z" />
    <glyph glyph-name="ithhuyen" horiz-adv-x="500" 
d="M365 0h-230v1112h230v-1112zM362 1217h-108l-174 192h178z" />
    <glyph glyph-name="ithhoi" unicode="&#x1ec9;" horiz-adv-x="500" 
d="M365 0h-230v1112h230v-1112zM389 1401l2 -8q0 -19 -8 -37t-20.5 -32t-24.5 -26q-32 -32 -37 -81h-2h-86q2 43 25 77t47 70q8 16 8 31q0 24 -29 24q-40 0 -55 -45l-82 21q37 82 149 82q47 0 80 -21q33 -20 33 -55z" />
    <glyph glyph-name="ithnga" unicode="&#x129;" horiz-adv-x="500" 
d="M365 0h-230v1112h230v-1112zM473 1382h-2q-27 -157 -133 -157q-31 0 -84 24q-51 25 -78 25q-53 0 -53 -57h-74q29 157 135 157q36 0 84 -22q51 -25 78 -25q53 0 53 55h74z" />
    <glyph glyph-name="ithnang" unicode="&#x1ecb;" horiz-adv-x="500" 
d="M365 0h-230v1112h230v-1112zM340 1219h-182v167h182v-167zM342 -270h-182v168h182v-168z" />
    <glyph glyph-name="ihoasac" horiz-adv-x="584" 
d="M418 0h-254v1493h254v-1493zM477 1778l-174 -193h-108l104 193h178z" />
    <glyph glyph-name="ihoahuyen" horiz-adv-x="584" 
d="M418 0h-254v1493h254v-1493zM424 1575h-109l-174 192h178z" />
    <glyph glyph-name="ihoahoi" unicode="&#x1ec8;" horiz-adv-x="584" 
d="M418 0h-254v1493h254v-1493zM430 1769l2 -8q0 -20 -7.5 -36.5t-23 -33.5t-22.5 -24q-32 -32 -37 -82h-2h-86q2 44 25 78t47 70q8 16 8 30q0 25 -29 25q-40 0 -55 -45l-82 20q37 82 149 82q49 0 80 -20q33 -22 33 -56z" />
    <glyph glyph-name="ihoanga" unicode="&#x128;" horiz-adv-x="584" 
d="M418 0h-254v1493h254v-1493zM514 1741h-2q-27 -158 -133 -158q-33 0 -84.5 24.5t-77.5 24.5q-53 0 -53 -57h-74q29 158 135 158q34 0 84 -23q52 -24 78 -24q53 0 53 55h74z" />
    <glyph glyph-name="ihoanang" unicode="&#x1eca;" horiz-adv-x="584" 
d="M418 0h-254v1493h254v-1493zM381 -270h-182v168h182v-168z" />
    <glyph glyph-name="uthsac" horiz-adv-x="950" 
d="M819 0h-217v113q-77 -70 -125 -97q-64 -36 -153 -36q-95 0 -148 71q-45 60 -45 162v899h229v-862q0 -80 82 -80q53 0 148 70v872h229v-1112zM702 1407l-174 -193h-108l104 193h178z" />
    <glyph glyph-name="uthhuyen" horiz-adv-x="950" 
d="M819 0h-217v113q-77 -70 -125 -97q-64 -36 -153 -36q-95 0 -148 71q-45 60 -45 162v899h229v-862q0 -80 82 -80q53 0 148 70v872h229v-1112zM608 1204h-108l-174 193h178z" />
    <glyph glyph-name="uthhoi" unicode="&#x1ee7;" horiz-adv-x="950" 
d="M819 0h-217v113q-77 -70 -125 -97q-64 -36 -153 -36q-95 0 -148 71q-45 60 -45 162v899h229v-862q0 -80 82 -80q53 0 148 70v872h229v-1112zM614 1399l2 -8q0 -30 -12.5 -48.5t-40.5 -46.5q-32 -32 -37 -82h-2h-86q2 41 25 76.5t47 71.5q8 16 8 31q0 24 -29 24
q-40 0 -55 -45l-82 21q37 82 150 82q45 0 80 -21q32 -20 32 -55z" />
    <glyph glyph-name="uthnga" unicode="&#x169;" horiz-adv-x="950" 
d="M819 0h-217v113q-77 -70 -125 -97q-64 -36 -153 -36q-95 0 -148 71q-45 60 -45 162v899h229v-862q0 -80 82 -80q53 0 148 70v872h229v-1112zM750 1380h-2q-29 -157 -134 -157q-31 0 -84 24q-50 25 -77 25q-54 0 -54 -58h-73q27 158 135 158q36 0 84 -22q51 -25 78 -25
q53 0 53 55h74z" />
    <glyph glyph-name="uthnang" unicode="&#x1ee5;" horiz-adv-x="950" 
d="M819 0h-217v113q-77 -70 -125 -97q-64 -36 -153 -36q-95 0 -148 71q-45 60 -45 162v899h229v-862q0 -80 82 -80q53 0 148 70v872h229v-1112zM575 -291h-182v168h182v-168z" />
    <glyph glyph-name="uhoasac" horiz-adv-x="1030" 
d="M903 377q0 -187 -100 -291q-100 -106 -289 -106q-187 0 -287 106q-102 107 -102 291v1116h254v-1126q0 -164 135 -164t135 164v1126h254v-1116zM741 1778l-174 -193h-108l104 193h178z" />
    <glyph glyph-name="uhoahuyen" horiz-adv-x="1030" 
d="M903 377q0 -187 -100 -291q-100 -106 -289 -106q-187 0 -287 106q-102 107 -102 291v1116h254v-1126q0 -164 135 -164t135 164v1126h254v-1116zM647 1585h-108l-174 193h178z" />
    <glyph glyph-name="uhoahoi" unicode="&#x1ee6;" horiz-adv-x="1030" 
d="M903 377q0 -187 -100 -291q-100 -106 -289 -106q-187 0 -287 106q-102 107 -102 291v1116h254v-1126q0 -164 135 -164t135 164v1126h254v-1116zM664 1769l2 -8q0 -31 -12 -47.5t-42.5 -47t-36.5 -81.5h-2h-86q3 31 15 56t32.5 54t24.5 38q8 16 8 30q0 25 -28 25
q-40 0 -56 -45l-82 20q37 82 150 82q47 0 80 -20q33 -22 33 -56z" />
    <glyph glyph-name="uhoanga" unicode="&#x168;" horiz-adv-x="1030" 
d="M903 377q0 -187 -100 -291q-100 -106 -289 -106q-187 0 -287 106q-102 107 -102 291v1116h254v-1126q0 -164 135 -164t135 164v1126h254v-1116zM737 1741h-2q-27 -158 -133 -158q-33 0 -84.5 24.5t-77.5 24.5q-53 0 -53 -57h-74q29 158 136 158q34 0 83 -23
q52 -24 78 -24q54 0 54 55h73z" />
    <glyph glyph-name="uhoanang" unicode="&#x1ee4;" horiz-adv-x="1030" 
d="M903 377q0 -187 -100 -291q-100 -106 -289 -106q-187 0 -287 106q-102 107 -102 291v1116h254v-1126q0 -164 135 -164t135 164v1126h254v-1116zM604 -281h-182v168h182v-168z" />
    <glyph glyph-name="ythsac" horiz-adv-x="770" 
d="M764 1112l-289 -1194q-33 -138 -102 -201q-73 -67 -211 -67h-96v190q117 0 157 29q49 37 49 151q0 73 -26 204t-84 339q-17 60 -47 167t-60 214.5t-47 167.5h234l147 -711h4l139 711h232zM612 1407l-174 -193h-108l104 193h178z" />
    <glyph glyph-name="ythhuyen" unicode="&#x1ef3;" horiz-adv-x="770" 
d="M764 1112l-289 -1194q-33 -138 -102 -201q-73 -67 -211 -67h-96v190q117 0 157 29q49 37 49 151q0 73 -26 204t-84 339q-17 60 -47 167t-60 214.5t-47 167.5h234l147 -711h4l139 711h232zM508 1214h-109l-174 193h178z" />
    <glyph glyph-name="ythhoi" unicode="&#x1ef7;" horiz-adv-x="770" 
d="M764 1112l-289 -1194q-33 -138 -102 -201q-73 -67 -211 -67h-96v190q117 0 157 29q49 37 49 151q0 73 -26 204t-84 339q-17 60 -47 167t-60 214.5t-47 167.5h234l147 -711h4l139 711h232zM524 1389l2 -9q0 -31 -12.5 -48.5t-40.5 -45.5q-32 -32 -37 -82h-2h-86
q2 41 25 76.5t47 71.5q8 16 8 30q0 25 -29 25q-40 0 -55 -45l-82 20q37 82 150 82q47 0 79.5 -20t32.5 -55z" />
    <glyph glyph-name="ythnga" unicode="&#x1ef9;" horiz-adv-x="770" 
d="M764 1112l-289 -1194q-33 -138 -102 -201q-73 -67 -211 -67h-96v190q117 0 157 29q49 37 49 151q0 73 -26 204t-84 339q-17 60 -47 167t-60 214.5t-47 167.5h234l147 -711h4l139 711h232zM618 1370h-2q-27 -158 -133 -158q-29 0 -84 25q-53 25 -77 25q-54 0 -54 -58h-73
q27 158 135 158q37 0 84 -23q52 -24 78 -24q53 0 53 55h73z" />
    <glyph glyph-name="ythnang" unicode="&#x1ef5;" horiz-adv-x="770" 
d="M764 1112l-289 -1194q-33 -138 -102 -201q-73 -67 -211 -67h-96v190q117 0 157 29q49 37 49 151q0 73 -26 204t-84 339q-17 60 -47 167t-60 214.5t-47 167.5h234l147 -711h4l139 711h232zM731 -354h-182v168h182v-168z" />
    <glyph glyph-name="yhoasac" horiz-adv-x="940" 
d="M903 1493q-44 -117 -85 -222t-83 -214q-106 -278 -139 -436v-621h-254v621q-12 52 -30 114.5t-52 162t-57 159.5q-42 109 -91 236.5t-77 199.5h258l178 -569h4l170 569h258zM686 1778l-174 -193h-109l105 193h178z" />
    <glyph glyph-name="yhoahuyen" unicode="&#x1ef2;" horiz-adv-x="940" 
d="M903 1493q-44 -117 -85 -222t-83 -214q-106 -278 -139 -436v-621h-254v621q-12 52 -30 114.5t-52 162t-57 159.5q-42 109 -91 236.5t-77 199.5h258l178 -569h4l170 569h258zM602 1585h-108l-175 193h179z" />
    <glyph glyph-name="yhoahoi" unicode="&#x1ef6;" horiz-adv-x="940" 
d="M903 1493q-44 -117 -85 -222t-83 -214q-106 -278 -139 -436v-621h-254v621q-12 52 -30 114.5t-52 162t-57 159.5q-42 109 -91 236.5t-77 199.5h258l178 -569h4l170 569h258zM608 1780l2 -8q0 -30 -12.5 -48.5t-40.5 -46.5q-32 -32 -37 -82h-2h-86q2 44 25 78t47 70
q8 16 8 31q0 24 -29 24q-40 0 -55 -45l-82 21q37 81 150 81q48 0 79 -20q33 -20 33 -55z" />
    <glyph glyph-name="yhoanga" unicode="&#x1ef8;" horiz-adv-x="940" 
d="M903 1493q-44 -117 -85 -222t-83 -214q-106 -278 -139 -436v-621h-254v621q-12 52 -30 114.5t-52 162t-57 159.5q-42 109 -91 236.5t-77 199.5h258l178 -569h4l170 569h258zM702 1751h-2q-27 -158 -133 -158q-29 0 -84 25q-51 24 -77 24q-54 0 -54 -57h-73
q27 158 135 158q37 0 84 -23q51 -24 77 -24q54 0 54 55h73z" />
    <glyph glyph-name="yhoanang" unicode="&#x1ef4;" horiz-adv-x="940" 
d="M903 1493q-44 -117 -85 -222t-83 -214q-106 -278 -139 -436v-621h-254v621q-12 52 -30 114.5t-52 162t-57 159.5q-42 109 -91 236.5t-77 199.5h258l178 -569h4l170 569h258zM569 -270h-182v168h182v-168z" />
    <glyph glyph-name="octhsac" unicode="&#x1edb;" horiz-adv-x="864" 
d="M788 393q0 -413 -356 -413t-356 413v326q0 414 356 414q107 0 180 -38t111.5 -98t46.5 -125q94 21 94 89h-51v172h121v-166q0 -44 -25 -76.5t-60 -49t-69 -16.5q8 -29 8 -106v-326zM559 352v410q0 182 -127 182t-127 -182v-410q0 -182 127 -182t127 182zM598 1407
l-174 -193h-109l105 193h178z" />
    <glyph glyph-name="octhhuyen" unicode="&#x1edd;" horiz-adv-x="864" 
d="M788 393q0 -413 -356 -413t-356 413v326q0 414 356 414q107 0 180 -38t111.5 -98t46.5 -125q94 21 94 89h-51v172h121v-166q0 -44 -25 -76.5t-60 -49t-69 -16.5q8 -29 8 -106v-326zM559 352v410q0 182 -127 182t-127 -182v-410q0 -182 127 -182t127 182zM535 1225h-109
l-174 192h178z" />
    <glyph glyph-name="octhhoi" unicode="&#x1edf;" horiz-adv-x="864" 
d="M788 393q0 -413 -356 -413t-356 413v326q0 414 356 414q107 0 180 -38t111.5 -98t46.5 -125q94 21 94 89h-51v172h121v-166q0 -44 -25 -76.5t-60 -49t-69 -16.5q8 -29 8 -106v-326zM559 352v410q0 182 -127 182t-127 -182v-410q0 -182 127 -182t127 182zM561 1399l2 -8
q0 -19 -7.5 -36.5t-23 -34.5t-22.5 -24q-32 -32 -37 -82h-2h-86q2 44 25 78t47 70q8 16 8 31q0 24 -29 24q-40 0 -55 -45l-82 21q37 82 150 82q46 0 79 -21q33 -20 33 -55z" />
    <glyph glyph-name="octhnga" unicode="&#x1ee1;" horiz-adv-x="864" 
d="M788 393q0 -413 -356 -413t-356 413v326q0 414 356 414q107 0 180 -38t111.5 -98t46.5 -125q94 21 94 89h-51v172h121v-166q0 -44 -25 -76.5t-60 -49t-69 -16.5q8 -29 8 -106v-326zM559 352v410q0 182 -127 182t-127 -182v-410q0 -182 127 -182t127 182zM645 1370h-2
q-27 -158 -133 -158q-29 0 -84 25t-78 25q-53 0 -53 -58h-74q29 158 135 158q38 0 84 -23q52 -24 78 -24q53 0 53 55h74z" />
    <glyph glyph-name="octhnang" unicode="&#x1ee3;" horiz-adv-x="864" 
d="M788 393q0 -413 -356 -413t-356 413v326q0 414 356 414q107 0 180 -38t111.5 -98t46.5 -125q94 21 94 89h-51v172h121v-166q0 -44 -25 -76.5t-60 -49t-69 -16.5q8 -29 8 -106v-326zM559 352v410q0 182 -127 182t-127 -182v-410q0 -182 127 -182t127 182zM522 -281h-182
v168h182v-168z" />
    <glyph glyph-name="ochoasac" unicode="&#x1eda;" horiz-adv-x="1028" 
d="M903 362q0 -178 -104.5 -280t-284.5 -102q-178 0 -283.5 102t-105.5 280v768q0 179 105.5 281t283.5 102q180 0 285 -102q34 -28 58.5 -75.5t29.5 -82.5q38 2 69 24.5t31 63.5h-49v172h121v-165q-1 -49 -27.5 -81t-63 -46.5t-71.5 -14.5q6 -18 6 -76v-768zM649 369v755
q0 166 -135 166t-135 -166v-755q0 -166 135 -166t135 166zM680 1788l-174 -193h-109l105 193h178z" />
    <glyph glyph-name="ochoahuyen" unicode="&#x1edc;" horiz-adv-x="1028" 
d="M903 362q0 -178 -104.5 -280t-284.5 -102q-178 0 -283.5 102t-105.5 280v768q0 179 105.5 281t283.5 102q180 0 285 -102q34 -28 58.5 -75.5t29.5 -82.5q38 2 69 24.5t31 63.5h-49v172h121v-165q-1 -49 -27.5 -81t-63 -46.5t-71.5 -14.5q6 -18 6 -76v-768zM649 369v755
q0 166 -135 166t-135 -166v-755q0 -166 135 -166t135 166zM637 1595h-109l-174 193h178z" />
    <glyph glyph-name="ochoahoi" unicode="&#x1ede;" horiz-adv-x="1028" 
d="M903 362q0 -178 -104.5 -280t-284.5 -102q-178 0 -283.5 102t-105.5 280v768q0 179 105.5 281t283.5 102q180 0 285 -102q34 -28 58.5 -75.5t29.5 -82.5q38 2 69 24.5t31 63.5h-49v172h121v-165q-1 -49 -27.5 -81t-63 -46.5t-71.5 -14.5q6 -18 6 -76v-768zM649 369v755
q0 166 -135 166t-135 -166v-755q0 -166 135 -166t135 166zM643 1790l2 -8q0 -31 -13.5 -49.5t-39.5 -44.5q-32 -35 -37 -82h-2h-86q2 43 25 77t47 70q8 16 8 31q0 24 -29 24q-40 0 -55 -45l-82 21q37 82 149 82q49 0 80 -21q33 -20 33 -55z" />
    <glyph glyph-name="ochoanga" unicode="&#x1ee0;" horiz-adv-x="1028" 
d="M903 362q0 -178 -104.5 -280t-284.5 -102q-178 0 -283.5 102t-105.5 280v768q0 179 105.5 281t283.5 102q180 0 285 -102q34 -28 58.5 -75.5t29.5 -82.5q38 2 69 24.5t31 63.5h-49v172h121v-165q-1 -49 -27.5 -81t-63 -46.5t-71.5 -14.5q6 -18 6 -76v-768zM649 369v755
q0 166 -135 166t-135 -166v-755q0 -166 135 -166t135 166zM727 1761h-2q-27 -157 -133 -157q-31 0 -84 24q-51 25 -78 25q-53 0 -53 -58h-74q29 158 135 158q36 0 84 -22q51 -25 78 -25q53 0 53 55h74z" />
    <glyph glyph-name="ochoanang" unicode="&#x1ee2;" horiz-adv-x="1028" 
d="M903 362q0 -178 -104.5 -280t-284.5 -102q-178 0 -283.5 102t-105.5 280v768q0 179 105.5 281t283.5 102q180 0 285 -102q34 -28 58.5 -75.5t29.5 -82.5q38 2 69 24.5t31 63.5h-49v172h121v-165q-1 -49 -27.5 -81t-63 -46.5t-71.5 -14.5q6 -18 6 -76v-768zM649 369v755
q0 166 -135 166t-135 -166v-755q0 -166 135 -166t135 166zM604 -281h-182v168h182v-168z" />
    <glyph glyph-name="ucthsac" unicode="&#x1ee9;" horiz-adv-x="950" 
d="M819 0h-217v113q-77 -70 -125 -97q-64 -36 -153 -36q-95 0 -148 71q-45 60 -45 162v899h229v-862q0 -80 82 -80q53 0 148 70v872h229v-266q60 13 90.5 35t30.5 59h-51v172h121v-160q0 -57 -31 -90.5t-74.5 -46t-85.5 -12.5v-803zM702 1407l-174 -193h-108l104 193h178z
" />
    <glyph glyph-name="ucthhuyen" unicode="&#x1eeb;" horiz-adv-x="950" 
d="M819 0h-217v113q-77 -70 -125 -97q-64 -36 -153 -36q-95 0 -148 71q-45 60 -45 162v899h229v-862q0 -80 82 -80q53 0 148 70v872h229v-266q60 13 90.5 35t30.5 59h-51v172h121v-160q0 -57 -31 -90.5t-74.5 -46t-85.5 -12.5v-803zM608 1204h-108l-174 193h178z" />
    <glyph glyph-name="ucthhoi" unicode="&#x1eed;" horiz-adv-x="950" 
d="M819 0h-217v113q-77 -70 -125 -97q-64 -36 -153 -36q-95 0 -148 71q-45 60 -45 162v899h229v-862q0 -80 82 -80q53 0 148 70v872h229v-266q60 13 90.5 35t30.5 59h-51v172h121v-160q0 -57 -31 -90.5t-74.5 -46t-85.5 -12.5v-803zM614 1399l2 -8q0 -30 -12.5 -48.5
t-40.5 -46.5q-32 -32 -37 -82h-2h-86q2 41 25 76.5t47 71.5q8 16 8 31q0 24 -29 24q-40 0 -55 -45l-82 21q37 82 150 82q45 0 80 -21q32 -20 32 -55z" />
    <glyph glyph-name="ucthnga" unicode="&#x1eef;" horiz-adv-x="950" 
d="M819 0h-217v113q-77 -70 -125 -97q-64 -36 -153 -36q-95 0 -148 71q-45 60 -45 162v899h229v-862q0 -80 82 -80q53 0 148 70v872h229v-266q60 13 90.5 35t30.5 59h-51v172h121v-160q0 -57 -31 -90.5t-74.5 -46t-85.5 -12.5v-803zM750 1380h-2q-29 -157 -134 -157
q-31 0 -84 24q-50 25 -77 25q-54 0 -54 -58h-73q27 158 135 158q36 0 84 -22q51 -25 78 -25q53 0 53 55h74z" />
    <glyph glyph-name="ucthnang" unicode="&#x1ef1;" horiz-adv-x="950" 
d="M819 0h-217v113q-77 -70 -125 -97q-64 -36 -153 -36q-95 0 -148 71q-45 60 -45 162v899h229v-862q0 -80 82 -80q53 0 148 70v872h229v-266q60 13 90.5 35t30.5 59h-51v172h121v-160q0 -57 -31 -90.5t-74.5 -46t-85.5 -12.5v-803zM575 -291h-182v168h182v-168z" />
    <glyph glyph-name="uchoasac" unicode="&#x1ee8;" horiz-adv-x="1030" 
d="M903 377q0 -187 -100 -291q-100 -106 -289 -106q-187 0 -287 106q-102 107 -102 291v1116h254v-1126q0 -164 135 -164t135 164v1126h254v-266q60 13 90.5 35t30.5 59h-51v172h121v-160q0 -57 -31 -90.5t-74.5 -46t-85.5 -12.5v-807zM741 1778l-174 -193h-108l104 193h178
z" />
    <glyph glyph-name="uchoahuyen" unicode="&#x1eea;" horiz-adv-x="1030" 
d="M903 377q0 -187 -100 -291q-100 -106 -289 -106q-187 0 -287 106q-102 107 -102 291v1116h254v-1126q0 -164 135 -164t135 164v1126h254v-266q60 13 90.5 35t30.5 59h-51v172h121v-160q0 -57 -31 -90.5t-74.5 -46t-85.5 -12.5v-807zM647 1585h-108l-174 193h178z" />
    <glyph glyph-name="uchoahoi" unicode="&#x1eec;" horiz-adv-x="1030" 
d="M903 377q0 -187 -100 -291q-100 -106 -289 -106q-187 0 -287 106q-102 107 -102 291v1116h254v-1126q0 -164 135 -164t135 164v1126h254v-266q60 13 90.5 35t30.5 59h-51v172h121v-160q0 -57 -31 -90.5t-74.5 -46t-85.5 -12.5v-807zM664 1769l2 -8q0 -31 -12 -47.5
t-42.5 -47t-36.5 -81.5h-2h-86q3 31 15 56t32.5 54t24.5 38q8 16 8 30q0 25 -28 25q-40 0 -56 -45l-82 20q37 82 150 82q47 0 80 -20q33 -22 33 -56z" />
    <glyph glyph-name="uchoanga" unicode="&#x1eee;" horiz-adv-x="1030" 
d="M903 377q0 -187 -100 -291q-100 -106 -289 -106q-187 0 -287 106q-102 107 -102 291v1116h254v-1126q0 -164 135 -164t135 164v1126h254v-266q60 13 90.5 35t30.5 59h-51v172h121v-160q0 -57 -31 -90.5t-74.5 -46t-85.5 -12.5v-807zM737 1741h-2q-27 -158 -133 -158
q-33 0 -84.5 24.5t-77.5 24.5q-53 0 -53 -57h-74q29 158 136 158q34 0 83 -23q52 -24 78 -24q54 0 54 55h73z" />
    <glyph glyph-name="uchoanang" unicode="&#x1ef0;" horiz-adv-x="1030" 
d="M903 377q0 -187 -100 -291q-100 -106 -289 -106q-187 0 -287 106q-102 107 -102 291v1116h254v-1126q0 -164 135 -164t135 164v1126h254v-266q60 13 90.5 35t30.5 59h-51v172h121v-160q0 -57 -31 -90.5t-74.5 -46t-85.5 -12.5v-807zM604 -281h-182v168h182v-168z" />
    <glyph glyph-name="aathsac" unicode="&#x1eaf;" horiz-adv-x="862" 
d="M799 0h-219l-13 86q-130 -106 -268 -106q-115 0 -172 69q-61 67 -61 180q0 196 153 328q50 41 137.5 88.5t198.5 89.5v66q0 143 -113 143q-63 0 -96.5 -40t-34.5 -118h-229q9 165 106 256t263 91q333 0 333 -302q0 -77 -6 -239q-6 -163 -6 -244q0 -212 27 -348zM555 272
v293q-117 -68 -172 -116q-88 -84 -88 -179q0 -100 106 -100q82 0 154 102zM637 1364h4q-9 -81 -61 -121.5t-134 -40.5q-74 0 -123.5 44t-58.5 116h117q0 -29 20.5 -46.5t47.5 -17.5q36 0 51.5 16.5t19.5 49.5h117zM690 1618l-174 -193h-108l104 193h178z" />
    <glyph glyph-name="aathhuyen" unicode="&#x1eb1;" horiz-adv-x="862" 
d="M799 0h-219l-13 86q-130 -106 -268 -106q-115 0 -172 69q-61 67 -61 180q0 196 153 328q50 41 137.5 88.5t198.5 89.5v66q0 143 -113 143q-63 0 -96.5 -40t-34.5 -118h-229q9 165 106 256t263 91q333 0 333 -302q0 -77 -6 -239q-6 -163 -6 -244q0 -212 27 -348zM555 272
v293q-117 -68 -172 -116q-88 -84 -88 -179q0 -100 106 -100q82 0 154 102zM637 1364h4q-9 -81 -61 -121.5t-134 -40.5q-74 0 -123.5 44t-58.5 116h117q0 -29 20.5 -46.5t47.5 -17.5q36 0 51.5 16.5t19.5 49.5h117zM524 1436h-108l-174 192h178z" />
    <glyph glyph-name="aathhoi" unicode="&#x1eb3;" horiz-adv-x="862" 
d="M799 0h-219l-13 86q-130 -106 -268 -106q-115 0 -172 69q-61 67 -61 180q0 196 153 328q50 41 137.5 88.5t198.5 89.5v66q0 143 -113 143q-63 0 -96.5 -40t-34.5 -118h-229q9 165 106 256t263 91q333 0 333 -302q0 -77 -6 -239q-6 -163 -6 -244q0 -212 27 -348zM555 272
v293q-117 -68 -172 -116q-88 -84 -88 -179q0 -100 106 -100q82 0 154 102zM637 1364h4q-9 -81 -61 -121.5t-134 -40.5q-74 0 -123.5 44t-58.5 116h117q0 -29 20.5 -46.5t47.5 -17.5q36 0 51.5 16.5t19.5 49.5h117zM592 1610l2 -8q0 -19 -7.5 -36.5t-23 -34.5t-22.5 -24
q-32 -30 -37 -82h-2h-86q2 44 26 79.5t45 68.5q9 15 9 31q0 24 -29 24q-40 0 -55 -45l-82 21q36 82 149 82q47 0 80 -21q33 -20 33 -55z" />
    <glyph glyph-name="aathnga" unicode="&#x1eb5;" horiz-adv-x="862" 
d="M799 0h-219l-13 86q-130 -106 -268 -106q-115 0 -172 69q-61 67 -61 180q0 196 153 328q50 41 137.5 88.5t198.5 89.5v66q0 143 -113 143q-63 0 -96.5 -40t-34.5 -118h-229q9 165 106 256t263 91q333 0 333 -302q0 -77 -6 -239q-6 -163 -6 -244q0 -212 27 -348zM555 272
v293q-117 -68 -172 -116q-88 -84 -88 -179q0 -100 106 -100q82 0 154 102zM637 1364h4q-9 -81 -61 -121.5t-134 -40.5q-74 0 -123.5 44t-58.5 116h117q0 -29 20.5 -46.5t47.5 -17.5q36 0 51.5 16.5t19.5 49.5h117zM686 1591h-2q-27 -157 -133 -157q-31 0 -84 24
q-51 25 -78 25q-53 0 -53 -58h-74q29 158 135 158q36 0 84 -22q51 -25 78 -25q53 0 53 55h74z" />
    <glyph glyph-name="aathnang" unicode="&#x1eb7;" horiz-adv-x="862" 
d="M799 0h-219l-13 86q-130 -106 -268 -106q-115 0 -172 69q-61 67 -61 180q0 196 153 328q50 41 137.5 88.5t198.5 89.5v66q0 143 -113 143q-63 0 -96.5 -40t-34.5 -118h-229q9 165 106 256t263 91q333 0 333 -302q0 -77 -6 -239q-6 -163 -6 -244q0 -212 27 -348zM555 272
v293q-117 -68 -172 -116q-88 -84 -88 -179q0 -100 106 -100q82 0 154 102zM637 1364h4q-9 -81 -61 -121.5t-134 -40.5q-74 0 -123.5 44t-58.5 116h117q0 -29 20.5 -46.5t47.5 -17.5q36 0 51.5 16.5t19.5 49.5h117zM532 -270h-182v168h182v-168z" />
    <glyph glyph-name="aahoasac" unicode="&#x1eae;" horiz-adv-x="879" 
d="M870 0h-245l-45 332h-279l-45 -332h-246l273 1493h315zM543 555l-101 641h-4l-100 -641h205zM637 1718h4q-9 -80 -60.5 -121t-134.5 -41q-74 0 -123.5 44t-58.5 116h117q0 -29 20.5 -46t47.5 -17q36 0 51.5 15.5t19.5 49.5h117zM690 1972l-174 -192h-108l104 192h178z
" />
    <glyph glyph-name="aahoahuyen" unicode="&#x1eb0;" horiz-adv-x="879" 
d="M870 0h-245l-45 332h-279l-45 -332h-246l273 1493h315zM543 555l-101 641h-4l-100 -641h205zM637 1718h4q-9 -80 -60.5 -121t-134.5 -41q-74 0 -123.5 44t-58.5 116h117q0 -29 20.5 -46t47.5 -17q36 0 51.5 15.5t19.5 49.5h117zM524 1790h-108l-174 192h178z" />
    <glyph glyph-name="aahoahoi" unicode="&#x1eb2;" horiz-adv-x="879" 
d="M870 0h-245l-45 332h-279l-45 -332h-246l273 1493h315zM543 555l-101 641h-4l-100 -641h205zM637 1718h4q-9 -80 -60.5 -121t-134.5 -41q-74 0 -123.5 44t-58.5 116h117q0 -29 20.5 -46t47.5 -17q36 0 51.5 15.5t19.5 49.5h117zM582 1954l2 -8q0 -30 -12 -47.5t-42.5 -48
t-35.5 -81.5h-2h-86q2 44 26 79.5t45 68.5q8 16 8 31q0 24 -28 24q-40 0 -56 -45l-82 21q37 82 150 82q45 0 80 -21q33 -21 33 -55z" />
    <glyph glyph-name="aahoanga" unicode="&#x1eb4;" horiz-adv-x="879" 
d="M870 0h-245l-45 332h-279l-45 -332h-246l273 1493h315zM543 555l-101 641h-4l-100 -641h205zM637 1718h4q-9 -80 -60.5 -121t-134.5 -41q-74 0 -123.5 44t-58.5 116h117q0 -29 20.5 -46t47.5 -17q36 0 51.5 15.5t19.5 49.5h117zM686 1946h-2q-27 -158 -133 -158
q-31 0 -84 24q-51 25 -78 25q-53 0 -53 -57h-74q29 157 135 157q36 0 84 -22q51 -25 78 -25q53 0 53 56h74z" />
    <glyph glyph-name="aahoanang" unicode="&#x1eb6;" horiz-adv-x="879" 
d="M870 0h-245l-45 332h-279l-45 -332h-246l273 1493h315zM543 555l-101 641h-4l-100 -641h205zM637 1718h4q-9 -80 -60.5 -121t-134.5 -41q-74 0 -123.5 44t-58.5 116h117q0 -29 20.5 -46t47.5 -17q36 0 51.5 15.5t19.5 49.5h117zM522 -264h-182v168h182v-168z" />
    <glyph glyph-name="abthsac" unicode="&#x1ea5;" horiz-adv-x="862" 
d="M799 0h-219l-13 86q-130 -106 -268 -106q-115 0 -172 69q-61 67 -61 180q0 196 153 328q50 41 137.5 88.5t198.5 89.5v66q0 143 -113 143q-63 0 -96.5 -40t-34.5 -118h-229q9 165 106 256t263 91q333 0 333 -302q0 -77 -6 -239q-6 -163 -6 -244q0 -212 27 -348zM555 272
v293q-117 -68 -172 -116q-88 -84 -88 -179q0 -100 106 -100q82 0 154 102zM627 1200h-123l-78 111l-78 -111h-121l127 178h146zM874 1520l-174 -193h-108l104 193h178z" />
    <glyph glyph-name="abthhuyen" unicode="&#x1ea7;" horiz-adv-x="862" 
d="M799 0h-219l-13 86q-130 -106 -268 -106q-115 0 -172 69q-61 67 -61 180q0 196 153 328q50 41 137.5 88.5t198.5 89.5v66q0 143 -113 143q-63 0 -96.5 -40t-34.5 -118h-229q9 165 106 256t263 91q333 0 333 -302q0 -77 -6 -239q-6 -163 -6 -244q0 -212 27 -348zM555 272
v293q-117 -68 -172 -116q-88 -84 -88 -179q0 -100 106 -100q82 0 154 102zM627 1200h-123l-78 111l-78 -111h-121l127 178h146zM719 1348h-109l-174 192h178z" />
    <glyph glyph-name="abthhoi" unicode="&#x1ea9;" horiz-adv-x="862" 
d="M799 0h-219l-13 86q-130 -106 -268 -106q-115 0 -172 69q-61 67 -61 180q0 196 153 328q50 41 137.5 88.5t198.5 89.5v66q0 143 -113 143q-63 0 -96.5 -40t-34.5 -118h-229q9 165 106 256t263 91q333 0 333 -302q0 -77 -6 -239q-6 -163 -6 -244q0 -212 27 -348zM555 272
v293q-117 -68 -172 -116q-88 -84 -88 -179q0 -100 106 -100q82 0 154 102zM627 1200h-123l-78 111l-78 -111h-121l127 178h146zM766 1522l2 -9q0 -20 -7.5 -36.5t-23 -33.5t-22.5 -24q-32 -30 -37 -82h-2h-86q2 44 25 78t47 70q8 16 8 31q0 24 -29 24q-40 0 -55 -45l-82 21
q35 81 149 81q49 0 80 -20q33 -20 33 -55z" />
    <glyph glyph-name="abthnga" unicode="&#x1eab;" horiz-adv-x="862" 
d="M799 0h-219l-13 86q-130 -106 -268 -106q-115 0 -172 69q-61 67 -61 180q0 196 153 328q50 41 137.5 88.5t198.5 89.5v66q0 143 -113 143q-63 0 -96.5 -40t-34.5 -118h-229q9 165 106 256t263 91q333 0 333 -302q0 -77 -6 -239q-6 -163 -6 -244q0 -212 27 -348zM555 272
v293q-117 -68 -172 -116q-88 -84 -88 -179q0 -100 106 -100q82 0 154 102zM627 1200h-123l-78 111l-78 -111h-121l127 178h146zM645 1606h-2q-27 -158 -133 -158q-33 0 -84.5 24.5t-77.5 24.5q-53 0 -53 -57h-74q29 157 135 157q37 0 84 -22q55 -25 78 -25q53 0 53 56h74z
" />
    <glyph glyph-name="abthnang" unicode="&#x1ead;" horiz-adv-x="862" 
d="M799 0h-219l-13 86q-130 -106 -268 -106q-115 0 -172 69q-61 67 -61 180q0 196 153 328q50 41 137.5 88.5t198.5 89.5v66q0 143 -113 143q-63 0 -96.5 -40t-34.5 -118h-229q9 165 106 256t263 91q333 0 333 -302q0 -77 -6 -239q-6 -163 -6 -244q0 -212 27 -348zM555 272
v293q-117 -68 -172 -116q-88 -84 -88 -179q0 -100 106 -100q82 0 154 102zM627 1200h-123l-78 111l-78 -111h-121l127 178h146zM522 -291h-182v168h182v-168z" />
    <glyph glyph-name="abhoasac" unicode="&#x1ea4;" horiz-adv-x="879" 
d="M870 0h-245l-45 332h-279l-45 -332h-246l273 1493h315zM543 555l-101 641h-4l-100 -641h205zM637 1565h-123l-78 110l-78 -110h-120l127 178h145zM885 1884l-174 -192h-109l105 192h178z" />
    <glyph glyph-name="abhoahuyen" unicode="&#x1ea6;" horiz-adv-x="879" 
d="M870 0h-245l-45 332h-279l-45 -332h-246l273 1493h315zM543 555l-101 641h-4l-100 -641h205zM637 1565h-123l-78 110l-78 -110h-120l127 178h145zM729 1712h-108l-175 193h179z" />
    <glyph glyph-name="abhoahoi" unicode="&#x1ea8;" horiz-adv-x="879" 
d="M870 0h-245l-45 332h-279l-45 -332h-246l273 1493h315zM543 555l-101 641h-4l-100 -641h205zM637 1565h-123l-78 110l-78 -110h-120l127 178h145zM776 1886l2 -8q0 -31 -13.5 -49.5t-39.5 -44.5q-32 -35 -37 -82h-2h-86q1 31 14 56.5t33.5 53.5t24.5 37q8 17 8 31
q0 25 -29 25q-40 0 -55 -45l-82 20q37 82 150 82q48 0 79 -20q33 -22 33 -56z" />
    <glyph glyph-name="abhoanga" unicode="&#x1eaa;" horiz-adv-x="879" 
d="M870 0h-245l-45 332h-279l-45 -332h-246l273 1493h315zM543 555l-101 641h-4l-100 -641h205zM637 1565h-123l-78 110l-78 -110h-120l127 178h145zM655 1970h-2q-27 -158 -133 -158q-29 0 -84 25t-78 25q-53 0 -53 -58h-74q29 158 136 158q37 0 84 -23q51 -24 77 -24
q54 0 54 55h73z" />
    <glyph glyph-name="abhoanang" unicode="&#x1eac;" horiz-adv-x="879" 
d="M870 0h-245l-45 332h-279l-45 -332h-246l273 1493h315zM543 555l-101 641h-4l-100 -641h205zM637 1565h-123l-78 110l-78 -110h-120l127 178h145zM522 -264h-182v168h182v-168z" />
    <glyph glyph-name="ebthsac" unicode="&#x1ebf;" horiz-adv-x="868" 
d="M791 377q-8 -397 -357 -397q-356 0 -356 413v326q0 414 356 414q357 0 357 -414v-207h-484v-160q0 -182 127 -182t127 207h230zM561 702v60q0 182 -127 182t-127 -182v-60h254zM623 1202h-123l-78 111l-78 -111h-121l127 178h146zM870 1522l-174 -193h-108l104 193h178z
" />
    <glyph glyph-name="ebthhuyen" unicode="&#x1ec1;" horiz-adv-x="868" 
d="M791 377q-8 -397 -357 -397q-356 0 -356 413v326q0 414 356 414q357 0 357 -414v-207h-484v-160q0 -182 127 -182t127 207h230zM561 702v60q0 182 -127 182t-127 -182v-60h254zM623 1202h-123l-78 111l-78 -111h-121l127 178h146zM715 1350h-109l-174 192h178z" />
    <glyph glyph-name="ebthhoi" unicode="&#x1ec3;" horiz-adv-x="868" 
d="M791 377q-8 -397 -357 -397q-356 0 -356 413v326q0 414 356 414q357 0 357 -414v-207h-484v-160q0 -182 127 -182t127 207h230zM561 702v60q0 182 -127 182t-127 -182v-60h254zM623 1202h-123l-78 111l-78 -111h-121l127 178h146zM762 1524l2 -8q0 -19 -7.5 -36.5
t-23 -34.5t-22.5 -24q-32 -30 -37 -82h-2h-86q2 44 26 79.5t45 68.5q9 15 9 31q0 24 -29 24q-40 0 -55 -45l-82 21q35 81 149 81q49 0 80 -20q33 -20 33 -55z" />
    <glyph glyph-name="ebthnga" unicode="&#x1ec5;" horiz-adv-x="868" 
d="M791 377q-8 -397 -357 -397q-356 0 -356 413v326q0 414 356 414q357 0 357 -414v-207h-484v-160q0 -182 127 -182t127 207h230zM561 702v60q0 182 -127 182t-127 -182v-60h254zM623 1202h-123l-78 111l-78 -111h-121l127 178h146zM641 1608h-2q-27 -158 -133 -158
q-33 0 -84.5 24.5t-77.5 24.5q-53 0 -53 -57h-74q29 157 135 157q36 0 84 -22q55 -25 78 -25q53 0 53 56h74z" />
    <glyph glyph-name="ebthnang" unicode="&#x1ec7;" horiz-adv-x="868" 
d="M791 377q-8 -397 -357 -397q-356 0 -356 413v326q0 414 356 414q357 0 357 -414v-207h-484v-160q0 -182 127 -182t127 207h230zM561 702v60q0 182 -127 182t-127 -182v-60h254zM623 1202h-123l-78 111l-78 -111h-121l127 178h146zM518 -289h-182v168h182v-168z" />
    <glyph glyph-name="ebhoasac" unicode="&#x1ebe;" horiz-adv-x="823" 
d="M766 0h-709v1493h680v-223h-426v-385h328v-223h-328v-439h455v-223zM590 1556h-123l-78 111l-78 -111h-121l127 179h146zM838 1876l-174 -193h-109l104 193h179z" />
    <glyph glyph-name="ebhoahuyen" unicode="&#x1ec0;" horiz-adv-x="823" 
d="M766 0h-709v1493h680v-223h-426v-385h328v-223h-328v-439h455v-223zM590 1556h-123l-78 111l-78 -111h-121l127 179h146zM682 1704h-109l-174 192h179z" />
    <glyph glyph-name="ebhoahoi" unicode="&#x1ec2;" horiz-adv-x="823" 
d="M766 0h-709v1493h680v-223h-426v-385h328v-223h-328v-439h455v-223zM590 1556h-123l-78 111l-78 -111h-121l127 179h146zM729 1878l2 -8q0 -31 -13.5 -49.5t-39.5 -44.5q-32 -35 -37 -82h-2h-86q2 43 25 77t47 70q8 16 8 31q0 24 -29 24q-40 0 -55 -45l-82 21
q37 82 149 82q49 0 80 -21q33 -20 33 -55z" />
    <glyph glyph-name="ebhoanga" unicode="&#x1ec4;" horiz-adv-x="823" 
d="M766 0h-709v1493h680v-223h-426v-385h328v-223h-328v-439h455v-223zM590 1556h-123l-78 111l-78 -111h-121l127 179h146zM608 1962h-2q-27 -158 -133 -158q-33 0 -84.5 24.5t-77.5 24.5q-53 0 -53 -57h-74q29 158 135 158q38 0 84 -23q52 -24 78 -24q54 0 54 55h73z" />
    <glyph glyph-name="ebhoanang" unicode="&#x1ec6;" horiz-adv-x="823" 
d="M766 0h-709v1493h680v-223h-426v-385h328v-223h-328v-439h455v-223zM590 1556h-123l-78 111l-78 -111h-121l127 179h146zM485 -262h-182v168h182v-168z" />
    <glyph glyph-name="obthsac" unicode="&#x1ed1;" horiz-adv-x="864" 
d="M788 393q0 -413 -356 -413t-356 413v326q0 414 356 414t356 -414v-326zM559 352v410q0 182 -127 182t-127 -182v-410q0 -182 127 -182t127 182zM631 1202h-123l-78 111l-78 -111h-121l127 178h146zM879 1522l-174 -193h-109l104 193h179z" />
    <glyph glyph-name="obthhuyen" unicode="&#x1ed3;" horiz-adv-x="864" 
d="M788 393q0 -413 -356 -413t-356 413v326q0 414 356 414t356 -414v-326zM559 352v410q0 182 -127 182t-127 -182v-410q0 -182 127 -182t127 182zM631 1202h-123l-78 111l-78 -111h-121l127 178h146zM723 1350h-109l-174 192h178z" />
    <glyph glyph-name="obthhoi" unicode="&#x1ed5;" horiz-adv-x="864" 
d="M788 393q0 -413 -356 -413t-356 413v326q0 414 356 414t356 -414v-326zM559 352v410q0 182 -127 182t-127 -182v-410q0 -182 127 -182t127 182zM631 1202h-123l-78 111l-78 -111h-121l127 178h146zM770 1524l2 -8q0 -19 -7.5 -36.5t-23 -34.5t-22.5 -24q-32 -32 -37 -82
h-2h-86q2 44 25 78t47 70q8 16 8 31q0 24 -29 24q-40 0 -55 -45l-82 21q35 81 149 81q49 0 80 -20q33 -20 33 -55z" />
    <glyph glyph-name="obthnga" unicode="&#x1ed7;" horiz-adv-x="864" 
d="M788 393q0 -413 -356 -413t-356 413v326q0 414 356 414t356 -414v-326zM559 352v410q0 182 -127 182t-127 -182v-410q0 -182 127 -182t127 182zM631 1202h-123l-78 111l-78 -111h-121l127 178h146zM649 1608h-2q-27 -158 -133 -158q-33 0 -84.5 24.5t-77.5 24.5
q-53 0 -53 -57h-74q29 157 135 157q37 0 84 -22q55 -25 78 -25q53 0 53 56h74z" />
    <glyph glyph-name="obthnang" unicode="&#x1ed9;" horiz-adv-x="864" 
d="M788 393q0 -413 -356 -413t-356 413v326q0 414 356 414t356 -414v-326zM559 352v410q0 182 -127 182t-127 -182v-410q0 -182 127 -182t127 182zM631 1202h-123l-78 111l-78 -111h-121l127 178h146zM526 -289h-182v168h182v-168z" />
    <glyph glyph-name="obhoasac" unicode="&#x1ed0;" horiz-adv-x="1028" 
d="M903 362q0 -178 -104.5 -280t-284.5 -102q-178 0 -283.5 102t-105.5 280v768q0 179 105.5 281t283.5 102q180 0 284.5 -102t104.5 -281v-768zM649 369v755q0 166 -135 166t-135 -166v-755q0 -166 135 -166t135 166zM711 1575h-123l-78 111l-78 -111h-121l127 178h146z
M958 1894l-174 -192h-108l104 192h178z" />
    <glyph glyph-name="obhoahuyen" unicode="&#x1ed2;" horiz-adv-x="1028" 
d="M903 362q0 -178 -104.5 -280t-284.5 -102q-178 0 -283.5 102t-105.5 280v768q0 179 105.5 281t283.5 102q180 0 284.5 -102t104.5 -281v-768zM649 369v755q0 166 -135 166t-135 -166v-755q0 -166 135 -166t135 166zM711 1575h-123l-78 111l-78 -111h-121l127 178h146z
M803 1722h-109l-174 193h178z" />
    <glyph glyph-name="obhoahoi" unicode="&#x1ed4;" horiz-adv-x="1028" 
d="M903 362q0 -178 -104.5 -280t-284.5 -102q-178 0 -283.5 102t-105.5 280v768q0 179 105.5 281t283.5 102q180 0 284.5 -102t104.5 -281v-768zM649 369v755q0 166 -135 166t-135 -166v-755q0 -166 135 -166t135 166zM711 1575h-123l-78 111l-78 -111h-121l127 178h146z
M850 1896l2 -8q0 -20 -7.5 -36.5t-23 -33.5t-22.5 -24q-32 -30 -37 -82h-2h-86q2 44 26 79.5t45 68.5q9 15 9 30q0 25 -29 25q-40 0 -55 -45l-82 20q35 82 149 82q49 0 80 -20q33 -22 33 -56z" />
    <glyph glyph-name="obhoanga" unicode="&#x1ed6;" horiz-adv-x="1028" 
d="M903 362q0 -178 -104.5 -280t-284.5 -102q-178 0 -283.5 102t-105.5 280v768q0 179 105.5 281t283.5 102q180 0 284.5 -102t104.5 -281v-768zM649 369v755q0 166 -135 166t-135 -166v-755q0 -166 135 -166t135 166zM711 1575h-123l-78 111l-78 -111h-121l127 178h146z
M729 1980h-2q-27 -157 -133 -157q-31 0 -84 24q-51 25 -78 25q-53 0 -53 -57h-74q29 157 135 157q36 0 84 -22q51 -25 78 -25q53 0 53 55h74z" />
    <glyph glyph-name="obhoanang" unicode="&#x1ed8;" horiz-adv-x="1028" 
d="M903 362q0 -178 -104.5 -280t-284.5 -102q-178 0 -283.5 102t-105.5 280v768q0 179 105.5 281t283.5 102q180 0 284.5 -102t104.5 -281v-768zM649 369v755q0 166 -135 166t-135 -166v-755q0 -166 135 -166t135 166zM711 1575h-123l-78 111l-78 -111h-121l127 178h146z
M606 -274h-182v168h182v-168z" />
    <glyph glyph-name="asacth" unicode="&#xf00a;" 
d="M-225 1417l-174 -192h-109l105 192h178z" />
    <glyph glyph-name="ahuyenth" unicode="&#xf00f;" 
d="M-299 1214h-109l-174 193h179z" />
    <glyph glyph-name="ahoith" unicode="&#xf014;" 
d="M-303 1399l2 -8q0 -19 -7.5 -36.5t-23 -34.5t-22.5 -24q-32 -30 -37 -82h-2h-86q2 44 26 79.5t45 68.5q9 15 9 31q0 24 -29 24q-40 0 -55 -45l-82 21q36 82 149 82q47 0 80 -21q33 -20 33 -55z" />
    <glyph glyph-name="angath" unicode="&#xf019;" 
d="M-209 1370h-2q-27 -158 -133 -158q-29 0 -84 25t-78 25q-53 0 -53 -58h-74q29 158 135 158q37 0 84 -23q52 -24 78 -24q53 0 53 55h74z" />
    <glyph glyph-name="angath" unicode="&#xf01b;" 
d="M-209 1370h-2q-27 -158 -133 -158q-29 0 -84 25t-78 25q-53 0 -53 -58h-74q29 158 135 158q37 0 84 -23q52 -24 78 -24q53 0 53 55h74z" />
    <glyph glyph-name="angath" unicode="&#xf01a;" 
d="M-209 1370h-2q-27 -158 -133 -158q-29 0 -84 25t-78 25q-53 0 -53 -58h-74q29 158 135 158q37 0 84 -23q52 -24 78 -24q53 0 53 55h74z" />
    <glyph glyph-name="anangth" unicode="&#xf023;" 
d="M-342 -281h-182v168h182v-168z" />
    <glyph glyph-name="anangth" unicode="&#xf02c;" 
d="M-342 -281h-182v168h182v-168z" />
    <glyph glyph-name="anangth" unicode="&#xf028;" 
d="M-342 -281h-182v168h182v-168z" />
    <glyph glyph-name="anangth" unicode="&#xf027;" 
d="M-342 -281h-182v168h182v-168z" />
    <glyph glyph-name="anangth" unicode="&#xf026;" 
d="M-342 -281h-182v168h182v-168z" />
    <glyph glyph-name="anangth" unicode="&#xf025;" 
d="M-342 -281h-182v168h182v-168z" />
    <glyph glyph-name="anangth" unicode="&#xf024;" 
d="M-342 -281h-182v168h182v-168z" />
    <glyph glyph-name="aasacth" unicode="&#xf009;" 
d="M-174 1632l-174 -192h-109l105 192h178z" />
    <glyph glyph-name="aahuyenth" unicode="&#xf00e;" 
d="M-350 1430h-109l-174 192h178z" />
    <glyph glyph-name="aahoith" unicode="&#xf013;" 
d="M-283 1614l2 -8q0 -31 -13.5 -50t-39.5 -45q-32 -32 -37 -81h-2h-86q2 39 25 75t47 72q8 16 8 31q0 24 -29 24q-40 0 -55 -45l-82 21q37 82 150 82q45 0 80 -21q32 -20 32 -55z" />
    <glyph glyph-name="aangath" unicode="&#xf018;" 
d="M-168 1595h-2q-27 -157 -133 -157q-31 0 -84 24q-51 25 -78 25q-53 0 -53 -57h-74q29 157 135 157q36 0 84 -22q51 -25 78 -25q53 0 53 55h74z" />
    <glyph glyph-name="absacth" unicode="&#x301;" 
d="M12 1520l-174 -193h-108l104 193h178z" />
    <glyph glyph-name="absacth" unicode="&#x302;" 
d="M12 1520l-174 -193h-108l104 193h178z" />
    <glyph glyph-name="abhuyenth" unicode="&#x300;" 
d="M-154 1348h-108l-174 192h178z" />
    <glyph glyph-name="abhoith" unicode="&#x309;" 
d="M-86 1511l2 -8q0 -20 -7.5 -36.5t-23 -33.5t-22.5 -24q-32 -30 -37 -82h-2h-86q2 44 25 78t47 70q8 16 8 30q0 25 -29 25q-40 0 -55 -45l-82 20q35 82 149 82q49 0 80 -20q33 -22 33 -56z" />
    <glyph glyph-name="abngath" unicode="&#x303;" 
d="M-207 1606h-2q-27 -158 -133 -158q-33 0 -84.5 24.5t-77.5 24.5q-53 0 -53 -57h-74q29 157 135 157q37 0 84 -22q55 -25 78 -25q53 0 53 56h74z" />
    <glyph glyph-name="asachoa" unicode="&#x341;" 
d="M-307 1786l-174 -193h-109l105 193h178z" />
    <glyph glyph-name="asachoa" unicode="&#xf007;" 
d="M-307 1786l-174 -193h-109l105 193h178z" />
    <glyph glyph-name="ahuyenhoa" unicode="&#x340;" 
d="M-412 1583h-108l-174 193h178z" />
    <glyph glyph-name="ahuyenhoa" unicode="&#xf00c;" 
d="M-412 1583h-108l-174 193h178z" />
    <glyph glyph-name="ahoihoa" unicode="&#xf011;" 
d="M-385 1778l2 -9q0 -20 -7.5 -36.5t-23 -33.5t-22.5 -24q-32 -30 -37 -82h-2h-86q2 44 25 78t47 70q8 16 8 31q0 24 -29 24q-40 0 -55 -45l-82 21q35 81 149 81q49 0 80 -20q33 -20 33 -55z" />
    <glyph glyph-name="angahoa" unicode="&#x342;" 
d="M-301 1759h-2q-29 -157 -133 -157q-31 0 -84 24q-55 25 -78 25q-53 0 -53 -58h-74q27 158 135 158q36 0 84 -22q51 -25 78 -25q53 0 53 55h74z" />
    <glyph glyph-name="angahoa" unicode="&#xf030;" 
d="M-301 1759h-2q-29 -157 -133 -157q-31 0 -84 24q-55 25 -78 25q-53 0 -53 -58h-74q27 158 135 158q36 0 84 -22q51 -25 78 -25q53 0 53 55h74z" />
    <glyph glyph-name="angahoa" unicode="&#xf02e;" 
d="M-301 1759h-2q-29 -157 -133 -157q-31 0 -84 24q-55 25 -78 25q-53 0 -53 -58h-74q27 158 135 158q36 0 84 -22q51 -25 78 -25q53 0 53 55h74z" />
    <glyph glyph-name="angahoa" unicode="&#xf01c;" 
d="M-301 1759h-2q-29 -157 -133 -157q-31 0 -84 24q-55 25 -78 25q-53 0 -53 -58h-74q27 158 135 158q36 0 84 -22q51 -25 78 -25q53 0 53 55h74z" />
    <glyph glyph-name="angahoa" unicode="&#xf017;" 
d="M-301 1759h-2q-29 -157 -133 -157q-31 0 -84 24q-55 25 -78 25q-53 0 -53 -58h-74q27 158 135 158q36 0 84 -22q51 -25 78 -25q53 0 53 55h74z" />
    <glyph glyph-name="angahoa" unicode="&#xf016;" 
d="M-301 1759h-2q-29 -157 -133 -157q-31 0 -84 24q-55 25 -78 25q-53 0 -53 -58h-74q27 158 135 158q36 0 84 -22q51 -25 78 -25q53 0 53 55h74z" />
    <glyph glyph-name="ananghoa" unicode="&#x323;" 
d="M-424 -270h-182v168h182v-168z" />
    <glyph glyph-name="ananghoa" unicode="&#xf02b;" 
d="M-424 -270h-182v168h182v-168z" />
    <glyph glyph-name="ananghoa" unicode="&#xf029;" 
d="M-424 -270h-182v168h182v-168z" />
    <glyph glyph-name="ananghoa" unicode="&#xf022;" 
d="M-424 -270h-182v168h182v-168z" />
    <glyph glyph-name="ananghoa" unicode="&#xf021;" 
d="M-424 -270h-182v168h182v-168z" />
    <glyph glyph-name="ananghoa" unicode="&#xf020;" 
d="M-424 -270h-182v168h182v-168z" />
    <glyph glyph-name="ananghoa" unicode="&#xf01f;" 
d="M-424 -270h-182v168h182v-168z" />
    <glyph glyph-name="ananghoa" unicode="&#xf01e;" 
d="M-424 -270h-182v168h182v-168z" />
    <glyph glyph-name="aasachoa" 
d="M-184 1970l-174 -192h-109l105 192h178z" />
    <glyph glyph-name="aahuyenhoa" 
d="M-350 1778h-109l-174 192h178z" />
    <glyph glyph-name="aahoihoa" 
d="M-293 1962l2 -8q0 -31 -13.5 -49.5t-39.5 -44.5q-32 -35 -37 -82h-2h-86q2 43 25 77t47 70q8 16 8 31q0 24 -29 24q-40 0 -55 -45l-82 21q37 82 149 82q49 0 80 -21q33 -20 33 -55z" />
    <glyph glyph-name="aangahoa" 
d="M-199 1944h-2q-27 -158 -133 -158q-31 0 -84 24q-51 25 -78 25q-53 0 -53 -57h-74q29 157 136 157q36 0 84 -22q50 -25 77 -25q54 0 54 56h73z" />
    <glyph glyph-name="absachoa" unicode="&#xf006;" 
d="M-70 1898l-174 -192h-108l104 192h178z" />
    <glyph glyph-name="abhuyenhoa" unicode="&#xf00b;" 
d="M-215 1706h-109l-174 192h179z" />
    <glyph glyph-name="abhoihoa" unicode="&#xf010;" 
d="M-168 1880l2 -8q0 -31 -13.5 -49.5t-39.5 -44.5q-32 -35 -37 -82h-2h-86q2 43 25 77t47 70q8 16 8 31q0 24 -29 24q-40 0 -55 -45l-82 21q36 82 149 82q49 0 80 -21q33 -20 33 -55z" />
    <glyph glyph-name="abngahoa" unicode="&#xf015;" 
d="M-289 1985h-2q-27 -158 -133 -158q-31 0 -84 24q-51 25 -78 25q-53 0 -53 -57h-74q29 157 135 157q37 0 84 -22q51 -25 78 -25q54 0 54 56h73z" />
    <glyph glyph-name="abngahoa" unicode="&#xf02f;" 
d="M-289 1985h-2q-27 -158 -133 -158q-31 0 -84 24q-51 25 -78 25q-53 0 -53 -57h-74q29 157 135 157q37 0 84 -22q51 -25 78 -25q54 0 54 56h73z" />
    <glyph glyph-name="abngahoa" unicode="&#xf02d;" 
d="M-289 1985h-2q-27 -158 -133 -158q-31 0 -84 24q-51 25 -78 25q-53 0 -53 -57h-74q29 157 135 157q37 0 84 -22q51 -25 78 -25q54 0 54 56h73z" />
    <glyph glyph-name="cth" 
d="M-225 1362h4q-9 -81 -61 -121.5t-134 -40.5q-74 0 -123.5 44t-58.5 116h117q0 -29 20 -46.5t47 -17.5q37 0 52.5 16.5t19.5 49.5h117z" />
    <glyph glyph-name="csacth" 
d="M-225 1362h4q-9 -81 -61 -121.5t-134 -40.5q-74 0 -123.5 44t-58.5 116h117q0 -29 20 -46.5t47 -17.5q37 0 52.5 16.5t19.5 49.5h117zM-172 1616l-174 -193h-109l105 193h178z" />
    <glyph glyph-name="chuyenth" 
d="M-225 1362h4q-9 -81 -61 -121.5t-134 -40.5q-74 0 -123.5 44t-58.5 116h117q0 -29 20 -46.5t47 -17.5q37 0 52.5 16.5t19.5 49.5h117zM-338 1434h-108l-175 192h179z" />
    <glyph glyph-name="choith" 
d="M-225 1362h4q-9 -81 -61 -121.5t-134 -40.5q-74 0 -123.5 44t-58.5 116h117q0 -29 20 -46.5t47 -17.5q37 0 52.5 16.5t19.5 49.5h117zM-270 1608l2 -9q0 -31 -12 -47.5t-42.5 -47t-35.5 -81.5h-2h-86q2 44 26 79.5t45 68.5q8 16 8 31q0 24 -28 24q-40 0 -56 -45l-81 21
q35 81 149 81q47 0 80 -20.5t33 -54.5z" />
    <glyph glyph-name="cngath" 
d="M-225 1362h4q-9 -81 -61 -121.5t-134 -40.5q-74 0 -123.5 44t-58.5 116h117q0 -29 20 -46.5t47 -17.5q37 0 52.5 16.5t19.5 49.5h117zM-176 1589h-2q-29 -157 -133 -157q-31 0 -84 24q-51 25 -78 25q-53 0 -53 -58h-74q27 158 135 158q36 0 84 -22q51 -25 78 -25
q53 0 53 55h74z" />
    <glyph glyph-name="cnangth" 
d="M-225 1362h4q-9 -81 -61 -121.5t-134 -40.5q-74 0 -123.5 44t-58.5 116h117q0 -29 20 -46.5t47 -17.5q37 0 52.5 16.5t19.5 49.5h117zM-330 -272h-182v168h182v-168z" />
    <glyph glyph-name="choa" 
d="M-242 1718h4q-9 -80 -60 -121t-134 -41q-75 0 -124 44t-58 116h116q0 -29 20.5 -46t47.5 -17q65 0 72 65h116z" />
    <glyph glyph-name="csachoa" 
d="M-242 1718h4q-9 -80 -60 -121t-134 -41q-75 0 -124 44t-58 116h116q0 -29 20.5 -46t47.5 -17q65 0 72 65h116zM-188 1972l-174 -192h-109l104 192h179z" />
    <glyph glyph-name="chuyenhoa" 
d="M-242 1718h4q-9 -80 -60 -121t-134 -41q-75 0 -124 44t-58 116h116q0 -29 20.5 -46t47.5 -17q65 0 72 65h116zM-354 1790h-109l-174 192h178z" />
    <glyph glyph-name="choihoa" 
d="M-242 1718h4q-9 -80 -60 -121t-134 -41q-75 0 -124 44t-58 116h116q0 -29 20.5 -46t47.5 -17q65 0 72 65h116zM-287 1954l2 -8q0 -30 -12.5 -48.5t-40.5 -46.5q-32 -32 -37 -82h-2h-86q2 44 25 78t47 70q8 16 8 31q0 24 -29 24q-40 0 -55 -45l-82 21q37 82 150 82
q45 0 80 -21q32 -20 32 -55z" />
    <glyph glyph-name="cngahoa" 
d="M-242 1718h4q-9 -80 -60 -121t-134 -41q-75 0 -124 44t-58 116h116q0 -29 20.5 -46t47.5 -17q65 0 72 65h116zM-193 1946h-2q-27 -158 -133 -158q-31 0 -84 24q-50 25 -77 25q-54 0 -54 -57h-73q27 157 135 157q36 0 84 -22q51 -25 78 -25q53 0 53 56h73z" />
    <glyph glyph-name="cnanghoa" 
d="M-242 1718h4q-9 -80 -60 -121t-134 -41q-75 0 -124 44t-58 116h116q0 -29 20.5 -46t47.5 -17q65 0 72 65h116zM-336 -285h-182v168h182v-168z" />
    <glyph glyph-name="bth" 
d="M-233 1202h-123l-78 111l-78 -111h-121l127 178h146z" />
    <glyph glyph-name="bsacth" 
d="M-233 1202h-123l-78 111l-78 -111h-121l127 178h146zM14 1522l-174 -193h-108l104 193h178z" />
    <glyph glyph-name="bhuyenth" 
d="M-233 1202h-123l-78 111l-78 -111h-121l127 178h146zM-141 1350h-109l-174 192h178z" />
    <glyph glyph-name="bhoith" 
d="M-233 1202h-123l-78 111l-78 -111h-121l127 178h146zM-94 1524l2 -8q0 -19 -7.5 -36.5t-23 -34.5t-22.5 -24q-32 -30 -37 -82h-2h-86q2 44 26 79.5t45 68.5q9 18 9 31q0 24 -29 24q-40 0 -55 -45l-82 21q35 81 149 81q47 0 80 -20t33 -55z" />
    <glyph glyph-name="bngath" 
d="M-233 1202h-123l-78 111l-78 -111h-121l127 178h146zM-215 1608h-2q-29 -158 -133 -158q-33 0 -84.5 24.5t-77.5 24.5q-53 0 -53 -57h-74q27 157 135 157q36 0 84 -22q55 -25 78 -25q53 0 53 56h74z" />
    <glyph glyph-name="bnangth" 
d="M-233 1202h-123l-78 111l-78 -111h-121l127 178h146zM-338 -289h-182v168h182v-168z" />
    <glyph glyph-name="bhoa" 
d="M-317 1575h-123l-78 111l-78 -111h-121l127 178h146z" />
    <glyph glyph-name="bsachoa" 
d="M-317 1575h-123l-78 111l-78 -111h-121l127 178h146zM-70 1894l-174 -192h-108l104 192h178z" />
    <glyph glyph-name="bhuyenhoa" 
d="M-317 1575h-123l-78 111l-78 -111h-121l127 178h146zM-225 1722h-109l-174 193h178z" />
    <glyph glyph-name="bhoihoa" 
d="M-317 1575h-123l-78 111l-78 -111h-121l127 178h146zM-178 1896l2 -8q0 -20 -7.5 -36.5t-23 -33.5t-22.5 -24q-32 -30 -37 -82h-2h-86q2 44 26 79.5t45 68.5q9 15 9 30q0 25 -29 25q-40 0 -55 -45l-82 20q35 82 149 82q49 0 80 -20q33 -22 33 -56z" />
    <glyph glyph-name="bngahoa" 
d="M-317 1575h-123l-78 111l-78 -111h-121l127 178h146zM-299 1980h-2q-27 -157 -133 -157q-31 0 -84 24q-51 25 -78 25q-53 0 -53 -57h-74q27 157 135 157q36 0 84 -22q51 -25 78 -25q53 0 53 55h74z" />
    <glyph glyph-name="bnanghoa" 
d="M-317 1575h-123l-78 111l-78 -111h-121l127 178h146zM-422 -274h-182v168h182v-168z" />
    <glyph glyph-name="isachoa" horiz-adv-x="928" 
d="M848 752q0 -264 -96 -490q-63 -143 -152 -216t-207 -73q-154 0 -237 121q-36 50 -55 117.5t-19 146.5q0 158 104 291q102 129 260 129q178 0 242 -190q25 90 25 303q0 342 -129 342q-34 0 -103 -72q-71 -71 -114 -71q-76 0 -76 65q0 70 71 111q63 34 138 34
q187 0 278 -192q70 -143 70 -356zM653 459q0 256 -174 256q-135 0 -200 -170q-24 -63 -35 -134t-11 -149q0 -244 173 -244q128 0 196 164q51 119 51 277z" />
    <glyph glyph-name="ihuyenhoa" 
d="M-66 1788l-174 -193h-108l104 193h178z" />
    <glyph glyph-name="ihoihoa" 
d="M-98 1595h-109l-174 193h178z" />
    <glyph glyph-name="ingahoa" 
d="M-164 1780l2 -8q0 -19 -7.5 -36.5t-23 -34.5t-22.5 -24q-32 -32 -37 -82h-2h-86q2 44 25 78t47 70q8 16 8 31q0 24 -29 24q-40 0 -55 -45l-82 21q37 81 150 81q48 0 79 -20q33 -20 33 -55z" />
    <glyph glyph-name="inanghoa" 
d="M-80 1761h-2q-27 -157 -133 -157q-31 0 -84 24q-51 25 -78 25q-53 0 -53 -58h-74q29 158 135 158q37 0 84 -22q51 -25 78 -25q53 0 53 55h74z" />
    <glyph glyph-name="nonbreakingspace" horiz-adv-x="879" 
 />
  </font>
</defs>
</svg>
