<?xml version="1.0" encoding="utf-8"?>
<!-- Generator: Adobe Illustrator 14.0.0, SVG Export Plug-In . SVG Version: 6.00 Build 43363)  -->
<!DOCTYPE svg PUBLIC "-//W3C//DTD SVG 1.1//EN" "http://www.w3.org/Graphics/SVG/1.1/DTD/svg11.dtd">
<svg version="1.1" id="Layer_1" xmlns="http://www.w3.org/2000/svg" xmlns:xlink="http://www.w3.org/1999/xlink" x="0px" y="0px"
	 width="110.329px" height="80.75px" viewBox="0 0 110.329 80.75" enable-background="new 0 0 110.329 80.75" xml:space="preserve">
<path fill="#EE3825" d="M54.174,33.624l14.344,17.212h-8.605v22.949H48.437V50.835h-8.606L54.174,33.624z M82.782,36.492
	c-0.711-6.454-6.186-11.475-12.83-11.475c-3.037,0-5.82,1.046-8.024,2.798C59.435,19.558,51.77,13.542,42.7,13.542
	c-11.091,0-20.081,8.99-20.081,20.081c0,1.078,0.083,2.137,0.25,3.167c-5.078,1.188-8.855,5.747-8.855,11.176
	c0,6.337,5.146,11.476,11.466,11.476H42.7v5.737H25.488c-9.501,0-17.212-7.711-17.212-17.213c0-6.358,3.462-11.928,8.612-14.908
	C17.186,19.062,28.632,7.805,42.7,7.805c9.274,0,17.408,4.892,21.957,12.238c1.682-0.497,3.457-0.763,5.295-0.763
	c7.987,0,14.803,5.022,17.459,12.083c7.297,1.994,12.662,8.671,12.662,16.604c0,9.486-7.709,17.213-17.212,17.213H65.649v-5.737
	H82.87c6.334,0,11.467-5.148,11.467-11.476c0-6.336-5.146-11.475-11.467-11.475L82.782,36.492L82.782,36.492z"/>
</svg>
