<?xml version="1.0" encoding="utf-8"?>
<!-- Generator: Adobe Illustrator 14.0.0, SVG Export Plug-In . SVG Version: 6.00 Build 43363)  -->
<!DOCTYPE svg PUBLIC "-//W3C//DTD SVG 1.1//EN" "http://www.w3.org/Graphics/SVG/1.1/DTD/svg11.dtd">
<svg version="1.1" id="Layer_1" xmlns="http://www.w3.org/2000/svg" xmlns:xlink="http://www.w3.org/1999/xlink" x="0px" y="0px"
	 width="48.01px" height="56.693px" viewBox="0 0 48.01 56.693" enable-background="new 0 0 48.01 56.693" xml:space="preserve">
<path fill="#EE3825" d="M42.357,40.353H34.96l6.928-6.929c0.66-0.66,0.66-1.73,0-2.391l-20.78-20.78c-0.66-0.66-1.73-0.66-2.391,0
	L5.578,23.391c-0.66,0.66-0.66,1.731,0,2.392l14.57,14.57H5.109c-0.871,0-1.577,0.705-1.577,1.577c0,0.87,0.706,1.576,1.577,1.576
	h37.248c0.871,0,1.577-0.706,1.577-1.576C43.935,41.058,43.229,40.353,42.357,40.353z M35.521,29.448l-10.576-2.251l-2.251-10.576
	L35.521,29.448z M9.165,24.586l9.631-9.631l2.993,14.063c0.071,0.335,0.237,0.632,0.47,0.864c0.232,0.231,0.53,0.398,0.864,0.469
	l14.063,2.994l-7.008,7.008h-5.247L9.165,24.586z"/>
</svg>
