<?xml version="1.0" encoding="utf-8"?>
<!-- Generator: Adobe Illustrator 14.0.0, SVG Export Plug-In . SVG Version: 6.00 Build 43363)  -->
<!DOCTYPE svg PUBLIC "-//W3C//DTD SVG 1.1//EN" "http://www.w3.org/Graphics/SVG/1.1/DTD/svg11.dtd">
<svg version="1.1" id="Layer_1" xmlns="http://www.w3.org/2000/svg" xmlns:xlink="http://www.w3.org/1999/xlink" x="0px" y="0px"
	 width="101.944px" height="89.773px" viewBox="0 0 101.944 89.773" enable-background="new 0 0 101.944 89.773"
	 xml:space="preserve">
<path fill="#EE3825" d="M85.503,37.077h-1.75c-4.38-13.233-17.414-22.858-32.78-22.858c-15.365,0-28.407,9.625-32.776,22.858h-1.754
	c-3.636,0-6.594,2.987-6.594,6.645v7.747c0,3.666,2.962,6.648,6.594,6.648h1.563c6.29,24.512,31.989,31.404,32.282,31.487
	l0.666,0.169l0.662-0.161c0.295-0.071,26.096-6.693,32.339-31.495h1.544c3.635,0,6.592-2.989,6.592-6.648v-7.747
	C92.101,40.064,89.14,37.077,85.503,37.077z M73.177,68.614H55.876c-0.835-1.533-2.453-2.579-4.315-2.579
	c-2.716,0-4.92,2.221-4.92,4.96c0,2.738,2.204,4.95,4.92,4.95c2.164,0,3.999-1.413,4.657-3.372h13.686
	C62.62,80.226,53.56,83.277,50.989,84.026c-4.494-1.357-28.847-9.945-28.847-37.229c0-0.454,0.018-0.898,0.042-1.345
	c7.458-1.412,16.184-3.771,19.141-7.385c0,0,1.18,6.748-3.15,9.512c0,0,15.352-2.378,18.103-7.138c0,0,0.552,12.325,23.286,10.976
	C78.812,58.521,76.357,64.151,73.177,68.614z M101.944,45.843v3.515c0,2.986-2.664,5.326-6.059,5.326h-2.632v-3.566v-7.04v-2.245
	C92.681,21.08,74.7,5.551,50.973,5.551c-23.72,0-41.689,15.512-42.279,36.259v2.276v7.041v3.571H6.063
	C2.665,54.698,0,52.358,0,49.369v-3.515c0-2.075,1.281-3.828,3.198-4.719C4.147,17.562,24.358,0,50.971,0
	c26.608,0,46.825,17.562,47.77,41.126C100.661,42.004,101.944,43.766,101.944,45.843z"/>
</svg>
