<?xml version="1.0" encoding="utf-8"?>
<!-- Generator: Adobe Illustrator 14.0.0, SVG Export Plug-In . SVG Version: 6.00 Build 43363)  -->
<!DOCTYPE svg PUBLIC "-//W3C//DTD SVG 1.1//EN" "http://www.w3.org/Graphics/SVG/1.1/DTD/svg11.dtd">
<svg version="1.1" id="Layer_1" xmlns="http://www.w3.org/2000/svg" xmlns:xlink="http://www.w3.org/1999/xlink" x="0px" y="0px"
	 width="110.329px" height="80.751px" viewBox="0 0 110.329 80.751" enable-background="new 0 0 110.329 80.751"
	 xml:space="preserve">
<g>
	<g>
		<path fill="#EE3825" d="M33.208,19.856c0.876-4.441,2.062-8.55,3.533-12.159c0.744-1.831,1.554-3.497,2.419-5.004
			C28.45,6.589,19.938,15.097,16.042,25.806c1.507-0.867,3.175-1.671,5.006-2.417C24.658,21.916,28.765,20.733,33.208,19.856z
			 M57.232,3.536c-1.666-2.065-3.371-3.155-4.912-3.155c-2.927,0-6.45,3.937-9.171,11.039c3.454-2.491,7.112-4.704,10.97-6.517
			C55.128,4.429,56.17,3.971,57.232,3.536z M71.433,58.072c-0.877,4.442-2.061,8.547-3.534,12.156
			c-0.746,1.831-1.554,3.502-2.418,5.004c10.709-3.896,19.22-12.405,23.117-23.111c-1.506,0.864-3.175,1.676-5.005,2.42
			C79.983,56.012,75.875,57.197,71.433,58.072z M17.627,42.15c1.91-4.343,4.318-8.471,7.102-12.34
			c-7.075,2.718-10.995,6.231-11,9.15v0.009c0.003,1.542,1.095,3.249,3.167,4.913C17.133,43.299,17.377,42.721,17.627,42.15z
			 M93.149,15.746c-1.245-6.31-5.916-10.871-12.121-12.419c-8.17-2.037-17.07,0.524-24.478,4.008
			c-5.975,2.814-11.485,6.567-16.477,10.875c-8.37,7.231-15.544,16.218-20.014,26.372c-3.281,7.451-5.634,16.533-2.971,24.534
			c1.06,3.176,2.975,6.014,5.699,7.983c3.349,2.418,7.531,3.256,11.604,3.064c5.144-0.242,10.104-1.797,14.773-3.97
			c1.084,0.89,2.156,1.351,3.154,1.351c3.809,0,8.629-6.652,11.373-18.298c-3.672,0.397-7.485,0.61-11.373,0.61
			c-3.889,0-7.701-0.213-11.373-0.61c1.841,7.811,4.616,13.375,7.393,16.191c-2.707,0.979-5.504,1.716-8.388,2.151
			c-6.747,1.01-15.059-0.321-17.962-7.361c-1.126-2.727-1.286-5.744-0.941-8.684c4.362,6.018,10.42,10.736,17.468,13.443
			c0.153-0.026,0.306-0.053,0.456-0.082c-0.794-1.42-1.541-2.979-2.232-4.678c-1.472-3.609-2.656-7.713-3.533-12.156
			c-3.851-0.758-7.449-1.748-10.689-2.957c0.752-2.328,1.703-4.59,2.793-6.781c2.005,0.74,4.25,1.42,6.724,2
			c-0.398-3.672-0.611-7.48-0.611-11.368c0-0.217,0.004-0.431,0.005-0.643c2.384-3.286,5.014-6.385,7.831-9.31
			c-0.311,3.104-0.485,6.427-0.485,9.953c0,4.602,0.294,8.858,0.806,12.737c3.88,0.512,8.138,0.803,12.74,0.803
			c4.604,0,8.862-0.291,12.742-0.803c0.511-3.879,0.804-8.136,0.804-12.737c0-4.602-0.293-8.859-0.804-12.739
			c-3.88-0.511-8.139-0.808-12.742-0.808c-3.519,0-6.833,0.176-9.937,0.482c1.612-1.531,3.268-3.021,4.964-4.453
			c1.382-1.17,2.815-2.294,4.292-3.37c0.227-0.001,0.453-0.005,0.681-0.005c3.888,0,7.702,0.212,11.374,0.611
			c-0.58-2.465-1.258-4.706-1.996-6.704c0.88-0.435,1.767-0.843,2.659-1.228c1.345-0.58,2.722-1.112,4.123-1.564
			c1.206,3.232,2.194,6.826,2.954,10.667c4.441,0.877,8.55,2.06,12.16,3.533c1.694,0.687,3.248,1.432,4.666,2.227
			c0.028-0.157,0.056-0.319,0.086-0.477c-2.702-7.01-7.391-13.035-13.375-17.388c0.572-0.065,1.149-0.108,1.727-0.13
			c3.744-0.149,7.155,0.724,10.109,3.059c-0.007-0.013-0.019-0.025-0.032-0.035c0.65,0.701,1.307,1.342,1.863,2.126
			c1.245,1.772,1.936,3.854,2.302,5.968c0.718,4.15,0.11,8.479-0.994,12.504c-0.342,1.252-0.745,2.483-1.189,3.698
			c-2.834-2.763-8.379-5.519-16.15-7.349c0.399,3.67,0.611,7.486,0.611,11.373c0,3.887-0.212,7.697-0.611,11.369
			c11.645-2.739,18.299-7.56,18.306-11.364v-0.009c-0.002-1.001-0.466-2.071-1.357-3.156C92.425,29.608,94.487,22.51,93.149,15.746z
			"/>
	</g>
</g>
</svg>
