<?xml version="1.0" standalone="no"?>
<!DOCTYPE svg PUBLIC "-//W3C//DTD SVG 1.1//EN" "http://www.w3.org/Graphics/SVG/1.1/DTD/svg11.dtd" >
<svg xmlns="http://www.w3.org/2000/svg" xmlns:xlink="http://www.w3.org/1999/xlink" version="1.1">
<metadata>
Created by FontForge 20160407 at Tue Aug 30 04:10:33 2016
 By Jimmy Warting
</metadata>
<defs>
<font id="GeoSlab703-Medium" horiz-adv-x="0" >
  <font-face 
    font-family="GeoSlab703-Medium"
    font-weight="400"
    font-stretch="normal"
    units-per-em="2048"
    panose-1="2 11 5 0 0 0 0 0 0 0"
    ascent="1638"
    descent="-410"
    x-height="938"
    cap-height="1475"
    bbox="-1012 -483 2572 2144"
    underline-thickness="57"
    underline-position="-132"
    unicode-range="U+0020-F02A"
  />
<missing-glyph horiz-adv-x="1536" 
d="M256 0v1280h1024v-1280h-1024zM1247 33v1214h-958v-1214h958z" />
    <glyph glyph-name=".notdef" horiz-adv-x="1536" 
d="M256 0v1280h1024v-1280h-1024zM1247 33v1214h-958v-1214h958z" />
    <glyph glyph-name=".null" 
 />
    <glyph glyph-name="nonmarkingreturn" 
 />
    <glyph glyph-name="space" unicode=" " horiz-adv-x="541" 
 />
    <glyph glyph-name="space" unicode="&#x2031;" horiz-adv-x="541" 
 />
    <glyph glyph-name="space" unicode="&#x2025;" horiz-adv-x="541" 
 />
    <glyph glyph-name="space" unicode="&#x2024;" horiz-adv-x="541" 
 />
    <glyph glyph-name="space" unicode="&#x2023;" horiz-adv-x="541" 
 />
    <glyph glyph-name="space" unicode="&#x201f;" horiz-adv-x="541" 
 />
    <glyph glyph-name="space" unicode="&#x201b;" horiz-adv-x="541" 
 />
    <glyph glyph-name="space" unicode="&#x2017;" horiz-adv-x="541" 
 />
    <glyph glyph-name="space" unicode="&#x2016;" horiz-adv-x="541" 
 />
    <glyph glyph-name="space" unicode="&#x2015;" horiz-adv-x="541" 
 />
    <glyph glyph-name="exclam" unicode="!" horiz-adv-x="653" 
d="M328 -25q-58 0 -96.5 38.5t-38.5 95.5t38 96t97 39q56 0 94.5 -39.5t38.5 -95.5q0 -55 -38.5 -94.5t-94.5 -39.5zM399 362h-143l-39 1113h221z" />
    <glyph glyph-name="quotedbl" unicode="&#x22;" horiz-adv-x="590" 
d="M211 1434v-553h-117v553h117zM496 1434v-553h-119v553h119z" />
    <glyph glyph-name="numbersign" unicode="#" horiz-adv-x="1575" 
d="M922 1456l-166 -471h260l168 471h143l-164 -471h307l-43 -123h-311l-94 -272h330l-43 -123h-332l-166 -469h-145l168 469h-265l-168 -469h-143l166 469h-320l43 123h320l96 272h-342l43 123h344l168 471h146zM973 862h-264l-95 -272h263z" />
    <glyph glyph-name="dollar" unicode="$" horiz-adv-x="1081" 
d="M109 463h133q15 -135 83 -221t175 -107v522q-383 86 -383 381q0 97 46.5 177t133.5 129.5t203 56.5v106h100v-112q84 -10 147.5 -53.5t96.5 -110.5l-8 153h118v-395h-120q-30 116 -89 183.5t-145 82.5v-448q157 -39 254.5 -93t146 -132.5t48.5 -184.5q0 -85 -32 -159.5
t-91 -129.5t-142 -86t-184 -32v-166h-100v166q-95 17 -163 68.5t-114 140.5l6 -199h-120v463zM500 831v431q-102 -6 -161.5 -62.5t-59.5 -142.5q0 -82 56 -140t165 -86zM600 633v-504h12q79 0 142 34t98 91t35 123t-36 118t-102 87.5t-149 50.5z" />
    <glyph glyph-name="percent" unicode="%" horiz-adv-x="1804" 
d="M1720 348q0 -94 -47.5 -175t-128.5 -127t-174 -46q-92 0 -172.5 46t-128 127t-47.5 175q0 71 26.5 135t76 112.5t110.5 74.5t135 26t137 -26.5t111.5 -74.5t75 -111t26.5 -136zM1370 143q87 0 146 58t59 147q0 59 -27 106t-73.5 74t-104.5 27q-85 0 -144 -60t-59 -147
q0 -85 60 -145t143 -60zM1319 1464h125l-961 -1493h-121zM782 1087q0 -96 -47 -176t-127.5 -126t-173.5 -46q-92 0 -173 46t-129 126.5t-48 175.5q0 73 27 136t75.5 111.5t111.5 75t136 26.5q74 0 136.5 -26.5t110 -73.5t74.5 -112.5t27 -136.5zM434 883q86 0 144.5 58.5
t58.5 145.5q0 58 -26.5 105.5t-72 74.5t-104.5 27q-84 0 -144.5 -59.5t-60.5 -147.5q0 -56 28 -103.5t75.5 -74t101.5 -26.5z" />
    <glyph glyph-name="percent" unicode="&#x202f;" horiz-adv-x="1804" 
d="M1720 348q0 -94 -47.5 -175t-128.5 -127t-174 -46q-92 0 -172.5 46t-128 127t-47.5 175q0 71 26.5 135t76 112.5t110.5 74.5t135 26t137 -26.5t111.5 -74.5t75 -111t26.5 -136zM1370 143q87 0 146 58t59 147q0 59 -27 106t-73.5 74t-104.5 27q-85 0 -144 -60t-59 -147
q0 -85 60 -145t143 -60zM1319 1464h125l-961 -1493h-121zM782 1087q0 -96 -47 -176t-127.5 -126t-173.5 -46q-92 0 -173 46t-129 126.5t-48 175.5q0 73 27 136t75.5 111.5t111.5 75t136 26.5q74 0 136.5 -26.5t110 -73.5t74.5 -112.5t27 -136.5zM434 883q86 0 144.5 58.5
t58.5 145.5q0 58 -26.5 105.5t-72 74.5t-104.5 27q-84 0 -144.5 -59.5t-60.5 -147.5q0 -56 28 -103.5t75.5 -74t101.5 -26.5z" />
    <glyph glyph-name="percent" unicode="&#x202e;" horiz-adv-x="1804" 
d="M1720 348q0 -94 -47.5 -175t-128.5 -127t-174 -46q-92 0 -172.5 46t-128 127t-47.5 175q0 71 26.5 135t76 112.5t110.5 74.5t135 26t137 -26.5t111.5 -74.5t75 -111t26.5 -136zM1370 143q87 0 146 58t59 147q0 59 -27 106t-73.5 74t-104.5 27q-85 0 -144 -60t-59 -147
q0 -85 60 -145t143 -60zM1319 1464h125l-961 -1493h-121zM782 1087q0 -96 -47 -176t-127.5 -126t-173.5 -46q-92 0 -173 46t-129 126.5t-48 175.5q0 73 27 136t75.5 111.5t111.5 75t136 26.5q74 0 136.5 -26.5t110 -73.5t74.5 -112.5t27 -136.5zM434 883q86 0 144.5 58.5
t58.5 145.5q0 58 -26.5 105.5t-72 74.5t-104.5 27q-84 0 -144.5 -59.5t-60.5 -147.5q0 -56 28 -103.5t75.5 -74t101.5 -26.5z" />
    <glyph glyph-name="percent" unicode="&#x202d;" horiz-adv-x="1804" 
d="M1720 348q0 -94 -47.5 -175t-128.5 -127t-174 -46q-92 0 -172.5 46t-128 127t-47.5 175q0 71 26.5 135t76 112.5t110.5 74.5t135 26t137 -26.5t111.5 -74.5t75 -111t26.5 -136zM1370 143q87 0 146 58t59 147q0 59 -27 106t-73.5 74t-104.5 27q-85 0 -144 -60t-59 -147
q0 -85 60 -145t143 -60zM1319 1464h125l-961 -1493h-121zM782 1087q0 -96 -47 -176t-127.5 -126t-173.5 -46q-92 0 -173 46t-129 126.5t-48 175.5q0 73 27 136t75.5 111.5t111.5 75t136 26.5q74 0 136.5 -26.5t110 -73.5t74.5 -112.5t27 -136.5zM434 883q86 0 144.5 58.5
t58.5 145.5q0 58 -26.5 105.5t-72 74.5t-104.5 27q-84 0 -144.5 -59.5t-60.5 -147.5q0 -56 28 -103.5t75.5 -74t101.5 -26.5z" />
    <glyph glyph-name="percent" unicode="&#x202c;" horiz-adv-x="1804" 
d="M1720 348q0 -94 -47.5 -175t-128.5 -127t-174 -46q-92 0 -172.5 46t-128 127t-47.5 175q0 71 26.5 135t76 112.5t110.5 74.5t135 26t137 -26.5t111.5 -74.5t75 -111t26.5 -136zM1370 143q87 0 146 58t59 147q0 59 -27 106t-73.5 74t-104.5 27q-85 0 -144 -60t-59 -147
q0 -85 60 -145t143 -60zM1319 1464h125l-961 -1493h-121zM782 1087q0 -96 -47 -176t-127.5 -126t-173.5 -46q-92 0 -173 46t-129 126.5t-48 175.5q0 73 27 136t75.5 111.5t111.5 75t136 26.5q74 0 136.5 -26.5t110 -73.5t74.5 -112.5t27 -136.5zM434 883q86 0 144.5 58.5
t58.5 145.5q0 58 -26.5 105.5t-72 74.5t-104.5 27q-84 0 -144.5 -59.5t-60.5 -147.5q0 -56 28 -103.5t75.5 -74t101.5 -26.5z" />
    <glyph glyph-name="percent" unicode="&#x202b;" horiz-adv-x="1804" 
d="M1720 348q0 -94 -47.5 -175t-128.5 -127t-174 -46q-92 0 -172.5 46t-128 127t-47.5 175q0 71 26.5 135t76 112.5t110.5 74.5t135 26t137 -26.5t111.5 -74.5t75 -111t26.5 -136zM1370 143q87 0 146 58t59 147q0 59 -27 106t-73.5 74t-104.5 27q-85 0 -144 -60t-59 -147
q0 -85 60 -145t143 -60zM1319 1464h125l-961 -1493h-121zM782 1087q0 -96 -47 -176t-127.5 -126t-173.5 -46q-92 0 -173 46t-129 126.5t-48 175.5q0 73 27 136t75.5 111.5t111.5 75t136 26.5q74 0 136.5 -26.5t110 -73.5t74.5 -112.5t27 -136.5zM434 883q86 0 144.5 58.5
t58.5 145.5q0 58 -26.5 105.5t-72 74.5t-104.5 27q-84 0 -144.5 -59.5t-60.5 -147.5q0 -56 28 -103.5t75.5 -74t101.5 -26.5z" />
    <glyph glyph-name="percent" unicode="&#x202a;" horiz-adv-x="1804" 
d="M1720 348q0 -94 -47.5 -175t-128.5 -127t-174 -46q-92 0 -172.5 46t-128 127t-47.5 175q0 71 26.5 135t76 112.5t110.5 74.5t135 26t137 -26.5t111.5 -74.5t75 -111t26.5 -136zM1370 143q87 0 146 58t59 147q0 59 -27 106t-73.5 74t-104.5 27q-85 0 -144 -60t-59 -147
q0 -85 60 -145t143 -60zM1319 1464h125l-961 -1493h-121zM782 1087q0 -96 -47 -176t-127.5 -126t-173.5 -46q-92 0 -173 46t-129 126.5t-48 175.5q0 73 27 136t75.5 111.5t111.5 75t136 26.5q74 0 136.5 -26.5t110 -73.5t74.5 -112.5t27 -136.5zM434 883q86 0 144.5 58.5
t58.5 145.5q0 58 -26.5 105.5t-72 74.5t-104.5 27q-84 0 -144.5 -59.5t-60.5 -147.5q0 -56 28 -103.5t75.5 -74t101.5 -26.5z" />
    <glyph glyph-name="percent" unicode="&#x2029;" horiz-adv-x="1804" 
d="M1720 348q0 -94 -47.5 -175t-128.5 -127t-174 -46q-92 0 -172.5 46t-128 127t-47.5 175q0 71 26.5 135t76 112.5t110.5 74.5t135 26t137 -26.5t111.5 -74.5t75 -111t26.5 -136zM1370 143q87 0 146 58t59 147q0 59 -27 106t-73.5 74t-104.5 27q-85 0 -144 -60t-59 -147
q0 -85 60 -145t143 -60zM1319 1464h125l-961 -1493h-121zM782 1087q0 -96 -47 -176t-127.5 -126t-173.5 -46q-92 0 -173 46t-129 126.5t-48 175.5q0 73 27 136t75.5 111.5t111.5 75t136 26.5q74 0 136.5 -26.5t110 -73.5t74.5 -112.5t27 -136.5zM434 883q86 0 144.5 58.5
t58.5 145.5q0 58 -26.5 105.5t-72 74.5t-104.5 27q-84 0 -144.5 -59.5t-60.5 -147.5q0 -56 28 -103.5t75.5 -74t101.5 -26.5z" />
    <glyph glyph-name="percent" unicode="&#x2028;" horiz-adv-x="1804" 
d="M1720 348q0 -94 -47.5 -175t-128.5 -127t-174 -46q-92 0 -172.5 46t-128 127t-47.5 175q0 71 26.5 135t76 112.5t110.5 74.5t135 26t137 -26.5t111.5 -74.5t75 -111t26.5 -136zM1370 143q87 0 146 58t59 147q0 59 -27 106t-73.5 74t-104.5 27q-85 0 -144 -60t-59 -147
q0 -85 60 -145t143 -60zM1319 1464h125l-961 -1493h-121zM782 1087q0 -96 -47 -176t-127.5 -126t-173.5 -46q-92 0 -173 46t-129 126.5t-48 175.5q0 73 27 136t75.5 111.5t111.5 75t136 26.5q74 0 136.5 -26.5t110 -73.5t74.5 -112.5t27 -136.5zM434 883q86 0 144.5 58.5
t58.5 145.5q0 58 -26.5 105.5t-72 74.5t-104.5 27q-84 0 -144.5 -59.5t-60.5 -147.5q0 -56 28 -103.5t75.5 -74t101.5 -26.5z" />
    <glyph glyph-name="percent" unicode="&#x2027;" horiz-adv-x="1804" 
d="M1720 348q0 -94 -47.5 -175t-128.5 -127t-174 -46q-92 0 -172.5 46t-128 127t-47.5 175q0 71 26.5 135t76 112.5t110.5 74.5t135 26t137 -26.5t111.5 -74.5t75 -111t26.5 -136zM1370 143q87 0 146 58t59 147q0 59 -27 106t-73.5 74t-104.5 27q-85 0 -144 -60t-59 -147
q0 -85 60 -145t143 -60zM1319 1464h125l-961 -1493h-121zM782 1087q0 -96 -47 -176t-127.5 -126t-173.5 -46q-92 0 -173 46t-129 126.5t-48 175.5q0 73 27 136t75.5 111.5t111.5 75t136 26.5q74 0 136.5 -26.5t110 -73.5t74.5 -112.5t27 -136.5zM434 883q86 0 144.5 58.5
t58.5 145.5q0 58 -26.5 105.5t-72 74.5t-104.5 27q-84 0 -144.5 -59.5t-60.5 -147.5q0 -56 28 -103.5t75.5 -74t101.5 -26.5z" />
    <glyph glyph-name="ampersand" unicode="&#x26;" horiz-adv-x="1399" 
d="M831 293l-362 387q-111 -79 -161 -149t-50 -160q0 -69 30.5 -122.5t91 -83.5t138.5 -30q53 0 108.5 17.5t107 52.5t97.5 88zM502 895q70 52 111 97t62 91.5t21 100.5q0 83 -47.5 134.5t-118.5 51.5q-79 0 -127.5 -47.5t-48.5 -126.5q0 -74 35.5 -143.5t112.5 -157.5z
M1370 0h-266l-172 184q-113 -116 -220 -164.5t-249 -48.5q-90 0 -164 28t-128.5 79.5t-84 120t-29.5 149.5q0 132 71 235.5t228 219.5q-93 110 -138.5 200.5t-45.5 174.5q0 92 43.5 166.5t121 116.5t181.5 42q77 0 138.5 -23t106.5 -67t69 -105.5t24 -138.5
q0 -200 -262 -385l338 -368q65 85 108 180t64 197h-168v141h434v-141h-123q-61 -255 -221 -482l162 -164h182v-147z" />
    <glyph glyph-name="quotesingle" unicode="'" horiz-adv-x="305" 
d="M211 1434v-553h-117v553h117z" />
    <glyph glyph-name="parenleft" unicode="(" horiz-adv-x="668" 
d="M455 -219q-324 399 -324 860q0 226 82.5 446t241.5 416l123 -92q-132 -177 -199.5 -374.5t-67.5 -395.5q0 -139 31.5 -273t91.5 -258t148 -235z" />
    <glyph glyph-name="parenright" unicode=")" horiz-adv-x="668" 
d="M213 -219l-127 94q133 166 201.5 362t68.5 404q0 202 -66.5 397t-199.5 373l123 92q80 -96 141 -202.5t102 -216.5t61 -219.5t20 -223.5q0 -461 -324 -860z" />
    <glyph glyph-name="asterisk" unicode="*" horiz-adv-x="1024" 
d="M444 1503h146l-15 -264l244 109l51 -138l-268 -84l193 -188l-111 -94l-172 207l-170 -207l-111 94l193 188l-270 84l51 138l250 -109z" />
    <glyph glyph-name="asterisk" horiz-adv-x="1024" 
d="M444 1503h146l-15 -264l244 109l51 -138l-268 -84l193 -188l-111 -94l-172 207l-170 -207l-111 94l193 188l-270 84l51 138l250 -109z" />
    <glyph glyph-name="plus" unicode="+" horiz-adv-x="1706" 
d="M913 1221v-551h539v-117h-539v-553h-118v553h-541v117h541v551h118z" />
    <glyph glyph-name="comma" unicode="," horiz-adv-x="541" 
d="M209 217h186l-139 -434h-176z" />
    <glyph glyph-name="hyphen" unicode="-" horiz-adv-x="631" 
d="M57 397v164h516v-164h-516z" />
    <glyph glyph-name="period" unicode="." horiz-adv-x="541" 
d="M270 -25q-57 0 -96 39t-39 95q0 57 39 96t96 39q56 0 96 -40t40 -95q0 -54 -40 -94t-96 -40z" />
    <glyph glyph-name="slash" unicode="/" horiz-adv-x="627" 
d="M674 1503l-504 -1693h-115l504 1693h115z" />
    <glyph glyph-name="zero" unicode="0" horiz-adv-x="1081" 
d="M281 541q0 -91 6.5 -153.5t29.5 -108.5q34 -67 91 -103.5t131 -36.5t132.5 37t90.5 103q24 47 30.5 103.5t6.5 158.5v356q0 166 -25 233q-17 49 -53 88t-82 59.5t-100 20.5q-73 0 -130 -37t-92 -104q-23 -44 -29.5 -106.5t-6.5 -153.5v-356zM100 537v364q0 128 10.5 206
t53.5 150q122 207 377 207q258 0 377 -207q39 -66 50 -137.5t11 -175.5v-455q0 -88 -7 -147t-34 -119q-34 -77 -92 -134.5t-135 -87.5t-170 -30q-82 0 -153.5 24t-127 70.5t-96.5 114.5q-29 49 -43.5 106t-17.5 110.5t-3 140.5z" />
    <glyph glyph-name="one" unicode="1" horiz-adv-x="1081" 
d="M276 0v145h183v1147h-183v146h363v-1293h182v-145h-545z" />
    <glyph glyph-name="two" unicode="2" horiz-adv-x="1081" 
d="M119 907q-4 54 -4 78q0 233 118 357t336 124q120 0 212.5 -48.5t144 -135t51.5 -197.5q0 -183 -156 -360l-502 -578h498v261h178v-408h-886v137l573 684q109 127 109 271q0 65 -29 113.5t-83.5 74t-127.5 25.5q-260 0 -260 -324q0 -47 2 -74h-174z" />
    <glyph glyph-name="three" unicode="3" horiz-adv-x="1081" 
d="M262 453q4 -154 75.5 -237t201.5 -83q74 0 132 34.5t91 96t33 135.5q0 64 -21 114t-60.5 84.5t-97 52.5t-131.5 18h-6v141h6q90 0 157.5 32.5t102.5 90.5t35 133t-27.5 129.5t-80 82.5t-121.5 28q-141 0 -208 -81t-67 -251v-17h-167v27q0 149 53.5 258.5t153.5 166
t235 56.5q125 0 218 -49.5t142.5 -139.5t49.5 -206q0 -118 -57 -199t-169 -122q76 -18 131 -66t84 -121t29 -164q0 -123 -56.5 -220.5t-159.5 -151.5t-237 -54q-130 0 -229 55.5t-152 155t-53 221.5q0 29 2 50h168z" />
    <glyph glyph-name="four" unicode="4" horiz-adv-x="1081" 
d="M434 0v145h205v242h-563v139l581 910h156v-910h178v-139h-178v-242h178v-145h-557zM639 526v416q0 101 18 215l-405 -631h387z" />
    <glyph glyph-name="five" unicode="5" horiz-adv-x="1081" 
d="M274 428v-10q0 -87 32 -152t91 -99t131 -34q127 0 202 85.5t75 236.5q0 317 -375 317q-81 0 -227 -20v684h665v-148h-499v-362q51 2 110 2q241 0 373.5 -126.5t132.5 -348.5q0 -142 -56 -252t-158.5 -170t-233.5 -60t-229.5 55t-152 157.5t-53.5 240.5v4h172z" />
    <glyph glyph-name="six" unicode="6" horiz-adv-x="1081" 
d="M563 129q112 0 184 79t72 216q0 92 -33.5 157.5t-92.5 100.5t-130 35q-70 0 -129 -35t-92 -100.5t-33 -157.5q0 -136 71.5 -215.5t182.5 -79.5zM811 1067q-30 238 -248 238q-108 0 -163 -41.5t-75 -121.5t-20 -216v-164q111 108 277 108q117 0 212.5 -57.5t150 -159.5
t54.5 -227q0 -128 -54.5 -233t-153 -163.5t-222.5 -58.5q-133 0 -234 59.5t-155.5 170t-54.5 262.5v528q0 148 52.5 255t152.5 162.5t239 55.5q118 0 212 -49t146 -138.5t52 -201.5v-8h-168z" />
    <glyph glyph-name="seven" unicode="7" horiz-adv-x="1081" 
d="M258 0l553 1286h-522v-264h-172v414h884v-131l-548 -1305h-195z" />
    <glyph glyph-name="eight" unicode="8" horiz-adv-x="1081" 
d="M541 807q102 0 172.5 71.5t70.5 178.5q0 70 -32.5 128.5t-87.5 91t-123 32.5q-104 0 -174 -72t-70 -180q0 -106 72 -178t172 -72zM344 741q-106 44 -163.5 130.5t-57.5 197.5q0 88 30.5 160t89.5 127t133.5 82.5t164.5 27.5t165 -27.5t131.5 -80t88.5 -126.5t32 -161
q0 -74 -26 -139t-76 -114t-119 -77q74 -30 129 -84t84 -125t29 -151q0 -115 -55.5 -208.5t-156 -147.5t-226.5 -54q-129 0 -229.5 54t-156 147.5t-55.5 208.5q0 120 67 218.5t177 141.5zM541 133q112 0 186 75t74 185q0 71 -35 132t-94 94.5t-131 33.5q-110 0 -185 -76
t-75 -184q0 -110 74 -185t186 -75z" />
    <glyph glyph-name="nine" unicode="9" horiz-adv-x="1081" 
d="M518 1307q-110 0 -183 -79t-73 -216t73.5 -215t182.5 -78q72 0 130 34.5t91 101t33 157.5t-33 158t-90.5 102t-130.5 35zM262 369q18 -125 77.5 -182.5t176.5 -57.5q145 0 201.5 90.5t56.5 290.5v164q-55 -53 -123.5 -81t-150.5 -28q-118 0 -214.5 58t-151 160t-54.5 227
q0 99 31.5 181.5t90 144.5t138.5 95t172 33q103 0 184.5 -34t139 -97.5t88 -155.5t30.5 -204v-531q0 -110 -29.5 -198t-85.5 -149t-140 -92.5t-187 -31.5q-123 0 -219 49.5t-148.5 140t-52.5 204.5v4h170z" />
    <glyph glyph-name="colon" unicode=":" horiz-adv-x="541" 
d="M270 696q-57 0 -96 38t-39 93q0 58 39 97t96 39q56 0 96 -40t40 -96q0 -54 -40 -92.5t-96 -38.5zM270 -25q-57 0 -96 39t-39 95q0 57 39 96t96 39q56 0 96 -40t40 -95q0 -54 -40 -94t-96 -40z" />
    <glyph glyph-name="semicolon" unicode=";" horiz-adv-x="653" 
d="M244 217h184l-137 -434h-176zM346 696q-58 0 -96.5 37.5t-38.5 93.5q0 58 38 97t97 39q57 0 96 -40t39 -96q0 -54 -39.5 -92.5t-95.5 -38.5z" />
    <glyph glyph-name="less" unicode="&#x3c;" horiz-adv-x="1706" 
d="M1442 1018l-1000 -408l1000 -405v-129l-1178 483v103l1178 483v-127z" />
    <glyph glyph-name="equal" unicode="=" horiz-adv-x="1706" 
d="M1452 860v-117h-1198v117h1198zM1452 477v-117h-1198v117h1198z" />
    <glyph glyph-name="greater" unicode="&#x3e;" horiz-adv-x="1706" 
d="M1442 662v-103l-1178 -483v129l1000 405l-1000 408v127z" />
    <glyph glyph-name="question" unicode="?" horiz-adv-x="1108" 
d="M516 -25q-57 0 -95 39t-38 95q0 58 37.5 96.5t95.5 38.5q57 0 96 -40t39 -95q0 -54 -39 -94t-96 -40zM442 362v484q31 -2 66 -2q126 0 199 70t73 186q0 113 -61 177t-170 64q-111 0 -169.5 -61.5t-70.5 -189.5h-166q1 194 109 303.5t297 109.5q129 0 222.5 -48
t142.5 -136t49 -207q0 -113 -42.5 -203t-121.5 -145.5t-185 -67.5v-334h-172z" />
    <glyph glyph-name="at" unicode="@" horiz-adv-x="2048" 
d="M1202 473l60 242q-16 89 -71.5 139.5t-135.5 50.5q-96 0 -174.5 -60.5t-123 -166t-44.5 -232.5q0 -110 52 -169.5t144 -59.5q101 0 183 70t110 186zM1292 844l58 121h110l-141 -568q-12 -48 -12 -80q0 -90 110 -90q44 0 98 23t105 65q88 76 139 195.5t51 255.5
q0 173 -87.5 307.5t-250.5 208.5t-376 74q-338 0 -572 -205q-140 -122 -211 -284t-71 -353q0 -118 26 -212.5t81 -174.5t140 -147q65 -52 150.5 -90.5t182.5 -58t202 -19.5q172 0 334.5 48.5t296.5 139.5l45 -66q-296 -221 -660 -221q-385 0 -624 185q-152 117 -227.5 272
t-75.5 352q0 331 200 578q73 88 159 154t189 112.5t217.5 69t237.5 22.5q110 0 213 -19.5t192.5 -58.5t153.5 -90q129 -99 195.5 -229.5t66.5 -282.5q0 -171 -63 -310t-182 -235q-143 -112 -312 -112q-198 0 -198 155q1 6 1.5 10.5t0.5 12.5q-103 -178 -297 -178
q-154 0 -234 85.5t-80 246.5q0 154 63 279t172 197t234 72q182 0 250 -157z" />
    <glyph glyph-name="A" unicode="A" horiz-adv-x="1360" 
d="M477 147v-147h-502v147h138l419 1180h-180v148h672v-148h-182l401 -1180h141v-147h-524v147h176l-116 351h-504l-117 -351h178zM461 645h422l-176 514q-28 78 -35 133q-9 -52 -35 -133z" />
    <glyph glyph-name="B" unicode="B" horiz-adv-x="1237" 
d="M53 0v147h162v1180h-162v148h512q166 0 278.5 -41.5t169 -124t56.5 -201.5q0 -114 -68 -197.5t-194 -115.5q108 -36 180.5 -89t106.5 -123.5t34 -164.5q0 -130 -56 -223.5t-166 -144t-261 -50.5h-592zM410 1327v-481h147q158 0 237.5 61t79.5 180q0 240 -317 240h-147z
M410 713v-566h131q198 0 293.5 65.5t95.5 217.5q0 140 -98 211.5t-291 71.5h-131z" />
    <glyph glyph-name="C" unicode="C" horiz-adv-x="1536" 
d="M1454 465q-29 -116 -86 -208t-139 -155t-188.5 -97t-227.5 -34q-160 0 -299 57t-240.5 161.5t-156 244.5t-54.5 303q0 159 54 300.5t154 246t235 162t293 57.5q90 0 175 -19t152 -55.5t117 -91.5v138h160v-457h-152q-33 105 -93 174.5t-146 104t-201 34.5
q-164 0 -288.5 -73.5t-191.5 -207.5t-67 -313q0 -175 70.5 -309.5t198.5 -209.5t288 -75q326 0 451 322h182z" />
    <glyph glyph-name="D" unicode="D" horiz-adv-x="1497" 
d="M55 0v147h160v1180h-160v148h545q201 0 356 -49.5t260 -145t159.5 -232.5t54.5 -311q0 -231 -95.5 -396.5t-281 -253t-453.5 -87.5h-545zM410 1327v-1180h184q309 0 472 153t163 437t-163 437t-472 153h-184z" />
    <glyph glyph-name="E" unicode="E" horiz-adv-x="1255" 
d="M55 0v147h160v1180h-160v148h1141v-400h-174v252h-612v-469h512v-162h-512v-549h612v289h174v-436h-1141z" />
    <glyph glyph-name="F" unicode="F" horiz-adv-x="1165" 
d="M55 0v147h160v1180h-160v148h1141v-400h-174v252h-612v-469h501v-162h-501v-549h208v-147h-563z" />
    <glyph glyph-name="G" unicode="G" horiz-adv-x="1692" 
d="M1473 0h-166v160q-72 -65 -147.5 -107t-157.5 -62t-173 -20q-218 0 -391.5 101t-270.5 277t-97 388q0 213 97 389t271 276.5t391 100.5q130 0 242.5 -45.5t202.5 -132.5v150h162v-510h-133q-36 118 -102 200.5t-160 124t-212 41.5q-154 0 -282.5 -74.5t-203.5 -210.5
t-75 -309q0 -171 75 -307t204 -211.5t282 -75.5q182 0 303 91t175 266h-369v159h698v-159h-163v-500z" />
    <glyph glyph-name="H" unicode="H" horiz-adv-x="1487" 
d="M1075 840v487h-160v148h517v-148h-162v-1180h162v-147h-517v147h160v527h-665v-527h161v-147h-516v147h160v1180h-160v148h516v-148h-161v-487h665z" />
    <glyph glyph-name="I" unicode="I" horiz-adv-x="627" 
d="M410 147h161v-147h-516v147h160v1180h-160v148h516v-148h-161v-1180z" />
    <glyph glyph-name="J" unicode="J" horiz-adv-x="635" 
d="M-6 -236v173q12 0 29.5 -1t31.5 -2q73 0 110 21t48.5 65.5t11.5 126.5v1180h-200v148h579v-148h-184v-1180q0 -98 -19 -169.5t-60.5 -119t-107 -71t-153.5 -23.5h-86z" />
    <glyph glyph-name="K" unicode="K" horiz-adv-x="1300" 
d="M410 147h161v-147h-516v147h160v1180h-160v148h516v-148h-161v-559l514 559h-154v148h516v-148h-135l-528 -567l544 -613h146v-147h-539v147h148l-512 580v-580z" />
    <glyph glyph-name="L" unicode="L" horiz-adv-x="1116" 
d="M55 0v147h160v1180h-160v148h541v-148h-186v-1180h493v289h174v-436h-1022z" />
    <glyph glyph-name="M" unicode="M" horiz-adv-x="1796" 
d="M403 147h160v-147h-508v147h166v1180h-166v148h475l377 -1041l387 1041h447v-148h-166v-1180h166v-147h-508v147h160v1141l-437 -1149h-116l-437 1149v-1141z" />
    <glyph glyph-name="N" unicode="N" horiz-adv-x="1473" 
d="M414 147h161v-147h-509v147h165v1180h-165v148h368l623 -1074v926h-162v148h510v-148h-166v-1356h-147l-678 1164v-988z" />
    <glyph glyph-name="O" unicode="O" horiz-adv-x="1659" 
d="M268 737q0 -172 74.5 -308t202.5 -211t284 -75q154 0 284 75.5t204 210.5t74 308q0 172 -75 308.5t-203 211t-284 74.5q-154 0 -282.5 -74.5t-203.5 -210.5t-75 -309zM70 737q0 159 56.5 300t160 246t242.5 162.5t300 57.5q255 0 449 -141q100 -72 170.5 -169
t106.5 -212.5t36 -243.5q0 -209 -99 -386t-273 -278.5t-390 -101.5q-214 0 -388 101t-272.5 276.5t-98.5 388.5z" />
    <glyph glyph-name="P" unicode="P" horiz-adv-x="1190" 
d="M410 1331v-626h178q191 0 287 78.5t96 234.5q0 313 -412 313h-149zM410 147h180v-147h-535v147h160v1180h-160v148h553q141 0 246 -30t175.5 -89t106 -144.5t35.5 -195.5q0 -214 -147 -336.5t-416 -122.5h-198v-410z" />
    <glyph glyph-name="Q" unicode="Q" horiz-adv-x="1659" 
d="M1085 201q151 84 228.5 220t77.5 316q0 172 -75 308.5t-203 211t-284 74.5q-154 0 -282.5 -74.5t-203.5 -210.5t-75 -309q0 -171 75 -307t204 -211.5t282 -75.5q14 0 91 7l-80 165l151 78zM1161 43l64 -119h227v-176h-338l-117 240q-113 -17 -184 -17q-280 0 -489 187
q-123 110 -188.5 259t-65.5 320q0 160 56.5 301t159 245t242.5 162t301 58q255 0 449 -141q100 -72 170.5 -169t106.5 -212.5t36 -243.5q0 -148 -49 -280t-147 -238t-234 -176z" />
    <glyph glyph-name="R" unicode="R" horiz-adv-x="1323" 
d="M410 1327v-485h211q187 0 273.5 57t86.5 186q0 133 -83 187.5t-277 54.5h-211zM410 147h161v-147h-516v147h160v1180h-160v148h631q169 0 278.5 -39t163.5 -121t54 -209q0 -124 -60.5 -204.5t-191.5 -139.5q81 -24 122.5 -64t55.5 -101t14 -163v-287h162v-147h-356v406
q0 110 -20 170.5t-80 89t-181 28.5h-237v-547z" />
    <glyph glyph-name="S" unicode="S" horiz-adv-x="1360" 
d="M328 160v-160h-166v506h166q45 -174 158 -269.5t270 -95.5q78 0 142 34t101 92.5t37 131.5q0 99 -67 158t-215 98l-154 41q-143 39 -237 94.5t-138.5 133t-44.5 182.5q0 89 32 162.5t91.5 126.5t141 80.5t180.5 27.5q245 0 360 -157v129h143v-424h-143
q-38 139 -134 212.5t-239 73.5q-113 0 -184.5 -60.5t-71.5 -156.5q0 -67 30.5 -110t88.5 -69.5t156 -51.5l119 -31q246 -61 364.5 -165.5t118.5 -282.5q0 -124 -62.5 -224t-174.5 -157.5t-251 -57.5q-118 0 -233 51.5t-184 137.5z" />
    <glyph glyph-name="T" unicode="T" horiz-adv-x="1186" 
d="M690 147h162v-147h-518v147h162v1180h-281v-264h-166v412h1086v-412h-166v264h-279v-1180z" />
    <glyph glyph-name="U" unicode="U" horiz-adv-x="1456" 
d="M414 516q0 -128 28.5 -210.5t97.5 -123.5t187 -41t187.5 41t98.5 122.5t29 211.5v811h-161v148h518v-148h-162v-811q0 -273 -125.5 -409t-384.5 -136q-258 0 -383 136.5t-125 408.5v811h-162v148h516v-148h-159v-811z" />
    <glyph glyph-name="V" unicode="V" horiz-adv-x="1341" 
d="M608 -25l-438 1352h-143v148h489v-148h-147l303 -965l315 965h-162v148h490v-148h-144l-446 -1352h-117z" />
    <glyph glyph-name="W" unicode="W" horiz-adv-x="1933" 
d="M651 -25h-129l-401 1352h-127v148h475v-148h-158l291 -979l295 979h-168v148h496v-148h-170l297 -979l290 979h-157v148h454v-148h-127l-401 -1352h-127l-317 1059z" />
    <glyph glyph-name="X" unicode="X" horiz-adv-x="1341" 
d="M672 588l-281 -441h172v-147h-528v147h162l383 590l-381 590h-156v148h530v-148h-149l260 -420l283 420h-187v148h535v-148h-148l-387 -582l381 -598h154v-147h-547v147h178z" />
    <glyph glyph-name="Y" unicode="Y" horiz-adv-x="1343" 
d="M770 147h162v-147h-516v147h159v512l-387 668h-155v148h518v-148h-148l275 -489l287 489h-146v148h496v-148h-158l-387 -668v-512z" />
    <glyph glyph-name="Z" unicode="Z" horiz-adv-x="1327" 
d="M1016 147v304h166v-451h-1037v147l801 1180h-612v-254h-166v402h1014v-148l-807 -1180h641z" />
    <glyph glyph-name="bracketleft" unicode="[" horiz-adv-x="688" 
d="M205 -176v1651h424v-144h-248v-1366h248v-141h-424z" />
    <glyph glyph-name="backslash" unicode="\" horiz-adv-x="627" 
d="M508 -190l-504 1693h115l504 -1693h-115z" />
    <glyph glyph-name="bracketright" unicode="]" horiz-adv-x="688" 
d="M483 -176h-426v141h250v1366h-250v144h426v-1651z" />
    <glyph glyph-name="asciicircum" unicode="^" horiz-adv-x="2048" 
d="M1104 1458l520 -557h-158l-442 438l-442 -438h-160l520 557h162z" />
    <glyph glyph-name="underscore" unicode="_" horiz-adv-x="1024" 
d="M1024 -365v-118h-1024v118h1024z" />
    <glyph glyph-name="grave" unicode="`" horiz-adv-x="1024" 
d="M649 1075h-106l-281 348h178z" />
    <glyph glyph-name="a" unicode="a" horiz-adv-x="1262" 
d="M1049 141h143v-141h-320v123q-117 -146 -331 -146q-135 0 -245 64.5t-173.5 177.5t-63.5 250q0 135 63 249t174 179.5t245 65.5q204 0 331 -148v123h320v-141h-143v-656zM244 469q0 -151 92.5 -248.5t228.5 -97.5q87 0 160.5 43.5t116.5 122.5t43 180t-42.5 179.5
t-116.5 121.5t-161 43q-94 0 -167 -44t-113.5 -122t-40.5 -178z" />
    <glyph glyph-name="b" unicode="b" horiz-adv-x="1251" 
d="M59 1331v144h320v-650q134 138 332 138q134 0 244.5 -65t173.5 -179.5t63 -249.5q0 -138 -63 -250t-176 -177t-255 -65q-99 0 -175 32.5t-144 103.5v-113h-320v141h144v1190h-144zM367 469q0 -99 42.5 -178.5t116.5 -123.5t160 -44q87 0 161.5 44t117.5 123t43 179
t-41 178t-114 122t-167 44q-89 0 -162 -43t-115 -122t-42 -179z" />
    <glyph glyph-name="c" unicode="c" horiz-adv-x="1006" 
d="M854 272l94 -92q-78 -101 -185 -153t-239 -52q-106 0 -191 34.5t-147 99t-94.5 155.5t-32.5 201q0 149 56 262t157.5 174.5t231.5 61.5q93 0 162 -28t125 -87v90h137v-324h-125q-80 203 -281 203q-125 0 -203.5 -95t-78.5 -257q0 -159 83 -250.5t232 -91.5q171 0 299 149
z" />
    <glyph glyph-name="d" unicode="d" horiz-adv-x="1251" 
d="M244 469q0 -151 92.5 -248.5t228.5 -97.5q87 0 160.5 43.5t116.5 122.5t43 180t-42.5 179.5t-116.5 121.5t-161 43q-94 0 -167 -44t-113.5 -122t-40.5 -178zM872 1331h-157v144h334v-1334h143v-141h-320v113q-69 -72 -144.5 -104t-174.5 -32q-142 0 -255 65t-176 177
t-63 250q0 135 62.5 249t173.5 179.5t246 65.5q66 0 125 -14.5t110 -45.5t96 -78v506z" />
    <glyph glyph-name="e" unicode="e" horiz-adv-x="1114" 
d="M1032 279q-43 -94 -113.5 -162t-164.5 -105t-199 -37q-109 0 -199.5 34.5t-157.5 101t-103 161t-36 207.5q0 144 61 254t174.5 170t262.5 60q147 0 259.5 -63.5t175.5 -183.5t63 -276v-22h-813q11 -134 104.5 -214.5t233.5 -80.5q88 0 164.5 41t123.5 115h164zM242 555
h630q-20 129 -101 196.5t-214 67.5t-214.5 -67.5t-100.5 -196.5z" />
    <glyph glyph-name="f" unicode="f" horiz-adv-x="621" 
d="M575 0h-522v141h160v656h-160v141h160v154q0 133 28 216.5t92 125t171 41.5q39 0 71 -2v-132h-43q-64 0 -94.5 -24t-39.5 -70t-9 -135v-174h186v-141h-186v-656h186v-141z" />
    <glyph glyph-name="g" unicode="g" horiz-adv-x="1247" 
d="M244 469q0 -151 92.5 -248.5t228.5 -97.5q87 0 160.5 43.5t116.5 122.5t43 180t-42.5 179.5t-116.5 121.5t-161 43q-94 0 -167 -44t-113.5 -122t-40.5 -178zM1049 145v-34q0 -90 -2.5 -142.5t-13 -101t-32.5 -90.5q-27 -48 -66.5 -85t-95.5 -64t-123 -41.5t-143 -14.5
q-175 0 -295 75.5t-167 217.5h186q62 -146 274 -146q110 0 177 32t95.5 98t28.5 171v93q-69 -72 -144.5 -104t-174.5 -32q-142 0 -255 65t-176 177t-63 250q0 135 62.5 249t173.5 179.5t246 65.5q66 0 125 -14.5t110 -45.5t96 -78v113h320v-141h-143v-652z" />
    <glyph glyph-name="h" unicode="h" horiz-adv-x="1190" 
d="M1020 141h143v-141h-465v141h146v422q0 128 -29.5 184t-136.5 56q-145 0 -295 -160v-502h145v-141h-465v141h144v1190h-144v144h320v-670q85 82 167 120t175 38q165 0 246 -111q32 -43 40.5 -88t8.5 -119v-504z" />
    <glyph glyph-name="i" unicode="i" horiz-adv-x="567" 
d="M387 141h164v-141h-500v141h162v656h-162v141h336v-797zM225 1135v143h144v-143h-144z" />
    <glyph glyph-name="j" unicode="j" horiz-adv-x="516" 
d="M387 29q0 -122 -16 -204t-57 -137.5t-116.5 -83t-191.5 -30.5v154q91 0 134.5 29.5t57 90.5t13.5 181v768h-162v141h338v-909zM133 1171v189h254v-189h-254z" />
    <glyph glyph-name="k" unicode="k" horiz-adv-x="1067" 
d="M207 1331h-144v144h314v-959l352 281h-129v141h444v-141h-102l-367 -297l359 -359h110v-141h-436v141h115l-346 342v-342h121v-141h-435v141h144v1190z" />
    <glyph glyph-name="l" unicode="l" horiz-adv-x="573" 
d="M207 1331h-162v144h338v-1334h162v-141h-500v141h162v1190z" />
    <glyph glyph-name="m" unicode="m" horiz-adv-x="1747" 
d="M387 805q60 58 98 87.5t93.5 50t130.5 20.5q204 0 247 -172q85 89 160.5 130.5t165.5 41.5q157 0 225 -82t68 -254v-486h145v-141h-460v141h141v422q0 130 -29 186t-125 56q-79 0 -147.5 -43.5t-118.5 -126.5v-494h145v-141h-464v141h145v422q0 127 -28.5 183.5
t-116.5 56.5q-140 0 -275 -160v-502h141v-141h-460v141h145v656h-145v141h319v-133z" />
    <glyph glyph-name="n" unicode="n" horiz-adv-x="1194" 
d="M1024 141h143v-141h-462v141h143v422q0 128 -29.5 184t-136.5 56q-145 0 -295 -160v-502h145v-141h-464v141h145v656h-145v141h319v-133q85 82 167 120t175 38q167 0 248 -111q30 -37 38.5 -80t8.5 -110v-521z" />
    <glyph glyph-name="o" unicode="o" horiz-adv-x="1147" 
d="M242 471q0 -100 44 -178.5t120.5 -123t166.5 -44.5q92 0 167.5 43t120 121.5t44.5 181.5t-44.5 181.5t-120 121.5t-167.5 43q-90 0 -166.5 -44.5t-120.5 -123t-44 -178.5zM59 471q0 102 38.5 193t109 158.5t163 104t203.5 36.5q112 0 205 -37t163 -104.5t108 -157
t38 -193.5q0 -136 -66.5 -249.5t-184.5 -179t-263 -65.5t-263 65.5t-184.5 179t-66.5 249.5z" />
    <glyph glyph-name="p" unicode="p" horiz-adv-x="1223" 
d="M174 797h-143v141h319v-113q134 138 334 138q104 0 192.5 -38t152 -104.5t99 -156t35.5 -195.5q0 -104 -35.5 -193t-101 -156t-157.5 -105t-197 -38q-69 0 -124 14t-103 43.5t-95 78.5v-398h154v-141h-473v141h143v1082zM979 469q0 100 -42.5 178.5t-115.5 122t-162 43.5
t-162 -43t-115 -122t-42 -179t42.5 -179.5t115.5 -123t161 -43.5q90 0 162.5 43.5t115 123t42.5 179.5z" />
    <glyph glyph-name="q" unicode="q" horiz-adv-x="1262" 
d="M244 469q0 -151 92.5 -248.5t228.5 -97.5q87 0 160.5 43.5t116.5 122.5t43 180t-42.5 179.5t-116.5 121.5t-161 43q-94 0 -167 -44t-113.5 -122t-40.5 -178zM1049 797v-1082h143v-141h-473v141h153v398q-69 -72 -144.5 -104t-174.5 -32q-142 0 -255 65t-176 177t-63 250
q0 135 62.5 249t173.5 179.5t246 65.5q66 0 125 -14.5t110 -45.5t96 -78v113h320v-141h-143z" />
    <glyph glyph-name="r" unicode="r" horiz-adv-x="737" 
d="M387 791q53 92 126 133t185 41q13 0 22 -0.5t19 -1.5v-158h-49q-142 0 -222.5 -74.5t-80.5 -212.5v-377h145v-141h-464v141h145v656h-145v141h319v-147z" />
    <glyph glyph-name="s" unicode="s" horiz-adv-x="973" 
d="M223 0h-137v305h137q39 -89 126 -139.5t196 -50.5q93 0 149 38t56 101q0 52 -34.5 78.5t-107.5 38.5l-221 39q-153 26 -225 93t-72 185q0 126 91.5 200.5t254.5 74.5q66 0 124.5 -14t98 -38t58.5 -53v80h139v-289h-139q-49 96 -116 140.5t-167 44.5q-56 0 -98 -17.5
t-64 -49t-22 -69.5q0 -94 153 -120l193 -33q109 -19 176.5 -48.5t102 -83t34.5 -137.5q0 -68 -26.5 -123t-73.5 -94.5t-115.5 -61.5t-148.5 -22q-185 0 -322 119v-94z" />
    <glyph glyph-name="t" unicode="t" horiz-adv-x="588" 
d="M340 332v-31q0 -77 6 -106t27.5 -41.5t75.5 -12.5q14 0 75 11v-150q-59 -10 -147 -10q-74 0 -118.5 16.5t-64.5 54.5t-20 109v625h-170v141h170v350h166v-350h184v-141h-184v-465z" />
    <glyph glyph-name="u" unicode="u" horiz-adv-x="1176" 
d="M170 797h-143v141h319v-563q0 -85 10 -134.5t46.5 -77.5t109.5 -28q76 0 147.5 40t147.5 120v502h-145v141h321v-795h143v-143h-319v135q-165 -160 -342 -160q-81 0 -135.5 21t-91 65t-52.5 105.5t-16 146.5v484z" />
    <glyph glyph-name="v" unicode="v" horiz-adv-x="985" 
d="M420 -25l-324 822h-106v141h422v-141h-138l226 -572l229 572h-141v141h409v-141h-108l-324 -822h-145z" />
    <glyph glyph-name="w" unicode="w" horiz-adv-x="1501" 
d="M973 938v-141h-137l221 -535l200 535h-135v141h408v-141h-115l-303 -822h-100l-252 598l-250 -598h-100l-304 822h-114v141h422v-141h-133l198 -535l221 535h-135v141h408z" />
    <glyph glyph-name="x" unicode="x" horiz-adv-x="1024" 
d="M408 0h-404v141h125l281 328l-275 328h-117v141h433v-141h-115l188 -222l183 222h-99v141h402v-141h-123l-283 -318l295 -338h119v-141h-443v141h117l-194 228l-197 -228h107v-141z" />
    <glyph glyph-name="y" unicode="y" horiz-adv-x="1026" 
d="M592 -426h-490v141h172l144 326l-316 756h-125v141h451v-141h-152l234 -551l244 551h-144v141h432v-141h-124l-486 -1082h160v-141z" />
    <glyph glyph-name="z" unicode="z" horiz-adv-x="995" 
d="M909 0h-807v141l572 656h-398v-172h-151v313h766v-141l-576 -656h443v201h151v-342z" />
    <glyph glyph-name="braceleft" unicode="{" horiz-adv-x="1024" 
d="M858 1350q-11 1 -21 1.5t-24 0.5q-65 0 -107 -13t-63.5 -41.5t-29 -72t-7.5 -117.5v-242q0 -103 -15.5 -167.5t-58 -105.5t-124.5 -63q82 -22 124.5 -63t58 -105t15.5 -167v-242q0 -74 8.5 -118t31.5 -71.5t64.5 -40t108.5 -12.5h39v-125h-35q-181 0 -262 52
q-34 23 -53.5 52.5t-29 66t-13.5 86.5t-4 108v244q0 151 -54 212.5t-190 61.5q-14 0 -23.5 -0.5t-21.5 -1.5v127q16 0 25 -0.5t20 -1.5q136 0 190 62t54 214v244q0 135 18 204t82 109q46 30 108.5 41t153.5 11h35v-127z" />
    <glyph glyph-name="bar" unicode="|" horiz-adv-x="1024" 
d="M575 1565v-2048h-126v2048h126z" />
    <glyph glyph-name="braceright" unicode="}" horiz-adv-x="1024" 
d="M563 1112v-244q0 -101 24 -161.5t76.5 -87.5t145.5 -27q11 1 20 1.5t25 0.5v-127q-11 1 -21 1.5t-24 0.5q-93 0 -145.5 -27t-76.5 -87.5t-24 -161.5v-242q0 -87 -6 -143t-27 -100t-65 -73q-46 -30 -105.5 -39.5t-152.5 -9.5h-41v125q16 0 25 -0.5t20 -1.5
q87 0 131.5 23.5t60 74t15.5 148.5v240q0 103 15.5 167t58 105t124.5 63q-82 22 -124.5 63t-58 105.5t-15.5 167.5v242q0 96 -16 147.5t-62.5 74t-134.5 22.5h-39v125h35q90 0 154 -11t109.5 -41t66 -72t26.5 -98t6 -143z" />
    <glyph glyph-name="asciitilde" unicode="~" horiz-adv-x="1706" 
d="M1530 627q-200 -144 -387 -144q-83 0 -191 35q-70 25 -142.5 50t-130 39t-116.5 14q-88 0 -178.5 -39.5t-206.5 -120.5v133q210 145 387 145q71 0 139 -17t152 -48q41 -15 95.5 -34.5t99.5 -29.5t94 -10q89 0 178 38t207 120v-131z" />
    <glyph glyph-name="Zcaron" horiz-adv-x="1327" 
d="M1016 147v304h166v-451h-1037v147l801 1180h-612v-254h-166v402h1014v-148l-807 -1180h641zM453 1833l174 -244h159l177 244h-95l-159 -168l-162 168h-94z" />
    <glyph glyph-name="ogonek" horiz-adv-x="1024" 
d="M614 0q-135 -123 -135 -223q0 -44 22.5 -63t73.5 -19h80v-129h-77q-114 0 -169 39.5t-55 124.5q0 70 43 128t146 142h71z" />
    <glyph glyph-name="caron" horiz-adv-x="1024" 
d="M348 1341l174 -243h160l176 243h-94l-160 -167l-162 167h-94z" />
    <glyph glyph-name="quotesinglbase" unicode="&#x201a;" horiz-adv-x="432" 
d="M256 -188h-176l117 405h186z" />
    <glyph glyph-name="florin" unicode="&#x192;" horiz-adv-x="1081" 
d="M-6 -217q83 -25 137 -25q69 0 111.5 36.5t67 109t42.5 186.5t45 326l45 334h-233v131h256l31 180q70 403 338 403q118 0 194 -37l-35 -137q-75 29 -135 29q-58 0 -95.5 -28t-61 -87.5t-37.5 -152.5l-27 -170h227v-131h-248l-32 -256q-38 -293 -64 -437t-70.5 -247
t-120 -154t-198.5 -51q-73 0 -178 30z" />
    <glyph glyph-name="quotedblbase" unicode="&#x201e;" horiz-adv-x="868" 
d="M256 -188h-176l117 405h186zM692 -188h-176l117 405h186z" />
    <glyph glyph-name="ellipsis" unicode="&#x2026;" horiz-adv-x="2048" 
d="M342 -25q-58 0 -96.5 38.5t-38.5 95.5t38 96t97 39q57 0 96 -40t39 -95q0 -54 -39 -94t-96 -40zM1024 -25q-58 0 -96.5 38.5t-38.5 95.5t38 96t97 39q57 0 96 -40t39 -95q0 -54 -39 -94t-96 -40zM1708 -25q-58 0 -96.5 38.5t-38.5 95.5t38 96t97 39q57 0 96 -40t39 -95
q0 -54 -39 -94t-96 -40z" />
    <glyph glyph-name="dagger" unicode="&#x2020;" horiz-adv-x="1024" 
d="M426 -240v1047h-240v-113h-145v383h145v-112h240v366h-111v144h394v-144h-111v-366h238v112h147v-383h-147v113h-238v-1047h-172z" />
    <glyph glyph-name="daggerdbl" unicode="&#x2021;" horiz-adv-x="1024" 
d="M598 346h240v111h145v-381h-145v110h-240v-284h111v-142h-394v142h111v284h-238v-110h-147v381h147v-111h238v543h-240v-113h-145v383h145v-112h240v284h-111v144h394v-144h-111v-284h238v112h147v-383h-147v113h-238v-543z" />
    <glyph glyph-name="circumflex" unicode="&#x2c6;" horiz-adv-x="1024" 
d="M225 1075l197 348h178l197 -348h-107l-178 242l-180 -242h-107z" />
    <glyph glyph-name="perthousand" unicode="&#x2030;" horiz-adv-x="2656" 
d="M1720 348q0 -94 -47.5 -175t-128.5 -127t-174 -46q-92 0 -172.5 46t-128 127t-47.5 175q0 71 26.5 135t76 112.5t110.5 74.5t135 26t137 -26.5t111.5 -74.5t75 -111t26.5 -136zM1370 143q87 0 146 58t59 147q0 59 -27 106t-73.5 74t-104.5 27q-85 0 -144 -60t-59 -147
q0 -85 60 -145t143 -60zM1319 1464h125l-961 -1493h-121zM782 1087q0 -96 -47 -176t-127.5 -126t-173.5 -46q-92 0 -173 46t-129 126.5t-48 175.5q0 73 27 136t75.5 111.5t111.5 75t136 26.5q74 0 136.5 -26.5t110 -73.5t74.5 -112.5t27 -136.5zM434 883q86 0 144.5 58.5
t58.5 145.5q0 58 -26.5 105.5t-72 74.5t-104.5 27q-84 0 -144.5 -59.5t-60.5 -147.5q0 -56 28 -103.5t75.5 -74t101.5 -26.5zM2572 348q0 -96 -47 -176t-127.5 -126t-173.5 -46q-92 0 -172.5 46t-128 127t-47.5 175q0 71 26.5 135t76 112.5t110.5 74.5t135 26t136 -26
t110 -73t75 -112.5t27 -136.5zM2224 143q86 0 144.5 58.5t58.5 146.5q0 58 -26.5 105.5t-72 74.5t-104.5 27q-85 0 -144 -60t-59 -147q0 -85 60 -145t143 -60z" />
    <glyph glyph-name="Scaron" unicode="&#x160;" horiz-adv-x="1360" 
d="M328 160v-160h-166v506h166q45 -174 158 -269.5t270 -95.5q78 0 142 34t101 92.5t37 131.5q0 99 -67 158t-215 98l-154 41q-143 39 -237 94.5t-138.5 133t-44.5 182.5q0 89 32 162.5t91.5 126.5t141 80.5t180.5 27.5q245 0 360 -157v129h143v-424h-143
q-38 139 -134 212.5t-239 73.5q-113 0 -184.5 -60.5t-71.5 -156.5q0 -67 30.5 -110t88.5 -69.5t156 -51.5l119 -31q246 -61 364.5 -165.5t118.5 -282.5q0 -124 -62.5 -224t-174.5 -157.5t-251 -57.5q-118 0 -233 51.5t-184 137.5zM369 1823l174 -244h159l177 244h-95
l-159 -168l-162 168h-94z" />
    <glyph glyph-name="guilsinglleft" unicode="&#x2039;" horiz-adv-x="649" 
d="M385 150l-258 311l258 313h172l-264 -313l264 -311h-172z" />
    <glyph glyph-name="OE" unicode="&#x152;" horiz-adv-x="2036" 
d="M1049 270v932q0 65 -19 95t-72 30h-137q-155 0 -281.5 -75t-199 -210t-72.5 -305q0 -171 72.5 -306t200 -210.5t280.5 -75.5h137q53 0 72 29.5t19 95.5zM1980 0h-1151q-173 0 -313.5 53.5t-240.5 153.5t-152.5 234.5t-52.5 295.5q0 159 53.5 296.5t152 235t240.5 152
t313 54.5h1151v-400h-174v252h-565v-469h467v-162h-467v-549h565v289h174v-436z" />
    <glyph glyph-name="Lslash" horiz-adv-x="1116" 
d="M1077 436v-436h-1022v147h160v420l-154 -84v156l154 84v604h-160v148h541v-148h-186v-496l274 152v-158l-274 -151v-527h493v289h174z" />
    <glyph glyph-name="ordmasculine" horiz-adv-x="860" 
d="M182 1147q0 -69 33.5 -124.5t90 -86.5t124.5 -31q67 0 124.5 30t91.5 85.5t34 126.5t-33.5 126t-91.5 85.5t-125 30.5q-68 0 -124.5 -31t-90 -86.5t-33.5 -124.5zM45 1147q0 94 50 173.5t138.5 125t196.5 45.5q84 0 154 -26t122.5 -73.5t80.5 -110t28 -134.5
q0 -96 -49.5 -175.5t-138.5 -125t-197 -45.5t-197 45.5t-138.5 125t-49.5 175.5z" />
    <glyph glyph-name="fraction" horiz-adv-x="342" 
d="M-342 -29l901 1493h123l-901 -1493h-123z" />
    <glyph glyph-name="breve" horiz-adv-x="1024" 
d="M229 1384h90q7 -77 53 -111t140 -34q96 0 141.5 34t51.5 111h90q-10 -140 -78 -206t-205 -66q-92 0 -152 29t-92.5 91t-38.5 152z" />
    <glyph glyph-name="quoteleft" unicode="&#x2018;" horiz-adv-x="432" 
d="M256 1069h-176l117 406h186z" />
    <glyph glyph-name="quoteright" unicode="&#x2019;" horiz-adv-x="432" 
d="M256 1069h-176l117 406h186z" />
    <glyph glyph-name="quotedblleft" unicode="&#x201c;" horiz-adv-x="868" 
d="M256 1069h-176l117 406h186zM692 1069h-176l117 406h186z" />
    <glyph glyph-name="quotedblright" unicode="&#x201d;" horiz-adv-x="868" 
d="M256 1069h-176l117 406h186zM692 1069h-176l117 406h186z" />
    <glyph glyph-name="bullet" unicode="&#x2022;" horiz-adv-x="1208" 
d="M307 762q0 79 39.5 147.5t108 108t149.5 39.5q80 0 147.5 -39.5t107.5 -108t40 -147.5t-40 -147.5t-108.5 -109t-148.5 -40.5q-79 0 -147.5 39.5t-108 108t-39.5 149.5z" />
    <glyph glyph-name="emdash" unicode="&#x2013;" horiz-adv-x="1024" 
d="M0 420v117h1024v-117h-1024z" />
    <glyph glyph-name="endash" unicode="&#x2014;" horiz-adv-x="2048" 
d="M0 537h2048v-117h-2048v117z" />
    <glyph glyph-name="tilde" unicode="&#x2dc;" horiz-adv-x="1024" 
d="M791 1257q-21 -90 -69 -136t-124 -46q-25 0 -57 8l-97 27q-29 8 -45 8q-64 0 -88 -61h-80q41 176 185 176q33 0 57 -8l88 -25q31 -8 57 -8q73 0 93 65h80z" />
    <glyph glyph-name="trademark" unicode="&#x2122;" horiz-adv-x="1706" 
d="M694 1456v-67h-172v-467h-94v467h-174v67h440zM948 1456l160 -405l149 405h132v-534h-82v458l-172 -458h-54l-180 458v-458h-82v534h129z" />
    <glyph glyph-name="scaron" unicode="&#x161;" horiz-adv-x="973" 
d="M223 0h-137v305h137q39 -89 126 -139.5t196 -50.5q93 0 149 38t56 101q0 52 -34.5 78.5t-107.5 38.5l-221 39q-153 26 -225 93t-72 185q0 126 91.5 200.5t254.5 74.5q66 0 124.5 -14t98 -38t58.5 -53v80h139v-289h-139q-49 96 -116 140.5t-167 44.5q-56 0 -98 -17.5
t-64 -49t-22 -69.5q0 -94 153 -120l193 -33q109 -19 176.5 -48.5t102 -83t34.5 -137.5q0 -68 -26.5 -123t-73.5 -94.5t-115.5 -61.5t-148.5 -22q-185 0 -322 119v-94zM178 1300l174 -243h160l176 243h-94l-160 -167l-162 167h-94z" />
    <glyph glyph-name="guilsinglright" unicode="&#x203a;" horiz-adv-x="649" 
d="M264 150h-170l262 311l-262 313h170l258 -313z" />
    <glyph glyph-name="oe" unicode="&#x153;" horiz-adv-x="1903" 
d="M985 182q-91 -109 -188 -157t-224 -48q-145 0 -263 65.5t-184.5 179t-66.5 249.5q0 102 38.5 193t109 158.5t163 104t203.5 36.5q129 0 227 -48.5t185 -154.5q45 71 99 115t124.5 66t159.5 22q132 0 242 -65t172.5 -185.5t62.5 -278.5v-14h-782q21 -147 99.5 -222
t207.5 -75q101 0 169 33.5t124 111.5h154q-59 -141 -177.5 -217t-279.5 -76q-251 0 -375 207zM242 471q0 -100 44 -178.5t120.5 -123t166.5 -44.5q92 0 167.5 43t120 121.5t44.5 181.5t-44.5 181.5t-120 121.5t-167.5 43q-90 0 -166.5 -44.5t-120.5 -123t-44 -178.5z
M1063 561h602q-27 125 -104.5 189.5t-196.5 64.5q-120 0 -191.5 -60.5t-109.5 -193.5z" />
    <glyph glyph-name="dotlessi" horiz-adv-x="567" 
d="M387 141h164v-141h-500v141h162v656h-162v141h336v-797z" />
    <glyph glyph-name="dotlessi" unicode="&#x131;" horiz-adv-x="567" 
d="M387 141h164v-141h-500v141h162v656h-162v141h336v-797z" />
    <glyph glyph-name="zcaron" horiz-adv-x="995" 
d="M909 0h-807v141l572 656h-398v-172h-151v313h766v-141l-576 -656h443v201h151v-342zM246 1290l174 -243h160l176 243h-94l-160 -168l-162 168h-94z" />
    <glyph glyph-name="Ydieresis" horiz-adv-x="1343" 
d="M770 147h162v-147h-516v147h159v512l-387 668h-155v148h518v-148h-148l275 -489l287 489h-146v148h496v-148h-158l-387 -668v-512zM481 1591v144h144v-144h-144zM752 1591v144h143v-144h-143z" />
    <glyph glyph-name="Ydieresis" unicode="&#x178;" horiz-adv-x="1343" 
d="M770 147h162v-147h-516v147h159v512l-387 668h-155v148h518v-148h-148l275 -489l287 489h-146v148h496v-148h-158l-387 -668v-512zM481 1591v144h144v-144h-144zM752 1591v144h143v-144h-143z" />
    <glyph glyph-name="fl" unicode="&#xa0;" horiz-adv-x="1217" 
d="M575 0h-522v141h160v656h-160v141h160v154q0 133 28 216.5t92 125t171 41.5q39 0 71 -2v-132h-43q-64 0 -94.5 -24t-39.5 -70t-9 -135v-174h186v-141h-186v-656h186v-141zM838 1331h-162v144h338v-1334h162v-141h-500v141h162v1190z" />
    <glyph glyph-name="exclamdown" unicode="&#xa1;" horiz-adv-x="653" 
d="M193 1366q0 58 38.5 94.5t96.5 36.5q37 0 68 -17.5t48 -47t17 -66.5q0 -58 -38.5 -96.5t-94.5 -38.5q-58 0 -96.5 38.5t-38.5 96.5zM399 1112l39 -1112h-221l39 1112h143z" />
    <glyph glyph-name="cent" unicode="&#xa2;" horiz-adv-x="1081" 
d="M250 -283l102 306q-117 61 -181.5 177t-64.5 267q0 146 57.5 262t159 180t226.5 64q56 0 113 -17l79 238h101l-90 -270q63 -35 102 -105l-4 142h119v-343h-119q-23 63 -61 110t-84 67l-220 -658q56 -16 101 -16q171 0 311 168l107 -99q-177 -219 -418 -219q-65 0 -144 21
l-92 -275h-100zM410 182l213 639q-19 4 -54 4q-59 0 -111.5 -25.5t-90.5 -73t-59 -115.5t-21 -148q0 -94 30 -162.5t93 -118.5z" />
    <glyph glyph-name="sterling" unicode="&#xa3;" horiz-adv-x="1081" 
d="M74 160q120 18 172.5 88t52.5 211q0 82 -23 174h-202v147h176q-64 209 -64 307q0 103 50.5 190.5t141 137t208.5 49.5q117 0 203.5 -47t134 -133.5t47.5 -200.5q0 -10 -4 -84h-170q1 11 1.5 20t0.5 21q0 265 -219 265q-101 0 -155 -55.5t-54 -159.5q0 -127 59 -310h268
v-147h-241q18 -105 18 -180q0 -140 -72 -240q144 -82 236 -82q103 0 158 63.5t55 182.5v18h172v-47q0 -116 -42.5 -201t-123.5 -130.5t-188 -45.5q-164 0 -348 119q-120 -114 -248 -117v187z" />
    <glyph glyph-name="currency" unicode="&#xa4;" horiz-adv-x="1241" 
d="M365 1212q61 47 123.5 69t132.5 22q142 0 260 -91l204 207l72 -73l-205 -205q86 -113 86 -256t-86 -256l205 -205l-72 -74l-204 207q-113 -88 -260 -88q-144 0 -256 88l-207 -207l-72 74l207 205q-88 117 -88 256t88 256l-207 205l72 73zM936 887q0 63 -23.5 120t-67 101
t-101 68t-121.5 24q-85 0 -157 -42t-114.5 -114t-42.5 -157q0 -86 42 -158.5t114.5 -115t157.5 -42.5t157.5 43t114 115.5t41.5 157.5z" />
    <glyph glyph-name="yen" unicode="&#xa5;" horiz-adv-x="1343" 
d="M422 0v147h156v494h-441v113h377l-108 188h-269v113h205l-141 239h-154v144h508v-144h-145l268 -477l278 477h-143v144h483v-144h-151l-146 -239h209v-113h-272l-111 -188h383v-113h-440v-494h156v-147h-502z" />
    <glyph glyph-name="brokenbar" unicode="&#xa6;" horiz-adv-x="1024" 
d="M575 1432v-758h-126v758h126zM575 408v-758h-126v758h126z" />
    <glyph glyph-name="section" unicode="&#xa7;" horiz-adv-x="1024" 
d="M330 639l172 -180q51 -54 93 -78.5t87 -24.5q42 0 69 27t27 68q0 35 -20.5 77.5t-61.5 83.5l-172 181q-96 102 -182 102q-41 0 -67.5 -27.5t-26.5 -66.5q0 -78 82 -162zM229 -231v278h136v-149h141q82 0 122 16.5t40 62.5q0 61 -90 154l-342 356q-63 66 -97 109.5
t-53.5 90t-19.5 101.5q0 69 34 124.5t90.5 86.5t118.5 31q23 0 39 -2q-73 75 -108 136t-35 120q0 99 76 145t233 46h281v-279h-136v150h-143q-82 0 -121 -16.5t-39 -63.5q0 -30 22 -66.5t68 -85.5l342 -358q85 -87 127.5 -155.5t42.5 -145.5q0 -104 -73 -173t-170 -69
q-23 0 -39 2q74 -76 108.5 -135t34.5 -119q0 -68 -34 -110t-102 -62t-173 -20h-281z" />
    <glyph glyph-name="dieresis" unicode="&#xa8;" horiz-adv-x="1024" 
d="M272 1139v186h160v-186h-160zM592 1139v186h160v-186h-160z" />
    <glyph glyph-name="copyright" unicode="&#xa9;" horiz-adv-x="1706" 
d="M852 1460q152 0 287 -55.5t237 -159.5q101 -99 156 -234t55 -286q0 -308 -211 -516q-72 -70 -157.5 -119.5t-179.5 -74.5t-187 -25q-100 0 -191 25.5t-174.5 75t-150.5 116.5q-108 110 -162.5 240.5t-54.5 277.5q0 144 56.5 279t162.5 243q67 67 149 115.5t173 73
t192 24.5zM1501 725q0 131 -48.5 250t-139.5 209q-60 60 -133.5 102.5t-156.5 64t-171 21.5q-132 0 -248 -47.5t-205 -138.5q-63 -63 -105.5 -138t-64.5 -155.5t-22 -167.5t22.5 -167.5t63.5 -152t104 -135.5q190 -190 455 -190q127 0 248.5 50.5t214.5 141.5
q91 89 138.5 204.5t47.5 248.5zM1065 911q-15 79 -70.5 121.5t-138.5 42.5q-117 0 -182.5 -92t-65.5 -260q0 -161 67.5 -252.5t180.5 -91.5q86 0 145 48t74 134h129q-7 -84 -53.5 -149.5t-125.5 -101.5t-175 -36q-114 0 -202 54t-135.5 155.5t-47.5 237.5q0 138 50 242.5
t139 159.5t206 55q137 0 230 -74.5t104 -192.5h-129z" />
    <glyph glyph-name="ordfeminine" unicode="&#xaa;" horiz-adv-x="946" 
d="M786 915h109v-98h-240v86q-90 -102 -249 -102q-76 0 -142 26t-115 73t-76.5 110.5t-27.5 134.5q0 96 47.5 175t130.5 125t183 46q153 0 249 -102v86h240v-101h-109v-459zM182 1145q0 -106 70.5 -174t171.5 -68t170.5 68.5t69.5 173.5q0 69 -32 125t-88 86t-120 30
q-107 0 -174.5 -68.5t-67.5 -172.5z" />
    <glyph glyph-name="guillemotleft" unicode="&#xab;" horiz-adv-x="1020" 
d="M385 150l-258 311l258 313h172l-264 -313l264 -311h-172zM756 150l-258 311l258 313h170l-262 -313l262 -311h-170z" />
    <glyph glyph-name="logicalnot" unicode="&#xac;" horiz-adv-x="1706" 
d="M1452 858v-502h-115v385h-1083v117h1198z" />
    <glyph glyph-name="minus" unicode="&#xad;" horiz-adv-x="1706" 
d="M1452 670v-119h-1198v119h1198z" />
    <glyph glyph-name="registered" unicode="&#xae;" horiz-adv-x="1706" 
d="M852 1460q102 0 195 -25t177 -74.5t152 -117.5q101 -99 156 -233t55 -285q0 -309 -213 -516q-108 -105 -244 -162t-278 -57q-72 0 -139 13.5t-136.5 42.5t-128 68.5t-114.5 94.5q-215 215 -215 516q0 145 56.5 280.5t164.5 243.5q208 211 512 211zM1501 721q0 89 -21 171
t-63.5 156.5t-101.5 133.5q-91 92 -209 141t-254 49q-131 0 -246 -46t-205 -138q-95 -95 -144.5 -214.5t-49.5 -248.5q0 -87 22.5 -167.5t63.5 -152t104 -135.5q59 -60 133 -103.5t154.5 -65t165.5 -21.5q132 0 250.5 48.5t212.5 141.5q92 91 140 206t48 245zM872 1157
q351 0 351 -231q0 -88 -52 -147.5t-145 -76.5l188 -385h-157l-176 365h-179v-365h-141v840h311zM846 1065h-144v-291h148q79 0 128.5 13.5t74 44t24.5 83.5q0 81 -55 115.5t-176 34.5z" />
    <glyph glyph-name="macron" unicode="&#xaf;" horiz-adv-x="1024" 
d="M258 1098v119h508v-119h-508z" />
    <glyph glyph-name="ring" unicode="&#xb0;" horiz-adv-x="1024" 
d="M264 1303q0 67 33 124t90 90t125 33q50 0 96 -18.5t80 -52.5t53 -80t19 -96q0 -68 -33 -125.5t-90 -90t-125 -32.5t-125 32.5t-90 90t-33 125.5zM371 1303q0 -60 41 -102t100 -42q61 0 102 42t41 102q0 39 -19.5 72t-52 52t-71.5 19q-59 0 -100 -42t-41 -101z" />
    <glyph glyph-name="plusminus" unicode="&#xb1;" horiz-adv-x="1706" 
d="M913 1180v-344h539v-117h-539v-344h-118v344h-541v117h541v344h118zM1452 158v-117h-1198v117h1198z" />
    <glyph glyph-name="twosuperior" unicode="&#xb2;" horiz-adv-x="713" 
d="M78 1120q0 16 -0.5 26t-1.5 21q0 140 77.5 214.5t221.5 74.5q78 0 139.5 -29.5t96 -82t34.5 -117.5q0 -109 -102 -217l-332 -346h328v155h118v-244h-585v82l379 412q71 74 71 162q0 60 -42 93.5t-115 33.5q-86 0 -129 -48.5t-43 -146.5v-43h-115z" />
    <glyph glyph-name="threesuperior" unicode="&#xb3;" horiz-adv-x="713" 
d="M172 848q3 -93 50.5 -143t133.5 -50q75 0 121.5 45t46.5 115q0 52 -24 88t-71.5 55t-109.5 19h-4v84h4q90 0 142.5 42.5t52.5 110.5q0 69 -40 106.5t-109 37.5q-93 0 -138 -49t-45 -150v-10h-110v16q0 137 77.5 213t215.5 76q62 0 112 -16.5t85.5 -48t54 -74.5t18.5 -98
q0 -69 -38.5 -118.5t-111.5 -74.5q50 -10 86 -39t55 -74t19 -98q0 -72 -37.5 -131t-104.5 -91t-155 -32q-87 0 -152 33.5t-100 91.5t-35 133v31h111z" />
    <glyph glyph-name="acute" unicode="&#xb4;" horiz-adv-x="1024" 
d="M375 1075l209 348h178l-281 -348h-106z" />
    <glyph glyph-name="mu" unicode="&#xb5;" horiz-adv-x="1128" 
d="M362 1069l-126 -596q-15 -61 -15 -137q0 -106 56.5 -166.5t160.5 -60.5q248 0 336 409l121 551h156l-162 -754q-23 -97 -23 -135q0 -65 72 -65q16 0 35 2l-27 -125q-44 -10 -92 -10q-70 0 -104.5 35t-40.5 112q-41 -70 -117.5 -108.5t-171.5 -38.5q-174 0 -262 137
l-113 -545h-156l316 1495h157z" />
    <glyph glyph-name="paragraph" unicode="&#xb6;" horiz-adv-x="1024" 
d="M948 1401h-125v-1401h-94v1401h-184v-1401h-94v782q-117 6 -201 51t-129 122.5t-45 174.5q0 100 48 180.5t137 124.5t208 44h479v-78z" />
    <glyph glyph-name="periodcentered" unicode="&#xb7;" horiz-adv-x="541" 
d="M270 618q-58 0 -96.5 37.5t-38.5 94.5t39 96t96 39q56 0 96 -40t40 -95t-40 -93.5t-96 -38.5z" />
    <glyph glyph-name="periodcentered" unicode="&#x2219;" horiz-adv-x="541" 
d="M270 618q-58 0 -96.5 37.5t-38.5 94.5t39 96t96 39q56 0 96 -40t40 -95t-40 -93.5t-96 -38.5z" />
    <glyph glyph-name="cedilla" unicode="&#xb8;" horiz-adv-x="1024" 
d="M299 -422v86q159 -35 246 -35q121 0 121 82q0 53 -32 76t-102 23q-30 0 -57 -3v193h74v-106h22q113 0 169.5 -45t56.5 -132q0 -182 -248 -182q-88 0 -250 43z" />
    <glyph glyph-name="onesuperior" unicode="&#xb9;" horiz-adv-x="713" 
d="M184 575v89h119v688h-119v86h238v-774h121v-89h-359z" />
    <glyph glyph-name="degree" unicode="&#xba;" horiz-adv-x="674" 
d="M338 1454q75 0 141 -38t104 -103.5t38 -141.5q0 -74 -38 -140t-103.5 -104t-143.5 -38q-118 0 -199.5 82.5t-81.5 199.5q0 77 38 142.5t103.5 103t141.5 37.5zM539 1171q0 53 -26.5 100t-73.5 74t-101 27t-101 -26.5t-74.5 -73t-27.5 -101.5q0 -84 60 -143t143 -59
q56 0 102.5 27.5t72.5 73.5t26 101z" />
    <glyph glyph-name="guillemotright" unicode="&#xbb;" horiz-adv-x="1020" 
d="M264 150h-170l262 311l-262 313h170l258 -313zM633 150h-170l264 311l-264 313h170l258 -313z" />
    <glyph glyph-name="onequarter" unicode="&#xbc;" horiz-adv-x="1704" 
d="M174 633v82h115v641h-115v82h227v-723h115v-82h-342zM340 -29l901 1493h123l-901 -1493h-123zM1298 0v82h129v135h-356v78l367 510h98v-510h113v-78h-113v-135h113v-82h-351zM1427 295v233q0 63 11 119l-256 -352h245z" />
    <glyph glyph-name="onehalf" unicode="&#xbd;" horiz-adv-x="1704" 
d="M174 633v82h115v641h-115v82h227v-723h115v-82h-342zM340 -29l901 1493h123l-901 -1493h-123zM1100 508q-4 28 -4 43q0 131 75 200.5t211 69.5q74 0 133.5 -27.5t92 -76t32.5 -109.5q0 -103 -98 -202l-317 -324h313v145h113v-227h-559v78l362 383q68 71 68 149
q0 57 -40.5 89t-111.5 32q-164 0 -164 -182q0 -27 2 -41h-108z" />
    <glyph glyph-name="threequarters" unicode="&#xbe;" horiz-adv-x="1704" 
d="M166 887q3 -88 47.5 -134t126.5 -46q70 0 115 42t45 107q0 72 -51.5 112t-143.5 40h-4v77h4q87 0 137 39.5t50 104.5q0 64 -38.5 99.5t-107.5 35.5q-86 0 -129 -45.5t-43 -140.5v-9h-106v15q0 83 34 144t97.5 92.5t146.5 31.5q121 0 189.5 -60.5t68.5 -160.5
q0 -135 -141 -180q71 -13 112 -66t41 -129q0 -69 -35 -124t-99.5 -85.5t-149.5 -30.5q-124 0 -199.5 68.5t-75.5 173.5q0 16 2 29h107zM340 -29l901 1493h123l-901 -1493h-123zM1298 0v82h129v135h-356v78l367 510h98v-510h113v-78h-113v-135h113v-82h-351zM1427 295v233
q0 63 11 119l-256 -352h245z" />
    <glyph glyph-name="questiondown" unicode="&#xbf;" horiz-adv-x="1108" 
d="M664 1116v-483q-31 2 -66 2q-125 0 -199.5 -70.5t-74.5 -185.5q0 -76 28 -130.5t80 -83t125 -28.5q110 0 169.5 62t70.5 190h166q-2 -131 -50 -223.5t-140 -141.5t-216 -49q-193 0 -303.5 105.5t-110.5 286.5q0 112 42 203.5t121.5 146.5t185.5 67v332h172zM588 1503
q38 0 69 -17.5t48.5 -47.5t17.5 -68q0 -58 -38.5 -96.5t-96.5 -38.5q-56 0 -94.5 38.5t-38.5 96.5q0 56 38.5 94.5t94.5 38.5z" />
    <glyph glyph-name="Agrave" unicode="&#xc0;" horiz-adv-x="1360" 
d="M477 147v-147h-502v147h138l419 1180h-180v148h672v-148h-182l401 -1180h141v-147h-524v147h176l-116 351h-504l-117 -351h178zM461 645h422l-176 514q-28 78 -35 133q-9 -52 -35 -133zM834 1577h-107l-281 244h179z" />
    <glyph glyph-name="Aacute" unicode="&#xc1;" horiz-adv-x="1360" 
d="M477 147v-147h-502v147h138l419 1180h-180v148h672v-148h-182l401 -1180h141v-147h-524v147h176l-116 351h-504l-117 -351h178zM461 645h422l-176 514q-28 78 -35 133q-9 -52 -35 -133zM578 1577l208 244h179l-281 -244h-106z" />
    <glyph glyph-name="Acircumflex" unicode="&#xc2;" horiz-adv-x="1360" 
d="M477 147v-147h-502v147h138l419 1180h-180v148h672v-148h-182l401 -1180h141v-147h-524v147h176l-116 351h-504l-117 -351h178zM461 645h422l-176 514q-28 78 -35 133q-9 -52 -35 -133zM422 1567l174 243h160l176 -243h-94l-160 168l-162 -168h-94z" />
    <glyph glyph-name="Atilde" unicode="&#xc3;" horiz-adv-x="1360" 
d="M477 147v-147h-502v147h138l419 1180h-180v148h672v-148h-182l401 -1180h141v-147h-524v147h176l-116 351h-504l-117 -351h178zM461 645h422l-176 514q-28 78 -35 133q-9 -52 -35 -133zM958 1778q-35 -154 -172 -154q-21 0 -51 4l-86 23q-18 4 -37 4q-55 0 -75 -49h-72
q33 147 164 147q35 0 51 -4l78 -20q18 -5 49 -5q65 0 80 54h71z" />
    <glyph glyph-name="Adieresis" unicode="&#xc4;" horiz-adv-x="1360" 
d="M477 147v-147h-502v147h138l419 1180h-180v148h672v-148h-182l401 -1180h141v-147h-524v147h176l-116 351h-504l-117 -351h178zM461 645h422l-176 514q-28 78 -35 133q-9 -52 -35 -133zM463 1597v144h143v-144h-143zM733 1597v144h144v-144h-144z" />
    <glyph glyph-name="Aring" unicode="&#xc5;" horiz-adv-x="1360" 
d="M477 147v-147h-502v147h138l419 1180h-180v148h672v-148h-182l401 -1180h141v-147h-524v147h176l-116 351h-504l-117 -351h178zM461 645h422l-176 514q-28 78 -35 133q-9 -52 -35 -133zM524 1731q0 66 46.5 112.5t113.5 46.5t113.5 -45.5t46.5 -113.5t-46 -114t-114 -46
t-114 47t-46 113zM592 1731q0 -38 25.5 -65.5t64.5 -27.5q40 0 66 27t26 66q0 40 -26 66t-66 26q-39 0 -64.5 -26.5t-25.5 -65.5z" />
    <glyph glyph-name="AE" unicode="&#xc6;" horiz-adv-x="2036" 
d="M1049 645v682h-45l-381 -682h426zM1049 498h-508l-201 -351h170v-147h-483v147h131l676 1180h-195v148h1341v-400h-174v252h-565v-469h467v-162h-467v-549h565v289h174v-436h-1093v147h162v351z" />
    <glyph glyph-name="Ccedilla" unicode="&#xc7;" horiz-adv-x="1536" 
d="M1454 465q-29 -116 -86 -208t-139 -155t-188.5 -97t-227.5 -34q-160 0 -299 57t-240.5 161.5t-156 244.5t-54.5 303q0 159 54 300.5t154 246t235 162t293 57.5q90 0 175 -19t152 -55.5t117 -91.5v138h160v-457h-152q-33 105 -93 174.5t-146 104t-201 34.5
q-164 0 -288.5 -73.5t-191.5 -207.5t-67 -313q0 -175 70.5 -309.5t198.5 -209.5t288 -75q326 0 451 322h182zM614 -334l-2 66q105 -25 183 -25q90 0 90 60q0 37 -23.5 54t-75.5 17h-38v144h55v-80h16q166 0 166 -131q0 -136 -184 -136q-56 0 -187 31z" />
    <glyph glyph-name="Egrave" unicode="&#xc8;" horiz-adv-x="1255" 
d="M55 0v147h160v1180h-160v148h1141v-400h-174v252h-612v-469h512v-162h-512v-549h612v289h174v-436h-1141zM809 1577h-107l-280 244h178z" />
    <glyph glyph-name="Eacute" unicode="&#xc9;" horiz-adv-x="1255" 
d="M55 0v147h160v1180h-160v148h1141v-400h-174v252h-612v-469h512v-162h-512v-549h612v289h174v-436h-1141zM543 1577l209 244h178l-281 -244h-106z" />
    <glyph glyph-name="Ecircumflex" unicode="&#xca;" horiz-adv-x="1255" 
d="M55 0v147h160v1180h-160v148h1141v-400h-174v252h-612v-469h512v-162h-512v-549h612v289h174v-436h-1141zM403 1571l175 244h159l176 -244h-94l-160 168l-161 -168h-95z" />
    <glyph glyph-name="Edieresis" unicode="&#xcb;" horiz-adv-x="1255" 
d="M55 0v147h160v1180h-160v148h1141v-400h-174v252h-612v-469h512v-162h-512v-549h612v289h174v-436h-1141zM465 1591v144h143v-144h-143zM735 1591v144h144v-144h-144z" />
    <glyph glyph-name="Igrave" unicode="&#xcc;" horiz-adv-x="627" 
d="M410 147h161v-147h-516v147h160v1180h-160v148h516v-148h-161v-1180zM477 1597h-106l-281 244h178z" />
    <glyph glyph-name="Iacute" unicode="&#xcd;" horiz-adv-x="627" 
d="M410 147h161v-147h-516v147h160v1180h-160v148h516v-148h-161v-1180zM129 1587l209 244h178l-280 -244h-107z" />
    <glyph glyph-name="Icircumflex" unicode="&#xce;" horiz-adv-x="627" 
d="M410 147h161v-147h-516v147h160v1180h-160v148h516v-148h-161v-1180zM59 1591l174 244h160l176 -244h-94l-160 168l-161 -168h-95z" />
    <glyph glyph-name="Idieresis" unicode="&#xcf;" horiz-adv-x="627" 
d="M410 147h161v-147h-516v147h160v1180h-160v148h516v-148h-161v-1180zM111 1612v143h143v-143h-143zM381 1612v143h143v-143h-143z" />
    <glyph glyph-name="Eth" unicode="&#xd0;" horiz-adv-x="1497" 
d="M410 1327v-467h374v-151h-374v-562h184q309 0 472 153t163 437t-163 437t-472 153h-184zM55 0v147h160v562h-215v151h215v467h-160v148h545q201 0 356 -49.5t260 -145t159.5 -232.5t54.5 -311q0 -231 -95.5 -396.5t-281 -253t-453.5 -87.5h-545z" />
    <glyph glyph-name="Ntilde" unicode="&#xd1;" horiz-adv-x="1473" 
d="M414 147h161v-147h-509v147h165v1180h-165v148h368l623 -1074v926h-162v148h510v-148h-166v-1356h-147l-678 1164v-988zM995 1765q-35 -153 -172 -153q-23 0 -51 4l-86 22q-18 4 -37 4q-55 0 -76 -49h-71q33 148 164 148q34 0 51 -4l78 -21q18 -4 49 -4q63 0 80 53h71z
" />
    <glyph glyph-name="Ograve" unicode="&#xd2;" horiz-adv-x="1659" 
d="M268 737q0 -172 74.5 -308t202.5 -211t284 -75q154 0 284 75.5t204 210.5t74 308q0 172 -75 308.5t-203 211t-284 74.5q-154 0 -282.5 -74.5t-203.5 -210.5t-75 -309zM70 737q0 159 56.5 300t160 246t242.5 162.5t300 57.5q255 0 449 -141q100 -72 170.5 -169
t106.5 -212.5t36 -243.5q0 -209 -99 -386t-273 -278.5t-390 -101.5q-214 0 -388 101t-272.5 276.5t-98.5 388.5zM993 1606h-106l-281 243h178z" />
    <glyph glyph-name="Oacute" unicode="&#xd3;" horiz-adv-x="1659" 
d="M268 737q0 -172 74.5 -308t202.5 -211t284 -75q154 0 284 75.5t204 210.5t74 308q0 172 -75 308.5t-203 211t-284 74.5q-154 0 -282.5 -74.5t-203.5 -210.5t-75 -309zM70 737q0 159 56.5 300t160 246t242.5 162.5t300 57.5q255 0 449 -141q100 -72 170.5 -169
t106.5 -212.5t36 -243.5q0 -209 -99 -386t-273 -278.5t-390 -101.5q-214 0 -388 101t-272.5 276.5t-98.5 388.5zM666 1595l208 244h179l-281 -244h-106z" />
    <glyph glyph-name="Ocircumflex" unicode="&#xd4;" horiz-adv-x="1659" 
d="M268 737q0 -172 74.5 -308t202.5 -211t284 -75q154 0 284 75.5t204 210.5t74 308q0 172 -75 308.5t-203 211t-284 74.5q-154 0 -282.5 -74.5t-203.5 -210.5t-75 -309zM70 737q0 159 56.5 300t160 246t242.5 162.5t300 57.5q255 0 449 -141q100 -72 170.5 -169
t106.5 -212.5t36 -243.5q0 -209 -99 -386t-273 -278.5t-390 -101.5q-214 0 -388 101t-272.5 276.5t-98.5 388.5zM571 1567l174 243h160l176 -243h-94l-160 168l-161 -168h-95z" />
    <glyph glyph-name="Otilde" unicode="&#xd5;" horiz-adv-x="1659" 
d="M268 737q0 -172 74.5 -308t202.5 -211t284 -75q154 0 284 75.5t204 210.5t74 308q0 172 -75 308.5t-203 211t-284 74.5q-154 0 -282.5 -74.5t-203.5 -210.5t-75 -309zM70 737q0 159 56.5 300t160 246t242.5 162.5t300 57.5q255 0 449 -141q100 -72 170.5 -169
t106.5 -212.5t36 -243.5q0 -209 -99 -386t-273 -278.5t-390 -101.5q-214 0 -388 101t-272.5 276.5t-98.5 388.5zM1098 1776q-37 -154 -172 -154q-22 0 -52 4l-86 23q-18 4 -36 4q-56 0 -76 -49h-72q34 147 164 147q35 0 51 -4l78 -21q18 -4 49 -4q65 0 80 54h72z" />
    <glyph glyph-name="Odieresis" unicode="&#xd6;" horiz-adv-x="1659" 
d="M268 737q0 -172 74.5 -308t202.5 -211t284 -75q154 0 284 75.5t204 210.5t74 308q0 172 -75 308.5t-203 211t-284 74.5q-154 0 -282.5 -74.5t-203.5 -210.5t-75 -309zM70 737q0 159 56.5 300t160 246t242.5 162.5t300 57.5q255 0 449 -141q100 -72 170.5 -169
t106.5 -212.5t36 -243.5q0 -209 -99 -386t-273 -278.5t-390 -101.5q-214 0 -388 101t-272.5 276.5t-98.5 388.5zM612 1597v144h144v-144h-144zM883 1597v144h143v-144h-143z" />
    <glyph glyph-name="multiply" unicode="&#xd7;" horiz-adv-x="1706" 
d="M858 692l475 477l82 -82l-475 -477l475 -475l-82 -82l-475 475l-477 -475l-80 82l475 475l-475 477l80 82z" />
    <glyph glyph-name="Oslash" unicode="&#xd8;" horiz-adv-x="1659" 
d="M399 102l-151 -198h-146l209 268q-125 129 -183 263.5t-58 301.5q0 160 56.5 301t159 245t242.5 162t301 58q264 0 433 -131l151 193h146l-209 -262q119 -111 180 -254.5t61 -311.5q0 -172 -65.5 -319t-190.5 -260q-205 -187 -506 -187q-123 0 -224 30.5t-206 100.5z
M424 313l729 924q-134 94 -307 94q-167 0 -298 -74.5t-205.5 -210t-74.5 -309.5q0 -129 38.5 -232.5t117.5 -191.5zM1237 1163l-723 -919q141 -101 315 -101q154 0 284 75.5t204 210.5t74 308q0 258 -154 426z" />
    <glyph glyph-name="Ugrave" unicode="&#xd9;" horiz-adv-x="1456" 
d="M414 516q0 -128 28.5 -210.5t97.5 -123.5t187 -41t187.5 41t98.5 122.5t29 211.5v811h-161v148h518v-148h-162v-811q0 -273 -125.5 -409t-384.5 -136q-258 0 -383 136.5t-125 408.5v811h-162v148h516v-148h-159v-811zM829 1597h-106l-281 244h179z" />
    <glyph glyph-name="Uacute" unicode="&#xda;" horiz-adv-x="1456" 
d="M414 516q0 -128 28.5 -210.5t97.5 -123.5t187 -41t187.5 41t98.5 122.5t29 211.5v811h-161v148h518v-148h-162v-811q0 -273 -125.5 -409t-384.5 -136q-258 0 -383 136.5t-125 408.5v811h-162v148h516v-148h-159v-811zM645 1597l209 244h178l-280 -244h-107z" />
    <glyph glyph-name="Ucircumflex" unicode="&#xdb;" horiz-adv-x="1456" 
d="M414 516q0 -128 28.5 -210.5t97.5 -123.5t187 -41t187.5 41t98.5 122.5t29 211.5v811h-161v148h518v-148h-162v-811q0 -273 -125.5 -409t-384.5 -136q-258 0 -383 136.5t-125 408.5v811h-162v148h516v-148h-159v-811zM465 1581l174 244h160l176 -244h-94l-160 168
l-162 -168h-94z" />
    <glyph glyph-name="Udieresis" unicode="&#xdc;" horiz-adv-x="1456" 
d="M414 516q0 -128 28.5 -210.5t97.5 -123.5t187 -41t187.5 41t98.5 122.5t29 211.5v811h-161v148h518v-148h-162v-811q0 -273 -125.5 -409t-384.5 -136q-258 0 -383 136.5t-125 408.5v811h-162v148h516v-148h-159v-811zM526 1591v144h144v-144h-144zM797 1591v144h143v-144
h-143z" />
    <glyph glyph-name="Yacute" unicode="&#xdd;" horiz-adv-x="1343" 
d="M770 147h162v-147h-516v147h159v512l-387 668h-155v148h518v-148h-148l275 -489l287 489h-146v148h496v-148h-158l-387 -668v-512zM571 1618l209 244h178l-280 -244h-107z" />
    <glyph glyph-name="Thorn" unicode="&#xde;" horiz-adv-x="1200" 
d="M590 147v-147h-535v147h160v1180h-160v148h516v-148h-161v-131h198q141 0 246 -30t175.5 -89t106 -144.5t35.5 -195.5q0 -213 -147 -335.5t-416 -122.5h-198v-132h180zM559 1053h-149v-627h178q191 0 287 78.5t96 234.5q0 314 -412 314z" />
    <glyph glyph-name="germandbls" unicode="&#xdf;" horiz-adv-x="1165" 
d="M47 0v141h150v858q0 504 391 504q110 0 199 -47.5t139.5 -132.5t50.5 -188q0 -65 -19 -116.5t-57.5 -95t-99.5 -83.5q155 -57 230 -163t75 -271q0 -91 -27.5 -168.5t-78.5 -137t-117.5 -92.5t-137.5 -33q-28 0 -114 19l18 147q48 -10 74 -10q82 0 141.5 83t59.5 202
q0 158 -90 248t-250 90h-25v133q114 7 178 71t64 168q0 106 -61 166t-156 60q-122 0 -166.5 -85.5t-44.5 -267.5v-858h143v-141h-469z" />
    <glyph glyph-name="agrave" unicode="&#xe0;" horiz-adv-x="1262" 
d="M1049 141h143v-141h-320v123q-117 -146 -331 -146q-135 0 -245 64.5t-173.5 177.5t-63.5 250q0 135 63 249t174 179.5t245 65.5q204 0 331 -148v123h320v-141h-143v-656zM244 469q0 -151 92.5 -248.5t228.5 -97.5q87 0 160.5 43.5t116.5 122.5t43 180t-42.5 179.5
t-116.5 121.5t-161 43q-94 0 -167 -44t-113.5 -122t-40.5 -178zM748 1065h-107l-281 244h179z" />
    <glyph glyph-name="aacute" unicode="&#xe1;" horiz-adv-x="1262" 
d="M1049 141h143v-141h-320v123q-117 -146 -331 -146q-135 0 -245 64.5t-173.5 177.5t-63.5 250q0 135 63 249t174 179.5t245 65.5q204 0 331 -148v123h320v-141h-143v-656zM244 469q0 -151 92.5 -248.5t228.5 -97.5q87 0 160.5 43.5t116.5 122.5t43 180t-42.5 179.5
t-116.5 121.5t-161 43q-94 0 -167 -44t-113.5 -122t-40.5 -178zM481 1065l209 244h178l-280 -244h-107z" />
    <glyph glyph-name="acircumflex" unicode="&#xe2;" horiz-adv-x="1262" 
d="M1049 141h143v-141h-320v123q-117 -146 -331 -146q-135 0 -245 64.5t-173.5 177.5t-63.5 250q0 135 63 249t174 179.5t245 65.5q204 0 331 -148v123h320v-141h-143v-656zM244 469q0 -151 92.5 -248.5t228.5 -97.5q87 0 160.5 43.5t116.5 122.5t43 180t-42.5 179.5
t-116.5 121.5t-161 43q-94 0 -167 -44t-113.5 -122t-40.5 -178zM397 1053l174 243h160l176 -243h-94l-160 168l-161 -168h-95z" />
    <glyph glyph-name="atilde" unicode="&#xe3;" horiz-adv-x="1262" 
d="M1049 141h143v-141h-320v123q-117 -146 -331 -146q-135 0 -245 64.5t-173.5 177.5t-63.5 250q0 135 63 249t174 179.5t245 65.5q204 0 331 -148v123h320v-141h-143v-656zM244 469q0 -151 92.5 -248.5t228.5 -97.5q87 0 160.5 43.5t116.5 122.5t43 180t-42.5 179.5
t-116.5 121.5t-161 43q-94 0 -167 -44t-113.5 -122t-40.5 -178zM862 1245q-35 -153 -172 -153q-23 0 -51 4l-86 22q-18 4 -37 4q-55 0 -76 -49h-71q33 148 163 148q35 0 52 -4l78 -21q18 -4 49 -4q63 0 80 53h71z" />
    <glyph glyph-name="adieresis" unicode="&#xe4;" horiz-adv-x="1262" 
d="M1049 141h143v-141h-320v123q-117 -146 -331 -146q-135 0 -245 64.5t-173.5 177.5t-63.5 250q0 135 63 249t174 179.5t245 65.5q204 0 331 -148v123h320v-141h-143v-656zM244 469q0 -151 92.5 -248.5t228.5 -97.5q87 0 160.5 43.5t116.5 122.5t43 180t-42.5 179.5
t-116.5 121.5t-161 43q-94 0 -167 -44t-113.5 -122t-40.5 -178zM377 1083v144h143v-144h-143zM647 1083v144h144v-144h-144z" />
    <glyph glyph-name="aring" unicode="&#xe5;" horiz-adv-x="1262" 
d="M1049 141h143v-141h-320v123q-117 -146 -331 -146q-135 0 -245 64.5t-173.5 177.5t-63.5 250q0 135 63 249t174 179.5t245 65.5q204 0 331 -148v123h320v-141h-143v-656zM244 469q0 -151 92.5 -248.5t228.5 -97.5q87 0 160.5 43.5t116.5 122.5t43 180t-42.5 179.5
t-116.5 121.5t-161 43q-94 0 -167 -44t-113.5 -122t-40.5 -178zM397 1206q0 65 46.5 112.5t113.5 47.5t113.5 -46.5t46.5 -113.5q0 -69 -46 -114t-114 -45t-114 46t-46 113zM465 1206q0 -37 25.5 -64.5t64.5 -27.5q40 0 66 27t26 65q0 40 -26 66t-66 26q-39 0 -64.5 -26.5
t-25.5 -65.5z" />
    <glyph glyph-name="ae" unicode="&#xe6;" horiz-adv-x="1747" 
d="M905 561h604q-27 125 -105 189.5t-198 64.5q-118 0 -190.5 -60.5t-110.5 -193.5zM852 152q-73 -87 -173 -132t-210 -45t-195 40t-131.5 112t-46.5 162q0 93 48.5 165.5t137 113t199.5 40.5q162 0 267 -78v97q0 58 -30.5 100t-90.5 65t-144 23q-137 0 -260 -49l-61 127
q154 70 348 70q127 0 216.5 -38.5t150.5 -117.5q126 156 333 156q133 0 243 -65t172.5 -185.5t62.5 -278.5v-14h-783q21 -147 99.5 -222t207.5 -75q101 0 171 34t124 111h152q-59 -141 -177.5 -217t-279.5 -76q-113 0 -195 41t-155 136zM758 301q0 75 -66.5 118.5
t-189.5 43.5q-107 0 -166.5 -43.5t-59.5 -118.5q0 -77 58.5 -127.5t157.5 -50.5q118 0 192 51.5t74 126.5z" />
    <glyph glyph-name="ccedilla" unicode="&#xe7;" horiz-adv-x="1006" 
d="M854 272l94 -92q-78 -101 -185 -153t-239 -52q-106 0 -191 34.5t-147 99t-94.5 155.5t-32.5 201q0 149 56 262t157.5 174.5t231.5 61.5q93 0 162 -28t125 -87v90h137v-324h-125q-80 203 -281 203q-125 0 -203.5 -95t-78.5 -257q0 -159 83 -250.5t232 -91.5q171 0 299 149
zM324 -342l-2 66q104 -25 182 -25q90 0 90 59q0 38 -23.5 55t-74.5 17h-39v143h55v-79h16q166 0 166 -132q0 -135 -184 -135q-57 0 -186 31z" />
    <glyph glyph-name="egrave" unicode="&#xe8;" horiz-adv-x="1114" 
d="M1032 279q-43 -94 -113.5 -162t-164.5 -105t-199 -37q-109 0 -199.5 34.5t-157.5 101t-103 161t-36 207.5q0 144 61 254t174.5 170t262.5 60q147 0 259.5 -63.5t175.5 -183.5t63 -276v-22h-813q11 -134 104.5 -214.5t233.5 -80.5q88 0 164.5 41t123.5 115h164zM242 555
h630q-20 129 -101 196.5t-214 67.5t-214.5 -67.5t-100.5 -196.5zM721 1055h-107l-280 243h178z" />
    <glyph glyph-name="eacute" unicode="&#xe9;" horiz-adv-x="1114" 
d="M1032 279q-43 -94 -113.5 -162t-164.5 -105t-199 -37q-109 0 -199.5 34.5t-157.5 101t-103 161t-36 207.5q0 144 61 254t174.5 170t262.5 60q147 0 259.5 -63.5t175.5 -183.5t63 -276v-22h-813q11 -134 104.5 -214.5t233.5 -80.5q88 0 164.5 41t123.5 115h164zM242 555
h630q-20 129 -101 196.5t-214 67.5t-214.5 -67.5t-100.5 -196.5zM403 1044l209 244h179l-281 -244h-107z" />
    <glyph glyph-name="ecircumflex" unicode="&#xea;" horiz-adv-x="1114" 
d="M1032 279q-43 -94 -113.5 -162t-164.5 -105t-199 -37q-109 0 -199.5 34.5t-157.5 101t-103 161t-36 207.5q0 144 61 254t174.5 170t262.5 60q147 0 259.5 -63.5t175.5 -183.5t63 -276v-22h-813q11 -134 104.5 -214.5t233.5 -80.5q88 0 164.5 41t123.5 115h164zM242 555
h630q-20 129 -101 196.5t-214 67.5t-214.5 -67.5t-100.5 -196.5zM299 1036l174 244h160l176 -244h-94l-160 168l-162 -168h-94z" />
    <glyph glyph-name="edieresis" unicode="&#xeb;" horiz-adv-x="1114" 
d="M1032 279q-43 -94 -113.5 -162t-164.5 -105t-199 -37q-109 0 -199.5 34.5t-157.5 101t-103 161t-36 207.5q0 144 61 254t174.5 170t262.5 60q147 0 259.5 -63.5t175.5 -183.5t63 -276v-22h-813q11 -134 104.5 -214.5t233.5 -80.5q88 0 164.5 41t123.5 115h164zM242 555
h630q-20 129 -101 196.5t-214 67.5t-214.5 -67.5t-100.5 -196.5zM330 1057v143h143v-143h-143zM600 1057v143h143v-143h-143z" />
    <glyph glyph-name="igrave" unicode="&#xec;" horiz-adv-x="567" 
d="M387 141h164v-141h-500v141h162v656h-162v141h336v-797zM399 1073h-106l-281 244h178z" />
    <glyph glyph-name="iacute" unicode="&#xed;" horiz-adv-x="567" 
d="M387 141h164v-141h-500v141h162v656h-162v141h336v-797zM102 1073l209 244h178l-280 -244h-107z" />
    <glyph glyph-name="icircumflex" unicode="&#xee;" horiz-adv-x="567" 
d="M387 141h164v-141h-500v141h162v656h-162v141h336v-797zM29 1053l174 243h159l177 -243h-95l-159 168l-162 -168h-94z" />
    <glyph glyph-name="idieresis" unicode="&#xef;" horiz-adv-x="567" 
d="M387 141h164v-141h-500v141h162v656h-162v141h336v-797zM80 1073v144h143v-144h-143zM350 1073v144h144v-144h-144z" />
    <glyph glyph-name="eth" unicode="&#xf0;" horiz-adv-x="1147" 
d="M573 817q-90 0 -166.5 -44t-120.5 -122.5t-44 -179.5t44 -179.5t120.5 -122.5t166.5 -44q93 0 168.5 43.5t119.5 122t44 180.5t-44 180.5t-119.5 122t-168.5 43.5zM688 948l-156 201l-313 -66l-29 127l254 52l-155 213h186l137 -179l271 54l32 -125l-215 -41l187 -242
q103 -131 153 -230.5t50 -232.5q0 -143 -66.5 -258t-184.5 -179.5t-264 -64.5q-145 0 -263.5 65.5t-185.5 177.5t-67 249q0 138 68.5 251t186.5 178t261 65q57 0 113 -15z" />
    <glyph glyph-name="ntilde" unicode="&#xf1;" horiz-adv-x="1194" 
d="M1024 141h143v-141h-462v141h143v422q0 128 -29.5 184t-136.5 56q-145 0 -295 -160v-502h145v-141h-464v141h145v656h-145v141h319v-133q85 82 167 120t175 38q167 0 248 -111q30 -37 38.5 -80t8.5 -110v-521zM881 1247q-37 -153 -172 -153q-22 0 -52 4l-86 22
q-18 4 -36 4q-56 0 -76 -49h-72q34 148 164 148q35 0 51 -4l78 -21q18 -4 49 -4q65 0 80 53h72z" />
    <glyph glyph-name="ograve" unicode="&#xf2;" horiz-adv-x="1147" 
d="M242 471q0 -100 44 -178.5t120.5 -123t166.5 -44.5q92 0 167.5 43t120 121.5t44.5 181.5t-44.5 181.5t-120 121.5t-167.5 43q-90 0 -166.5 -44.5t-120.5 -123t-44 -178.5zM59 471q0 102 38.5 193t109 158.5t163 104t203.5 36.5q112 0 205 -37t163 -104.5t108 -157
t38 -193.5q0 -136 -66.5 -249.5t-184.5 -179t-263 -65.5t-263 65.5t-184.5 179t-66.5 249.5zM768 1044h-106l-281 244h178z" />
    <glyph glyph-name="oacute" unicode="&#xf3;" horiz-adv-x="1147" 
d="M242 471q0 -100 44 -178.5t120.5 -123t166.5 -44.5q92 0 167.5 43t120 121.5t44.5 181.5t-44.5 181.5t-120 121.5t-167.5 43q-90 0 -166.5 -44.5t-120.5 -123t-44 -178.5zM59 471q0 102 38.5 193t109 158.5t163 104t203.5 36.5q112 0 205 -37t163 -104.5t108 -157
t38 -193.5q0 -136 -66.5 -249.5t-184.5 -179t-263 -65.5t-263 65.5t-184.5 179t-66.5 249.5zM430 1055l209 243h178l-280 -243h-107z" />
    <glyph glyph-name="ocircumflex" unicode="&#xf4;" horiz-adv-x="1147" 
d="M242 471q0 -100 44 -178.5t120.5 -123t166.5 -44.5q92 0 167.5 43t120 121.5t44.5 181.5t-44.5 181.5t-120 121.5t-167.5 43q-90 0 -166.5 -44.5t-120.5 -123t-44 -178.5zM59 471q0 102 38.5 193t109 158.5t163 104t203.5 36.5q112 0 205 -37t163 -104.5t108 -157
t38 -193.5q0 -136 -66.5 -249.5t-184.5 -179t-263 -65.5t-263 65.5t-184.5 179t-66.5 249.5zM326 1044l174 244h159l177 -244h-95l-159 168l-162 -168h-94z" />
    <glyph glyph-name="otilde" unicode="&#xf5;" horiz-adv-x="1147" 
d="M242 471q0 -100 44 -178.5t120.5 -123t166.5 -44.5q92 0 167.5 43t120 121.5t44.5 181.5t-44.5 181.5t-120 121.5t-167.5 43q-90 0 -166.5 -44.5t-120.5 -123t-44 -178.5zM59 471q0 102 38.5 193t109 158.5t163 104t203.5 36.5q112 0 205 -37t163 -104.5t108 -157
t38 -193.5q0 -136 -66.5 -249.5t-184.5 -179t-263 -65.5t-263 65.5t-184.5 179t-66.5 249.5zM831 1235q-35 -154 -172 -154q-21 0 -51 4l-86 23q-18 4 -37 4q-55 0 -75 -49h-72q33 147 164 147q35 0 51 -4l78 -20q18 -4 49 -4q65 0 80 53h71z" />
    <glyph glyph-name="odieresis" unicode="&#xf6;" horiz-adv-x="1147" 
d="M242 471q0 -100 44 -178.5t120.5 -123t166.5 -44.5q92 0 167.5 43t120 121.5t44.5 181.5t-44.5 181.5t-120 121.5t-167.5 43q-90 0 -166.5 -44.5t-120.5 -123t-44 -178.5zM59 471q0 102 38.5 193t109 158.5t163 104t203.5 36.5q112 0 205 -37t163 -104.5t108 -157
t38 -193.5q0 -136 -66.5 -249.5t-184.5 -179t-263 -65.5t-263 65.5t-184.5 179t-66.5 249.5zM367 1065v143h143v-143h-143zM637 1065v143h143v-143h-143z" />
    <glyph glyph-name="divide" unicode="&#xf7;" horiz-adv-x="1706" 
d="M854 1085q48 0 81.5 -33.5t33.5 -80.5q0 -48 -32.5 -81.5t-82.5 -33.5q-49 0 -82 33t-33 82q0 46 35 80t80 34zM1452 670v-117h-1198v117h1198zM854 365q46 0 80.5 -33.5t34.5 -81.5t-32.5 -81.5t-82.5 -33.5q-46 0 -80.5 33.5t-34.5 81.5q0 47 34 81t81 34z" />
    <glyph glyph-name="oslash" unicode="&#xf8;" horiz-adv-x="1147" 
d="M315 41l-151 -197h-152l207 267q-76 62 -118 157t-42 203q0 102 38.5 192.5t109.5 158.5t163.5 104.5t202.5 36.5q137 0 256 -60l154 199h150l-207 -268q161 -151 161 -363q0 -102 -38 -192t-107 -158t-164 -106t-205 -38q-136 0 -258 64zM319 242l412 534
q-77 41 -158 41q-90 0 -166.5 -44t-120.5 -122.5t-44 -179.5q0 -64 17.5 -118.5t59.5 -110.5zM825 702l-413 -536q87 -41 161 -41q93 0 168.5 43.5t119.5 122t44 180.5q0 134 -80 231z" />
    <glyph glyph-name="ugrave" unicode="&#xf9;" horiz-adv-x="1176" 
d="M170 797h-143v141h319v-563q0 -85 10 -134.5t46.5 -77.5t109.5 -28q76 0 147.5 40t147.5 120v502h-145v141h321v-795h143v-143h-319v135q-165 -160 -342 -160q-81 0 -135.5 21t-91 65t-52.5 105.5t-16 146.5v484zM668 1061h-107l-280 244h178z" />
    <glyph glyph-name="uacute" unicode="&#xfa;" horiz-adv-x="1176" 
d="M170 797h-143v141h319v-563q0 -85 10 -134.5t46.5 -77.5t109.5 -28q76 0 147.5 40t147.5 120v502h-145v141h321v-795h143v-143h-319v135q-165 -160 -342 -160q-81 0 -135.5 21t-91 65t-52.5 105.5t-16 146.5v484zM422 1071l209 244h178l-281 -244h-106z" />
    <glyph glyph-name="ucircumflex" unicode="&#xfb;" horiz-adv-x="1176" 
d="M170 797h-143v141h319v-563q0 -85 10 -134.5t46.5 -77.5t109.5 -28q76 0 147.5 40t147.5 120v502h-145v141h321v-795h143v-143h-319v135q-165 -160 -342 -160q-81 0 -135.5 21t-91 65t-52.5 105.5t-16 146.5v484zM293 1042l174 244h160l176 -244h-94l-160 168l-162 -168
h-94z" />
    <glyph glyph-name="udieresis" unicode="&#xfc;" horiz-adv-x="1176" 
d="M170 797h-143v141h319v-563q0 -85 10 -134.5t46.5 -77.5t109.5 -28q76 0 147.5 40t147.5 120v502h-145v141h321v-795h143v-143h-319v135q-165 -160 -342 -160q-81 0 -135.5 21t-91 65t-52.5 105.5t-16 146.5v484zM365 1063v143h143v-143h-143zM635 1063v143h143v-143
h-143z" />
    <glyph glyph-name="yacute" unicode="&#xfd;" horiz-adv-x="1026" 
d="M592 -426h-490v141h172l144 326l-316 756h-125v141h451v-141h-152l234 -551l244 551h-144v141h432v-141h-124l-486 -1082h160v-141zM438 1071l209 244h178l-280 -244h-107z" />
    <glyph glyph-name="thorn" unicode="&#xfe;" horiz-adv-x="1223" 
d="M174 1331h-143v144h319v-650q134 138 334 138q133 0 243 -65t173 -179.5t63 -249.5q0 -136 -63 -249t-173.5 -178t-242.5 -65q-108 0 -186.5 31t-147.5 105v-398h154v-141h-473v141h143v1616zM659 123q90 0 162.5 43.5t115 123t42.5 179.5q0 99 -42.5 178t-115.5 122.5
t-162 43.5t-162 -43t-115 -122t-42 -179t42.5 -179.5t115.5 -123t161 -43.5z" />
    <glyph glyph-name="ydieresis" unicode="&#xff;" horiz-adv-x="1026" 
d="M592 -426h-490v141h172l144 326l-316 756h-125v141h451v-141h-152l234 -551l244 551h-144v141h432v-141h-124l-486 -1082h160v-141zM317 1049v143h144v-143h-144zM588 1049v143h143v-143h-143z" />
    <glyph glyph-name="lslash" horiz-adv-x="573" 
d="M207 1331h-162v144h338v-598l192 124v-174l-192 -122v-564h162v-141h-500v141h162v449l-182 -121v170l182 129v563z" />
    <glyph glyph-name="dotaccent" horiz-adv-x="1024" 
d="M428 1133v198h168v-198h-168z" />
    <glyph glyph-name="hungarumlaut" horiz-adv-x="1024" 
d="M322 1075l147 348h158l-221 -348h-84zM580 1075l168 348h155l-239 -348h-84z" />
    <glyph glyph-name="fi" horiz-adv-x="1217" 
d="M575 0h-522v141h160v656h-160v141h160v154q0 133 28 216.5t92 125t171 41.5q39 0 71 -2v-132h-43q-64 0 -94.5 -24t-39.5 -70t-9 -135v-174h186v-141h-186v-656h186v-141zM1014 141h162v-141h-500v141h162v656h-162v141h338v-797zM760 1171v189h254v-189h-254z" />
    <glyph glyph-name="sac" unicode="&#xf008;" horiz-adv-x="2" 
d="M-502 1065l209 244h178l-280 -244h-107z" />
    <glyph glyph-name="huyen" unicode="&#xf00d;" horiz-adv-x="2" 
d="M-174 1065h-107l-280 244h178z" />
    <glyph glyph-name="hoi" unicode="&#xf012;" horiz-adv-x="2" 
d="M-328 1075v123q115 10 115 70q-1 15 -23 26t-51 11q-65 -3 -78 -52h-90q0 58 47.5 90.5t133.5 32.5q89 0 137.5 -31t48.5 -83q0 -51 -41 -83.5t-115 -37.5v-66h-84z" />
    <glyph glyph-name="nga" unicode="&#xf01d;" horiz-adv-x="2" 
d="M0 1239q-37 -154 -172 -154q-28 0 -51 5l-86 22q-19 4 -37 4q-56 0 -76 -49h-72q34 147 164 147q35 0 51 -4l78 -20q19 -4 49 -4q65 0 80 53h72z" />
    <glyph glyph-name="nang" unicode="&#xf02a;" horiz-adv-x="2" 
d="M-338 -266v143h143v-143h-143z" />
    <glyph glyph-name="aa" horiz-adv-x="2" 
d="M0 0h78q4 -65 42.5 -94t117.5 -29q78 0 116.5 29t42.5 94h76q-7 -120 -63 -174.5t-172 -54.5q-115 0 -173 55.5t-65 173.5z" />
    <glyph glyph-name="ab" horiz-adv-x="2" 
d="M0 0l174 244h160l176 -244h-94l-160 168l-162 -168h-94z" />
    <glyph glyph-name="dth" unicode="&#x111;" horiz-adv-x="1251" 
d="M244 469q0 -151 92.5 -248.5t228.5 -97.5q87 0 160.5 43.5t116.5 122.5t43 180t-42.5 179.5t-116.5 121.5t-161 43q-94 0 -167 -44t-113.5 -122t-40.5 -178zM872 1331h-157v144h334v-287h143v-103h-143v-944h143v-141h-320v113q-69 -72 -144.5 -104t-174.5 -32
q-142 0 -255 65t-176 177t-63 250q0 135 62.5 249t173.5 179.5t246 65.5q66 0 125 -14.5t110 -45.5t96 -78v260h-360v103h360v143z" />
    <glyph glyph-name="dth" unicode="&#x20ab;" horiz-adv-x="1251" 
d="M244 469q0 -151 92.5 -248.5t228.5 -97.5q87 0 160.5 43.5t116.5 122.5t43 180t-42.5 179.5t-116.5 121.5t-161 43q-94 0 -167 -44t-113.5 -122t-40.5 -178zM872 1331h-157v144h334v-287h143v-103h-143v-944h143v-141h-320v113q-69 -72 -144.5 -104t-174.5 -32
q-142 0 -255 65t-176 177t-63 250q0 135 62.5 249t173.5 179.5t246 65.5q66 0 125 -14.5t110 -45.5t96 -78v260h-360v103h360v143z" />
    <glyph glyph-name="dhoa" unicode="&#x110;" horiz-adv-x="1497" 
d="M410 1327v-467h374v-151h-374v-562h184q309 0 472 153t163 437t-163 437t-472 153h-184zM55 0v147h160v562h-215v151h215v467h-160v148h545q201 0 356 -49.5t260 -145t159.5 -232.5t54.5 -311q0 -231 -95.5 -396.5t-281 -253t-453.5 -87.5h-545z" />
    <glyph glyph-name="octh" unicode="&#x1a1;" horiz-adv-x="1147" 
d="M242 471q0 -100 44 -178.5t120.5 -123t166.5 -44.5q92 0 167.5 43t120 121.5t44.5 181.5t-44.5 181.5t-120 121.5t-167.5 43q-90 0 -166.5 -44.5t-120.5 -123t-44 -178.5zM59 471h4q0 102 38 192t109 158.5t164.5 105t203.5 36.5q103 0 191.5 -34t153 -90.5t95.5 -117.5
q46 7 80 32.5t35 69.5h-46v140h130v-170q-3 -53 -58.5 -93.5t-107.5 -40.5q36 -78 36 -188q0 -136 -66.5 -249.5t-184.5 -179t-263 -65.5t-263 65.5t-184.5 179t-66.5 249.5z" />
    <glyph glyph-name="ochoa" unicode="&#x1a0;" horiz-adv-x="1659" 
d="M268 737q0 -172 74.5 -308t202.5 -211t284 -75q154 0 284 75.5t204 210.5t74 308q0 172 -75 308.5t-203 211t-284 74.5q-154 0 -282.5 -74.5t-203.5 -210.5t-75 -309zM70 737h-2q0 159 56.5 300t160 246t242.5 162.5t300 57.5q112 0 207.5 -25.5t164 -64t113.5 -77
t85 -81.5q82 14 122.5 39.5t41.5 71.5h-45v139h129v-170q0 -37 -36 -68.5t-84 -49t-81 -17.5q51 -76 84.5 -152.5t48 -155t14.5 -155.5q0 -209 -99 -386t-273 -278.5t-390 -101.5q-214 0 -388 101t-272.5 276.5t-98.5 388.5z" />
    <glyph glyph-name="ucth" unicode="&#x1b0;" horiz-adv-x="1176" 
d="M170 797h-143v141h319v-563q0 -85 10 -134.5t46.5 -77.5t109.5 -28q76 0 147.5 40t147.5 120v502h-145v141h321v-242q50 9 83 34t34 69h-45v139h129v-170q0 -37 -36 -68.5t-84 -49t-81 -17.5v-490h143v-143h-319v135q-165 -160 -342 -160q-81 0 -135.5 21t-91 65
t-52.5 105.5t-16 146.5v484z" />
    <glyph glyph-name="uchoa" unicode="&#x1af;" horiz-adv-x="1456" 
d="M414 516q0 -128 28.5 -210.5t97.5 -123.5t187 -41t187.5 41t98.5 122.5t29 211.5v811h-161v148h356v-242q47 6 81.5 32t35.5 70h-45v140h129v-170q0 -36 -35 -67.5t-84 -50t-82 -18.5v-653q0 -273 -125.5 -409t-384.5 -136q-258 0 -383 136.5t-125 408.5v811h-162v148
h516v-148h-159v-811z" />
    <glyph glyph-name="aath" unicode="&#x103;" horiz-adv-x="1262" 
d="M1049 141h143v-141h-320v123q-117 -146 -331 -146q-135 0 -245 64.5t-173.5 177.5t-63.5 250q0 135 63 249t174 179.5t245 65.5q204 0 331 -148v123h320v-141h-143v-656zM244 469q0 -151 92.5 -248.5t228.5 -97.5q87 0 160.5 43.5t116.5 122.5t43 180t-42.5 179.5
t-116.5 121.5t-161 43q-94 0 -167 -44t-113.5 -122t-40.5 -178zM356 1278h78q4 -65 42.5 -94t117.5 -29t117.5 29t42.5 94h75q-7 -120 -63 -174.5t-172 -54.5q-115 0 -172 55.5t-66 173.5z" />
    <glyph glyph-name="aahoa" unicode="&#x102;" horiz-adv-x="1360" 
d="M477 147v-147h-502v147h138l419 1180h-180v148h672v-148h-182l401 -1180h141v-147h-524v147h176l-116 351h-504l-117 -351h178zM461 645h422l-176 514q-28 78 -35 133q-9 -52 -35 -133zM442 1792h78q4 -65 42.5 -94t117.5 -29t117.5 29t42.5 94h75q-7 -120 -63 -174.5
t-172 -54.5q-115 0 -172 55.5t-66 173.5z" />
    <glyph glyph-name="abth" horiz-adv-x="1262" 
d="M1049 141h143v-141h-320v123q-117 -146 -331 -146q-135 0 -245 64.5t-173.5 177.5t-63.5 250q0 135 63 249t174 179.5t245 65.5q204 0 331 -148v123h320v-141h-143v-656zM244 469q0 -151 92.5 -248.5t228.5 -97.5q87 0 160.5 43.5t116.5 122.5t43 180t-42.5 179.5
t-116.5 121.5t-161 43q-94 0 -167 -44t-113.5 -122t-40.5 -178zM397 1053l174 243h160l176 -243h-94l-160 168l-161 -168h-95z" />
    <glyph glyph-name="abhoa" horiz-adv-x="1360" 
d="M477 147v-147h-502v147h138l419 1180h-180v148h672v-148h-182l401 -1180h141v-147h-524v147h176l-116 351h-504l-117 -351h178zM461 645h422l-176 514q-28 78 -35 133q-9 -52 -35 -133zM422 1567l174 243h160l176 -243h-94l-160 168l-162 -168h-94z" />
    <glyph glyph-name="ebth" horiz-adv-x="1114" 
d="M1032 279q-43 -94 -113.5 -162t-164.5 -105t-199 -37q-109 0 -199.5 34.5t-157.5 101t-103 161t-36 207.5q0 144 61 254t174.5 170t262.5 60q147 0 259.5 -63.5t175.5 -183.5t63 -276v-22h-813q11 -134 104.5 -214.5t233.5 -80.5q88 0 164.5 41t123.5 115h164zM242 555
h630q-20 129 -101 196.5t-214 67.5t-214.5 -67.5t-100.5 -196.5zM299 1036l174 244h160l176 -244h-94l-160 168l-162 -168h-94z" />
    <glyph glyph-name="ebhoa" horiz-adv-x="1255" 
d="M55 0v147h160v1180h-160v148h1141v-400h-174v252h-612v-469h512v-162h-512v-549h612v289h174v-436h-1141zM403 1571l175 244h159l176 -244h-94l-160 168l-161 -168h-95z" />
    <glyph glyph-name="obth" horiz-adv-x="1147" 
d="M242 471q0 -100 44 -178.5t120.5 -123t166.5 -44.5q92 0 167.5 43t120 121.5t44.5 181.5t-44.5 181.5t-120 121.5t-167.5 43q-90 0 -166.5 -44.5t-120.5 -123t-44 -178.5zM59 471q0 102 38.5 193t109 158.5t163 104t203.5 36.5q112 0 205 -37t163 -104.5t108 -157
t38 -193.5q0 -136 -66.5 -249.5t-184.5 -179t-263 -65.5t-263 65.5t-184.5 179t-66.5 249.5zM326 1044l174 244h159l177 -244h-95l-159 168l-162 -168h-94z" />
    <glyph glyph-name="obhoa" horiz-adv-x="1659" 
d="M268 737q0 -172 74.5 -308t202.5 -211t284 -75q154 0 284 75.5t204 210.5t74 308q0 172 -75 308.5t-203 211t-284 74.5q-154 0 -282.5 -74.5t-203.5 -210.5t-75 -309zM70 737q0 159 56.5 300t160 246t242.5 162.5t300 57.5q255 0 449 -141q100 -72 170.5 -169
t106.5 -212.5t36 -243.5q0 -209 -99 -386t-273 -278.5t-390 -101.5q-214 0 -388 101t-272.5 276.5t-98.5 388.5zM571 1567l174 243h160l176 -243h-94l-160 168l-161 -168h-95z" />
    <glyph glyph-name="athsac" horiz-adv-x="1262" 
d="M1049 141h143v-141h-320v123q-117 -146 -331 -146q-135 0 -245 64.5t-173.5 177.5t-63.5 250q0 135 63 249t174 179.5t245 65.5q204 0 331 -148v123h320v-141h-143v-656zM244 469q0 -151 92.5 -248.5t228.5 -97.5q87 0 160.5 43.5t116.5 122.5t43 180t-42.5 179.5
t-116.5 121.5t-161 43q-94 0 -167 -44t-113.5 -122t-40.5 -178zM481 1065l209 244h178l-280 -244h-107z" />
    <glyph glyph-name="athhuyen" horiz-adv-x="1262" 
d="M1049 141h143v-141h-320v123q-117 -146 -331 -146q-135 0 -245 64.5t-173.5 177.5t-63.5 250q0 135 63 249t174 179.5t245 65.5q204 0 331 -148v123h320v-141h-143v-656zM244 469q0 -151 92.5 -248.5t228.5 -97.5q87 0 160.5 43.5t116.5 122.5t43 180t-42.5 179.5
t-116.5 121.5t-161 43q-94 0 -167 -44t-113.5 -122t-40.5 -178zM748 1065h-107l-281 244h179z" />
    <glyph glyph-name="athhoi" unicode="&#x1ea3;" horiz-adv-x="1262" 
d="M1049 141h143v-141h-320v123q-117 -146 -331 -146q-135 0 -245 64.5t-173.5 177.5t-63.5 250q0 135 63 249t174 179.5t245 65.5q204 0 331 -148v123h320v-141h-143v-656zM244 469q0 -151 92.5 -248.5t228.5 -97.5q87 0 160.5 43.5t116.5 122.5t43 180t-42.5 179.5
t-116.5 121.5t-161 43q-94 0 -167 -44t-113.5 -122t-40.5 -178zM555 1065v123q51 5 83 23t32 46q-1 17 -21.5 27t-52.5 10q-67 -3 -78 -51h-90q0 58 47.5 90.5t132.5 32.5q88 0 137.5 -31t49.5 -84q0 -50 -41.5 -82.5t-114.5 -38.5v-65h-84z" />
    <glyph glyph-name="athnga" horiz-adv-x="1262" 
d="M1049 141h143v-141h-320v123q-117 -146 -331 -146q-135 0 -245 64.5t-173.5 177.5t-63.5 250q0 135 63 249t174 179.5t245 65.5q204 0 331 -148v123h320v-141h-143v-656zM244 469q0 -151 92.5 -248.5t228.5 -97.5q87 0 160.5 43.5t116.5 122.5t43 180t-42.5 179.5
t-116.5 121.5t-161 43q-94 0 -167 -44t-113.5 -122t-40.5 -178zM862 1245q-35 -153 -172 -153q-23 0 -51 4l-86 22q-18 4 -37 4q-55 0 -76 -49h-71q33 148 163 148q35 0 52 -4l78 -21q18 -4 49 -4q63 0 80 53h71z" />
    <glyph glyph-name="athnang" unicode="&#x1ea1;" horiz-adv-x="1262" 
d="M1049 141h143v-141h-320v123q-117 -146 -331 -146q-135 0 -245 64.5t-173.5 177.5t-63.5 250q0 135 63 249t174 179.5t245 65.5q204 0 331 -148v123h320v-141h-143v-656zM244 469q0 -151 92.5 -248.5t228.5 -97.5q87 0 160.5 43.5t116.5 122.5t43 180t-42.5 179.5
t-116.5 121.5t-161 43q-94 0 -167 -44t-113.5 -122t-40.5 -178zM463 -281v144h143v-144h-143z" />
    <glyph glyph-name="ahoasac" horiz-adv-x="1360" 
d="M477 147v-147h-502v147h138l419 1180h-180v148h672v-148h-182l401 -1180h141v-147h-524v147h176l-116 351h-504l-117 -351h178zM461 645h422l-176 514q-28 78 -35 133q-9 -52 -35 -133zM578 1577l208 244h179l-281 -244h-106z" />
    <glyph glyph-name="ahoahuyen" horiz-adv-x="1360" 
d="M477 147v-147h-502v147h138l419 1180h-180v148h672v-148h-182l401 -1180h141v-147h-524v147h176l-116 351h-504l-117 -351h178zM461 645h422l-176 514q-28 78 -35 133q-9 -52 -35 -133zM834 1577h-107l-281 244h179z" />
    <glyph glyph-name="ahoahoi" unicode="&#x1ea2;" horiz-adv-x="1360" 
d="M477 147v-147h-502v147h138l419 1180h-180v148h672v-148h-182l401 -1180h141v-147h-524v147h176l-116 351h-504l-117 -351h178zM461 645h422l-176 514q-28 78 -35 133q-9 -52 -35 -133zM641 1587v123q115 10 115 70q-1 15 -23 26t-51 11q-67 -3 -78 -52h-90
q0 58 47.5 90.5t132.5 32.5q88 0 137.5 -31t49.5 -83q0 -51 -42 -83.5t-114 -37.5v-66h-84z" />
    <glyph glyph-name="ahoanga" horiz-adv-x="1360" 
d="M477 147v-147h-502v147h138l419 1180h-180v148h672v-148h-182l401 -1180h141v-147h-524v147h176l-116 351h-504l-117 -351h178zM461 645h422l-176 514q-28 78 -35 133q-9 -52 -35 -133zM958 1778q-35 -154 -172 -154q-21 0 -51 4l-86 23q-18 4 -37 4q-55 0 -75 -49h-72
q33 147 164 147q35 0 51 -4l78 -20q18 -5 49 -5q65 0 80 54h71z" />
    <glyph glyph-name="ahoanang" unicode="&#x1ea0;" horiz-adv-x="1360" 
d="M477 147v-147h-502v147h138l419 1180h-180v148h672v-148h-182l401 -1180h141v-147h-524v147h176l-116 351h-504l-117 -351h178zM461 645h422l-176 514q-28 78 -35 133q-9 -52 -35 -133zM600 -268v143h143v-143h-143z" />
    <glyph glyph-name="ethsac" horiz-adv-x="1114" 
d="M1032 279q-43 -94 -113.5 -162t-164.5 -105t-199 -37q-109 0 -199.5 34.5t-157.5 101t-103 161t-36 207.5q0 144 61 254t174.5 170t262.5 60q147 0 259.5 -63.5t175.5 -183.5t63 -276v-22h-813q11 -134 104.5 -214.5t233.5 -80.5q88 0 164.5 41t123.5 115h164zM242 555
h630q-20 129 -101 196.5t-214 67.5t-214.5 -67.5t-100.5 -196.5zM403 1044l209 244h179l-281 -244h-107z" />
    <glyph glyph-name="ethhuyen" horiz-adv-x="1114" 
d="M1032 279q-43 -94 -113.5 -162t-164.5 -105t-199 -37q-109 0 -199.5 34.5t-157.5 101t-103 161t-36 207.5q0 144 61 254t174.5 170t262.5 60q147 0 259.5 -63.5t175.5 -183.5t63 -276v-22h-813q11 -134 104.5 -214.5t233.5 -80.5q88 0 164.5 41t123.5 115h164zM242 555
h630q-20 129 -101 196.5t-214 67.5t-214.5 -67.5t-100.5 -196.5zM721 1055h-107l-280 243h178z" />
    <glyph glyph-name="ethhoi" unicode="&#x1ebb;" horiz-adv-x="1114" 
d="M1032 279q-43 -94 -113.5 -162t-164.5 -105t-199 -37q-109 0 -199.5 34.5t-157.5 101t-103 161t-36 207.5q0 144 61 254t174.5 170t262.5 60q147 0 259.5 -63.5t175.5 -183.5t63 -276v-22h-813q11 -134 104.5 -214.5t233.5 -80.5q88 0 164.5 41t123.5 115h164zM242 555
h630q-20 129 -101 196.5t-214 67.5t-214.5 -67.5t-100.5 -196.5zM518 1055v123q51 5 83 23t32 46q-1 17 -21.5 27t-52.5 10q-67 -3 -78 -51h-90q0 58 47.5 90.5t132.5 32.5q88 0 137.5 -31t49.5 -84q0 -50 -42.5 -83.5t-113.5 -37.5v-65h-84z" />
    <glyph glyph-name="ethnga" unicode="&#x1ebd;" horiz-adv-x="1114" 
d="M1032 279q-43 -94 -113.5 -162t-164.5 -105t-199 -37q-109 0 -199.5 34.5t-157.5 101t-103 161t-36 207.5q0 144 61 254t174.5 170t262.5 60q147 0 259.5 -63.5t175.5 -183.5t63 -276v-22h-813q11 -134 104.5 -214.5t233.5 -80.5q88 0 164.5 41t123.5 115h164zM242 555
h630q-20 129 -101 196.5t-214 67.5t-214.5 -67.5t-100.5 -196.5zM805 1245q-37 -153 -172 -153q-23 0 -51 4l-86 22q-19 4 -37 4q-56 0 -76 -49h-72q35 148 164 148q35 0 51 -4l78 -21q19 -4 49 -4q65 0 80 53h72z" />
    <glyph glyph-name="ethnang" unicode="&#x1eb9;" horiz-adv-x="1114" 
d="M1032 279q-43 -94 -113.5 -162t-164.5 -105t-199 -37q-109 0 -199.5 34.5t-157.5 101t-103 161t-36 207.5q0 144 61 254t174.5 170t262.5 60q147 0 259.5 -63.5t175.5 -183.5t63 -276v-22h-813q11 -134 104.5 -214.5t233.5 -80.5q88 0 164.5 41t123.5 115h164zM242 555
h630q-20 129 -101 196.5t-214 67.5t-214.5 -67.5t-100.5 -196.5zM467 -272v143h143v-143h-143z" />
    <glyph glyph-name="ehoasac" horiz-adv-x="1255" 
d="M55 0v147h160v1180h-160v148h1141v-400h-174v252h-612v-469h512v-162h-512v-549h612v289h174v-436h-1141zM543 1577l209 244h178l-281 -244h-106z" />
    <glyph glyph-name="ehoahuyen" horiz-adv-x="1255" 
d="M55 0v147h160v1180h-160v148h1141v-400h-174v252h-612v-469h512v-162h-512v-549h612v289h174v-436h-1141zM809 1577h-107l-280 244h178z" />
    <glyph glyph-name="ehoahoi" unicode="&#x1eba;" horiz-adv-x="1255" 
d="M55 0v147h160v1180h-160v148h1141v-400h-174v252h-612v-469h512v-162h-512v-549h612v289h174v-436h-1141zM606 1587v123q115 10 115 70q-1 15 -23 26t-51 11q-65 -3 -78 -52h-90q0 58 47.5 90.5t132.5 32.5q88 0 137.5 -31t49.5 -83q0 -51 -42 -83.5t-114 -37.5v-66h-84z
" />
    <glyph glyph-name="ehoanga" unicode="&#x1ebc;" horiz-adv-x="1255" 
d="M55 0v147h160v1180h-160v148h1141v-400h-174v252h-612v-469h512v-162h-512v-549h612v289h174v-436h-1141zM883 1767q-37 -153 -172 -153q-22 0 -52 4l-86 22q-18 5 -36 5q-56 0 -76 -50h-72q34 148 164 148q35 0 51 -4l78 -21q18 -4 49 -4q64 0 80 53h72z" />
    <glyph glyph-name="ehoanang" unicode="&#x1eb8;" horiz-adv-x="1255" 
d="M55 0v147h160v1180h-160v148h1141v-400h-174v252h-612v-469h512v-162h-512v-549h612v289h174v-436h-1141zM545 -258v143h143v-143h-143z" />
    <glyph glyph-name="othsac" horiz-adv-x="1147" 
d="M242 471q0 -100 44 -178.5t120.5 -123t166.5 -44.5q92 0 167.5 43t120 121.5t44.5 181.5t-44.5 181.5t-120 121.5t-167.5 43q-90 0 -166.5 -44.5t-120.5 -123t-44 -178.5zM59 471q0 102 38.5 193t109 158.5t163 104t203.5 36.5q112 0 205 -37t163 -104.5t108 -157
t38 -193.5q0 -136 -66.5 -249.5t-184.5 -179t-263 -65.5t-263 65.5t-184.5 179t-66.5 249.5zM430 1055l209 243h178l-280 -243h-107z" />
    <glyph glyph-name="othhuyen" horiz-adv-x="1147" 
d="M242 471q0 -100 44 -178.5t120.5 -123t166.5 -44.5q92 0 167.5 43t120 121.5t44.5 181.5t-44.5 181.5t-120 121.5t-167.5 43q-90 0 -166.5 -44.5t-120.5 -123t-44 -178.5zM59 471q0 102 38.5 193t109 158.5t163 104t203.5 36.5q112 0 205 -37t163 -104.5t108 -157
t38 -193.5q0 -136 -66.5 -249.5t-184.5 -179t-263 -65.5t-263 65.5t-184.5 179t-66.5 249.5zM768 1044h-106l-281 244h178z" />
    <glyph glyph-name="othhoi" unicode="&#x1ecf;" horiz-adv-x="1147" 
d="M242 471q0 -100 44 -178.5t120.5 -123t166.5 -44.5q92 0 167.5 43t120 121.5t44.5 181.5t-44.5 181.5t-120 121.5t-167.5 43q-90 0 -166.5 -44.5t-120.5 -123t-44 -178.5zM59 471q0 102 38.5 193t109 158.5t163 104t203.5 36.5q112 0 205 -37t163 -104.5t108 -157
t38 -193.5q0 -136 -66.5 -249.5t-184.5 -179t-263 -65.5t-263 65.5t-184.5 179t-66.5 249.5zM545 1065v123q50 4 82 22.5t32 46.5q-1 18 -21.5 27.5t-51.5 9.5q-67 -3 -78 -51h-90q0 58 47.5 90.5t132.5 32.5q88 0 137 -31t49 -84q0 -50 -40.5 -82.5t-114.5 -38.5v-65h-84z
" />
    <glyph glyph-name="othnga" horiz-adv-x="1147" 
d="M242 471q0 -100 44 -178.5t120.5 -123t166.5 -44.5q92 0 167.5 43t120 121.5t44.5 181.5t-44.5 181.5t-120 121.5t-167.5 43q-90 0 -166.5 -44.5t-120.5 -123t-44 -178.5zM59 471q0 102 38.5 193t109 158.5t163 104t203.5 36.5q112 0 205 -37t163 -104.5t108 -157
t38 -193.5q0 -136 -66.5 -249.5t-184.5 -179t-263 -65.5t-263 65.5t-184.5 179t-66.5 249.5zM831 1235q-35 -154 -172 -154q-21 0 -51 4l-86 23q-18 4 -37 4q-55 0 -75 -49h-72q33 147 164 147q35 0 51 -4l78 -20q18 -4 49 -4q65 0 80 53h71z" />
    <glyph glyph-name="othnang" unicode="&#x1ecd;" horiz-adv-x="1147" 
d="M242 471q0 -100 44 -178.5t120.5 -123t166.5 -44.5q92 0 167.5 43t120 121.5t44.5 181.5t-44.5 181.5t-120 121.5t-167.5 43q-90 0 -166.5 -44.5t-120.5 -123t-44 -178.5zM59 471q0 102 38.5 193t109 158.5t163 104t203.5 36.5q112 0 205 -37t163 -104.5t108 -157
t38 -193.5q0 -136 -66.5 -249.5t-184.5 -179t-263 -65.5t-263 65.5t-184.5 179t-66.5 249.5zM483 -270v143h144v-143h-144z" />
    <glyph glyph-name="ohoasac" horiz-adv-x="1659" 
d="M268 737q0 -172 74.5 -308t202.5 -211t284 -75q154 0 284 75.5t204 210.5t74 308q0 172 -75 308.5t-203 211t-284 74.5q-154 0 -282.5 -74.5t-203.5 -210.5t-75 -309zM70 737q0 159 56.5 300t160 246t242.5 162.5t300 57.5q255 0 449 -141q100 -72 170.5 -169
t106.5 -212.5t36 -243.5q0 -209 -99 -386t-273 -278.5t-390 -101.5q-214 0 -388 101t-272.5 276.5t-98.5 388.5zM666 1595l208 244h179l-281 -244h-106z" />
    <glyph glyph-name="ohoahuyen" horiz-adv-x="1659" 
d="M268 737q0 -172 74.5 -308t202.5 -211t284 -75q154 0 284 75.5t204 210.5t74 308q0 172 -75 308.5t-203 211t-284 74.5q-154 0 -282.5 -74.5t-203.5 -210.5t-75 -309zM70 737q0 159 56.5 300t160 246t242.5 162.5t300 57.5q255 0 449 -141q100 -72 170.5 -169
t106.5 -212.5t36 -243.5q0 -209 -99 -386t-273 -278.5t-390 -101.5q-214 0 -388 101t-272.5 276.5t-98.5 388.5zM993 1606h-106l-281 243h178z" />
    <glyph glyph-name="ohoahoi" unicode="&#x1ece;" horiz-adv-x="1659" 
d="M268 737q0 -172 74.5 -308t202.5 -211t284 -75q154 0 284 75.5t204 210.5t74 308q0 172 -75 308.5t-203 211t-284 74.5q-154 0 -282.5 -74.5t-203.5 -210.5t-75 -309zM70 737q0 159 56.5 300t160 246t242.5 162.5t300 57.5q255 0 449 -141q100 -72 170.5 -169
t106.5 -212.5t36 -243.5q0 -209 -99 -386t-273 -278.5t-390 -101.5q-214 0 -388 101t-272.5 276.5t-98.5 388.5zM760 1616v123q50 4 82 22.5t32 46.5q-1 18 -21.5 27.5t-51.5 9.5q-67 -3 -78 -51h-90q0 58 47.5 90.5t132.5 32.5q88 0 137 -31t49 -84q0 -50 -40.5 -82.5
t-114.5 -38.5v-65h-84z" />
    <glyph glyph-name="ohoanga" horiz-adv-x="1659" 
d="M268 737q0 -172 74.5 -308t202.5 -211t284 -75q154 0 284 75.5t204 210.5t74 308q0 172 -75 308.5t-203 211t-284 74.5q-154 0 -282.5 -74.5t-203.5 -210.5t-75 -309zM70 737q0 159 56.5 300t160 246t242.5 162.5t300 57.5q255 0 449 -141q100 -72 170.5 -169
t106.5 -212.5t36 -243.5q0 -209 -99 -386t-273 -278.5t-390 -101.5q-214 0 -388 101t-272.5 276.5t-98.5 388.5zM1098 1776q-37 -154 -172 -154q-22 0 -52 4l-86 23q-18 4 -36 4q-56 0 -76 -49h-72q34 147 164 147q35 0 51 -4l78 -21q18 -4 49 -4q65 0 80 54h72z" />
    <glyph glyph-name="ohoanang" unicode="&#x1ecc;" horiz-adv-x="1659" 
d="M268 737q0 -172 74.5 -308t202.5 -211t284 -75q154 0 284 75.5t204 210.5t74 308q0 172 -75 308.5t-203 211t-284 74.5q-154 0 -282.5 -74.5t-203.5 -210.5t-75 -309zM70 737q0 159 56.5 300t160 246t242.5 162.5t300 57.5q255 0 449 -141q100 -72 170.5 -169
t106.5 -212.5t36 -243.5q0 -209 -99 -386t-273 -278.5t-390 -101.5q-214 0 -388 101t-272.5 276.5t-98.5 388.5zM729 -276v143h143v-143h-143z" />
    <glyph glyph-name="ithsac" horiz-adv-x="567" 
d="M387 141h164v-141h-500v141h162v656h-162v141h336v-797zM102 1073l209 244h178l-280 -244h-107z" />
    <glyph glyph-name="ithhuyen" horiz-adv-x="567" 
d="M387 141h164v-141h-500v141h162v656h-162v141h336v-797zM399 1073h-106l-281 244h178z" />
    <glyph glyph-name="ithhoi" unicode="&#x1ec9;" horiz-adv-x="567" 
d="M387 141h164v-141h-500v141h162v656h-162v141h336v-797zM227 1073v123q115 10 115 70q-1 15 -23 26t-51 11q-66 -5 -78 -52h-90q0 58 47.5 90.5t133.5 32.5q89 0 137.5 -31t48.5 -83q0 -51 -41 -83.5t-115 -37.5v-66h-84z" />
    <glyph glyph-name="ithnga" unicode="&#x129;" horiz-adv-x="567" 
d="M387 141h164v-141h-500v141h162v656h-162v141h336v-797zM565 1233q-35 -154 -172 -154q-23 0 -51 4l-86 23q-18 4 -37 4q-55 0 -76 -49h-71q33 147 164 147q34 0 51 -4l78 -20q18 -4 49 -4q63 0 80 53h71z" />
    <glyph glyph-name="ithnang" unicode="&#x1ecb;" horiz-adv-x="567" 
d="M387 141h164v-141h-500v141h162v656h-162v141h336v-797zM225 1135v143h144v-143h-144zM219 -279v144h143v-144h-143z" />
    <glyph glyph-name="ihoasac" horiz-adv-x="627" 
d="M410 147h161v-147h-516v147h160v1180h-160v148h516v-148h-161v-1180zM129 1587l209 244h178l-280 -244h-107z" />
    <glyph glyph-name="ihoahuyen" horiz-adv-x="627" 
d="M410 147h161v-147h-516v147h160v1180h-160v148h516v-148h-161v-1180zM477 1597h-106l-281 244h178z" />
    <glyph glyph-name="ihoahoi" unicode="&#x1ec8;" horiz-adv-x="627" 
d="M410 147h161v-147h-516v147h160v1180h-160v148h516v-148h-161v-1180zM254 1608v123q51 5 83 23t32 46q-1 17 -21.5 27t-52.5 10q-67 -3 -78 -51h-90q0 58 47.5 90.5t132.5 32.5q88 0 137.5 -31t49.5 -84q0 -51 -42 -83.5t-114 -37.5v-65h-84z" />
    <glyph glyph-name="ihoanga" unicode="&#x128;" horiz-adv-x="627" 
d="M410 147h161v-147h-516v147h160v1180h-160v148h516v-148h-161v-1180zM561 1778q-35 -154 -172 -154q-23 0 -51 4l-86 23q-19 4 -37 4q-54 0 -76 -49h-71q33 147 163 147q35 0 52 -4l77 -20q19 -5 50 -5q64 0 79 54h72z" />
    <glyph glyph-name="ihoanang" unicode="&#x1eca;" horiz-adv-x="627" 
d="M410 147h161v-147h-516v147h160v1180h-160v148h516v-148h-161v-1180zM244 -289v144h143v-144h-143z" />
    <glyph glyph-name="uthsac" horiz-adv-x="1176" 
d="M170 797h-143v141h319v-563q0 -85 10 -134.5t46.5 -77.5t109.5 -28q76 0 147.5 40t147.5 120v502h-145v141h321v-795h143v-143h-319v135q-165 -160 -342 -160q-81 0 -135.5 21t-91 65t-52.5 105.5t-16 146.5v484zM422 1071l209 244h178l-281 -244h-106z" />
    <glyph glyph-name="uthhuyen" horiz-adv-x="1176" 
d="M170 797h-143v141h319v-563q0 -85 10 -134.5t46.5 -77.5t109.5 -28q76 0 147.5 40t147.5 120v502h-145v141h321v-795h143v-143h-319v135q-165 -160 -342 -160q-81 0 -135.5 21t-91 65t-52.5 105.5t-16 146.5v484zM668 1061h-107l-280 244h178z" />
    <glyph glyph-name="uthhoi" unicode="&#x1ee7;" horiz-adv-x="1176" 
d="M170 797h-143v141h319v-563q0 -85 10 -134.5t46.5 -77.5t109.5 -28q76 0 147.5 40t147.5 120v502h-145v141h321v-795h143v-143h-319v135q-165 -160 -342 -160q-81 0 -135.5 21t-91 65t-52.5 105.5t-16 146.5v484zM496 1061v123q50 4 82 22.5t32 46.5q-1 17 -21.5 27
t-51.5 10q-67 -3 -78 -51h-90q0 58 47.5 90.5t132.5 32.5q88 0 137 -31t49 -84q0 -50 -40.5 -82.5t-114.5 -38.5v-65h-84z" />
    <glyph glyph-name="uthnga" unicode="&#x169;" horiz-adv-x="1176" 
d="M170 797h-143v141h319v-563q0 -85 10 -134.5t46.5 -77.5t109.5 -28q76 0 147.5 40t147.5 120v502h-145v141h321v-795h143v-143h-319v135q-165 -160 -342 -160q-81 0 -135.5 21t-91 65t-52.5 105.5t-16 146.5v484zM813 1241q-37 -154 -172 -154q-16 0 -51 5l-86 22
q-19 4 -37 4q-55 0 -76 -49h-72q35 148 164 148q35 0 52 -5l77 -20q19 -4 50 -4q64 0 79 53h72z" />
    <glyph glyph-name="uthnang" unicode="&#x1ee5;" horiz-adv-x="1176" 
d="M170 797h-143v141h319v-563q0 -85 10 -134.5t46.5 -77.5t109.5 -28q76 0 147.5 40t147.5 120v502h-145v141h321v-795h143v-143h-319v135q-165 -160 -342 -160q-81 0 -135.5 21t-91 65t-52.5 105.5t-16 146.5v484zM506 -293v143h143v-143h-143z" />
    <glyph glyph-name="uhoasac" horiz-adv-x="1456" 
d="M414 516q0 -128 28.5 -210.5t97.5 -123.5t187 -41t187.5 41t98.5 122.5t29 211.5v811h-161v148h518v-148h-162v-811q0 -273 -125.5 -409t-384.5 -136q-258 0 -383 136.5t-125 408.5v811h-162v148h516v-148h-159v-811zM645 1597l209 244h178l-280 -244h-107z" />
    <glyph glyph-name="uhoahuyen" horiz-adv-x="1456" 
d="M414 516q0 -128 28.5 -210.5t97.5 -123.5t187 -41t187.5 41t98.5 122.5t29 211.5v811h-161v148h518v-148h-162v-811q0 -273 -125.5 -409t-384.5 -136q-258 0 -383 136.5t-125 408.5v811h-162v148h516v-148h-159v-811zM829 1597h-106l-281 244h179z" />
    <glyph glyph-name="uhoahoi" unicode="&#x1ee6;" horiz-adv-x="1456" 
d="M414 516q0 -128 28.5 -210.5t97.5 -123.5t187 -41t187.5 41t98.5 122.5t29 211.5v811h-161v148h518v-148h-162v-811q0 -273 -125.5 -409t-384.5 -136q-258 0 -383 136.5t-125 408.5v811h-162v148h516v-148h-159v-811zM698 1618v123q51 5 83 23t32 46q-1 17 -21.5 27
t-52.5 10q-66 -3 -77 -51h-91q0 58 47.5 90.5t133.5 32.5q89 0 137.5 -31t48.5 -84q0 -50 -41 -82.5t-115 -38.5v-65h-84z" />
    <glyph glyph-name="uhoanga" unicode="&#x168;" horiz-adv-x="1456" 
d="M414 516q0 -128 28.5 -210.5t97.5 -123.5t187 -41t187.5 41t98.5 122.5t29 211.5v811h-161v148h518v-148h-162v-811q0 -273 -125.5 -409t-384.5 -136q-258 0 -383 136.5t-125 408.5v811h-162v148h516v-148h-159v-811zM1006 1778q-37 -154 -172 -154q-22 0 -52 4l-86 23
q-18 4 -37 4q-55 0 -75 -49h-72q34 147 164 147q35 0 51 -4l78 -20q18 -5 49 -5q65 0 80 54h72z" />
    <glyph glyph-name="uhoanang" unicode="&#x1ee4;" horiz-adv-x="1456" 
d="M414 516q0 -128 28.5 -210.5t97.5 -123.5t187 -41t187.5 41t98.5 122.5t29 211.5v811h-161v148h518v-148h-162v-811q0 -273 -125.5 -409t-384.5 -136q-258 0 -383 136.5t-125 408.5v811h-162v148h516v-148h-159v-811zM668 -287v144h143v-144h-143z" />
    <glyph glyph-name="ythsac" horiz-adv-x="1026" 
d="M592 -426h-490v141h172l144 326l-316 756h-125v141h451v-141h-152l234 -551l244 551h-144v141h432v-141h-124l-486 -1082h160v-141zM438 1071l209 244h178l-280 -244h-107z" />
    <glyph glyph-name="ythhuyen" unicode="&#x1ef3;" horiz-adv-x="1026" 
d="M592 -426h-490v141h172l144 326l-316 756h-125v141h451v-141h-152l234 -551l244 551h-144v141h432v-141h-124l-486 -1082h160v-141zM664 1061h-107l-281 244h179z" />
    <glyph glyph-name="ythhoi" unicode="&#x1ef7;" horiz-adv-x="1026" 
d="M592 -426h-490v141h172l144 326l-316 756h-125v141h451v-141h-152l234 -551l244 551h-144v141h432v-141h-124l-486 -1082h160v-141zM471 1061v123q51 5 83 23t32 46q-1 17 -21.5 27t-52.5 10q-67 -3 -78 -51h-90q0 58 47.5 90.5t132.5 32.5q88 0 137.5 -31t49.5 -84
q0 -50 -41.5 -82.5t-114.5 -38.5v-65h-84z" />
    <glyph glyph-name="ythnga" unicode="&#x1ef9;" horiz-adv-x="1026" 
d="M592 -426h-490v141h172l144 326l-316 756h-125v141h451v-141h-152l234 -551l244 551h-144v141h432v-141h-124l-486 -1082h160v-141zM788 1241q-18 -77 -60.5 -115.5t-111.5 -38.5q-13 0 -51 5l-86 22q-18 4 -37 4q-55 0 -75 -49h-72q33 148 164 148q35 0 51 -5l78 -20
q18 -4 49 -4q65 0 80 53h71z" />
    <glyph glyph-name="ythnang" unicode="&#x1ef5;" horiz-adv-x="1026" 
d="M592 -426h-490v141h172l144 326l-316 756h-125v141h451v-141h-152l234 -551l244 551h-144v141h432v-141h-124l-486 -1082h160v-141zM819 -428v143h144v-143h-144z" />
    <glyph glyph-name="yhoasac" horiz-adv-x="1343" 
d="M770 147h162v-147h-516v147h159v512l-387 668h-155v148h518v-148h-148l275 -489l287 489h-146v148h496v-148h-158l-387 -668v-512zM571 1618l209 244h178l-280 -244h-107z" />
    <glyph glyph-name="yhoahuyen" unicode="&#x1ef2;" horiz-adv-x="1343" 
d="M770 147h162v-147h-516v147h159v512l-387 668h-155v148h518v-148h-148l275 -489l287 489h-146v148h496v-148h-158l-387 -668v-512zM797 1587h-107l-280 244h178z" />
    <glyph glyph-name="yhoahoi" unicode="&#x1ef6;" horiz-adv-x="1343" 
d="M770 147h162v-147h-516v147h159v512l-387 668h-155v148h518v-148h-148l275 -489l287 489h-146v148h496v-148h-158l-387 -668v-512zM625 1608v123q50 4 82 22.5t32 46.5q-1 18 -21.5 27.5t-51.5 9.5q-67 -3 -78 -51h-90q0 58 47.5 90.5t132.5 32.5q88 0 137 -31t49 -84
q0 -51 -41 -83.5t-114 -37.5v-65h-84z" />
    <glyph glyph-name="yhoanga" unicode="&#x1ef8;" horiz-adv-x="1343" 
d="M770 147h162v-147h-516v147h159v512l-387 668h-155v148h518v-148h-148l275 -489l287 489h-146v148h496v-148h-158l-387 -668v-512zM952 1778q-35 -154 -172 -154q-23 0 -51 4l-86 23q-18 4 -37 4q-54 0 -76 -49h-71q33 147 164 147q34 0 51 -4l78 -20q18 -5 49 -5
q63 0 80 54h71z" />
    <glyph glyph-name="yhoanang" unicode="&#x1ef4;" horiz-adv-x="1343" 
d="M770 147h162v-147h-516v147h159v512l-387 668h-155v148h518v-148h-148l275 -489l287 489h-146v148h496v-148h-158l-387 -668v-512zM594 -289v144h143v-144h-143z" />
    <glyph glyph-name="octhsac" unicode="&#x1edb;" horiz-adv-x="1147" 
d="M242 471q0 -100 44 -178.5t120.5 -123t166.5 -44.5q92 0 167.5 43t120 121.5t44.5 181.5t-44.5 181.5t-120 121.5t-167.5 43q-90 0 -166.5 -44.5t-120.5 -123t-44 -178.5zM59 471h4q0 102 38 192t109 158.5t164.5 105t203.5 36.5q103 0 191.5 -34t153 -90.5t95.5 -117.5
q46 7 80 32.5t35 69.5h-46v140h130v-170q-3 -53 -58.5 -93.5t-107.5 -40.5q36 -78 36 -188q0 -136 -66.5 -249.5t-184.5 -179t-263 -65.5t-263 65.5t-184.5 179t-66.5 249.5zM434 1055l209 243h178l-280 -243h-107z" />
    <glyph glyph-name="octhhuyen" unicode="&#x1edd;" horiz-adv-x="1147" 
d="M242 471q0 -100 44 -178.5t120.5 -123t166.5 -44.5q92 0 167.5 43t120 121.5t44.5 181.5t-44.5 181.5t-120 121.5t-167.5 43q-90 0 -166.5 -44.5t-120.5 -123t-44 -178.5zM59 471h4q0 102 38 192t109 158.5t164.5 105t203.5 36.5q103 0 191.5 -34t153 -90.5t95.5 -117.5
q46 7 80 32.5t35 69.5h-46v140h130v-170q-3 -53 -58.5 -93.5t-107.5 -40.5q36 -78 36 -188q0 -136 -66.5 -249.5t-184.5 -179t-263 -65.5t-263 65.5t-184.5 179t-66.5 249.5zM772 1044h-106l-281 244h178z" />
    <glyph glyph-name="octhhoi" unicode="&#x1edf;" horiz-adv-x="1147" 
d="M242 471q0 -100 44 -178.5t120.5 -123t166.5 -44.5q92 0 167.5 43t120 121.5t44.5 181.5t-44.5 181.5t-120 121.5t-167.5 43q-90 0 -166.5 -44.5t-120.5 -123t-44 -178.5zM59 471h4q0 102 38 192t109 158.5t164.5 105t203.5 36.5q103 0 191.5 -34t153 -90.5t95.5 -117.5
q46 7 80 32.5t35 69.5h-46v140h130v-170q-3 -53 -58.5 -93.5t-107.5 -40.5q36 -78 36 -188q0 -136 -66.5 -249.5t-184.5 -179t-263 -65.5t-263 65.5t-184.5 179t-66.5 249.5zM549 1065v123q49 4 82 22.5t33 46.5q-1 17 -21.5 27t-52.5 10q-67 -3 -78 -51h-90q0 58 47.5 90.5
t132.5 32.5q88 0 137 -31t49 -84q0 -50 -40.5 -82.5t-114.5 -38.5v-65h-84z" />
    <glyph glyph-name="octhnga" unicode="&#x1ee1;" horiz-adv-x="1147" 
d="M242 471q0 -100 44 -178.5t120.5 -123t166.5 -44.5q92 0 167.5 43t120 121.5t44.5 181.5t-44.5 181.5t-120 121.5t-167.5 43q-90 0 -166.5 -44.5t-120.5 -123t-44 -178.5zM59 471h4q0 102 38 192t109 158.5t164.5 105t203.5 36.5q103 0 191.5 -34t153 -90.5t95.5 -117.5
q46 7 80 32.5t35 69.5h-46v140h130v-170q-3 -53 -58.5 -93.5t-107.5 -40.5q36 -78 36 -188q0 -136 -66.5 -249.5t-184.5 -179t-263 -65.5t-263 65.5t-184.5 179t-66.5 249.5zM836 1235q-37 -154 -172 -154q-22 0 -52 4l-86 23q-18 4 -37 4q-55 0 -75 -49h-72q34 147 164 147
q35 0 51 -4l78 -20q18 -4 49 -4q65 0 80 53h72z" />
    <glyph glyph-name="octhnang" unicode="&#x1ee3;" horiz-adv-x="1147" 
d="M242 471q0 -100 44 -178.5t120.5 -123t166.5 -44.5q92 0 167.5 43t120 121.5t44.5 181.5t-44.5 181.5t-120 121.5t-167.5 43q-90 0 -166.5 -44.5t-120.5 -123t-44 -178.5zM59 471h4q0 102 38 192t109 158.5t164.5 105t203.5 36.5q103 0 191.5 -34t153 -90.5t95.5 -117.5
q46 7 80 32.5t35 69.5h-46v140h130v-170q-3 -53 -58.5 -93.5t-107.5 -40.5q36 -78 36 -188q0 -136 -66.5 -249.5t-184.5 -179t-263 -65.5t-263 65.5t-184.5 179t-66.5 249.5zM487 -270v143h144v-143h-144z" />
    <glyph glyph-name="ochoasac" unicode="&#x1eda;" horiz-adv-x="1659" 
d="M268 737q0 -172 74.5 -308t202.5 -211t284 -75q154 0 284 75.5t204 210.5t74 308q0 172 -75 308.5t-203 211t-284 74.5q-154 0 -282.5 -74.5t-203.5 -210.5t-75 -309zM70 737h-2q0 159 56.5 300t160 246t242.5 162.5t300 57.5q112 0 207.5 -25.5t164 -64t113.5 -77
t85 -81.5q82 14 122.5 39.5t41.5 71.5h-45v139h129v-170q0 -37 -36 -68.5t-84 -49t-81 -17.5q51 -76 84.5 -152.5t48 -155t14.5 -155.5q0 -209 -99 -386t-273 -278.5t-390 -101.5q-214 0 -388 101t-272.5 276.5t-98.5 388.5zM664 1595l208 244h179l-281 -244h-106z" />
    <glyph glyph-name="ochoahuyen" unicode="&#x1edc;" horiz-adv-x="1659" 
d="M268 737q0 -172 74.5 -308t202.5 -211t284 -75q154 0 284 75.5t204 210.5t74 308q0 172 -75 308.5t-203 211t-284 74.5q-154 0 -282.5 -74.5t-203.5 -210.5t-75 -309zM70 737h-2q0 159 56.5 300t160 246t242.5 162.5t300 57.5q112 0 207.5 -25.5t164 -64t113.5 -77
t85 -81.5q82 14 122.5 39.5t41.5 71.5h-45v139h129v-170q0 -37 -36 -68.5t-84 -49t-81 -17.5q51 -76 84.5 -152.5t48 -155t14.5 -155.5q0 -209 -99 -386t-273 -278.5t-390 -101.5q-214 0 -388 101t-272.5 276.5t-98.5 388.5zM991 1606h-106l-281 243h178z" />
    <glyph glyph-name="ochoahoi" unicode="&#x1ede;" horiz-adv-x="1659" 
d="M268 737q0 -172 74.5 -308t202.5 -211t284 -75q154 0 284 75.5t204 210.5t74 308q0 172 -75 308.5t-203 211t-284 74.5q-154 0 -282.5 -74.5t-203.5 -210.5t-75 -309zM70 737h-2q0 159 56.5 300t160 246t242.5 162.5t300 57.5q112 0 207.5 -25.5t164 -64t113.5 -77
t85 -81.5q82 14 122.5 39.5t41.5 71.5h-45v139h129v-170q0 -37 -36 -68.5t-84 -49t-81 -17.5q51 -76 84.5 -152.5t48 -155t14.5 -155.5q0 -209 -99 -386t-273 -278.5t-390 -101.5q-214 0 -388 101t-272.5 276.5t-98.5 388.5zM758 1616v123q50 4 82 22.5t32 46.5
q-1 18 -21.5 27.5t-51.5 9.5q-67 -3 -78 -51h-90q0 58 47.5 90.5t132.5 32.5q88 0 137 -31t49 -84q0 -50 -40.5 -82.5t-114.5 -38.5v-65h-84z" />
    <glyph glyph-name="ochoanga" unicode="&#x1ee0;" horiz-adv-x="1659" 
d="M268 737q0 -172 74.5 -308t202.5 -211t284 -75q154 0 284 75.5t204 210.5t74 308q0 172 -75 308.5t-203 211t-284 74.5q-154 0 -282.5 -74.5t-203.5 -210.5t-75 -309zM70 737h-2q0 159 56.5 300t160 246t242.5 162.5t300 57.5q112 0 207.5 -25.5t164 -64t113.5 -77
t85 -81.5q82 14 122.5 39.5t41.5 71.5h-45v139h129v-170q0 -37 -36 -68.5t-84 -49t-81 -17.5q51 -76 84.5 -152.5t48 -155t14.5 -155.5q0 -209 -99 -386t-273 -278.5t-390 -101.5q-214 0 -388 101t-272.5 276.5t-98.5 388.5zM1096 1776q-37 -154 -172 -154q-22 0 -52 4
l-86 23q-18 4 -36 4q-56 0 -76 -49h-72q34 147 164 147q35 0 51 -4l78 -21q18 -4 49 -4q65 0 80 54h72z" />
    <glyph glyph-name="ochoanang" unicode="&#x1ee2;" horiz-adv-x="1659" 
d="M268 737q0 -172 74.5 -308t202.5 -211t284 -75q154 0 284 75.5t204 210.5t74 308q0 172 -75 308.5t-203 211t-284 74.5q-154 0 -282.5 -74.5t-203.5 -210.5t-75 -309zM70 737h-2q0 159 56.5 300t160 246t242.5 162.5t300 57.5q112 0 207.5 -25.5t164 -64t113.5 -77
t85 -81.5q82 14 122.5 39.5t41.5 71.5h-45v139h129v-170q0 -37 -36 -68.5t-84 -49t-81 -17.5q51 -76 84.5 -152.5t48 -155t14.5 -155.5q0 -209 -99 -386t-273 -278.5t-390 -101.5q-214 0 -388 101t-272.5 276.5t-98.5 388.5zM727 -276v143h143v-143h-143z" />
    <glyph glyph-name="ucthsac" unicode="&#x1ee9;" horiz-adv-x="1176" 
d="M170 797h-143v141h319v-563q0 -85 10 -134.5t46.5 -77.5t109.5 -28q76 0 147.5 40t147.5 120v502h-145v141h321v-242q50 9 83 34t34 69h-45v139h129v-170q0 -37 -36 -68.5t-84 -49t-81 -17.5v-490h143v-143h-319v135q-165 -160 -342 -160q-81 0 -135.5 21t-91 65
t-52.5 105.5t-16 146.5v484zM422 1071l209 244h178l-281 -244h-106z" />
    <glyph glyph-name="ucthhuyen" unicode="&#x1eeb;" horiz-adv-x="1176" 
d="M170 797h-143v141h319v-563q0 -85 10 -134.5t46.5 -77.5t109.5 -28q76 0 147.5 40t147.5 120v502h-145v141h321v-242q50 9 83 34t34 69h-45v139h129v-170q0 -37 -36 -68.5t-84 -49t-81 -17.5v-490h143v-143h-319v135q-165 -160 -342 -160q-81 0 -135.5 21t-91 65
t-52.5 105.5t-16 146.5v484zM668 1061h-107l-280 244h178z" />
    <glyph glyph-name="ucthhoi" unicode="&#x1eed;" horiz-adv-x="1176" 
d="M170 797h-143v141h319v-563q0 -85 10 -134.5t46.5 -77.5t109.5 -28q76 0 147.5 40t147.5 120v502h-145v141h321v-242q50 9 83 34t34 69h-45v139h129v-170q0 -37 -36 -68.5t-84 -49t-81 -17.5v-490h143v-143h-319v135q-165 -160 -342 -160q-81 0 -135.5 21t-91 65
t-52.5 105.5t-16 146.5v484zM496 1061v123q50 4 82 22.5t32 46.5q-1 17 -21.5 27t-51.5 10q-67 -3 -78 -51h-90q0 58 47.5 90.5t132.5 32.5q88 0 137 -31t49 -84q0 -50 -40.5 -82.5t-114.5 -38.5v-65h-84z" />
    <glyph glyph-name="ucthnga" unicode="&#x1eef;" horiz-adv-x="1176" 
d="M170 797h-143v141h319v-563q0 -85 10 -134.5t46.5 -77.5t109.5 -28q76 0 147.5 40t147.5 120v502h-145v141h321v-242q50 9 83 34t34 69h-45v139h129v-170q0 -37 -36 -68.5t-84 -49t-81 -17.5v-490h143v-143h-319v135q-165 -160 -342 -160q-81 0 -135.5 21t-91 65
t-52.5 105.5t-16 146.5v484zM813 1241q-37 -154 -172 -154q-16 0 -51 5l-86 22q-19 4 -37 4q-55 0 -76 -49h-72q35 148 164 148q35 0 52 -5l77 -20q19 -4 50 -4q64 0 79 53h72z" />
    <glyph glyph-name="ucthnang" unicode="&#x1ef1;" horiz-adv-x="1176" 
d="M170 797h-143v141h319v-563q0 -85 10 -134.5t46.5 -77.5t109.5 -28q76 0 147.5 40t147.5 120v502h-145v141h321v-242q50 9 83 34t34 69h-45v139h129v-170q0 -37 -36 -68.5t-84 -49t-81 -17.5v-490h143v-143h-319v135q-165 -160 -342 -160q-81 0 -135.5 21t-91 65
t-52.5 105.5t-16 146.5v484zM506 -293v143h143v-143h-143z" />
    <glyph glyph-name="uchoasac" unicode="&#x1ee8;" horiz-adv-x="1456" 
d="M414 516q0 -128 28.5 -210.5t97.5 -123.5t187 -41t187.5 41t98.5 122.5t29 211.5v811h-161v148h356v-242q47 6 81.5 32t35.5 70h-45v140h129v-170q0 -36 -35 -67.5t-84 -50t-82 -18.5v-653q0 -273 -125.5 -409t-384.5 -136q-258 0 -383 136.5t-125 408.5v811h-162v148
h516v-148h-159v-811zM645 1597l209 244h178l-280 -244h-107z" />
    <glyph glyph-name="uchoahuyen" unicode="&#x1eea;" horiz-adv-x="1456" 
d="M414 516q0 -128 28.5 -210.5t97.5 -123.5t187 -41t187.5 41t98.5 122.5t29 211.5v811h-161v148h356v-242q47 6 81.5 32t35.5 70h-45v140h129v-170q0 -36 -35 -67.5t-84 -50t-82 -18.5v-653q0 -273 -125.5 -409t-384.5 -136q-258 0 -383 136.5t-125 408.5v811h-162v148
h516v-148h-159v-811zM829 1597h-106l-281 244h179z" />
    <glyph glyph-name="uchoahoi" unicode="&#x1eec;" horiz-adv-x="1456" 
d="M414 516q0 -128 28.5 -210.5t97.5 -123.5t187 -41t187.5 41t98.5 122.5t29 211.5v811h-161v148h356v-242q47 6 81.5 32t35.5 70h-45v140h129v-170q0 -36 -35 -67.5t-84 -50t-82 -18.5v-653q0 -273 -125.5 -409t-384.5 -136q-258 0 -383 136.5t-125 408.5v811h-162v148
h516v-148h-159v-811zM698 1618v123q51 5 83 23t32 46q-1 17 -21.5 27t-52.5 10q-66 -3 -77 -51h-91q0 58 47.5 90.5t133.5 32.5q89 0 137.5 -31t48.5 -84q0 -50 -41 -82.5t-115 -38.5v-65h-84z" />
    <glyph glyph-name="uchoanga" unicode="&#x1eee;" horiz-adv-x="1456" 
d="M414 516q0 -128 28.5 -210.5t97.5 -123.5t187 -41t187.5 41t98.5 122.5t29 211.5v811h-161v148h356v-242q47 6 81.5 32t35.5 70h-45v140h129v-170q0 -36 -35 -67.5t-84 -50t-82 -18.5v-653q0 -273 -125.5 -409t-384.5 -136q-258 0 -383 136.5t-125 408.5v811h-162v148
h516v-148h-159v-811zM1006 1778q-37 -154 -172 -154q-22 0 -52 4l-86 23q-18 4 -37 4q-55 0 -75 -49h-72q34 147 164 147q35 0 51 -4l78 -20q18 -5 49 -5q65 0 80 54h72z" />
    <glyph glyph-name="uchoanang" unicode="&#x1ef0;" horiz-adv-x="1456" 
d="M414 516q0 -128 28.5 -210.5t97.5 -123.5t187 -41t187.5 41t98.5 122.5t29 211.5v811h-161v148h356v-242q47 6 81.5 32t35.5 70h-45v140h129v-170q0 -36 -35 -67.5t-84 -50t-82 -18.5v-653q0 -273 -125.5 -409t-384.5 -136q-258 0 -383 136.5t-125 408.5v811h-162v148
h516v-148h-159v-811zM668 -287v144h143v-144h-143z" />
    <glyph glyph-name="aathsac" unicode="&#x1eaf;" horiz-adv-x="1262" 
d="M1049 141h143v-141h-320v123q-117 -146 -331 -146q-135 0 -245 64.5t-173.5 177.5t-63.5 250q0 135 63 249t174 179.5t245 65.5q204 0 331 -148v123h320v-141h-143v-656zM244 469q0 -151 92.5 -248.5t228.5 -97.5q87 0 160.5 43.5t116.5 122.5t43 180t-42.5 179.5
t-116.5 121.5t-161 43q-94 0 -167 -44t-113.5 -122t-40.5 -178zM356 1278h78q4 -65 42.5 -94t117.5 -29t117.5 29t42.5 94h75q-7 -120 -63 -174.5t-172 -54.5q-115 0 -172 55.5t-66 173.5zM522 1329l209 244h178l-280 -244h-107z" />
    <glyph glyph-name="aathhuyen" unicode="&#x1eb1;" horiz-adv-x="1262" 
d="M1049 141h143v-141h-320v123q-117 -146 -331 -146q-135 0 -245 64.5t-173.5 177.5t-63.5 250q0 135 63 249t174 179.5t245 65.5q204 0 331 -148v123h320v-141h-143v-656zM244 469q0 -151 92.5 -248.5t228.5 -97.5q87 0 160.5 43.5t116.5 122.5t43 180t-42.5 179.5
t-116.5 121.5t-161 43q-94 0 -167 -44t-113.5 -122t-40.5 -178zM356 1278h78q4 -65 42.5 -94t117.5 -29t117.5 29t42.5 94h75q-7 -120 -63 -174.5t-172 -54.5q-115 0 -172 55.5t-66 173.5zM655 1329h-106l-281 244h178z" />
    <glyph glyph-name="aathhoi" unicode="&#x1eb3;" horiz-adv-x="1262" 
d="M1049 141h143v-141h-320v123q-117 -146 -331 -146q-135 0 -245 64.5t-173.5 177.5t-63.5 250q0 135 63 249t174 179.5t245 65.5q204 0 331 -148v123h320v-141h-143v-656zM244 469q0 -151 92.5 -248.5t228.5 -97.5q87 0 160.5 43.5t116.5 122.5t43 180t-42.5 179.5
t-116.5 121.5t-161 43q-94 0 -167 -44t-113.5 -122t-40.5 -178zM356 1278h78q4 -65 42.5 -94t117.5 -29t117.5 29t42.5 94h75q-7 -120 -63 -174.5t-172 -54.5q-115 0 -172 55.5t-66 173.5zM555 1329v123q115 10 115 70q-1 15 -23 26t-51 11q-67 -5 -78 -52h-90
q0 58 47.5 90.5t132.5 32.5q88 0 137.5 -31t49.5 -83q0 -51 -42 -83.5t-114 -37.5v-66h-84z" />
    <glyph glyph-name="aathnga" unicode="&#x1eb5;" horiz-adv-x="1262" 
d="M1049 141h143v-141h-320v123q-117 -146 -331 -146q-135 0 -245 64.5t-173.5 177.5t-63.5 250q0 135 63 249t174 179.5t245 65.5q204 0 331 -148v123h320v-141h-143v-656zM244 469q0 -151 92.5 -248.5t228.5 -97.5q87 0 160.5 43.5t116.5 122.5t43 180t-42.5 179.5
t-116.5 121.5t-161 43q-94 0 -167 -44t-113.5 -122t-40.5 -178zM356 1278h78q4 -65 42.5 -94t117.5 -29t117.5 29t42.5 94h75q-7 -120 -63 -174.5t-172 -54.5q-115 0 -172 55.5t-66 173.5zM831 1550q-35 -153 -172 -153q-21 0 -51 4l-86 22q-18 4 -37 4q-55 0 -75 -49h-72
q33 148 164 148q35 0 51 -4l78 -21q18 -4 49 -4q64 0 80 53h71z" />
    <glyph glyph-name="aathnang" unicode="&#x1eb7;" horiz-adv-x="1262" 
d="M1049 141h143v-141h-320v123q-117 -146 -331 -146q-135 0 -245 64.5t-173.5 177.5t-63.5 250q0 135 63 249t174 179.5t245 65.5q204 0 331 -148v123h320v-141h-143v-656zM244 469q0 -151 92.5 -248.5t228.5 -97.5q87 0 160.5 43.5t116.5 122.5t43 180t-42.5 179.5
t-116.5 121.5t-161 43q-94 0 -167 -44t-113.5 -122t-40.5 -178zM356 1278h78q4 -65 42.5 -94t117.5 -29t117.5 29t42.5 94h75q-7 -120 -63 -174.5t-172 -54.5q-115 0 -172 55.5t-66 173.5zM514 -270v143h143v-143h-143z" />
    <glyph glyph-name="aahoasac" unicode="&#x1eae;" horiz-adv-x="1360" 
d="M477 147v-147h-502v147h138l419 1180h-180v148h672v-148h-182l401 -1180h141v-147h-524v147h176l-116 351h-504l-117 -351h178zM461 645h422l-176 514q-28 78 -35 133q-9 -52 -35 -133zM442 1792h78q4 -65 42.5 -94t117.5 -29t117.5 29t42.5 94h75q-7 -120 -63 -174.5
t-172 -54.5q-115 0 -172 55.5t-66 173.5zM608 1843l209 244h178l-280 -244h-107z" />
    <glyph glyph-name="aahoahuyen" unicode="&#x1eb0;" horiz-adv-x="1360" 
d="M477 147v-147h-502v147h138l419 1180h-180v148h672v-148h-182l401 -1180h141v-147h-524v147h176l-116 351h-504l-117 -351h178zM461 645h422l-176 514q-28 78 -35 133q-9 -52 -35 -133zM442 1792h78q4 -65 42.5 -94t117.5 -29t117.5 29t42.5 94h75q-7 -120 -63 -174.5
t-172 -54.5q-115 0 -172 55.5t-66 173.5zM741 1843h-106l-281 244h178z" />
    <glyph glyph-name="aahoahoi" unicode="&#x1eb2;" horiz-adv-x="1360" 
d="M477 147v-147h-502v147h138l419 1180h-180v148h672v-148h-182l401 -1180h141v-147h-524v147h176l-116 351h-504l-117 -351h178zM461 645h422l-176 514q-28 78 -35 133q-9 -52 -35 -133zM442 1792h78q4 -65 42.5 -94t117.5 -29t117.5 29t42.5 94h75q-7 -120 -63 -174.5
t-172 -54.5q-115 0 -172 55.5t-66 173.5zM641 1823v123q51 5 83 23t32 46q-1 17 -21.5 27t-52.5 10q-67 -3 -78 -51h-90q0 58 47.5 90.5t132.5 32.5q88 0 137.5 -31t49.5 -84q0 -50 -42.5 -83.5t-113.5 -37.5v-65h-84z" />
    <glyph glyph-name="aahoanga" unicode="&#x1eb4;" horiz-adv-x="1360" 
d="M477 147v-147h-502v147h138l419 1180h-180v148h672v-148h-182l401 -1180h141v-147h-524v147h176l-116 351h-504l-117 -351h178zM461 645h422l-176 514q-28 78 -35 133q-9 -52 -35 -133zM442 1792h78q4 -65 42.5 -94t117.5 -29t117.5 29t42.5 94h75q-7 -120 -63 -174.5
t-172 -54.5q-115 0 -172 55.5t-66 173.5zM918 2064q-37 -153 -173 -153q-21 0 -51 4l-86 22q-18 5 -37 5q-55 0 -75 -50h-72q33 148 164 148q35 0 51 -4l78 -21q18 -4 49 -4q64 0 80 53h72z" />
    <glyph glyph-name="aahoanang" unicode="&#x1eb6;" horiz-adv-x="1360" 
d="M477 147v-147h-502v147h138l419 1180h-180v148h672v-148h-182l401 -1180h141v-147h-524v147h176l-116 351h-504l-117 -351h178zM461 645h422l-176 514q-28 78 -35 133q-9 -52 -35 -133zM442 1792h78q4 -65 42.5 -94t117.5 -29t117.5 29t42.5 94h75q-7 -120 -63 -174.5
t-172 -54.5q-115 0 -172 55.5t-66 173.5zM590 -248v144h143v-144h-143z" />
    <glyph glyph-name="abthsac" unicode="&#x1ea5;" horiz-adv-x="1262" 
d="M1049 141h143v-141h-320v123q-117 -146 -331 -146q-135 0 -245 64.5t-173.5 177.5t-63.5 250q0 135 63 249t174 179.5t245 65.5q204 0 331 -148v123h320v-141h-143v-656zM244 469q0 -151 92.5 -248.5t228.5 -97.5q87 0 160.5 43.5t116.5 122.5t43 180t-42.5 179.5
t-116.5 121.5t-161 43q-94 0 -167 -44t-113.5 -122t-40.5 -178zM397 1053l174 243h160l176 -243h-94l-160 168l-161 -168h-95zM881 1204l209 244h178l-281 -244h-106z" />
    <glyph glyph-name="abthhuyen" unicode="&#x1ea7;" horiz-adv-x="1262" 
d="M1049 141h143v-141h-320v123q-117 -146 -331 -146q-135 0 -245 64.5t-173.5 177.5t-63.5 250q0 135 63 249t174 179.5t245 65.5q204 0 331 -148v123h320v-141h-143v-656zM244 469q0 -151 92.5 -248.5t228.5 -97.5q87 0 160.5 43.5t116.5 122.5t43 180t-42.5 179.5
t-116.5 121.5t-161 43q-94 0 -167 -44t-113.5 -122t-40.5 -178zM397 1053l174 243h160l176 -243h-94l-160 168l-161 -168h-95zM973 1296h-107l-280 244h178z" />
    <glyph glyph-name="abthhoi" unicode="&#x1ea9;" horiz-adv-x="1262" 
d="M1049 141h143v-141h-320v123q-117 -146 -331 -146q-135 0 -245 64.5t-173.5 177.5t-63.5 250q0 135 63 249t174 179.5t245 65.5q204 0 331 -148v123h320v-141h-143v-656zM244 469q0 -151 92.5 -248.5t228.5 -97.5q87 0 160.5 43.5t116.5 122.5t43 180t-42.5 179.5
t-116.5 121.5t-161 43q-94 0 -167 -44t-113.5 -122t-40.5 -178zM397 1053l174 243h160l176 -243h-94l-160 168l-161 -168h-95zM862 1235v123q51 5 83 23t32 46q-1 17 -21.5 27t-52.5 10q-66 -3 -78 -51h-90q0 58 47.5 90.5t132.5 32.5q88 0 137.5 -31t49.5 -84
q0 -50 -41.5 -82.5t-114.5 -38.5v-65h-84z" />
    <glyph glyph-name="abthnga" unicode="&#x1eab;" horiz-adv-x="1262" 
d="M1049 141h143v-141h-320v123q-117 -146 -331 -146q-135 0 -245 64.5t-173.5 177.5t-63.5 250q0 135 63 249t174 179.5t245 65.5q204 0 331 -148v123h320v-141h-143v-656zM244 469q0 -151 92.5 -248.5t228.5 -97.5q87 0 160.5 43.5t116.5 122.5t43 180t-42.5 179.5
t-116.5 121.5t-161 43q-94 0 -167 -44t-113.5 -122t-40.5 -178zM397 1053l174 243h160l176 -243h-94l-160 168l-161 -168h-95zM893 1538q-37 -154 -172 -154q-28 0 -51 5l-86 22q-19 4 -37 4q-56 0 -76 -49h-72q34 147 164 147q35 0 51 -4l78 -20q19 -4 49 -4q65 0 80 53h72
z" />
    <glyph glyph-name="abthnang" unicode="&#x1ead;" horiz-adv-x="1262" 
d="M1049 141h143v-141h-320v123q-117 -146 -331 -146q-135 0 -245 64.5t-173.5 177.5t-63.5 250q0 135 63 249t174 179.5t245 65.5q204 0 331 -148v123h320v-141h-143v-656zM244 469q0 -151 92.5 -248.5t228.5 -97.5q87 0 160.5 43.5t116.5 122.5t43 180t-42.5 179.5
t-116.5 121.5t-161 43q-94 0 -167 -44t-113.5 -122t-40.5 -178zM397 1053l174 243h160l176 -243h-94l-160 168l-161 -168h-95zM555 -281v144h143v-144h-143z" />
    <glyph glyph-name="abhoasac" unicode="&#x1ea4;" horiz-adv-x="1360" 
d="M477 147v-147h-502v147h138l419 1180h-180v148h672v-148h-182l401 -1180h141v-147h-524v147h176l-116 351h-504l-117 -351h178zM461 645h422l-176 514q-28 78 -35 133q-9 -52 -35 -133zM422 1567l174 243h160l176 -243h-94l-160 168l-162 -168h-94zM905 1718l209 244h178
l-280 -244h-107z" />
    <glyph glyph-name="abhoahuyen" unicode="&#x1ea6;" horiz-adv-x="1360" 
d="M477 147v-147h-502v147h138l419 1180h-180v148h672v-148h-182l401 -1180h141v-147h-524v147h176l-116 351h-504l-117 -351h178zM461 645h422l-176 514q-28 78 -35 133q-9 -52 -35 -133zM422 1567l174 243h160l176 -243h-94l-160 168l-162 -168h-94zM997 1810h-106
l-281 244h178z" />
    <glyph glyph-name="abhoahoi" unicode="&#x1ea8;" horiz-adv-x="1360" 
d="M477 147v-147h-502v147h138l419 1180h-180v148h672v-148h-182l401 -1180h141v-147h-524v147h176l-116 351h-504l-117 -351h178zM461 645h422l-176 514q-28 78 -35 133q-9 -52 -35 -133zM422 1567l174 243h160l176 -243h-94l-160 168l-162 -168h-94zM887 1749v123
q51 5 82.5 23.5t31.5 46.5q-2 17 -22 26.5t-51 9.5q-67 -3 -78 -51h-90q0 58 47.5 90.5t132.5 32.5q88 0 137 -31t49 -84q0 -50 -41 -82.5t-114 -37.5v-66h-84z" />
    <glyph glyph-name="abhoanga" unicode="&#x1eaa;" horiz-adv-x="1360" 
d="M477 147v-147h-502v147h138l419 1180h-180v148h672v-148h-182l401 -1180h141v-147h-524v147h176l-116 351h-504l-117 -351h178zM461 645h422l-176 514q-28 78 -35 133q-9 -52 -35 -133zM422 1567l174 243h160l176 -243h-94l-160 168l-162 -168h-94zM918 2052
q-18 -77 -61 -115.5t-112 -38.5q-13 0 -51 5l-86 22q-18 4 -37 4q-55 0 -75 -49h-72q33 148 164 148q35 0 51 -5l78 -20q18 -4 49 -4q65 0 80 53h72z" />
    <glyph glyph-name="abhoanang" unicode="&#x1eac;" horiz-adv-x="1360" 
d="M477 147v-147h-502v147h138l419 1180h-180v148h672v-148h-182l401 -1180h141v-147h-524v147h176l-116 351h-504l-117 -351h178zM461 645h422l-176 514q-28 78 -35 133q-9 -52 -35 -133zM422 1567l174 243h160l176 -243h-94l-160 168l-162 -168h-94zM580 -238v144h143
v-144h-143z" />
    <glyph glyph-name="ebthsac" unicode="&#x1ebf;" horiz-adv-x="1114" 
d="M1032 279q-43 -94 -113.5 -162t-164.5 -105t-199 -37q-109 0 -199.5 34.5t-157.5 101t-103 161t-36 207.5q0 144 61 254t174.5 170t262.5 60q147 0 259.5 -63.5t175.5 -183.5t63 -276v-22h-813q11 -134 104.5 -214.5t233.5 -80.5q88 0 164.5 41t123.5 115h164zM242 555
h630q-20 129 -101 196.5t-214 67.5t-214.5 -67.5t-100.5 -196.5zM299 1036l174 244h160l176 -244h-94l-160 168l-162 -168h-94zM782 1188l209 244h178l-280 -244h-107z" />
    <glyph glyph-name="ebthhuyen" unicode="&#x1ec1;" horiz-adv-x="1114" 
d="M1032 279q-43 -94 -113.5 -162t-164.5 -105t-199 -37q-109 0 -199.5 34.5t-157.5 101t-103 161t-36 207.5q0 144 61 254t174.5 170t262.5 60q147 0 259.5 -63.5t175.5 -183.5t63 -276v-22h-813q11 -134 104.5 -214.5t233.5 -80.5q88 0 164.5 41t123.5 115h164zM242 555
h630q-20 129 -101 196.5t-214 67.5t-214.5 -67.5t-100.5 -196.5zM299 1036l174 244h160l176 -244h-94l-160 168l-162 -168h-94zM874 1280h-106l-281 244h179z" />
    <glyph glyph-name="ebthhoi" unicode="&#x1ec3;" horiz-adv-x="1114" 
d="M1032 279q-43 -94 -113.5 -162t-164.5 -105t-199 -37q-109 0 -199.5 34.5t-157.5 101t-103 161t-36 207.5q0 144 61 254t174.5 170t262.5 60q147 0 259.5 -63.5t175.5 -183.5t63 -276v-22h-813q11 -134 104.5 -214.5t233.5 -80.5q88 0 164.5 41t123.5 115h164zM242 555
h630q-20 129 -101 196.5t-214 67.5t-214.5 -67.5t-100.5 -196.5zM299 1036l174 244h160l176 -244h-94l-160 168l-162 -168h-94zM764 1219v122q115 12 115 70q-1 17 -21.5 27t-52.5 10q-67 -3 -78 -51h-90q0 58 47.5 90.5t132.5 32.5q88 0 137.5 -31t49.5 -84
q0 -51 -42 -83.5t-114 -37.5v-65h-84z" />
    <glyph glyph-name="ebthnga" unicode="&#x1ec5;" horiz-adv-x="1114" 
d="M1032 279q-43 -94 -113.5 -162t-164.5 -105t-199 -37q-109 0 -199.5 34.5t-157.5 101t-103 161t-36 207.5q0 144 61 254t174.5 170t262.5 60q147 0 259.5 -63.5t175.5 -183.5t63 -276v-22h-813q11 -134 104.5 -214.5t233.5 -80.5q88 0 164.5 41t123.5 115h164zM242 555
h630q-20 129 -101 196.5t-214 67.5t-214.5 -67.5t-100.5 -196.5zM299 1036l174 244h160l176 -244h-94l-160 168l-162 -168h-94zM795 1522q-37 -154 -172 -154q-22 0 -52 4l-86 23q-18 4 -36 4q-56 0 -76 -49h-72q34 147 164 147q35 0 51 -4l78 -20q18 -5 49 -5q65 0 80 54
h72z" />
    <glyph glyph-name="ebthnang" unicode="&#x1ec7;" horiz-adv-x="1114" 
d="M1032 279q-43 -94 -113.5 -162t-164.5 -105t-199 -37q-109 0 -199.5 34.5t-157.5 101t-103 161t-36 207.5q0 144 61 254t174.5 170t262.5 60q147 0 259.5 -63.5t175.5 -183.5t63 -276v-22h-813q11 -134 104.5 -214.5t233.5 -80.5q88 0 164.5 41t123.5 115h164zM242 555
h630q-20 129 -101 196.5t-214 67.5t-214.5 -67.5t-100.5 -196.5zM299 1036l174 244h160l176 -244h-94l-160 168l-162 -168h-94zM457 -276v143h143v-143h-143z" />
    <glyph glyph-name="ebhoasac" unicode="&#x1ebe;" horiz-adv-x="1255" 
d="M55 0v147h160v1180h-160v148h1141v-400h-174v252h-612v-469h512v-162h-512v-549h612v289h174v-436h-1141zM403 1571l175 244h159l176 -244h-94l-160 168l-161 -168h-95zM887 1722l209 244h178l-281 -244h-106z" />
    <glyph glyph-name="ebhoahuyen" unicode="&#x1ec0;" horiz-adv-x="1255" 
d="M55 0v147h160v1180h-160v148h1141v-400h-174v252h-612v-469h512v-162h-512v-549h612v289h174v-436h-1141zM403 1571l175 244h159l176 -244h-94l-160 168l-161 -168h-95zM979 1815h-107l-280 243h178z" />
    <glyph glyph-name="ebhoahoi" unicode="&#x1ec2;" horiz-adv-x="1255" 
d="M55 0v147h160v1180h-160v148h1141v-400h-174v252h-612v-469h512v-162h-512v-549h612v289h174v-436h-1141zM403 1571l175 244h159l176 -244h-94l-160 168l-161 -168h-95zM868 1753v123q115 10 115 70q-1 16 -21.5 26t-52.5 10q-66 -3 -78 -51h-90q0 58 47.5 90.5
t133.5 32.5q89 0 137.5 -31t48.5 -84q0 -50 -41 -82.5t-115 -37.5v-66h-84z" />
    <glyph glyph-name="ebhoanga" unicode="&#x1ec4;" horiz-adv-x="1255" 
d="M55 0v147h160v1180h-160v148h1141v-400h-174v252h-612v-469h512v-162h-512v-549h612v289h174v-436h-1141zM403 1571l175 244h159l176 -244h-94l-160 168l-161 -168h-95zM899 2056q-37 -153 -172 -153q-23 0 -51 4l-86 22q-19 4 -37 4q-55 0 -76 -49h-71q33 148 163 148
q35 0 52 -4l77 -21q19 -4 50 -4q64 0 79 53h72z" />
    <glyph glyph-name="ebhoanang" unicode="&#x1ec6;" horiz-adv-x="1255" 
d="M55 0v147h160v1180h-160v148h1141v-400h-174v252h-612v-469h512v-162h-512v-549h612v289h174v-436h-1141zM403 1571l175 244h159l176 -244h-94l-160 168l-161 -168h-95zM582 -254v143h143v-143h-143z" />
    <glyph glyph-name="obthsac" unicode="&#x1ed1;" horiz-adv-x="1147" 
d="M242 471q0 -100 44 -178.5t120.5 -123t166.5 -44.5q92 0 167.5 43t120 121.5t44.5 181.5t-44.5 181.5t-120 121.5t-167.5 43q-90 0 -166.5 -44.5t-120.5 -123t-44 -178.5zM59 471q0 102 38.5 193t109 158.5t163 104t203.5 36.5q112 0 205 -37t163 -104.5t108 -157
t38 -193.5q0 -136 -66.5 -249.5t-184.5 -179t-263 -65.5t-263 65.5t-184.5 179t-66.5 249.5zM326 1044l174 244h159l177 -244h-95l-159 168l-162 -168h-94zM809 1196l209 244h178l-281 -244h-106z" />
    <glyph glyph-name="obthhuyen" unicode="&#x1ed3;" horiz-adv-x="1147" 
d="M242 471q0 -100 44 -178.5t120.5 -123t166.5 -44.5q92 0 167.5 43t120 121.5t44.5 181.5t-44.5 181.5t-120 121.5t-167.5 43q-90 0 -166.5 -44.5t-120.5 -123t-44 -178.5zM59 471q0 102 38.5 193t109 158.5t163 104t203.5 36.5q112 0 205 -37t163 -104.5t108 -157
t38 -193.5q0 -136 -66.5 -249.5t-184.5 -179t-263 -65.5t-263 65.5t-184.5 179t-66.5 249.5zM326 1044l174 244h159l177 -244h-95l-159 168l-162 -168h-94zM901 1288h-106l-281 244h178z" />
    <glyph glyph-name="obthhoi" unicode="&#x1ed5;" horiz-adv-x="1147" 
d="M242 471q0 -100 44 -178.5t120.5 -123t166.5 -44.5q92 0 167.5 43t120 121.5t44.5 181.5t-44.5 181.5t-120 121.5t-167.5 43q-90 0 -166.5 -44.5t-120.5 -123t-44 -178.5zM59 471q0 102 38.5 193t109 158.5t163 104t203.5 36.5q112 0 205 -37t163 -104.5t108 -157
t38 -193.5q0 -136 -66.5 -249.5t-184.5 -179t-263 -65.5t-263 65.5t-184.5 179t-66.5 249.5zM326 1044l174 244h159l177 -244h-95l-159 168l-162 -168h-94zM791 1227v123q50 4 82 22.5t32 46.5q-1 17 -21.5 27t-52.5 10q-66 -3 -77 -51h-90q0 58 47.5 90.5t132.5 32.5
q88 0 137 -31t49 -84q0 -50 -42 -83.5t-114 -37.5v-65h-83z" />
    <glyph glyph-name="obthnga" unicode="&#x1ed7;" horiz-adv-x="1147" 
d="M242 471q0 -100 44 -178.5t120.5 -123t166.5 -44.5q92 0 167.5 43t120 121.5t44.5 181.5t-44.5 181.5t-120 121.5t-167.5 43q-90 0 -166.5 -44.5t-120.5 -123t-44 -178.5zM59 471q0 102 38.5 193t109 158.5t163 104t203.5 36.5q112 0 205 -37t163 -104.5t108 -157
t38 -193.5q0 -136 -66.5 -249.5t-184.5 -179t-263 -65.5t-263 65.5t-184.5 179t-66.5 249.5zM326 1044l174 244h159l177 -244h-95l-159 168l-162 -168h-94zM821 1530q-35 -154 -172 -154q-23 0 -51 4l-86 23q-18 4 -37 4q-55 0 -76 -49h-71q33 147 164 147q34 0 51 -4
l78 -20q18 -4 49 -4q63 0 80 53h71z" />
    <glyph glyph-name="obthnang" unicode="&#x1ed9;" horiz-adv-x="1147" 
d="M242 471q0 -100 44 -178.5t120.5 -123t166.5 -44.5q92 0 167.5 43t120 121.5t44.5 181.5t-44.5 181.5t-120 121.5t-167.5 43q-90 0 -166.5 -44.5t-120.5 -123t-44 -178.5zM59 471q0 102 38.5 193t109 158.5t163 104t203.5 36.5q112 0 205 -37t163 -104.5t108 -157
t38 -193.5q0 -136 -66.5 -249.5t-184.5 -179t-263 -65.5t-263 65.5t-184.5 179t-66.5 249.5zM326 1044l174 244h159l177 -244h-95l-159 168l-162 -168h-94zM483 -289v144h144v-144h-144z" />
    <glyph glyph-name="obhoasac" unicode="&#x1ed0;" horiz-adv-x="1659" 
d="M268 737q0 -172 74.5 -308t202.5 -211t284 -75q154 0 284 75.5t204 210.5t74 308q0 172 -75 308.5t-203 211t-284 74.5q-154 0 -282.5 -74.5t-203.5 -210.5t-75 -309zM70 737q0 159 56.5 300t160 246t242.5 162.5t300 57.5q255 0 449 -141q100 -72 170.5 -169
t106.5 -212.5t36 -243.5q0 -209 -99 -386t-273 -278.5t-390 -101.5q-214 0 -388 101t-272.5 276.5t-98.5 388.5zM571 1567l174 243h160l176 -243h-94l-160 168l-161 -168h-95zM1055 1718l209 244h178l-281 -244h-106z" />
    <glyph glyph-name="obhoahuyen" unicode="&#x1ed2;" horiz-adv-x="1659" 
d="M268 737q0 -172 74.5 -308t202.5 -211t284 -75q154 0 284 75.5t204 210.5t74 308q0 172 -75 308.5t-203 211t-284 74.5q-154 0 -282.5 -74.5t-203.5 -210.5t-75 -309zM70 737q0 159 56.5 300t160 246t242.5 162.5t300 57.5q255 0 449 -141q100 -72 170.5 -169
t106.5 -212.5t36 -243.5q0 -209 -99 -386t-273 -278.5t-390 -101.5q-214 0 -388 101t-272.5 276.5t-98.5 388.5zM571 1567l174 243h160l176 -243h-94l-160 168l-161 -168h-95zM1147 1810h-107l-280 244h178z" />
    <glyph glyph-name="obhoahoi" unicode="&#x1ed4;" horiz-adv-x="1659" 
d="M268 737q0 -172 74.5 -308t202.5 -211t284 -75q154 0 284 75.5t204 210.5t74 308q0 172 -75 308.5t-203 211t-284 74.5q-154 0 -282.5 -74.5t-203.5 -210.5t-75 -309zM70 737q0 159 56.5 300t160 246t242.5 162.5t300 57.5q255 0 449 -141q100 -72 170.5 -169
t106.5 -212.5t36 -243.5q0 -209 -99 -386t-273 -278.5t-390 -101.5q-214 0 -388 101t-272.5 276.5t-98.5 388.5zM571 1567l174 243h160l176 -243h-94l-160 168l-161 -168h-95zM1036 1749v123q115 10 115 70q-1 16 -21.5 26t-52.5 10q-66 -3 -78 -51h-90q0 58 47.5 90.5
t133.5 32.5q89 0 137.5 -31t48.5 -84q0 -50 -41 -82.5t-115 -37.5v-66h-84z" />
    <glyph glyph-name="obhoanga" unicode="&#x1ed6;" horiz-adv-x="1659" 
d="M268 737q0 -172 74.5 -308t202.5 -211t284 -75q154 0 284 75.5t204 210.5t74 308q0 172 -75 308.5t-203 211t-284 74.5q-154 0 -282.5 -74.5t-203.5 -210.5t-75 -309zM70 737q0 159 56.5 300t160 246t242.5 162.5t300 57.5q255 0 449 -141q100 -72 170.5 -169
t106.5 -212.5t36 -243.5q0 -209 -99 -386t-273 -278.5t-390 -101.5q-214 0 -388 101t-272.5 276.5t-98.5 388.5zM571 1567l174 243h160l176 -243h-94l-160 168l-161 -168h-95zM1067 2052q-37 -154 -172 -154q-16 0 -51 5l-86 22q-19 4 -37 4q-56 0 -76 -49h-72
q35 148 164 148q35 0 51 -5l78 -20q19 -4 49 -4q65 0 80 53h72z" />
    <glyph glyph-name="obhoanang" unicode="&#x1ed8;" horiz-adv-x="1659" 
d="M268 737q0 -172 74.5 -308t202.5 -211t284 -75q154 0 284 75.5t204 210.5t74 308q0 172 -75 308.5t-203 211t-284 74.5q-154 0 -282.5 -74.5t-203.5 -210.5t-75 -309zM70 737q0 159 56.5 300t160 246t242.5 162.5t300 57.5q255 0 449 -141q100 -72 170.5 -169
t106.5 -212.5t36 -243.5q0 -209 -99 -386t-273 -278.5t-390 -101.5q-214 0 -388 101t-272.5 276.5t-98.5 388.5zM571 1567l174 243h160l176 -243h-94l-160 168l-161 -168h-95zM739 -268v143h144v-143h-144z" />
    <glyph glyph-name="asacth" unicode="&#xf00a;" 
d="M-696 1044l209 244h178l-281 -244h-106z" />
    <glyph glyph-name="ahuyenth" unicode="&#xf00f;" 
d="M-410 1055h-106l-281 243h179z" />
    <glyph glyph-name="ahoith" unicode="&#xf014;" 
d="M-643 1065v123q51 5 83 23t32 46q-1 17 -21.5 27t-52.5 10q-67 -3 -78 -51h-90q0 58 47.5 90.5t132.5 32.5q88 0 137.5 -31t49.5 -84q0 -50 -41.5 -82.5t-114.5 -38.5v-65h-84z" />
    <glyph glyph-name="angath" unicode="&#xf019;" 
d="M-315 1255q-37 -153 -172 -153q-22 0 -52 4l-86 22q-18 5 -37 5q-55 0 -75 -50h-72q34 148 164 148q35 0 51 -4l78 -21q18 -4 49 -4q64 0 80 53h72z" />
    <glyph glyph-name="angath" unicode="&#xf01b;" 
d="M-315 1255q-37 -153 -172 -153q-22 0 -52 4l-86 22q-18 5 -37 5q-55 0 -75 -50h-72q34 148 164 148q35 0 51 -4l78 -21q18 -4 49 -4q64 0 80 53h72z" />
    <glyph glyph-name="angath" unicode="&#xf01a;" 
d="M-315 1255q-37 -153 -172 -153q-22 0 -52 4l-86 22q-18 5 -37 5q-55 0 -75 -50h-72q34 148 164 148q35 0 51 -4l78 -21q18 -4 49 -4q64 0 80 53h72z" />
    <glyph glyph-name="anangth" unicode="&#xf023;" 
d="M-653 -270v143h143v-143h-143z" />
    <glyph glyph-name="anangth" unicode="&#xf02c;" 
d="M-653 -270v143h143v-143h-143z" />
    <glyph glyph-name="anangth" unicode="&#xf028;" 
d="M-653 -270v143h143v-143h-143z" />
    <glyph glyph-name="anangth" unicode="&#xf027;" 
d="M-653 -270v143h143v-143h-143z" />
    <glyph glyph-name="anangth" unicode="&#xf026;" 
d="M-653 -270v143h143v-143h-143z" />
    <glyph glyph-name="anangth" unicode="&#xf025;" 
d="M-653 -270v143h143v-143h-143z" />
    <glyph glyph-name="anangth" unicode="&#xf024;" 
d="M-653 -270v143h143v-143h-143z" />
    <glyph glyph-name="aasacth" unicode="&#xf009;" 
d="M-745 1321l208 244h179l-281 -244h-106z" />
    <glyph glyph-name="aahuyenth" unicode="&#xf00e;" 
d="M-592 1331h-106l-281 244h178z" />
    <glyph glyph-name="aahoith" unicode="&#xf013;" 
d="M-713 1290v123q115 10 115 70q-1 15 -23 26t-51 11q-65 -3 -78 -52h-90q0 58 47.5 90.5t133.5 32.5q89 0 137.5 -31t48.5 -83q0 -51 -41 -83.5t-115 -37.5v-66h-84z" />
    <glyph glyph-name="aangath" unicode="&#xf018;" 
d="M-406 1542q-35 -153 -172 -153q-21 0 -51 4l-86 22q-18 4 -37 4q-55 0 -75 -49h-72q33 148 164 148q35 0 51 -5l78 -20q18 -4 49 -4q65 0 80 53h71z" />
    <glyph glyph-name="absacth" unicode="&#x301;" 
d="M-350 1204l209 244h178l-281 -244h-106z" />
    <glyph glyph-name="absacth" unicode="&#x302;" 
d="M-350 1204l209 244h178l-281 -244h-106z" />
    <glyph glyph-name="abhuyenth" unicode="&#x300;" 
d="M-248 1266h-106l-281 243h178z" />
    <glyph glyph-name="abhoith" unicode="&#x309;" 
d="M-348 1225v123q49 4 82 22.5t33 46.5q-1 17 -22 27t-52 10q-67 -3 -78 -51h-90q0 58 47.5 90.5t132.5 32.5q88 0 137 -31t49 -84q0 -51 -41 -83.5t-114 -37.5v-65h-84z" />
    <glyph glyph-name="abngath" unicode="&#x303;" 
d="M-317 1538q-37 -154 -172 -154q-27 0 -52 5l-86 22q-18 4 -37 4q-55 0 -75 -49h-72q34 147 164 147q35 0 51 -4l78 -20q18 -4 49 -4q65 0 80 53h72z" />
    <glyph glyph-name="asachoa" unicode="&#x341;" 
d="M-881 1597l209 244h178l-280 -244h-107z" />
    <glyph glyph-name="asachoa" unicode="&#xf007;" 
d="M-881 1597l209 244h178l-280 -244h-107z" />
    <glyph glyph-name="ahuyenhoa" unicode="&#x340;" 
d="M-625 1587h-106l-281 244h178z" />
    <glyph glyph-name="ahuyenhoa" unicode="&#xf00c;" 
d="M-625 1587h-106l-281 244h178z" />
    <glyph glyph-name="ahoihoa" unicode="&#xf011;" 
d="M-756 1587v123q115 10 115 70q-1 15 -23 26t-51 11q-65 -3 -78 -52h-90q0 58 47.5 90.5t133.5 32.5q89 0 137.5 -31t48.5 -83q0 -51 -41 -83.5t-115 -37.5v-66h-84z" />
    <glyph glyph-name="angahoa" unicode="&#x342;" 
d="M-500 1767q-35 -153 -172 -153q-23 0 -51 4l-86 22q-18 5 -37 5q-55 0 -76 -50h-71q33 148 164 148q34 0 51 -4l78 -21q18 -4 49 -4q63 0 80 53h71z" />
    <glyph glyph-name="angahoa" unicode="&#xf030;" 
d="M-500 1767q-35 -153 -172 -153q-23 0 -51 4l-86 22q-18 5 -37 5q-55 0 -76 -50h-71q33 148 164 148q34 0 51 -4l78 -21q18 -4 49 -4q63 0 80 53h71z" />
    <glyph glyph-name="angahoa" unicode="&#xf02e;" 
d="M-500 1767q-35 -153 -172 -153q-23 0 -51 4l-86 22q-18 5 -37 5q-55 0 -76 -50h-71q33 148 164 148q34 0 51 -4l78 -21q18 -4 49 -4q63 0 80 53h71z" />
    <glyph glyph-name="angahoa" unicode="&#xf01c;" 
d="M-500 1767q-35 -153 -172 -153q-23 0 -51 4l-86 22q-18 5 -37 5q-55 0 -76 -50h-71q33 148 164 148q34 0 51 -4l78 -21q18 -4 49 -4q63 0 80 53h71z" />
    <glyph glyph-name="angahoa" unicode="&#xf017;" 
d="M-500 1767q-35 -153 -172 -153q-23 0 -51 4l-86 22q-18 5 -37 5q-55 0 -76 -50h-71q33 148 164 148q34 0 51 -4l78 -21q18 -4 49 -4q63 0 80 53h71z" />
    <glyph glyph-name="angahoa" unicode="&#xf016;" 
d="M-500 1767q-35 -153 -172 -153q-23 0 -51 4l-86 22q-18 5 -37 5q-55 0 -76 -50h-71q33 148 164 148q34 0 51 -4l78 -21q18 -4 49 -4q63 0 80 53h71z" />
    <glyph glyph-name="ananghoa" unicode="&#x323;" 
d="M-838 -260v143h144v-143h-144z" />
    <glyph glyph-name="ananghoa" unicode="&#xf02b;" 
d="M-838 -260v143h144v-143h-144z" />
    <glyph glyph-name="ananghoa" unicode="&#xf029;" 
d="M-838 -260v143h144v-143h-144z" />
    <glyph glyph-name="ananghoa" unicode="&#xf022;" 
d="M-838 -260v143h144v-143h-144z" />
    <glyph glyph-name="ananghoa" unicode="&#xf021;" 
d="M-838 -260v143h144v-143h-144z" />
    <glyph glyph-name="ananghoa" unicode="&#xf020;" 
d="M-838 -260v143h144v-143h-144z" />
    <glyph glyph-name="ananghoa" unicode="&#xf01f;" 
d="M-838 -260v143h144v-143h-144z" />
    <glyph glyph-name="ananghoa" unicode="&#xf01e;" 
d="M-838 -260v143h144v-143h-144z" />
    <glyph glyph-name="aasachoa" 
d="M-735 1823l209 243h178l-281 -243h-106z" />
    <glyph glyph-name="aahuyenhoa" 
d="M-592 1812h-106l-281 244h178z" />
    <glyph glyph-name="aahoihoa" 
d="M-702 1823v123q50 4 82 22.5t32 46.5q-1 17 -21.5 27t-52.5 10q-66 -3 -77 -51h-90q0 58 47.5 90.5t132.5 32.5q88 0 137 -31t49 -84q0 -50 -42 -83.5t-113 -37.5v-65h-84z" />
    <glyph glyph-name="aangahoa" 
d="M-406 2054q-35 -153 -172 -153q-21 0 -51 4l-86 22q-18 4 -37 4q-55 0 -75 -49h-72q33 148 164 148q35 0 51 -5l78 -20q18 -4 49 -4q65 0 80 53h71z" />
    <glyph glyph-name="absachoa" unicode="&#xf006;" 
d="M-494 1726l209 244h179l-281 -244h-107z" />
    <glyph glyph-name="abhuyenhoa" unicode="&#xf00b;" 
d="M-371 1767h-106l-281 244h178z" />
    <glyph glyph-name="abhoihoa" unicode="&#xf010;" 
d="M-492 1726v123q115 10 115 70q-1 17 -21.5 27t-52.5 10q-66 -3 -77 -51h-90q0 57 47 90t133 33q89 0 137.5 -31.5t48.5 -83.5q0 -51 -41 -83.5t-115 -37.5v-66h-84z" />
    <glyph glyph-name="abngahoa" unicode="&#xf015;" 
d="M-451 2040q-35 -154 -172 -154q-21 0 -51 4l-86 23q-18 4 -37 4q-55 0 -75 -49h-72q33 147 164 147q35 0 51 -4l78 -20q18 -4 49 -4q65 0 80 53h71z" />
    <glyph glyph-name="abngahoa" unicode="&#xf02f;" 
d="M-451 2040q-35 -154 -172 -154q-21 0 -51 4l-86 23q-18 4 -37 4q-55 0 -75 -49h-72q33 147 164 147q35 0 51 -4l78 -20q18 -4 49 -4q65 0 80 53h71z" />
    <glyph glyph-name="abngahoa" unicode="&#xf02d;" 
d="M-451 2040q-35 -154 -172 -154q-21 0 -51 4l-86 23q-18 4 -37 4q-55 0 -75 -49h-72q33 147 164 147q35 0 51 -4l78 -20q18 -4 49 -4q65 0 80 53h71z" />
    <glyph glyph-name="cth" 
d="M-911 1280h77q6 -66 44 -94.5t116 -28.5q79 0 117.5 29t42.5 94h76q-6 -81 -32 -131t-77 -74t-127 -24q-114 0 -172 55.5t-65 173.5z" />
    <glyph glyph-name="csacth" 
d="M-911 1280h77q6 -66 44 -94.5t116 -28.5q79 0 117.5 29t42.5 94h76q-6 -81 -32 -131t-77 -74t-127 -24q-114 0 -172 55.5t-65 173.5zM-745 1331l208 244h179l-281 -244h-106z" />
    <glyph glyph-name="chuyenth" 
d="M-911 1280h77q6 -66 44 -94.5t116 -28.5q79 0 117.5 29t42.5 94h76q-6 -81 -32 -131t-77 -74t-127 -24q-114 0 -172 55.5t-65 173.5zM-612 1331h-107l-280 244h178z" />
    <glyph glyph-name="choith" 
d="M-911 1280h77q6 -66 44 -94.5t116 -28.5q79 0 117.5 29t42.5 94h76q-6 -81 -32 -131t-77 -74t-127 -24q-114 0 -172 55.5t-65 173.5zM-713 1331v123q115 10 115 70q-1 15 -23 26t-51 11q-65 -3 -78 -52h-90q0 58 47.5 90.5t133.5 32.5q89 0 137.5 -31t48.5 -83
q0 -51 -41 -83.5t-115 -37.5v-66h-84z" />
    <glyph glyph-name="cngath" 
d="M-911 1280h77q6 -66 44 -94.5t116 -28.5q79 0 117.5 29t42.5 94h76q-6 -81 -32 -131t-77 -74t-127 -24q-114 0 -172 55.5t-65 173.5zM-436 1552q-37 -153 -172 -153q-23 0 -51 4l-86 22q-19 5 -37 5q-56 0 -76 -50h-72q34 148 164 148q35 0 51 -4l78 -21q19 -4 49 -4
q64 0 80 53h72z" />
    <glyph glyph-name="cnangth" 
d="M-911 1280h77q6 -66 44 -94.5t116 -28.5q79 0 117.5 29t42.5 94h76q-6 -81 -32 -131t-77 -74t-127 -24q-114 0 -172 55.5t-65 173.5zM-754 -268v143h144v-143h-144z" />
    <glyph glyph-name="choa" 
d="M-922 1792h78q4 -65 43.5 -94t116.5 -29q79 0 117.5 29t42.5 94h75q-7 -120 -63 -174.5t-172 -54.5q-115 0 -172 55.5t-66 173.5z" />
    <glyph glyph-name="csachoa" 
d="M-922 1792h78q4 -65 43.5 -94t116.5 -29q79 0 117.5 29t42.5 94h75q-7 -120 -63 -174.5t-172 -54.5q-115 0 -172 55.5t-66 173.5zM-756 1843l209 244h178l-280 -244h-107z" />
    <glyph glyph-name="chuyenhoa" 
d="M-922 1792h78q4 -65 43.5 -94t116.5 -29q79 0 117.5 29t42.5 94h75q-7 -120 -63 -174.5t-172 -54.5q-115 0 -172 55.5t-66 173.5zM-623 1843h-106l-281 244h179z" />
    <glyph glyph-name="choihoa" 
d="M-922 1792h78q4 -65 43.5 -94t116.5 -29q79 0 117.5 29t42.5 94h75q-7 -120 -63 -174.5t-172 -54.5q-115 0 -172 55.5t-66 173.5zM-723 1843v123q115 10 115 70q-1 15 -23 26t-51 11q-67 -3 -78 -52h-90q0 58 47.5 90.5t132.5 32.5q88 0 137.5 -31t49.5 -83
q0 -51 -42 -83.5t-114 -37.5v-66h-84z" />
    <glyph glyph-name="cngahoa" 
d="M-922 1792h78q4 -65 43.5 -94t116.5 -29q79 0 117.5 29t42.5 94h75q-7 -120 -63 -174.5t-172 -54.5q-115 0 -172 55.5t-66 173.5zM-446 2064q-37 -153 -172 -153q-22 0 -52 4l-86 22q-18 5 -37 5q-55 0 -75 -50h-72q33 148 164 148q35 0 51 -4l78 -21q18 -4 49 -4
q64 0 80 53h72z" />
    <glyph glyph-name="cnanghoa" 
d="M-922 1792h78q4 -65 43.5 -94t116.5 -29q79 0 117.5 29t42.5 94h75q-7 -120 -63 -174.5t-172 -54.5q-115 0 -172 55.5t-66 173.5zM-764 -238v144h143v-144h-143z" />
    <glyph glyph-name="bth" 
d="M-829 1044l174 244h159l177 -244h-95l-159 168l-162 -168h-94z" />
    <glyph glyph-name="bsacth" 
d="M-829 1044l174 244h159l177 -244h-95l-159 168l-162 -168h-94zM-346 1196l209 244h178l-281 -244h-106z" />
    <glyph glyph-name="bhuyenth" 
d="M-829 1044l174 244h159l177 -244h-95l-159 168l-162 -168h-94zM-254 1288h-106l-281 244h178z" />
    <glyph glyph-name="bhoith" 
d="M-829 1044l174 244h159l177 -244h-95l-159 168l-162 -168h-94zM-365 1227v123q51 5 83 23t32 46q-1 17 -21.5 27t-52.5 10q-66 -3 -77 -51h-91q0 58 47.5 90.5t133.5 32.5q89 0 137.5 -31t48.5 -84q0 -50 -42 -83.5t-114 -37.5v-65h-84z" />
    <glyph glyph-name="bngath" 
d="M-829 1044l174 244h159l177 -244h-95l-159 168l-162 -168h-94zM-334 1530q-35 -154 -172 -154q-23 0 -51 4l-86 23q-19 4 -37 4q-55 0 -76 -49h-71q33 147 163 147q35 0 52 -4l77 -20q19 -4 50 -4q64 0 79 53h72z" />
    <glyph glyph-name="bnangth" 
d="M-829 1044l174 244h159l177 -244h-95l-159 168l-162 -168h-94zM-672 -289v144h144v-144h-144z" />
    <glyph glyph-name="bhoa" 
d="M-952 1567l174 243h160l176 -243h-95l-159 168l-162 -168h-94z" />
    <glyph glyph-name="bsachoa" 
d="M-952 1567l174 243h160l176 -243h-95l-159 168l-162 -168h-94zM-469 1718l209 244h178l-280 -244h-107z" />
    <glyph glyph-name="bhuyenhoa" 
d="M-952 1567l174 243h160l176 -243h-95l-159 168l-162 -168h-94zM-377 1810h-106l-281 244h178z" />
    <glyph glyph-name="bhoihoa" 
d="M-952 1567l174 243h160l176 -243h-95l-159 168l-162 -168h-94zM-487 1749v123q51 5 82.5 23.5t31.5 46.5q-1 16 -21.5 26t-51.5 10q-67 -3 -78 -51h-90q0 58 47.5 90.5t132.5 32.5q88 0 137 -31t49 -84q0 -50 -41 -82.5t-114 -37.5v-66h-84z" />
    <glyph glyph-name="bngahoa" 
d="M-952 1567l174 243h160l176 -243h-95l-159 168l-162 -168h-94zM-457 2052q-18 -77 -61 -115.5t-111 -38.5q-16 0 -51 5l-86 22q-18 4 -37 4q-55 0 -76 -49h-71q33 148 164 148q34 0 51 -5l78 -20q18 -4 49 -4q63 0 80 53h71z" />
    <glyph glyph-name="bnanghoa" 
d="M-952 1567l174 243h160l176 -243h-95l-159 168l-162 -168h-94zM-784 -268v143h143v-143h-143z" />
    <glyph glyph-name="isachoa" horiz-adv-x="2" 
d="M-512 1597l209 244h178l-281 -244h-106z" />
    <glyph glyph-name="ihuyenhoa" horiz-adv-x="2" 
d="M-174 1597h-107l-280 244h178z" />
    <glyph glyph-name="ihoihoa" horiz-adv-x="2" 
d="M-358 1597v123q51 5 82.5 23.5t31.5 46.5q-1 15 -23 26t-50 11q-67 -3 -78 -51h-90q0 57 47.5 89.5t132.5 32.5q88 0 137 -31t49 -83q0 -51 -41 -83.5t-114 -37.5v-66h-84z" />
    <glyph glyph-name="ingahoa" horiz-adv-x="2" 
d="M-51 1772q-37 -154 -172 -154q-23 0 -51 4l-86 23q-19 4 -37 4q-56 0 -76 -50h-72q34 148 164 148q35 0 51 -4l78 -21q19 -4 49 -4q65 0 80 54h72z" />
    <glyph glyph-name="inanghoa" horiz-adv-x="2" 
d="M-379 -276v143h143v-143h-143z" />
  </font>
</defs>
</svg>
