<svg width="20" height="20" viewBox="0 0 20 20" fill="none" xmlns="http://www.w3.org/2000/svg">
<path fill-rule="evenodd" clip-rule="evenodd" d="M6.18549 16.5168C6.53716 16.5168 6.82299 16.8027 6.82299 17.1543C6.82299 17.506 6.53716 17.791 6.18549 17.791C5.83383 17.791 5.54883 17.506 5.54883 17.1543C5.54883 16.8027 5.83383 16.5168 6.18549 16.5168Z" stroke="#4D4D4D" stroke-width="1.5" stroke-linecap="round" stroke-linejoin="round"/>
<path fill-rule="evenodd" clip-rule="evenodd" d="M15.5623 16.5168C15.914 16.5168 16.1998 16.8027 16.1998 17.1543C16.1998 17.506 15.914 17.791 15.5623 17.791C15.2106 17.791 14.9248 17.506 14.9248 17.1543C14.9248 16.8027 15.2106 16.5168 15.5623 16.5168Z" stroke="#4D4D4D" stroke-width="1.5" stroke-linecap="round" stroke-linejoin="round"/>
<path d="M2.29199 2.70825L4.02533 3.00825L4.82783 12.5691C4.89283 13.3483 5.54366 13.9466 6.32533 13.9466H15.4187C16.1653 13.9466 16.7987 13.3983 16.9062 12.6583L17.697 7.19325C17.7945 6.51909 17.272 5.91575 16.5912 5.91575H4.30366" stroke="#4D4D4D" stroke-width="1.5" stroke-linecap="round" stroke-linejoin="round"/>
<path d="M11.7715 8.99577H14.0823" stroke="#4D4D4D" stroke-width="1.5" stroke-linecap="round" stroke-linejoin="round"/>
</svg>
