<svg width="30" height="30" viewBox="0 0 30 30" fill="none" xmlns="http://www.w3.org/2000/svg">
<path d="M6.23969 24.2835C6.00117 24.0448 5.86719 23.7211 5.86719 23.3835C5.86719 23.046 6.00117 22.7223 6.23969 22.4835L22.4502 6.27754C22.5669 6.1528 22.7075 6.05281 22.8636 5.98352C23.0197 5.91422 23.1882 5.87705 23.359 5.8742C23.5298 5.87135 23.6994 5.90289 23.8577 5.96694C24.0161 6.03099 24.1599 6.12624 24.2807 6.24702C24.4015 6.3678 24.4967 6.51165 24.5608 6.67C24.6248 6.82835 24.6564 6.99796 24.6535 7.16875C24.6507 7.33954 24.6135 7.50801 24.5442 7.66414C24.4749 7.82026 24.3749 7.96085 24.2502 8.07754L8.03519 24.2835C7.7964 24.5221 7.47269 24.656 7.13519 24.656C6.79768 24.656 6.47397 24.5221 6.23519 24.2835H6.23969Z" fill="#EDEDED"/>
<path d="M6.24038 6.27753C6.47916 6.03901 6.80287 5.90503 7.14037 5.90503C7.47788 5.90503 7.80159 6.03901 8.04037 6.27753L24.2464 22.488C24.3711 22.6047 24.4711 22.7453 24.5404 22.9014C24.6097 23.0576 24.6469 23.226 24.6497 23.3968C24.6526 23.5676 24.621 23.7372 24.557 23.8956C24.4929 24.0539 24.3977 24.1978 24.2769 24.3185C24.1561 24.4393 24.0123 24.5346 23.8539 24.5986C23.6956 24.6627 23.526 24.6942 23.3552 24.6914C23.1844 24.6885 23.0159 24.6514 22.8598 24.5821C22.7037 24.5128 22.5631 24.4128 22.4464 24.288L6.24038 8.07303C6.00323 7.83443 5.87012 7.51169 5.87012 7.17528C5.87012 6.83887 6.00323 6.51613 6.24038 6.27753Z" fill="#EDEDED"/>
</svg>
