<svg width="233" height="33" viewBox="0 0 233 33" fill="none" xmlns="http://www.w3.org/2000/svg">
<path fill-rule="evenodd" clip-rule="evenodd" d="M60.1063 25.1871L60.1063 25.1848C60.1087 24.6933 60.1111 24.2018 60.0986 23.711C60.0902 23.38 60.2128 23.2903 60.5406 23.2555C61.4813 23.1555 62.3923 22.9516 63.2401 22.4787C64.8059 21.6051 64.8479 19.0959 63.3685 18.123C62.6878 17.6752 61.9406 17.4417 61.1677 17.2578L61.0995 17.2416C59.9751 16.9741 58.8499 16.7064 57.7204 16.461L57.4906 16.4113L57.4906 16.4113L57.4905 16.4113C56.5186 16.2015 55.5474 15.9919 54.6068 15.6648C53.3435 15.2261 52.1363 14.668 51.1143 13.7867C49.7904 12.6447 49.0646 11.1807 48.8168 9.45486C48.5678 7.72123 48.7975 6.0689 49.6117 4.51915C50.4685 2.88875 51.8292 1.81387 53.5228 1.14867C55.119 0.521548 56.7927 0.27315 58.4973 0.211857C59.1108 0.18992 59.1199 0.200889 59.1205 0.792529C59.1218 2.01775 59.1186 3.24296 59.1057 4.46818C59.0999 5.01982 59.0721 5.05401 58.5263 5.08885C57.9237 5.12692 57.3288 5.19015 56.7481 5.36177C55.1055 5.84695 54.6332 7.03862 54.9861 8.49353C55.1094 9.00194 55.5152 9.3626 55.9752 9.63358C56.6921 10.0553 57.4871 10.2545 58.2798 10.4531L58.4592 10.4981C59.0708 10.6522 59.6855 10.7952 60.3001 10.9383L60.3002 10.9383C62.1699 11.3736 64.0394 11.8089 65.8234 12.5518C66.9835 13.035 68.0603 13.6531 68.9274 14.5738C69.8055 15.5067 70.3294 16.6571 70.5262 17.8946C70.7772 19.4708 70.7662 21.0593 70.1972 22.6006C69.4152 24.7201 68.0151 26.2427 65.9641 27.1995C64.2517 27.9983 62.4465 28.2789 60.5832 28.3086C60.1341 28.3157 60.1135 28.2957 60.107 27.8389C60.1002 27.3554 60.1017 26.8722 60.1032 26.3889V26.3889V26.3888V26.3887V26.3887V26.3886V26.3885V26.3885V26.3884V26.3883C60.1038 26.1837 60.1044 25.979 60.1044 25.7743C60.1044 25.5786 60.1054 25.3829 60.1063 25.1871ZM81.6939 21.0875L81.4756 21.8425C81.7047 21.9414 81.8913 21.9338 82.0671 21.9267C82.1083 21.9251 82.1488 21.9234 82.1892 21.9232C83.4198 21.9252 84.6507 21.9252 85.8816 21.9252C86.6507 21.9253 87.4198 21.9253 88.1889 21.9258L88.1986 21.9258C88.9445 21.9264 88.9609 21.9264 89.1947 22.6677C89.4936 23.6144 89.7837 24.5642 90.0737 25.5139C90.2283 26.0198 90.3828 26.5257 90.5386 27.0312C90.7051 27.5699 90.7083 27.5751 91.2922 27.5757C93.1626 27.5783 95.0337 27.5776 96.9047 27.5751C96.9385 27.5751 96.9725 27.5764 97.0067 27.5778C97.143 27.5831 97.2804 27.5886 97.4022 27.5086C97.459 27.4002 97.4306 27.2989 97.3938 27.1957C97.0387 26.1958 96.6841 25.1957 96.3294 24.1955L96.3273 24.1894L96.3238 24.1796L96.3189 24.1658L96.3182 24.1637L96.3174 24.1616L96.3167 24.1595C95.7018 22.4256 95.087 20.6915 94.4698 18.9585C94.1398 18.0312 93.807 17.1045 93.4743 16.1778L93.4734 16.1754C93.1182 15.1862 92.7629 14.1969 92.411 13.2067C91.7825 11.4377 91.1587 9.66716 90.5351 7.89689L90.5334 7.89202L90.5313 7.88614L90.0128 6.41474C89.8167 5.85839 89.6212 5.30169 89.4258 4.74495C89.0248 3.6024 88.6237 2.45972 88.216 1.31967C88.0323 0.805477 88.0147 0.805455 87.4941 0.804813L87.4921 0.80481C85.5784 0.80223 83.6641 0.80223 81.7505 0.805456C81.1995 0.806101 81.1892 0.808682 81.0118 1.31193C80.5414 2.64618 80.0762 3.98237 79.6162 5.3205C79.2108 6.49881 78.8072 7.67754 78.4037 8.85623C77.9324 10.2327 77.4611 11.6091 76.9871 12.9847C76.7143 13.776 76.4373 14.5659 76.1602 15.3557L76.16 15.3562L76.1599 15.3567L76.1597 15.3573L76.1595 15.3578L76.1593 15.3583L76.1591 15.3588L76.1589 15.3593L76.1588 15.3599L76.1585 15.3605L76.1582 15.3614C75.89 16.1262 75.6217 16.891 75.3573 17.6572C74.7926 19.293 74.2311 20.9301 73.6695 22.5673C73.3547 23.4854 73.0398 24.4035 72.7243 25.3214C72.5464 25.8394 72.3665 26.3571 72.1836 26.8833L71.9649 27.5131C72.0183 27.5236 72.0632 27.5344 72.1027 27.5438C72.1724 27.5605 72.2251 27.5731 72.2778 27.5731C72.9914 27.5743 73.7049 27.5744 74.4185 27.5746H74.4198C75.7271 27.5749 77.0346 27.5753 78.342 27.5815C78.6516 27.5828 78.8033 27.4693 78.8871 27.1692C79.1336 26.2891 79.394 25.413 79.6545 24.5368L79.6551 24.5348L79.8078 24.0207C79.9561 23.5206 80.1062 23.021 80.2564 22.5213C80.4642 21.8297 80.672 21.138 80.875 20.4451C81.1387 19.5443 81.3997 18.6428 81.6607 17.7413L81.6618 17.7374L81.6629 17.7336L81.664 17.7298L81.6652 17.7259L81.6663 17.7221L81.6674 17.7182L81.6685 17.7144C82.0727 16.3182 82.4769 14.922 82.8912 13.5286L83.0042 13.1493C83.4932 11.5083 83.9819 9.86812 84.33 8.18902C84.3788 7.95322 84.4439 7.72078 84.5089 7.48833L84.5093 7.48686C84.5387 7.38208 84.568 7.27729 84.5958 7.1722C84.7904 7.69322 84.9191 8.2153 85.0463 8.73131L85.0464 8.73147L85.0464 8.7316C85.1178 9.02126 85.1888 9.30902 85.2707 9.5936C85.8458 11.5955 86.4455 13.5908 87.0451 15.5858L87.0454 15.5867L87.0457 15.5877L87.2643 16.3152L87.2757 16.3531C87.3649 16.6508 87.4104 16.8024 87.354 16.8797C87.2954 16.9599 87.1271 16.9601 86.784 16.9604L86.7778 16.9604C86.4931 16.9607 86.2083 16.9617 85.9235 16.9626H85.9234H85.9234H85.9233C85.0685 16.9655 84.2136 16.9685 83.359 16.9539C82.9893 16.9475 82.8041 17.0772 82.7331 17.4365C82.6862 17.6725 82.6168 17.9042 82.5475 18.1355L82.5475 18.1356L82.5475 18.1357L82.5474 18.1361C82.5243 18.2132 82.5012 18.2903 82.4789 18.3675C82.2191 19.2702 81.9584 20.172 81.6939 21.0875ZM123.341 21.3257C122.368 21.0315 121.396 20.736 120.428 20.4276C120.099 20.3231 119.92 20.3947 119.833 20.7463C119.666 21.4167 119.406 22.0516 119.024 22.6309C118.383 23.6007 117.492 24.202 116.34 24.3665C114.161 24.6781 112.283 23.5497 111.529 21.4786C111.09 20.2747 110.982 19.0166 110.992 17.9604C110.976 16.39 111.062 15.0441 111.618 13.7867C112.411 11.9943 113.824 11.0982 115.775 11.0846C117.844 11.0698 119.193 12.2711 119.679 13.8067C119.795 14.1725 119.953 14.2789 120.33 14.1815C121.287 13.9351 122.25 13.7086 123.218 13.5041C123.652 13.4125 123.647 13.1815 123.536 12.8453C122.906 10.9259 121.743 9.46453 119.9 8.57998C118.502 7.90962 117.017 7.71542 115.487 7.75736C111.783 7.85865 108.737 10.0665 107.602 13.5796C106.717 16.3171 106.645 19.1114 107.543 21.8535C108.587 25.0452 110.803 26.995 114.133 27.6163C114.976 27.7738 115.835 27.755 116.683 27.6912C120.472 27.4073 122.635 25.1691 123.634 21.867C123.731 21.5457 123.628 21.4122 123.341 21.3257ZM163.503 16.2618C163.145 14.6172 162.134 13.5945 160.519 13.201C158.58 12.728 156.877 13.2087 155.426 14.5849C155.371 14.6366 155.322 14.6953 155.272 14.7543L155.272 14.7544C155.148 14.9025 155.023 15.0518 154.813 15.0933C153.132 12.4893 149.355 12.2274 146.679 15.0075C146.547 14.6666 146.56 14.3702 146.573 14.089C146.576 14.0162 146.579 13.9445 146.58 13.8733C146.584 13.4739 146.412 13.3474 146.029 13.3597C145.592 13.3738 145.154 13.3706 144.717 13.3674L144.717 13.3674C144.494 13.3658 144.272 13.3642 144.05 13.3649C143.975 13.3651 143.906 13.3648 143.843 13.3645C143.516 13.363 143.345 13.3622 143.256 13.4472C143.158 13.5408 143.158 13.7382 143.158 14.1527L143.159 14.2604C143.159 18.3567 143.159 22.453 143.159 26.5493C143.159 26.5961 143.16 26.643 143.162 26.6898C143.164 26.7806 143.166 26.8714 143.16 26.9616C143.137 27.2887 143.301 27.3887 143.605 27.3855C144.059 27.3807 144.512 27.3819 144.966 27.3831C145.365 27.3842 145.763 27.3853 146.162 27.3823C146.83 27.3771 146.84 27.3707 146.842 26.7022C146.844 25.6171 146.844 24.5318 146.844 23.4465V23.4296C146.844 22.3485 146.843 21.2674 146.846 20.1865C146.848 19.3606 146.891 18.5341 147.133 17.7386C147.49 16.5656 148.454 15.8598 149.65 15.8605C150.65 15.8611 151.258 16.3527 151.431 17.3341C151.532 17.9025 151.575 18.478 151.575 19.058C151.575 20.8454 151.578 22.6327 151.582 24.4201L151.583 24.5346C151.584 25.1834 151.585 25.8322 151.587 26.4809C151.587 26.6732 151.59 26.8661 151.592 27.0584C151.595 27.2513 151.683 27.3752 151.885 27.3758C152.598 27.3781 153.31 27.3781 154.022 27.3782C154.327 27.3782 154.632 27.3782 154.937 27.3784C155.193 27.3784 155.259 27.2229 155.255 27.0016C155.253 26.8803 155.255 26.759 155.256 26.6375V26.6373V26.6371V26.6369V26.6367V26.6364V26.6362V26.636V26.6358V26.6356V26.6354V26.6351V26.6349V26.6347V26.6345C155.257 26.5644 155.258 26.4943 155.258 26.4242C155.26 25.8396 155.261 25.255 155.262 24.6705C155.265 23.1382 155.267 21.606 155.288 20.0742C155.298 19.3071 155.334 18.5322 155.57 17.7902C155.897 16.7644 156.562 16.0914 157.648 15.9011C158.814 15.6966 159.656 16.2914 159.835 17.4612C159.93 18.0851 159.972 18.7167 159.97 19.3509C159.963 21.8252 159.964 24.2995 159.971 26.7739C159.973 27.3629 159.988 27.3739 160.561 27.381C161.358 27.3913 162.156 27.3887 162.953 27.3829C163.65 27.3778 163.658 27.3726 163.658 26.6416C163.661 23.7273 163.661 20.8129 163.658 17.8993C163.657 17.3502 163.62 16.8031 163.503 16.2618ZM171.314 14.6081C173.382 12.5357 176.609 12.4964 178.733 14.5107C179.703 15.4307 180.316 16.5488 180.591 17.8392C180.982 19.6645 180.971 21.4961 180.466 23.302C180.028 24.8692 179.138 26.1273 177.74 26.9874C175.834 28.159 173.461 27.9584 171.757 26.5119C171.701 26.4644 171.648 26.4121 171.594 26.3585C171.431 26.1966 171.256 26.0218 170.931 25.9254V30.9411C170.931 31.0784 170.93 31.2157 170.93 31.353C170.927 31.6551 170.925 31.9571 170.933 32.2592C170.942 32.585 170.855 32.7773 170.478 32.7722C169.544 32.7586 168.61 32.7618 167.676 32.7709C167.353 32.7741 167.233 32.6231 167.247 32.3192C167.252 32.2295 167.25 32.1395 167.248 32.0493C167.248 32.0021 167.247 31.9549 167.247 31.9076C167.247 26.0306 167.247 20.1529 167.247 14.2758L167.247 14.1354C167.246 13.7374 167.246 13.5445 167.342 13.4515C167.433 13.364 167.608 13.3646 167.949 13.3658C168.003 13.366 168.061 13.3662 168.124 13.3661C168.394 13.3656 168.664 13.3664 168.934 13.3672C169.378 13.3685 169.822 13.3699 170.266 13.3655C170.575 13.3622 170.719 13.4887 170.71 13.8042C170.703 14.0838 170.705 14.3637 170.706 14.6612V14.6615V14.6618V14.6621V14.6624V14.6627V14.6631V14.6634V14.6637V14.6641V14.6645V14.6648V14.6652V14.6656V14.666V14.6664V14.6668C170.707 14.8 170.708 14.9367 170.708 15.0784C170.965 15.0275 171.089 14.8752 171.204 14.7348C171.24 14.6901 171.276 14.6467 171.314 14.6081ZM172.119 24.0614C173.518 25.4454 175.637 25.1053 176.535 23.3504C176.999 22.4433 177.056 21.4587 177.072 20.1916C177.067 19.4754 177.027 18.487 176.574 17.576C176.059 16.5411 175.257 15.8894 174.063 15.8701C172.879 15.8514 172.034 16.4449 171.463 17.4521C171.203 17.9102 171.073 18.4147 170.997 18.9341C170.814 20.1722 170.874 21.3949 171.239 22.5956C171.41 23.1549 171.701 23.6472 172.119 24.0614ZM132.472 13.0713C129.364 13.4513 127.232 15.2011 126.437 18.1328C125.92 20.0419 126.059 21.9446 126.806 23.7873C127.12 24.5608 127.586 25.237 128.191 25.8151C130.527 28.0481 134.806 28.3939 137.448 26.539C139.567 25.0512 140.534 22.9634 140.552 20.4052C140.547 19.1838 140.367 18.1896 139.977 17.2631C138.754 14.3591 135.733 12.6726 132.472 13.0713ZM136.414 22.4678C135.922 23.9111 134.759 24.737 133.324 24.7312C131.917 24.7254 130.759 23.8576 130.255 22.4272C130.015 21.7465 129.946 21.04 129.96 20.2755C129.951 19.6045 130.038 18.9006 130.298 18.2264C130.824 16.8644 132.006 16.0192 133.371 16.0243C134.722 16.0295 135.932 16.8999 136.406 18.2715C136.888 19.6619 136.889 21.0768 136.414 22.4678ZM208.68 17.2379C209.68 14.3229 212.411 12.6693 215.466 13.0758C218.588 13.4906 220.521 15.4301 221.035 18.6805C221.15 19.4122 221.213 20.1503 221.232 20.8935C221.243 21.34 221.066 21.4562 220.655 21.4516C219.684 21.4405 218.712 21.4424 217.74 21.4443C217.366 21.4451 216.992 21.4458 216.618 21.4458V21.4471C216.236 21.4471 215.853 21.4467 215.47 21.4464L215.465 21.4464C214.531 21.4454 213.597 21.4445 212.663 21.4491C211.97 21.4529 211.92 21.5239 212.039 22.2181C212.305 23.7608 213.368 24.8118 214.737 24.897C215.837 24.9653 216.68 24.5776 217.122 23.5285C217.273 23.1678 217.464 23.0136 217.86 23.0853C218.277 23.1603 218.696 23.2269 219.115 23.2936C219.563 23.365 220.012 23.4364 220.459 23.5182C220.995 23.6163 221.015 23.6575 220.801 24.1543C220.058 25.8731 218.796 27.0151 216.977 27.499C215.818 27.8074 214.629 27.81 213.459 27.6274C210.967 27.239 209.326 25.7918 208.59 23.395C207.961 21.3478 207.982 19.2709 208.68 17.2379ZM215.405 19.2489H215.405C215.926 19.2504 216.447 19.2519 216.968 19.2451C217.515 19.238 217.52 19.2238 217.481 18.6838C217.441 18.1276 217.297 17.6037 217 17.1263C216.362 16.0972 215.256 15.6552 214.086 15.9617C212.898 16.2733 211.902 17.734 212.045 18.9347C212.083 19.2465 212.288 19.2465 212.509 19.2464L212.52 19.2464C213.014 19.2468 213.508 19.2467 214.002 19.2465L214.744 19.2464V19.2477C214.964 19.2477 215.184 19.2483 215.405 19.2489ZM195.973 13.3635C195.519 13.3697 195.066 13.3684 194.612 13.3671C194.213 13.3659 193.815 13.3648 193.416 13.3687C192.751 13.3751 192.74 13.3842 192.738 14.0694C192.735 14.9172 192.736 15.7651 192.736 16.6129C192.737 17.7445 192.738 18.8761 192.731 20.0077L192.73 20.2389V20.2393V20.2394V20.2395V20.2396C192.726 21.0408 192.722 21.8432 192.578 22.6381C192.361 23.8356 191.594 24.5234 190.481 24.8247C188.873 25.2596 187.694 24.3898 187.564 22.7317C187.554 22.601 187.548 22.4698 187.542 22.3388C187.539 22.2776 187.536 22.2165 187.533 22.1555C187.441 20.4138 187.449 18.6709 187.457 16.9278C187.461 16.0868 187.465 15.2458 187.457 14.4049C187.457 14.335 187.456 14.265 187.455 14.1952V14.195V14.1949V14.1947V14.1946V14.1944V14.1943V14.1941V14.194V14.1938V14.1937C187.452 14.0441 187.45 13.8946 187.452 13.7455C187.456 13.4635 187.313 13.3648 187.043 13.3668C186.081 13.3739 185.118 13.3726 184.156 13.3687C183.877 13.3674 183.758 13.5003 183.763 13.7694C183.764 13.8518 183.763 13.9343 183.762 14.0168C183.761 14.0718 183.76 14.1267 183.76 14.1816C183.76 14.9829 183.761 15.7843 183.761 16.5856C183.762 18.5059 183.762 20.4264 183.759 22.3465C183.758 23.0646 183.811 23.7756 183.967 24.4757C184.282 25.8989 185.102 26.9151 186.489 27.3893C188.655 28.1287 190.6 27.6964 192.309 26.179C192.365 26.1291 192.416 26.0726 192.469 26.0138C192.6 25.8678 192.744 25.7078 193.013 25.6015C193.013 25.744 193.012 25.8787 193.012 26.0081V26.0091V26.0102C193.01 26.2894 193.009 26.5437 193.015 26.7977C193.029 27.3667 193.033 27.3758 193.627 27.3842C194.314 27.3945 195.001 27.3906 195.689 27.3861C196.456 27.3816 196.464 27.3784 196.464 26.6261C196.466 23.657 196.465 20.6879 196.465 17.7185L196.465 14.172C196.465 14.1354 196.464 14.0987 196.463 14.062V14.0617C196.461 13.9883 196.459 13.9149 196.465 13.8423C196.493 13.4797 196.317 13.3584 195.973 13.3635ZM206.77 25.1678V25.168C206.77 25.2949 206.77 25.4225 206.79 25.539C206.831 25.7671 206.851 25.9991 206.87 26.231C206.885 26.4097 206.9 26.5882 206.925 26.7648C206.965 27.05 206.901 27.2436 206.605 27.3358C205.241 27.761 203.863 27.9094 202.475 27.4849C201.405 27.1578 200.785 26.4177 200.586 25.3112C200.484 24.7402 200.439 24.1686 200.438 23.5911C200.435 22.6744 200.434 21.7575 200.432 20.8407C200.429 19.6158 200.427 18.391 200.423 17.1663C200.42 16.3398 200.417 16.3386 199.634 16.3308C199.528 16.3298 199.435 16.3305 199.352 16.3311C199.064 16.3332 198.911 16.3343 198.83 16.2585C198.739 16.173 198.738 15.9895 198.738 15.5986L198.737 15.4534C198.736 15.2409 198.737 15.0284 198.739 14.816C198.741 14.4794 198.743 14.1428 198.736 13.8062C198.729 13.4946 198.851 13.3423 199.169 13.3655C199.197 13.3675 199.224 13.3681 199.251 13.3642C199.378 13.3447 199.517 13.3599 199.654 13.375C199.917 13.4039 200.176 13.4323 200.339 13.2171C200.556 12.9314 200.48 12.4911 200.417 12.1327L200.411 12.0964C200.217 10.9738 200.689 10.3247 201.699 9.88471C202.212 9.66135 202.695 9.36762 203.177 9.07378L203.178 9.07353C203.4 8.93797 203.623 8.80239 203.849 8.67369C203.877 8.65771 203.909 8.6495 203.975 8.63255C204.019 8.62145 204.077 8.6066 204.158 8.58336V10.7067C204.158 10.9247 204.159 11.1427 204.161 11.3608C204.164 11.8566 204.167 12.3525 204.154 12.8481C204.145 13.2429 204.306 13.3855 204.691 13.3687C204.924 13.3584 205.157 13.3613 205.391 13.3642C205.625 13.3671 205.858 13.37 206.091 13.3597C206.492 13.3423 206.705 13.4513 206.685 13.9062C206.657 14.5365 206.662 15.1695 206.684 15.8005C206.698 16.1856 206.567 16.3528 206.167 16.3353C205.917 16.3246 205.667 16.3278 205.417 16.3311C205.173 16.3343 204.928 16.3375 204.685 16.3276C204.286 16.3115 204.153 16.4895 204.156 16.8657C204.163 17.695 204.165 18.5241 204.168 19.3533V19.3534V19.3535V19.3536V19.3538V19.3539V19.354V19.3541V19.3542V19.3544V19.3545V19.3546V19.3547C204.173 20.7764 204.177 22.198 204.201 23.6195C204.214 24.4138 204.657 24.7325 205.448 24.6338C205.452 24.6333 205.456 24.6327 205.46 24.6319C205.464 24.6311 205.467 24.6302 205.471 24.6292L205.482 24.6263C205.498 24.6219 205.514 24.6175 205.529 24.6183C205.674 24.626 205.821 24.5674 205.965 24.5099C206.192 24.4191 206.413 24.3311 206.607 24.5112C206.772 24.6653 206.771 24.9152 206.77 25.1678ZM232.755 13.5513C231.233 12.5951 229.298 12.9216 228.163 14.3287C228.09 14.419 228.018 14.5091 227.945 14.5992L227.798 14.7808L227.787 14.794L227.618 15.0036C227.572 14.9901 227.526 14.9759 227.48 14.9623C227.48 14.8493 227.479 14.7363 227.478 14.6233C227.475 14.3634 227.473 14.1037 227.484 13.8442C227.5 13.4887 227.346 13.3577 226.997 13.3629C226.174 13.3758 225.35 13.3829 224.527 13.3597C224.114 13.348 223.989 13.5313 224.017 13.9016C224.024 13.9924 224.022 14.0839 224.019 14.1756L224.019 14.2009L224.018 14.2505C224.017 14.2714 224.017 14.2923 224.017 14.3132L224.017 19.8987L224.017 20.4064L224.017 20.9142L224.016 26.4996C224.016 26.6603 224.019 26.8211 224.021 26.9814L224.022 27.0758C224.025 27.2771 224.134 27.3771 224.329 27.3771C224.938 27.3786 225.546 27.3788 226.155 27.3789H226.158C226.564 27.379 226.97 27.3791 227.376 27.3797C227.622 27.3797 227.711 27.2416 227.709 27.0138C227.708 26.8962 227.71 26.7785 227.711 26.6607C227.713 26.5588 227.714 26.4569 227.714 26.3551C227.706 24.1873 227.707 22.0194 227.827 19.8535C227.866 19.1651 227.958 18.4851 228.204 17.8392C228.704 16.5327 229.808 16.0553 231.129 16.5482C231.205 16.5767 231.278 16.6154 231.353 16.6554C231.523 16.7465 231.705 16.8437 231.97 16.8379C232.058 16.5895 232.146 16.3393 232.235 16.0878C232.477 15.4019 232.723 14.7064 232.972 14.0119C233.058 13.7752 232.934 13.6629 232.755 13.5513ZM32.1146 26.6989V14.2544L32.1148 10.5885C32.1151 7.53348 32.1153 4.4785 32.114 1.42352C32.1133 0.817685 32.1056 0.809943 31.5101 0.808007C29.9629 0.803491 28.4151 0.803491 26.8673 0.807362C26.7912 0.80752 26.7219 0.807138 26.6588 0.80679C26.3332 0.804995 26.1739 0.804117 26.0969 0.883279C26.0232 0.959078 26.0249 1.10826 26.0282 1.40029V1.40031V1.40036V1.40041V1.40047V1.40054V1.40061V1.40069V1.40078C26.0289 1.46925 26.0298 1.54557 26.0298 1.63063C26.0283 8.33396 26.0284 15.0377 26.0285 21.7415V21.7415V21.7415V21.7416V21.7416V21.7416L26.0285 26.7769C26.0285 26.8182 26.0296 26.8596 26.0306 26.901C26.0329 26.9888 26.0351 27.0766 26.0272 27.1634C25.9988 27.4647 26.1188 27.5828 26.4298 27.5808C28.1925 27.5705 29.9552 27.5712 31.7178 27.5789C32.0333 27.5802 32.1378 27.4415 32.1165 27.1499C32.109 27.0467 32.1109 26.943 32.1129 26.8393C32.1137 26.7925 32.1146 26.7456 32.1146 26.6989ZM21.6705 27.5783H19.1316C18.8881 27.5783 18.6444 27.5765 18.4007 27.5748H18.4006H18.4005H18.4004H18.4003H18.4002H18.4001H18.4001H18.3999H18.3998H18.3998H18.3997H18.3997H18.3996H18.3996C17.8051 27.5705 17.2104 27.5663 16.6167 27.5873C16.2186 27.6015 15.9889 27.4518 15.7934 27.1221C15.1564 26.0487 14.5115 24.9796 13.8668 23.9107L13.8666 23.9105L13.8665 23.9102L13.8664 23.91L13.8663 23.9098L13.8661 23.9096L13.866 23.9094L13.8659 23.9092L13.8649 23.9076L13.8646 23.9071L13.8643 23.9066L13.864 23.9061L13.8637 23.9056L13.8634 23.9051L13.8631 23.9046C13.5244 23.343 13.1857 22.7815 12.8481 22.2193C11.5023 19.9779 10.1583 17.7359 8.81568 15.4926C7.89071 13.948 6.96647 12.4029 6.04223 10.8578L6.04055 10.855L6.04046 10.8549L6.04037 10.8547L6.04028 10.8546L6.0402 10.8544L6.04011 10.8543L6.04002 10.8541C4.83044 8.83204 3.62084 6.80993 2.40958 4.78885C2.05015 4.18937 1.68754 3.5919 1.32491 2.99439L1.32488 2.99434C0.976036 2.41955 0.627169 1.84473 0.281095 1.26804C0.266432 1.24371 0.249006 1.22004 0.231349 1.19606L0.231349 1.19606C0.173643 1.11769 0.113464 1.03597 0.139153 0.916414C0.215164 0.789029 0.338028 0.796663 0.456179 0.804004L0.456181 0.804004C0.483446 0.805699 0.510461 0.807377 0.53659 0.807377C1.0809 0.806053 1.62514 0.806692 2.16935 0.80733H2.16936C3.21589 0.808559 4.26234 0.809788 5.30907 0.797054C5.6865 0.792538 5.88522 0.939641 6.07039 1.24998C7.133 3.03518 8.20115 4.8169 9.26929 6.5986L9.26942 6.59882L9.26954 6.59904C10.0964 7.97822 10.9232 9.35739 11.7474 10.7382C13.0028 12.8412 14.2552 14.946 15.5076 17.0508C16.5022 18.7223 17.4968 20.3938 18.4929 22.0645C19.0355 22.9742 19.5814 23.882 20.1272 24.7897L20.1276 24.7904L20.1281 24.7911L20.1285 24.7918L20.1289 24.7924L20.1293 24.7931L20.1297 24.7938L20.1301 24.7945C20.5771 25.5378 21.024 26.281 21.4692 27.0253C21.4857 27.0532 21.5043 27.0803 21.5234 27.108C21.6017 27.2219 21.6876 27.3469 21.6705 27.5783ZM0.520877 3.42111L0.520828 3.42103L0.520718 3.42085C0.392058 3.2088 0.260192 2.99147 0.124119 2.76617C-0.00779106 3.00032 -7.22219e-05 3.17271 0.00691192 3.32869C0.0084337 3.36267 0.0099206 3.39588 0.0099206 3.42878C0.00863022 8.62731 0.00848685 13.8255 0.00834347 19.0239L0.00798503 26.8215C0.00798503 26.8559 0.0091829 26.8905 0.0103818 26.9251C0.0129158 26.9983 0.0154543 27.0716 0.00669465 27.1434C-0.0371783 27.495 0.137023 27.5841 0.457683 27.5821C1.37178 27.5773 2.28588 27.5777 3.19987 27.578H3.19989H3.19991H3.19993H3.19996H3.19998H3.2C3.98327 27.5783 4.76647 27.5787 5.54953 27.5757C6.02891 27.5738 6.04504 27.5596 6.03665 27.055C6.02606 26.386 6.00872 25.7171 5.99139 25.0481L5.99138 25.0479C5.97702 24.4936 5.96265 23.9394 5.95213 23.3852C5.88567 19.8644 5.81922 16.3436 5.76502 12.8221C5.75922 12.4189 5.6534 12.0776 5.44759 11.7324C4.52993 10.1927 3.61996 8.64869 2.70991 7.10461L2.70981 7.10442L2.70976 7.10434L2.70965 7.10416L2.7096 7.10408L2.7095 7.10389L2.70945 7.10382L2.70914 7.1033L2.70909 7.1032C2.24888 6.32235 1.78865 5.54147 1.3274 4.7611C1.06688 4.321 0.80151 3.88363 0.520894 3.42114L0.520877 3.42111ZM21.6658 25.3614C21.4256 25.0889 21.2506 24.7725 21.0758 24.4565L21.0758 24.4565L21.0758 24.4565L21.0758 24.4564L21.0758 24.4564L21.0758 24.4564C21.0064 24.331 20.9371 24.2057 20.8638 24.0833C19.8619 22.4079 18.8645 20.73 17.867 19.0521L17.8657 19.0499L17.8631 19.0456C17.504 18.4414 17.1449 17.8373 16.7855 17.2333C16.6289 16.9704 16.4713 16.7084 16.3136 16.4462L16.3128 16.4448L16.2236 16.2965C16.0636 16.03 16.0216 15.7403 16.0171 15.4325C15.9998 14.1362 15.9769 12.8403 15.9541 11.5442C15.9456 11.0572 15.937 10.5703 15.9287 10.0833C15.8797 7.22636 15.83 4.36946 15.7803 1.51255C15.7797 1.46954 15.7799 1.42652 15.7801 1.38353V1.38351V1.3835V1.38348V1.38346V1.38344C15.7805 1.2975 15.781 1.21165 15.7745 1.12608C15.7584 0.904138 15.8707 0.813811 16.0771 0.80994C16.2274 0.807359 16.3778 0.804779 16.5281 0.804779C17.2804 0.804456 18.0327 0.804456 18.785 0.804456C19.5373 0.804456 20.2896 0.804456 21.0419 0.804133L21.0965 0.804072C21.4679 0.803587 21.6421 0.80336 21.7232 0.890121C21.7949 0.966714 21.7941 1.1111 21.7927 1.38295V1.38306V1.38318V1.38331V1.38345C21.7924 1.4283 21.7922 1.47662 21.7922 1.52868C21.7935 2.92552 21.7929 4.323 21.7922 5.71984C21.7922 8.8426 21.7921 11.9652 21.7919 15.0878L21.7919 15.198L21.7919 15.3082C21.7917 18.4308 21.7916 21.5534 21.7916 24.6762V25.3169C21.7503 25.3317 21.7083 25.3465 21.6658 25.3614ZM59.1014 26.3808L59.1016 25.773H59.1017C59.1088 25.773 59.1159 25.773 59.1223 25.7724C59.1223 25.5859 59.1225 25.3993 59.1226 25.2127V25.2126V25.2125V25.2123C59.123 24.7761 59.1234 24.3397 59.1216 23.9033C59.1191 23.3246 59.1159 23.3239 58.5808 23.2079L58.5681 23.2052C58.1274 23.1097 57.6887 23.0077 57.2506 22.9019C55.7195 22.5316 54.1904 21.5419 53.9846 19.3302C53.9375 18.8224 53.9156 18.8179 53.3904 18.8443C52.924 18.8679 52.4578 18.8951 51.9915 18.9223L51.9913 18.9223L51.9912 18.9223L51.991 18.9223L51.9908 18.9223C50.8487 18.9889 49.7066 19.0556 48.5618 19.0689C48.5084 19.0694 48.4555 19.0743 48.4022 19.0793L48.4021 19.0793L48.3689 19.0824C47.9256 19.1218 47.9231 19.1224 47.9424 19.5876C47.9889 20.6889 48.2018 21.7516 48.6095 22.7832C49.2651 24.4407 50.3393 25.7414 51.8716 26.6344C53.9672 27.8557 56.2815 28.2422 58.67 28.3112C58.9765 28.3202 59.1029 28.1925 59.1023 27.9002C59.1009 27.3938 59.1012 26.8873 59.1014 26.3808ZM39.5601 22.6484L40.9759 22.6483H40.9833C42.3981 22.6482 43.8128 22.648 45.2275 22.649C45.9056 22.6497 45.9088 22.6516 45.9101 23.2994C45.9127 24.5226 45.9133 25.7466 45.9095 26.9699C45.9075 27.5705 45.903 27.577 45.3127 27.5776C43.7199 27.58 42.1272 27.5796 40.5345 27.5792L38.7433 27.5789L37.3271 27.5791C36.1462 27.5794 34.9653 27.5797 33.7844 27.5783C33.1418 27.5776 33.1379 27.5738 33.1366 26.9602C33.134 25.715 33.1334 24.4704 33.1373 23.2252C33.1392 22.658 33.145 22.6509 33.6992 22.6497C35.0946 22.6469 36.49 22.6474 37.8854 22.6479L37.9004 22.6479C38.4536 22.6482 39.0069 22.6484 39.5601 22.6484ZM33.9694 5.73662H39.3864C39.9539 5.73662 40.5215 5.7368 41.089 5.73697C42.4132 5.73738 43.7373 5.73778 45.0615 5.73598C45.6545 5.73469 45.6616 5.72759 45.6641 5.12047C45.6689 4.03683 45.6676 2.95266 45.6664 1.86894L45.6661 1.57385C45.6654 0.808011 45.6641 0.806076 44.888 0.806076C41.233 0.80543 37.5786 0.80543 33.9242 0.80543C33.8812 0.80543 33.8382 0.806434 33.7951 0.807438C33.7089 0.809445 33.6227 0.811452 33.5371 0.80543C33.2236 0.783494 33.1287 0.940275 33.1339 1.23255C33.1415 1.69709 33.1398 2.16194 33.138 2.62689C33.1372 2.82836 33.1365 3.02985 33.1365 3.23135C33.1365 3.45414 33.1372 3.677 33.1379 3.89988C33.1394 4.38634 33.1409 4.87292 33.1352 5.35919C33.132 5.63468 33.2429 5.75469 33.5178 5.73727C33.6192 5.73074 33.7209 5.73273 33.8225 5.73471C33.8715 5.73567 33.9205 5.73662 33.9694 5.73662ZM61.0811 0.209907C63.0438 0.372495 64.962 0.803483 66.6704 1.95837C68.0176 2.86938 68.9131 4.1075 69.4951 5.60048C69.7919 6.36193 69.9541 7.15939 70.1159 7.9554L70.1422 8.08446C70.257 8.64642 70.2048 8.68513 69.6144 8.72578C68.0098 8.83611 66.4053 8.95289 64.8013 9.07225L64.782 9.07368C64.5582 9.09033 64.4418 9.09899 64.3712 9.04626C64.2947 8.98909 64.2722 8.85973 64.2253 8.5901L64.2245 8.58577C64.1168 7.9722 63.9619 7.38314 63.6219 6.83989C63.1322 6.05663 62.376 5.68758 61.5586 5.40176C61.2173 5.2824 60.8553 5.18949 60.4972 5.15981C60.1456 5.13078 60.0843 4.96883 60.0875 4.66624C60.0966 3.84714 60.0983 3.02778 60.1 2.2085V2.20845C60.101 1.7403 60.102 1.27217 60.1043 0.804128C60.1075 0.208617 60.1121 0.208617 60.7121 0.210552L60.8624 0.210274C60.9263 0.210099 60.9966 0.209907 61.0811 0.209907ZM37.3785 15.9078C37.8692 15.9076 38.3599 15.9074 38.8506 15.9074C38.8506 15.9078 38.8506 15.9079 38.8507 15.9083C38.8508 15.9085 38.851 15.9088 38.8512 15.9093C39.3205 15.9093 39.7899 15.9095 40.2593 15.9097C41.5502 15.9102 42.8414 15.9107 44.1321 15.9074C44.6276 15.9055 44.6399 15.8951 44.6425 15.4087C44.6496 14.1209 44.6496 12.8331 44.6438 11.5453C44.6412 11.042 44.6302 11.0285 44.147 11.0278C40.6474 11.0233 37.1486 11.0233 33.6497 11.0272C33.1536 11.0278 33.1419 11.0401 33.1394 11.5304C33.1323 12.7963 33.1342 14.0628 33.1374 15.3293C33.1387 15.8971 33.1445 15.9048 33.6987 15.9061C34.9255 15.9089 36.1519 15.9084 37.3785 15.9078Z" fill="white"/>
</svg>
