<svg width="15" height="13" viewBox="0 0 15 13" fill="none" xmlns="http://www.w3.org/2000/svg">
<g clip-path="url(#clip0_2_2863)">
<path d="M15 4.50362C15 5.59354 15 6.67693 15 7.76685C14.6533 8.14539 14.1733 7.84517 13.74 8.00833C13.74 8.11276 13.74 8.23023 13.74 8.34118C13.74 9.50289 13.74 10.6711 13.74 11.8328C13.74 12.4985 13.3667 12.8575 12.6867 12.8575C9.23333 12.8575 5.78 12.8575 2.32 12.8575C1.62 12.8575 1.26 12.4985 1.26 11.8067C1.26 10.645 1.26 9.47679 1.26 8.31508C1.26 8.20413 1.26 8.08665 1.26 7.98875C1.18 7.96917 1.16 7.96265 1.14 7.96265C0.92 7.96265 0.693333 7.96265 0.473333 7.95612C0.0933333 7.94959 0.00666667 7.86475 0 7.49274C0 6.57904 0 5.66533 0 4.75162C0 4.37309 0.08 4.3013 0.473333 4.3013C1.60667 4.3013 2.74 4.3013 3.87333 4.3013C3.96 4.3013 4.04667 4.29477 4.21333 4.28824C4.08 4.23603 4.02667 4.20993 3.97333 4.19687C3.04 3.90318 2.44667 3.13306 2.42 2.18019C2.40667 1.27954 3 0.437625 3.86 0.137408C4.78667 -0.188916 5.71333 0.0786695 6.32667 0.848793C6.71333 1.33175 7.1 1.82124 7.5 2.32378C7.92667 1.78208 8.32667 1.27954 8.73333 0.777002C9.22667 0.17004 9.88667 -0.0714393 10.6533 0.0329843C11.76 0.176567 12.4733 0.940164 12.5667 2.0105C12.6533 3.00253 12.0467 3.8575 11 4.2034C10.9533 4.21645 10.9067 4.24256 10.7733 4.3013C10.9733 4.3013 11.08 4.3013 11.1867 4.3013C12.3 4.3013 13.4067 4.29477 14.52 4.30782C14.68 4.30782 14.84 4.43835 15 4.50362ZM5.95333 4.30782C5.94667 4.41877 5.93333 4.51014 5.93333 4.60804C5.93333 6.7422 5.93333 8.86983 5.93333 11.004C5.93333 11.4478 6.09333 11.6175 6.54667 11.624C7.16667 11.6305 7.79333 11.6305 8.41333 11.624C8.90667 11.6175 9.06 11.4543 9.06 10.9648C9.06 8.85677 9.06 6.7422 9.06 4.63415C9.06 4.52972 9.06 4.4253 9.06 4.30782C8.00667 4.30782 6.99333 4.30782 5.95333 4.30782ZM6.51333 3.06127C6.08 2.51957 5.70667 2.03008 5.31333 1.55365C5.04 1.2208 4.58 1.12943 4.2 1.31217C3.82 1.49491 3.60667 1.91261 3.68 2.31072C3.76 2.72189 4.12667 3.04821 4.56667 3.05474C5.18667 3.07432 5.81333 3.06127 6.51333 3.06127ZM8.48667 3.06127C9.21333 3.06127 9.84667 3.07432 10.4733 3.05474C10.88 3.04169 11.2333 2.72189 11.3133 2.3303C11.3933 1.93871 11.2 1.53407 10.84 1.33175C10.5133 1.15554 10.0267 1.18164 9.78667 1.44923C9.35333 1.95829 8.95333 2.48694 8.48667 3.06127Z" fill="#EA1B25"/>
</g>
<defs>
<clipPath id="clip0_2_2863">
<rect width="15" height="12.8571" fill="white"/>
</clipPath>
</defs>
</svg>
