<?xml version="1.0" standalone="no"?>
<!DOCTYPE svg PUBLIC "-//W3C//DTD SVG 1.1//EN" "http://www.w3.org/Graphics/SVG/1.1/DTD/svg11.dtd" >
<svg xmlns="http://www.w3.org/2000/svg" xmlns:xlink="http://www.w3.org/1999/xlink" version="1.1">
<metadata>
Created by FontForge 20160407 at Thu Sep  8 04:29:25 2016
 By Jimmy Wärting
Copyright by NGUYEN HONG HAI
</metadata>
<defs>
<font id="HP-ArialBold" horiz-adv-x="1139" >
  <font-face 
    font-family="HP-Arial"
    font-weight="700"
    font-stretch="normal"
    units-per-em="2048"
    panose-1="2 11 8 3 5 3 2 2 2 4"
    ascent="1638"
    descent="-410"
    x-height="1062"
    cap-height="1466"
    bbox="-1138 -463 2048 2237.66"
    underline-thickness="0"
    underline-position="0"
    unicode-range="U+0020-2122"
  />
<missing-glyph horiz-adv-x="1024" 
d="M128 0v1854h768v-1854h-768zM256 128h512v1598h-512v-1598z" />
    <glyph glyph-name=".notdef" horiz-adv-x="1024" 
d="M128 0v1854h768v-1854h-768zM256 128h512v1598h-512v-1598z" />
    <glyph glyph-name="glyph1" horiz-adv-x="0" 
 />
    <glyph glyph-name="glyph2" horiz-adv-x="569" 
 />
    <glyph glyph-name="space" unicode=" " horiz-adv-x="569" 
 />
    <glyph glyph-name="exclam" unicode="!" horiz-adv-x="682" 
d="M257 378l-73 744v344h304v-344l-72 -744h-159zM196 0v281h281v-281h-281z" />
    <glyph glyph-name="quotedbl" unicode="&#x22;" horiz-adv-x="971" 
d="M165 945l-53 273v248h306v-248l-46 -273h-207zM616 945l-53 273v248h306v-248l-46 -273h-207z" />
    <glyph glyph-name="numbersign" unicode="#" 
d="M154 365h-136v220h180l60 295h-240v221h285l79 390h224l-79 -390h221l77 390h232l-80 -390h138v-221h-183l-60 -295h243v-220h-288l-79 -390h-223l77 390h-222l-79 -390h-226zM483 880l-59 -295h222l58 295h-221z" />
    <glyph glyph-name="dollar" unicode="$" 
d="M489 217v419q-379 108 -379 445q0 168 106 279q104 108 273 125v99h145v-99q319 -38 373 -348l-253 -33q-23 118 -120 160v-391q204 -55 297 -139q117 -105 117 -295q0 -188 -114 -311q-111 -119 -300 -146v-187h-145v182q-360 44 -419 434l261 28q32 -161 158 -222z
M489 1267q-129 -44 -129 -174q0 -116 129 -172v346zM634 203q75 14 122 69t47 131q0 141 -169 190v-390z" />
    <glyph glyph-name="percent" unicode="%" horiz-adv-x="1821" 
d="M89 1104q0 387 321 387q326 0 326 -387t-321 -387q-326 0 -326 387zM308 1106q0 -228 102 -228q46 0 70 36q32 48 32 192q0 228 -102 228t-102 -228zM624 -56h-208l781 1547h202zM1078 329q0 387 323 387q324 0 324 -387q0 -388 -321 -388q-326 0 -326 388zM1297 330
q0 -228 102 -228t102 228q0 144 -32 192q-24 36 -70 36q-102 0 -102 -228z" />
    <glyph glyph-name="ampersand" unicode="&#x26;" horiz-adv-x="1479" 
d="M1446 179l-170 -217q-125 61 -240 168q-174 -156 -427 -156q-274 0 -412 154q-107 119 -107 274q0 283 335 449q-151 179 -151 322q0 158 131 244q113 74 279 74q167 0 279 -82q125 -91 125 -252q0 -114 -85 -208q-57 -63 -182 -142l204 -269q36 64 62 167l254 -58
q-30 -105 -49 -157q-34 -88 -77 -145q119 -112 231 -166zM681 976l76 58q84 64 84 129q0 60 -46 97q-42 33 -104 33q-56 0 -96 -27q-47 -31 -47 -84q0 -52 64 -126zM571 671q-193 -97 -193 -259q0 -95 63 -152q60 -54 156 -54q126 0 260 112z" />
    <glyph glyph-name="quotesingle" unicode="'" horiz-adv-x="487" 
d="M145 945l-53 273v248h306v-248l-46 -273h-207z" />
    <glyph glyph-name="parenleft" unicode="(" horiz-adv-x="682" 
d="M613 -431h-193q-313 473 -313 962q0 506 317 960h192q-124 -273 -176 -470q-64 -238 -64 -496q0 -330 114 -663q35 -101 123 -293z" />
    <glyph glyph-name="parenright" unicode=")" horiz-adv-x="682" 
d="M69 -431q130 279 180 492q57 244 57 464q0 258 -63 496q-53 197 -176 470h191q318 -453 318 -945q0 -502 -313 -977h-194z" />
    <glyph glyph-name="asterisk" unicode="*" horiz-adv-x="797" 
d="M245 792l-151 117q70 78 150 155q22 21 39 38q-26 4 -143 33q-84 21 -112 31l59 176q131 -53 234 -117q-24 163 -24 266h178q0 -73 -27 -268q11 5 86 39q83 38 166 70l53 -181q-111 -25 -257 -49l120 -135q32 -36 57 -67l-153 -101l-135 223q-61 -108 -140 -230z" />
    <glyph glyph-name="plus" unicode="+" horiz-adv-x="1196" 
d="M469 211v381h-384v263h384v381h256v-381h385v-263h-385v-381h-256z" />
    <glyph glyph-name="comma" unicode="," horiz-adv-x="569" 
d="M140 281h281v-201q0 -223 -100 -319q-59 -56 -149 -88l-55 116q155 51 159 211h-136v281z" />
    <glyph glyph-name="hyphen" unicode="-" horiz-adv-x="682" 
d="M115 391v281h552v-281h-552z" />
    <glyph glyph-name="period" unicode="." horiz-adv-x="569" 
d="M147 0v281h281v-281h-281z" />
    <glyph glyph-name="slash" unicode="/" horiz-adv-x="569" 
d="M-3 -25l363 1516h211l-367 -1516h-207z" />
    <glyph glyph-name="zero" unicode="0" 
d="M562 1472q476 0 476 -749q0 -748 -476 -748t-476 751q0 746 476 746zM562 1239q-114 0 -153 -149q-29 -110 -29 -367q0 -409 92 -483q39 -32 90 -32q113 0 153 149q29 109 29 366q0 408 -91 484q-40 32 -91 32z" />
    <glyph glyph-name="one" unicode="1" 
d="M806 0h-281v1059q-154 -144 -363 -213v255q131 43 248 143q125 107 168 228h228v-1472z" />
    <glyph glyph-name="two" unicode="2" 
d="M1036 261v-261h-985q20 182 145 352q78 104 268 280.5t232 239.5q58 86 58 172q0 195 -190 195q-185 0 -200 -229l-280 28q47 434 487 434q197 0 326 -103q139 -112 139 -305q0 -188 -148 -376q-56 -71 -174 -177q-131 -119 -178 -172q-36 -40 -58 -78h558z" />
    <glyph glyph-name="three" unicode="3" 
d="M77 389l272 33q12 -94 62 -151q56 -63 146 -63q97 0 154 75q52 69 52 169q0 95 -50 159q-54 71 -146 71q-54 0 -129 -21l31 229q101 -3 164 41q70 50 70 148q0 74 -43.5 118t-117.5 44q-163 0 -185 -196l-259 44q51 252 234 338q97 45 218 45q207 0 332 -132
q103 -108 103 -244q0 -193 -211 -308q128 -27 202.5 -121.5t74.5 -226.5q0 -201 -146 -335q-143 -130 -346 -130q-194 0 -327 111.5t-155 302.5z" />
    <glyph glyph-name="four" unicode="4" 
d="M638 0v295h-600v246l636 931h236v-930h182v-247h-182v-295h-272zM638 542v501l-337 -501h337z" />
    <glyph glyph-name="five" unicode="5" 
d="M91 377l280 29q11 -87 65 -144q57 -62 142 -62q109 0 164 94q46 77 46 193q0 117 -49 188q-57 82 -169 82q-121 0 -217 -107l-228 33l144 763h743v-263h-530l-44 -249q94 47 192 47q201 0 327 -146q120 -139 120 -343q0 -181 -105 -323q-143 -194 -397 -194
q-196 0 -325 103q-133 108 -159 299z" />
    <glyph glyph-name="six" unicode="6" 
d="M1039 1107l-272 -30q-20 164 -161 164q-131 0 -186 -153q-31 -86 -42 -260q105 124 261 124q192 0 313 -147q114 -137 114 -333q0 -218 -126 -355q-129 -142 -345 -142q-281 0 -409 243q-99 186 -99 495q0 323 105 514q135 245 431 245q173 0 280 -96.5t136 -268.5z
M402 494q0 -109 48 -189q57 -97 159 -97q182 0 182 261q0 276 -196 276q-98 0 -149 -80q-44 -68 -44 -171z" />
    <glyph glyph-name="seven" unicode="7" 
d="M87 1185v261h961v-204q-142 -139 -263 -374q-110 -213 -166 -427q-65 -247 -64 -441h-271q7 308 128 627q117 310 314 558h-639z" />
    <glyph glyph-name="eight" unicode="8" 
d="M328 791q-208 88 -208 303q0 184 131 286q120 92 309 92q188 0 308 -93q132 -102 132 -285q0 -215 -202 -303q249 -100 249 -360q0 -209 -132 -333t-342 -124q-200 0 -333 105q-157 124 -157 340q0 268 245 372zM386 1074q0 -82 46 -130t128 -48t129 48.5t47 130.5
q0 79 -47 126.5t-126 47.5q-80 0 -128.5 -47.5t-48.5 -127.5zM360 446q0 -104 51 -171q57 -75 157 -75t153 74q48 66 48 169q0 97 -53 160q-57 68 -152 68q-94 0 -150 -67q-54 -62 -54 -158z" />
    <glyph glyph-name="nine" unicode="9" 
d="M93 339l272 30q20 -163 163 -163q128 0 183 154q31 86 43 258q-106 -123 -265 -123q-191 0 -312 148q-112 138 -112 333q0 216 126 354q130 142 344 142q282 0 410 -243q99 -187 99 -497q0 -323 -106 -514q-135 -244 -431 -244q-354 0 -414 365zM729 953q0 109 -48 190
q-57 96 -159 96q-181 0 -181 -263q0 -113 41 -185q50 -90 155 -90q97 0 149 81q43 68 43 171z" />
    <glyph glyph-name="colon" unicode=":" horiz-adv-x="682" 
d="M201 781v281h281v-281h-281zM201 0v281h281v-281h-281z" />
    <glyph glyph-name="semicolon" unicode=";" horiz-adv-x="682" 
d="M193 781v281h281v-281h-281zM193 281h281v-201q0 -223 -100 -319q-59 -56 -149 -88l-55 116q155 51 159 211h-136v281z" />
    <glyph glyph-name="less" unicode="&#x3c;" horiz-adv-x="1196" 
d="M1100 167l-1005 437v242l1005 435v-285l-701 -268l701 -278v-283z" />
    <glyph glyph-name="equal" unicode="=" horiz-adv-x="1196" 
d="M85 816v258h1025v-258h-1025zM85 372v259h1025v-259h-1025z" />
    <glyph glyph-name="greater" unicode="&#x3e;" horiz-adv-x="1196" 
d="M95 166v283l702 276l-702 273v281l1006 -435v-240z" />
    <glyph glyph-name="question" unicode="?" horiz-adv-x="1251" 
d="M751 378h-255l-1 67q0 132 50 219q42 73 155 165q124 101 147 131q37 49 37 108q0 94 -76 149q-69 50 -166 50q-225 0 -278 -247l-258 32q12 200 171 319q146 110 353 110q206 0 357 -105q171 -118 171 -316q0 -117 -92 -229q-50 -61 -185 -173q-88 -73 -110 -120
t-20 -160zM496 0v281h281v-281h-281z" />
    <glyph glyph-name="at" unicode="@" horiz-adv-x="1997" 
d="M1777 19h213q-116 -236 -373 -351q-219 -99 -512 -99q-690 0 -927 441q-117 217 -117 473q0 277 127 514q134 250 370 374q231 121 528 121q238 0 427 -88q211 -98 321 -288q103 -181 103 -395q0 -254 -157 -461q-198 -260 -505 -260q-153 0 -181 114
q-118 -114 -272 -114q-177 0 -284 123q-101 116 -101 296q0 235 132 429q160 236 410 236q178 0 263 -136l25 111h264l-151 -717q-14 -66 -14 -88q0 -50 39 -50q47 0 124 58q106 79 167 207t61 262q0 277 -204 434q-186 143 -471 143q-543 0 -743 -421q-96 -201 -96 -418
q0 -213 105 -382q108 -175 300.5 -254.5t440.5 -79.5q478 0 688 266zM696 430q0 -102 38 -167q46 -80 141 -80q103 0 182 91q57 66 95 187q35 113 35 209q0 97 -43 161q-49 73 -142 73q-99 0 -174 -82q-63 -68 -95 -174q-37 -123 -37 -218z" />
    <glyph glyph-name="A" unicode="A" horiz-adv-x="1479" 
d="M1471 0h-322l-128 333h-586l-121 -333h-314l571 1466h313zM926 580l-202 544l-198 -544h400z" />
    <glyph glyph-name="B" unicode="B" horiz-adv-x="1479" 
d="M150 1466h586q153 0 213 -7q122 -15 200 -68q157 -107 157 -294q0 -104 -55.5 -189.5t-150.5 -128.5q129 -38 202 -128q76 -94 76 -226q0 -101 -46.5 -195t-127 -150.5t-198.5 -69.5q-91 -10 -357 -10h-499v1466zM446 1222v-339h194q173 0 215 5q163 19 163 167
q0 144 -149 162q-42 5 -253 5h-170zM446 639v-392h274q156 0 203 9q149 29 149 183q0 136 -124 179q-61 21 -263 21h-239z" />
    <glyph glyph-name="C" unicode="C" horiz-adv-x="1479" 
d="M1087 539l287 -91q-130 -473 -609 -473q-316 0 -498 219q-170 204 -170 526q0 340 170 547q184 224 516 224q269 0 437 -159q100 -95 150 -270l-293 -70q-26 115 -108.5 180.5t-200.5 65.5q-366 0 -366 -496q0 -514 360 -514q254 0 325 311z" />
    <glyph glyph-name="D" unicode="D" horiz-adv-x="1479" 
d="M148 1466h541q184 0 279 -28q260 -76 361 -372q48 -141 48 -347q0 -375 -202 -571q-78 -75 -208 -117q-97 -31 -262 -31h-557v1466zM444 1218v-971h221q123 0 179 14q147 37 197 203q30 98 30 268q0 295 -114 403q-54 51 -137 69q-63 14 -243 14h-133z" />
    <glyph glyph-name="F" unicode="F" horiz-adv-x="1251" 
d="M151 0v1466h1005v-248h-709v-347h612v-248h-612v-623h-296z" />
    <glyph glyph-name="G" unicode="G" horiz-adv-x="1593" 
d="M831 539v247h638v-584q-107 -104 -293 -168q-173 -59 -334 -59q-220 0 -387 88q-181 97 -271 285q-86 179 -86 390q0 224 90 397q98 185 287 283q142 73 351 73q530 0 624 -431l-294 -55q-67 233 -330 233q-214 0 -324 -141q-99 -127 -99 -347q0 -227 94 -363
q110 -159 326 -159q186 0 347 125v186h-339z" />
    <glyph glyph-name="H" unicode="H" horiz-adv-x="1479" 
d="M150 0v1466h296v-577h580v577h296v-1466h-296v641h-580v-641h-296z" />
    <glyph glyph-name="I" unicode="I" horiz-adv-x="569" 
d="M140 0v1466h296v-1466h-296z" />
    <glyph glyph-name="J" unicode="J" 
d="M678 1466h295v-928q0 -184 -32 -280q-94 -283 -454 -283q-225 0 -340 128q-111 123 -112 350l279 32q5 -126 37 -178q48 -79 146 -79q120 0 158 91q23 56 23 200v947z" />
    <glyph glyph-name="K" unicode="K" horiz-adv-x="1479" 
d="M153 0v1466h296v-651l598 651h398l-552 -571l582 -895h-383l-403 688l-240 -245v-443h-296z" />
    <glyph glyph-name="L" unicode="L" horiz-adv-x="1251" 
d="M157 0v1454h296v-1207h736v-247h-1032z" />
    <glyph glyph-name="M" unicode="M" horiz-adv-x="1706" 
d="M145 0v1466h443l266 -1000l263 1000h444v-1466h-275v1154l-291 -1154h-285l-290 1154v-1154h-275z" />
    <glyph glyph-name="N" unicode="N" horiz-adv-x="1479" 
d="M152 0v1466h288l600 -979v979h275v-1466h-297l-591 956v-956h-275z" />
    <glyph glyph-name="P" unicode="P" horiz-adv-x="1366" 
d="M149 0v1466h475q269 0 352 -22q144 -38 223 -161q73 -113 73 -268q0 -251 -173 -371q-78 -54 -154 -70q-102 -21 -307 -21h-193v-553h-296zM445 1218v-416h162q130 0 178 9q102 19 149 86q33 49 33 114q0 77 -45 130t-121 67q-54 10 -213 10h-143z" />
    <glyph glyph-name="Q" unicode="Q" horiz-adv-x="1593" 
d="M1329 186q109 -78 237 -124l-109 -209q-65 19 -131 55q-18 10 -197 130q-144 -63 -319 -63q-348 0 -538 207q-183 200 -183 551q0 347 182 548q189 210 531 210q341 0 528 -211q180 -202 180 -547q0 -189 -53 -334q-40 -111 -128 -213zM1091 353q114 134 114 380
q0 220 -91 352q-105 153 -314 153t-315 -154q-91 -132 -91 -351q0 -216 88 -352q104 -160 309 -160q64 0 121 21q-90 59 -183 92l83 169q146 -50 279 -150z" />
    <glyph glyph-name="R" unicode="R" horiz-adv-x="1479" 
d="M150 0v1466h623q194 0 285 -23q152 -38 227 -157q64 -101 64 -231q0 -352 -387 -408q110 -64 188 -157q46 -56 139 -204l179 -286h-354l-214 319q-96 143 -105 155q-76 99 -140 122q-47 16 -149 16h-60v-612h-296zM446 846h219q163 0 187 3q119 13 162 77q30 44 30 110
q0 153 -151 177q-32 5 -216 5h-231v-372z" />
    <glyph glyph-name="S" unicode="S" horiz-adv-x="1366" 
d="M74 477l288 28q50 -281 320 -281q112 0 191 44q97 55 97 158q0 104 -137 152q-50 18 -237 64q-238 59 -334 145q-135 121 -135 295q0 120 67 215t180 143q119 51 288 51q242 0 387 -99q167 -115 175 -345l-296 -13q-20 116 -86 166q-62 46 -183 46q-129 0 -202 -53
q-47 -34 -47 -91q0 -52 44 -89q53 -45 274 -102q247 -64 318 -101q220 -117 220 -383q0 -133 -72.5 -240.5t-195.5 -158.5q-128 -54 -319 -54q-546 0 -605 503z" />
    <glyph glyph-name="T" unicode="T" horiz-adv-x="1251" 
d="M479 0v1218h-435v248h1165v-248h-434v-1218h-296z" />
    <glyph glyph-name="U" unicode="U" horiz-adv-x="1479" 
d="M147 1466h296v-794q0 -191 11 -245q41 -199 286 -199q236 0 267 178q13 75 13 249v811h296v-770q0 -212 -10 -291q-22 -173 -102 -266q-142 -164 -455 -164q-348 0 -490 175q-63 77 -83 162q-29 125 -29 372v782z" />
    <glyph glyph-name="V" unicode="V" horiz-adv-x="1366" 
d="M523 0l-524 1466h321l371 -1085l359 1085h314l-525 -1466h-316z" />
    <glyph glyph-name="W" unicode="W" horiz-adv-x="1933" 
d="M357 0l-350 1466h303l221 -1007l268 1007h352l257 -1024l225 1024h298l-356 -1466h-314l-292 1096l-291 -1096h-321z" />
    <glyph glyph-name="X" unicode="X" horiz-adv-x="1366" 
d="M0 0l501 765l-454 701h346l294 -471l288 471h343l-456 -712l501 -754h-357l-325 507l-326 -507h-355z" />
    <glyph glyph-name="Y" unicode="Y" horiz-adv-x="1366" 
d="M534 0v617l-537 849h347l345 -580l338 580h341l-539 -851v-615h-295z" />
    <glyph glyph-name="Z" unicode="Z" horiz-adv-x="1251" 
d="M22 0v267l770 951h-683v248h1073v-230l-803 -989h834v-247h-1191z" />
    <glyph glyph-name="bracketleft" unicode="[" horiz-adv-x="682" 
d="M146 -413v1879h498v-221h-231v-1437h231v-221h-498z" />
    <glyph glyph-name="backslash" unicode="\" horiz-adv-x="569" 
d="M-3 1491h207l367 -1516h-211z" />
    <glyph glyph-name="bracketright" unicode="]" horiz-adv-x="682" 
d="M536 1466v-1879h-498v221h231v1439h-231v219h498z" />
    <glyph glyph-name="asciicircum" unicode="^" horiz-adv-x="1196" 
d="M115 692l376 799h223l366 -799h-284l-198 489l-197 -489h-286z" />
    <glyph glyph-name="underscore" unicode="_" 
d="M-19 -405v182h1168v-182h-1168z" />
    <glyph glyph-name="grave" unicode="`" horiz-adv-x="682" 
d="M495 1192h-177l-276 299h315z" />
    <glyph glyph-name="a" unicode="a" 
d="M357 738l-255 46q47 169 168 240q105 62 292 62q323 0 410 -157q39 -72 37 -252l-3 -328q-2 -214 64 -349h-278q-12 30 -27 83q-8 27 -10 33q-144 -140 -329 -140q-151 0 -249 80q-104 86 -104 234q0 189 164 269q78 38 223 65q198 38 273 69v28q0 91 -52 124
q-41 26 -139 26q-138 0 -185 -133zM733 510q-19 -6 -171 -41q-120 -28 -153 -51q-55 -38 -55 -99q0 -63 46 -104t110 -41q77 0 145 50q50 37 67 93q11 37 11 137v56z" />
    <glyph glyph-name="b" unicode="b" horiz-adv-x="1251" 
d="M135 0v1466h281v-528q130 148 308 148q222 0 342 -166q106 -147 106 -378q0 -230 -104 -386q-121 -180 -340 -180q-203 0 -332 180v-156h-261zM414 554q0 -165 52 -244q73 -112 194 -112q120 0 179 111q45 87 45 219q0 343 -235 343q-123 0 -184 -102q-51 -84 -51 -215z
" />
    <glyph glyph-name="c" unicode="c" 
d="M1073 748l-277 -50q-28 167 -192 167q-230 0 -230 -315q0 -345 234 -345q165 0 203 202l276 -47q-87 -384 -492 -384q-245 0 -381 157q-129 148 -129 397q0 252 130 400q137 156 385 156q374 0 473 -338z" />
    <glyph glyph-name="d" unicode="d" horiz-adv-x="1251" 
d="M1121 0h-261v156q-129 -180 -332 -180q-215 0 -337 178q-107 156 -107 381q0 234 104 382q120 169 344 169q178 0 308 -148v528h281v-1466zM371 554q0 -170 47 -246q68 -110 190 -110q121 0 183 110q50 88 50 219q0 344 -235 344q-121 0 -184 -103q-51 -84 -51 -214z" />
    <glyph glyph-name="e" unicode="e" 
d="M762 338l280 -47q-110 -315 -462 -315q-278 0 -410 181q-105 144 -105 366q0 240 121 394q133 169 366 169q270 0 399 -190q111 -163 106 -446h-704q3 -112 59 -184q63 -80 171 -80q135 0 179 152zM778 622q-3 105 -52 172q-56 77 -157 77q-102 0 -159 -76
q-53 -68 -52 -173h420z" />
    <glyph glyph-name="f" unicode="f" horiz-adv-x="682" 
d="M24 1062h156v80q0 118 20 177q29 85 114 131q76 41 193 41q120 0 235 -36l-38 -196q-67 16 -129 16q-68 0 -93 -36q-21 -30 -21 -102v-75h210v-221h-210v-841h-281v841h-156v221z" />
    <glyph glyph-name="g" unicode="g" horiz-adv-x="1251" 
d="M121 -70l321 -39q8 -56 37 -77q41 -30 126 -30q110 0 165 33q37 22 56 71q13 34 13 129v155q-126 -172 -318 -172q-214 0 -339 181q-98 142 -98 356q0 231 106 380q120 169 342 169q197 0 325 -173v149h263v-953q0 -315 -118.5 -427.5t-385.5 -112.5q-496 0 -496 327
q0 14 1 34zM372 553q0 -133 46 -218q59 -108 181 -108q124 0 190 102q55 86 55 217q0 135 -51 221q-63 104 -189 104q-123 0 -183 -103q-49 -83 -49 -215z" />
    <glyph glyph-name="h" unicode="h" horiz-adv-x="1251" 
d="M427 1466v-539q136 159 325 159q202 0 293 -128q68 -97 68 -335v-623h-281v561q0 129 -3 154q-13 93 -69 130q-41 26 -102 26q-155 0 -205 -136q-26 -69 -26 -203v-532h-281v1466h281z" />
    <glyph glyph-name="i" unicode="i" horiz-adv-x="569" 
d="M147 1206v260h281v-260h-281zM147 0v1062h281v-1062h-281z" />
    <glyph glyph-name="j" unicode="j" horiz-adv-x="569" 
d="M141 1206v260h281v-260h-281zM422 1062v-1029q0 -167 -12 -230q-26 -131 -116 -187q-76 -47 -193 -47q-83 0 -195 30l49 240q45 -9 70 -9q85 0 107 63q9 26 9 156v1013h281z" />
    <glyph glyph-name="k" unicode="k" 
d="M137 0v1466h281v-778l329 374h346l-363 -388l389 -674h-303l-267 477l-131 -137v-340h-281z" />
    <glyph glyph-name="l" unicode="l" horiz-adv-x="569" 
d="M147 0v1466h281v-1466h-281z" />
    <glyph glyph-name="m" unicode="m" horiz-adv-x="1821" 
d="M126 1062h259v-145q139 169 331 169q205 0 300 -169q139 169 324 169q238 0 319 -187q29 -67 29 -220v-679h-281v607q0 159 -29 204q-38 60 -120 60q-139 0 -186 -141q-23 -70 -23 -220v-510h-281v582q0 112 -4 143q-11 92 -57 124q-32 22 -86 22q-145 0 -191 -136
q-23 -66 -23 -219v-516h-281v1062z" />
    <glyph glyph-name="n" unicode="n" horiz-adv-x="1251" 
d="M1113 0h-281v542q0 128 -5 163q-14 98 -71 138q-41 28 -98 28q-72 0 -129 -39q-60 -40 -81.5 -106.5t-21.5 -244.5v-481h-281v1062h261v-156q139 180 350 180q196 0 287 -119q70 -93 70 -307v-660z" />
    <glyph glyph-name="p" unicode="p" horiz-adv-x="1251" 
d="M139 1062h262v-156q115 180 331 180q215 0 336 -173q107 -152 107 -376q0 -227 -106 -383q-122 -178 -339 -178q-166 0 -310 155v-535h-281v1466zM417 549q0 -141 51 -233q64 -117 193 -117q228 0 228 336q0 133 -49 220q-61 109 -184 109t-186 -100q-53 -85 -53 -215z
" />
    <glyph glyph-name="q" unicode="q" horiz-adv-x="1251" 
d="M841 -404v534q-119 -154 -314 -154q-180 0 -298 136q-138 160 -138 431q0 226 110 376q123 167 341 167q202 0 321 -181v157h259v-1466h-281zM850 544q0 132 -49 217q-61 105 -184 105q-128 0 -190 -111q-49 -88 -49 -227q0 -330 229 -330q124 0 190 117q53 95 53 229z
" />
    <glyph glyph-name="r" unicode="r" horiz-adv-x="797" 
d="M416 0h-281v1062h261v-151q55 87 98 123q61 52 144 52q96 0 185 -53l-87 -245q-71 46 -132 46q-123 0 -164 -150q-24 -85 -24 -356v-328z" />
    <glyph glyph-name="s" unicode="s" 
d="M48 303l282 43q37 -167 227 -167q201 0 201 115q0 65 -114 90q-342 76 -431 137q-126 86 -126 239q0 172 145 257q118 69 302 69q187 0 293 -53q131 -67 177 -228l-265 -49q-35 128 -200 128q-191 0 -191 -88q0 -30 28 -51q43 -32 270 -83q220 -49 307 -122t87 -208
q0 -181 -158 -277q-132 -79 -325 -79q-425 0 -509 327z" />
    <glyph glyph-name="t" unicode="t" horiz-adv-x="682" 
d="M634 1062v-224h-192v-428q0 -124 -1 -99q3 -68 32 -88q19 -14 47 -14q39 0 113 27l24 -218q-98 -42 -222 -42q-162 0 -226 92q-28 39 -40 109q-9 53 -9 198v463h-129v224h129v211l282 164v-375h192z" />
    <glyph glyph-name="u" unicode="u" horiz-adv-x="1251" 
d="M846 0v159q-125 -183 -352 -183q-235 0 -315 179q-38 85 -38 235v672h281v-488q0 -178 1 -189q11 -123 71 -165q41 -30 104 -30q68 0 126.5 37.5t80.5 100.5q21 58 21 286v448h281v-1062h-261z" />
    <glyph glyph-name="v" unicode="v" 
d="M439 0l-428 1062h295l200 -542l58 -181q18 53 29 91q14 48 30 90l202 542h289l-422 -1062h-253z" />
    <glyph glyph-name="w" unicode="w" horiz-adv-x="1593" 
d="M345 0l-336 1062h273l199 -696l183 696h271l177 -696l203 696h277l-341 -1062h-270l-183 683l-180 -683h-273z" />
    <glyph glyph-name="x" unicode="x" 
d="M12 0l383 547l-367 515h343l188 -292l198 292h330l-360 -503l393 -559h-345l-216 329l-218 -329h-329z" />
    <glyph glyph-name="y" unicode="y" 
d="M14 1062h299l254 -754l248 754h291l-442 -1207q-30 -83 -70 -142q-66 -95 -184 -127q-64 -17 -144 -17q-81 0 -159 17l-25 220q66 -13 119 -13q160 0 217 204z" />
    <glyph glyph-name="z" unicode="z" horiz-adv-x="1024" 
d="M34 0v219l398 457q94 108 145 159q-59 -4 -129 -4l-375 -2v233h878v-199l-406 -468l-143 -155q117 7 145 7h435v-247h-948z" />
    <glyph glyph-name="braceleft" unicode="{" horiz-adv-x="797" 
d="M60 410v240q126 7 174 83q27 41 37 106q8 50 8 167q0 153 7 207q16 127 76 187q47 46 137 73q60 18 192 18h53v-239q-80 0 -103 -3q-64 -10 -86 -47q-13 -23 -19 -161q-3 -83 -5 -166q-9 -175 -79 -262q-33 -40 -100 -83q116 -67 154 -190q21 -68 26 -174q7 -148 7 -212
q0 -105 65 -132q32 -13 140 -13v-240h-53q-236 0 -328 93q-59 59 -75 167q-9 55 -9 188q0 182 -16 239q-23 83 -68.5 116t-134.5 38z" />
    <glyph glyph-name="bar" unicode="|" horiz-adv-x="573" 
d="M176 -431v1922h223v-1922h-223z" />
    <glyph glyph-name="braceright" unicode="}" horiz-adv-x="797" 
d="M729 410q-126 -7 -173 -82q-27 -43 -38 -107q-8 -47 -8 -166q0 -154 -7 -207q-16 -129 -75 -188q-47 -46 -138 -73q-61 -18 -192 -18h-53v240q157 0 189 52q14 24 20 157q2 82 4 163q9 181 86 273q36 43 93 76q-75 49 -108 94q-47 65 -64 168q-11 70 -16 308q-1 61 -7 81
q-11 41 -51 58q-33 13 -146 13v239h53q238 0 328 -92q58 -60 75 -168q9 -56 9 -188q0 -184 15 -239q22 -82 71 -117q45 -32 133 -37v-240z" />
    <glyph glyph-name="asciitilde" unicode="~" horiz-adv-x="1196" 
d="M67 519v259q127 138 296 138q107 0 307 -80q137 -56 186 -56q139 0 273 144v-270q-126 -132 -299 -132q-90 0 -248 69q-154 67 -242 67q-140 0 -273 -139z" />
    <glyph glyph-name="Ccedilla" unicode="&#xc7;" horiz-adv-x="1479" 
d="M1087 539l287 -91q-130 -473 -609 -473q-316 0 -498 219q-170 204 -170 526q0 340 170 547q184 224 516 224q269 0 437 -159q100 -95 150 -270l-293 -70q-26 115 -108.5 180.5t-200.5 65.5q-366 0 -366 -496q0 -514 360 -514q254 0 325 311zM465 -403v118
q103 -11 189 -11q165 0 165 94q0 84 -127 84q-64 0 -131 -20l26 99q78 27 168 27q102 0 172 -42q83 -51 83 -147q0 -88 -72 -143q-97 -75 -278 -75q-129 0 -195 16z" />
    <glyph glyph-name="ccedilla" unicode="&#xe7;" 
d="M1073 748l-277 -50q-28 167 -192 167q-230 0 -230 -315q0 -345 234 -345q165 0 203 202l276 -47q-87 -384 -492 -384q-245 0 -381 157q-129 148 -129 397q0 252 130 400q137 156 385 156q374 0 473 -338zM316 -403v118q103 -11 189 -11q165 0 165 94q0 84 -127 84
q-64 0 -131 -20l26 99q78 27 168 27q102 0 172 -42q83 -51 83 -147q0 -88 -72 -143q-97 -75 -278 -75q-129 0 -195 16z" />
    <glyph glyph-name="dagger" unicode="&#x2020;" 
d="M433 -350v1180h-365v232h365v386h263v-386h363v-232h-363v-1180h-263z" />
    <glyph glyph-name="degree" unicode="&#xb0;" horiz-adv-x="819" 
d="M86 1172q0 133 93 226t226 93t226 -93t93 -226t-93 -226t-226 -93t-226 93t-93 226zM252 1172q0 -63 45 -108t108 -45t108 45t45 108t-45 108t-108 45t-108 -45t-45 -108z" />
    <glyph glyph-name="cent" unicode="&#xa2;" 
d="M744 811l-182 -602q22 -4 45 -4q165 0 203 202l276 -47q-87 -384 -491 -384q-50 0 -101 7l-117 -386l-122 34l116 385q-147 64 -221 213q-66 132 -66 306q0 249 131 397q137 154 383 154q45 0 94 -6l113 376l123 -35l-112 -371q189 -72 256 -302l-277 -50q-12 72 -51 113
zM627 864q-13 1 -24 1q-231 0 -231 -316q0 -194 76 -280z" />
    <glyph glyph-name="sterling" unicode="&#xa3;" 
d="M999 285l108 -238q-129 -70 -276 -70q-81 0 -234.5 42.5t-227.5 42.5q-122 0 -249 -87l-107 242q212 152 212 347q0 27 -4 57h-208v221h157q-41 118 -41 239q0 115 62 212t166 147q109 51 238 51q403 0 457 -385l-271 -40q-36 201 -194 201q-81 0 -133.5 -53.5
t-52.5 -134.5q0 -101 50 -237h312v-221h-266q3 -22 3 -44q0 -92 -45 -175q-30 -56 -108 -147q55 28 138 28q35 0 63 -4q16 -2 82 -19q122 -31 165 -31q78 0 204 56z" />
    <glyph glyph-name="section" unicode="&#xa7;" 
d="M986 1154l-275 -29q-8 152 -153 152q-50 0 -87 -21q-46 -25 -46 -72q0 -49 46 -94q66 -64 214 -154q161 -98 221 -148q162 -137 162 -303q0 -186 -182 -314q121 -111 121 -254q0 -172 -133 -266q-117 -82 -297 -82q-186 0 -307 89q-131 96 -155 274l274 33
q36 -181 196 -181q58 0 99 29q45 33 45 89q0 67 -125 156q-89 55 -178 111q-179 113 -248 184q-119 122 -119 272q0 215 185 320q-101 109 -101 224q0 157 127 245q111 77 275 77q176 0 292 -81q127 -88 149 -256zM735 293q87 79 87 147q0 70 -149 178l-273 198
q-86 -51 -86 -136q0 -100 135 -192z" />
    <glyph glyph-name="bullet" unicode="&#x2022;" horiz-adv-x="717" 
d="M657 724q0 -123 -86 -209.5t-209 -86.5t-209.5 86.5t-86.5 209.5t86.5 209t209.5 86t209 -86t86 -209z" />
    <glyph glyph-name="paragraph" unicode="&#xb6;" 
d="M635 -403h-243v1047q-185 14 -288 118q-106 106 -106 290q0 220 152 331q69 51 163 71q56 12 219 12h597v-261h-113v-1608h-237v1608h-144v-1608z" />
    <glyph glyph-name="germandbls" unicode="&#xdf;" horiz-adv-x="1251" 
d="M139 0v952q0 177 24 264q37 137 149 210q102 65 265 65q167 0 275 -66q131 -80 131 -237q0 -76 -44 -161q-68 -134 -73 -147q-8 -22 -8 -38q0 -33 26 -70t132 -143q91 -90 127 -162.5t36 -150.5q0 -150 -102 -245t-253 -95q-99 0 -187.5 51.5t-136.5 137.5l196 115
q43 -79 104 -79q43 0 70.5 30t27.5 73q0 40 -30 83q-16 23 -138 139q-169 161 -169 255q0 60 65 194q69 142 69 190q0 49 -35.5 77.5t-85.5 28.5q-106 0 -136 -93q-18 -56 -18 -226v-952h-281z" />
    <glyph glyph-name="registered" unicode="&#xae;" horiz-adv-x="1509" 
d="M757 1496q206 0 384.5 -101.5t278.5 -279.5q103 -184 103 -385q0 -205 -103.5 -385t-280.5 -279q-182 -102 -382 -102q-205 0 -385 103.5t-279 281.5q-102 181 -102 381q0 206 105 388t284.5 280t376.5 98zM758 1346q-165 0 -308 -81.5t-223 -224.5q-84 -148 -84 -310
q0 -165 83 -310t227.5 -226t304.5 -81q165 0 309.5 83.5t225.5 228t81 305.5q0 165 -84.5 312t-227.5 225q-146 79 -304 79zM411 320v813h165q236 0 260 -2q146 -12 204 -110q30 -53 30 -117q0 -95 -63 -157q-59 -57 -156 -71q58 -22 112 -93q9 -12 60 -99l96 -164h-204
l-68 132q-54 105 -85 140q-57 62 -143 62h-43v-334h-165zM576 782h67q111 0 124 1q79 9 108 49q20 27 20 62q0 75 -75 99q-36 11 -177 11h-67v-222z" />
    <glyph glyph-name="copyright" unicode="&#xa9;" horiz-adv-x="1509" 
d="M757 1496q205 0 383.5 -102t279.5 -279q103 -184 103 -385q0 -205 -103.5 -385t-280.5 -279q-182 -102 -382 -102q-205 0 -385 103.5t-279 281.5q-102 181 -102 381q0 205 105 387t284.5 280.5t376.5 98.5zM757 1345q-165 0 -308.5 -81.5t-223.5 -223.5
q-83 -148 -83 -310q0 -165 83 -309.5t226 -223.5q146 -82 306 -82q165 0 309.5 83t225 227.5t80.5 304.5q0 165 -84 311.5t-227 224.5q-146 79 -304 79zM943 616l161 -54q-78 -260 -336 -260q-183 0 -288 121q-99 114 -99 300q0 278 187 381q90 50 202 50q245 0 334 -243
l-162 -38q-53 139 -178 139q-207 0 -207 -283q0 -113 40 -188q51 -96 154 -96q142 0 192 171z" />
    <glyph glyph-name="trademark" unicode="&#x2122;" horiz-adv-x="2048" 
d="M469 647v677h-253v142h665v-142h-246v-677h-166zM980 647v819h259l149 -564l150 564h259v-819h-158v653l-177 -653h-150l-176 653v-653h-156z" />
    <glyph glyph-name="acute" unicode="&#xb4;" horiz-adv-x="682" 
d="M187 1192l138 299h315l-275 -299h-178z" />
    <glyph glyph-name="dieresis" unicode="&#xa8;" horiz-adv-x="682" 
d="M5 1250v241h241v-241h-241zM435 1250v241h242v-241h-242z" />
    <glyph glyph-name="plusminus" unicode="&#xb1;" horiz-adv-x="1124" 
d="M434 356v381h-384v263h384v381h256v-381h385v-263h-385v-381h-256zM50 0v263h1025v-263h-1025z" />
    <glyph glyph-name="yen" unicode="&#xa5;" 
d="M422 273h-371v221h371v120h-371v221h261l-311 631h308l200 -426q39 -82 54 -141q20 71 54 141l204 426h308l-315 -631h265v-221h-376v-120h376v-221h-376v-273h-281v273z" />
    <glyph glyph-name="ordfeminine" unicode="&#xaa;" horiz-adv-x="758" 
d="M254 1252l-189 38q47 201 303 201q146 0 222 -39q49 -25 73 -89q15 -40 15 -154v-239q0 -149 30 -209h-190q-13 26 -23 71q-88 -89 -216 -89q-105 0 -171 54q-71 59 -71 162q0 135 124 189q41 18 188 47q77 15 125 33q0 14 -1 21q-1 49 -18 64q-24 21 -83 21
q-52 0 -78 -17q-19 -13 -40 -65zM474 1095q-21 -12 -62 -21q-108 -23 -128 -35q-40 -25 -40 -65q0 -36 30 -58.5t67 -22.5q133 0 133 162v40z" />
    <glyph glyph-name="ordmasculine" unicode="&#xba;" horiz-adv-x="748" 
d="M26 1115q0 169 88 270q92 106 259 106q166 0 259 -106q88 -102 88 -270q0 -169 -88 -269q-93 -106 -259 -106q-167 0 -259 105q-88 101 -88 270zM237 1113q0 -203 133 -203q134 0 134 203t-134 203q-133 0 -133 -203z" />
    <glyph glyph-name="questiondown" unicode="&#xbf;" horiz-adv-x="1251" 
d="M763 1062v-281h-281v281h281zM509 684h254l2 -76q0 -126 -56 -217q-45 -74 -157 -165q-97 -79 -117 -101q-60 -65 -60 -136q0 -91 79 -146q69 -48 164 -48q222 0 278 247l258 -33q-37 -272 -263 -375q-119 -54 -262 -54q-205 0 -356 104q-172 119 -172 315q0 128 106 246
q57 65 173 159q87 71 108.5 118.5t20.5 161.5z" />
    <glyph glyph-name="exclamdown" unicode="&#xa1;" horiz-adv-x="682" 
d="M488 1062v-281h-282v281h282zM426 678l73 -741v-344h-304v344l73 741h158z" />
    <glyph glyph-name="florin" unicode="&#x192;" 
d="M276 851l36 211h202l16 89q28 153 48 196q69 144 297 144q135 0 267 -41l-54 -226q-94 28 -158 28q-63 0 -90 -36q-19 -26 -33 -98l-11 -56h208l-37 -211h-205l-173 -978q-19 -106 -42 -155q-35 -76 -108 -115q-65 -34 -179 -34q-156 0 -280 40l57 221q109 -23 167 -23
q61 0 87 38q19 28 37 133l150 873h-202z" />
    <glyph glyph-name="guillemotleft" unicode="&#xab;" 
d="M633 983l-260 -451l260 -462h-221l-316 462l316 451h221zM1025 983l-259 -451l259 -462h-221l-316 462l316 451h221z" />
    <glyph glyph-name="guillemotright" unicode="&#xbb;" 
d="M498 70l260 452l-260 461h221l316 -461l-316 -452h-221zM106 70l260 452l-260 461h221l316 -461l-316 -452h-221z" />
    <glyph glyph-name="ellipsis" unicode="&#x2026;" horiz-adv-x="2048" 
d="M1566 0v281h282v-281h-282zM884 0v281h281v-281h-281zM201 0v281h281v-281h-281z" />
    <glyph glyph-name="OE" unicode="&#x152;" horiz-adv-x="2048" 
d="M1985 249v-249h-943v173q-115 -198 -384 -198q-261 0 -407 170q-179 208 -179 590q0 377 175 581q150 175 397 175q257 0 398 -187v162h915v-248h-658v-326h602v-248h-602v-395h686zM701 1238q-324 0 -324 -481q0 -522 324 -522t324 516q0 487 -324 487z" />
    <glyph glyph-name="oe" unicode="&#x153;" horiz-adv-x="1933" 
d="M1562 341l274 -44q-51 -156 -175 -240q-120 -81 -288 -81q-228 0 -374 148q-158 -148 -373 -148q-238 0 -388 157t-150 396q0 152 63 280q69 140 195.5 208.5t284.5 68.5q221 0 371 -148q138 148 354 148q199 0 328 -119q115 -108 149 -301q17 -97 16 -218h-699
q20 -258 224 -258q134 0 188 151zM1579 624q-16 255 -218 255q-99 0 -157 -80q-41 -56 -51 -175h426zM377 515q0 -121 64 -208q71 -98 187 -98q127 0 192 107q53 88 53 224q0 128 -57 214q-66 99 -188 99q-133 0 -198 -108q-53 -88 -53 -230z" />
    <glyph glyph-name="endash" unicode="&#x2013;" 
d="M-4 426v210h1139v-210h-1139z" />
    <glyph glyph-name="emdash" unicode="&#x2014;" horiz-adv-x="2048" 
d="M0 426v210h2048v-210h-2048z" />
    <glyph glyph-name="quotedblleft" unicode="&#x201c;" horiz-adv-x="1024" 
d="M413 872h-281v201q0 221 101 319q58 56 148 88l55 -116q-155 -52 -159 -211h136v-281zM882 872h-281v201q0 222 102 319q58 56 147 88l55 -116q-155 -52 -159 -211h136v-281z" />
    <glyph glyph-name="quotedblright" unicode="&#x201d;" horiz-adv-x="1024" 
d="M600 1466h281v-202q0 -220 -101 -318q-59 -57 -148 -89l-55 117q156 52 158 211h-135v281zM128 1466h281v-202q0 -221 -100 -318q-59 -57 -149 -89l-55 117q155 51 159 211h-136v281z" />
    <glyph glyph-name="quoteleft" unicode="&#x2018;" horiz-adv-x="569" 
d="M433 872h-281v201q0 221 101 319q58 56 148 88l55 -116q-155 -52 -159 -211h136v-281z" />
    <glyph glyph-name="quoteright" unicode="&#x2019;" horiz-adv-x="569" 
d="M140 1462h281v-201q0 -223 -100 -319q-59 -56 -149 -88l-55 116q155 51 159 211h-136v281z" />
    <glyph glyph-name="divide" unicode="&#xf7;" horiz-adv-x="1124" 
d="M421 981v281h281v-281h-281zM49 592v263h1025v-263h-1025zM421 185v281h281v-281h-281z" />
    <glyph glyph-name="ydieresis" unicode="&#xff;" 
d="M14 1062h299l254 -754l248 754h291l-442 -1207q-30 -83 -70 -142q-66 -95 -184 -127q-64 -17 -144 -17q-81 0 -159 17l-25 220q66 -13 119 -13q160 0 217 204zM230 1250v241h241v-241h-241zM660 1250v241h242v-241h-242z" />
    <glyph glyph-name="Ydieresis" unicode="&#x178;" horiz-adv-x="1366" 
d="M534 0v617l-537 849h347l345 -580l338 580h341l-539 -851v-615h-295zM350 1550v241h241v-241h-241zM780 1550v241h242v-241h-242z" />
    <glyph glyph-name="currency" unicode="&#xa4;" 
d="M177 941l-132 131l166 178l136 -136q104 57 218 57q117 0 219 -57l134 134l167 -169l-132 -133q56 -102 56 -218q0 -114 -56 -218l134 -133l-167 -171l-136 136q-102 -57 -218 -57q-112 0 -216 56l-130 -131l-170 168l130 132q-57 106 -57 218q0 115 54 213zM364 728
q0 -84 59 -143t143 -59q85 0 143.5 58.5t58.5 143.5t-58.5 143.5t-143.5 58.5t-143.5 -58.5t-58.5 -143.5z" />
    <glyph glyph-name="guilsinglleft" unicode="&#x2039;" horiz-adv-x="682" 
d="M612 983l-260 -451l260 -462h-221l-316 462l316 451h221z" />
    <glyph glyph-name="guilsinglright" unicode="&#x203a;" horiz-adv-x="682" 
d="M75 70l260 452l-260 461h221l316 -461l-316 -452h-221z" />
    <glyph glyph-name="daggerdbl" unicode="&#x2021;" 
d="M436 -350v333h-368v233h368v656h-368v233h368v343h262v-343h361v-233h-361v-656h361v-233h-361v-333h-262z" />
    <glyph glyph-name="periodcentered" unicode="&#xb7;" horiz-adv-x="569" 
d="M147 573v281h281v-281h-281z" />
    <glyph glyph-name="periodcentered" unicode="&#x2219;" horiz-adv-x="569" 
d="M147 573v281h281v-281h-281z" />
    <glyph glyph-name="quotesinglbase" unicode="&#x201a;" horiz-adv-x="569" 
d="M140 281h281v-201q0 -223 -100 -319q-59 -56 -149 -88l-55 116q155 51 159 211h-136v281z" />
    <glyph glyph-name="quotedblbase" unicode="&#x201e;" horiz-adv-x="1024" 
d="M600 281h281v-202q0 -220 -101 -318q-59 -57 -148 -89l-55 117q156 52 158 211h-135v281zM128 281h281v-202q0 -221 -100 -318q-59 -57 -149 -89l-55 117q155 51 159 211h-136v281z" />
    <glyph glyph-name="perthousand" unicode="&#x2030;" horiz-adv-x="2048" 
d="M1 1119q0 158 64 256q76 116 226 116q151 0 225 -117q63 -97 63 -257q0 -394 -290 -394q-288 0 -288 396zM196 1107q0 -176 47 -212q20 -16 45 -16q57 0 78 70q15 51 15 158q0 174 -47 212q-20 16 -46 16q-56 0 -77 -70q-15 -51 -15 -158zM280 -52l613 1543h196
l-612 -1543h-197zM799 338q0 158 64 256q76 116 226 116t225 -116q62 -98 62 -257q0 -396 -289 -396q-288 0 -288 397zM993 326q0 -175 48 -212q20 -16 45 -16q56 0 77 70q16 55 16 158q0 175 -47 212q-21 16 -46 16q-56 0 -77 -71q-16 -54 -16 -157zM1469 338q0 158 64 256
q76 116 226 116t225 -116q63 -98 63 -257q0 -396 -290 -396q-288 0 -288 397zM1664 326q0 -102 3 -123q18 -106 88 -106q58 0 79 70q15 51 15 159q0 174 -47 212q-20 16 -45 16q-57 0 -78 -71q-14 -49 -15 -157z" />
    <glyph glyph-name="circumflex" unicode="&#x2c6;" horiz-adv-x="682" 
d="M3 1196l210 295h260l207 -295h-226l-116 149l-108 -149h-227z" />
    <glyph glyph-name="tilde" unicode="&#x2dc;" horiz-adv-x="682" 
d="M116 1205h-128q-1 23 -1 36q0 93 43 152q49 66 139 66q61 0 175 -50q79 -36 124 -36q70 0 81 87h130q-2 -251 -178 -251q-37 0 -67 7q-24 5 -124 45q-81 31 -125 31q-67 0 -69 -87z" />
    <glyph glyph-name="macron" unicode="&#xaf;" horiz-adv-x="1131" 
d="M-19 1552v183h1168v-183h-1168z" />
    <glyph glyph-name="cedilla" unicode="&#xb8;" horiz-adv-x="682" 
d="M38 -403v118q103 -11 189 -11q165 0 165 94q0 84 -127 84q-64 0 -131 -20l26 99q78 27 168 27q102 0 172 -42q83 -51 83 -147q0 -88 -72 -143q-97 -75 -278 -75q-129 0 -195 16z" />
    <glyph glyph-name="Scaron" unicode="&#x160;" horiz-adv-x="1366" 
d="M74 477l288 28q50 -281 320 -281q112 0 191 44q97 55 97 158q0 104 -137 152q-50 18 -237 64q-238 59 -334 145q-135 121 -135 295q0 120 67 215t180 143q119 51 288 51q242 0 387 -99q167 -115 175 -345l-296 -13q-20 116 -86 166q-62 46 -183 46q-129 0 -202 -53
q-47 -34 -47 -91q0 -52 44 -89q53 -45 274 -102q247 -64 318 -101q220 -117 220 -383q0 -133 -72.5 -240.5t-195.5 -158.5q-128 -54 -319 -54q-546 0 -605 503z" />
    <glyph glyph-name="scaron" unicode="&#x161;" 
d="M48 303l282 43q37 -167 227 -167q201 0 201 115q0 65 -114 90q-342 76 -431 137q-126 86 -126 239q0 172 145 257q118 69 302 69q187 0 293 -53q131 -67 177 -228l-265 -49q-35 128 -200 128q-191 0 -191 -88q0 -30 28 -51q43 -32 270 -83q220 -49 307 -122t87 -208
q0 -181 -158 -277q-132 -79 -325 -79q-425 0 -509 327z" />
    <glyph glyph-name="brokenbar" unicode="&#xa6;" horiz-adv-x="573" 
d="M176 701v790h223v-790h-223zM176 -431v791h223v-791h-223z" />
    <glyph glyph-name="Eth" unicode="&#xd0;" horiz-adv-x="1479" 
d="M149 1466h540q186 0 282 -29q262 -79 361 -376q46 -140 46 -346q0 -374 -203 -569q-76 -73 -207 -115q-97 -31 -263 -31h-556v640h-152v186h152v640zM444 1218v-392h314v-186h-314v-393h222q145 0 212 24q87 31 131 110q63 113 63 345q0 287 -104 399q-53 56 -135 77
q-62 16 -255 16h-134z" />
    <glyph glyph-name="eth" unicode="&#xf0;" horiz-adv-x="1251" 
d="M332 1466h293q57 -44 109 -89l181 89l45 -98l-144 -67q359 -361 359 -755q0 -253 -149 -410q-152 -161 -403 -161q-241 0 -392 159q-148 156 -148 399t162 399q135 130 304 130q55 0 109 -16q39 -12 113 -53q-63 112 -146 217l-250 -119l-43 96l218 103q-100 92 -218 176
zM376 530q0 -133 57 -222q67 -104 193 -104q124 0 194 99q63 88 63 217q0 128 -64 219q-72 102 -195 102q-121 0 -189 -98q-59 -87 -59 -213z" />
    <glyph glyph-name="Yacute" unicode="&#xdd;" horiz-adv-x="1366" 
d="M534 0v617l-537 849h347l345 -580l338 580h341l-539 -851v-615h-295zM495 1550l138 299h315l-275 -299h-178z" />
    <glyph glyph-name="yacute" unicode="&#xfd;" 
d="M14 1062h299l254 -754l248 754h291l-442 -1207q-30 -83 -70 -142q-66 -95 -184 -127q-64 -17 -144 -17q-81 0 -159 17l-25 220q66 -13 119 -13q160 0 217 204zM418 1192l138 299h315l-275 -299h-178z" />
    <glyph glyph-name="Thorn" unicode="&#xde;" horiz-adv-x="1366" 
d="M149 0v1466h296v-276h179q271 0 353 -22q144 -38 222 -161q73 -114 73 -269q0 -249 -173 -371q-76 -53 -154 -69q-107 -22 -307 -22h-193v-276h-296zM445 942v-417h162q166 0 211 11q149 36 149 201q0 61 -31 112q-32 55 -87 75q-50 18 -261 18h-143z" />
    <glyph glyph-name="thorn" unicode="&#xfe;" horiz-adv-x="1251" 
d="M139 1466h281v-528q148 148 312 148q215 0 336 -173q107 -152 107 -376q0 -227 -106 -383q-122 -178 -339 -178q-166 0 -310 155v-535h-281v1870zM418 554q0 -165 52 -244q73 -112 194 -112q120 0 179 111q45 87 45 219q0 343 -235 343q-123 0 -184 -102
q-51 -84 -51 -215z" />
    <glyph glyph-name="multiply" unicode="&#xd7;" horiz-adv-x="1196" 
d="M111 420l302 302l-304 303l186 186l304 -303l302 302l181 -182l-302 -302l305 -305l-186 -186l-305 305l-302 -302z" />
    <glyph glyph-name="uni00B9" unicode="&#xb9;" horiz-adv-x="682" 
d="M495 727h-190v513q-94 -65 -214 -98v155q95 27 172 87q54 42 78 100h154v-757z" />
    <glyph glyph-name="uni00B2" unicode="&#xb2;" horiz-adv-x="682" 
d="M632 885v-158h-607q14 107 87 194q44 51 162 144q114 90 137 118q31 38 31 77q0 81 -101 81q-97 0 -107 -115l-189 16q31 242 301 242q113 0 192 -49q94 -59 94 -166q0 -104 -96 -203q-25 -26 -135 -112q-61 -48 -83 -69h314z" />
    <glyph glyph-name="uni00B3" unicode="&#xb3;" horiz-adv-x="682" 
d="M40 946l184 20q16 -108 113 -108q109 0 109 108q0 45 -29 72t-74 27q-30 0 -91 -15l23 146q94 -2 124 40q12 17 12 39q0 66 -83 66q-84 0 -99 -98l-178 26q25 103 74 147q76 68 208 68q102 0 179 -49q90 -58 90 -155q0 -37 -21 -70q-29 -46 -76 -74q136 -49 136 -179
q0 -112 -100 -181q-88 -61 -205 -61q-119 0 -196 56q-85 61 -100 175z" />
    <glyph glyph-name="onehalf" unicode="&#xbd;" horiz-adv-x="1708" 
d="M496 727h-190v513q-94 -65 -214 -98v155q95 27 172 87q54 42 78 100h154v-757zM499 -54h-159l869 1538h159zM1656 115v-157h-607q14 106 87 193q44 52 162 145q115 90 137 118q31 38 31 77q0 81 -101 81q-97 0 -106 -115l-190 16q31 242 301 242q113 0 192 -49
q94 -59 94 -166q0 -106 -96 -203q-24 -25 -135 -112q-57 -45 -82 -70h313z" />
    <glyph glyph-name="onequarter" unicode="&#xbc;" horiz-adv-x="1708" 
d="M496 727h-190v513q-94 -65 -214 -98v155q95 27 172 87q54 42 78 100h154v-757zM499 -54h-159l869 1538h159zM1403 -42v146h-360v141l382 470h156v-466h107v-145h-107v-146h-178zM1403 249v225l-183 -225h183z" />
    <glyph glyph-name="threequarters" unicode="&#xbe;" horiz-adv-x="1708" 
d="M40 946l184 20q16 -108 113 -108q109 0 109 108q0 45 -29 72t-74 27q-30 0 -91 -15l23 146q94 -2 124 40q12 17 12 39q0 66 -83 66q-84 0 -99 -98l-178 26q25 103 74 147q76 68 208 68q102 0 179 -49q90 -58 90 -155q0 -37 -21 -70q-29 -46 -76 -74q136 -49 136 -179
q0 -112 -100 -181q-88 -61 -205 -61q-119 0 -196 56q-85 61 -100 175zM523 -54h-159l869 1538h158zM1402 -42v146h-360v141l382 470h156v-466h108v-145h-108v-146h-178zM1402 249v225l-182 -225h182z" />
    <glyph glyph-name="mu" unicode="&#xb5;" horiz-adv-x="1180" 
d="M111 1062h279v-481q0 -207 42 -283q54 -97 157 -97q129 0 180 136q24 64 24 241v484h284v-1062h-262v128q-52 -97 -129 -133q-46 -21 -84 -21q-72 0 -126 39q-38 28 -86 115v-535h-279v1469z" />
    <glyph glyph-name="glyph160" horiz-adv-x="2048" 
 />
    <glyph glyph-name="glyph161" horiz-adv-x="2048" 
 />
    <glyph glyph-name="glyph162" horiz-adv-x="2048" 
 />
    <glyph glyph-name="glyph163" horiz-adv-x="2048" 
 />
    <glyph glyph-name="uni00A0" unicode="&#xa0;" horiz-adv-x="2048" 
 />
    <glyph glyph-name="glyph165" horiz-adv-x="2048" 
 />
    <glyph glyph-name="glyph166" horiz-adv-x="2048" 
 />
    <glyph glyph-name="glyph167" horiz-adv-x="2048" 
 />
    <glyph glyph-name="glyph168" horiz-adv-x="2048" 
 />
    <glyph glyph-name="Acircumflex" unicode="&#xc2;" horiz-adv-x="0" 
d="M-1093 1550l210 295h260l207 -295h-226l-115 148l-109 -148h-227z" />
    <glyph glyph-name="O" unicode="O" horiz-adv-x="1479" 
d="M30 724q0 368 204 577q185 190 505 190q339 0 530 -213q183 -203 183 -547q0 -341 -182 -545q-191 -210 -527 -210q-339 0 -528 206q-185 201 -185 542zM335 734q0 -216 94 -350q108 -156 313 -156q206 0 313 157q91 134 91 353t-90 350q-104 150 -314 150t-316 -152
q-91 -132 -91 -352z" />
    <glyph glyph-name="E" unicode="E" horiz-adv-x="1479" 
d="M149 0v1466h1160v-248h-864v-325h799v-247h-799v-399h892v-247h-1188z" />
    <glyph glyph-name="Aacute" unicode="&#xc1;" horiz-adv-x="0" 
d="M-1093 1550l210 295h260l207 -295h-226l-115 148l-109 -148h-227zM-524 1717l138 299h315l-276 -299h-177z" />
    <glyph glyph-name="Agrave" unicode="&#xc0;" horiz-adv-x="0" 
d="M-241 1717h-177l-276 299h315zM-1093 1550l210 295h260l207 -295h-226l-115 148l-109 -148h-227z" />
    <glyph glyph-name="Aring" unicode="&#xc5;" horiz-adv-x="0" 
d="M-1093 1550l210 295h260l207 -295h-226l-115 148l-109 -148h-227zM-381 1740h-67h-68q0 28 0.5 56t9.5 56q15 40 46 67t61 54q32 27 34 46q8 45 -43 63t-90 -12q-25 -21 -38 -81q-33 4 -66.5 8t-66.5 9q3 35 4 42q13 68 67.5 108.5t120.5 48.5q127 12 205 -63
q83 -78 36 -179q-18 -37 -48 -63.5t-60 -52.5q-22 -19 -31 -34q-3 -5 -3 -12q-3 -15 -3 -61z" />
    <glyph glyph-name="Atilde" unicode="&#xc3;" horiz-adv-x="0" 
d="M-1093 1550l210 295h260l207 -295h-226l-115 148l-109 -148h-227zM-935 1882h-128q0 11 -0.5 20t-0.5 16q0 90 43 152q50 66 139 66q61 0 175 -51q81 -35 124 -35q71 0 81 86h130q-1 -250 -178 -250q-39 0 -66 7q-24 4 -125 45q-83 31 -125 31q-66 0 -69 -87z" />
    <glyph glyph-name="Adieresis" unicode="&#xc4;" horiz-adv-x="0" 
d="M-873 -463v296h296v-296h-296zM-1093 1550l210 295h260l207 -295h-226l-115 148l-109 -148h-227z" />
    <glyph glyph-name="Idieresis" unicode="&#xcf;" horiz-adv-x="0" 
d="M-873 -463v296h296v-296h-296z" />
    <glyph glyph-name="Ugrave" unicode="&#xd9;" horiz-adv-x="0" 
d="M-798 1550l138 299h315l-276 -299h-177z" />
    <glyph glyph-name="Oslash" unicode="&#xd8;" horiz-adv-x="0" 
d="M-685 1550h-177l-276 299h315z" />
    <glyph glyph-name="Ucircumflex" unicode="&#xdb;" horiz-adv-x="0" 
d="M-681 1550h-67h-68q0 28 0.5 56t9.5 56q14 40 45 67t61 54q32 27 35 46q8 46 -43 63q-52 18 -91 -12q-23 -19 -38 -81q-33 4 -66.5 8t-66.5 9q2 28 4 42q13 68 67.5 108.5t120.5 48.5q128 12 206 -63q84 -80 35 -179q-17 -37 -47.5 -63.5t-60.5 -52.5q-24 -23 -30 -34
l-4 -12q-4 -21 -2 -61z" />
    <glyph glyph-name="Otilde" unicode="&#xd5;" horiz-adv-x="0" 
d="M-971 1547h-128q-1 15 -1 36q0 92 43 152q48 66 139 66q59 0 175 -50q78 -36 123 -36q71 0 81 86h130q-1 -250 -177 -250q-39 0 -67 7q-25 4 -124 45q-79 31 -125 31q-67 0 -69 -87z" />
    <glyph glyph-name="Ecircumflex" unicode="&#xca;" horiz-adv-x="0" 
d="M-754 1534q-145 0 -232 67q-97 75 -109 213h135q29 -75 82 -99q49 -21 124 -21q74 0 123 21q54 24 82 99h135q-13 -139 -109 -213q-86 -67 -231 -67z" />
    <glyph glyph-name="Egrave" unicode="&#xc8;" horiz-adv-x="0" 
d="M-754 1534q-145 0 -232 67q-97 75 -109 213h135q29 -75 82 -99q49 -21 124 -21q74 0 123 21q54 24 82 99h135q-13 -139 -109 -213q-86 -67 -231 -67zM-656 1822h-177l-276 299h315z" />
    <glyph glyph-name="Eacute" unicode="&#xc9;" horiz-adv-x="0" 
d="M-754 1534q-145 0 -232 67q-97 75 -109 213h135q29 -75 82 -99q49 -21 124 -21q74 0 123 21q54 24 82 99h135q-13 -139 -109 -213q-86 -67 -231 -67zM-853 1822l138 299h315l-276 -299h-177z" />
    <glyph glyph-name="Uacute" unicode="&#xda;" horiz-adv-x="0" 
d="M-754 1534q-145 0 -232 67q-97 75 -109 213h135q29 -75 82 -99q49 -21 124 -21q74 0 123 21q54 24 82 99h135q-13 -139 -109 -213q-86 -67 -231 -67zM-683 1771h-67.5h-68.5q0 28 1 56t10 56q14 40 45 67t61 54q32 27 34 46q8 47 -43 63q-51 18 -90 -12q-23 -19 -38 -81
q-33 4 -66.5 8t-66.5 9q2 28 4 42q13 68 67.5 108.5t120.5 48.5q128 12 206 -63q84 -80 35 -179q-17 -37 -47.5 -63.5t-60.5 -52.5q-22 -19 -30 -34l-4 -12q-4 -21 -2 -61z" />
    <glyph glyph-name="Udieresis" unicode="&#xdc;" horiz-adv-x="0" 
d="M-754 1534q-145 0 -232 67q-97 75 -109 213h135q29 -75 82 -99q49 -21 124 -21q74 0 123 21q54 24 82 99h135q-13 -139 -109 -213q-86 -67 -231 -67zM-971 1865h-128q-1 16 -1 36q0 94 43 152q48 66 139 66q62 0 175 -50q78 -36 123 -36q71 0 81 86h130
q-1 -250 -177 -250q-35 0 -67 8q-23 4 -124 44q-79 31 -125 31q-67 0 -69 -87z" />
    <glyph glyph-name="Edieresis" unicode="&#xcb;" horiz-adv-x="0" 
d="M-873 -463v296h296v-296h-296zM-754 1534q-145 0 -232 67q-97 75 -109 213h135q29 -75 82 -99q49 -21 124 -21q74 0 123 21q54 24 82 99h135q-13 -139 -109 -213q-86 -67 -231 -67z" />
    <glyph glyph-name="Icircumflex" unicode="&#xce;" horiz-adv-x="1366" 
d="M534 0v617l-536 849h346l345 -580l338 580h341l-539 -851v-615h-295zM532 -463v296h296v-296h-296z" />
    <glyph glyph-name="Iacute" unicode="&#xcd;" horiz-adv-x="569" 
d="M140 0v1466h296v-1466h-296zM176 1550l138 299h315l-275 -299h-178z" />
    <glyph glyph-name="Igrave" unicode="&#xcc;" horiz-adv-x="569" 
d="M140 0v1466h296v-1466h-296zM384 1550h-178l-274 299h314z" />
    <glyph glyph-name="Ograve" unicode="&#xd2;" horiz-adv-x="569" 
d="M140 0v1466h296v-1466h-296zM140 -463v296h296v-296h-296z" />
    <glyph glyph-name="AE" unicode="&#xc6;" horiz-adv-x="569" 
d="M140 0v1466h296v-1466h-296zM352 1538h-68.5h-67.5q0 28 0.5 56t10.5 56q13 40 44 67l62 54t34 46q7 45 -43 63q-52 18 -90 -12q-24 -19 -38 -81q-33 3 -66.5 7.5t-66.5 8.5q1 28 4 43q12 68 66.5 108.5t121.5 47.5q125 13 206 -62q83 -80 35 -179q-18 -37 -48 -64
t-60 -52q-25 -23 -30 -34q-2 -4 -4 -12q-5 -21 -2 -61z" />
    <glyph glyph-name="Oacute" unicode="&#xd3;" horiz-adv-x="569" 
d="M140 0v1466h296v-1466h-296zM71 1528h-127q-1 15 -1 36q0 92 43 152q48 66 138 66q59 0 175 -50q79 -36 124 -36q70 0 81 86h130q-3 -250 -178 -250q-39 0 -67 7q-24 4 -124 45q-80 31 -125 31q-68 0 -69 -87z" />
    <glyph glyph-name="Ntilde" unicode="&#xd1;" horiz-adv-x="1479" 
d="M149 1466h540q184 0 282 -29q262 -80 361 -376q46 -138 46 -346q0 -375 -203 -569q-75 -73 -207 -115q-96 -31 -263 -31h-556v640h-151v186h151v640zM444 1218v-392h314v-186h-314v-393h222q144 0 212 24q88 31 131 110q63 112 63 345q0 287 -104 399q-54 56 -135 77
q-66 16 -255 16h-134z" />
    <glyph glyph-name="ntilde" unicode="&#xf1;" horiz-adv-x="1251" 
d="M1121 0h-261v156q-129 -179 -332 -179q-214 0 -337 177q-107 156 -107 381q0 234 104 382q119 169 345 169q178 0 307 -148v204h-239v139h239v185h281v-185h126v-139h-126v-1142zM371 554q0 -169 47 -246q69 -110 190 -110q120 0 182 110q50 86 50 219q0 344 -234 344
q-122 0 -184 -103q-51 -87 -51 -214z" />
    <glyph glyph-name="Odieresis" unicode="&#xd6;" horiz-adv-x="1479" 
d="M146 1466h296v-794q0 -189 11 -245q40 -199 286 -199q235 0 267 178q13 72 13 249v811h296v-65q64 41 67 128h-96v197h198v-141q0 -158 -71 -225q-37 -36 -98 -59v-605q0 -216 -10 -291q-23 -174 -102 -266q-143 -163 -455 -163q-348 0 -490 174q-64 77 -83 162
q-29 126 -29 372v782z" />
    <glyph glyph-name="Ocircumflex" unicode="&#xd4;" horiz-adv-x="1479" 
d="M335 734q0 -218 94 -350q108 -156 313 -156q206 0 313 157q91 132 91 353q0 219 -90 350q-104 150 -314 150t-316 -152q-91 -132 -91 -352zM1124 1726h197v-141q0 -158 -70 -225q-20 -19 -36 -28q28 -26 54 -54q183 -203 183 -547q0 -341 -182 -545q-190 -209 -527 -209
q-340 0 -528 205q-185 201 -185 542q0 368 204 577q184 190 505 190q233 0 395 -100q83 39 85 138h-95v197z" />
    <glyph glyph-name="acircumflex" unicode="&#xe2;" horiz-adv-x="0" 
d="M-904 1196l210 295h260l207 -295h-226l-115 148l-109 -148h-227z" />
    <glyph glyph-name="o" unicode="o" 
d="M32 546q0 145 68 272q70 131 193 200q121 68 277 68q237 0 387 -156q152 -156 152 -396t-152 -399q-150 -158 -386 -158q-144 0 -272 64q-134 69 -199 196q-68 126 -68 309zM315 531q0 -134 60 -224q69 -102 195 -102q127 0 196 103q59 90 59 225q0 134 -60 223
q-70 101 -195 101q-126 0 -195 -102q-60 -89 -60 -224z" />
    <glyph glyph-name="aacute" unicode="&#xe1;" horiz-adv-x="0" 
d="M-904 1196l210 295h260l207 -295h-226l-115 148l-109 -148h-227zM-335 1363l138 299h314l-275 -299h-177z" />
    <glyph glyph-name="agrave" unicode="&#xe0;" horiz-adv-x="0" 
d="M-52 1363h-177l-276 299h315zM-904 1196l210 295h260l207 -295h-226l-115 148l-109 -148h-227z" />
    <glyph glyph-name="aring" unicode="&#xe5;" horiz-adv-x="0" 
d="M-904 1196l210 295h260l207 -295h-226l-115 148l-109 -148h-227zM-192 1386h-32.5h-34.5h-33.5h-34.5v27.5v28.5q2 29 10 56q15 40 46 67q21 18 61 54q33 27 34 46q8 45 -43 63t-90 -12q-26 -22 -38 -81q-16 2 -32.5 3.5t-34.5 4.5q-16 2 -32.5 4t-33.5 5q4 38 4 42
q13 68 67 108q55 41 121 49q128 11 205 -63q83 -79 36 -179q-18 -38 -48 -63q-40 -36 -60 -53q-22 -20 -31 -34q-3 -5 -3 -12q-3 -15 -3 -61z" />
    <glyph glyph-name="atilde" unicode="&#xe3;" horiz-adv-x="0" 
d="M-904 1196l210 295h260l207 -295h-226l-115 148l-109 -148h-227zM-746 1528h-128q0 14 -1 20v8v8q0 91 43 152q50 66 139 66q61 0 175 -51q83 -35 124 -35q71 0 81 86h130q-1 -250 -178 -250q-40 0 -66 7q-24 4 -125 45q-81 31 -125 31q-66 0 -69 -87z" />
    <glyph glyph-name="idieresis" unicode="&#xef;" horiz-adv-x="0" 
d="M-691 -388v245h245v-245h-245z" />
    <glyph glyph-name="adieresis" unicode="&#xe4;" horiz-adv-x="0" 
d="M-904 1196l210 295h260l207 -295h-226l-115 148l-109 -148h-227zM-691 -388v245h245v-245h-245z" />
    <glyph glyph-name="ugrave" unicode="&#xf9;" horiz-adv-x="0" 
d="M-609 1196l138 299h315l-276 -299h-177z" />
    <glyph glyph-name="oslash" unicode="&#xf8;" horiz-adv-x="0" 
d="M-496 1196h-177l-276 299h315z" />
    <glyph glyph-name="ucircumflex" unicode="&#xfb;" horiz-adv-x="0" 
d="M-492 1145h-32.5h-34.5h-33.5h-34.5v27.5v28.5q2 29 10 56q14 39 45 67q15 13 30.5 26.5t30.5 27.5q32 27 35 46q8 46 -43 63q-52 17 -91 -12q-22 -18 -38 -81q-42 5 -67 8q-16 2 -32.5 4t-33.5 5q1 11 4 42q13 67 67 109q56 40 121 48q128 12 206 -63q84 -80 35 -179
q-17 -38 -47 -63q-44 -38 -61 -53q-22 -22 -30 -34l-4 -12q-4 -23 -2 -61z" />
    <glyph glyph-name="otilde" unicode="&#xf5;" horiz-adv-x="0" 
d="M-782 1193h-128q-1 10 -1 36q0 92 43 152q48 66 139 66q62 0 175 -50q78 -36 123 -36q71 0 81 86h130q-1 -250 -177 -250q-40 0 -67 7q-24 4 -124 45q-78 31 -125 31q-67 0 -69 -87z" />
    <glyph glyph-name="ecircumflex" unicode="&#xea;" horiz-adv-x="0" 
d="M-539 1162q-143 0 -232 67q-97 75 -109 213h136q29 -75 81 -99q50 -21 124 -21q75 0 123 21q56 24 82 99h135q-11 -138 -109 -213q-86 -67 -231 -67z" />
    <glyph glyph-name="eacute" unicode="&#xe9;" horiz-adv-x="0" 
d="M-539 1162q-143 0 -232 67q-97 75 -109 213h136q29 -75 81 -99q50 -21 124 -21q75 0 123 21q56 24 82 99h135q-11 -138 -109 -213q-86 -67 -231 -67zM-638 1450l138 299h315l-276 -299h-177z" />
    <glyph glyph-name="egrave" unicode="&#xe8;" horiz-adv-x="0" 
d="M-539 1162q-143 0 -232 67q-97 75 -109 213h136q29 -75 81 -99q50 -21 124 -21q75 0 123 21q56 24 82 99h135q-11 -138 -109 -213q-86 -67 -231 -67zM-441 1450h-176l-277 299h315z" />
    <glyph glyph-name="uacute" unicode="&#xfa;" horiz-adv-x="0" 
d="M-539 1162q-143 0 -232 67q-97 75 -109 213h136q29 -75 81 -99q50 -21 124 -21q75 0 123 21q56 24 82 99h135q-11 -138 -109 -213q-86 -67 -231 -67zM-468 1399h-33h-34h-33.5h-35.5q0 14 0.5 28t0.5 28q2 30 10 56q15 39 45 67q21 18 61 54q33 26 34 46q9 47 -43 63
q-49 19 -90 -12q-23 -19 -38 -81q-44 6 -66 8q-16 2 -33 4t-34 5q2 14 3 24.5t1 17.5q14 69 68 109t120 48q129 11 206 -63q85 -80 35 -179q-16 -36 -47 -63q-42 -37 -60 -53q-22 -18 -31 -34l-4 -12q-3 -24 -2 -61z" />
    <glyph glyph-name="edieresis" unicode="&#xeb;" horiz-adv-x="0" 
d="M-691 -388v245h245v-245h-245zM-539 1162q-143 0 -232 67q-97 75 -109 213h136q29 -75 81 -99q50 -21 124 -21q75 0 123 21q56 24 82 99h135q-11 -138 -109 -213q-86 -67 -231 -67z" />
    <glyph glyph-name="icircumflex" unicode="&#xee;" 
d="M14 1062h299l254 -754l248 754h291l-442 -1206q-32 -86 -70 -142q-66 -95 -184 -127q-65 -17 -144 -17t-159 17l-25 220q63 -13 119 -13q159 0 218 204zM750 -388v245h245v-245h-245z" />
    <glyph glyph-name="ograve" unicode="&#xf2;" horiz-adv-x="569" 
d="M147 1206v260h281v-260h-281zM147 0v1062h281v-1062h-281zM165 -388v245h245v-245h-245z" />
    <glyph glyph-name="iacute" unicode="&#xed;" horiz-adv-x="569" 
d="M147 0v1062h281v-1062h-281zM193 1196l138 299h315l-276 -299h-177z" />
    <glyph glyph-name="igrave" unicode="&#xec;" horiz-adv-x="569" 
d="M147 0v1062h281v-1062h-281zM374 1196h-177l-275 299h314z" />
    <glyph glyph-name="ae" unicode="&#xe6;" horiz-adv-x="569" 
d="M147 0v1062h281v-1062h-281zM355 1147h-33.5h-33.5h-34.5h-33.5q0 37 1 56q0 27 9 56q13 39 45 67q21 18 61 54q31 26 35 46q7 46 -43 63q-53 17 -91 -12q-24 -19 -38 -81q-17 2 -33.5 3.5t-32.5 4.5q-23 3 -67 9q0 11 4 42q13 69 68 109q54 40 120 48q128 11 206 -63
q84 -80 35 -179q-18 -38 -47 -63q-16 -14 -31 -27.5t-30 -25.5q-23 -22 -30 -34l-4 -12q-4 -24 -2 -61z" />
    <glyph glyph-name="oacute" unicode="&#xf3;" horiz-adv-x="569" 
d="M147 0v1062h281v-1062h-281zM88 1193h-127q-1 10 -1 36q0 92 42 152q48 66 139 66q60 0 175 -50q78 -36 123 -36q70 0 81 86h130q-2 -250 -177 -250q-41 0 -67 7q-25 4 -124 45q-79 31 -125 31q-68 0 -69 -87z" />
    <glyph glyph-name="udieresis" unicode="&#xfc;" horiz-adv-x="0" 
d="M-539 1162q-143 0 -232 67q-97 75 -109 213h136q29 -75 81 -99q50 -21 124 -21q75 0 123 21q56 24 82 99h135q-11 -138 -109 -213q-86 -67 -231 -67zM-756 1493h-128q0 8 -0.5 17t-0.5 19q0 93 43 153q49 65 140 65q64 0 174 -50q78 -36 123 -36q72 0 81 86h130
q0 -250 -177 -250q-31 0 -67 8q-18 3 -124 44q-76 31 -125 31q-66 0 -69 -87z" />
    <glyph glyph-name="odieresis" unicode="&#xf6;" horiz-adv-x="1251" 
d="M848 0v159q-124 -182 -351 -182q-236 0 -316 178q-37 84 -37 235v672h281v-488q0 -182 1 -189q10 -123 71 -165q40 -30 103 -30q69 0 127 37q59 39 80 101q21 58 21 286v448h281v-69q60 37 64 117h-86v177h177v-127q0 -141 -63 -201q-36 -35 -92 -54v-905h-261z" />
    <glyph glyph-name="ocircumflex" unicode="&#xf4;" 
d="M315 531q0 -134 60 -224q69 -102 195 -102q127 0 196 103q59 90 59 225q0 134 -60 223q-71 101 -195 101q-126 0 -195 -102q-60 -89 -60 -224zM862 1287h177v-127q0 -141 -63 -201q-18 -16 -27 -21l8 -8q152 -157 152 -396q0 -240 -152 -399q-150 -157 -386 -157
q-145 0 -272 63q-136 69 -199 196q-68 126 -68 309q0 143 68 272q71 131 193 200q122 68 277 68q182 0 314 -93q61 37 63 117h-85v177z" />
    <glyph glyph-name="logicalnot" unicode="&#xac;" horiz-adv-x="1831" 
d="M828 1382v-9l-359 -215v49l265 175h94zM828 1333v-63l-359 -215v36zM828 1216v-49l-359 -216v23l9 4zM828 1100v-36l-337 -207l333 121l4 5v-23l-161 -103l161 59v-683h-319l-9 -4h-31v354h-108v-363l-359 -216v867l301 107l58 41v-27l-215 -135l215 81v-49h9l-54 -32
l90 32h63v22l184 67zM25 0h-23v4zM2 880v54l130 44l229 158v-41zM2 983v27l359 242v-54zM469 1266v58l94 58h108zM2 1086v41l359 242v-67zM469 1369v13h31zM2 1189v54l211 139h112zM2 1297v85h148zM972 1382h40l-40 -22v22zM1080 1382h107l-215 -130v59zM1250 1382h81h15h16
l-390 -233v45zM1421 1382q45 0 94 -9l-543 -327v31zM1560 1360q34 -7 67 -27l-655 -391v27l22 9zM1663 1311q9 -9 13 -14q7 -7 11 -13t7 -9l-264 -162q0 2 -9 14q-12 9 -18 9zM1717 1230q3 -9 13 -41l-287 -170v13v6.5v7.5zM1739 1131q0 -10 2.5 -20.5t2.5 -19.5l-301 -180
v6v3v31l72 27zM1744 1014v-7.5v-10.5v-4l-216 -135l216 81v-54l-45 -27l45 18q0 -132 -27 -193q-30 -65 -99 -90q-81 -36 -193 -36h-94v-359l-332 -197h-27v907l193 71l166 108v-31l-323 -198l323 117v-27l-148 -90l148 54v-117h13h14q47 0 67 27q18 18 18 68l243 89z" />
    </font>
</defs>
</svg>
