<svg width="16" height="20" viewBox="0 0 16 20" fill="none" xmlns="http://www.w3.org/2000/svg">
<path d="M0.5 2.5C0.5 1.83696 0.763392 1.20107 1.23223 0.732233C1.70107 0.263392 2.33696 0 3 0L13 0C13.663 0 14.2989 0.263392 14.7678 0.732233C15.2366 1.20107 15.5 1.83696 15.5 2.5V19.375C15.4999 19.4881 15.4692 19.599 15.4111 19.6959C15.353 19.7929 15.2697 19.8723 15.17 19.9257C15.0703 19.979 14.9581 20.0044 14.8451 19.999C14.7322 19.9936 14.6229 19.9576 14.5287 19.895L8 16.3763L1.47125 19.895C1.37713 19.9576 1.26779 19.9936 1.15486 19.999C1.04194 20.0044 0.929666 19.979 0.829999 19.9257C0.730332 19.8723 0.647005 19.7929 0.588893 19.6959C0.53078 19.599 0.500058 19.4881 0.5 19.375V2.5ZM3 1.25C2.66848 1.25 2.35054 1.3817 2.11612 1.61612C1.8817 1.85054 1.75 2.16848 1.75 2.5V18.2075L7.65375 15.105C7.75633 15.0367 7.87679 15.0003 8 15.0003C8.12321 15.0003 8.24367 15.0367 8.34625 15.105L14.25 18.2075V2.5C14.25 2.16848 14.1183 1.85054 13.8839 1.61612C13.6495 1.3817 13.3315 1.25 13 1.25H3Z" fill="black"/>
<path d="M8 5C8.16576 5 8.32473 5.06585 8.44194 5.18306C8.55915 5.30027 8.625 5.45924 8.625 5.625V7.5H10.5C10.6658 7.5 10.8247 7.56585 10.9419 7.68306C11.0592 7.80027 11.125 7.95924 11.125 8.125C11.125 8.29076 11.0592 8.44973 10.9419 8.56694C10.8247 8.68415 10.6658 8.75 10.5 8.75H8.625V10.625C8.625 10.7908 8.55915 10.9497 8.44194 11.0669C8.32473 11.1842 8.16576 11.25 8 11.25C7.83424 11.25 7.67527 11.1842 7.55806 11.0669C7.44085 10.9497 7.375 10.7908 7.375 10.625V8.75H5.5C5.33424 8.75 5.17527 8.68415 5.05806 8.56694C4.94085 8.44973 4.875 8.29076 4.875 8.125C4.875 7.95924 4.94085 7.80027 5.05806 7.68306C5.17527 7.56585 5.33424 7.5 5.5 7.5H7.375V5.625C7.375 5.45924 7.44085 5.30027 7.55806 5.18306C7.67527 5.06585 7.83424 5 8 5Z" fill="black"/>
</svg>
