<svg width="22" height="21" viewBox="0 0 22 21" fill="none" xmlns="http://www.w3.org/2000/svg">
<path d="M3.92852 1.85716C3.41703 1.85716 2.92649 2.06034 2.56481 2.42202C2.20314 2.7837 1.99995 3.27424 1.99995 3.78573V12.7857C1.99995 13.2972 2.20314 13.7878 2.56481 14.1494C2.92649 14.5111 3.41703 14.7143 3.92852 14.7143H6.28566V18.8252C6.28566 18.9992 6.4828 19.1012 6.62509 18.9983L12.5634 14.7143H18.0714C18.5829 14.7143 19.0734 14.5111 19.4351 14.1494C19.7968 13.7878 19.9999 13.2972 19.9999 12.7857V3.78573C19.9999 3.27424 19.7968 2.7837 19.4351 2.42202C19.0734 2.06034 18.5829 1.85716 18.0714 1.85716H3.92852ZM0.714233 3.78573C0.714233 2.93325 1.05288 2.11568 1.65568 1.51288C2.25847 0.910089 3.07604 0.571442 3.92852 0.571442H18.0714C18.9239 0.571442 19.7414 0.910089 20.3442 1.51288C20.947 2.11568 21.2857 2.93325 21.2857 3.78573V12.7857C21.2857 13.6382 20.947 14.4558 20.3442 15.0586C19.7414 15.6614 18.9239 16 18.0714 16H12.9791L7.37766 20.0414C6.38509 20.7572 4.99995 20.0483 4.99995 18.8243V16H3.92852C3.07604 16 2.25847 15.6614 1.65568 15.0586C1.05288 14.4558 0.714233 13.6382 0.714233 12.7857V3.78573Z" fill="black"/>
</svg>
