<svg width="18" height="18" viewBox="0 0 18 18" fill="none" xmlns="http://www.w3.org/2000/svg">
<path d="M9 16.5L10.6667 14.8333M12.75 14.8333C13.3025 14.8333 13.8324 14.6138 14.2231 14.2231C14.6138 13.8324 14.8333 13.3025 14.8333 12.75C14.8333 12.1975 14.6138 11.6676 14.2231 11.2769C13.8324 10.8862 13.3025 10.6667 12.75 10.6667C12.1975 10.6667 11.6676 10.8862 11.2769 11.2769C10.8862 11.6676 10.6667 12.1975 10.6667 12.75C10.6667 13.3025 10.8862 13.8324 11.2769 14.2231C11.6676 14.6138 12.1975 14.8333 12.75 14.8333V14.8333ZM7.33333 3.16667L9 1.5L7.33333 3.16667ZM5.25 7.33333C5.80253 7.33333 6.33244 7.11384 6.72314 6.72314C7.11384 6.33244 7.33333 5.80253 7.33333 5.25C7.33333 4.69747 7.11384 4.16756 6.72314 3.77686C6.33244 3.38616 5.80253 3.16667 5.25 3.16667C4.69747 3.16667 4.16756 3.38616 3.77686 3.77686C3.38616 4.16756 3.16667 4.69747 3.16667 5.25C3.16667 5.80253 3.38616 6.33244 3.77686 6.72314C4.16756 7.11384 4.69747 7.33333 5.25 7.33333V7.33333ZM5.66667 12.3333L12.3333 5.66667L5.66667 12.3333ZM3.58333 16.5C4.13587 16.5 4.66577 16.2805 5.05647 15.8898C5.44717 15.4991 5.66667 14.9692 5.66667 14.4167C5.66667 13.8641 5.44717 13.3342 5.05647 12.9435C4.66577 12.5528 4.13587 12.3333 3.58333 12.3333C3.0308 12.3333 2.50089 12.5528 2.11019 12.9435C1.71949 13.3342 1.5 13.8641 1.5 14.4167C1.5 14.9692 1.71949 15.4991 2.11019 15.8898C2.50089 16.2805 3.0308 16.5 3.58333 16.5V16.5ZM14.4167 5.66667C14.9692 5.66667 15.4991 5.44717 15.8898 5.05647C16.2805 4.66577 16.5 4.13587 16.5 3.58333C16.5 3.0308 16.2805 2.50089 15.8898 2.11019C15.4991 1.71949 14.9692 1.5 14.4167 1.5C13.8641 1.5 13.3342 1.71949 12.9435 2.11019C12.5528 2.50089 12.3333 3.0308 12.3333 3.58333C12.3333 4.13587 12.5528 4.66577 12.9435 5.05647C13.3342 5.44717 13.8641 5.66667 14.4167 5.66667Z" stroke="#363636" stroke-width="1.7" stroke-linecap="round" stroke-linejoin="round"/>
</svg>
