<svg width="20" height="20" viewBox="0 0 20 20" fill="none" xmlns="http://www.w3.org/2000/svg">
<path d="M11.4394 5.625C11.2171 5.62502 10.997 5.66961 10.7922 5.75614C10.5874 5.84266 10.402 5.96936 10.2469 6.12875L10.0013 6.38188L9.75319 6.12875C9.59815 5.96939 9.41274 5.84272 9.20792 5.75623C9.0031 5.66974 8.78302 5.62518 8.56069 5.62518C8.33835 5.62518 8.11827 5.66974 7.91345 5.75623C7.70863 5.84272 7.52323 5.96939 7.36819 6.12875C7.05202 6.45518 6.87524 6.89181 6.87524 7.34625C6.87524 7.80069 7.05202 8.23731 7.36819 8.56375L10.0013 11.25L12.6319 8.56375C12.9481 8.23731 13.1249 7.80069 13.1249 7.34625C13.1249 6.89181 12.9481 6.45518 12.6319 6.12875C12.4769 5.96936 12.2915 5.84266 12.0867 5.75614C11.8819 5.66961 11.6618 5.62502 11.4394 5.625Z" fill="#363636"/>
<path d="M10 18.75L4.72751 12.5319C4.65425 12.4385 4.58174 12.3445 4.51001 12.25C3.60937 11.0636 3.12282 9.61452 3.12501 8.125C3.12501 6.30164 3.84934 4.55295 5.13865 3.26364C6.42796 1.97433 8.17664 1.25 10 1.25C11.8234 1.25 13.5721 1.97433 14.8614 3.26364C16.1507 4.55295 16.875 6.30164 16.875 8.125C16.8772 9.61384 16.3909 11.0623 15.4906 12.2481L15.49 12.25C15.49 12.25 15.3025 12.4963 15.2744 12.5294L10 18.75ZM5.50751 11.4969C5.50876 11.4969 5.65376 11.6894 5.68688 11.7306L10 16.8175L14.3188 11.7237C14.3463 11.6894 14.4925 11.4956 14.4931 11.495C15.2289 10.5257 15.6265 9.34189 15.625 8.125C15.625 6.63316 15.0324 5.20242 13.9775 4.14752C12.9226 3.09263 11.4919 2.5 10 2.5C8.50817 2.5 7.07742 3.09263 6.02253 4.14752C4.96764 5.20242 4.37501 6.63316 4.37501 8.125C4.3737 9.34265 4.77174 10.5271 5.50813 11.4969H5.50751Z" fill="#363636"/>
</svg>
