<svg width="17" height="14" viewBox="0 0 17 14" fill="none" xmlns="http://www.w3.org/2000/svg">
<path d="M16.6667 7.99999V10.6667C16.6667 10.8435 16.5965 11.013 16.4715 11.1381C16.3465 11.2631 16.1769 11.3333 16.0001 11.3333C15.8233 11.3333 15.6537 11.2631 15.5287 11.1381C15.4037 11.013 15.3334 10.8435 15.3334 10.6667C15.3334 10.6667 15.4134 9.99999 14.0001 9.99999H12.6667V13.3333C12.6667 13.5101 12.5965 13.6797 12.4715 13.8047C12.3465 13.9298 12.1769 14 12.0001 14H1.33341C1.1566 14 0.987035 13.9298 0.86201 13.8047C0.736986 13.6797 0.666748 13.5101 0.666748 13.3333V7.99999C0.666748 7.82318 0.736986 7.65361 0.86201 7.52858C0.987035 7.40356 1.1566 7.33332 1.33341 7.33332H12.0001C12.1769 7.33332 12.3465 7.40356 12.4715 7.52858C12.5965 7.65361 12.6667 7.82318 12.6667 7.99999V8.66666H14.0001C15.4134 8.66666 15.3334 7.99999 15.3334 7.99999C15.3334 7.82318 15.4037 7.65361 15.5287 7.52858C15.6537 7.40356 15.8233 7.33332 16.0001 7.33332C16.1769 7.33332 16.3465 7.40356 16.4715 7.52858C16.5965 7.65361 16.6667 7.82318 16.6667 7.99999ZM3.33341 1.99999C2.62617 1.99999 1.94789 2.28094 1.4478 2.78104C0.9477 3.28114 0.666748 3.95941 0.666748 4.66666C0.666748 5.3739 0.9477 6.05218 1.4478 6.55227C1.94789 7.05237 2.62617 7.33332 3.33341 7.33332C4.04066 7.33332 4.71894 7.05237 5.21903 6.55227C5.71913 6.05218 6.00008 5.3739 6.00008 4.66666C6.00008 3.95941 5.71913 3.28114 5.21903 2.78104C4.71894 2.28094 4.04066 1.99999 3.33341 1.99999ZM3.33341 5.99999C2.97979 5.99999 2.64065 5.85951 2.39061 5.60947C2.14056 5.35942 2.00008 5.02028 2.00008 4.66666C2.00008 4.31303 2.14056 3.9739 2.39061 3.72385C2.64065 3.4738 2.97979 3.33332 3.33341 3.33332C3.68704 3.33332 4.02618 3.4738 4.27622 3.72385C4.52627 3.9739 4.66675 4.31303 4.66675 4.66666C4.66675 5.02028 4.52627 5.35942 4.27622 5.60947C4.02618 5.85951 3.68704 5.99999 3.33341 5.99999ZM9.33342 0.666656C8.44936 0.666656 7.60151 1.01785 6.97639 1.64297C6.35127 2.26809 6.00008 3.11593 6.00008 3.99999C6.00008 4.88404 6.35127 5.73189 6.97639 6.35701C7.60151 6.98213 8.44936 7.33332 9.33342 7.33332C10.2175 7.33332 11.0653 6.98213 11.6904 6.35701C12.3156 5.73189 12.6667 4.88404 12.6667 3.99999C12.6667 3.11593 12.3156 2.26809 11.6904 1.64297C11.0653 1.01785 10.2175 0.666656 9.33342 0.666656ZM9.33342 5.99999C8.80298 5.99999 8.29427 5.78928 7.9192 5.4142C7.54413 5.03913 7.33342 4.53042 7.33342 3.99999C7.33342 3.46956 7.54413 2.96085 7.9192 2.58578C8.29427 2.2107 8.80298 1.99999 9.33342 1.99999C9.86385 1.99999 10.3726 2.2107 10.7476 2.58578C11.1227 2.96085 11.3334 3.46956 11.3334 3.99999C11.3334 4.53042 11.1227 5.03913 10.7476 5.4142C10.3726 5.78928 9.86385 5.99999 9.33342 5.99999Z" fill="#363636"/>
</svg>
