<svg width="18" height="17" viewBox="0 0 18 17" fill="none" xmlns="http://www.w3.org/2000/svg">
<path d="M9 16C13.1421 16 16.5 12.6421 16.5 8.5C16.5 4.35786 13.1421 1 9 1C4.85786 1 1.5 4.35786 1.5 8.5C1.5 12.6421 4.85786 16 9 16Z" stroke="#363636" stroke-width="1.5" stroke-linecap="round" stroke-linejoin="round"/>
<path d="M9 11.5C10.6569 11.5 12 10.1569 12 8.5C12 6.84315 10.6569 5.5 9 5.5C7.34315 5.5 6 6.84315 6 8.5C6 10.1569 7.34315 11.5 9 11.5Z" stroke="#363636" stroke-width="1.5" stroke-linecap="round" stroke-linejoin="round"/>
<path d="M3.69751 3.19751L6.87751 6.37751" stroke="#363636" stroke-width="1.5" stroke-linecap="round" stroke-linejoin="round"/>
<path d="M11.1226 10.6225L14.3026 13.8025" stroke="#363636" stroke-width="1.5" stroke-linecap="round" stroke-linejoin="round"/>
<path d="M11.1226 6.37751L14.3026 3.19751" stroke="#363636" stroke-width="1.5" stroke-linecap="round" stroke-linejoin="round"/>
<path d="M11.1226 6.37751L13.7701 3.73001" stroke="#363636" stroke-width="1.5" stroke-linecap="round" stroke-linejoin="round"/>
<path d="M3.69751 13.8025L6.87751 10.6225" stroke="#363636" stroke-width="1.5" stroke-linecap="round" stroke-linejoin="round"/>
</svg>
