<svg width="16" height="16" viewBox="0 0 16 16" fill="none" xmlns="http://www.w3.org/2000/svg">
<path d="M15.1875 0.1875H0.8125C0.466797 0.1875 0.1875 0.466797 0.1875 0.8125V15.1875C0.1875 15.5332 0.466797 15.8125 0.8125 15.8125H15.1875C15.5332 15.8125 15.8125 15.5332 15.8125 15.1875V0.8125C15.8125 0.466797 15.5332 0.1875 15.1875 0.1875ZM13.3828 4.74805H12.1348C11.1562 4.74805 10.9668 5.21289 10.9668 5.89648V7.40234H13.3027L12.998 9.75977H10.9668V15.8125H8.53125V9.76172H6.49414V7.40234H8.53125V5.66406C8.53125 3.64648 9.76367 2.54688 11.5645 2.54688C12.4277 2.54688 13.168 2.61133 13.3848 2.64062V4.74805H13.3828Z" fill="#005CB0"/>
</svg>
