<svg width="109" height="23" viewBox="0 0 109 23" fill="none" xmlns="http://www.w3.org/2000/svg">
<path d="M1.972 6.475L2.296 6.772L6.238 3.964L4.672 2.749C3.7 3.721 2.782 4.963 1.972 6.475ZM5.32 22.162C6.238 21.082 7.021 20.191 7.885 19.408L7.507 19.003C7.318 19.246 7.129 19.462 6.94 19.651C6.13 19.084 5.671 18.679 5.347 18.085C5.563 17.194 5.644 15.79 5.644 14.305V11.281C5.644 10.471 5.536 9.769 4.537 9.256L2.782 8.338C1.864 9.418 1.081 10.309 0.217 11.092L0.595 11.497C0.784 11.254 0.973 11.065 1.162 10.876C1.675 11.092 2.053 11.335 2.62 11.767V15.466C2.62 17.302 2.512 18.193 2.215 19.192C2.863 20.326 4.132 21.541 5.32 22.162ZM11.7085 3.829C11.7085 2.29 11.8165 1.696 12.0325 0.507998L11.2225 0.750998V3.613L8.81945 2.56C7.90145 3.64 7.11845 4.531 6.25445 5.314L6.63245 5.719C6.84845 5.476 7.03745 5.233 7.22645 5.044L8.68445 5.746V15.466C8.68445 17.302 8.57645 18.193 8.27945 19.192C8.92745 20.299 10.0075 21.595 11.1145 22.162C12.0325 21.082 12.8155 20.191 13.6795 19.408L13.3015 19.003C13.1125 19.246 12.9235 19.462 12.7345 19.651C12.0595 19.111 11.7085 18.652 11.4115 18.085C11.6275 17.14 11.7085 15.655 11.7085 14.305V3.829ZM14.1009 6.475L14.4249 6.772L18.3669 3.964L16.8009 2.749C15.8289 3.721 14.9109 4.963 14.1009 6.475ZM17.4489 22.162C18.3669 21.082 19.1499 20.191 20.0139 19.408L19.6359 19.003C19.4469 19.246 19.2579 19.462 19.0689 19.651C18.2589 19.084 17.7999 18.679 17.4759 18.085C17.6919 17.194 17.7729 15.79 17.7729 14.305V11.281C17.7729 10.471 17.6649 9.769 16.6659 9.256L14.9109 8.338C13.9929 9.418 13.2099 10.309 12.3459 11.092L12.7239 11.497C12.9129 11.254 13.1019 11.065 13.2909 10.876C13.8039 11.092 14.1819 11.335 14.7489 11.767V15.466C14.7489 17.302 14.6409 18.193 14.3439 19.192C14.9919 20.326 16.2609 21.541 17.4489 22.162ZM29.2374 22.162C30.1554 21.082 30.9384 20.191 31.8024 19.408L31.4244 19.003C31.2354 19.246 31.0464 19.462 30.8574 19.651C30.0744 19.084 29.6964 18.679 29.3724 18.085C29.5074 17.572 29.5614 16.789 29.5614 16.411V15.25C29.5614 14.494 29.4804 14.062 28.5354 13.657L27.6714 13.306C28.0764 12.928 28.4274 12.604 28.7784 12.253C29.3994 11.632 29.7234 11.119 29.7234 10.633C29.7234 10.093 29.2914 9.58 28.4004 9.067L27.1584 8.338C25.8624 9.634 24.9444 10.606 23.8374 11.929V3.829C23.8374 2.29 23.9454 1.696 24.1614 0.507998L23.3514 0.750998V3.613L20.9484 2.56C20.0304 3.64 19.2474 4.531 18.3834 5.314L18.7614 5.719C18.9774 5.476 19.1664 5.233 19.3554 5.044L20.8134 5.746V15.466C20.8134 17.302 20.7054 18.193 20.4084 19.192C21.0564 20.326 22.3254 21.541 23.5134 22.162L25.4574 19.867C24.4584 19.192 23.8914 18.76 23.5404 18.085C23.6484 17.599 23.7294 17.005 23.7834 16.33C24.2154 16.033 24.6744 15.709 25.1334 15.358L25.1874 15.385C25.6464 15.547 26.0784 15.763 26.5374 15.979V17.356C26.5374 17.977 26.4834 18.49 26.2404 19.192C26.8884 20.326 28.0494 21.541 29.2374 22.162ZM23.8374 14.305V12.847C24.3774 12.118 24.8904 11.497 25.4304 10.903L26.1054 11.281C26.8884 11.713 27.2934 12.118 27.2934 12.523C27.2934 12.82 27.0774 13.144 26.6724 13.495C25.7814 14.278 24.8364 14.98 23.8104 15.682C23.8374 15.25 23.8374 14.791 23.8374 14.305ZM36.2734 22.162L37.4884 20.731C37.9744 20.191 38.4334 19.705 38.9194 19.246L38.5414 18.841C38.2714 19.165 38.0284 19.435 37.8124 19.678C36.4624 19.111 35.5714 18.49 34.9504 17.815C35.0854 17.221 35.1664 16.384 35.2204 15.466C36.6784 15.466 37.9474 15.547 38.6764 15.628L39.0274 14.98H35.8414C36.9484 13.954 38.0284 12.955 38.9734 11.821C39.6214 11.065 39.2974 10.228 38.6224 9.85L35.9764 8.338L34.2754 10.822L32.2234 11.389V14.98H31.1164L30.7654 15.736C31.3324 15.655 31.7914 15.574 32.2234 15.547C32.2234 17.329 32.1154 18.22 31.8184 19.192C32.5204 20.407 34.6534 21.703 36.2734 22.162ZM35.2474 14.818V11.389C36.0574 11.794 36.7054 12.226 37.3534 12.793C36.6244 13.522 35.9494 14.143 35.2474 14.818ZM41.4673 22.162L43.8163 19.813L41.4673 17.464L39.1183 19.813L41.4673 22.162ZM48.2276 22.162L49.4426 20.731C49.9286 20.191 50.3876 19.705 50.8736 19.246L50.4956 18.841C50.2256 19.165 50.0096 19.435 49.7666 19.678C48.6326 19.138 47.9846 18.436 47.4176 17.815C47.6066 16.978 47.7146 15.601 47.7146 14.305V11.416C48.4706 11.74 49.1456 12.037 49.8206 12.361C49.7936 13.306 49.7396 13.9 49.6586 14.521L50.3066 14.305V12.199L51.8456 9.985L48.3356 8.338L46.6076 10.849L44.6906 11.389V15.466C44.6906 17.302 44.5826 18.193 44.2856 19.192C44.9606 20.38 46.7696 21.757 48.2276 22.162ZM56.5002 22.162C58.0122 20.461 58.9572 19.57 60.8742 17.869V12.901C60.8742 10.066 60.6042 9.688 58.9032 9.229L55.5552 8.338L53.8542 10.876L52.1262 11.362V15.466C52.1262 17.302 52.0182 18.193 51.7212 19.192C52.4232 20.407 54.8532 21.703 56.5002 22.162ZM54.8532 17.815C55.0692 16.627 55.1502 15.736 55.1502 14.305V11.254C56.0952 11.524 57.1212 11.794 57.8772 12.091C57.9042 13.117 57.9312 14.062 57.9312 15.007C57.9312 16.6 57.8772 18.112 57.7962 19.732C56.3922 19.111 55.4742 18.517 54.8532 17.815ZM77.5958 22.162C78.5138 21.082 79.2968 20.191 80.1608 19.408L79.7828 19.003C79.5938 19.246 79.4048 19.462 79.2158 19.651C78.4058 19.084 77.9468 18.679 77.6228 18.085C77.8388 17.194 77.9198 15.817 77.9198 14.305V11.281C77.9198 10.525 77.7578 9.769 76.8128 9.391L74.2208 8.338C73.5188 9.04 72.8708 9.85 72.2498 10.822V9.607L68.5508 8.338C67.8488 9.04 67.1468 9.904 66.5258 10.903V9.607L63.6368 8.338C62.7188 9.418 61.9358 10.309 61.0718 11.092L61.4498 11.497C61.6658 11.254 61.8548 11.011 62.0438 10.822L63.5018 11.524V15.466C63.5018 17.302 63.3938 18.193 63.0968 19.192C63.7448 20.326 65.0138 21.541 66.2018 22.162L68.1458 19.867C67.1468 19.192 66.5798 18.76 66.2288 18.085C66.4448 17.194 66.5258 15.817 66.5258 14.305V11.875C66.7688 11.524 67.0118 11.227 67.2278 10.957C67.9028 11.146 68.5238 11.362 69.2258 11.659V15.466C69.2258 17.302 69.1178 18.193 68.8208 19.192C69.4688 20.326 70.7378 21.541 71.9258 22.162L73.8698 19.867C72.8708 19.192 72.3038 18.76 71.9528 18.085C72.1688 17.194 72.2498 15.817 72.2498 14.305V11.794C72.4658 11.47 72.6818 11.2 72.8978 10.957C73.5998 11.173 74.2478 11.443 74.8958 11.767V15.466C74.8958 17.302 74.7878 18.193 74.4908 19.192C75.1388 20.326 76.4078 21.541 77.5958 22.162ZM82.4683 22.162L84.8173 19.813L82.4683 17.464L80.1193 19.813L82.4683 22.162ZM90.5516 22.162C92.0636 20.461 93.0086 19.57 94.9256 17.869V11.416C94.9256 10.12 94.4666 9.58 93.6836 9.202L91.8206 8.338L90.0926 10.822C90.7946 11.092 91.3346 11.389 91.9286 11.767C91.9556 12.82 91.9826 13.792 91.9826 14.737C91.9826 16.357 91.9286 17.896 91.8476 19.705C90.4436 19.111 89.5256 18.517 88.9046 17.815C89.0936 16.978 89.2016 15.52 89.2016 14.305V9.607L86.3126 8.338C85.3946 9.418 84.6116 10.309 83.7476 11.092L84.1256 11.497C84.3416 11.254 84.5306 11.011 84.7196 10.822L86.1776 11.524V15.466C86.1776 17.302 86.0696 18.193 85.7726 19.192C86.4746 20.434 88.7966 21.676 90.5516 22.162ZM105.966 22.162C106.884 21.082 107.667 20.191 108.531 19.408L108.153 19.003C107.964 19.246 107.775 19.462 107.586 19.651C106.776 19.084 106.317 18.679 105.993 18.085C106.236 17.194 106.29 15.925 106.29 14.305V11.281C106.29 10.525 106.128 9.769 105.183 9.391L102.591 8.338C101.889 9.04 101.187 9.904 100.566 10.903V9.607L97.6769 8.338C96.7589 9.418 95.9759 10.309 95.1119 11.092L95.4899 11.497C95.7059 11.254 95.8949 11.011 96.0839 10.822L97.5419 11.524V15.466C97.5419 17.302 97.4339 18.193 97.1369 19.192C97.7849 20.326 99.0539 21.541 100.242 22.162L102.186 19.867C101.187 19.192 100.62 18.76 100.269 18.085C100.512 17.194 100.566 15.925 100.566 14.305V11.875C100.809 11.524 101.052 11.227 101.268 10.957C101.97 11.173 102.618 11.443 103.266 11.767V15.466C103.266 17.302 103.158 18.193 102.861 19.192C103.509 20.326 104.778 21.541 105.966 22.162Z" fill="black"/>
</svg>
