<svg width="18" height="18" viewBox="0 0 18 18" fill="none" xmlns="http://www.w3.org/2000/svg">
<path d="M4.00008 12.3333C3.55805 12.3333 3.13413 12.5089 2.82157 12.8215C2.50901 13.134 2.33342 13.558 2.33342 14C2.33342 14.442 2.50901 14.8659 2.82157 15.1785C3.13413 15.4911 3.55805 15.6667 4.00008 15.6667C4.44211 15.6667 4.86603 15.4911 5.17859 15.1785C5.49115 14.8659 5.66675 14.442 5.66675 14C5.66675 13.558 5.49115 13.134 5.17859 12.8215C4.86603 12.5089 4.44211 12.3333 4.00008 12.3333ZM0.666748 14C0.666748 13.1159 1.01794 12.2681 1.64306 11.643C2.26818 11.0178 3.11603 10.6667 4.00008 10.6667C4.88414 10.6667 5.73198 11.0178 6.35711 11.643C6.98223 12.2681 7.33342 13.1159 7.33342 14C7.33342 14.884 6.98223 15.7319 6.35711 16.357C5.73198 16.9821 4.88414 17.3333 4.00008 17.3333C3.11603 17.3333 2.26818 16.9821 1.64306 16.357C1.01794 15.7319 0.666748 14.884 0.666748 14ZM14.0001 9.83332C13.5581 9.83332 13.1341 10.0089 12.8216 10.3215C12.509 10.634 12.3334 11.058 12.3334 11.5C12.3334 11.942 12.509 12.3659 12.8216 12.6785C13.1341 12.9911 13.5581 13.1667 14.0001 13.1667C14.4421 13.1667 14.866 12.9911 15.1786 12.6785C15.4912 12.3659 15.6668 11.942 15.6668 11.5C15.6668 11.058 15.4912 10.634 15.1786 10.3215C14.866 10.0089 14.4421 9.83332 14.0001 9.83332ZM10.6667 11.5C10.6667 10.6159 11.0179 9.76809 11.6431 9.14297C12.2682 8.51785 13.116 8.16666 14.0001 8.16666C14.8841 8.16666 15.732 8.51785 16.3571 9.14297C16.9822 9.76809 17.3334 10.6159 17.3334 11.5C17.3334 12.384 16.9822 13.2319 16.3571 13.857C15.732 14.4821 14.8841 14.8333 14.0001 14.8333C13.116 14.8333 12.2682 14.4821 11.6431 13.857C11.0179 13.2319 10.6667 12.384 10.6667 11.5Z" fill="#363636"/>
<path d="M17.0126 0.843322C17.1124 0.921205 17.1932 1.02082 17.2488 1.13461C17.3044 1.24839 17.3333 1.37335 17.3334 1.49999V11.5C17.3334 11.721 17.2456 11.933 17.0893 12.0892C16.9331 12.2455 16.7211 12.3333 16.5001 12.3333C16.2791 12.3333 16.0671 12.2455 15.9108 12.0892C15.7545 11.933 15.6667 11.721 15.6667 11.5V5.89999L7.33341 7.98332V14C7.33341 14.221 7.24562 14.433 7.08934 14.5892C6.93306 14.7455 6.7211 14.8333 6.50008 14.8333C6.27907 14.8333 6.06711 14.7455 5.91083 14.5892C5.75455 14.433 5.66675 14.221 5.66675 14V3.99999C5.66675 3.81421 5.72883 3.63377 5.84313 3.48732C5.95742 3.34086 6.11738 3.2368 6.29758 3.19166L16.2976 0.691655C16.4205 0.660941 16.5487 0.658636 16.6726 0.684917C16.7965 0.711197 16.9128 0.765371 17.0126 0.843322V0.843322ZM7.33341 6.26582L15.6667 4.18249V2.56749L7.33341 4.65082V6.26582Z" fill="#363636"/>
</svg>
