<svg width="49" height="45" viewBox="0 0 49 45" fill="none" xmlns="http://www.w3.org/2000/svg">
<path d="M29.9174 19.7963H36.5919V24.037C36.5919 28.5999 35.9957 32.009 34.8505 34.3146C33.7209 36.5889 32.067 37.7796 29.8712 37.9836L29.4174 38.0258V38.4815V43V43.5319L29.9484 43.499C34.858 43.1949 39.0501 41.2382 42.503 37.6436C45.0723 34.9938 46.7413 32.4309 47.4555 29.9533C48.1607 27.5068 48.5 23.12 48.5 16.8519V1V0.5H48H29.9174H29.4174V1V19.2963V19.7963H29.9174ZM7.74766 19.7963V24.037C7.74766 28.5995 7.14541 32.0078 5.98885 34.3128C4.84819 36.5861 3.17665 37.7792 0.954202 37.9836L0.5 38.0254V38.4815V43V43.5319L1.03092 43.499C5.94072 43.1949 10.1562 41.2382 13.6572 37.6452L13.6572 37.6453L13.6614 37.6409C16.182 34.9904 17.8246 32.4283 18.5381 29.9533C19.2433 27.5068 19.5826 23.12 19.5826 16.8519V1V0.5H19.0826H1H0.5V1V19.2963V19.7963H1H7.74766Z" stroke="black"/>
</svg>
