<svg width="20" height="20" viewBox="0 0 20 20" fill="none" xmlns="http://www.w3.org/2000/svg">
<path d="M4.97294 12.1294L3.60711 18.0438C3.56482 18.2229 3.57751 18.4105 3.64354 18.5823C3.70957 18.7541 3.82586 18.9019 3.97723 19.0065C4.1286 19.1112 4.308 19.1678 4.49202 19.1688C4.67603 19.1699 4.85609 19.1155 5.00869 19.0127L9.99994 15.6852L14.9912 19.0127C15.1473 19.1163 15.3315 19.1697 15.5189 19.1656C15.7062 19.1615 15.8879 19.1001 16.0393 18.9897C16.1908 18.8793 16.3048 18.7251 16.366 18.548C16.4272 18.3709 16.4327 18.1792 16.3818 17.9988L14.7052 12.1322L18.8632 8.39035C18.9964 8.27044 19.0915 8.11412 19.1367 7.94073C19.182 7.76734 19.1755 7.58449 19.1179 7.41478C19.0604 7.24506 18.9544 7.09594 18.813 6.98585C18.6716 6.87576 18.501 6.80953 18.3224 6.79535L13.0964 6.37918L10.835 1.37326C10.7629 1.21207 10.6457 1.07519 10.4975 0.979151C10.3493 0.883107 10.1765 0.832001 9.99994 0.832001C9.82336 0.832001 9.65055 0.883107 9.50237 0.979151C9.35419 1.07519 9.23697 1.21207 9.16486 1.37326L6.90344 6.37918L1.67753 6.79443C1.50194 6.80834 1.33409 6.87254 1.19403 6.97935C1.05398 7.08616 0.94767 7.23106 0.887811 7.39671C0.827953 7.56236 0.817086 7.74174 0.856509 7.91341C0.895932 8.08507 0.983977 8.24174 1.11011 8.36468L4.97294 12.1294ZM7.58819 8.16393C7.75181 8.15104 7.90895 8.09437 8.04314 7.99986C8.17732 7.90535 8.28361 7.77648 8.35086 7.62676L9.99994 3.97751L11.649 7.62676C11.7163 7.77648 11.8226 7.90535 11.9567 7.99986C12.0909 8.09437 12.2481 8.15104 12.4117 8.16393L16.0527 8.45268L13.0543 11.1513C12.7939 11.386 12.6904 11.7472 12.7857 12.0845L13.9343 16.1041L10.5096 13.8207C10.3593 13.7198 10.1824 13.6659 10.0013 13.6659C9.82028 13.6659 9.64334 13.7198 9.49303 13.8207L5.91436 16.2068L6.87686 12.0396C6.91215 11.8863 6.90741 11.7266 6.86311 11.5757C6.8188 11.4248 6.73641 11.2878 6.62386 11.1779L3.83903 8.46276L7.58819 8.16393Z" fill="#363636"/>
</svg>
