<svg width="16" height="16" viewBox="0 0 16 16" fill="none" xmlns="http://www.w3.org/2000/svg">
<path d="M8 0C5.87827 0 3.84344 0.842855 2.34315 2.34315C0.842855 3.84344 0 5.87827 0 8C0 10.1217 0.842855 12.1566 2.34315 13.6569C3.84344 15.1571 5.87827 16 8 16C10.1217 16 12.1566 15.1571 13.6569 13.6569C15.1571 12.1566 16 10.1217 16 8C16 5.87827 15.1571 3.84344 13.6569 2.34315C12.1566 0.842855 10.1217 0 8 0ZM5.092 1.63L7.502 3.036V4.736L4.733 6.688L3.173 6.121L2.547 3.609C3.23045 2.76096 4.10172 2.08346 5.092 1.63ZM1.034 8.692L2.861 7.072L4.407 7.633L5.452 10.923L4.735 11.996H2.252C1.5695 11.0173 1.15008 9.87953 1.034 8.692ZM6.373 14.81L5.558 12.564L6.268 11.501H9.735L10.446 12.564L9.631 14.809C8.56005 15.0647 7.44395 15.0647 6.373 14.809V14.81ZM13.748 11.996H11.27L10.55 10.921L11.575 7.634L13.142 7.07L14.966 8.692C14.8499 9.87953 14.4305 11.0173 13.748 11.996ZM13.458 3.616L12.832 6.119L11.248 6.689L8.501 4.737V3.037L10.91 1.63C11.902 2.08475 12.7744 2.76438 13.458 3.615V3.616Z" fill="#363636"/>
</svg>
