<svg width="16" height="20" viewBox="0 0 16 20" fill="none" xmlns="http://www.w3.org/2000/svg">
<path fill-rule="evenodd" clip-rule="evenodd" d="M0.5 19.375V2.5C0.5 1.83696 0.763392 1.20107 1.23223 0.732233C1.70107 0.263392 2.33696 0 3 0L13 0C13.663 0 14.2989 0.263392 14.7678 0.732233C15.2366 1.20107 15.5 1.83696 15.5 2.5V19.375C15.5001 19.4835 15.4719 19.5902 15.4182 19.6845C15.3645 19.7789 15.2872 19.8576 15.1939 19.913C15.1005 19.9684 14.9944 19.9985 14.8859 20.0004C14.7774 20.0023 14.6702 19.9758 14.575 19.9237L8 16.3363L1.425 19.9237C1.32979 19.9758 1.22265 20.0023 1.11413 20.0004C1.00561 19.9985 0.899459 19.9684 0.806115 19.913C0.712771 19.8576 0.635456 19.7789 0.581781 19.6845C0.528106 19.5902 0.499921 19.4835 0.5 19.375ZM5.5 7.5C5.33424 7.5 5.17527 7.56585 5.05806 7.68306C4.94085 7.80027 4.875 7.95924 4.875 8.125C4.875 8.29076 4.94085 8.44973 5.05806 8.56694C5.17527 8.68415 5.33424 8.75 5.5 8.75H10.5C10.6658 8.75 10.8247 8.68415 10.9419 8.56694C11.0592 8.44973 11.125 8.29076 11.125 8.125C11.125 7.95924 11.0592 7.80027 10.9419 7.68306C10.8247 7.56585 10.6658 7.5 10.5 7.5H5.5Z" fill="#363636"/>
</svg>
