<?xml version="1.0" standalone="no"?>
<!DOCTYPE svg PUBLIC "-//W3C//DTD SVG 1.1//EN" "http://www.w3.org/Graphics/SVG/1.1/DTD/svg11.dtd" >
<svg>
<metadata>
Created by FontForge 20090914 at Tue Nov  8 03:44:07 2016
 By www-data
Copyright (c) 2013, Tiro Typeworks Ltd (www.tiro.com).
</metadata>
<defs>
<font id="Slabo27px-Regular" horiz-adv-x="420" >
  <font-face 
    font-family="Slabo 27px"
    font-weight="400"
    font-stretch="normal"
    units-per-em="810"
    panose-1="2 6 5 3 3 5 5 2 4 4"
    ascent="648"
    descent="-162"
    x-height="390"
    cap-height="540"
    bbox="-313 -190 1030 740"
    underline-thickness="45"
    underline-position="-24"
    unicode-range="U+000D-U+FB04"
  />
<missing-glyph horiz-adv-x="390" 
d="M390 26c0 -17.333 -8.66699 -26 -26 -26h-337c-18 0 -27 8.66699 -27 26v488c0 17.333 9 26 27 26h337c17.333 0 26 -8.66699 26 -26v-488zM209 246c30.667 4.66699 56.1689 17.833 76.502 39.5s30.5 48.5 30.5 80.5c0 15.333 -2.5 29.5 -7.5 42.5s-12.667 24.333 -23 34
s-23 17.667 -38 24s-32.167 9.5 -51.5 9.5c-26 0 -48.5 -3.33301 -67.5 -10s-30.5 -11.667 -34.5 -15c-6 -4.66699 -9 -10.334 -9 -17.001s2 -12.667 6 -18s9 -8 15 -8c3.33301 0 6.66602 0.666992 9.99902 2c4.66699 2 12.667 5.16699 24 9.5s26 6.5 44 6.5
c27.333 0 46.333 -6.33301 57 -19s16 -28 16 -46c0 -24 -6.5 -41.833 -19.5 -53.5s-29.833 -18.167 -50.5 -19.5c-10 -0.666992 -18 -3.66699 -24 -9s-9 -12.666 -9 -21.999v-67c0 -9.33301 2.16699 -15.833 6.5 -19.5s10.5 -5.5 18.5 -5.5
c9.33301 0 16.666 1.83301 21.999 5.5s8 10.167 8 19.5v56zM143.002 93.999c0 -9.33301 3.5 -17.666 10.5 -24.999s15.5 -11 25.5 -11c12 0 21.833 3.66699 29.5 11s11.5 15.666 11.5 24.999c0 12.667 -3.83301 22.667 -11.5 30s-17.5 11 -29.5 11
c-10 0 -18.5 -3.66699 -25.5 -11s-10.5 -17.333 -10.5 -30z" />
    <glyph glyph-name="f_f" unicode="ff" horiz-adv-x="450" 
d="M502 500l-52.001 -0.000976562v54c-10 2 -20 3 -30 3c-24.667 0 -42.5 -6.66699 -53.5 -20s-16.5 -35 -16.5 -65v-82h90v-50h-90v-290h50v-50h-160v50h50v290h-150v-290h50v-50h-160v50h50v290h-50v50h50v70c0 26.667 3.5 48.834 10.5 66.501s16.5 32 28.5 43
s25.833 18.833 41.5 23.5s32.167 7 49.5 7c27.333 0 54 -6 80 -18v-52c-24.667 14.667 -50 22 -76 22c-28 0 -47.333 -6.66699 -58 -20s-16 -34.333 -16 -63v-79h150v73c0 48 11.5 83.667 34.5 107s54.5 35 94.5 35c26.667 0 54.334 -5 83.001 -15v-90z" />
    <glyph glyph-name="f_i" unicode="fi" 
d="M350 480l-60 0.000976562v71c-17.333 4 -35.333 6 -54 6c-34 0 -58.5 -6.83301 -73.5 -20.5s-22.5 -35.834 -22.5 -66.501v-80h210v-340h50v-50h-160v50h50v290h-150v-290h50v-50h-160v50h50v290h-50v50h50v73c0 46.667 13 82 39 106s65.667 36 119 36
c38.667 0 76 -5.66699 112 -17v-108z" />
    <glyph glyph-name="f_l" unicode="fl" 
d="M350 602l0.00195312 -552h50v-50h-150v50h40v499c-16.667 5.33301 -35.334 8 -56.001 8c-33.333 0 -57.333 -6.83301 -72 -20.5s-22 -35.167 -22 -64.5v-82h90v-50h-90v-290h40v-50h-150v50h50v290h-50v50h50v73c0 48 13.667 83.667 41 107s64.666 35 111.999 35
c22.667 0 45.667 -3 69 -9l44 6h4z" />
    <glyph glyph-name="f_f_i" unicode="ffi" horiz-adv-x="630" 
d="M290 541c-18.667 7.33301 -39 11.001 -61 11.001c-33.333 0 -56.5 -6.83301 -69.5 -20.5s-19.5 -35.167 -19.5 -64.5v-77h150v73c0 46.667 13 82 39 106s65.667 36 119 36c38.667 0 76 -5.66699 112 -17v-108h-60v71c-17.333 4 -35.333 6 -54 6
c-34 0 -58.5 -6.83301 -73.5 -20.5s-22.5 -35.834 -22.5 -66.501v-80h210v-340h50v-50h-160v50h50v290h-150v-290h50v-50h-160v50h50v290h-150v-290h50v-50h-160v50h50v290h-50v50h50v68c0 48 12.833 83.667 38.5 107s62.167 35 109.5 35c20 0 40.667 -2.33301 62 -7v-52z
" />
    <glyph glyph-name="f_f_l" unicode="ffl" horiz-adv-x="630" 
d="M560 602l0.00195312 -552h50v-50h-150v50h40v499c-16.667 5.33301 -35.334 8 -56.001 8c-33.333 0 -57.333 -6.83301 -72 -20.5s-22 -35.167 -22 -64.5v-82h90v-50h-90v-290h40v-50h-150v50h50v290h-150v-290h50v-50h-160v50h50v290h-50v50h50v68
c0 48 12.833 83.667 38.5 107s62.167 35 109.5 35c20 0 40.667 -2.33301 62 -7v-52c-18.667 7.33301 -39 11 -61 11c-33.333 0 -56.5 -6.83301 -69.5 -20.5s-19.5 -35.167 -19.5 -64.5v-77h150v73c0 48 13.667 83.667 41 107s64.666 35 111.999 35c22.667 0 45.667 -3 69 -9
l44 6h4z" />
    <glyph glyph-name="f_b" unicode="fb" horiz-adv-x="630" 
d="M345 365l2.00293 -1c28 24 61 36 99 36c43.333 0 78.166 -18.333 104.499 -55s39.5 -83.667 39.5 -141c0 -66.667 -16.833 -119 -50.5 -157s-79.834 -57 -138.501 -57c-38 0 -76.667 6.33301 -116 19v541c-15.333 4.66699 -32.333 7 -51 7
c-33.333 0 -57.333 -6.83301 -72 -20.5s-22 -35.167 -22 -64.5v-82h90v-50h-90v-290h50v-50h-160v50h50v290h-50v50h50v73c0 48 13.667 83.667 41 107s64.666 35 111.999 35c22 0 44 -2.66699 66 -8l42 5h4v-237zM345.003 46c20 -4 39.666 -6 58.999 -6
c40 0 70.5 12.333 91.5 37s31.5 64 31.5 118c0 48 -8.16699 85.833 -24.5 113.5s-41.166 41.5 -74.499 41.5c-29.333 0 -57 -11 -83 -33v-271z" />
    <glyph glyph-name="f_f_b" unicode="ffb" horiz-adv-x="840" 
d="M290 541c-18.667 7.33301 -38.9971 11 -60.9971 11c-33.333 0 -56.5 -6.83301 -69.5 -20.5s-19.5 -35.167 -19.5 -64.5v-77h150v73c0 48 13.667 83.667 41 107s64.666 35 111.999 35c22 0 44 -2.66699 66 -8l42 5h4v-237l2 -1c28 24 61 36 99 36
c43.333 0 78.166 -18.333 104.499 -55s39.5 -83.667 39.5 -141c0 -66.667 -16.833 -119 -50.5 -157s-79.834 -57 -138.501 -57c-38 0 -76.667 6.33301 -116 19v541c-15.333 4.66699 -32.333 7 -51 7c-33.333 0 -57.333 -6.83301 -72 -20.5s-22 -35.167 -22 -64.5v-82h90v-50
h-90v-290h50v-50h-160v50h50v290h-150v-290h50v-50h-160v50h50v290h-50v50h50v68c0 48 12.833 83.667 38.5 107s62.167 35 109.5 35c20 0 40.667 -2.33301 62 -7v-52zM555.003 46c20 -4 39.666 -6 58.999 -6c40 0 70.5 12.333 91.5 37s31.5 64 31.5 118
c0 48 -8.16699 85.833 -24.5 113.5s-41.166 41.5 -74.499 41.5c-29.333 0 -57 -11 -83 -33v-271z" />
    <glyph glyph-name="f_f_h" unicode="ffh" horiz-adv-x="840" 
d="M290 541c-18.667 7.33301 -38.9961 11 -60.9961 11c-33.333 0 -56.5 -6.83301 -69.5 -20.5s-19.5 -35.167 -19.5 -64.5v-77h150v73c0 48 13.667 83.667 41 107s64.666 35 111.999 35c21.333 0 42.666 -2.66699 63.999 -8l39 5h4v-258h1c36 37.333 77 56 123 56
c33.333 0 57.666 -9.5 72.999 -28.5s23 -45.833 23 -80.5v-241h50v-50h-150v50h40v233c0 26.667 -4.66699 44.5 -14 53.5s-22.333 13.5 -39 13.5c-38.667 0 -74.334 -19 -107.001 -57v-243h40v-50h-140v50h40v501c-14 4 -29.333 6 -46 6
c-33.333 0 -57.333 -6.83301 -72 -20.5s-22 -35.167 -22 -64.5v-82h90v-50h-90v-290h40v-50h-150v50h50v290h-150v-290h50v-50h-160v50h50v290h-50v50h50v68c0 48 12.833 83.667 38.5 107s62.167 35 109.5 35c20 0 40.667 -2.33301 62 -7v-52z" />
    <glyph glyph-name="f_f_iogonek" unicode="ff&#x12f;" horiz-adv-x="630" 
d="M290 541c-18.667 7.33301 -39 11.001 -61 11.001c-33.333 0 -56.5 -6.83301 -69.5 -20.5s-19.5 -35.167 -19.5 -64.5v-77h150v73c0 46.667 13 82 39 106s65.667 36 119 36c38.667 0 76 -5.66699 112 -17v-108h-60v71c-17.333 4 -35.333 6 -54 6
c-34 0 -58.5 -6.83301 -73.5 -20.5s-22.5 -35.834 -22.5 -66.501v-80h210v-340h50v-50h-160v50h50v290h-150v-290h50v-50h-160v50h50v290h-150v-290h50v-50h-160v50h50v290h-50v50h50v68c0 48 12.833 83.667 38.5 107s62.167 35 109.5 35c20 0 40.667 -2.33301 62 -7v-52z
M569 -134.999c14 0 27.666 3.33301 40.999 10v-48c-14.667 -8 -31 -12 -49 -12c-24 0 -44.333 6.83301 -61 20.5s-25 32.5 -25 56.5c0 36.667 19.667 72 59 106v10h55v-8c-39.333 -32 -59 -64 -59 -96c0 -14 3.83301 -24 11.5 -30s16.834 -9 27.501 -9z" />
    <glyph glyph-name="f_f_ij" unicode="ff&#x133;" horiz-adv-x="810" 
d="M290 541c-18.667 7.33301 -39 11.001 -61 11.001c-33.333 0 -56.5 -6.83301 -69.5 -20.5s-19.5 -35.167 -19.5 -64.5v-77h150v73c0 46.667 13 82 39 106s65.667 36 119 36c38.667 0 76 -5.66699 112 -17v-108h-60v71c-17.333 4 -35.333 6 -54 6
c-34 0 -58.5 -6.83301 -73.5 -20.5s-22.5 -35.834 -22.5 -66.501v-80h210v-340h50v-50h-160v50h50v290h-150v-290h50v-50h-160v50h50v290h-150v-290h50v-50h-160v50h50v290h-50v50h50v68c0 48 12.833 83.667 38.5 107s62.167 35 109.5 35c20 0 40.667 -2.33301 62 -7v-52z
M735 -148.999c-16 -22 -41.668 -33.001 -77.001 -33.001c-9.33301 0 -18.666 0.666992 -27.999 2v50c5.33301 -0.666992 11 -1 17 -1c20.667 0 34.667 5.33301 42 16s11 29.667 11 57v398h-50v50h110v-439c0 -45.333 -8.33301 -78.666 -25 -99.999zM682.999 496
c0 14 3.83398 24.834 11.501 32.501s18.167 11.5 31.5 11.5c12.667 0 23 -3.83301 31 -11.5s12 -17.834 12 -30.501c0 -13.333 -4 -23.833 -12 -31.5s-18.667 -11.5 -32 -11.5c-12.667 0 -22.834 3.83301 -30.501 11.5s-11.5 17.5 -11.5 29.5z" />
    <glyph glyph-name="f_f_j" unicode="ffj" horiz-adv-x="600" 
d="M290 541c-18.667 7.33301 -39.001 11 -61.001 11c-33.333 0 -56.5 -6.83301 -69.5 -20.5s-19.5 -35.167 -19.5 -64.5v-77h150v73c0 46.667 12.5 82 37.5 106s63.167 36 114.5 36c37.333 0 73.333 -5.66699 108 -17v-108h-60v71c-16 4 -32.667 6 -50 6
c-32 0 -55 -6.83301 -69 -20.5s-21 -35.834 -21 -66.501v-80h200v-439c0 -45.333 -8.33301 -78.666 -25 -99.999c-16 -22 -41.667 -33 -77 -33c-9.33301 0 -18.666 0.666992 -27.999 2v50c5.33301 -0.666992 11 -1 17 -1c20.667 0 34.667 5.33301 42 16s11 29.667 11 57v398
h-140v-290h50v-50h-160v50h50v290h-150v-290h50v-50h-160v50h50v290h-50v50h50v68c0 48 12.833 83.667 38.5 107s62.167 35 109.5 35c20 0 40.667 -2.33301 62 -7v-52z" />
    <glyph glyph-name="f_f_k" unicode="ffk" horiz-adv-x="810" 
d="M290 541c-18.667 7.33301 -38.998 11 -60.998 11c-33.333 0 -56.5 -6.83301 -69.5 -20.5s-19.5 -35.167 -19.5 -64.5v-77h150v73c0 48 13.667 83.667 41 107s64.666 35 111.999 35c22.667 0 45.667 -3 69 -9l44 6h4v-552h40v-50h-140v50h40v499
c-16.667 5.33301 -35.334 8 -56.001 8c-33.333 0 -57.333 -6.83301 -72 -20.5s-22 -35.167 -22 -64.5v-82h90v-50h-90v-290h40v-50h-150v50h50v290h-150v-290h50v-50h-160v50h50v290h-50v50h50v68c0 48 12.833 83.667 38.5 107s62.167 35 109.5 35
c20 0 40.667 -2.33301 62 -7v-52zM650.002 390h150v-50h-53l-114 -121l131 -169h46v-50h-155v50h37l1 2l-123 161l117 127h-37v50z" />
    <glyph glyph-name="f_h" unicode="fh" horiz-adv-x="630" 
d="M340 602l0.00390625 -258h1c36 37.333 77 56 123 56c33.333 0 57.666 -9.5 72.999 -28.5s23 -45.833 23 -80.5v-241h50v-50h-150v50h40v233c0 26.667 -4.66699 44.5 -14 53.5s-22.333 13.5 -39 13.5c-38.667 0 -74.334 -19 -107.001 -57v-243h40v-50h-140v50h40v501
c-14 4 -29.333 6 -46 6c-33.333 0 -57.333 -6.83301 -72 -20.5s-22 -35.167 -22 -64.5v-82h90v-50h-90v-290h40v-50h-150v50h50v290h-50v50h50v73c0 48 13.667 83.667 41 107s64.666 35 111.999 35c21.333 0 42.666 -2.66699 63.999 -8l39 5h4z" />
    <glyph glyph-name="f_iogonek" unicode="f&#x12f;" 
d="M350 480l-60 0.000976562v71c-17.333 4 -35.333 6 -54 6c-34 0 -58.5 -6.83301 -73.5 -20.5s-22.5 -35.834 -22.5 -66.501v-80h210v-340h50v-50h-160v50h50v290h-150v-290h50v-50h-160v50h50v290h-50v50h50v73c0 46.667 13 82 39 106s65.667 36 119 36
c38.667 0 76 -5.66699 112 -17v-108zM359 -134.999c14 0 27.666 3.33301 40.999 10v-48c-14.667 -8 -31 -12 -49 -12c-24 0 -44.333 6.83301 -61 20.5s-25 32.5 -25 56.5c0 36.667 19.667 72 59 106v10h55v-8c-39.333 -32 -59 -64 -59 -96c0 -14 3.83301 -24 11.5 -30
s16.834 -9 27.501 -9z" />
    <glyph glyph-name="f_ij" unicode="f&#x133;" horiz-adv-x="600" 
d="M350 480l-60 0.000976562v71c-17.333 4 -35.333 6 -54 6c-34 0 -58.5 -6.83301 -73.5 -20.5s-22.5 -35.834 -22.5 -66.501v-80h210v-340h50v-50h-160v50h50v290h-150v-290h50v-50h-160v50h50v290h-50v50h50v73c0 46.667 13 82 39 106s65.667 36 119 36
c38.667 0 76 -5.66699 112 -17v-108zM525 -148.999c-16 -22 -41.668 -33.001 -77.001 -33.001c-9.33301 0 -18.666 0.666992 -27.999 2v50c5.33301 -0.666992 11 -1 17 -1c20.667 0 34.667 5.33301 42 16s11 29.667 11 57v398h-50v50h110v-439
c0 -45.333 -8.33301 -78.666 -25 -99.999zM472.999 496c0 14 3.83398 24.834 11.501 32.501s18.167 11.5 31.5 11.5c12.667 0 23 -3.83301 31 -11.5s12 -17.834 12 -30.501c0 -13.333 -4 -23.833 -12 -31.5s-18.667 -11.5 -32 -11.5c-12.667 0 -22.834 3.83301 -30.501 11.5
s-11.5 17.5 -11.5 29.5z" />
    <glyph glyph-name="f_j" unicode="fj" horiz-adv-x="390" 
d="M280 -58l-0.000976562 398h-140v-290h50v-50h-160v50h50v290h-50v50h50v73c0 46.667 12.5 82 37.5 106s63.167 36 114.5 36c37.333 0 73.333 -5.66699 108 -17v-108h-60v71c-16 4 -32.667 6 -50 6c-32 0 -55 -6.83301 -69 -20.5s-21 -35.834 -21 -66.501v-80h200v-439
c0 -45.333 -8.33301 -78.666 -25 -99.999c-16 -22 -41.667 -33 -77 -33c-9.33301 0 -18.666 0.666992 -27.999 2v50c5.33301 -0.666992 11 -1 17 -1c20.667 0 34.667 5.33301 42 16s11 29.667 11 57z" />
    <glyph glyph-name="f_k" unicode="fk" horiz-adv-x="600" 
d="M350 602l0.00195312 -552h40v-50h-140v50h40v499c-16.667 5.33301 -35.334 8 -56.001 8c-33.333 0 -57.333 -6.83301 -72 -20.5s-22 -35.167 -22 -64.5v-82h90v-50h-90v-290h40v-50h-150v50h50v290h-50v50h50v73c0 48 13.667 83.667 41 107s64.666 35 111.999 35
c22.667 0 45.667 -3 69 -9l44 6h4zM440.002 390h150v-50h-53l-114 -121l131 -169h46v-50h-155v50h37l1 2l-123 161l117 127h-37v50z" />
    <glyph glyph-name=".notdef" horiz-adv-x="390" 
d="M390 26c0 -17.333 -8.66699 -26 -26 -26h-337c-18 0 -27 8.66699 -27 26v488c0 17.333 9 26 27 26h337c17.333 0 26 -8.66699 26 -26v-488zM209 246c30.667 4.66699 56.1689 17.833 76.502 39.5s30.5 48.5 30.5 80.5c0 15.333 -2.5 29.5 -7.5 42.5s-12.667 24.333 -23 34
s-23 17.667 -38 24s-32.167 9.5 -51.5 9.5c-26 0 -48.5 -3.33301 -67.5 -10s-30.5 -11.667 -34.5 -15c-6 -4.66699 -9 -10.334 -9 -17.001s2 -12.667 6 -18s9 -8 15 -8c3.33301 0 6.66602 0.666992 9.99902 2c4.66699 2 12.667 5.16699 24 9.5s26 6.5 44 6.5
c27.333 0 46.333 -6.33301 57 -19s16 -28 16 -46c0 -24 -6.5 -41.833 -19.5 -53.5s-29.833 -18.167 -50.5 -19.5c-10 -0.666992 -18 -3.66699 -24 -9s-9 -12.666 -9 -21.999v-67c0 -9.33301 2.16699 -15.833 6.5 -19.5s10.5 -5.5 18.5 -5.5
c9.33301 0 16.666 1.83301 21.999 5.5s8 10.167 8 19.5v56zM143.002 93.999c0 -9.33301 3.5 -17.666 10.5 -24.999s15.5 -11 25.5 -11c12 0 21.833 3.66699 29.5 11s11.5 15.666 11.5 24.999c0 12.667 -3.83301 22.667 -11.5 30s-17.5 11 -29.5 11
c-10 0 -18.5 -3.66699 -25.5 -11s-10.5 -17.333 -10.5 -30z" />
    <glyph glyph-name="NULL" horiz-adv-x="0" 
 />
    <glyph glyph-name="NULL" horiz-adv-x="0" 
 />
    <glyph glyph-name="nonmarkingreturn" unicode="&#xd;" horiz-adv-x="150" 
 />
    <glyph glyph-name="space" unicode=" " horiz-adv-x="150" 
 />
    <glyph glyph-name="exclam" unicode="!" horiz-adv-x="240" 
d="M92 540h74l-16 -390h-41zM80 39c0 16 4.50098 28.833 13.501 38.5s21.167 14.5 36.5 14.5s27.5 -4.83301 36.5 -14.5s13.5 -21.167 13.5 -34.5c0 -16.667 -4.66699 -29.667 -14 -39s-22 -14 -38 -14c-14.667 0 -26.334 4.66699 -35.001 14s-13 21 -13 35z" />
    <glyph glyph-name="quotedbl" unicode="&#x22;" horiz-adv-x="270" 
d="M42 540h66l-13 -180h-40zM162 540h66l-13 -180h-40z" />
    <glyph glyph-name="numbersign" unicode="#" 
d="M390 340l-4 -40h-79l-11 -120h80l-4 -40h-80l-12 -140h-50l13 140h-86l-12 -140h-49l13 140h-79l4 40h78l11 120h-79l4 40h79l13 140h48l-13 -140h87l13 140h48l-13 -140h80zM161 180h86l11 120h-86z" />
    <glyph glyph-name="dollar" unicode="$" 
d="M180 -70l-0.000976562 68.002c-47.333 0.666992 -94 9 -140 25v107h52v-69c22.667 -7.33301 52 -11.333 88 -12v200c-52 21.333 -88.667 43.166 -110 65.499s-32 51.166 -32 86.499c0 38 12.5 69.333 37.5 94s59.833 39.667 104.5 45v70h46v-69
c48.667 -2.66699 90.667 -11.334 126 -26.001v-95h-52v59c-22.667 7.33301 -47.334 11.333 -74.001 12v-196c50.667 -21.333 87.334 -43.5 110.001 -66.5s34 -51.833 34 -86.5c0 -37.333 -12.167 -68.666 -36.5 -93.999s-60.166 -41 -107.499 -47v-71h-46zM307.999 132.002
c0 25.333 -7.33301 45.332 -22 59.999s-34.667 27.667 -60 39v-180c28 4.66699 48.667 14.334 62 29.001s20 32 20 52zM99.999 409.001c0 -24.667 7 -44 21 -58s33.667 -26.333 59 -37v176c-27.333 -3.33301 -47.5 -12.5 -60.5 -27.5s-19.5 -32.833 -19.5 -53.5z" />
    <glyph glyph-name="percent" unicode="%" horiz-adv-x="780" 
d="M50 379c0 56 12.3311 98.5 36.998 127.5s57 43.5 97 43.5c38.667 0 69.334 -14.5 92.001 -43.5s34 -69.5 34 -121.5c0 -58 -12.167 -101.667 -36.5 -131s-56.166 -44 -95.499 -44c-38 0 -68.833 14.667 -92.5 44s-35.5 71 -35.5 125zM105.998 382
c0 -41.333 6.16699 -72.5 18.5 -93.5s30.833 -31.5 55.5 -31.5c24 0 42.333 10.5 55 31.5s19 52.167 19 93.5c0 40.667 -5.83301 71 -17.5 91s-30.5 30 -56.5 30c-24 0 -42.333 -9.5 -55 -28.5s-19 -49.833 -19 -92.5zM604.998 550l-370 -550h-60l370 550h60zM469.998 170
c0 56 12.3311 98.5 36.998 127.5s57 43.5 97 43.5c38.667 0 69.334 -14.5 92.001 -43.5s34 -69.5 34 -121.5c0 -58 -12.167 -101.667 -36.5 -131s-56.166 -44 -95.499 -44c-38 0 -68.833 14.667 -92.5 44s-35.5 71 -35.5 125zM525.996 173
c0 -41.333 6.16699 -72.5 18.5 -93.5s30.833 -31.5 55.5 -31.5c24 0 42.333 10.5 55 31.5s19 52.167 19 93.5c0 40.667 -5.83301 71 -17.5 91s-30.5 30 -56.5 30c-24 0 -42.333 -9.5 -55 -28.5s-19 -49.833 -19 -92.5z" />
    <glyph glyph-name="ampersand" unicode="&#x26;" horiz-adv-x="540" 
d="M410 280l-50 -0.00195312v50h160v-50h-58c-3.33301 -64 -18.666 -121 -45.999 -171c21.333 -22 39.333 -38.167 54 -48.5s29.334 -15.5 44.001 -15.5c9.33301 0 18 0.666992 26 2v-47c-12 -3.33301 -24.333 -5 -37 -5c-19.333 0 -37.5 4.66699 -54.5 14
s-39.5 27.333 -67.5 54c-44.667 -48.667 -98.334 -73 -161.001 -73c-51.333 0 -93 14.833 -125 44.5s-48 65.834 -48 108.501c0 64 34.333 116 103 156c-40 45.333 -60 86.666 -60 123.999s12.167 67.833 36.5 91.5s56.166 35.5 95.499 35.5c37.333 0 68 -10.167 92 -30.5
s36 -47.166 36 -80.499c0 -28 -9.16699 -53.5 -27.5 -76.5s-47.5 -46.5 -87.5 -70.5c10.667 -12 22.667 -24.833 36 -38.5l39 -40.5l68 -67c20 40.667 30.667 85.334 32 134.001zM110 154.998c0 -34 10.833 -61.667 32.5 -83s50.167 -32 85.5 -32c44 0 83 18.667 117 56
l-74 72.5c-28 27.667 -58.333 59.834 -91 96.501c-46.667 -26.667 -70 -63.334 -70 -110.001zM292 434.998c0 20.667 -6.66699 36.667 -20 48s-30.666 17 -51.999 17s-38.5 -6 -51.5 -18s-19.5 -29.667 -19.5 -53c0 -31.333 18.667 -66 56 -104
c29.333 16 51.166 33 65.499 51s21.5 37.667 21.5 59z" />
    <glyph glyph-name="quotesingle" unicode="'" horiz-adv-x="150" 
d="M42 540h66l-13 -180h-40z" />
    <glyph glyph-name="parenleft" unicode="(" horiz-adv-x="270" 
d="M110 243c0 -140.667 46.667 -261.667 140 -363h-58c-97.333 108 -145.666 227.667 -144.999 359c-0.666992 130.667 47.666 251 144.999 361h58c-93.333 -100.667 -140 -219.667 -140 -357z" />
    <glyph glyph-name="parenright" unicode=")" horiz-adv-x="270" 
d="M160 239c0 140 -46.667 260.333 -140 361h58c97.333 -110 145.666 -229 144.999 -357c0.666992 -134 -47.666 -255 -144.999 -363h-58c93.333 101.333 140 221 140 359z" />
    <glyph glyph-name="asterisk" unicode="*" horiz-adv-x="360" 
d="M216 570l-9 -112l106 42l17 -60l-109 -23l74 -89l-50 -38l-60 99l-60 -98l-49 38l72 88l-109 24l19 59l104 -41l-8 111h62z" />
    <glyph glyph-name="plus" unicode="+" horiz-adv-x="390" 
d="M222 50h-54v133h-138v54h138v133h54v-133h138v-54h-138v-133z" />
    <glyph glyph-name="comma" unicode="," horiz-adv-x="210" 
d="M109 118c30.667 -28.667 46 -58.666 46 -89.999c0 -43.333 -25.333 -87.333 -76 -132l-31 29c28.667 27.333 42.667 53.666 42 78.999c0 20 -12.667 41.667 -38 65z" />
    <glyph glyph-name="hyphen" unicode="-" horiz-adv-x="210" 
d="M30 230h150v-50h-150v50z" />
    <glyph glyph-name="period" unicode="." horiz-adv-x="180" 
d="M50 39c0 16 4.50098 28.833 13.501 38.5s21.167 14.5 36.5 14.5s27.5 -4.83301 36.5 -14.5s13.5 -21.167 13.5 -34.5c0 -16.667 -4.66699 -29.667 -14 -39s-22 -14 -38 -14c-14.667 0 -26.334 4.66699 -35.001 14s-13 21 -13 35z" />
    <glyph glyph-name="slash" unicode="/" horiz-adv-x="240" 
d="M200 540h52l-212 -660h-52z" />
    <glyph glyph-name="zero" unicode="0" 
d="M40 224c0 74 15.835 131.832 47.502 173.499s74.167 62.5 127.5 62.5c49.333 0 89.166 -20.167 119.499 -60.5s45.5 -96.833 45.5 -169.5c0 -72 -15.5 -130 -46.5 -174s-72.833 -66 -125.5 -66c-50.667 0 -91.334 21.333 -122.001 64s-46 99.334 -46 170.001z
M103.002 227.999c0 -60.667 9.49902 -107.167 28.499 -139.5s44.833 -48.5 77.5 -48.5c34.667 0 61.334 16.5 80.001 49.5s28 79.833 28 140.5c0 58 -8.83301 102.5 -26.5 133.5s-44.167 46.5 -79.5 46.5c-34 0 -60.5 -15.167 -79.5 -45.5s-28.5 -75.833 -28.5 -136.5z" />
    <glyph glyph-name="one" unicode="1" horiz-adv-x="240" 
d="M110 0v400h-70v50h130v-450h-60z" />
    <glyph glyph-name="two" unicode="2" horiz-adv-x="360" 
d="M330 110v-110.001h-300v45c62.667 50.667 115 102.167 157 154.5s63 96.5 63 132.5c0 24 -5.66699 43 -17 57s-32.333 21 -63 21c-26 0 -52 -5.66699 -78 -17v-73h-52v102c46 25.333 91.667 38 137 38c44 0 77.667 -10.833 101 -32.5s35 -51.5 35 -89.5
c0 -43.333 -21.167 -91.666 -63.5 -144.999s-88.833 -100.333 -139.5 -141v-2h168v60h52z" />
    <glyph glyph-name="three" unicode="3" horiz-adv-x="360" 
d="M10 -32c38 -11.333 76.667 -17 116 -17c46 0 81 9.16699 105 27.5s36 45.833 36 82.5c0 34.667 -11.5 60 -34.5 76s-57.5 24 -103.5 24h-29v49h20c40 0 71.167 10 93.5 30s33.5 47.667 33.5 83c0 28 -7.66699 49.5 -23 64.5s-39.333 22.5 -72 22.5
c-29.333 0 -56 -5 -80 -15v-65h-52v95c44 23.333 89.333 35 136 35c48 0 85.667 -12.333 113 -37s41 -56.667 41 -96c0 -59.333 -32 -103.666 -96 -132.999v-2c77.333 -16.667 116 -60.334 116 -131.001c0 -23.333 -4.5 -44.833 -13.5 -64.5s-22.167 -36.667 -39.5 -51
s-39 -25.5 -65 -33.5s-55.667 -12 -89 -12c-40 0 -77.667 5.33301 -113 16v52z" />
    <glyph glyph-name="four" unicode="4" 
d="M270 60h-250v44l261 346h49v-340h60v-50h-60v-120h-60v120zM87 110h183v242h-2l-181 -240v-2z" />
    <glyph glyph-name="five" unicode="5" horiz-adv-x="390" 
d="M40 -36c32.667 -8.66699 65.667 -13.001 99 -13.001c46.667 0 83 10.5 109 31.5s39 53.167 39 96.5c0 39.333 -12.833 69.333 -38.5 90s-65.5 31 -119.5 31c-24.667 0 -51 -1.33301 -79 -4v254h272v-110h-52v60h-165v-152c14 1.33301 26.667 2 38 2
c62 0 112 -14.167 150 -42.5s57 -69.833 57 -124.5c0 -53.333 -19 -97.166 -57 -131.499s-90 -51.5 -156 -51.5c-34.667 0 -67 3.66699 -97 11v53z" />
    <glyph glyph-name="six" unicode="6" 
d="M350 495c-22 3.33301 -40.332 4.99902 -54.999 4.99902c-62.667 0 -109.834 -19.5 -141.501 -58.5s-48.5 -94.167 -50.5 -165.5l2 -1c35.333 36.667 78.333 55 129 55c46 0 83.5 -14.667 112.5 -44s43.5 -66 43.5 -110c0 -49.333 -15.667 -91 -47 -125
s-72.333 -51 -123 -51c-56 0 -100 21.833 -132 65.5s-48 105.834 -48 186.501c0 92 22.5 164.667 67.5 218s107.5 80 187.5 80c16 0 34.333 -1.66699 55 -5v-50zM103.001 226.999c3.33301 -52 14.8311 -94.501 34.498 -127.501s47.834 -49.5 84.501 -49.5
c30.667 0 55.834 10.333 75.501 31s29.5 49.334 29.5 86.001c0 34 -9.16699 61.333 -27.5 82s-43.833 31 -76.5 31c-45.333 0 -85.333 -17.667 -120 -53z" />
    <glyph glyph-name="seven" unicode="7" horiz-adv-x="360" 
d="M110 -90c2 42 8.83105 85 20.498 129s25.834 87.167 42.501 129.5s35 83 55 122s39.667 74.833 59 107.5l-1 2h-204v-67h-52v117h320v-43c-23.333 -38 -45.166 -77 -65.499 -117s-38.333 -80.667 -54 -122s-28.167 -83.5 -37.5 -126.5s-14.333 -86.833 -15 -131.5h-68z
" />
    <glyph glyph-name="eight" unicode="8" 
d="M145 285v2c-65.333 32.667 -98 74.334 -98 125.001c0 41.333 15.833 74.666 47.5 99.999s72.167 38 121.5 38c48.667 0 87 -11.667 115 -35s42 -54.333 42 -93c0 -52 -34.667 -95.667 -104 -131v-2c38.667 -20 67.334 -41.667 86.001 -65s28 -49.666 28 -78.999
c0 -41.333 -16.333 -75.833 -49 -103.5s-75.334 -41.5 -128.001 -41.5c-51.333 0 -92.333 12.667 -123 38s-46 58.333 -46 99c0 61.333 36 110.666 108 147.999zM189 263c-59.333 -30 -89 -71 -89 -123c0 -30 10 -52.5 30 -67.5s46 -22.5 78 -22.5c34 0 61.167 8 81.5 24
s30.5 36.667 30.5 62s-10.5 47.5 -31.5 66.5s-54.167 39.167 -99.5 60.5zM227 312c57.333 31.333 85.999 67.332 85.999 107.999c0 26.667 -9.5 46.667 -28.5 60s-43.5 20 -73.5 20s-54.833 -6.66699 -74.5 -20s-29.5 -31.666 -29.5 -54.999
c0 -13.333 3.16699 -25.166 9.5 -35.499s14.833 -19.833 25.5 -28.5s23.334 -16.834 38.001 -24.501z" />
    <glyph glyph-name="nine" unicode="9" 
d="M70 -45c21.333 -3.33301 39.665 -4.99707 54.998 -4.99707c62 0 109 20.167 141 60.5s49 97.833 51 172.5l-2 1c-35.333 -36 -78.333 -54 -129 -54c-46 0 -83.5 14.667 -112.5 44s-43.5 66.666 -43.5 111.999c0 49.333 15.667 90.666 47 123.999s72.333 50 123 50
c56.667 0 100.834 -21.833 132.501 -65.5s47.5 -105.834 47.5 -186.501c0 -94.667 -22.667 -169.667 -68 -225s-107.666 -83 -186.999 -83c-16 0 -34.333 1.66699 -55 5v50zM316.999 233.003c-3.33301 52 -14.8311 94.501 -34.498 127.501s-47.834 49.5 -84.501 49.5
c-30.667 0 -55.834 -10.333 -75.501 -31s-29.5 -49.334 -29.5 -86.001c0 -34 9.16699 -61.333 27.5 -82s43.833 -31 76.5 -31c44.667 0 84.667 17.667 120 53z" />
    <glyph glyph-name="colon" unicode=":" horiz-adv-x="210" 
d="M60 39c0 16 4.50098 28.833 13.501 38.5s21.167 14.5 36.5 14.5s27.5 -4.83301 36.5 -14.5s13.5 -21.167 13.5 -34.5c0 -16.667 -4.66699 -29.667 -14 -39s-22 -14 -38 -14c-14.667 0 -26.334 4.66699 -35.001 14s-13 21 -13 35zM60.001 337
c0 16 4.50098 28.833 13.501 38.5s21.167 14.5 36.5 14.5s27.5 -4.83301 36.5 -14.5s13.5 -21.167 13.5 -34.5c0 -16.667 -4.66699 -29.667 -14 -39s-22 -14 -38 -14c-14.667 0 -26.334 4.66699 -35.001 14s-13 21 -13 35z" />
    <glyph glyph-name="semicolon" unicode=";" horiz-adv-x="210" 
d="M60 337c0 16 4.50098 28.833 13.501 38.5s21.167 14.5 36.5 14.5s27.5 -4.83301 36.5 -14.5s13.5 -21.167 13.5 -34.5c0 -16.667 -4.66699 -29.667 -14 -39s-22 -14 -38 -14c-14.667 0 -26.334 4.66699 -35.001 14s-13 21 -13 35zM119.001 118
c30.667 -28.667 46 -58.666 46 -89.999c0 -43.333 -25.333 -87.333 -76 -132l-31 29c28.667 27.333 42.667 53.666 42 78.999c0 20 -12.667 41.667 -38 65z" />
    <glyph glyph-name="less" unicode="&#x3c;" horiz-adv-x="390" 
d="M97 209l263 -92v-57l-330 123v54l330 123v-55l-263 -94v-2z" />
    <glyph glyph-name="equal" unicode="=" horiz-adv-x="390" 
d="M30 246v54h330v-54h-330zM30 120v54h330v-54h-330z" />
    <glyph glyph-name="greater" unicode="&#x3e;" horiz-adv-x="390" 
d="M293 211l-263 94v55l330 -123v-54l-330 -123v57l263 92v2z" />
    <glyph glyph-name="question" unicode="?" horiz-adv-x="300" 
d="M60 537c26 8.66699 52.999 13 80.999 13c40.667 0 74.334 -11.667 101.001 -35s40 -55 40 -95c0 -29.333 -6 -54 -18 -74s-29 -38.667 -51 -56c-22 -18 -38.5 -34.167 -49.5 -48.5s-16.5 -31.5 -16.5 -51.5c0 -12 2 -25.333 6 -40h-44c-7.33301 20 -11 40 -11 60
c0 22.667 5.16699 42.5 15.5 59.5s24.833 32.833 43.5 47.5c18 14.667 33 29 45 43s18 33.333 18 58c0 26 -8.16699 45.667 -24.5 59s-37.833 20 -64.5 20c-21.333 0 -45 -4 -71 -12v52zM79.999 39c0 16 4.50098 28.833 13.501 38.5s21.167 14.5 36.5 14.5
s27.5 -4.83301 36.5 -14.5s13.5 -21.167 13.5 -34.5c0 -16.667 -4.66699 -29.667 -14 -39s-22 -14 -38 -14c-14.667 0 -26.334 4.66699 -35.001 14s-13 21 -13 35z" />
    <glyph glyph-name="at" unicode="@" horiz-adv-x="660" 
d="M480 -124c-48.667 -17.333 -98.666 -25.999 -149.999 -25.999c-85.333 0 -153.333 27.167 -204 81.5s-76 126.166 -76 215.499c0 94.667 28.167 173.834 84.5 237.501s128.833 95.5 217.5 95.5c80.667 0 145.5 -26.5 194.5 -79.5s73.5 -118.833 73.5 -197.5
c0 -60 -14 -110.5 -42 -151.5s-62.667 -61.5 -104 -61.5c-24.667 0 -44.834 7.5 -60.501 22.5s-23.5 36.833 -23.5 65.5h-1c-24.667 -58.667 -59 -88 -103 -88c-28 0 -50.167 12.667 -66.5 38s-24.5 57.666 -24.5 96.999c0 58 14.5 106.667 43.5 146s68.5 59 118.5 59
c30 0 63.333 -6 100 -18l-10 -137c-4 -39.333 -6 -69.333 -6 -90c0 -29.333 11 -44 33 -44c25.333 0 46.333 15.5 63 46.5s25 69.5 25 115.5c0 66.667 -19.833 120.667 -59.5 162s-90.167 62 -151.5 62c-69.333 0 -126.833 -25.833 -172.5 -77.5
s-68.5 -117.167 -68.5 -196.5c0 -76.667 20.333 -137.167 61 -181.5s95 -66.5 163 -66.5c46 0 94.667 8.66699 146 26v-55zM397.001 278.001c-13.333 4 -27.666 6.00098 -42.999 6.00098c-28.667 0 -51.5 -14.833 -68.5 -44.5s-25.5 -66.5 -25.5 -110.5
c0 -27.333 3.16699 -48.5 9.5 -63.5s16.833 -22.5 31.5 -22.5c23.333 0 43.166 18.167 59.499 54.5s26.5 74.166 30.5 113.499z" />
    <glyph glyph-name="A" unicode="A" horiz-adv-x="480" 
d="M160 50v-50h-160v50h50l161 495h58l164 -495h47v-50h-160v50h50l-49 150h-167l-47 -150h53zM235 460l-66 -210h136l-68 210h-2z" />
    <glyph glyph-name="B" unicode="B" horiz-adv-x="450" 
d="M307 292c35.333 -8.66699 61.332 -25 77.999 -49s25 -52.333 25 -85c0 -49.333 -16.167 -88 -48.5 -116s-82.166 -42 -149.499 -42h-182v50h60v440h-60v50h183c60 0 104.333 -11 133 -33s43 -53.667 43 -95c0 -28 -6.5 -52.167 -19.5 -72.5s-33.833 -35.5 -62.5 -45.5v-2
zM213.999 50c44.667 0 77.833 8.16699 99.5 24.5s32.5 44.166 32.5 83.499c0 34.667 -10.167 60.334 -30.5 77.001s-52.5 25 -96.5 25h-69v-210h64zM213.998 310c74.667 0 112.001 31.001 112.001 93.001c0 31.333 -9.33301 53.666 -28 66.999s-48.334 20 -89.001 20h-59
v-180h64z" />
    <glyph glyph-name="C" unicode="C" horiz-adv-x="450" 
d="M420 30c-49.333 -26.667 -99.334 -40 -150.001 -40c-71.333 0 -127.5 24.833 -168.5 74.5s-61.5 118.167 -61.5 205.5c0 86.667 21 155 63 205s98 75 168 75c48.667 0 98.334 -10.667 149.001 -32v-118h-55v79c-26.667 10.667 -58.667 16 -96 16
c-53.333 0 -94.333 -18.167 -123 -54.5s-43 -91.833 -43 -166.5c0 -78 15 -135.667 45 -173s71.667 -56 125 -56c44.667 0 93.667 13.333 147 40v-55z" />
    <glyph glyph-name="D" unicode="D" horiz-adv-x="510" 
d="M30 50h60v440h-60v50h179c86.667 0 150.667 -21.5 192 -64.5s62 -106.833 62 -191.5c0 -93.333 -23.5 -164 -70.5 -212s-114.167 -72 -201.5 -72h-161v50zM150 50l48 -0.000976562c64.667 0 114.5 18.333 149.5 55s52.5 94.334 52.5 173.001c0 73.333 -16 127 -48 161
s-83.333 51 -154 51h-48v-440z" />
    <glyph glyph-name="E" unicode="E" 
d="M337 50v70h53v-120h-360v50h60v440h-60v50h350v-120h-53v70h-177v-190h100v50h50v-160h-50v60h-100v-200h187z" />
    <glyph glyph-name="F" unicode="F" horiz-adv-x="390" 
d="M150 240v-190h70v-50h-190v50h60v440h-60v50h350v-120h-53v70h-177v-200h110v50h50v-160h-50v60h-110z" />
    <glyph glyph-name="G" unicode="G" horiz-adv-x="510" 
d="M310 250h170v-50h-40v-175c-50 -23.333 -102 -35 -156 -35c-77.333 0 -137.333 24.833 -180 74.5s-64 118.167 -64 205.5c0 86.667 22 155 66 205s103 75 177 75c51.333 0 103.666 -10.667 156.999 -32v-128h-55v89c-29.333 10.667 -64 16 -104 16
c-57.333 0 -101.333 -18.167 -132 -54.5s-46 -91.833 -46 -166.5c0 -78 16 -135.667 48 -173s77 -56 135 -56c30.667 0 62.334 4.66699 95.001 14v141h-71v50z" />
    <glyph glyph-name="H" unicode="H" horiz-adv-x="570" 
d="M30 50h60v440h-60v50h180v-50h-60v-190h270v190h-60v50h180v-50h-60v-440h60v-50h-180v50h60v200h-270v-200h60v-50h-180v50z" />
    <glyph glyph-name="I" unicode="I" horiz-adv-x="240" 
d="M30 50h60v440h-60v50h180v-50h-60v-440h60v-50h-180v50z" />
    <glyph glyph-name="J" unicode="J" horiz-adv-x="240" 
d="M6 -95c8.66699 -0.666992 16.667 -1 24 -1c22 0 37.5 5 46.5 15s13.5 30.333 13.5 61v510h-60v50h180v-50h-60v-503c0 -44.667 -8.5 -78.667 -25.5 -102s-46.5 -35 -88.5 -35c-10 0 -20 1 -30 3v52z" />
    <glyph glyph-name="K" unicode="K" horiz-adv-x="480" 
d="M300 490v50h160v-50h-50l-184 -204l193 -236h61v-50h-180v50h41v2l-186 229l187 207v2h-42zM30 50h60v440h-60v50h180v-50h-60v-440h60v-50h-180v50z" />
    <glyph glyph-name="L" unicode="L" horiz-adv-x="390" 
d="M210 490h-60v-440h167v70h53v-120h-340v50h60v440h-60v50h180v-50z" />
    <glyph glyph-name="M" unicode="M" horiz-adv-x="690" 
d="M539 453l-175 -458h-46l-174 449h-2l-10 -394h48v-50h-160v50h57l13 440h-59v50h140l173 -447h2l170 447h141v-50h-57l11 -440h59v-50h-170v50h51l-10 403h-2z" />
    <glyph glyph-name="N" unicode="N" horiz-adv-x="540" 
d="M394 490h-60v50h176v-50h-60v-490h-58l-244 421h-2v-371h60v-50h-176v50h60v440h-60v50h120l242 -416h2v366z" />
    <glyph glyph-name="O" unicode="O" horiz-adv-x="510" 
d="M47 271c0 86.667 19.168 154.834 57.501 204.501s90.166 74.5 155.499 74.5c64 0 113.833 -24 149.5 -72s53.5 -114.667 53.5 -200c0 -90.667 -19.167 -161.334 -57.5 -212.001s-89.5 -76 -153.5 -76c-62 0 -111.667 24.833 -149 74.5s-56 118.5 -56 206.5zM110.001 274
c0 -74.667 12.832 -131.5 38.499 -170.5s61.167 -58.5 106.5 -58.5s80.833 19.5 106.5 58.5s38.5 96.167 38.5 171.5c0 72.667 -12.167 127.5 -36.5 164.5s-59.833 55.5 -106.5 55.5c-47.333 0 -83.666 -18 -108.999 -54s-38 -91.667 -38 -167z" />
    <glyph glyph-name="P" unicode="P" 
d="M150 220l0.000976562 -169.999h70v-50h-190v50h60v440h-60v50h181c58.667 0 102 -12.833 130 -38.5s42 -62.834 42 -111.501c0 -55.333 -15.833 -97.5 -47.5 -126.5s-77.834 -43.5 -138.501 -43.5h-47zM200.001 270.001c38.667 0 68.333 8.83301 89 26.5s31 46.5 31 86.5
c0 40.667 -9.33301 68.667 -28 84s-47.667 23 -87 23h-55v-220h50z" />
    <glyph glyph-name="Q" unicode="Q" horiz-adv-x="510" 
d="M47 271c0 86.667 19.332 154.833 57.999 204.5s90.334 74.5 155.001 74.5c63.333 0 113 -24 149 -72s54 -114.667 54 -200c0 -79.333 -14 -142.333 -42 -189s-62.667 -76 -104 -88v-2c17.333 -31.333 40 -55.333 68 -72s58.667 -25 92 -25c32 0 63 6.33301 93 19v-51
c-31.333 -13.333 -64.666 -20 -99.999 -20c-46 0 -88.5 12.833 -127.5 38.5s-70.5 59.5 -94.5 101.5c-60.667 2 -109.334 27.5 -146.001 76.5s-55 117.167 -55 204.5zM109.999 273.999c0 -74.667 12.832 -131.5 38.499 -170.5s61.167 -58.5 106.5 -58.5
s80.833 19.5 106.5 58.5s38.5 96.167 38.5 171.5c0 72.667 -12 127.5 -36 164.5s-59.667 55.5 -107 55.5s-83.666 -18 -108.999 -54s-38 -91.667 -38 -167z" />
    <glyph glyph-name="R" unicode="R" horiz-adv-x="450" 
d="M150 50l60 0.000976562v-50h-180v50h60v440h-53v50h174c62 0 107.333 -11.333 136 -34s43 -56.334 43 -101.001c0 -79.333 -42 -128 -126 -146v-2c9.33301 -5.33301 19.333 -13.5 30 -24.5s24 -31.5 40 -61.5l66 -121h50v-50h-96c-8 18 -15.667 34 -23 48l-21 39l-37 69
c-13.333 23.333 -24 41 -32 53s-17 22 -27 30c-10 7.33301 -23 11 -39 11h-25v-200zM198 300.001c42.667 0 74.833 7.83203 96.5 23.499s32.5 40.834 32.5 75.501c0 34 -9.83301 57.667 -29.5 71s-50.5 20 -92.5 20h-55v-190h48z" />
    <glyph glyph-name="S" unicode="S" horiz-adv-x="390" 
d="M177 -10c-50.667 0 -97.665 9.33301 -140.998 28v112h54v-74c23.333 -8.66699 54 -13 92 -13c36.667 0 65.167 8.5 85.5 25.5s30.5 40.167 30.5 69.5c0 15.333 -2.83301 28.5 -8.5 39.5s-13.334 20.667 -23.001 29s-21.834 16 -36.501 23s-31.334 14.167 -50.001 21.5
c-18 6.66699 -35.833 13.834 -53.5 21.501s-33.667 17.167 -48 28.5s-26 25.666 -35 42.999s-13.5 38 -13.5 62c0 43.333 16 78.166 48 104.499s75.333 39.5 130 39.5c48 0 92 -10 132 -30v-110h-54v72c-24 10 -51.667 15 -83 15c-36.667 0 -64.334 -8.66699 -83.001 -26
s-28 -38 -28 -62c0 -14.667 2.83301 -27.167 8.5 -37.5s13.667 -19.5 24 -27.5s23 -15 38 -21l50.5 -20c18.667 -7.33301 36.834 -15.166 54.501 -23.499s33.334 -18.333 47.001 -30s24.667 -26 33 -43s12.5 -38.5 12.5 -64.5c0 -46 -16.5 -82.833 -49.5 -110.5
s-77.5 -41.5 -133.5 -41.5z" />
    <glyph glyph-name="T" unicode="T" 
d="M110 50h70v440h-110v-80h-53v130h386v-130h-53v80h-110v-440h70v-50h-200v50z" />
    <glyph glyph-name="U" unicode="U" horiz-adv-x="540" 
d="M140 173c0 -42 11.666 -73.833 34.999 -95.5s54.666 -32.5 93.999 -32.5c42.667 0 75.834 11.333 99.501 34s35.5 55 35.5 97v314h-61v50h177v-50h-60v-311c0 -56 -17.167 -101.5 -51.5 -136.5s-81.166 -52.5 -140.499 -52.5c-57.333 0 -103 16.5 -137 49.5
s-51 77.167 -51 132.5v318h-60v50h180v-50h-60v-317z" />
    <glyph glyph-name="V" unicode="V" horiz-adv-x="480" 
d="M245 80l126 410h-51v50h160v-50h-52l-159 -495h-58l-162 495h-49v50h160v-50h-48l131 -410h2z" />
    <glyph glyph-name="W" unicode="W" horiz-adv-x="720" 
d="M490 80l121 410h-51v50h160v-50h-52l-154 -495h-58l-96 293h-2l-94 -293h-58l-157 495h-49v50h160v-50h-48l126 -410h2l93 289l-40 121h-53v50h170v-50h-57l135 -410h2z" />
    <glyph glyph-name="X" unicode="X" horiz-adv-x="450" 
d="M64 490h-54v50h170v-50h-48l98 -162l100 162h-50v50h160v-50h-49l-133 -208l142 -232h50v-50h-170v50h51l-113 185l-109 -185h51v-50h-160v50h48l143 230z" />
    <glyph glyph-name="Y" unicode="Y" horiz-adv-x="480" 
d="M210 240l-164 250h-46v50h160v-50h-46l130 -198l126 198h-50v50h160v-50h-47l-163 -250v-190h70v-50h-200v50h70v190z" />
    <glyph glyph-name="Z" unicode="Z" horiz-adv-x="450" 
d="M30 45l293 445h-230v-70h-53v120h360v-45l-293 -445h250v70h53v-120h-380v45z" />
    <glyph glyph-name="bracketleft" unicode="[" horiz-adv-x="240" 
d="M60 600h140v-50h-85v-620h85v-50h-140v720z" />
    <glyph glyph-name="backslash" unicode="\" horiz-adv-x="240" 
d="M252 -120h-52l-212 660h52z" />
    <glyph glyph-name="bracketright" unicode="]" horiz-adv-x="240" 
d="M180 -120h-140v50h85v620h-85v50h140v-720z" />
    <glyph glyph-name="asciicircum" unicode="^" horiz-adv-x="360" 
d="M179 480l-94 -210h-58l131 275h45l131 -275h-58l-95 210h-2z" />
    <glyph glyph-name="underscore" unicode="_" horiz-adv-x="300" 
d="M-10 -45h320v-45h-320v45z" />
    <glyph glyph-name="grave" unicode="`" horiz-adv-x="180" 
d="M150 430h-46l-80 120h70z" />
    <glyph glyph-name="a" unicode="a" horiz-adv-x="390" 
d="M60 361c46 26 93.002 39.001 141.002 39.001c41.333 0 73.166 -9.5 95.499 -28.5s33.5 -49.167 33.5 -90.5v-231h50v-50h-104l-3 45l-2 1c-32 -37.333 -71.333 -56 -118 -56c-34.667 0 -62.167 10.167 -82.5 30.5s-30.5 46.166 -30.5 77.499c0 42 18.167 73.333 54.5 94
s89.166 31 158.499 31h17v59c0 24.667 -5.83301 42.167 -17.5 52.5s-31.167 15.5 -58.5 15.5c-32.667 0 -60 -5.33301 -82 -16v-54h-52v81zM246.002 180.001c-46 0 -81.333 -5.83301 -106 -17.5s-37 -32.167 -37 -61.5c0 -21.333 6 -36.833 18 -46.5s27.333 -14.5 46 -14.5
c40 0 74.333 16.333 103 49v91h-24z" />
    <glyph glyph-name="b" unicode="b" 
d="M135 46c20 -4 39.666 -6 58.999 -6c40 0 70.5 12.333 91.5 37s31.5 64 31.5 118c0 48 -8.16699 85.833 -24.5 113.5s-41.166 41.5 -74.499 41.5c-29.333 0 -57 -11 -83 -33v-271zM134.999 365l2.00195 -1c28 24 61 36 99 36c43.333 0 78.166 -18.333 104.499 -55
s39.5 -83.667 39.5 -141c0 -66.667 -16.833 -119 -50.5 -157s-79.834 -57 -138.501 -57c-38 0 -76.667 6.33301 -116 19v541h-50v50h110v-235z" />
    <glyph glyph-name="c" unicode="c" horiz-adv-x="360" 
d="M320 15c-32 -16.667 -67 -25.001 -105 -25.001c-54 0 -96.667 17.333 -128 52s-47 84.334 -47 149.001c0 65.333 16.5 116.5 49.5 153.5s75.833 55.5 128.5 55.5c36.667 0 70.667 -7.66699 102 -23v-97h-53v61c-14.667 6 -32.667 9 -54 9
c-37.333 0 -65 -11.833 -83 -35.5s-27 -61.167 -27 -112.5c0 -54.667 9.66699 -95 29 -121s47.333 -39 84 -39c36 0 70.667 9 104 27v-54z" />
    <glyph glyph-name="d" unicode="d" 
d="M230 550l0.000976562 50h120v-550h50v-50h-107l-3 34l-2 1c-28 -30 -61.333 -45 -100 -45c-45.333 0 -81.333 18.333 -108 55s-40 84.667 -40 144c0 62.667 16 113.5 48 152.5s73.333 58.5 124 58.5c25.333 0 50.666 -6 75.999 -18l2 1v167h-60zM290.001 336
c-24.667 9.33301 -49.667 14.001 -75 14.001c-38 0 -66.167 -12.5 -84.5 -37.5s-27.5 -63.833 -27.5 -116.5c0 -50.667 8.16699 -89.334 24.5 -116.001s41.5 -40 75.5 -40c33.333 0 62.333 13.333 87 40v256z" />
    <glyph glyph-name="e" unicode="e" horiz-adv-x="360" 
d="M320 75l0.00195312 -53.998c-33.333 -20.667 -72.333 -31 -117 -31c-52.667 0 -93.834 17.667 -123.501 53s-44.5 84.666 -44.5 147.999c0 65.333 15.667 116.5 47 153.5s70.666 55.5 117.999 55.5c38.667 0 70 -15.333 94 -46s36 -74.334 36 -131.001v-31h-233
c1.33301 -46.667 10.5 -83 27.5 -109s44.167 -39.667 81.5 -41c41.333 0 79.333 11 114 33zM270.002 240.002c0 38 -6.99902 65.833 -20.999 83.5s-33.667 26.5 -59 26.5c-24.667 0 -45.334 -9.16699 -62.001 -27.5s-26.667 -45.833 -30 -82.5h172z" />
    <glyph glyph-name="f" unicode="f" horiz-adv-x="240" 
d="M292 500h-52v54c-10 2 -20 3 -30 3c-24.667 0 -42.5 -6.66699 -53.5 -20s-16.5 -35 -16.5 -65v-82h90v-50h-90v-290h50v-50h-160v50h50v290h-50v50h50v73c0 48 11.5 83.667 34.5 107s54.5 35 94.5 35c26 0 53.667 -5 83 -15v-90z" />
    <glyph glyph-name="g" unicode="g" horiz-adv-x="360" 
d="M40 259c0 41.333 13.0039 75.1689 39.0039 101.502s59.333 39.5 100 39.5c14.667 0 28 -1.66699 40 -5c10.667 -3.33301 22.667 -5 36 -5h95v-48h-57v-1c12.667 -22 19 -46.333 19 -73c0 -44 -12.833 -79.667 -38.5 -107s-58.834 -41 -99.501 -41
c-18.667 0 -35.334 2.66699 -50.001 8c-12.667 -14.667 -19 -28.667 -19 -42c0 -8 2.66699 -14.333 8 -19s13.666 -7 24.999 -7h70c44 0 77.833 -9 101.5 -27s35.5 -44.667 35.5 -80c0 -43.333 -17.333 -78 -52 -104s-78.334 -39 -131.001 -39c-42.667 0 -77 10 -103 30
s-39 45.667 -39 77c0 36 18 69 54 99c-16 13.333 -24 30.666 -24 51.999c0 26.667 14.333 52 43 76c-35.333 27.333 -53 65.666 -53 114.999zM111.004 0.00292969c-20.667 -20 -31.001 -43.333 -31.001 -70c0 -22.667 7.33301 -40.5 22 -53.5s37.334 -19.5 68.001 -19.5
c36 0 64.167 7.5 84.5 22.5s30.5 34.5 30.5 58.5c0 20.667 -6.83301 36.167 -20.5 46.5s-32.5 15.5 -56.5 15.5h-97zM102.003 264.003c0 -30 6.33203 -53.499 18.999 -70.499s31.667 -25.5 57 -25.5c24 0 42 7.66699 54 23s18 38.666 18 69.999
c0 30.667 -6.16699 53.167 -18.5 67.5s-31.166 21.5 -56.499 21.5c-24 0 -42.167 -7 -54.5 -21s-18.5 -35.667 -18.5 -65z" />
    <glyph glyph-name="h" unicode="h" 
d="M70 550h-49.998v50h110v-256h1c36 37.333 77 56 123 56c33.333 0 57.666 -9.5 72.999 -28.5s23 -45.833 23 -80.5v-241h50v-50h-150v50h40v233c0 26.667 -4.66699 44.5 -14 53.5s-22.333 13.5 -39 13.5c-38.667 0 -74.334 -19 -107.001 -57v-243h40v-50h-150v50h50v500z
" />
    <glyph glyph-name="i" unicode="i" horiz-adv-x="210" 
d="M30 50h50v290h-50v50h110v-340h50v-50h-160v50zM63 496c0 14 3.83398 24.834 11.501 32.501s18.167 11.5 31.5 11.5c12.667 0 23 -3.83301 31 -11.5s12 -17.834 12 -30.501c0 -13.333 -4 -23.833 -12 -31.5s-18.667 -11.5 -32 -11.5
c-12.667 0 -22.834 3.83301 -30.501 11.5s-11.5 17.5 -11.5 29.5z" />
    <glyph glyph-name="j" unicode="j" horiz-adv-x="180" 
d="M105 -149c-16 -22 -41.668 -33.001 -77.001 -33.001c-9.33301 0 -18.666 0.666992 -27.999 2v50c5.33301 -0.666992 11 -1 17 -1c20.667 0 34.667 5.33301 42 16s11 29.667 11 57v398h-50v50h110v-439c0 -45.333 -8.33301 -78.666 -25 -99.999zM52.999 495.999
c0 14 3.83398 24.834 11.501 32.501s18.167 11.5 31.5 11.5c12.667 0 23 -3.83301 31 -11.5s12 -17.834 12 -30.501c0 -13.333 -4 -23.833 -12 -31.5s-18.667 -11.5 -32 -11.5c-12.667 0 -22.834 3.83301 -30.501 11.5s-11.5 17.5 -11.5 29.5z" />
    <glyph glyph-name="k" unicode="k" horiz-adv-x="390" 
d="M30 50h50v500h-50v50h110v-550h40v-50h-150v50zM230 390h150v-50h-53l-114 -121l131 -169h46v-50h-155v50h37l1 2l-123 161l117 127h-37v50z" />
    <glyph glyph-name="l" unicode="l" horiz-adv-x="210" 
d="M30 50h50v500h-50v50h110v-550h50v-50h-160v50z" />
    <glyph glyph-name="m" unicode="m" horiz-adv-x="630" 
d="M30 50h50.002v290h-50v50h106l3 -52h1c35.333 41.333 75.666 62 120.999 62c48 0 77 -21 87 -63h2c36 42 77.333 63 124 63c33.333 0 57.666 -9.5 72.999 -28.5s23 -45.833 23 -80.5v-241h50v-50h-150v50h40v233c0 26.667 -4.66699 44.5 -14 53.5s-22.333 13.5 -39 13.5
c-36 0 -70 -18.667 -102 -56v-244h40v-50h-140v50h40v233c0 26.667 -4.5 44.5 -13.5 53.5s-21.5 13.5 -37.5 13.5c-38 0 -72.667 -20.667 -104 -62v-238h40v-50h-150v50z" />
    <glyph glyph-name="n" unicode="n" 
d="M30 50h50.002v290h-50v50h106l3 -52h1c36 41.333 77.333 62 124 62c33.333 0 57.666 -9.5 72.999 -28.5s23 -45.833 23 -80.5v-241h50v-50h-150v50h40v233c0 26.667 -4.66699 44.5 -14 53.5s-22.333 13.5 -39 13.5c-38.667 0 -74.334 -20.667 -107.001 -62v-238h40v-50
h-150v50z" />
    <glyph glyph-name="o" unicode="o" horiz-adv-x="390" 
d="M35 193c0 63.333 15.501 113.668 46.501 151.001s70.167 56 117.5 56s85.166 -17.333 113.499 -52s42.5 -83.334 42.5 -146.001c0 -64 -15 -115.333 -45 -154s-69.333 -58 -118 -58c-48 0 -86.167 18.5 -114.5 55.5s-42.5 86.167 -42.5 147.5zM98.001 202.002
c0 -52.667 8.49902 -92.834 25.499 -120.501s41.5 -41.5 73.5 -41.5c30 0 53.333 12.833 70 38.5s25 64.834 25 117.501c0 102.667 -32.667 154 -98 154c-31.333 0 -55.166 -11.833 -71.499 -35.5s-24.5 -61.167 -24.5 -112.5z" />
    <glyph glyph-name="p" unicode="p" 
d="M132 390l3.00098 -32.001h2c30 28 63.667 42 101 42c42.667 0 77 -17.5 103 -52.5s39 -81.167 39 -138.5c0 -65.333 -15.833 -118.166 -47.5 -158.499s-71.834 -60.5 -120.501 -60.5c-25.333 0 -50.333 6 -75 18l-2 -1v-137h60v-50h-170v50h50v470h-50v50h107z
M135.001 54.999c20 -10 43.332 -15 69.999 -15c35.333 0 62.833 13 82.5 39s29.5 66 29.5 120c0 52 -8.66699 90.167 -26 114.5s-40.666 36.5 -69.999 36.5c-32 0 -60.667 -14.333 -86 -43v-252z" />
    <glyph glyph-name="q" unicode="q" horiz-adv-x="390" 
d="M400 -130v-49.999h-170v50h60v162l-2 1c-27.333 -28.667 -61 -43 -101 -43c-44 0 -79.5 18.333 -106.5 55s-40.5 84 -40.5 142c0 63.333 16 114.666 48 153.999s77.667 59 137 59c36 0 77.667 -7 125 -21v-509h50zM290 341.001c-25.333 6 -49 9 -71 9
c-38.667 0 -67.667 -12.333 -87 -37s-29 -64 -29 -118s9.16699 -93.333 27.5 -118s42.5 -37 72.5 -37c33.333 0 62.333 12.667 87 38v263z" />
    <glyph glyph-name="r" unicode="r" horiz-adv-x="270" 
d="M30 50h49.999v290h-50v50h107l3 -56h2c12.667 21.333 26.667 37 42 47s33.666 15 54.999 15c8 0 15 -0.666992 21 -2v-63c-10 2 -20.333 3 -31 3c-19.333 0 -36.166 -4.5 -50.499 -13.5s-27.166 -23.5 -38.499 -43.5v-227h60v-50h-170v50z" />
    <glyph glyph-name="s" unicode="s" horiz-adv-x="330" 
d="M154 -10c-41.333 0 -79.332 8.00391 -113.999 24.0039v86h52v-52c20 -6 42 -9 66 -9c30 0 51.167 5.16699 63.5 15.5s18.5 24.833 18.5 43.5c0 17.333 -7.33301 31.166 -22 41.499s-37.667 21.166 -69 32.499c-44 16 -74 33.167 -90 51.5s-24 39.833 -24 64.5
c0 32.667 13 59.5 39 80.5s59.333 31.5 100 31.5c37.333 0 72.666 -8 105.999 -24v-86h-52v53c-15.333 6 -34.333 9 -57 9c-25.333 0 -44.333 -5.16699 -57 -15.5s-19 -23.833 -19 -40.5s6.83301 -29.834 20.5 -39.501s35.167 -19.834 64.5 -30.501
c42 -14.667 72.5 -31 91.5 -49s28.5 -42 28.5 -72c0 -34.667 -13.333 -62.5 -40 -83.5s-62 -31.5 -106 -31.5z" />
    <glyph glyph-name="t" unicode="t" horiz-adv-x="240" 
d="M163 -10c-28.667 0 -51.334 7.5 -68.001 22.5s-25 37.167 -25 66.5v261h-50v50h50v90l60 11v-101h90v-50h-90v-251c0 -19.333 3.83301 -32.333 11.5 -39s17.834 -10 30.501 -10c16 0 32 4 48 12v-49c-18 -8.66699 -37 -13 -57 -13z" />
    <glyph glyph-name="u" unicode="u" 
d="M290 340l-50.001 0.000976562v50h110v-340h50v-50h-105l-3 43h-2c-29.333 -35.333 -66.333 -53 -111 -53c-35.333 0 -62.333 9.33301 -81 28s-28 45.667 -28 81v241h-50v50h110v-281c0 -26.667 5.83301 -44.834 17.5 -54.501s27.5 -14.5 47.5 -14.5
c38.667 0 70.334 15.667 95.001 47v253z" />
    <glyph glyph-name="v" unicode="v" horiz-adv-x="390" 
d="M218 -5h-57l-116 345h-45v50h150v-50h-44l87 -268h2l90 268h-45v50h150v-50h-50z" />
    <glyph glyph-name="w" unicode="w" horiz-adv-x="600" 
d="M433 -5h-57l-79 231h-2l-82 -231h-57l-111 345h-45v50h150v-50h-44l82 -268h2l82 224l-15 44h-47v50h160v-50h-54l92 -268h2l85 268h-45v50h150v-50h-50z" />
    <glyph glyph-name="x" unicode="x" horiz-adv-x="360" 
d="M254 338v2h-34v50h135v-50h-47l-99 -137l104 -153h47v-50h-150v50h35v2l-72 106l-74 -106v-2h41v-50h-140v50h45l104 146l-98 144h-46v50h145v-50h-32v-2l67 -98z" />
    <glyph glyph-name="y" unicode="y" horiz-adv-x="390" 
d="M340 340l-129.001 -365.003c-8 -23.333 -16.5 -44.666 -25.5 -63.999s-19.333 -36.166 -31 -50.499s-25.5 -25.166 -41.5 -32.499s-35 -11 -57 -11c-12 0 -24 1 -36 3v55c12.667 -2 25 -3 37 -3c10.667 0 20.5 1.16699 29.5 3.5s17.5 7 25.5 14s16.333 18.667 25 35
s18.334 39.833 29.001 70.5h-5l-116 345h-45v50h150v-50h-44l87 -268h2l91 268h-46v50h150v-50h-50z" />
    <glyph glyph-name="z" unicode="z" horiz-adv-x="360" 
d="M30 43l216 299h-164v-62h-52v110h290v-43l-215 -299h173v62h52v-110h-300v43z" />
    <glyph glyph-name="braceleft" unicode="{" horiz-adv-x="270" 
d="M80 239c24 -6.66699 41.665 -18.332 52.998 -34.999s17 -39.334 17 -68.001v-158c0 -18.667 4.33301 -31.334 13 -38.001s19.334 -10 32.001 -10h35v-50h-35c-33.333 0 -58.333 8 -75 24s-25 41.667 -25 77v156c0 28.667 -6 49 -18 61s-29.333 18 -52 18v48
c22.667 0 40 5.83301 52 17.5s18 31.5 18 59.5v158c0 35.333 8.83301 61 26.5 77s42.834 24 75.501 24h33v-50h-37c-12 0 -22.167 -3.16699 -30.5 -9.5s-12.5 -19.166 -12.5 -38.499v-158c0 -29.333 -5.66699 -52.333 -17 -69s-29 -28 -53 -34v-2z" />
    <glyph glyph-name="bar" unicode="|" horiz-adv-x="240" 
d="M95 610h50v-800h-50v800z" />
    <glyph glyph-name="braceright" unicode="}" horiz-adv-x="270" 
d="M190 241c-24 6 -41.6689 17.3311 -53.002 33.998s-17 39.667 -17 69v158c0 19.333 -4.16699 32.166 -12.5 38.499s-18.5 9.5 -30.5 9.5h-37v50h33c32.667 0 57.834 -8 75.501 -24s26.5 -41.667 26.5 -77v-158c0 -28 6 -47.833 18 -59.5s29.333 -17.5 52 -17.5v-48
c-22.667 0 -40 -6 -52 -18s-18 -32.333 -18 -61v-156c0 -35.333 -8.33301 -61 -25 -77s-41.667 -24 -75 -24h-35v50h35c12.667 0 23.334 3.33301 32.001 10s13 19.334 13 38.001v158c0 28.667 5.66699 51.334 17 68.001s29 28.334 53 35.001v2z" />
    <glyph glyph-name="asciitilde" unicode="~" 
d="M30 215c34 24 68.667 36 104 36c18.667 0 34.667 -2.5 48 -7.5s25.666 -10.167 36.999 -15.5c10.667 -5.33301 21.167 -9.83301 31.5 -13.5s21.833 -5.5 34.5 -5.5c35.333 0 70.333 13.333 105 40v-53c-35.333 -24 -70.666 -36 -105.999 -36c-18 0 -33.5 2.5 -46.5 7.5
s-25.167 10.167 -36.5 15.5c-10.667 5.33301 -21.334 10 -32.001 14s-22.667 6 -36 6c-33.333 0 -67.666 -13.667 -102.999 -41v53z" />
    <glyph glyph-name="uni00A0" unicode="&#xa0;" horiz-adv-x="150" 
 />
    <glyph glyph-name="exclamdown" unicode="&#xa1;" horiz-adv-x="240" 
d="M148 -150h-74l16 390h41zM60 347c0 16 4.50098 28.833 13.501 38.5s21.167 14.5 36.5 14.5s27.5 -4.83301 36.5 -14.5s13.5 -21.167 13.5 -34.5c0 -16.667 -4.66699 -29.667 -14 -39s-22 -14 -38 -14c-14.667 0 -26.334 4.66699 -35.001 14s-13 21 -13 35z" />
    <glyph glyph-name="cent" unicode="&#xa2;" horiz-adv-x="360" 
d="M180 -70l0.000976562 69.9961c-44 5.33301 -78.333 24 -103 56s-37 77.333 -37 136c0 60.667 12.833 107.334 38.5 140.001s59.5 51.667 101.5 57v71h46v-69c20 -1.33301 38.667 -4.16602 56 -8.49902s33.333 -9.83301 48 -16.5v-89h-50v56
c-8 2.66699 -16.5 4.83398 -25.5 6.50098s-18.5 2.83398 -28.5 3.50098v-295c31.333 2 66 13.667 104 35v-53c-32.667 -18.667 -67.334 -29 -104.001 -31v-69h-46zM180.001 340.996c-27.333 -6 -47.167 -20 -59.5 -42s-18.5 -55.333 -18.5 -100c0 -46 6.5 -80.667 19.5 -104
s32.5 -38 58.5 -44v290z" />
    <glyph glyph-name="sterling" unicode="&#xa3;" horiz-adv-x="390" 
d="M40 280l58 0.000976562c-12 52 -18 90 -18 114c0 45.333 14 81 42 107s65.333 39 112 39c41.333 0 80 -9.33301 116 -28v-100h-52v66c-20.667 8 -43 12 -67 12c-29.333 0 -51.833 -7.83301 -67.5 -23.5s-23.5 -38.167 -23.5 -67.5c0 -22.667 6.33301 -62.334 19 -119.001
h131v-45h-123c2 -14 3 -26.333 3 -37c0 -60 -21 -108.667 -63 -146v-2h201v70h52v-120h-320v43c46.667 36 70 86.667 70 152c0 12.667 -1 26 -3 40h-67v45z" />
    <glyph glyph-name="currency" unicode="&#xa4;" horiz-adv-x="450" 
d="M56 10l-44 43.001l77 75c-19.333 29.333 -29 61.333 -29 96c0 37.333 9.66699 69.666 29 96.999l-77 75l42 42l73 -78c29.333 20 62 30 98 30s68 -9.33301 96 -28l75 78l42 -44l-78 -74c20 -28 30 -60.667 30 -98c0 -34.667 -10 -67 -30 -97l77 -75l-42 -43l-75 78
c-27.333 -18 -59 -27 -95 -27s-67.667 9 -95 27zM115 224.001c0 -36 10 -64 30 -84s46.333 -30 79 -30c34 0 61 10 81 30s30 48 30 84s-10 64.333 -30 85s-47 31 -81 31c-32.667 0 -59 -10.333 -79 -31s-30 -49 -30 -85z" />
    <glyph glyph-name="yen" unicode="&#xa5;" 
d="M217 285l103 205h-50v50h150v-50h-46l-106 -205h92v-45h-120v-60h120v-45h-120v-85h60v-50h-180v50h60v85h-119v45h119v60h-119v45h91l-110 205h-42v50h149v-50h-43l109 -205h2z" />
    <glyph glyph-name="brokenbar" unicode="&#xa6;" horiz-adv-x="240" 
d="M90 210h60v-220h-60v220zM90 550h60v-220h-60v220z" />
    <glyph glyph-name="section" unicode="&#xa7;" 
d="M70 424c0 38 13.833 68.5029 41.5 91.5029s65.5 34.5 113.5 34.5c40 0 78.333 -8.33301 115 -25v-95h-52v60c-23.333 6.66699 -46 10 -68 10c-26.667 0 -48.334 -5.33301 -65.001 -16s-25 -26.667 -25 -48c0 -12 2.66699 -22.667 8 -32s12.5 -17.5 21.5 -24.5
s19.333 -13.333 31 -19l37.5 -17.5c15.333 -6.66699 30.666 -14 45.999 -22s29.5 -17.5 42.5 -28.5s23.5 -24 31.5 -39s12 -33.5 12 -55.5c0 -56 -27.667 -96 -83 -120v-2c48.667 -25.333 73 -62 73 -110c0 -38 -13.833 -68.5 -41.5 -91.5s-65.5 -34.5 -113.5 -34.5
c-40 0 -78.333 8.33301 -115 25v95h52v-60c22.667 -6.66699 45.334 -10 68.001 -10c26.667 0 48.334 5.33301 65.001 16s25 26.667 25 48c0 12 -2.83301 22.667 -8.5 32s-13.167 17.666 -22.5 24.999s-19.833 13.833 -31.5 19.5l-35.5 16.5
c-17.333 7.33301 -34 15.166 -50 23.499s-30 18 -42 29s-21.667 24 -29 39s-11 32.5 -11 52.5c0 55.333 28 95.666 84 120.999v2c-49.333 24 -74 60.667 -74 110zM300 186.003c0 14 -2.83398 25.998 -8.50098 35.998s-13.167 18.833 -22.5 26.5s-20.166 14.5 -32.499 20.5
s-29.833 14 -52.5 24c-42.667 -19.333 -64 -49.666 -64 -90.999c0 -13.333 2.66699 -25 8 -35s12.833 -18.667 22.5 -26s20.667 -14 33 -20s29.833 -14 52.5 -24c42.667 18.667 64 48.334 64 89.001z" />
    <glyph glyph-name="dieresis" unicode="&#xa8;" horiz-adv-x="300" 
d="M35 496c0 13.333 4 24.001 12 32.001s18 12 30 12c13.333 0 23.833 -4 31.5 -12s11.5 -18.333 11.5 -31s-3.83301 -22.834 -11.5 -30.501s-18.5 -11.5 -32.5 -11.5c-12 0 -21.833 3.83301 -29.5 11.5s-11.5 17.5 -11.5 29.5zM180 496.001c0 13.333 4 24.001 12 32.001
s18 12 30 12c13.333 0 23.833 -4 31.5 -12s11.5 -18.333 11.5 -31s-3.83301 -22.834 -11.5 -30.501s-18.5 -11.5 -32.5 -11.5c-12 0 -21.833 3.83301 -29.5 11.5s-11.5 17.5 -11.5 29.5z" />
    <glyph glyph-name="copyright" unicode="&#xa9;" horiz-adv-x="630" 
d="M430 135c-35.333 -21.333 -73.334 -32.001 -114.001 -32.001c-51.333 0 -91.833 15.167 -121.5 45.5s-44.5 70.5 -44.5 120.5c0 50.667 14.833 91.334 44.5 122.001s70.167 46 121.5 46c38.667 0 76.667 -9 114 -27v-93h-50v59c-17.333 9.33301 -39 14 -65 14
c-35.333 0 -61.666 -10.167 -78.999 -30.5s-26 -48.833 -26 -85.5c0 -38 9.33301 -68.167 28 -90.5s46 -33.5 82 -33.5c34 0 70.667 11.333 110 34v-49zM39.999 269.999c0 84 25.333 151.667 76 203s116.667 77 198 77s147.666 -25.833 198.999 -77.5s77 -119.167 77 -202.5
c0 -84 -25.667 -151.667 -77 -203s-117.666 -77 -198.999 -77s-147.333 25.667 -198 77s-76 119 -76 203zM89.999 269.999c0 -72.667 19.833 -130 59.5 -172s94.5 -63 164.5 -63s125.167 21 165.5 63s60.5 99.333 60.5 172c0 74 -20.167 131.667 -60.5 173
s-95.5 62 -165.5 62s-124.833 -20.667 -164.5 -62s-59.5 -99 -59.5 -173z" />
    <glyph glyph-name="ordfeminine" unicode="&#xaa;" horiz-adv-x="330" 
d="M50 487c34 15.333 70.001 23.001 108.001 23.001c35.333 0 62 -8.33301 80 -25s27 -41.334 27 -74.001v-144h45v-47h-94l-3 35h-2c-26 -30 -56.667 -45 -92 -45c-26.667 0 -48.167 7.5 -64.5 22.5s-24.5 34.833 -24.5 59.5c0 62 55 93 165 93h15v15
c0 42 -19.667 63 -59 63c-34.667 0 -68.334 -8 -101.001 -24v48zM194.001 345.001c-34.667 0 -61.333 -3.66699 -80 -11s-28 -20.333 -28 -39c0 -12 4.16699 -21.333 12.5 -28s19.833 -10 34.5 -10c31.333 0 57 13.333 77 40v48h-16z" />
    <glyph glyph-name="guillemotleft" unicode="&#xab;" horiz-adv-x="330" 
d="M30 195l85 135h65l-85 -135l85 -135h-65zM150 195l85 135h65l-85 -135l85 -135h-65z" />
    <glyph glyph-name="logicalnot" unicode="&#xac;" horiz-adv-x="390" 
d="M354 50h-54v133h-270v54h324v-187z" />
    <glyph glyph-name="uni00AD" unicode="&#xad;" horiz-adv-x="210" 
d="M30 230h150v-50h-150v50z" />
    <glyph glyph-name="registered" unicode="&#xae;" horiz-adv-x="630" 
d="M265 150l41.001 0.000976562v-46h-136v46h40v240h-40v46h138c45.333 0 78.666 -7.83301 99.999 -23.5s32 -37.834 32 -66.501c0 -24 -6.33301 -44.333 -19 -61s-35 -28 -67 -34v-2c8 -2 16.5 -6.16699 25.5 -12.5s17.833 -16.5 26.5 -30.5l33 -56h41v-46h-82
c-8 16 -16.667 32 -26 48l-24 42c-10.667 19.333 -20.5 32 -29.5 38s-20.833 9 -35.5 9h-18v-91zM296.001 285.001c30 0 51.5 4.33301 64.5 13s19.5 23 19.5 43c0 16.667 -6 29 -18 37s-31.667 12 -59 12h-38v-105h31zM40.001 270.001c0 84 25.333 151.667 76 203
s116.667 77 198 77s147.666 -25.833 198.999 -77.5s77 -119.167 77 -202.5c0 -84 -25.667 -151.667 -77 -203s-117.666 -77 -198.999 -77s-147.333 25.667 -198 77s-76 119 -76 203zM90.001 270.001c0 -72.667 19.833 -130 59.5 -172s94.5 -63 164.5 -63
s125.167 21 165.5 63s60.5 99.333 60.5 172c0 74 -20.167 131.667 -60.5 173s-95.5 62 -165.5 62s-124.833 -20.667 -164.5 -62s-59.5 -99 -59.5 -173z" />
    <glyph glyph-name="macron" unicode="&#xaf;" horiz-adv-x="270" 
d="M30 510h210v-48h-210v48z" />
    <glyph glyph-name="degree" unicode="&#xb0;" horiz-adv-x="300" 
d="M30 425c0 36 11.5 65.833 34.5 89.5s53.167 35.5 90.5 35.5c36.667 0 66.667 -11.833 90 -35.5s35 -53.5 35 -89.5s-11.667 -65.833 -35 -89.5s-53.333 -35.5 -90 -35.5c-37.333 0 -67.5 11.833 -90.5 35.5s-34.5 53.5 -34.5 89.5zM84 425c0 -22 6.66699 -40 20 -54
s30.333 -21 51 -21c22 0 39.5 7 52.5 21s19.5 32 19.5 54s-6.5 39.833 -19.5 53.5s-30.5 20.5 -52.5 20.5c-20.667 0 -37.667 -6.83301 -51 -20.5s-20 -31.5 -20 -53.5z" />
    <glyph glyph-name="plusminus" unicode="&#xb1;" horiz-adv-x="390" 
d="M222 80h-54v103h-138v54h138v103h54v-103h138v-54h-138v-103zM30 3v54h330v-54h-330z" />
    <glyph glyph-name="twosuperior" unicode="&#xb2;" horiz-adv-x="330" 
d="M290 310l0.000976562 -89.999h-250v44c51.333 36 94.833 71 130.5 105s53.5 64.667 53.5 92c0 14 -5.16699 24.667 -15.5 32s-25.833 11 -46.5 11c-22.667 0 -44.334 -4.66699 -65.001 -14v-60h-47v88c38 21.333 78 32 120 32c36.667 0 64.167 -7.33301 82.5 -22
s27.5 -35.334 27.5 -62.001c0 -36 -16.167 -70.5 -48.5 -103.5s-68.833 -64.5 -109.5 -94.5v-2h121v44h47z" />
    <glyph glyph-name="threesuperior" unicode="&#xb3;" horiz-adv-x="330" 
d="M40 275c32 -12.667 65.667 -18.998 101 -18.998c26.667 0 48.834 4.16699 66.501 12.5s26.5 22.166 26.5 41.499c0 16 -7.66699 28.333 -23 37s-41.333 13 -78 13h-23v44h16c32.667 0 56.5 4.66699 71.5 14s22.5 22.666 22.5 39.999c0 13.333 -5.33301 24.333 -16 33
s-28.334 13 -53.001 13c-24 0 -45.333 -3.33301 -64 -10v-44h-47v71c36.667 19.333 75 29 115 29c35.333 0 64 -7.83301 86 -23.5s33 -36.5 33 -62.5c0 -34.667 -18.667 -59 -56 -73v-2c48 -10.667 72 -37 72 -79c0 -32 -13.833 -56.667 -41.5 -74s-62.5 -26 -104.5 -26
c-41.333 0 -76 5.33301 -104 16v49z" />
    <glyph glyph-name="acute" unicode="&#xb4;" horiz-adv-x="180" 
d="M86 550h70l-80 -120h-46z" />
    <glyph glyph-name="uni00B5" unicode="&#xb5;" horiz-adv-x="390" 
d="M50 -180v570h60v-292c14 -38.667 39 -58 75 -58c37.333 0 65.666 19.667 84.999 59v291h60v-340h50v-50h-103l-3 45h-2c-22 -36.667 -50 -55 -84 -55c-35.333 0 -60.666 15 -75.999 45h-2v-215h-60z" />
    <glyph glyph-name="paragraph" unicode="&#xb6;" horiz-adv-x="450" 
d="M180 -150l0.000976562 390c-54 1.33301 -95.833 15.333 -125.5 42s-44.5 64.667 -44.5 114c0 46 14.167 81.5 42.5 106.5s72.166 37.5 131.499 37.5h226v-50h-50v-640h-60v640h-60v-640h-60z" />
    <glyph glyph-name="periodcentered" unicode="&#xb7;" horiz-adv-x="180" 
d="M40 193c0 16 4.50098 28.833 13.501 38.5s21.167 14.5 36.5 14.5s27.5 -4.83301 36.5 -14.5s13.5 -21.167 13.5 -34.5c0 -16.667 -4.66699 -29.667 -14 -39s-22 -14 -38 -14c-14.667 0 -26.334 4.66699 -35.001 14s-13 21 -13 35z" />
    <glyph glyph-name="cedilla" unicode="&#xb8;" horiz-adv-x="210" 
d="M30 -135c12.667 -2.66699 25.667 -3.99805 39 -3.99805c12.667 0 22.667 2.5 30 7.5s11 13.5 11 25.5c0 21.333 -19 32 -57 32l30 82h46l-19 -52c20 -4.66699 34.167 -12.834 42.5 -24.501s12.5 -24.834 12.5 -39.501c0 -23.333 -8.66699 -42 -26 -56s-40 -21 -68 -21
c-13.333 0 -27 1.66699 -41 5v45z" />
    <glyph glyph-name="onesuperior" unicode="&#xb9;" horiz-adv-x="240" 
d="M120 220v273h-60v47h115v-320h-55z" />
    <glyph glyph-name="ordmasculine" unicode="&#xba;" horiz-adv-x="330" 
d="M30 359c0 44.667 12.5 81 37.5 109s59.167 42 102.5 42c40.667 0 72.5 -13.333 95.5 -40s34.5 -61.667 34.5 -105c0 -46 -12.5 -83.333 -37.5 -112s-57.833 -43 -98.5 -43c-41.333 0 -74 13.667 -98 41s-36 63.333 -36 108zM87 366
c0 -35.333 6.83301 -62.334 20.5 -81.001s33.5 -28 59.5 -28s45.167 8.83301 57.5 26.5s18.5 43.5 18.5 77.5c0 32.667 -6.16699 57.834 -18.5 75.501s-32.5 26.5 -60.5 26.5c-24.667 0 -43.667 -7.83301 -57 -23.5s-20 -40.167 -20 -73.5z" />
    <glyph glyph-name="guillemotright" unicode="&#xbb;" horiz-adv-x="330" 
d="M180 195l-85 -135h-65l85 135l-85 135h65zM300 195l-85 -135h-65l85 135l-85 135h65z" />
    <glyph glyph-name="onequarter" unicode="&#xbc;" horiz-adv-x="690" 
d="M120 220v273h-60v47h115v-320h-55zM545 550l-370 -550h-60l370 550h60zM540 86h-170v40l177 210h53v-205h60v-45h-60v-75h-60v75zM433 131h107v128h-2l-106 -126z" />
    <glyph glyph-name="onehalf" unicode="&#xbd;" horiz-adv-x="720" 
d="M120 220v273h-60v47h115v-320h-55zM545 550l-370 -550h-60l370 550h60zM680 101l0.000976562 -89.999h-250v44c51.333 36 94.833 71 130.5 105s53.5 64.667 53.5 92c0 14 -5.16699 24.667 -15.5 32s-25.833 11 -46.5 11c-22.667 0 -44.334 -4.66699 -65.001 -14v-60h-47
v88c38 21.333 78 32 120 32c36.667 0 64.167 -7.33301 82.5 -22s27.5 -35.334 27.5 -62.001c0 -36 -16.167 -70.5 -48.5 -103.5s-68.833 -64.5 -109.5 -94.5v-2h121v44h47z" />
    <glyph glyph-name="threequarters" unicode="&#xbe;" horiz-adv-x="750" 
d="M40 275c32 -12.667 65.667 -18.998 101 -18.998c26.667 0 48.834 4.16699 66.501 12.5s26.5 22.166 26.5 41.499c0 16 -7.66699 28.333 -23 37s-41.333 13 -78 13h-23v44h16c32.667 0 56.5 4.66699 71.5 14s22.5 22.666 22.5 39.999c0 13.333 -5.33301 24.333 -16 33
s-28.334 13 -53.001 13c-24 0 -45.333 -3.33301 -64 -10v-44h-47v71c36.667 19.333 75 29 115 29c35.333 0 64 -7.83301 86 -23.5s33 -36.5 33 -62.5c0 -34.667 -18.667 -59 -56 -73v-2c48 -10.667 72 -37 72 -79c0 -32 -13.833 -56.667 -41.5 -74s-62.5 -26 -104.5 -26
c-41.333 0 -76 5.33301 -104 16v49zM605 550.002l-370 -550h-60l370 550h60zM600 86.002h-170v40l177 210h53v-205h60v-45h-60v-75h-60v75zM493 131.002h107v128h-2l-106 -126z" />
    <glyph glyph-name="questiondown" unicode="&#xbf;" horiz-adv-x="300" 
d="M240 -147c-26 -8.66699 -52.999 -13 -80.999 -13c-40.667 0 -74.334 11.667 -101.001 35s-40 55 -40 95c0 29.333 6 54 18 74s29 38.667 51 56c22 18 38.5 34.167 49.5 48.5s16.5 31.5 16.5 51.5c0 12 -2 25.333 -6 40h44c7.33301 -20 11 -40 11 -60
c0 -22.667 -5.16699 -42.5 -15.5 -59.5s-24.833 -32.833 -43.5 -47.5c-18 -14.667 -33 -29 -45 -43s-18 -33.333 -18 -58c0 -26 8.16699 -45.667 24.5 -59s37.833 -20 64.5 -20c21.333 0 45 4 71 12v-52zM220.001 351c0 -16 -4.50098 -28.833 -13.501 -38.5
s-21.167 -14.5 -36.5 -14.5s-27.5 4.83301 -36.5 14.5s-13.5 21.167 -13.5 34.5c0 16.667 4.66699 29.667 14 39s22 14 38 14c14.667 0 26.334 -4.66699 35.001 -14s13 -21 13 -35z" />
    <glyph glyph-name="Agrave" unicode="&#xc0;" horiz-adv-x="480" 
d="M160 50v-50h-160v50h50l161 495h58l164 -495h47v-50h-160v50h50l-49 150h-167l-47 -150h53zM235 460l-66 -210h136l-68 210h-2zM265 580h-44l-86 110h70z" />
    <glyph glyph-name="Aacute" unicode="&#xc1;" horiz-adv-x="480" 
d="M160 50v-50h-160v50h50l161 495h58l164 -495h47v-50h-160v50h50l-49 150h-167l-47 -150h53zM235 460l-66 -210h136l-68 210h-2zM275 690h70l-86 -110h-44z" />
    <glyph glyph-name="Acircumflex" unicode="&#xc2;" horiz-adv-x="480" 
d="M160 50v-50h-160v50h50l161 495h58l164 -495h47v-50h-160v50h50l-49 150h-167l-47 -150h53zM235 460l-66 -210h136l-68 210h-2zM239 644l-49 -64h-60l85 110h50l85 -110h-60l-49 64h-2z" />
    <glyph glyph-name="Atilde" unicode="&#xc3;" horiz-adv-x="480" 
d="M160 50v-50h-160v50h50l161 495h58l164 -495h47v-50h-160v50h50l-49 150h-167l-47 -150h53zM235 460l-66 -210h136l-68 210h-2zM135 583v51c15.333 14 33.333 21 54 21c16.667 0 36.667 -6.33301 60 -19c17.333 -8.66699 32 -13 44 -13c20 0 36.667 7.66699 50 23h2v-51
c-15.333 -14 -33.333 -21 -54 -21c-16.667 0 -36.667 6.33301 -60 19c-17.333 8.66699 -32 13 -44 13c-20 0 -36.667 -7.66699 -50 -23h-2z" />
    <glyph glyph-name="Adieresis" unicode="&#xc4;" horiz-adv-x="480" 
d="M160 50v-50h-160v50h50l161 495h58l164 -495h47v-50h-160v50h50l-49 150h-167l-47 -150h53zM235 460l-66 -210h136l-68 210h-2zM125 620c0 13.333 3.83398 23.834 11.501 31.501s17.5 11.5 29.5 11.5c13.333 0 23.666 -3.83301 30.999 -11.5s11 -17.834 11 -30.501
s-3.66699 -22.667 -11 -30s-18 -11 -32 -11c-12 0 -21.667 3.66699 -29 11s-11 17 -11 29zM272.001 620.001c0 13.333 3.83398 23.834 11.501 31.501s17.5 11.5 29.5 11.5c13.333 0 23.666 -3.83301 30.999 -11.5s11 -17.834 11 -30.501s-3.66699 -22.667 -11 -30
s-18 -11 -32 -11c-12 0 -21.667 3.66699 -29 11s-11 17 -11 29z" />
    <glyph glyph-name="Aring" unicode="&#xc5;" horiz-adv-x="480" 
d="M160 50v-50h-160v50h50l161 495h58l164 -495h47v-50h-160v50h50l-49 150h-167l-47 -150h53zM235 460l-66 -210h136l-68 210h-2zM168 637c0 20 6.66699 35.5 20 46.5s31.333 16.5 54 16.5s40 -5.5 52 -16.5s18 -25.833 18 -44.5s-6.5 -34 -19.5 -46s-31.167 -18 -54.5 -18
c-22 0 -39.167 5.83301 -51.5 17.5s-18.5 26.5 -18.5 44.5zM207 639c0 -12 2.83301 -20.667 8.5 -26s13.834 -8 24.501 -8c10 0 18 3 24 9s9 14.333 9 25c0 10 -3 17.667 -9 23s-14 8 -24 8c-10.667 0 -18.834 -2.66699 -24.501 -8s-8.5 -13 -8.5 -23z" />
    <glyph glyph-name="AE" unicode="&#xc6;" horiz-adv-x="660" 
d="M577 50v70h53v-120h-360v50h60v150h-155l-78 -150h43v-50h-150v50h46l257 490h327v-120h-53v70h-177v-190h100v50h50v-160h-50v60h-100v-200h187zM202 250h128v240h-2z" />
    <glyph glyph-name="Ccedilla" unicode="&#xc7;" horiz-adv-x="450" 
d="M420 30c-49.333 -26.667 -99.334 -40 -150.001 -40c-71.333 0 -127.5 24.833 -168.5 74.5s-61.5 118.167 -61.5 205.5c0 86.667 21 155 63 205s98 75 168 75c48.667 0 98.334 -10.667 149.001 -32v-118h-55v79c-26.667 10.667 -58.667 16 -96 16
c-53.333 0 -94.333 -18.167 -123 -54.5s-43 -91.833 -43 -166.5c0 -78 15 -135.667 45 -173s71.667 -56 125 -56c44.667 0 93.667 13.333 147 40v-55zM194.999 -135c12.667 -2.66699 25.667 -3.99805 39 -3.99805c12.667 0 22.667 2.5 30 7.5s11 13.5 11 25.5
c0 21.333 -19 32 -57 32l30 82h46l-19 -52c20 -4.66699 34.167 -12.834 42.5 -24.501s12.5 -24.834 12.5 -39.501c0 -23.333 -8.66699 -42 -26 -56s-40 -21 -68 -21c-13.333 0 -27 1.66699 -41 5v45z" />
    <glyph glyph-name="Egrave" unicode="&#xc8;" 
d="M337 50v70h53v-120h-360v50h60v440h-60v50h350v-120h-53v70h-177v-190h100v50h50v-160h-50v60h-100v-200h187zM250 580h-44l-86 110h70z" />
    <glyph glyph-name="Eacute" unicode="&#xc9;" 
d="M337 50v70h53v-120h-360v50h60v440h-60v50h350v-120h-53v70h-177v-190h100v50h50v-160h-50v60h-100v-200h187zM260 690h70l-86 -110h-44z" />
    <glyph glyph-name="Ecircumflex" unicode="&#xca;" 
d="M337 50v70h53v-120h-360v50h60v440h-60v50h350v-120h-53v70h-177v-190h100v50h50v-160h-50v60h-100v-200h187zM224 644l-49 -64h-60l85 110h50l85 -110h-60l-49 64h-2z" />
    <glyph glyph-name="Edieresis" unicode="&#xcb;" 
d="M337 50v70h53v-120h-360v50h60v440h-60v50h350v-120h-53v70h-177v-190h100v50h50v-160h-50v60h-100v-200h187zM110 620c0 13.333 3.83398 23.834 11.501 31.501s17.5 11.5 29.5 11.5c13.333 0 23.666 -3.83301 30.999 -11.5s11 -17.834 11 -30.501
s-3.66699 -22.667 -11 -30s-18 -11 -32 -11c-12 0 -21.667 3.66699 -29 11s-11 17 -11 29zM257.001 620.001c0 13.333 3.83398 23.834 11.501 31.501s17.5 11.5 29.5 11.5c13.333 0 23.666 -3.83301 30.999 -11.5s11 -17.834 11 -30.501s-3.66699 -22.667 -11 -30
s-18 -11 -32 -11c-12 0 -21.667 3.66699 -29 11s-11 17 -11 29z" />
    <glyph glyph-name="Igrave" unicode="&#xcc;" horiz-adv-x="240" 
d="M30 50h60v440h-60v50h180v-50h-60v-440h60v-50h-180v50zM145 580h-44l-86 110h70z" />
    <glyph glyph-name="Iacute" unicode="&#xcd;" horiz-adv-x="240" 
d="M30 50h60v440h-60v50h180v-50h-60v-440h60v-50h-180v50zM155 690h70l-86 -110h-44z" />
    <glyph glyph-name="Icircumflex" unicode="&#xce;" horiz-adv-x="240" 
d="M30 50h60v440h-60v50h180v-50h-60v-440h60v-50h-180v50zM119 644l-49 -64h-60l85 110h50l85 -110h-60l-49 64h-2z" />
    <glyph glyph-name="Idieresis" unicode="&#xcf;" horiz-adv-x="240" 
d="M30 50h60v440h-60v50h180v-50h-60v-440h60v-50h-180v50zM5 620c0 13.333 3.83398 23.834 11.501 31.501s17.5 11.5 29.5 11.5c13.333 0 23.666 -3.83301 30.999 -11.5s11 -17.834 11 -30.501s-3.66699 -22.667 -11 -30s-18 -11 -32 -11c-12 0 -21.667 3.66699 -29 11
s-11 17 -11 29zM152.001 620.001c0 13.333 3.83398 23.834 11.501 31.501s17.5 11.5 29.5 11.5c13.333 0 23.666 -3.83301 30.999 -11.5s11 -17.834 11 -30.501s-3.66699 -22.667 -11 -30s-18 -11 -32 -11c-12 0 -21.667 3.66699 -29 11s-11 17 -11 29z" />
    <glyph glyph-name="Eth" unicode="&#xd0;" horiz-adv-x="510" 
d="M30 300h60v190h-60v50h179c86.667 0 150.667 -21.5 192 -64.5s62 -106.833 62 -191.5c0 -93.333 -23.5 -164 -70.5 -212s-114.167 -72 -201.5 -72h-161v50h60v200h-60v50zM150 50l48 -0.000976562c64.667 0 114.5 18.333 149.5 55s52.5 94.334 52.5 173.001
c0 73.333 -16 127 -48 161s-83.333 51 -154 51h-48v-190h100v-50h-100v-200z" />
    <glyph glyph-name="Ntilde" unicode="&#xd1;" horiz-adv-x="540" 
d="M394 490h-60v50h176v-50h-60v-490h-58l-244 421h-2v-371h60v-50h-176v50h60v440h-60v50h120l242 -416h2v366zM165 583v51c15.333 14 33.333 21 54 21c16.667 0 36.667 -6.33301 60 -19c17.333 -8.66699 32 -13 44 -13c20 0 36.667 7.66699 50 23h2v-51
c-15.333 -14 -33.333 -21 -54 -21c-16.667 0 -36.667 6.33301 -60 19c-17.333 8.66699 -32 13 -44 13c-20 0 -36.667 -7.66699 -50 -23h-2z" />
    <glyph glyph-name="Ograve" unicode="&#xd2;" horiz-adv-x="510" 
d="M47 271c0 86.667 19.168 154.834 57.501 204.501s90.166 74.5 155.499 74.5c64 0 113.833 -24 149.5 -72s53.5 -114.667 53.5 -200c0 -90.667 -19.167 -161.334 -57.5 -212.001s-89.5 -76 -153.5 -76c-62 0 -111.667 24.833 -149 74.5s-56 118.5 -56 206.5zM110.001 274
c0 -74.667 12.832 -131.5 38.499 -170.5s61.167 -58.5 106.5 -58.5s80.833 19.5 106.5 58.5s38.5 96.167 38.5 171.5c0 72.667 -12.167 127.5 -36.5 164.5s-59.833 55.5 -106.5 55.5c-47.333 0 -83.666 -18 -108.999 -54s-38 -91.667 -38 -167zM280 580h-44l-86 110h70z" />
    <glyph glyph-name="Oacute" unicode="&#xd3;" horiz-adv-x="510" 
d="M47 271c0 86.667 19.168 154.834 57.501 204.501s90.166 74.5 155.499 74.5c64 0 113.833 -24 149.5 -72s53.5 -114.667 53.5 -200c0 -90.667 -19.167 -161.334 -57.5 -212.001s-89.5 -76 -153.5 -76c-62 0 -111.667 24.833 -149 74.5s-56 118.5 -56 206.5zM110.001 274
c0 -74.667 12.832 -131.5 38.499 -170.5s61.167 -58.5 106.5 -58.5s80.833 19.5 106.5 58.5s38.5 96.167 38.5 171.5c0 72.667 -12.167 127.5 -36.5 164.5s-59.833 55.5 -106.5 55.5c-47.333 0 -83.666 -18 -108.999 -54s-38 -91.667 -38 -167zM290 690h70l-86 -110h-44z
" />
    <glyph glyph-name="Ocircumflex" unicode="&#xd4;" horiz-adv-x="510" 
d="M47 271c0 86.667 19.168 154.834 57.501 204.501s90.166 74.5 155.499 74.5c64 0 113.833 -24 149.5 -72s53.5 -114.667 53.5 -200c0 -90.667 -19.167 -161.334 -57.5 -212.001s-89.5 -76 -153.5 -76c-62 0 -111.667 24.833 -149 74.5s-56 118.5 -56 206.5zM110.001 274
c0 -74.667 12.832 -131.5 38.499 -170.5s61.167 -58.5 106.5 -58.5s80.833 19.5 106.5 58.5s38.5 96.167 38.5 171.5c0 72.667 -12.167 127.5 -36.5 164.5s-59.833 55.5 -106.5 55.5c-47.333 0 -83.666 -18 -108.999 -54s-38 -91.667 -38 -167zM254 644l-49 -64h-60l85 110
h50l85 -110h-60l-49 64h-2z" />
    <glyph glyph-name="Otilde" unicode="&#xd5;" horiz-adv-x="510" 
d="M47 271c0 86.667 19.168 154.834 57.501 204.501s90.166 74.5 155.499 74.5c64 0 113.833 -24 149.5 -72s53.5 -114.667 53.5 -200c0 -90.667 -19.167 -161.334 -57.5 -212.001s-89.5 -76 -153.5 -76c-62 0 -111.667 24.833 -149 74.5s-56 118.5 -56 206.5zM110.001 274
c0 -74.667 12.832 -131.5 38.499 -170.5s61.167 -58.5 106.5 -58.5s80.833 19.5 106.5 58.5s38.5 96.167 38.5 171.5c0 72.667 -12.167 127.5 -36.5 164.5s-59.833 55.5 -106.5 55.5c-47.333 0 -83.666 -18 -108.999 -54s-38 -91.667 -38 -167zM150 583v51
c15.333 14 33.333 21 54 21c16.667 0 36.667 -6.33301 60 -19c17.333 -8.66699 32 -13 44 -13c20 0 36.667 7.66699 50 23h2v-51c-15.333 -14 -33.333 -21 -54 -21c-16.667 0 -36.667 6.33301 -60 19c-17.333 8.66699 -32 13 -44 13c-20 0 -36.667 -7.66699 -50 -23h-2z" />
    <glyph glyph-name="Odieresis" unicode="&#xd6;" horiz-adv-x="510" 
d="M47 271c0 86.667 19.168 154.834 57.501 204.501s90.166 74.5 155.499 74.5c64 0 113.833 -24 149.5 -72s53.5 -114.667 53.5 -200c0 -90.667 -19.167 -161.334 -57.5 -212.001s-89.5 -76 -153.5 -76c-62 0 -111.667 24.833 -149 74.5s-56 118.5 -56 206.5zM110.001 274
c0 -74.667 12.832 -131.5 38.499 -170.5s61.167 -58.5 106.5 -58.5s80.833 19.5 106.5 58.5s38.5 96.167 38.5 171.5c0 72.667 -12.167 127.5 -36.5 164.5s-59.833 55.5 -106.5 55.5c-47.333 0 -83.666 -18 -108.999 -54s-38 -91.667 -38 -167zM140 620
c0 13.333 3.83398 23.834 11.501 31.501s17.5 11.5 29.5 11.5c13.333 0 23.666 -3.83301 30.999 -11.5s11 -17.834 11 -30.501s-3.66699 -22.667 -11 -30s-18 -11 -32 -11c-12 0 -21.667 3.66699 -29 11s-11 17 -11 29zM287.001 620.001
c0 13.333 3.83398 23.834 11.501 31.501s17.5 11.5 29.5 11.5c13.333 0 23.666 -3.83301 30.999 -11.5s11 -17.834 11 -30.501s-3.66699 -22.667 -11 -30s-18 -11 -32 -11c-12 0 -21.667 3.66699 -29 11s-11 17 -11 29z" />
    <glyph glyph-name="multiply" unicode="&#xd7;" horiz-adv-x="395" 
d="M355 88l-38 -38l-122 122l-122 -122l-38 38l122 122l-122 122l38 38l122 -122l122 122l38 -38l-122 -122z" />
    <glyph glyph-name="Oslash" unicode="&#xd8;" horiz-adv-x="510" 
d="M47 271c0 86.667 19.168 154.834 57.501 204.501s90.166 74.5 155.499 74.5c44.667 0 83 -12 115 -36l37 61l38 -23l-43 -71c37.333 -48 56 -115.667 56 -203c0 -90.667 -19.167 -161.334 -57.5 -212.001s-89.5 -76 -153.5 -76c-46 0 -84.333 13.333 -115 40l-39 -65
l-38 23l45 75c-38.667 48.667 -58 118 -58 208zM110.001 274c0 -65.333 9.66602 -116.667 28.999 -154l205 343c-22.667 21.333 -51.667 32 -87 32c-47.333 0 -83.666 -18 -108.999 -54s-38 -91.667 -38 -167zM255 44.999c45.333 0 80.833 19.5 106.5 58.5
s38.5 96.167 38.5 171.5c0 62.667 -9 112 -27 148l-206 -343c24 -23.333 53.333 -35 88 -35z" />
    <glyph glyph-name="Ugrave" unicode="&#xd9;" horiz-adv-x="540" 
d="M140 173c0 -42 11.666 -73.833 34.999 -95.5s54.666 -32.5 93.999 -32.5c42.667 0 75.834 11.333 99.501 34s35.5 55 35.5 97v314h-61v50h177v-50h-60v-311c0 -56 -17.167 -101.5 -51.5 -136.5s-81.166 -52.5 -140.499 -52.5c-57.333 0 -103 16.5 -137 49.5
s-51 77.167 -51 132.5v318h-60v50h180v-50h-60v-317zM294.999 580h-44l-86 110h70z" />
    <glyph glyph-name="Uacute" unicode="&#xda;" horiz-adv-x="540" 
d="M140 173c0 -42 11.666 -73.833 34.999 -95.5s54.666 -32.5 93.999 -32.5c42.667 0 75.834 11.333 99.501 34s35.5 55 35.5 97v314h-61v50h177v-50h-60v-311c0 -56 -17.167 -101.5 -51.5 -136.5s-81.166 -52.5 -140.499 -52.5c-57.333 0 -103 16.5 -137 49.5
s-51 77.167 -51 132.5v318h-60v50h180v-50h-60v-317zM304.999 690h70l-86 -110h-44z" />
    <glyph glyph-name="Ucircumflex" unicode="&#xdb;" horiz-adv-x="540" 
d="M140 173c0 -42 11.666 -73.833 34.999 -95.5s54.666 -32.5 93.999 -32.5c42.667 0 75.834 11.333 99.501 34s35.5 55 35.5 97v314h-61v50h177v-50h-60v-311c0 -56 -17.167 -101.5 -51.5 -136.5s-81.166 -52.5 -140.499 -52.5c-57.333 0 -103 16.5 -137 49.5
s-51 77.167 -51 132.5v318h-60v50h180v-50h-60v-317zM268.999 644l-49 -64h-60l85 110h50l85 -110h-60l-49 64h-2z" />
    <glyph glyph-name="Udieresis" unicode="&#xdc;" horiz-adv-x="540" 
d="M140 173c0 -42 11.666 -73.833 34.999 -95.5s54.666 -32.5 93.999 -32.5c42.667 0 75.834 11.333 99.501 34s35.5 55 35.5 97v314h-61v50h177v-50h-60v-311c0 -56 -17.167 -101.5 -51.5 -136.5s-81.166 -52.5 -140.499 -52.5c-57.333 0 -103 16.5 -137 49.5
s-51 77.167 -51 132.5v318h-60v50h180v-50h-60v-317zM154.999 620c0 13.333 3.83398 23.834 11.501 31.501s17.5 11.5 29.5 11.5c13.333 0 23.666 -3.83301 30.999 -11.5s11 -17.834 11 -30.501s-3.66699 -22.667 -11 -30s-18 -11 -32 -11c-12 0 -21.667 3.66699 -29 11
s-11 17 -11 29zM302 620.001c0 13.333 3.83398 23.834 11.501 31.501s17.5 11.5 29.5 11.5c13.333 0 23.666 -3.83301 30.999 -11.5s11 -17.834 11 -30.501s-3.66699 -22.667 -11 -30s-18 -11 -32 -11c-12 0 -21.667 3.66699 -29 11s-11 17 -11 29z" />
    <glyph glyph-name="Yacute" unicode="&#xdd;" horiz-adv-x="480" 
d="M210 240l-164 250h-46v50h160v-50h-46l130 -198l126 198h-50v50h160v-50h-47l-163 -250v-190h70v-50h-200v50h70v190zM275 690h70l-86 -110h-44z" />
    <glyph glyph-name="Thorn" unicode="&#xde;" 
d="M30 50l60.001 0.000976562v440h-60v50h180v-50h-60v-50h61c58.667 0 102 -12.833 130 -38.5s42 -62.834 42 -111.501c0 -55.333 -15.833 -97.5 -47.5 -126.5s-77.834 -43.5 -138.501 -43.5h-47v-70h60v-50h-180v50zM200.001 170.001c38.667 0 68.333 8.83301 89 26.5
s31 46.5 31 86.5c0 40.667 -9.33301 68.667 -28 84s-47.667 23 -87 23h-55v-220h50z" />
    <glyph glyph-name="germandbls" unicode="&#xdf;" horiz-adv-x="450" 
d="M140 0l-110.003 -0.00195312v50h50v290h-50v50h50v65c0 47.333 15.333 84.166 46 110.499s70.334 39.5 119.001 39.5c44 0 79.167 -10.833 105.5 -32.5s39.5 -50.834 39.5 -87.501c0 -18 -2.33301 -33.167 -7 -45.5s-10.667 -23 -18 -32s-15.5 -16.667 -24.5 -23
s-17.833 -12.166 -26.5 -17.499c-19.333 -11.333 -33.166 -21.333 -41.499 -30s-12.5 -19.667 -12.5 -33c0 -15.333 6.66699 -28.5 20 -39.5s31.666 -22.833 54.999 -35.5c10.667 -6 20.834 -12.333 30.501 -19s18.667 -14.5 27 -23.5s15 -19.667 20 -32
s7.5 -26.5 7.5 -42.5c0 -38 -12.5 -67.833 -37.5 -89.5s-58.167 -32.5 -99.5 -32.5c-24.667 0 -49 3.33301 -73 10v53c24.667 -8.66699 49 -13 73 -13c26.667 0 46.167 5.16699 58.5 15.5s18.5 25.833 18.5 46.5c0 17.333 -5.33301 31.5 -16 42.5s-27 22.5 -49 34.5
c-12 6.66699 -23.5 13.667 -34.5 21s-20.667 15.333 -29 24s-15.166 18.834 -20.499 30.501s-8 24.834 -8 39.501c0 15.333 2 28 6 38s9 18.833 15 26.5s13.333 15 22 22s17.667 13.5 27 19.5s17.5 11.5 24.5 16.5s13 10.667 18 17s8.83301 13.333 11.5 21
s4 16.834 4 27.501c0 24.667 -7.5 43.334 -22.5 56.001s-37.833 19 -68.5 19c-31.333 0 -55.833 -7.33301 -73.5 -22s-26.5 -38.334 -26.5 -71.001v-464z" />
    <glyph glyph-name="agrave" unicode="&#xe0;" horiz-adv-x="390" 
d="M60 361c46 26 93.002 39.001 141.002 39.001c41.333 0 73.166 -9.5 95.499 -28.5s33.5 -49.167 33.5 -90.5v-231h50v-50h-104l-3 45l-2 1c-32 -37.333 -71.333 -56 -118 -56c-34.667 0 -62.167 10.167 -82.5 30.5s-30.5 46.166 -30.5 77.499c0 42 18.167 73.333 54.5 94
s89.166 31 158.499 31h17v59c0 24.667 -5.83301 42.167 -17.5 52.5s-31.167 15.5 -58.5 15.5c-32.667 0 -60 -5.33301 -82 -16v-54h-52v81zM246.002 180.001c-46 0 -81.333 -5.83301 -106 -17.5s-37 -32.167 -37 -61.5c0 -21.333 6 -36.833 18 -46.5s27.333 -14.5 46 -14.5
c40 0 74.333 16.333 103 49v91h-24zM226.002 430.001h-46l-80 120h70z" />
    <glyph glyph-name="aacute" unicode="&#xe1;" horiz-adv-x="390" 
d="M60 361c46 26 93.002 39.001 141.002 39.001c41.333 0 73.166 -9.5 95.499 -28.5s33.5 -49.167 33.5 -90.5v-231h50v-50h-104l-3 45l-2 1c-32 -37.333 -71.333 -56 -118 -56c-34.667 0 -62.167 10.167 -82.5 30.5s-30.5 46.166 -30.5 77.499c0 42 18.167 73.333 54.5 94
s89.166 31 158.499 31h17v59c0 24.667 -5.83301 42.167 -17.5 52.5s-31.167 15.5 -58.5 15.5c-32.667 0 -60 -5.33301 -82 -16v-54h-52v81zM246.002 180.001c-46 0 -81.333 -5.83301 -106 -17.5s-37 -32.167 -37 -61.5c0 -21.333 6 -36.833 18 -46.5s27.333 -14.5 46 -14.5
c40 0 74.333 16.333 103 49v91h-24zM220.002 550.001h70l-80 -120h-46z" />
    <glyph glyph-name="acircumflex" unicode="&#xe2;" horiz-adv-x="390" 
d="M60 361c46 26 93.002 39.001 141.002 39.001c41.333 0 73.166 -9.5 95.499 -28.5s33.5 -49.167 33.5 -90.5v-231h50v-50h-104l-3 45l-2 1c-32 -37.333 -71.333 -56 -118 -56c-34.667 0 -62.167 10.167 -82.5 30.5s-30.5 46.166 -30.5 77.499c0 42 18.167 73.333 54.5 94
s89.166 31 158.499 31h17v59c0 24.667 -5.83301 42.167 -17.5 52.5s-31.167 15.5 -58.5 15.5c-32.667 0 -60 -5.33301 -82 -16v-54h-52v81zM246.002 180.001c-46 0 -81.333 -5.83301 -106 -17.5s-37 -32.167 -37 -61.5c0 -21.333 6 -36.833 18 -46.5s27.333 -14.5 46 -14.5
c40 0 74.333 16.333 103 49v91h-24zM194.002 505.001l-57 -75h-60l94 120h48l94 -120h-60l-57 75h-2z" />
    <glyph glyph-name="atilde" unicode="&#xe3;" horiz-adv-x="390" 
d="M60 361c46 26 93.002 39.001 141.002 39.001c41.333 0 73.166 -9.5 95.499 -28.5s33.5 -49.167 33.5 -90.5v-231h50v-50h-104l-3 45l-2 1c-32 -37.333 -71.333 -56 -118 -56c-34.667 0 -62.167 10.167 -82.5 30.5s-30.5 46.166 -30.5 77.499c0 42 18.167 73.333 54.5 94
s89.166 31 158.499 31h17v59c0 24.667 -5.83301 42.167 -17.5 52.5s-31.167 15.5 -58.5 15.5c-32.667 0 -60 -5.33301 -82 -16v-54h-52v81zM246.002 180.001c-46 0 -81.333 -5.83301 -106 -17.5s-37 -32.167 -37 -61.5c0 -21.333 6 -36.833 18 -46.5s27.333 -14.5 46 -14.5
c40 0 74.333 16.333 103 49v91h-24zM80.002 463.001v51c20.667 14.667 42 22 64 22c17.333 0 37.666 -6 60.999 -18c16.667 -8 31 -12 43 -12c21.333 0 41.333 8 60 24h2v-51c-20.667 -14.667 -42 -22 -64 -22c-17.333 0 -37.666 6 -60.999 18c-16.667 8 -31 12 -43 12
c-21.333 0 -41.333 -8 -60 -24h-2z" />
    <glyph glyph-name="adieresis" unicode="&#xe4;" horiz-adv-x="390" 
d="M60 361c46 26 93.002 39.001 141.002 39.001c41.333 0 73.166 -9.5 95.499 -28.5s33.5 -49.167 33.5 -90.5v-231h50v-50h-104l-3 45l-2 1c-32 -37.333 -71.333 -56 -118 -56c-34.667 0 -62.167 10.167 -82.5 30.5s-30.5 46.166 -30.5 77.499c0 42 18.167 73.333 54.5 94
s89.166 31 158.499 31h17v59c0 24.667 -5.83301 42.167 -17.5 52.5s-31.167 15.5 -58.5 15.5c-32.667 0 -60 -5.33301 -82 -16v-54h-52v81zM246.002 180.001c-46 0 -81.333 -5.83301 -106 -17.5s-37 -32.167 -37 -61.5c0 -21.333 6 -36.833 18 -46.5s27.333 -14.5 46 -14.5
c40 0 74.333 16.333 103 49v91h-24zM80.002 496.001c0 13.333 4 24.001 12 32.001s18 12 30 12c13.333 0 23.833 -4 31.5 -12s11.5 -18.333 11.5 -31s-3.83301 -22.834 -11.5 -30.501s-18.5 -11.5 -32.5 -11.5c-12 0 -21.833 3.83301 -29.5 11.5s-11.5 17.5 -11.5 29.5z
M225.002 496.002c0 13.333 4 24.001 12 32.001s18 12 30 12c13.333 0 23.833 -4 31.5 -12s11.5 -18.333 11.5 -31s-3.83301 -22.834 -11.5 -30.501s-18.5 -11.5 -32.5 -11.5c-12 0 -21.833 3.83301 -29.5 11.5s-11.5 17.5 -11.5 29.5z" />
    <glyph glyph-name="aring" unicode="&#xe5;" horiz-adv-x="390" 
d="M60 361c46 26 93.002 39.001 141.002 39.001c41.333 0 73.166 -9.5 95.499 -28.5s33.5 -49.167 33.5 -90.5v-231h50v-50h-104l-3 45l-2 1c-32 -37.333 -71.333 -56 -118 -56c-34.667 0 -62.167 10.167 -82.5 30.5s-30.5 46.166 -30.5 77.499c0 42 18.167 73.333 54.5 94
s89.166 31 158.499 31h17v59c0 24.667 -5.83301 42.167 -17.5 52.5s-31.167 15.5 -58.5 15.5c-32.667 0 -60 -5.33301 -82 -16v-54h-52v81zM246.002 180.001c-46 0 -81.333 -5.83301 -106 -17.5s-37 -32.167 -37 -61.5c0 -21.333 6 -36.833 18 -46.5s27.333 -14.5 46 -14.5
c40 0 74.333 16.333 103 49v91h-24zM120.002 495.001c0 20 7 35.834 21 47.501s32.333 17.5 55 17.5c24 0 42.333 -5.83301 55 -17.5s19 -27.167 19 -46.5c0 -18.667 -6.83301 -34.334 -20.5 -47.001s-32.5 -19 -56.5 -19c-22.667 0 -40.5 6.16699 -53.5 18.5
s-19.5 27.833 -19.5 46.5zM161.002 496.002c0 -12 3 -20.833 9 -26.5s14.333 -8.5 25 -8.5c10 0 18.167 3.16699 24.5 9.5s9.5 14.833 9.5 25.5s-3.16699 18.834 -9.5 24.501s-14.5 8.5 -24.5 8.5c-10.667 0 -19 -2.83301 -25 -8.5s-9 -13.834 -9 -24.501z" />
    <glyph glyph-name="ae" unicode="&#xe6;" horiz-adv-x="570" 
d="M530 75l-0.00195312 -53.999c-32 -20.667 -69.333 -31 -112 -31c-57.333 0 -100.333 23 -129 69h-2c-38 -46 -84 -69 -138 -69c-33.333 0 -59.833 10 -79.5 30s-29.5 46 -29.5 78c0 42 17.333 73.333 52 94s85.334 31 152.001 31h16v59c0 24.667 -5.5 42.167 -16.5 52.5
s-29.167 15.5 -54.5 15.5c-30.667 0 -56.334 -5.33301 -77.001 -16v-54h-52v81c44 26 89.333 39 136 39c55.333 0 91.333 -17.667 108 -53h2c28.667 35.333 65.334 53 110.001 53c36.667 0 66.5 -15.333 89.5 -46s34.5 -74.334 34.5 -131.001v-31h-220
c1.33301 -46.667 10 -83 26 -109s41.667 -39.667 77 -41c38.667 0 74.334 11 107.001 33zM236.998 180.001c-42 0 -74.501 -5.83301 -97.501 -17.5s-34.5 -32.167 -34.5 -61.5c0 -20.667 5.33301 -36 16 -46s23.667 -15 39 -15c41.333 -0.666992 78.333 19.333 111 60
c-7.33301 22 -11.666 48.667 -12.999 80h-21zM479.997 240.001c0 38 -6.50098 65.833 -19.501 83.5s-31.167 26.5 -54.5 26.5c-22.667 0 -41.667 -9.16699 -57 -27.5s-24.666 -45.833 -27.999 -82.5h159z" />
    <glyph glyph-name="ccedilla" unicode="&#xe7;" horiz-adv-x="360" 
d="M320 15c-32 -16.667 -67 -25.001 -105 -25.001c-54 0 -96.667 17.333 -128 52s-47 84.334 -47 149.001c0 65.333 16.5 116.5 49.5 153.5s75.833 55.5 128.5 55.5c36.667 0 70.667 -7.66699 102 -23v-97h-53v61c-14.667 6 -32.667 9 -54 9
c-37.333 0 -65 -11.833 -83 -35.5s-27 -61.167 -27 -112.5c0 -54.667 9.66699 -95 29 -121s47.333 -39 84 -39c36 0 70.667 9 104 27v-54zM135 -135.001c12.667 -2.66699 25.667 -3.99805 39 -3.99805c12.667 0 22.667 2.5 30 7.5s11 13.5 11 25.5c0 21.333 -19 32 -57 32
l30 82h46l-19 -52c20 -4.66699 34.167 -12.834 42.5 -24.501s12.5 -24.834 12.5 -39.501c0 -23.333 -8.66699 -42 -26 -56s-40 -21 -68 -21c-13.333 0 -27 1.66699 -41 5v45z" />
    <glyph glyph-name="egrave" unicode="&#xe8;" horiz-adv-x="360" 
d="M320 75l0.00195312 -53.998c-33.333 -20.667 -72.333 -31 -117 -31c-52.667 0 -93.834 17.667 -123.501 53s-44.5 84.666 -44.5 147.999c0 65.333 15.667 116.5 47 153.5s70.666 55.5 117.999 55.5c38.667 0 70 -15.333 94 -46s36 -74.334 36 -131.001v-31h-233
c1.33301 -46.667 10.5 -83 27.5 -109s44.167 -39.667 81.5 -41c41.333 0 79.333 11 114 33zM270.002 240.002c0 38 -6.99902 65.833 -20.999 83.5s-33.667 26.5 -59 26.5c-24.667 0 -45.334 -9.16699 -62.001 -27.5s-26.667 -45.833 -30 -82.5h172zM226.003 430.002h-46
l-80 120h70z" />
    <glyph glyph-name="eacute" unicode="&#xe9;" horiz-adv-x="360" 
d="M320 75l0.00195312 -53.998c-33.333 -20.667 -72.333 -31 -117 -31c-52.667 0 -93.834 17.667 -123.501 53s-44.5 84.666 -44.5 147.999c0 65.333 15.667 116.5 47 153.5s70.666 55.5 117.999 55.5c38.667 0 70 -15.333 94 -46s36 -74.334 36 -131.001v-31h-233
c1.33301 -46.667 10.5 -83 27.5 -109s44.167 -39.667 81.5 -41c41.333 0 79.333 11 114 33zM270.002 240.002c0 38 -6.99902 65.833 -20.999 83.5s-33.667 26.5 -59 26.5c-24.667 0 -45.334 -9.16699 -62.001 -27.5s-26.667 -45.833 -30 -82.5h172zM220.003 550.002h70
l-80 -120h-46z" />
    <glyph glyph-name="ecircumflex" unicode="&#xea;" horiz-adv-x="360" 
d="M320 75l0.00195312 -53.998c-33.333 -20.667 -72.333 -31 -117 -31c-52.667 0 -93.834 17.667 -123.501 53s-44.5 84.666 -44.5 147.999c0 65.333 15.667 116.5 47 153.5s70.666 55.5 117.999 55.5c38.667 0 70 -15.333 94 -46s36 -74.334 36 -131.001v-31h-233
c1.33301 -46.667 10.5 -83 27.5 -109s44.167 -39.667 81.5 -41c41.333 0 79.333 11 114 33zM270.002 240.002c0 38 -6.99902 65.833 -20.999 83.5s-33.667 26.5 -59 26.5c-24.667 0 -45.334 -9.16699 -62.001 -27.5s-26.667 -45.833 -30 -82.5h172zM194.003 505.002l-57 -75
h-60l94 120h48l94 -120h-60l-57 75h-2z" />
    <glyph glyph-name="edieresis" unicode="&#xeb;" horiz-adv-x="360" 
d="M320 75l0.00195312 -53.998c-33.333 -20.667 -72.333 -31 -117 -31c-52.667 0 -93.834 17.667 -123.501 53s-44.5 84.666 -44.5 147.999c0 65.333 15.667 116.5 47 153.5s70.666 55.5 117.999 55.5c38.667 0 70 -15.333 94 -46s36 -74.334 36 -131.001v-31h-233
c1.33301 -46.667 10.5 -83 27.5 -109s44.167 -39.667 81.5 -41c41.333 0 79.333 11 114 33zM270.002 240.002c0 38 -6.99902 65.833 -20.999 83.5s-33.667 26.5 -59 26.5c-24.667 0 -45.334 -9.16699 -62.001 -27.5s-26.667 -45.833 -30 -82.5h172zM80.0029 496.002
c0 13.333 4 24.001 12 32.001s18 12 30 12c13.333 0 23.833 -4 31.5 -12s11.5 -18.333 11.5 -31s-3.83301 -22.834 -11.5 -30.501s-18.5 -11.5 -32.5 -11.5c-12 0 -21.833 3.83301 -29.5 11.5s-11.5 17.5 -11.5 29.5zM225.003 496.003c0 13.333 4 24.001 12 32.001
s18 12 30 12c13.333 0 23.833 -4 31.5 -12s11.5 -18.333 11.5 -31s-3.83301 -22.834 -11.5 -30.501s-18.5 -11.5 -32.5 -11.5c-12 0 -21.833 3.83301 -29.5 11.5s-11.5 17.5 -11.5 29.5z" />
    <glyph glyph-name="igrave" unicode="&#xec;" horiz-adv-x="210" 
d="M30 50h50v290h-50v50h110v-340h50v-50h-160v50zM136 430h-46l-80 120h70z" />
    <glyph glyph-name="iacute" unicode="&#xed;" horiz-adv-x="210" 
d="M30 50h50v290h-50v50h110v-340h50v-50h-160v50zM130 550h70l-80 -120h-46z" />
    <glyph glyph-name="icircumflex" unicode="&#xee;" horiz-adv-x="210" 
d="M30 50h50v290h-50v50h110v-340h50v-50h-160v50zM104 505l-57 -75h-60l94 120h48l94 -120h-60l-57 75h-2z" />
    <glyph glyph-name="idieresis" unicode="&#xef;" horiz-adv-x="210" 
d="M30 50h50v290h-50v50h110v-340h50v-50h-160v50zM-10 496c0 13.333 4 24.001 12 32.001s18 12 30 12c13.333 0 23.833 -4 31.5 -12s11.5 -18.333 11.5 -31s-3.83301 -22.834 -11.5 -30.501s-18.5 -11.5 -32.5 -11.5c-12 0 -21.833 3.83301 -29.5 11.5
s-11.5 17.5 -11.5 29.5zM135 496.001c0 13.333 4 24.001 12 32.001s18 12 30 12c13.333 0 23.833 -4 31.5 -12s11.5 -18.333 11.5 -31s-3.83301 -22.834 -11.5 -30.501s-18.5 -11.5 -32.5 -11.5c-12 0 -21.833 3.83301 -29.5 11.5s-11.5 17.5 -11.5 29.5z" />
    <glyph glyph-name="eth" unicode="&#xf0;" 
d="M126 472l67.001 50c-27.333 16 -62.333 25.333 -105 28v50c56.667 -2 105.667 -17.333 147 -46l67 50l28 -36l-59 -44c65.333 -67.333 98 -161.333 98 -282c0 -80 -15.167 -142 -45.5 -186s-71.833 -66 -124.5 -66c-50 0 -89.833 18.5 -119.5 55.5
s-44.5 85.5 -44.5 145.5s15.667 108.167 47 144.5s72.666 54.5 123.999 54.5c29.333 0 57.333 -7 84 -21l2 1c-11.333 48.667 -32 89.667 -62 123l-76 -57zM208.001 340c-37.333 0 -65.001 -11.334 -83.001 -34.001s-27 -58.667 -27 -108
c0 -50.667 8.83301 -89.667 26.5 -117s43.834 -41 78.501 -41c35.333 0 61.333 16 78 48s25 81.667 25 149c0 28.667 -1.66699 55.334 -5 80.001c-30 15.333 -61 23 -93 23z" />
    <glyph glyph-name="ntilde" unicode="&#xf1;" 
d="M30 50h50.002v290h-50v50h106l3 -52h1c36 41.333 77.333 62 124 62c33.333 0 57.666 -9.5 72.999 -28.5s23 -45.833 23 -80.5v-241h50v-50h-150v50h40v233c0 26.667 -4.66699 44.5 -14 53.5s-22.333 13.5 -39 13.5c-38.667 0 -74.334 -20.667 -107.001 -62v-238h40v-50
h-150v50zM110.002 463v51c20.667 14.667 42 22 64 22c17.333 0 37.666 -6 60.999 -18c16.667 -8 31 -12 43 -12c21.333 0 41.333 8 60 24h2v-51c-20.667 -14.667 -42 -22 -64 -22c-17.333 0 -37.666 6 -60.999 18c-16.667 8 -31 12 -43 12c-21.333 0 -41.333 -8 -60 -24h-2z
" />
    <glyph glyph-name="ograve" unicode="&#xf2;" horiz-adv-x="390" 
d="M35 193c0 63.333 15.501 113.668 46.501 151.001s70.167 56 117.5 56s85.166 -17.333 113.499 -52s42.5 -83.334 42.5 -146.001c0 -64 -15 -115.333 -45 -154s-69.333 -58 -118 -58c-48 0 -86.167 18.5 -114.5 55.5s-42.5 86.167 -42.5 147.5zM98.001 202.002
c0 -52.667 8.49902 -92.834 25.499 -120.501s41.5 -41.5 73.5 -41.5c30 0 53.333 12.833 70 38.5s25 64.834 25 117.501c0 102.667 -32.667 154 -98 154c-31.333 0 -55.166 -11.833 -71.499 -35.5s-24.5 -61.167 -24.5 -112.5zM226 430.002h-46l-80 120h70z" />
    <glyph glyph-name="oacute" unicode="&#xf3;" horiz-adv-x="390" 
d="M35 193c0 63.333 15.501 113.668 46.501 151.001s70.167 56 117.5 56s85.166 -17.333 113.499 -52s42.5 -83.334 42.5 -146.001c0 -64 -15 -115.333 -45 -154s-69.333 -58 -118 -58c-48 0 -86.167 18.5 -114.5 55.5s-42.5 86.167 -42.5 147.5zM98.001 202.002
c0 -52.667 8.49902 -92.834 25.499 -120.501s41.5 -41.5 73.5 -41.5c30 0 53.333 12.833 70 38.5s25 64.834 25 117.501c0 102.667 -32.667 154 -98 154c-31.333 0 -55.166 -11.833 -71.499 -35.5s-24.5 -61.167 -24.5 -112.5zM220 550.002h70l-80 -120h-46z" />
    <glyph glyph-name="ocircumflex" unicode="&#xf4;" horiz-adv-x="390" 
d="M35 193c0 63.333 15.501 113.668 46.501 151.001s70.167 56 117.5 56s85.166 -17.333 113.499 -52s42.5 -83.334 42.5 -146.001c0 -64 -15 -115.333 -45 -154s-69.333 -58 -118 -58c-48 0 -86.167 18.5 -114.5 55.5s-42.5 86.167 -42.5 147.5zM98.001 202.002
c0 -52.667 8.49902 -92.834 25.499 -120.501s41.5 -41.5 73.5 -41.5c30 0 53.333 12.833 70 38.5s25 64.834 25 117.501c0 102.667 -32.667 154 -98 154c-31.333 0 -55.166 -11.833 -71.499 -35.5s-24.5 -61.167 -24.5 -112.5zM194 505.002l-57 -75h-60l94 120h48l94 -120
h-60l-57 75h-2z" />
    <glyph glyph-name="otilde" unicode="&#xf5;" horiz-adv-x="390" 
d="M35 193c0 63.333 15.501 113.668 46.501 151.001s70.167 56 117.5 56s85.166 -17.333 113.499 -52s42.5 -83.334 42.5 -146.001c0 -64 -15 -115.333 -45 -154s-69.333 -58 -118 -58c-48 0 -86.167 18.5 -114.5 55.5s-42.5 86.167 -42.5 147.5zM98.001 202.002
c0 -52.667 8.49902 -92.834 25.499 -120.501s41.5 -41.5 73.5 -41.5c30 0 53.333 12.833 70 38.5s25 64.834 25 117.501c0 102.667 -32.667 154 -98 154c-31.333 0 -55.166 -11.833 -71.499 -35.5s-24.5 -61.167 -24.5 -112.5zM80 463.002v51c20.667 14.667 42 22 64 22
c17.333 0 37.666 -6 60.999 -18c16.667 -8 31 -12 43 -12c21.333 0 41.333 8 60 24h2v-51c-20.667 -14.667 -42 -22 -64 -22c-17.333 0 -37.666 6 -60.999 18c-16.667 8 -31 12 -43 12c-21.333 0 -41.333 -8 -60 -24h-2z" />
    <glyph glyph-name="odieresis" unicode="&#xf6;" horiz-adv-x="390" 
d="M35 193c0 63.333 15.501 113.668 46.501 151.001s70.167 56 117.5 56s85.166 -17.333 113.499 -52s42.5 -83.334 42.5 -146.001c0 -64 -15 -115.333 -45 -154s-69.333 -58 -118 -58c-48 0 -86.167 18.5 -114.5 55.5s-42.5 86.167 -42.5 147.5zM98.001 202.002
c0 -52.667 8.49902 -92.834 25.499 -120.501s41.5 -41.5 73.5 -41.5c30 0 53.333 12.833 70 38.5s25 64.834 25 117.501c0 102.667 -32.667 154 -98 154c-31.333 0 -55.166 -11.833 -71.499 -35.5s-24.5 -61.167 -24.5 -112.5zM80 496.002c0 13.333 4 24.001 12 32.001
s18 12 30 12c13.333 0 23.833 -4 31.5 -12s11.5 -18.333 11.5 -31s-3.83301 -22.834 -11.5 -30.501s-18.5 -11.5 -32.5 -11.5c-12 0 -21.833 3.83301 -29.5 11.5s-11.5 17.5 -11.5 29.5zM225 496.003c0 13.333 4 24.001 12 32.001s18 12 30 12c13.333 0 23.833 -4 31.5 -12
s11.5 -18.333 11.5 -31s-3.83301 -22.834 -11.5 -30.501s-18.5 -11.5 -32.5 -11.5c-12 0 -21.833 3.83301 -29.5 11.5s-11.5 17.5 -11.5 29.5z" />
    <glyph glyph-name="divide" unicode="&#xf7;" horiz-adv-x="390" 
d="M152 85c0 14 3.83203 25 11.499 33s18.5 12 32.5 12c12.667 0 22.667 -3.83301 30 -11.5s11 -18.167 11 -31.5s-3.66699 -23.833 -11 -31.5s-17.666 -11.5 -30.999 -11.5s-23.833 3.83301 -31.5 11.5s-11.5 17.5 -11.5 29.5zM151.999 331c0 14 3.83203 25 11.499 33
s18.5 12 32.5 12c12.667 0 22.667 -3.83301 30 -11.5s11 -18.167 11 -31.5s-3.66699 -23.833 -11 -31.5s-17.666 -11.5 -30.999 -11.5s-23.833 3.83301 -31.5 11.5s-11.5 17.5 -11.5 29.5zM29.998 183v54h330v-54h-330z" />
    <glyph glyph-name="oslash" unicode="&#xf8;" horiz-adv-x="390" 
d="M35 193c0 61.333 15.333 111.167 46 149.5s70 57.5 118 57.5c32.667 0 61 -8.66699 85 -26l32 51l34 -20l-37 -59c28 -35.333 42 -83.333 42 -144c0 -62.667 -15 -113.667 -45 -153s-69.333 -59 -118 -59c-32.667 0 -61 9 -85 27l-32 -52l-35 20l38 61
c-28.667 37.333 -43 86.333 -43 147zM98 202.001c0 -40 5.33301 -73.333 16 -100l141 225c-16 15.333 -36.333 23 -61 23c-30 0 -53.5 -11.667 -70.5 -35s-25.5 -61 -25.5 -113zM197 40.001c30 0 53.333 13.168 70 39.501s25 65.166 25 116.499c0 38 -4.66699 69 -14 93
l-141 -224c15.333 -16.667 35.333 -25 60 -25z" />
    <glyph glyph-name="ugrave" unicode="&#xf9;" 
d="M290 340l-50.001 0.000976562v50h110v-340h50v-50h-105l-3 43h-2c-29.333 -35.333 -66.333 -53 -111 -53c-35.333 0 -62.333 9.33301 -81 28s-28 45.667 -28 81v241h-50v50h110v-281c0 -26.667 5.83301 -44.834 17.5 -54.501s27.5 -14.5 47.5 -14.5
c38.667 0 70.334 15.667 95.001 47v253zM225.999 430.001h-46l-80 120h70z" />
    <glyph glyph-name="uacute" unicode="&#xfa;" 
d="M290 340l-50.001 0.000976562v50h110v-340h50v-50h-105l-3 43h-2c-29.333 -35.333 -66.333 -53 -111 -53c-35.333 0 -62.333 9.33301 -81 28s-28 45.667 -28 81v241h-50v50h110v-281c0 -26.667 5.83301 -44.834 17.5 -54.501s27.5 -14.5 47.5 -14.5
c38.667 0 70.334 15.667 95.001 47v253zM219.999 550.001h70l-80 -120h-46z" />
    <glyph glyph-name="ucircumflex" unicode="&#xfb;" 
d="M290 340l-50.001 0.000976562v50h110v-340h50v-50h-105l-3 43h-2c-29.333 -35.333 -66.333 -53 -111 -53c-35.333 0 -62.333 9.33301 -81 28s-28 45.667 -28 81v241h-50v50h110v-281c0 -26.667 5.83301 -44.834 17.5 -54.501s27.5 -14.5 47.5 -14.5
c38.667 0 70.334 15.667 95.001 47v253zM193.999 505.001l-57 -75h-60l94 120h48l94 -120h-60l-57 75h-2z" />
    <glyph glyph-name="udieresis" unicode="&#xfc;" 
d="M290 340l-50.001 0.000976562v50h110v-340h50v-50h-105l-3 43h-2c-29.333 -35.333 -66.333 -53 -111 -53c-35.333 0 -62.333 9.33301 -81 28s-28 45.667 -28 81v241h-50v50h110v-281c0 -26.667 5.83301 -44.834 17.5 -54.501s27.5 -14.5 47.5 -14.5
c38.667 0 70.334 15.667 95.001 47v253zM79.999 496.001c0 13.333 4 24.001 12 32.001s18 12 30 12c13.333 0 23.833 -4 31.5 -12s11.5 -18.333 11.5 -31s-3.83301 -22.834 -11.5 -30.501s-18.5 -11.5 -32.5 -11.5c-12 0 -21.833 3.83301 -29.5 11.5s-11.5 17.5 -11.5 29.5z
M224.999 496.002c0 13.333 4 24.001 12 32.001s18 12 30 12c13.333 0 23.833 -4 31.5 -12s11.5 -18.333 11.5 -31s-3.83301 -22.834 -11.5 -30.501s-18.5 -11.5 -32.5 -11.5c-12 0 -21.833 3.83301 -29.5 11.5s-11.5 17.5 -11.5 29.5z" />
    <glyph glyph-name="yacute" unicode="&#xfd;" horiz-adv-x="390" 
d="M340 340l-129.001 -365.003c-8 -23.333 -16.5 -44.666 -25.5 -63.999s-19.333 -36.166 -31 -50.499s-25.5 -25.166 -41.5 -32.499s-35 -11 -57 -11c-12 0 -24 1 -36 3v55c12.667 -2 25 -3 37 -3c10.667 0 20.5 1.16699 29.5 3.5s17.5 7 25.5 14s16.333 18.667 25 35
s18.334 39.833 29.001 70.5h-5l-116 345h-45v50h150v-50h-44l87 -268h2l91 268h-46v50h150v-50h-50zM219.999 549.997h70l-80 -120h-46z" />
    <glyph glyph-name="thorn" unicode="&#xfe;" 
d="M380 207c0 -64 -15.8311 -116.167 -47.498 -156.5s-71.834 -60.5 -120.501 -60.5c-25.333 0 -50.333 6 -75 18l-2 -1v-137h60v-50h-170v50h50v680h-50v50h110v-235l2 -1c28 24 61 36 99 36c43.333 0 78.166 -18.333 104.499 -55s39.5 -82.667 39.5 -138zM317.002 198
c0 46 -8.16797 82.833 -24.501 110.5s-41.166 41.5 -74.499 41.5c-29.333 0 -57 -11 -83 -33v-262c20 -10 43.333 -15 70 -15c35.333 0 62.833 13 82.5 39s29.5 65.667 29.5 119z" />
    <glyph glyph-name="ydieresis" unicode="&#xff;" horiz-adv-x="390" 
d="M340 340l-129.001 -365.003c-8 -23.333 -16.5 -44.666 -25.5 -63.999s-19.333 -36.166 -31 -50.499s-25.5 -25.166 -41.5 -32.499s-35 -11 -57 -11c-12 0 -24 1 -36 3v55c12.667 -2 25 -3 37 -3c10.667 0 20.5 1.16699 29.5 3.5s17.5 7 25.5 14s16.333 18.667 25 35
s18.334 39.833 29.001 70.5h-5l-116 345h-45v50h150v-50h-44l87 -268h2l91 268h-46v50h150v-50h-50zM79.999 495.997c0 13.333 4 24.001 12 32.001s18 12 30 12c13.333 0 23.833 -4 31.5 -12s11.5 -18.333 11.5 -31s-3.83301 -22.834 -11.5 -30.501s-18.5 -11.5 -32.5 -11.5
c-12 0 -21.833 3.83301 -29.5 11.5s-11.5 17.5 -11.5 29.5zM224.999 495.998c0 13.333 4 24.001 12 32.001s18 12 30 12c13.333 0 23.833 -4 31.5 -12s11.5 -18.333 11.5 -31s-3.83301 -22.834 -11.5 -30.501s-18.5 -11.5 -32.5 -11.5c-12 0 -21.833 3.83301 -29.5 11.5
s-11.5 17.5 -11.5 29.5z" />
    <glyph glyph-name="Amacron" unicode="&#x100;" horiz-adv-x="480" 
d="M160 50v-50h-160v50h50l161 495h58l164 -495h47v-50h-160v50h50l-49 150h-167l-47 -150h53zM235 460l-66 -210h136l-68 210h-2zM145 637h190v-47h-190v47z" />
    <glyph glyph-name="amacron" unicode="&#x101;" horiz-adv-x="390" 
d="M60 361c46 26 93.002 39.001 141.002 39.001c41.333 0 73.166 -9.5 95.499 -28.5s33.5 -49.167 33.5 -90.5v-231h50v-50h-104l-3 45l-2 1c-32 -37.333 -71.333 -56 -118 -56c-34.667 0 -62.167 10.167 -82.5 30.5s-30.5 46.166 -30.5 77.499c0 42 18.167 73.333 54.5 94
s89.166 31 158.499 31h17v59c0 24.667 -5.83301 42.167 -17.5 52.5s-31.167 15.5 -58.5 15.5c-32.667 0 -60 -5.33301 -82 -16v-54h-52v81zM246.002 180.001c-46 0 -81.333 -5.83301 -106 -17.5s-37 -32.167 -37 -61.5c0 -21.333 6 -36.833 18 -46.5s27.333 -14.5 46 -14.5
c40 0 74.333 16.333 103 49v91h-24zM90.002 510.001h210v-48h-210v48z" />
    <glyph glyph-name="Abreve" unicode="&#x102;" horiz-adv-x="480" 
d="M160 50v-50h-160v50h50l161 495h58l164 -495h47v-50h-160v50h50l-49 150h-167l-47 -150h53zM235 460l-66 -210h136l-68 210h-2zM240 626c18 0 32.667 5.33301 44 16s18 26.667 20 48h44c-2.66699 -35.333 -13.667 -62.5 -33 -81.5s-44.333 -28.5 -75 -28.5
s-55.667 9.5 -75 28.5s-30.333 46.167 -33 81.5h44c2 -21.333 8.66699 -37.333 20 -48s26 -16 44 -16z" />
    <glyph glyph-name="abreve" unicode="&#x103;" horiz-adv-x="390" 
d="M60 361c46 26 93.002 39.001 141.002 39.001c41.333 0 73.166 -9.5 95.499 -28.5s33.5 -49.167 33.5 -90.5v-231h50v-50h-104l-3 45l-2 1c-32 -37.333 -71.333 -56 -118 -56c-34.667 0 -62.167 10.167 -82.5 30.5s-30.5 46.166 -30.5 77.499c0 42 18.167 73.333 54.5 94
s89.166 31 158.499 31h17v59c0 24.667 -5.83301 42.167 -17.5 52.5s-31.167 15.5 -58.5 15.5c-32.667 0 -60 -5.33301 -82 -16v-54h-52v81zM246.002 180.001c-46 0 -81.333 -5.83301 -106 -17.5s-37 -32.167 -37 -61.5c0 -21.333 6 -36.833 18 -46.5s27.333 -14.5 46 -14.5
c40 0 74.333 16.333 103 49v91h-24zM131.002 550.001c1.33301 -23.333 7.83301 -41.168 19.5 -53.501s26.5 -18.5 44.5 -18.5c18.667 0 33.667 6.33301 45 19s18 30.334 20 53.001h43c-0.666992 -36.667 -10.834 -65.834 -30.501 -87.501s-45.5 -32.5 -77.5 -32.5
c-31.333 0 -56.666 10.833 -75.999 32.5s-30 50.834 -32 87.501h44z" />
    <glyph glyph-name="Aogonek" unicode="&#x104;" horiz-adv-x="480" 
d="M379 -135c14 0 27.666 3.33398 40.999 10.001v-48c-14.667 -8 -31 -12 -49 -12c-24 0 -44.333 6.83301 -61 20.5s-25 33.167 -25 58.5c0 49.333 30.333 95.666 91 138.999l-55 167h-167l-47 -150h53v-50h-160v50h50l161 495h58l164 -495h47v-50h-81
c-39.333 -32 -59 -64 -59 -96c0 -14 3.83301 -24 11.5 -30s16.834 -9 27.501 -9zM234.999 460.001l-66 -210h136l-68 210h-2z" />
    <glyph glyph-name="aogonek" unicode="&#x105;" horiz-adv-x="390" 
d="M60 361c46 26 93.002 39.001 141.002 39.001c41.333 0 73.166 -9.5 95.499 -28.5s33.5 -49.167 33.5 -90.5v-231h50v-50h-104l-3 45l-2 1c-32 -37.333 -71.333 -56 -118 -56c-34.667 0 -62.167 10.167 -82.5 30.5s-30.5 46.166 -30.5 77.499c0 42 18.167 73.333 54.5 94
s89.166 31 158.499 31h17v59c0 24.667 -5.83301 42.167 -17.5 52.5s-31.167 15.5 -58.5 15.5c-32.667 0 -60 -5.33301 -82 -16v-54h-52v81zM246.002 180.001c-46 0 -81.333 -5.83301 -106 -17.5s-37 -32.167 -37 -61.5c0 -21.333 6 -36.833 18 -46.5s27.333 -14.5 46 -14.5
c40 0 74.333 16.333 103 49v91h-24zM339.002 -134.999c14 0 27.666 3.33301 40.999 10v-48c-14.667 -8 -31 -12 -49 -12c-24 0 -44.333 6.83301 -61 20.5s-25 32.5 -25 56.5c0 36.667 19.667 72 59 106v10h55v-8c-39.333 -32 -59 -64 -59 -96c0 -14 3.83301 -24 11.5 -30
s16.834 -9 27.501 -9z" />
    <glyph glyph-name="Cacute" unicode="&#x106;" horiz-adv-x="450" 
d="M420 30c-49.333 -26.667 -99.334 -40 -150.001 -40c-71.333 0 -127.5 24.833 -168.5 74.5s-61.5 118.167 -61.5 205.5c0 86.667 21 155 63 205s98 75 168 75c48.667 0 98.334 -10.667 149.001 -32v-118h-55v79c-26.667 10.667 -58.667 16 -96 16
c-53.333 0 -94.333 -18.167 -123 -54.5s-43 -91.833 -43 -166.5c0 -78 15 -135.667 45 -173s71.667 -56 125 -56c44.667 0 93.667 13.333 147 40v-55zM304.999 690h70l-86 -110h-44z" />
    <glyph glyph-name="cacute" unicode="&#x107;" horiz-adv-x="360" 
d="M320 15c-32 -16.667 -67 -25.001 -105 -25.001c-54 0 -96.667 17.333 -128 52s-47 84.334 -47 149.001c0 65.333 16.5 116.5 49.5 153.5s75.833 55.5 128.5 55.5c36.667 0 70.667 -7.66699 102 -23v-97h-53v61c-14.667 6 -32.667 9 -54 9
c-37.333 0 -65 -11.833 -83 -35.5s-27 -61.167 -27 -112.5c0 -54.667 9.66699 -95 29 -121s47.333 -39 84 -39c36 0 70.667 9 104 27v-54zM235 549.999h70l-80 -120h-46z" />
    <glyph glyph-name="Ccircumflex" unicode="&#x108;" horiz-adv-x="450" 
d="M420 30c-49.333 -26.667 -99.334 -40 -150.001 -40c-71.333 0 -127.5 24.833 -168.5 74.5s-61.5 118.167 -61.5 205.5c0 86.667 21 155 63 205s98 75 168 75c48.667 0 98.334 -10.667 149.001 -32v-118h-55v79c-26.667 10.667 -58.667 16 -96 16
c-53.333 0 -94.333 -18.167 -123 -54.5s-43 -91.833 -43 -166.5c0 -78 15 -135.667 45 -173s71.667 -56 125 -56c44.667 0 93.667 13.333 147 40v-55zM268.999 644l-49 -64h-60l85 110h50l85 -110h-60l-49 64h-2z" />
    <glyph glyph-name="ccircumflex" unicode="&#x109;" horiz-adv-x="360" 
d="M320 15c-32 -16.667 -67 -25.001 -105 -25.001c-54 0 -96.667 17.333 -128 52s-47 84.334 -47 149.001c0 65.333 16.5 116.5 49.5 153.5s75.833 55.5 128.5 55.5c36.667 0 70.667 -7.66699 102 -23v-97h-53v61c-14.667 6 -32.667 9 -54 9
c-37.333 0 -65 -11.833 -83 -35.5s-27 -61.167 -27 -112.5c0 -54.667 9.66699 -95 29 -121s47.333 -39 84 -39c36 0 70.667 9 104 27v-54zM209 504.999l-57 -75h-60l94 120h48l94 -120h-60l-57 75h-2z" />
    <glyph glyph-name="Cdotaccent" unicode="&#x10a;" horiz-adv-x="450" 
d="M420 30c-49.333 -26.667 -99.334 -40 -150.001 -40c-71.333 0 -127.5 24.833 -168.5 74.5s-61.5 118.167 -61.5 205.5c0 86.667 21 155 63 205s98 75 168 75c48.667 0 98.334 -10.667 149.001 -32v-118h-55v79c-26.667 10.667 -58.667 16 -96 16
c-53.333 0 -94.333 -18.167 -123 -54.5s-43 -91.833 -43 -166.5c0 -78 15 -135.667 45 -173s71.667 -56 125 -56c44.667 0 93.667 13.333 147 40v-55zM226.999 621c0 14 3.83398 24.834 11.501 32.501s18.167 11.5 31.5 11.5c12.667 0 23 -3.83301 31 -11.5
s12 -17.834 12 -30.501c0 -13.333 -4 -23.833 -12 -31.5s-18.667 -11.5 -32 -11.5c-12.667 0 -22.834 3.83301 -30.501 11.5s-11.5 17.5 -11.5 29.5z" />
    <glyph glyph-name="cdotaccent" unicode="&#x10b;" horiz-adv-x="360" 
d="M320 15c-32 -16.667 -67 -25.001 -105 -25.001c-54 0 -96.667 17.333 -128 52s-47 84.334 -47 149.001c0 65.333 16.5 116.5 49.5 153.5s75.833 55.5 128.5 55.5c36.667 0 70.667 -7.66699 102 -23v-97h-53v61c-14.667 6 -32.667 9 -54 9
c-37.333 0 -65 -11.833 -83 -35.5s-27 -61.167 -27 -112.5c0 -54.667 9.66699 -95 29 -121s47.333 -39 84 -39c36 0 70.667 9 104 27v-54zM167 495.999c0 14 3.83398 24.834 11.501 32.501s18.167 11.5 31.5 11.5c12.667 0 23 -3.83301 31 -11.5s12 -17.834 12 -30.501
c0 -13.333 -4 -23.833 -12 -31.5s-18.667 -11.5 -32 -11.5c-12.667 0 -22.834 3.83301 -30.501 11.5s-11.5 17.5 -11.5 29.5z" />
    <glyph glyph-name="Ccaron" unicode="&#x10c;" horiz-adv-x="450" 
d="M420 30c-49.333 -26.667 -99.334 -40 -150.001 -40c-71.333 0 -127.5 24.833 -168.5 74.5s-61.5 118.167 -61.5 205.5c0 86.667 21 155 63 205s98 75 168 75c48.667 0 98.334 -10.667 149.001 -32v-118h-55v79c-26.667 10.667 -58.667 16 -96 16
c-53.333 0 -94.333 -18.167 -123 -54.5s-43 -91.833 -43 -166.5c0 -78 15 -135.667 45 -173s71.667 -56 125 -56c44.667 0 93.667 13.333 147 40v-55zM270.999 626l49 64h60l-85 -110h-50l-85 110h60l49 -64h2z" />
    <glyph glyph-name="ccaron" unicode="&#x10d;" horiz-adv-x="360" 
d="M320 15c-32 -16.667 -67 -25.001 -105 -25.001c-54 0 -96.667 17.333 -128 52s-47 84.334 -47 149.001c0 65.333 16.5 116.5 49.5 153.5s75.833 55.5 128.5 55.5c36.667 0 70.667 -7.66699 102 -23v-97h-53v61c-14.667 6 -32.667 9 -54 9
c-37.333 0 -65 -11.833 -83 -35.5s-27 -61.167 -27 -112.5c0 -54.667 9.66699 -95 29 -121s47.333 -39 84 -39c36 0 70.667 9 104 27v-54zM211 474.999l57 75h60l-94 -120h-48l-94 120h60l57 -75h2z" />
    <glyph glyph-name="Dcaron" unicode="&#x10e;" horiz-adv-x="510" 
d="M30 50h60v440h-60v50h179c86.667 0 150.667 -21.5 192 -64.5s62 -106.833 62 -191.5c0 -93.333 -23.5 -164 -70.5 -212s-114.167 -72 -201.5 -72h-161v50zM150 50l48 -0.000976562c64.667 0 114.5 18.333 149.5 55s52.5 94.334 52.5 173.001c0 73.333 -16 127 -48 161
s-83.333 51 -154 51h-48v-440zM211 625.999l49 64h60l-85 -110h-50l-85 110h60l49 -64h2z" />
    <glyph glyph-name="dcaron" unicode="&#x10f;" horiz-adv-x="480" 
d="M230 550l0.000976562 50h120v-550h50v-50h-107l-3 34l-2 1c-28 -30 -61.333 -45 -100 -45c-45.333 0 -81.333 18.333 -108 55s-40 84.667 -40 144c0 62.667 16 113.5 48 152.5s73.333 58.5 124 58.5c25.333 0 50.666 -6 75.999 -18l2 1v167h-60zM290.001 336
c-24.667 9.33301 -49.667 14.001 -75 14.001c-38 0 -66.167 -12.5 -84.5 -37.5s-27.5 -63.833 -27.5 -116.5c0 -50.667 8.16699 -89.334 24.5 -116.001s41.5 -40 75.5 -40c33.333 0 62.333 13.333 87 40v256zM420.001 550.001h60l-40 -130h-42z" />
    <glyph glyph-name="Dcroat" unicode="&#x110;" horiz-adv-x="510" 
d="M30 300h60v190h-60v50h179c86.667 0 150.667 -21.5 192 -64.5s62 -106.833 62 -191.5c0 -93.333 -23.5 -164 -70.5 -212s-114.167 -72 -201.5 -72h-161v50h60v200h-60v50zM150 50l48 -0.000976562c64.667 0 114.5 18.333 149.5 55s52.5 94.334 52.5 173.001
c0 73.333 -16 127 -48 161s-83.333 51 -154 51h-48v-190h100v-50h-100v-200z" />
    <glyph glyph-name="dcroat" unicode="&#x111;" 
d="M230 550l0.000976562 50h120v-104h50v-46h-50v-400h50v-50h-107l-3 34l-2 1c-28 -30 -61.333 -45 -100 -45c-45.333 0 -81.333 18.333 -108 55s-40 84.667 -40 144c0 62.667 16 113.5 48 152.5s73.333 58.5 124 58.5c25.333 0 50.666 -6 75.999 -18l2 1v67h-110v46h110
v54h-60zM290.001 336c-24.667 9.33301 -49.667 14.001 -75 14.001c-38 0 -66.167 -12.5 -84.5 -37.5s-27.5 -63.833 -27.5 -116.5c0 -50.667 8.16699 -89.334 24.5 -116.001s41.5 -40 75.5 -40c33.333 0 62.333 13.333 87 40v256z" />
    <glyph glyph-name="Emacron" unicode="&#x112;" 
d="M337 50v70h53v-120h-360v50h60v440h-60v50h350v-120h-53v70h-177v-190h100v50h50v-160h-50v60h-100v-200h187zM130 637h190v-47h-190v47z" />
    <glyph glyph-name="emacron" unicode="&#x113;" horiz-adv-x="360" 
d="M320 75l0.00195312 -53.998c-33.333 -20.667 -72.333 -31 -117 -31c-52.667 0 -93.834 17.667 -123.501 53s-44.5 84.666 -44.5 147.999c0 65.333 15.667 116.5 47 153.5s70.666 55.5 117.999 55.5c38.667 0 70 -15.333 94 -46s36 -74.334 36 -131.001v-31h-233
c1.33301 -46.667 10.5 -83 27.5 -109s44.167 -39.667 81.5 -41c41.333 0 79.333 11 114 33zM270.002 240.002c0 38 -6.99902 65.833 -20.999 83.5s-33.667 26.5 -59 26.5c-24.667 0 -45.334 -9.16699 -62.001 -27.5s-26.667 -45.833 -30 -82.5h172zM90.0029 510.002h210v-48
h-210v48z" />
    <glyph glyph-name="Ebreve" unicode="&#x114;" 
d="M337 50v70h53v-120h-360v50h60v440h-60v50h350v-120h-53v70h-177v-190h100v50h50v-160h-50v60h-100v-200h187zM225 626c18 0 32.667 5.33301 44 16s18 26.667 20 48h44c-2.66699 -35.333 -13.667 -62.5 -33 -81.5s-44.333 -28.5 -75 -28.5s-55.667 9.5 -75 28.5
s-30.333 46.167 -33 81.5h44c2 -21.333 8.66699 -37.333 20 -48s26 -16 44 -16z" />
    <glyph glyph-name="ebreve" unicode="&#x115;" horiz-adv-x="360" 
d="M320 75l0.00195312 -53.998c-33.333 -20.667 -72.333 -31 -117 -31c-52.667 0 -93.834 17.667 -123.501 53s-44.5 84.666 -44.5 147.999c0 65.333 15.667 116.5 47 153.5s70.666 55.5 117.999 55.5c38.667 0 70 -15.333 94 -46s36 -74.334 36 -131.001v-31h-233
c1.33301 -46.667 10.5 -83 27.5 -109s44.167 -39.667 81.5 -41c41.333 0 79.333 11 114 33zM270.002 240.002c0 38 -6.99902 65.833 -20.999 83.5s-33.667 26.5 -59 26.5c-24.667 0 -45.334 -9.16699 -62.001 -27.5s-26.667 -45.833 -30 -82.5h172zM131.003 550.002
c1.33301 -23.333 7.83301 -41.168 19.5 -53.501s26.5 -18.5 44.5 -18.5c18.667 0 33.667 6.33301 45 19s18 30.334 20 53.001h43c-0.666992 -36.667 -10.834 -65.834 -30.501 -87.501s-45.5 -32.5 -77.5 -32.5c-31.333 0 -56.666 10.833 -75.999 32.5s-30 50.834 -32 87.501
h44z" />
    <glyph glyph-name="Edotaccent" unicode="&#x116;" 
d="M337 50v70h53v-120h-360v50h60v440h-60v50h350v-120h-53v70h-177v-190h100v50h50v-160h-50v60h-100v-200h187zM182 621c0 14 3.83398 24.834 11.501 32.501s18.167 11.5 31.5 11.5c12.667 0 23 -3.83301 31 -11.5s12 -17.834 12 -30.501c0 -13.333 -4 -23.833 -12 -31.5
s-18.667 -11.5 -32 -11.5c-12.667 0 -22.834 3.83301 -30.501 11.5s-11.5 17.5 -11.5 29.5z" />
    <glyph glyph-name="edotaccent" unicode="&#x117;" horiz-adv-x="360" 
d="M320 75l0.00195312 -53.998c-33.333 -20.667 -72.333 -31 -117 -31c-52.667 0 -93.834 17.667 -123.501 53s-44.5 84.666 -44.5 147.999c0 65.333 15.667 116.5 47 153.5s70.666 55.5 117.999 55.5c38.667 0 70 -15.333 94 -46s36 -74.334 36 -131.001v-31h-233
c1.33301 -46.667 10.5 -83 27.5 -109s44.167 -39.667 81.5 -41c41.333 0 79.333 11 114 33zM270.002 240.002c0 38 -6.99902 65.833 -20.999 83.5s-33.667 26.5 -59 26.5c-24.667 0 -45.334 -9.16699 -62.001 -27.5s-26.667 -45.833 -30 -82.5h172zM152.003 496.002
c0 14 3.83398 24.834 11.501 32.501s18.167 11.5 31.5 11.5c12.667 0 23 -3.83301 31 -11.5s12 -17.834 12 -30.501c0 -13.333 -4 -23.833 -12 -31.5s-18.667 -11.5 -32 -11.5c-12.667 0 -22.834 3.83301 -30.501 11.5s-11.5 17.5 -11.5 29.5z" />
    <glyph glyph-name="Eogonek" unicode="&#x118;" 
d="M337 50v70h53v-120h-360v50h60v440h-60v50h350v-120h-53v70h-177v-190h100v50h50v-160h-50v60h-100v-200h187zM349 -135c14 0 27.666 3.33301 40.999 10v-48c-14.667 -8 -31 -12 -49 -12c-24 0 -44.333 6.83301 -61 20.5s-25 32.5 -25 56.5c0 36.667 19.667 72 59 106v10
h55v-8c-39.333 -32 -59 -64 -59 -96c0 -14 3.83301 -24 11.5 -30s16.834 -9 27.501 -9z" />
    <glyph glyph-name="eogonek" unicode="&#x119;" horiz-adv-x="360" 
d="M320 75l0.000976562 -53.998c-53.333 -39.333 -80 -78.333 -80 -117c0 -14 3.83301 -24 11.5 -30s16.834 -9 27.501 -9c14 0 27.667 3.33301 41 10v-48c-14.667 -8 -31 -12 -49 -12c-24 0 -44.333 6.83301 -61 20.5s-25 32.5 -25 56.5c0 35.333 16.667 68.333 50 99v2
c-11.333 -2 -22 -3 -32 -3c-52.667 0 -93.834 17.667 -123.501 53s-44.5 84.666 -44.5 147.999c0 65.333 15.667 116.5 47 153.5s70.666 55.5 117.999 55.5c38.667 0 70 -15.333 94 -46s36 -74.334 36 -131.001v-31h-233c1.33301 -46.667 10.5 -83 27.5 -109
s44.167 -39.667 81.5 -41c41.333 0 79.333 11 114 33zM270.001 240.002c0 38 -6.99902 65.833 -20.999 83.5s-33.667 26.5 -59 26.5c-24.667 0 -45.334 -9.16699 -62.001 -27.5s-26.667 -45.833 -30 -82.5h172z" />
    <glyph glyph-name="Ecaron" unicode="&#x11a;" 
d="M337 50v70h53v-120h-360v50h60v440h-60v50h350v-120h-53v70h-177v-190h100v50h50v-160h-50v60h-100v-200h187zM226 626l49 64h60l-85 -110h-50l-85 110h60l49 -64h2z" />
    <glyph glyph-name="ecaron" unicode="&#x11b;" horiz-adv-x="360" 
d="M320 75l0.00195312 -53.998c-33.333 -20.667 -72.333 -31 -117 -31c-52.667 0 -93.834 17.667 -123.501 53s-44.5 84.666 -44.5 147.999c0 65.333 15.667 116.5 47 153.5s70.666 55.5 117.999 55.5c38.667 0 70 -15.333 94 -46s36 -74.334 36 -131.001v-31h-233
c1.33301 -46.667 10.5 -83 27.5 -109s44.167 -39.667 81.5 -41c41.333 0 79.333 11 114 33zM270.002 240.002c0 38 -6.99902 65.833 -20.999 83.5s-33.667 26.5 -59 26.5c-24.667 0 -45.334 -9.16699 -62.001 -27.5s-26.667 -45.833 -30 -82.5h172zM196.003 475.002l57 75
h60l-94 -120h-48l-94 120h60l57 -75h2z" />
    <glyph glyph-name="Gcircumflex" unicode="&#x11c;" horiz-adv-x="510" 
d="M310 250h170v-50h-40v-175c-50 -23.333 -102 -35 -156 -35c-77.333 0 -137.333 24.833 -180 74.5s-64 118.167 -64 205.5c0 86.667 22 155 66 205s103 75 177 75c51.333 0 103.666 -10.667 156.999 -32v-128h-55v89c-29.333 10.667 -64 16 -104 16
c-57.333 0 -101.333 -18.167 -132 -54.5s-46 -91.833 -46 -166.5c0 -78 16 -135.667 48 -173s77 -56 135 -56c30.667 0 62.334 4.66699 95.001 14v141h-71v50zM284 644l-49 -64h-60l85 110h50l85 -110h-60l-49 64h-2z" />
    <glyph glyph-name="gcircumflex" unicode="&#x11d;" horiz-adv-x="360" 
d="M40 259c0 41.333 13.0039 75.1689 39.0039 101.502s59.333 39.5 100 39.5c14.667 0 28 -1.66699 40 -5c10.667 -3.33301 22.667 -5 36 -5h95v-48h-57v-1c12.667 -22 19 -46.333 19 -73c0 -44 -12.833 -79.667 -38.5 -107s-58.834 -41 -99.501 -41
c-18.667 0 -35.334 2.66699 -50.001 8c-12.667 -14.667 -19 -28.667 -19 -42c0 -8 2.66699 -14.333 8 -19s13.666 -7 24.999 -7h70c44 0 77.833 -9 101.5 -27s35.5 -44.667 35.5 -80c0 -43.333 -17.333 -78 -52 -104s-78.334 -39 -131.001 -39c-42.667 0 -77 10 -103 30
s-39 45.667 -39 77c0 36 18 69 54 99c-16 13.333 -24 30.666 -24 51.999c0 26.667 14.333 52 43 76c-35.333 27.333 -53 65.666 -53 114.999zM111.004 0.00292969c-20.667 -20 -31.001 -43.333 -31.001 -70c0 -22.667 7.33301 -40.5 22 -53.5s37.334 -19.5 68.001 -19.5
c36 0 64.167 7.5 84.5 22.5s30.5 34.5 30.5 58.5c0 20.667 -6.83301 36.167 -20.5 46.5s-32.5 15.5 -56.5 15.5h-97zM102.003 264.003c0 -30 6.33203 -53.499 18.999 -70.499s31.667 -25.5 57 -25.5c24 0 42 7.66699 54 23s18 38.666 18 69.999
c0 30.667 -6.16699 53.167 -18.5 67.5s-31.166 21.5 -56.499 21.5c-24 0 -42.167 -7 -54.5 -21s-18.5 -35.667 -18.5 -65zM179.002 505.004l-57 -75h-60l94 120h48l94 -120h-60l-57 75h-2z" />
    <glyph glyph-name="Gbreve" unicode="&#x11e;" horiz-adv-x="510" 
d="M310 250h170v-50h-40v-175c-50 -23.333 -102 -35 -156 -35c-77.333 0 -137.333 24.833 -180 74.5s-64 118.167 -64 205.5c0 86.667 22 155 66 205s103 75 177 75c51.333 0 103.666 -10.667 156.999 -32v-128h-55v89c-29.333 10.667 -64 16 -104 16
c-57.333 0 -101.333 -18.167 -132 -54.5s-46 -91.833 -46 -166.5c0 -78 16 -135.667 48 -173s77 -56 135 -56c30.667 0 62.334 4.66699 95.001 14v141h-71v50zM285 626c18 0 32.667 5.33301 44 16s18 26.667 20 48h44c-2.66699 -35.333 -13.667 -62.5 -33 -81.5
s-44.333 -28.5 -75 -28.5s-55.667 9.5 -75 28.5s-30.333 46.167 -33 81.5h44c2 -21.333 8.66699 -37.333 20 -48s26 -16 44 -16z" />
    <glyph glyph-name="gbreve" unicode="&#x11f;" horiz-adv-x="360" 
d="M40 259c0 41.333 13.0039 75.1689 39.0039 101.502s59.333 39.5 100 39.5c14.667 0 28 -1.66699 40 -5c10.667 -3.33301 22.667 -5 36 -5h95v-48h-57v-1c12.667 -22 19 -46.333 19 -73c0 -44 -12.833 -79.667 -38.5 -107s-58.834 -41 -99.501 -41
c-18.667 0 -35.334 2.66699 -50.001 8c-12.667 -14.667 -19 -28.667 -19 -42c0 -8 2.66699 -14.333 8 -19s13.666 -7 24.999 -7h70c44 0 77.833 -9 101.5 -27s35.5 -44.667 35.5 -80c0 -43.333 -17.333 -78 -52 -104s-78.334 -39 -131.001 -39c-42.667 0 -77 10 -103 30
s-39 45.667 -39 77c0 36 18 69 54 99c-16 13.333 -24 30.666 -24 51.999c0 26.667 14.333 52 43 76c-35.333 27.333 -53 65.666 -53 114.999zM111.004 0.00292969c-20.667 -20 -31.001 -43.333 -31.001 -70c0 -22.667 7.33301 -40.5 22 -53.5s37.334 -19.5 68.001 -19.5
c36 0 64.167 7.5 84.5 22.5s30.5 34.5 30.5 58.5c0 20.667 -6.83301 36.167 -20.5 46.5s-32.5 15.5 -56.5 15.5h-97zM102.003 264.003c0 -30 6.33203 -53.499 18.999 -70.499s31.667 -25.5 57 -25.5c24 0 42 7.66699 54 23s18 38.666 18 69.999
c0 30.667 -6.16699 53.167 -18.5 67.5s-31.166 21.5 -56.499 21.5c-24 0 -42.167 -7 -54.5 -21s-18.5 -35.667 -18.5 -65zM116.002 550.004c1.33301 -23.333 7.83301 -41.168 19.5 -53.501s26.5 -18.5 44.5 -18.5c18.667 0 33.667 6.33301 45 19s18 30.334 20 53.001h43
c-0.666992 -36.667 -10.834 -65.834 -30.501 -87.501s-45.5 -32.5 -77.5 -32.5c-31.333 0 -56.666 10.833 -75.999 32.5s-30 50.834 -32 87.501h44z" />
    <glyph glyph-name="Gdotaccent" unicode="&#x120;" horiz-adv-x="510" 
d="M310 250h170v-50h-40v-175c-50 -23.333 -102 -35 -156 -35c-77.333 0 -137.333 24.833 -180 74.5s-64 118.167 -64 205.5c0 86.667 22 155 66 205s103 75 177 75c51.333 0 103.666 -10.667 156.999 -32v-128h-55v89c-29.333 10.667 -64 16 -104 16
c-57.333 0 -101.333 -18.167 -132 -54.5s-46 -91.833 -46 -166.5c0 -78 16 -135.667 48 -173s77 -56 135 -56c30.667 0 62.334 4.66699 95.001 14v141h-71v50zM242 621c0 14 3.83398 24.834 11.501 32.501s18.167 11.5 31.5 11.5c12.667 0 23 -3.83301 31 -11.5
s12 -17.834 12 -30.501c0 -13.333 -4 -23.833 -12 -31.5s-18.667 -11.5 -32 -11.5c-12.667 0 -22.834 3.83301 -30.501 11.5s-11.5 17.5 -11.5 29.5z" />
    <glyph glyph-name="gdotaccent" unicode="&#x121;" horiz-adv-x="360" 
d="M40 259c0 41.333 13.0039 75.1689 39.0039 101.502s59.333 39.5 100 39.5c14.667 0 28 -1.66699 40 -5c10.667 -3.33301 22.667 -5 36 -5h95v-48h-57v-1c12.667 -22 19 -46.333 19 -73c0 -44 -12.833 -79.667 -38.5 -107s-58.834 -41 -99.501 -41
c-18.667 0 -35.334 2.66699 -50.001 8c-12.667 -14.667 -19 -28.667 -19 -42c0 -8 2.66699 -14.333 8 -19s13.666 -7 24.999 -7h70c44 0 77.833 -9 101.5 -27s35.5 -44.667 35.5 -80c0 -43.333 -17.333 -78 -52 -104s-78.334 -39 -131.001 -39c-42.667 0 -77 10 -103 30
s-39 45.667 -39 77c0 36 18 69 54 99c-16 13.333 -24 30.666 -24 51.999c0 26.667 14.333 52 43 76c-35.333 27.333 -53 65.666 -53 114.999zM111.004 0.00292969c-20.667 -20 -31.001 -43.333 -31.001 -70c0 -22.667 7.33301 -40.5 22 -53.5s37.334 -19.5 68.001 -19.5
c36 0 64.167 7.5 84.5 22.5s30.5 34.5 30.5 58.5c0 20.667 -6.83301 36.167 -20.5 46.5s-32.5 15.5 -56.5 15.5h-97zM102.003 264.003c0 -30 6.33203 -53.499 18.999 -70.499s31.667 -25.5 57 -25.5c24 0 42 7.66699 54 23s18 38.666 18 69.999
c0 30.667 -6.16699 53.167 -18.5 67.5s-31.166 21.5 -56.499 21.5c-24 0 -42.167 -7 -54.5 -21s-18.5 -35.667 -18.5 -65zM137.002 496.004c0 14 3.83398 24.834 11.501 32.501s18.167 11.5 31.5 11.5c12.667 0 23 -3.83301 31 -11.5s12 -17.834 12 -30.501
c0 -13.333 -4 -23.833 -12 -31.5s-18.667 -11.5 -32 -11.5c-12.667 0 -22.834 3.83301 -30.501 11.5s-11.5 17.5 -11.5 29.5z" />
    <glyph glyph-name="Gcommaaccent" unicode="&#x122;" horiz-adv-x="510" 
d="M310 250h170v-50h-40v-175c-50 -23.333 -102 -35 -156 -35c-77.333 0 -137.333 24.833 -180 74.5s-64 118.167 -64 205.5c0 86.667 22 155 66 205s103 75 177 75c51.333 0 103.666 -10.667 156.999 -32v-128h-55v89c-29.333 10.667 -64 16 -104 16
c-57.333 0 -101.333 -18.167 -132 -54.5s-46 -91.833 -46 -166.5c0 -78 16 -135.667 48 -173s77 -56 135 -56c30.667 0 62.334 4.66699 95.001 14v141h-71v50zM255 -40h63l-41 -120h-41z" />
    <glyph glyph-name="gcommaaccent" unicode="&#x123;" horiz-adv-x="360" 
d="M40 259c0 41.333 13.0039 75.1689 39.0039 101.502s59.333 39.5 100 39.5c14.667 0 28 -1.66699 40 -5c10.667 -3.33301 22.667 -5 36 -5h95v-48h-57v-1c12.667 -22 19 -46.333 19 -73c0 -44 -12.833 -79.667 -38.5 -107s-58.834 -41 -99.501 -41
c-18.667 0 -35.334 2.66699 -50.001 8c-12.667 -14.667 -19 -28.667 -19 -42c0 -8 2.66699 -14.333 8 -19s13.666 -7 24.999 -7h70c44 0 77.833 -9 101.5 -27s35.5 -44.667 35.5 -80c0 -43.333 -17.333 -78 -52 -104s-78.334 -39 -131.001 -39c-42.667 0 -77 10 -103 30
s-39 45.667 -39 77c0 36 18 69 54 99c-16 13.333 -24 30.666 -24 51.999c0 26.667 14.333 52 43 76c-35.333 27.333 -53 65.666 -53 114.999zM111.004 0.00292969c-20.667 -20 -31.001 -43.333 -31.001 -70c0 -22.667 7.33301 -40.5 22 -53.5s37.334 -19.5 68.001 -19.5
c36 0 64.167 7.5 84.5 22.5s30.5 34.5 30.5 58.5c0 20.667 -6.83301 36.167 -20.5 46.5s-32.5 15.5 -56.5 15.5h-97zM102.003 264.003c0 -30 6.33203 -53.499 18.999 -70.499s31.667 -25.5 57 -25.5c24 0 42 7.66699 54 23s18 38.666 18 69.999
c0 30.667 -6.16699 53.167 -18.5 67.5s-31.166 21.5 -56.499 21.5c-24 0 -42.167 -7 -54.5 -21s-18.5 -35.667 -18.5 -65zM210.002 430.004h-63l41 120h41z" />
    <glyph glyph-name="Hcircumflex" unicode="&#x124;" horiz-adv-x="570" 
d="M30 50h60v440h-60v50h180v-50h-60v-190h270v190h-60v50h180v-50h-60v-440h60v-50h-180v50h60v200h-270v-200h60v-50h-180v50zM284 644l-49 -64h-60l85 110h50l85 -110h-60l-49 64h-2z" />
    <glyph glyph-name="hcircumflex" unicode="&#x125;" 
d="M70 550h-49.998v50h110v-256h1c36 37.333 77 56 123 56c33.333 0 57.666 -9.5 72.999 -28.5s23 -45.833 23 -80.5v-241h50v-50h-150v50h40v233c0 26.667 -4.66699 44.5 -14 53.5s-22.333 13.5 -39 13.5c-38.667 0 -74.334 -19 -107.001 -57v-243h40v-50h-150v50h50v500z
M209.002 694l-49 -64h-60l85 110h50l85 -110h-60l-49 64h-2z" />
    <glyph glyph-name="Hbar" unicode="&#x126;" horiz-adv-x="570" 
d="M540 365h-60v-315h60v-50h-180v50h60v190h-270v-190h60v-50h-180v50h60v315h-60v50h60v75h-60v50h180v-50h-60v-75h270v75h-60v50h180v-50h-60v-75h60v-50zM420 290v75h-270v-75h270z" />
    <glyph glyph-name="hbar" unicode="&#x127;" 
d="M70 450h-49.998v46h50v54h-50v50h110v-104h110v-46h-110v-106h1c36 37.333 77 56 123 56c33.333 0 57.666 -9.5 72.999 -28.5s23 -45.833 23 -80.5v-241h50v-50h-150v50h40v233c0 26.667 -4.66699 44.5 -14 53.5s-22.333 13.5 -39 13.5
c-38.667 0 -74.334 -19 -107.001 -57v-243h40v-50h-150v50h50v400z" />
    <glyph glyph-name="Itilde" unicode="&#x128;" horiz-adv-x="240" 
d="M30 50h60v440h-60v50h180v-50h-60v-440h60v-50h-180v50zM15 583v51c15.333 14 33.333 21 54 21c16.667 0 36.667 -6.33301 60 -19c17.333 -8.66699 32 -13 44 -13c20 0 36.667 7.66699 50 23h2v-51c-15.333 -14 -33.333 -21 -54 -21c-16.667 0 -36.667 6.33301 -60 19
c-17.333 8.66699 -32 13 -44 13c-20 0 -36.667 -7.66699 -50 -23h-2z" />
    <glyph glyph-name="itilde" unicode="&#x129;" horiz-adv-x="210" 
d="M30 50h50v290h-50v50h110v-340h50v-50h-160v50zM-10 463v51c20.667 14.667 42 22 64 22c17.333 0 37.666 -6 60.999 -18c16.667 -8 31 -12 43 -12c21.333 0 41.333 8 60 24h2v-51c-20.667 -14.667 -42 -22 -64 -22c-17.333 0 -37.666 6 -60.999 18
c-16.667 8 -31 12 -43 12c-21.333 0 -41.333 -8 -60 -24h-2z" />
    <glyph glyph-name="Imacron" unicode="&#x12a;" horiz-adv-x="240" 
d="M30 50h60v440h-60v50h180v-50h-60v-440h60v-50h-180v50zM25 637h190v-47h-190v47z" />
    <glyph glyph-name="imacron" unicode="&#x12b;" horiz-adv-x="210" 
d="M30 50h50v290h-50v50h110v-340h50v-50h-160v50zM0 510h210v-48h-210v48z" />
    <glyph glyph-name="Ibreve" unicode="&#x12c;" horiz-adv-x="240" 
d="M30 50h60v440h-60v50h180v-50h-60v-440h60v-50h-180v50zM120 626c18 0 32.667 5.33301 44 16s18 26.667 20 48h44c-2.66699 -35.333 -13.667 -62.5 -33 -81.5s-44.333 -28.5 -75 -28.5s-55.667 9.5 -75 28.5s-30.333 46.167 -33 81.5h44
c2 -21.333 8.66699 -37.333 20 -48s26 -16 44 -16z" />
    <glyph glyph-name="ibreve" unicode="&#x12d;" horiz-adv-x="210" 
d="M30 50h50v290h-50v50h110v-340h50v-50h-160v50zM41 550c1.33301 -23.333 7.83301 -41.168 19.5 -53.501s26.5 -18.5 44.5 -18.5c18.667 0 33.667 6.33301 45 19s18 30.334 20 53.001h43c-0.666992 -36.667 -10.834 -65.834 -30.501 -87.501s-45.5 -32.5 -77.5 -32.5
c-31.333 0 -56.666 10.833 -75.999 32.5s-30 50.834 -32 87.501h44z" />
    <glyph glyph-name="Iogonek" unicode="&#x12e;" horiz-adv-x="240" 
d="M30 50h60v440h-60v50h180v-50h-60v-440h60v-50h-180v50zM169 -135c14 0 27.666 3.33301 40.999 10v-48c-14.667 -8 -31 -12 -49 -12c-24 0 -44.333 6.83301 -61 20.5s-25 32.5 -25 56.5c0 36.667 19.667 72 59 106v10h55v-8c-39.333 -32 -59 -64 -59 -96
c0 -14 3.83301 -24 11.5 -30s16.834 -9 27.501 -9z" />
    <glyph glyph-name="iogonek" unicode="&#x12f;" horiz-adv-x="210" 
d="M30 50h50v290h-50v50h110v-340h50v-50h-160v50zM63 496c0 14 3.83398 24.834 11.501 32.501s18.167 11.5 31.5 11.5c12.667 0 23 -3.83301 31 -11.5s12 -17.834 12 -30.501c0 -13.333 -4 -23.833 -12 -31.5s-18.667 -11.5 -32 -11.5
c-12.667 0 -22.834 3.83301 -30.501 11.5s-11.5 17.5 -11.5 29.5zM149.001 -134.999c14 0 27.666 3.33301 40.999 10v-48c-14.667 -8 -31 -12 -49 -12c-24 0 -44.333 6.83301 -61 20.5s-25 32.5 -25 56.5c0 36.667 19.667 72 59 106v10h55v-8c-39.333 -32 -59 -64 -59 -96
c0 -14 3.83301 -24 11.5 -30s16.834 -9 27.501 -9z" />
    <glyph glyph-name="Idotaccent" unicode="&#x130;" horiz-adv-x="240" 
d="M30 50h60v440h-60v50h180v-50h-60v-440h60v-50h-180v50zM77 621c0 14 3.83398 24.834 11.501 32.501s18.167 11.5 31.5 11.5c12.667 0 23 -3.83301 31 -11.5s12 -17.834 12 -30.501c0 -13.333 -4 -23.833 -12 -31.5s-18.667 -11.5 -32 -11.5
c-12.667 0 -22.834 3.83301 -30.501 11.5s-11.5 17.5 -11.5 29.5z" />
    <glyph glyph-name="dotlessi" unicode="&#x131;" horiz-adv-x="210" 
d="M30 50h50v290h-50v50h110v-340h50v-50h-160v50z" />
    <glyph glyph-name="IJ" unicode="&#x132;" horiz-adv-x="480" 
d="M30 50h60v440h-60v50h180v-50h-60v-440h60v-50h-180v50zM246 -95c8.66699 -0.666992 16.667 -1 24 -1c22 0 37.5 5 46.5 15s13.5 30.333 13.5 61v510h-60v50h180v-50h-60v-503c0 -44.667 -8.5 -78.667 -25.5 -102s-46.5 -35 -88.5 -35c-10 0 -20 1 -30 3v52z" />
    <glyph glyph-name="ij" unicode="&#x133;" horiz-adv-x="390" 
d="M30 50h50v290h-50v50h110v-340h50v-50h-160v50zM63 496c0 14 3.83398 24.834 11.501 32.501s18.167 11.5 31.5 11.5c12.667 0 23 -3.83301 31 -11.5s12 -17.834 12 -30.501c0 -13.333 -4 -23.833 -12 -31.5s-18.667 -11.5 -32 -11.5
c-12.667 0 -22.834 3.83301 -30.501 11.5s-11.5 17.5 -11.5 29.5zM315.001 -148.999c-16 -22 -41.668 -33.001 -77.001 -33.001c-9.33301 0 -18.666 0.666992 -27.999 2v50c5.33301 -0.666992 11 -1 17 -1c20.667 0 34.667 5.33301 42 16s11 29.667 11 57v398h-50v50h110
v-439c0 -45.333 -8.33301 -78.666 -25 -99.999zM263 496c0 14 3.83398 24.834 11.501 32.501s18.167 11.5 31.5 11.5c12.667 0 23 -3.83301 31 -11.5s12 -17.834 12 -30.501c0 -13.333 -4 -23.833 -12 -31.5s-18.667 -11.5 -32 -11.5
c-12.667 0 -22.834 3.83301 -30.501 11.5s-11.5 17.5 -11.5 29.5z" />
    <glyph glyph-name="Jcircumflex" unicode="&#x134;" horiz-adv-x="240" 
d="M6 -95c8.66699 -0.666992 16.667 -1 24 -1c22 0 37.5 5 46.5 15s13.5 30.333 13.5 61v510h-60v50h180v-50h-60v-503c0 -44.667 -8.5 -78.667 -25.5 -102s-46.5 -35 -88.5 -35c-10 0 -20 1 -30 3v52zM119 644l-49 -64h-60l85 110h50l85 -110h-60l-49 64h-2z" />
    <glyph glyph-name="jcircumflex" unicode="&#x135;" horiz-adv-x="180" 
d="M105 -149c-16 -22 -41.668 -33.001 -77.001 -33.001c-9.33301 0 -18.666 0.666992 -27.999 2v50c5.33301 -0.666992 11 -1 17 -1c20.667 0 34.667 5.33301 42 16s11 29.667 11 57v398h-50v50h110v-439c0 -45.333 -8.33301 -78.666 -25 -99.999zM88.999 504.999l-57 -75
h-60l94 120h48l94 -120h-60l-57 75h-2z" />
    <glyph glyph-name="Kcommaaccent" unicode="&#x136;" horiz-adv-x="480" 
d="M300 490v50h160v-50h-50l-184 -204l193 -236h61v-50h-180v50h41v2l-186 229l187 207v2h-42zM30 50h60v440h-60v50h180v-50h-60v-440h60v-50h-180v50zM225 -40h63l-41 -120h-41z" />
    <glyph glyph-name="kcommaaccent" unicode="&#x137;" horiz-adv-x="390" 
d="M30 50h50v500h-50v50h110v-550h40v-50h-150v50zM230 390h150v-50h-53l-114 -121l131 -169h46v-50h-155v50h37l1 2l-123 161l117 127h-37v50zM180 -40h63l-41 -120h-41z" />
    <glyph glyph-name="Lacute" unicode="&#x139;" horiz-adv-x="390" 
d="M210 490h-60v-440h167v70h53v-120h-340v50h60v440h-60v50h180v-50zM155 690h70l-86 -110h-44z" />
    <glyph glyph-name="lacute" unicode="&#x13a;" horiz-adv-x="210" 
d="M30 50h50v500h-50v50h110v-550h50v-50h-160v50zM140 740h70l-86 -110h-44z" />
    <glyph glyph-name="Lcommaaccent" unicode="&#x13b;" horiz-adv-x="390" 
d="M210 490h-60v-440h167v70h53v-120h-340v50h60v440h-60v50h180v-50zM180 -40h63l-41 -120h-41z" />
    <glyph glyph-name="lcommaaccent" unicode="&#x13c;" horiz-adv-x="210" 
d="M30 50h50v500h-50v50h110v-550h50v-50h-160v50zM80 -40h63l-41 -120h-41z" />
    <glyph glyph-name="Lcaron" unicode="&#x13d;" horiz-adv-x="390" 
d="M210 490h-60v-440h167v70h53v-120h-340v50h60v440h-60v50h180v-50zM292 550h61l-40 -130h-43z" />
    <glyph glyph-name="lcaron" unicode="&#x13e;" horiz-adv-x="270" 
d="M30 50h50v500h-50v50h110v-550h50v-50h-160v50zM210 550h60l-40 -130h-42z" />
    <glyph glyph-name="Ldot" unicode="&#x13f;" horiz-adv-x="390" 
d="M210 490h-60v-440h167v70h53v-120h-340v50h60v440h-60v50h180v-50zM273 299c0 14 3.66699 24.834 11 32.501s17.666 11.5 30.999 11.5c12.667 0 22.834 -3.83301 30.501 -11.5s11.5 -17.834 11.5 -30.501c0 -13.333 -3.83301 -23.833 -11.5 -31.5
s-18.167 -11.5 -31.5 -11.5c-12.667 0 -22.667 3.83301 -30 11.5s-11 17.5 -11 29.5z" />
    <glyph glyph-name="ldot" unicode="&#x140;" horiz-adv-x="240" 
d="M190 299c0 13.333 3.5 23.668 10.5 31.001s16.833 11 29.5 11c12 0 21.667 -3.66699 29 -11s11 -17 11 -29c0 -12.667 -3.66699 -22.667 -11 -30s-17.333 -11 -30 -11c-12 0 -21.5 3.66699 -28.5 11s-10.5 16.666 -10.5 27.999zM30 50.002h50v500h-50v50h110v-550h50v-50
h-160v50z" />
    <glyph glyph-name="Lslash" unicode="&#x141;" horiz-adv-x="390" 
d="M210 490h-60v-181l120 61v-55l-120 -61v-204h167v70h53v-120h-340v50h60v177l-60 -30v55l60 30v208h-60v50h180v-50z" />
    <glyph glyph-name="lslash" unicode="&#x142;" horiz-adv-x="210" 
d="M30 50h50v258l-60 -22v52l60 22v190h-50v50h110v-222l60 22v-52l-60 -22v-276h50v-50h-160v50z" />
    <glyph glyph-name="Nacute" unicode="&#x143;" horiz-adv-x="540" 
d="M394 490h-60v50h176v-50h-60v-490h-58l-244 421h-2v-371h60v-50h-176v50h60v440h-60v50h120l242 -416h2v366zM305 690h70l-86 -110h-44z" />
    <glyph glyph-name="nacute" unicode="&#x144;" 
d="M30 50h50.002v290h-50v50h106l3 -52h1c36 41.333 77.333 62 124 62c33.333 0 57.666 -9.5 72.999 -28.5s23 -45.833 23 -80.5v-241h50v-50h-150v50h40v233c0 26.667 -4.66699 44.5 -14 53.5s-22.333 13.5 -39 13.5c-38.667 0 -74.334 -20.667 -107.001 -62v-238h40v-50
h-150v50zM250.002 550h70l-80 -120h-46z" />
    <glyph glyph-name="Ncommaaccent" unicode="&#x145;" horiz-adv-x="540" 
d="M394 490h-60v50h176v-50h-60v-490h-58l-244 421h-2v-371h60v-50h-176v50h60v440h-60v50h120l242 -416h2v366zM240 -40h63l-41 -120h-41z" />
    <glyph glyph-name="ncommaaccent" unicode="&#x146;" 
d="M30 50h50.002v290h-50v50h106l3 -52h1c36 41.333 77.333 62 124 62c33.333 0 57.666 -9.5 72.999 -28.5s23 -45.833 23 -80.5v-241h50v-50h-150v50h40v233c0 26.667 -4.66699 44.5 -14 53.5s-22.333 13.5 -39 13.5c-38.667 0 -74.334 -20.667 -107.001 -62v-238h40v-50
h-150v50zM190.002 -40h63l-41 -120h-41z" />
    <glyph glyph-name="Ncaron" unicode="&#x147;" horiz-adv-x="540" 
d="M394 490h-60v50h176v-50h-60v-490h-58l-244 421h-2v-371h60v-50h-176v50h60v440h-60v50h120l242 -416h2v366zM271 626l49 64h60l-85 -110h-50l-85 110h60l49 -64h2z" />
    <glyph glyph-name="ncaron" unicode="&#x148;" 
d="M30 50h50.002v290h-50v50h106l3 -52h1c36 41.333 77.333 62 124 62c33.333 0 57.666 -9.5 72.999 -28.5s23 -45.833 23 -80.5v-241h50v-50h-150v50h40v233c0 26.667 -4.66699 44.5 -14 53.5s-22.333 13.5 -39 13.5c-38.667 0 -74.334 -20.667 -107.001 -62v-238h40v-50
h-150v50zM226.002 475l57 75h60l-94 -120h-48l-94 120h60l57 -75h2z" />
    <glyph glyph-name="Eng" unicode="&#x14a;" horiz-adv-x="540" 
d="M394 490h-59.999v50h176v-50h-60v-507c0 -42 -8.33301 -74.667 -25 -98s-45.334 -35 -86.001 -35c-9.33301 0 -19 1 -29 3v52c8.66699 -0.666992 16.667 -1 24 -1c22 0 37.5 5 46.5 15s13.5 30.333 13.5 61v20l-246 421h-2v-371h60v-50h-176v50h60v440h-60v50h120
l242 -415h2v365z" />
    <glyph glyph-name="eng" unicode="&#x14b;" 
d="M300 -58l0.000976562 340.999c0 26.667 -4.66699 44.5 -14 53.5s-22.333 13.5 -39 13.5c-38.667 0 -74.334 -20.667 -107.001 -62v-238h40v-50h-150v50h50v290h-50v50h106l3 -52h1c36 41.333 77.333 62 124 62c33.333 0 57.666 -9.5 72.999 -28.5s23 -45.833 23 -80.5
v-340c0 -45.333 -8.33301 -78.666 -25 -99.999c-16 -22 -41.667 -33 -77 -33c-9.33301 0 -18.666 0.666992 -27.999 2v50c5.33301 -0.666992 11 -1 17 -1c20.667 0 34.667 5.33301 42 16s11 29.667 11 57z" />
    <glyph glyph-name="Omacron" unicode="&#x14c;" horiz-adv-x="510" 
d="M47 271c0 86.667 19.168 154.834 57.501 204.501s90.166 74.5 155.499 74.5c64 0 113.833 -24 149.5 -72s53.5 -114.667 53.5 -200c0 -90.667 -19.167 -161.334 -57.5 -212.001s-89.5 -76 -153.5 -76c-62 0 -111.667 24.833 -149 74.5s-56 118.5 -56 206.5zM110.001 274
c0 -74.667 12.832 -131.5 38.499 -170.5s61.167 -58.5 106.5 -58.5s80.833 19.5 106.5 58.5s38.5 96.167 38.5 171.5c0 72.667 -12.167 127.5 -36.5 164.5s-59.833 55.5 -106.5 55.5c-47.333 0 -83.666 -18 -108.999 -54s-38 -91.667 -38 -167zM160 637h190v-47h-190v47z
" />
    <glyph glyph-name="omacron" unicode="&#x14d;" horiz-adv-x="390" 
d="M35 193c0 63.333 15.501 113.668 46.501 151.001s70.167 56 117.5 56s85.166 -17.333 113.499 -52s42.5 -83.334 42.5 -146.001c0 -64 -15 -115.333 -45 -154s-69.333 -58 -118 -58c-48 0 -86.167 18.5 -114.5 55.5s-42.5 86.167 -42.5 147.5zM98.001 202.002
c0 -52.667 8.49902 -92.834 25.499 -120.501s41.5 -41.5 73.5 -41.5c30 0 53.333 12.833 70 38.5s25 64.834 25 117.501c0 102.667 -32.667 154 -98 154c-31.333 0 -55.166 -11.833 -71.499 -35.5s-24.5 -61.167 -24.5 -112.5zM90 510.002h210v-48h-210v48z" />
    <glyph glyph-name="Obreve" unicode="&#x14e;" horiz-adv-x="510" 
d="M47 271c0 86.667 19.168 154.834 57.501 204.501s90.166 74.5 155.499 74.5c64 0 113.833 -24 149.5 -72s53.5 -114.667 53.5 -200c0 -90.667 -19.167 -161.334 -57.5 -212.001s-89.5 -76 -153.5 -76c-62 0 -111.667 24.833 -149 74.5s-56 118.5 -56 206.5zM110.001 274
c0 -74.667 12.832 -131.5 38.499 -170.5s61.167 -58.5 106.5 -58.5s80.833 19.5 106.5 58.5s38.5 96.167 38.5 171.5c0 72.667 -12.167 127.5 -36.5 164.5s-59.833 55.5 -106.5 55.5c-47.333 0 -83.666 -18 -108.999 -54s-38 -91.667 -38 -167zM255 626
c18 0 32.667 5.33301 44 16s18 26.667 20 48h44c-2.66699 -35.333 -13.667 -62.5 -33 -81.5s-44.333 -28.5 -75 -28.5s-55.667 9.5 -75 28.5s-30.333 46.167 -33 81.5h44c2 -21.333 8.66699 -37.333 20 -48s26 -16 44 -16z" />
    <glyph glyph-name="obreve" unicode="&#x14f;" horiz-adv-x="390" 
d="M35 193c0 63.333 15.501 113.668 46.501 151.001s70.167 56 117.5 56s85.166 -17.333 113.499 -52s42.5 -83.334 42.5 -146.001c0 -64 -15 -115.333 -45 -154s-69.333 -58 -118 -58c-48 0 -86.167 18.5 -114.5 55.5s-42.5 86.167 -42.5 147.5zM98.001 202.002
c0 -52.667 8.49902 -92.834 25.499 -120.501s41.5 -41.5 73.5 -41.5c30 0 53.333 12.833 70 38.5s25 64.834 25 117.501c0 102.667 -32.667 154 -98 154c-31.333 0 -55.166 -11.833 -71.499 -35.5s-24.5 -61.167 -24.5 -112.5zM131 550.002
c1.33301 -23.333 7.83301 -41.168 19.5 -53.501s26.5 -18.5 44.5 -18.5c18.667 0 33.667 6.33301 45 19s18 30.334 20 53.001h43c-0.666992 -36.667 -10.834 -65.834 -30.501 -87.501s-45.5 -32.5 -77.5 -32.5c-31.333 0 -56.666 10.833 -75.999 32.5s-30 50.834 -32 87.501
h44z" />
    <glyph glyph-name="Ohungarumlaut" unicode="&#x150;" horiz-adv-x="510" 
d="M47 271c0 86.667 19.168 154.834 57.501 204.501s90.166 74.5 155.499 74.5c64 0 113.833 -24 149.5 -72s53.5 -114.667 53.5 -200c0 -90.667 -19.167 -161.334 -57.5 -212.001s-89.5 -76 -153.5 -76c-62 0 -111.667 24.833 -149 74.5s-56 118.5 -56 206.5zM110.001 274
c0 -74.667 12.832 -131.5 38.499 -170.5s61.167 -58.5 106.5 -58.5s80.833 19.5 106.5 58.5s38.5 96.167 38.5 171.5c0 72.667 -12.167 127.5 -36.5 164.5s-59.833 55.5 -106.5 55.5c-47.333 0 -83.666 -18 -108.999 -54s-38 -91.667 -38 -167zM240 690h62l-78 -110h-44z
M344 690h65l-86 -110h-43z" />
    <glyph glyph-name="ohungarumlaut" unicode="&#x151;" horiz-adv-x="390" 
d="M35 193c0 63.333 15.501 113.668 46.501 151.001s70.167 56 117.5 56s85.166 -17.333 113.499 -52s42.5 -83.334 42.5 -146.001c0 -64 -15 -115.333 -45 -154s-69.333 -58 -118 -58c-48 0 -86.167 18.5 -114.5 55.5s-42.5 86.167 -42.5 147.5zM98.001 202.002
c0 -52.667 8.49902 -92.834 25.499 -120.501s41.5 -41.5 73.5 -41.5c30 0 53.333 12.833 70 38.5s25 64.834 25 117.501c0 102.667 -32.667 154 -98 154c-31.333 0 -55.166 -11.833 -71.499 -35.5s-24.5 -61.167 -24.5 -112.5zM169 550.002h63l-73 -120h-45zM274 550.002h65
l-80 -120h-44z" />
    <glyph glyph-name="OE" unicode="&#x152;" horiz-adv-x="690" 
d="M607 50v70h53v-120h-300v14c-27.333 -16 -59.666 -24 -96.999 -24c-67.333 0 -120.166 24.5 -158.499 73.5s-57.5 117.5 -57.5 205.5c0 88.667 19.667 157.667 59 207s93.666 74 162.999 74c33.333 0 63.666 -6 90.999 -18v8h290v-120h-53v70h-177v-190h100v50h50v-160
h-50v60h-100v-200h187zM267 495c-52 0 -91.167 -17.833 -117.5 -53.5s-39.5 -91.167 -39.5 -166.5c0 -74.667 13.167 -131.667 39.5 -171s64.833 -59 115.5 -59c38 0 69.667 9.66699 95 29v397c-25.333 16 -56.333 24 -93 24z" />
    <glyph glyph-name="oe" unicode="&#x153;" horiz-adv-x="600" 
d="M570 192l-228.999 0.00195312c1.33301 -46.667 10.333 -83 27 -109s43.667 -39.667 81 -41c40.667 0 77.667 11 111 33v-54c-32 -20.667 -70.333 -31 -115 -31c-62 0 -106.667 25 -134 75h-2c-29.333 -50 -70.333 -75 -123 -75c-45.333 0 -81.833 18.667 -109.5 56
s-41.5 86.333 -41.5 147c0 61.333 14.833 111.166 44.5 149.499s67.5 57.5 113.5 57.5c53.333 0 93.333 -24 120 -72h2c31.333 48 73.666 72 126.999 72c38.667 0 69.667 -15.333 93 -46s35 -74.334 35 -131.001v-31zM98.001 202.002c0 -51.333 8 -91.166 24 -119.499
s39 -42.5 69 -42.5c28 0 49.833 13.167 65.5 39.5s23.5 65.166 23.5 116.499c0 50 -7.66699 88.167 -23 114.5s-38.333 39.5 -69 39.5c-28 0 -50 -11.667 -66 -35s-24 -61 -24 -113zM510.001 240.002c0 38 -6.66895 65.833 -20.002 83.5s-32.666 26.5 -57.999 26.5
c-24 0 -44.167 -9.16699 -60.5 -27.5s-26.166 -45.833 -29.499 -82.5h168z" />
    <glyph glyph-name="Racute" unicode="&#x154;" horiz-adv-x="450" 
d="M150 50l60 0.000976562v-50h-180v50h60v440h-53v50h174c62 0 107.333 -11.333 136 -34s43 -56.334 43 -101.001c0 -79.333 -42 -128 -126 -146v-2c9.33301 -5.33301 19.333 -13.5 30 -24.5s24 -31.5 40 -61.5l66 -121h50v-50h-96c-8 18 -15.667 34 -23 48l-21 39l-37 69
c-13.333 23.333 -24 41 -32 53s-17 22 -27 30c-10 7.33301 -23 11 -39 11h-25v-200zM198 300.001c42.667 0 74.833 7.83203 96.5 23.499s32.5 40.834 32.5 75.501c0 34 -9.83301 57.667 -29.5 71s-50.5 20 -92.5 20h-55v-190h48zM244.999 690h70l-86 -110h-44z" />
    <glyph glyph-name="racute" unicode="&#x155;" horiz-adv-x="270" 
d="M30 50h49.999v290h-50v50h107l3 -56h2c12.667 21.333 26.667 37 42 47s33.666 15 54.999 15c8 0 15 -0.666992 21 -2v-63c-10 2 -20.333 3 -31 3c-19.333 0 -36.166 -4.5 -50.499 -13.5s-27.166 -23.5 -38.499 -43.5v-227h60v-50h-170v50zM174.999 550h70l-80 -120h-46z
" />
    <glyph glyph-name="Rcommaaccent" unicode="&#x156;" horiz-adv-x="450" 
d="M150 50l60 0.000976562v-50h-180v50h60v440h-53v50h174c62 0 107.333 -11.333 136 -34s43 -56.334 43 -101.001c0 -79.333 -42 -128 -126 -146v-2c9.33301 -5.33301 19.333 -13.5 30 -24.5s24 -31.5 40 -61.5l66 -121h50v-50h-96c-8 18 -15.667 34 -23 48l-21 39l-37 69
c-13.333 23.333 -24 41 -32 53s-17 22 -27 30c-10 7.33301 -23 11 -39 11h-25v-200zM198 300.001c42.667 0 74.833 7.83203 96.5 23.499s32.5 40.834 32.5 75.501c0 34 -9.83301 57.667 -29.5 71s-50.5 20 -92.5 20h-55v-190h48zM209.999 -40h63l-41 -120h-41z" />
    <glyph glyph-name="rcommaaccent" unicode="&#x157;" horiz-adv-x="270" 
d="M30 50h49.999v290h-50v50h107l3 -56h2c12.667 21.333 26.667 37 42 47s33.666 15 54.999 15c8 0 15 -0.666992 21 -2v-63c-10 2 -20.333 3 -31 3c-19.333 0 -36.166 -4.5 -50.499 -13.5s-27.166 -23.5 -38.499 -43.5v-227h60v-50h-170v50zM79.999 -40h63l-41 -120h-41z
" />
    <glyph glyph-name="Rcaron" unicode="&#x158;" horiz-adv-x="450" 
d="M150 50l60 0.000976562v-50h-180v50h60v440h-53v50h174c62 0 107.333 -11.333 136 -34s43 -56.334 43 -101.001c0 -79.333 -42 -128 -126 -146v-2c9.33301 -5.33301 19.333 -13.5 30 -24.5s24 -31.5 40 -61.5l66 -121h50v-50h-96c-8 18 -15.667 34 -23 48l-21 39l-37 69
c-13.333 23.333 -24 41 -32 53s-17 22 -27 30c-10 7.33301 -23 11 -39 11h-25v-200zM198 300.001c42.667 0 74.833 7.83203 96.5 23.499s32.5 40.834 32.5 75.501c0 34 -9.83301 57.667 -29.5 71s-50.5 20 -92.5 20h-55v-190h48zM210.999 626l49 64h60l-85 -110h-50l-85 110
h60l49 -64h2z" />
    <glyph glyph-name="rcaron" unicode="&#x159;" horiz-adv-x="270" 
d="M30 50h49.999v290h-50v50h107l3 -56h2c12.667 21.333 26.667 37 42 47s33.666 15 54.999 15c8 0 15 -0.666992 21 -2v-63c-10 2 -20.333 3 -31 3c-19.333 0 -36.166 -4.5 -50.499 -13.5s-27.166 -23.5 -38.499 -43.5v-227h60v-50h-170v50zM150.999 475l57 75h60l-94 -120
h-48l-94 120h60l57 -75h2z" />
    <glyph glyph-name="Sacute" unicode="&#x15a;" horiz-adv-x="390" 
d="M177 -10c-50.667 0 -97.665 9.33301 -140.998 28v112h54v-74c23.333 -8.66699 54 -13 92 -13c36.667 0 65.167 8.5 85.5 25.5s30.5 40.167 30.5 69.5c0 15.333 -2.83301 28.5 -8.5 39.5s-13.334 20.667 -23.001 29s-21.834 16 -36.501 23s-31.334 14.167 -50.001 21.5
c-18 6.66699 -35.833 13.834 -53.5 21.501s-33.667 17.167 -48 28.5s-26 25.666 -35 42.999s-13.5 38 -13.5 62c0 43.333 16 78.166 48 104.499s75.333 39.5 130 39.5c48 0 92 -10 132 -30v-110h-54v72c-24 10 -51.667 15 -83 15c-36.667 0 -64.334 -8.66699 -83.001 -26
s-28 -38 -28 -62c0 -14.667 2.83301 -27.167 8.5 -37.5s13.667 -19.5 24 -27.5s23 -15 38 -21l50.5 -20c18.667 -7.33301 36.834 -15.166 54.501 -23.499s33.334 -18.333 47.001 -30s24.667 -26 33 -43s12.5 -38.5 12.5 -64.5c0 -46 -16.5 -82.833 -49.5 -110.5
s-77.5 -41.5 -133.5 -41.5zM230.002 690h70l-86 -110h-44z" />
    <glyph glyph-name="sacute" unicode="&#x15b;" horiz-adv-x="330" 
d="M154 -10c-41.333 0 -79.332 8.00391 -113.999 24.0039v86h52v-52c20 -6 42 -9 66 -9c30 0 51.167 5.16699 63.5 15.5s18.5 24.833 18.5 43.5c0 17.333 -7.33301 31.166 -22 41.499s-37.667 21.166 -69 32.499c-44 16 -74 33.167 -90 51.5s-24 39.833 -24 64.5
c0 32.667 13 59.5 39 80.5s59.333 31.5 100 31.5c37.333 0 72.666 -8 105.999 -24v-86h-52v53c-15.333 6 -34.333 9 -57 9c-25.333 0 -44.333 -5.16699 -57 -15.5s-19 -23.833 -19 -40.5s6.83301 -29.834 20.5 -39.501s35.167 -19.834 64.5 -30.501
c42 -14.667 72.5 -31 91.5 -49s28.5 -42 28.5 -72c0 -34.667 -13.333 -62.5 -40 -83.5s-62 -31.5 -106 -31.5zM190.001 550.004h70l-80 -120h-46z" />
    <glyph glyph-name="Scircumflex" unicode="&#x15c;" horiz-adv-x="390" 
d="M177 -10c-50.667 0 -97.665 9.33301 -140.998 28v112h54v-74c23.333 -8.66699 54 -13 92 -13c36.667 0 65.167 8.5 85.5 25.5s30.5 40.167 30.5 69.5c0 15.333 -2.83301 28.5 -8.5 39.5s-13.334 20.667 -23.001 29s-21.834 16 -36.501 23s-31.334 14.167 -50.001 21.5
c-18 6.66699 -35.833 13.834 -53.5 21.501s-33.667 17.167 -48 28.5s-26 25.666 -35 42.999s-13.5 38 -13.5 62c0 43.333 16 78.166 48 104.499s75.333 39.5 130 39.5c48 0 92 -10 132 -30v-110h-54v72c-24 10 -51.667 15 -83 15c-36.667 0 -64.334 -8.66699 -83.001 -26
s-28 -38 -28 -62c0 -14.667 2.83301 -27.167 8.5 -37.5s13.667 -19.5 24 -27.5s23 -15 38 -21l50.5 -20c18.667 -7.33301 36.834 -15.166 54.501 -23.499s33.334 -18.333 47.001 -30s24.667 -26 33 -43s12.5 -38.5 12.5 -64.5c0 -46 -16.5 -82.833 -49.5 -110.5
s-77.5 -41.5 -133.5 -41.5zM194.002 644l-49 -64h-60l85 110h50l85 -110h-60l-49 64h-2z" />
    <glyph glyph-name="scircumflex" unicode="&#x15d;" horiz-adv-x="330" 
d="M154 -10c-41.333 0 -79.332 8.00391 -113.999 24.0039v86h52v-52c20 -6 42 -9 66 -9c30 0 51.167 5.16699 63.5 15.5s18.5 24.833 18.5 43.5c0 17.333 -7.33301 31.166 -22 41.499s-37.667 21.166 -69 32.499c-44 16 -74 33.167 -90 51.5s-24 39.833 -24 64.5
c0 32.667 13 59.5 39 80.5s59.333 31.5 100 31.5c37.333 0 72.666 -8 105.999 -24v-86h-52v53c-15.333 6 -34.333 9 -57 9c-25.333 0 -44.333 -5.16699 -57 -15.5s-19 -23.833 -19 -40.5s6.83301 -29.834 20.5 -39.501s35.167 -19.834 64.5 -30.501
c42 -14.667 72.5 -31 91.5 -49s28.5 -42 28.5 -72c0 -34.667 -13.333 -62.5 -40 -83.5s-62 -31.5 -106 -31.5zM164.001 505.004l-57 -75h-60l94 120h48l94 -120h-60l-57 75h-2z" />
    <glyph glyph-name="uni015E" unicode="&#x15e;" horiz-adv-x="390" 
d="M177 -10c-50.667 0 -97.665 9.33301 -140.998 28v112h54v-74c23.333 -8.66699 54 -13 92 -13c36.667 0 65.167 8.5 85.5 25.5s30.5 40.167 30.5 69.5c0 15.333 -2.83301 28.5 -8.5 39.5s-13.334 20.667 -23.001 29s-21.834 16 -36.501 23s-31.334 14.167 -50.001 21.5
c-18 6.66699 -35.833 13.834 -53.5 21.501s-33.667 17.167 -48 28.5s-26 25.666 -35 42.999s-13.5 38 -13.5 62c0 43.333 16 78.166 48 104.499s75.333 39.5 130 39.5c48 0 92 -10 132 -30v-110h-54v72c-24 10 -51.667 15 -83 15c-36.667 0 -64.334 -8.66699 -83.001 -26
s-28 -38 -28 -62c0 -14.667 2.83301 -27.167 8.5 -37.5s13.667 -19.5 24 -27.5s23 -15 38 -21l50.5 -20c18.667 -7.33301 36.834 -15.166 54.501 -23.499s33.334 -18.333 47.001 -30s24.667 -26 33 -43s12.5 -38.5 12.5 -64.5c0 -46 -16.5 -82.833 -49.5 -110.5
s-77.5 -41.5 -133.5 -41.5zM110.002 -135c12.667 -2.66699 25.667 -3.99805 39 -3.99805c12.667 0 22.667 2.5 30 7.5s11 13.5 11 25.5c0 21.333 -19 32 -57 32l30 82h46l-19 -52c20 -4.66699 34.167 -12.834 42.5 -24.501s12.5 -24.834 12.5 -39.501
c0 -23.333 -8.66699 -42 -26 -56s-40 -21 -68 -21c-13.333 0 -27 1.66699 -41 5v45z" />
    <glyph glyph-name="scedilla" unicode="&#x15f;" horiz-adv-x="330" 
d="M154 -10c-41.333 0 -79.332 8.00391 -113.999 24.0039v86h52v-52c20 -6 42 -9 66 -9c30 0 51.167 5.16699 63.5 15.5s18.5 24.833 18.5 43.5c0 17.333 -7.33301 31.166 -22 41.499s-37.667 21.166 -69 32.499c-44 16 -74 33.167 -90 51.5s-24 39.833 -24 64.5
c0 32.667 13 59.5 39 80.5s59.333 31.5 100 31.5c37.333 0 72.666 -8 105.999 -24v-86h-52v53c-15.333 6 -34.333 9 -57 9c-25.333 0 -44.333 -5.16699 -57 -15.5s-19 -23.833 -19 -40.5s6.83301 -29.834 20.5 -39.501s35.167 -19.834 64.5 -30.501
c42 -14.667 72.5 -31 91.5 -49s28.5 -42 28.5 -72c0 -34.667 -13.333 -62.5 -40 -83.5s-62 -31.5 -106 -31.5zM90.001 -134.996c12.667 -2.66699 25.667 -3.99805 39 -3.99805c12.667 0 22.667 2.5 30 7.5s11 13.5 11 25.5c0 21.333 -19 32 -57 32l30 82h46l-19 -52
c20 -4.66699 34.167 -12.834 42.5 -24.501s12.5 -24.834 12.5 -39.501c0 -23.333 -8.66699 -42 -26 -56s-40 -21 -68 -21c-13.333 0 -27 1.66699 -41 5v45z" />
    <glyph glyph-name="Scaron" unicode="&#x160;" horiz-adv-x="390" 
d="M177 -10c-50.667 0 -97.665 9.33301 -140.998 28v112h54v-74c23.333 -8.66699 54 -13 92 -13c36.667 0 65.167 8.5 85.5 25.5s30.5 40.167 30.5 69.5c0 15.333 -2.83301 28.5 -8.5 39.5s-13.334 20.667 -23.001 29s-21.834 16 -36.501 23s-31.334 14.167 -50.001 21.5
c-18 6.66699 -35.833 13.834 -53.5 21.501s-33.667 17.167 -48 28.5s-26 25.666 -35 42.999s-13.5 38 -13.5 62c0 43.333 16 78.166 48 104.499s75.333 39.5 130 39.5c48 0 92 -10 132 -30v-110h-54v72c-24 10 -51.667 15 -83 15c-36.667 0 -64.334 -8.66699 -83.001 -26
s-28 -38 -28 -62c0 -14.667 2.83301 -27.167 8.5 -37.5s13.667 -19.5 24 -27.5s23 -15 38 -21l50.5 -20c18.667 -7.33301 36.834 -15.166 54.501 -23.499s33.334 -18.333 47.001 -30s24.667 -26 33 -43s12.5 -38.5 12.5 -64.5c0 -46 -16.5 -82.833 -49.5 -110.5
s-77.5 -41.5 -133.5 -41.5zM196.002 626l49 64h60l-85 -110h-50l-85 110h60l49 -64h2z" />
    <glyph glyph-name="scaron" unicode="&#x161;" horiz-adv-x="330" 
d="M154 -10c-41.333 0 -79.332 8.00391 -113.999 24.0039v86h52v-52c20 -6 42 -9 66 -9c30 0 51.167 5.16699 63.5 15.5s18.5 24.833 18.5 43.5c0 17.333 -7.33301 31.166 -22 41.499s-37.667 21.166 -69 32.499c-44 16 -74 33.167 -90 51.5s-24 39.833 -24 64.5
c0 32.667 13 59.5 39 80.5s59.333 31.5 100 31.5c37.333 0 72.666 -8 105.999 -24v-86h-52v53c-15.333 6 -34.333 9 -57 9c-25.333 0 -44.333 -5.16699 -57 -15.5s-19 -23.833 -19 -40.5s6.83301 -29.834 20.5 -39.501s35.167 -19.834 64.5 -30.501
c42 -14.667 72.5 -31 91.5 -49s28.5 -42 28.5 -72c0 -34.667 -13.333 -62.5 -40 -83.5s-62 -31.5 -106 -31.5zM166.001 475.004l57 75h60l-94 -120h-48l-94 120h60l57 -75h2z" />
    <glyph glyph-name="uni0162" unicode="&#x162;" 
d="M110 50h70v440h-110v-80h-53v130h386v-130h-53v80h-110v-440h70v-50h-200v50zM135 -135c12.667 -2.66699 25.667 -3.99805 39 -3.99805c12.667 0 22.667 2.5 30 7.5s11 13.5 11 25.5c0 21.333 -19 32 -57 32l30 82h46l-19 -52c20 -4.66699 34.167 -12.834 42.5 -24.501
s12.5 -24.834 12.5 -39.501c0 -23.333 -8.66699 -42 -26 -56s-40 -21 -68 -21c-13.333 0 -27 1.66699 -41 5v45z" />
    <glyph glyph-name="tcedilla" unicode="&#x163;" horiz-adv-x="240" 
d="M163 -10c-28.667 0 -51.334 7.5 -68.001 22.5s-25 37.167 -25 66.5v261h-50v50h50v90l60 11v-101h90v-50h-90v-251c0 -19.333 3.83301 -32.333 11.5 -39s17.834 -10 30.501 -10c16 0 32 4 48 12v-49c-18 -8.66699 -37 -13 -57 -13zM75 -135
c12.667 -2.66699 25.667 -3.99805 39 -3.99805c12.667 0 22.667 2.5 30 7.5s11 13.5 11 25.5c0 21.333 -19 32 -57 32l30 82h46l-19 -52c20 -4.66699 34.167 -12.834 42.5 -24.501s12.5 -24.834 12.5 -39.501c0 -23.333 -8.66699 -42 -26 -56s-40 -21 -68 -21
c-13.333 0 -27 1.66699 -41 5v45z" />
    <glyph glyph-name="Tcaron" unicode="&#x164;" 
d="M110 50h70v440h-110v-80h-53v130h386v-130h-53v80h-110v-440h70v-50h-200v50zM211 626l49 64h60l-85 -110h-50l-85 110h60l49 -64h2z" />
    <glyph glyph-name="tcaron" unicode="&#x165;" horiz-adv-x="270" 
d="M163 -10c-28.667 0 -51.334 7.5 -68.001 22.5s-25 37.167 -25 66.5v261h-50v50h50v90l60 11v-101h90v-50h-90v-251c0 -19.333 3.83301 -32.333 11.5 -39s17.834 -10 30.501 -10c16 0 32 4 48 12v-49c-18 -8.66699 -37 -13 -57 -13zM210 550h60l-40 -130h-42z" />
    <glyph glyph-name="Tbar" unicode="&#x166;" 
d="M110 50h70v200h-90v50h90v190h-110v-80h-53v130h386v-130h-53v80h-110v-190h90v-50h-90v-200h70v-50h-200v50z" />
    <glyph glyph-name="tbar" unicode="&#x167;" horiz-adv-x="240" 
d="M163 -10c-28.667 0 -51.334 7.5 -68.001 22.5s-25 37.167 -25 66.5v141h-50v50h50v70h-50v50h50v90l60 11v-101h80v-50h-80v-70h80v-50h-80v-131c0 -19.333 3.83301 -32.333 11.5 -39s17.834 -10 30.501 -10c16 0 32 4 48 12v-49c-18 -8.66699 -37 -13 -57 -13z" />
    <glyph glyph-name="Utilde" unicode="&#x168;" horiz-adv-x="540" 
d="M140 173c0 -42 11.666 -73.833 34.999 -95.5s54.666 -32.5 93.999 -32.5c42.667 0 75.834 11.333 99.501 34s35.5 55 35.5 97v314h-61v50h177v-50h-60v-311c0 -56 -17.167 -101.5 -51.5 -136.5s-81.166 -52.5 -140.499 -52.5c-57.333 0 -103 16.5 -137 49.5
s-51 77.167 -51 132.5v318h-60v50h180v-50h-60v-317zM164.999 583v51c15.333 14 33.333 21 54 21c16.667 0 36.667 -6.33301 60 -19c17.333 -8.66699 32 -13 44 -13c20 0 36.667 7.66699 50 23h2v-51c-15.333 -14 -33.333 -21 -54 -21c-16.667 0 -36.667 6.33301 -60 19
c-17.333 8.66699 -32 13 -44 13c-20 0 -36.667 -7.66699 -50 -23h-2z" />
    <glyph glyph-name="utilde" unicode="&#x169;" 
d="M290 340l-50.001 0.000976562v50h110v-340h50v-50h-105l-3 43h-2c-29.333 -35.333 -66.333 -53 -111 -53c-35.333 0 -62.333 9.33301 -81 28s-28 45.667 -28 81v241h-50v50h110v-281c0 -26.667 5.83301 -44.834 17.5 -54.501s27.5 -14.5 47.5 -14.5
c38.667 0 70.334 15.667 95.001 47v253zM79.999 463.001v51c20.667 14.667 42 22 64 22c17.333 0 37.666 -6 60.999 -18c16.667 -8 31 -12 43 -12c21.333 0 41.333 8 60 24h2v-51c-20.667 -14.667 -42 -22 -64 -22c-17.333 0 -37.666 6 -60.999 18c-16.667 8 -31 12 -43 12
c-21.333 0 -41.333 -8 -60 -24h-2z" />
    <glyph glyph-name="Umacron" unicode="&#x16a;" horiz-adv-x="540" 
d="M140 173c0 -42 11.666 -73.833 34.999 -95.5s54.666 -32.5 93.999 -32.5c42.667 0 75.834 11.333 99.501 34s35.5 55 35.5 97v314h-61v50h177v-50h-60v-311c0 -56 -17.167 -101.5 -51.5 -136.5s-81.166 -52.5 -140.499 -52.5c-57.333 0 -103 16.5 -137 49.5
s-51 77.167 -51 132.5v318h-60v50h180v-50h-60v-317zM174.999 637h190v-47h-190v47z" />
    <glyph glyph-name="umacron" unicode="&#x16b;" 
d="M290 340l-50.001 0.000976562v50h110v-340h50v-50h-105l-3 43h-2c-29.333 -35.333 -66.333 -53 -111 -53c-35.333 0 -62.333 9.33301 -81 28s-28 45.667 -28 81v241h-50v50h110v-281c0 -26.667 5.83301 -44.834 17.5 -54.501s27.5 -14.5 47.5 -14.5
c38.667 0 70.334 15.667 95.001 47v253zM89.999 510.001h210v-48h-210v48z" />
    <glyph glyph-name="Ubreve" unicode="&#x16c;" horiz-adv-x="540" 
d="M140 173c0 -42 11.666 -73.833 34.999 -95.5s54.666 -32.5 93.999 -32.5c42.667 0 75.834 11.333 99.501 34s35.5 55 35.5 97v314h-61v50h177v-50h-60v-311c0 -56 -17.167 -101.5 -51.5 -136.5s-81.166 -52.5 -140.499 -52.5c-57.333 0 -103 16.5 -137 49.5
s-51 77.167 -51 132.5v318h-60v50h180v-50h-60v-317zM269.999 626c18 0 32.667 5.33301 44 16s18 26.667 20 48h44c-2.66699 -35.333 -13.667 -62.5 -33 -81.5s-44.333 -28.5 -75 -28.5s-55.667 9.5 -75 28.5s-30.333 46.167 -33 81.5h44c2 -21.333 8.66699 -37.333 20 -48
s26 -16 44 -16z" />
    <glyph glyph-name="ubreve" unicode="&#x16d;" 
d="M290 340l-50.001 0.000976562v50h110v-340h50v-50h-105l-3 43h-2c-29.333 -35.333 -66.333 -53 -111 -53c-35.333 0 -62.333 9.33301 -81 28s-28 45.667 -28 81v241h-50v50h110v-281c0 -26.667 5.83301 -44.834 17.5 -54.501s27.5 -14.5 47.5 -14.5
c38.667 0 70.334 15.667 95.001 47v253zM130.999 550.001c1.33301 -23.333 7.83301 -41.168 19.5 -53.501s26.5 -18.5 44.5 -18.5c18.667 0 33.667 6.33301 45 19s18 30.334 20 53.001h43c-0.666992 -36.667 -10.834 -65.834 -30.501 -87.501s-45.5 -32.5 -77.5 -32.5
c-31.333 0 -56.666 10.833 -75.999 32.5s-30 50.834 -32 87.501h44z" />
    <glyph glyph-name="Uring" unicode="&#x16e;" horiz-adv-x="540" 
d="M140 173c0 -42 11.666 -73.833 34.999 -95.5s54.666 -32.5 93.999 -32.5c42.667 0 75.834 11.333 99.501 34s35.5 55 35.5 97v314h-61v50h177v-50h-60v-311c0 -56 -17.167 -101.5 -51.5 -136.5s-81.166 -52.5 -140.499 -52.5c-57.333 0 -103 16.5 -137 49.5
s-51 77.167 -51 132.5v318h-60v50h180v-50h-60v-317zM197.999 637c0 20 6.66699 35.5 20 46.5s31.333 16.5 54 16.5s40 -5.5 52 -16.5s18 -25.833 18 -44.5s-6.5 -34 -19.5 -46s-31.167 -18 -54.5 -18c-22 0 -39.167 5.83301 -51.5 17.5s-18.5 26.5 -18.5 44.5zM236.999 639
c0 -12 2.83301 -20.667 8.5 -26s13.834 -8 24.501 -8c10 0 18 3 24 9s9 14.333 9 25c0 10 -3 17.667 -9 23s-14 8 -24 8c-10.667 0 -18.834 -2.66699 -24.501 -8s-8.5 -13 -8.5 -23z" />
    <glyph glyph-name="uring" unicode="&#x16f;" 
d="M290 340l-50.001 0.000976562v50h110v-340h50v-50h-105l-3 43h-2c-29.333 -35.333 -66.333 -53 -111 -53c-35.333 0 -62.333 9.33301 -81 28s-28 45.667 -28 81v241h-50v50h110v-281c0 -26.667 5.83301 -44.834 17.5 -54.501s27.5 -14.5 47.5 -14.5
c38.667 0 70.334 15.667 95.001 47v253zM119.999 495.001c0 20 7 35.834 21 47.501s32.333 17.5 55 17.5c24 0 42.333 -5.83301 55 -17.5s19 -27.167 19 -46.5c0 -18.667 -6.83301 -34.334 -20.5 -47.001s-32.5 -19 -56.5 -19c-22.667 0 -40.5 6.16699 -53.5 18.5
s-19.5 27.833 -19.5 46.5zM160.999 496.002c0 -12 3 -20.833 9 -26.5s14.333 -8.5 25 -8.5c10 0 18.167 3.16699 24.5 9.5s9.5 14.833 9.5 25.5s-3.16699 18.834 -9.5 24.501s-14.5 8.5 -24.5 8.5c-10.667 0 -19 -2.83301 -25 -8.5s-9 -13.834 -9 -24.501z" />
    <glyph glyph-name="Uhungarumlaut" unicode="&#x170;" horiz-adv-x="540" 
d="M140 173c0 -42 11.666 -73.833 34.999 -95.5s54.666 -32.5 93.999 -32.5c42.667 0 75.834 11.333 99.501 34s35.5 55 35.5 97v314h-61v50h177v-50h-60v-311c0 -56 -17.167 -101.5 -51.5 -136.5s-81.166 -52.5 -140.499 -52.5c-57.333 0 -103 16.5 -137 49.5
s-51 77.167 -51 132.5v318h-60v50h180v-50h-60v-317zM254.999 690h62l-78 -110h-44zM358.999 690h65l-86 -110h-43z" />
    <glyph glyph-name="uhungarumlaut" unicode="&#x171;" 
d="M290 340l-50.001 0.000976562v50h110v-340h50v-50h-105l-3 43h-2c-29.333 -35.333 -66.333 -53 -111 -53c-35.333 0 -62.333 9.33301 -81 28s-28 45.667 -28 81v241h-50v50h110v-281c0 -26.667 5.83301 -44.834 17.5 -54.501s27.5 -14.5 47.5 -14.5
c38.667 0 70.334 15.667 95.001 47v253zM168.999 550.001h63l-73 -120h-45zM273.999 550.001h65l-80 -120h-44z" />
    <glyph glyph-name="Uogonek" unicode="&#x172;" horiz-adv-x="540" 
d="M140 173c0 -42 11.666 -73.833 34.999 -95.5s54.666 -32.5 93.999 -32.5c42.667 0 75.834 11.333 99.501 34s35.5 55 35.5 97v314h-61v50h177v-50h-60v-311c0 -56 -17.167 -101.5 -51.5 -136.5s-81.166 -52.5 -140.499 -52.5c-57.333 0 -103 16.5 -137 49.5
s-51 77.167 -51 132.5v318h-60v50h180v-50h-60v-317zM318.999 -135c14 0 27.666 3.33301 40.999 10v-48c-14.667 -8 -31 -12 -49 -12c-24 0 -44.333 6.83301 -61 20.5s-25 32.5 -25 56.5c0 36.667 19.667 72 59 106v10h55v-8c-39.333 -32 -59 -64 -59 -96
c0 -14 3.83301 -24 11.5 -30s16.834 -9 27.501 -9z" />
    <glyph glyph-name="uogonek" unicode="&#x173;" 
d="M290 340l-50.001 0.000976562v50h110v-340h50v-50h-105l-3 43h-2c-29.333 -35.333 -66.333 -53 -111 -53c-35.333 0 -62.333 9.33301 -81 28s-28 45.667 -28 81v241h-50v50h110v-281c0 -26.667 5.83301 -44.834 17.5 -54.501s27.5 -14.5 47.5 -14.5
c38.667 0 70.334 15.667 95.001 47v253zM358.999 -134.999c14 0 27.666 3.33301 40.999 10v-48c-14.667 -8 -31 -12 -49 -12c-24 0 -44.333 6.83301 -61 20.5s-25 32.5 -25 56.5c0 36.667 19.667 72 59 106v10h55v-8c-39.333 -32 -59 -64 -59 -96
c0 -14 3.83301 -24 11.5 -30s16.834 -9 27.501 -9z" />
    <glyph glyph-name="Wcircumflex" unicode="&#x174;" horiz-adv-x="720" 
d="M490 80l121 410h-51v50h160v-50h-52l-154 -495h-58l-96 293h-2l-94 -293h-58l-157 495h-49v50h160v-50h-48l126 -410h2l93 289l-40 121h-53v50h170v-50h-57l135 -410h2zM359 644l-49 -64h-60l85 110h50l85 -110h-60l-49 64h-2z" />
    <glyph glyph-name="wcircumflex" unicode="&#x175;" horiz-adv-x="600" 
d="M433 -5h-57l-79 231h-2l-82 -231h-57l-111 345h-45v50h150v-50h-44l82 -268h2l82 224l-15 44h-47v50h160v-50h-54l92 -268h2l85 268h-45v50h150v-50h-50zM299 505l-57 -75h-60l94 120h48l94 -120h-60l-57 75h-2z" />
    <glyph glyph-name="Ycircumflex" unicode="&#x176;" horiz-adv-x="480" 
d="M210 240l-164 250h-46v50h160v-50h-46l130 -198l126 198h-50v50h160v-50h-47l-163 -250v-190h70v-50h-200v50h70v190zM239 644l-49 -64h-60l85 110h50l85 -110h-60l-49 64h-2z" />
    <glyph glyph-name="ycircumflex" unicode="&#x177;" horiz-adv-x="390" 
d="M340 340l-129.001 -365.003c-8 -23.333 -16.5 -44.666 -25.5 -63.999s-19.333 -36.166 -31 -50.499s-25.5 -25.166 -41.5 -32.499s-35 -11 -57 -11c-12 0 -24 1 -36 3v55c12.667 -2 25 -3 37 -3c10.667 0 20.5 1.16699 29.5 3.5s17.5 7 25.5 14s16.333 18.667 25 35
s18.334 39.833 29.001 70.5h-5l-116 345h-45v50h150v-50h-44l87 -268h2l91 268h-46v50h150v-50h-50zM193.999 504.997l-57 -75h-60l94 120h48l94 -120h-60l-57 75h-2z" />
    <glyph glyph-name="Ydieresis" unicode="&#x178;" horiz-adv-x="480" 
d="M210 240l-164 250h-46v50h160v-50h-46l130 -198l126 198h-50v50h160v-50h-47l-163 -250v-190h70v-50h-200v50h70v190zM125 620c0 13.333 3.83398 23.834 11.501 31.501s17.5 11.5 29.5 11.5c13.333 0 23.666 -3.83301 30.999 -11.5s11 -17.834 11 -30.501
s-3.66699 -22.667 -11 -30s-18 -11 -32 -11c-12 0 -21.667 3.66699 -29 11s-11 17 -11 29zM272.001 620.001c0 13.333 3.83398 23.834 11.501 31.501s17.5 11.5 29.5 11.5c13.333 0 23.666 -3.83301 30.999 -11.5s11 -17.834 11 -30.501s-3.66699 -22.667 -11 -30
s-18 -11 -32 -11c-12 0 -21.667 3.66699 -29 11s-11 17 -11 29z" />
    <glyph glyph-name="Zacute" unicode="&#x179;" horiz-adv-x="450" 
d="M30 45l293 445h-230v-70h-53v120h360v-45l-293 -445h250v70h53v-120h-380v45zM260 690h70l-86 -110h-44z" />
    <glyph glyph-name="zacute" unicode="&#x17a;" horiz-adv-x="360" 
d="M30 43l216 299h-164v-62h-52v110h290v-43l-215 -299h173v62h52v-110h-300v43zM205 550h70l-80 -120h-46z" />
    <glyph glyph-name="Zdotaccent" unicode="&#x17b;" horiz-adv-x="450" 
d="M30 45l293 445h-230v-70h-53v120h360v-45l-293 -445h250v70h53v-120h-380v45zM182 621c0 14 3.83398 24.834 11.501 32.501s18.167 11.5 31.5 11.5c12.667 0 23 -3.83301 31 -11.5s12 -17.834 12 -30.501c0 -13.333 -4 -23.833 -12 -31.5s-18.667 -11.5 -32 -11.5
c-12.667 0 -22.834 3.83301 -30.501 11.5s-11.5 17.5 -11.5 29.5z" />
    <glyph glyph-name="zdotaccent" unicode="&#x17c;" horiz-adv-x="360" 
d="M30 43l216 299h-164v-62h-52v110h290v-43l-215 -299h173v62h52v-110h-300v43zM137 496c0 14 3.83398 24.834 11.501 32.501s18.167 11.5 31.5 11.5c12.667 0 23 -3.83301 31 -11.5s12 -17.834 12 -30.501c0 -13.333 -4 -23.833 -12 -31.5s-18.667 -11.5 -32 -11.5
c-12.667 0 -22.834 3.83301 -30.501 11.5s-11.5 17.5 -11.5 29.5z" />
    <glyph glyph-name="Zcaron" unicode="&#x17d;" horiz-adv-x="450" 
d="M30 45l293 445h-230v-70h-53v120h360v-45l-293 -445h250v70h53v-120h-380v45zM226 626l49 64h60l-85 -110h-50l-85 110h60l49 -64h2z" />
    <glyph glyph-name="zcaron" unicode="&#x17e;" horiz-adv-x="360" 
d="M30 43l216 299h-164v-62h-52v110h290v-43l-215 -299h173v62h52v-110h-300v43zM181 475l57 75h60l-94 -120h-48l-94 120h60l57 -75h2z" />
    <glyph glyph-name="uni0192" unicode="&#x192;" horiz-adv-x="330" 
d="M330 486c-16.667 2.66699 -30.6699 4 -42.0029 4c-32.667 0 -56.667 -8.33301 -72 -25s-24.666 -47 -27.999 -91l-5 -59h97v-45h-100l-16 -200c-4.66699 -60 -19 -106.667 -43 -140s-57.667 -50 -101 -50c-14.667 0 -28 1.33301 -40 4v49c10.667 -2 22.334 -3 35.001 -3
c28.667 0 50 11.333 64 34s23 58.667 27 108l16 198h-72v45h76l6 62c4 53.333 18.333 93.833 43 121.5s60.334 41.5 107.001 41.5c16.667 0 32.667 -1.33301 48 -4v-50z" />
    <glyph glyph-name="uni0218" unicode="&#x218;" horiz-adv-x="390" 
d="M177 -10c-50.667 0 -97.665 9.33301 -140.998 28v112h54v-74c23.333 -8.66699 54 -13 92 -13c36.667 0 65.167 8.5 85.5 25.5s30.5 40.167 30.5 69.5c0 15.333 -2.83301 28.5 -8.5 39.5s-13.334 20.667 -23.001 29s-21.834 16 -36.501 23s-31.334 14.167 -50.001 21.5
c-18 6.66699 -35.833 13.834 -53.5 21.501s-33.667 17.167 -48 28.5s-26 25.666 -35 42.999s-13.5 38 -13.5 62c0 43.333 16 78.166 48 104.499s75.333 39.5 130 39.5c48 0 92 -10 132 -30v-110h-54v72c-24 10 -51.667 15 -83 15c-36.667 0 -64.334 -8.66699 -83.001 -26
s-28 -38 -28 -62c0 -14.667 2.83301 -27.167 8.5 -37.5s13.667 -19.5 24 -27.5s23 -15 38 -21l50.5 -20c18.667 -7.33301 36.834 -15.166 54.501 -23.499s33.334 -18.333 47.001 -30s24.667 -26 33 -43s12.5 -38.5 12.5 -64.5c0 -46 -16.5 -82.833 -49.5 -110.5
s-77.5 -41.5 -133.5 -41.5zM155.002 -40h63l-41 -120h-41z" />
    <glyph glyph-name="scommaaccent" unicode="&#x219;" horiz-adv-x="330" 
d="M154 -10c-41.333 0 -79.332 8.00391 -113.999 24.0039v86h52v-52c20 -6 42 -9 66 -9c30 0 51.167 5.16699 63.5 15.5s18.5 24.833 18.5 43.5c0 17.333 -7.33301 31.166 -22 41.499s-37.667 21.166 -69 32.499c-44 16 -74 33.167 -90 51.5s-24 39.833 -24 64.5
c0 32.667 13 59.5 39 80.5s59.333 31.5 100 31.5c37.333 0 72.666 -8 105.999 -24v-86h-52v53c-15.333 6 -34.333 9 -57 9c-25.333 0 -44.333 -5.16699 -57 -15.5s-19 -23.833 -19 -40.5s6.83301 -29.834 20.5 -39.501s35.167 -19.834 64.5 -30.501
c42 -14.667 72.5 -31 91.5 -49s28.5 -42 28.5 -72c0 -34.667 -13.333 -62.5 -40 -83.5s-62 -31.5 -106 -31.5zM135.001 -39.9961h63l-41 -120h-41z" />
    <glyph glyph-name="Tcommaaccent" unicode="&#x21a;" 
d="M110 50h70v440h-110v-80h-53v130h386v-130h-53v80h-110v-440h70v-50h-200v50zM180 -40h63l-41 -120h-41z" />
    <glyph glyph-name="tcommaaccent" unicode="&#x21b;" horiz-adv-x="240" 
d="M163 -10c-28.667 0 -51.334 7.5 -68.001 22.5s-25 37.167 -25 66.5v261h-50v50h50v90l60 11v-101h90v-50h-90v-251c0 -19.333 3.83301 -32.333 11.5 -39s17.834 -10 30.501 -10c16 0 32 4 48 12v-49c-18 -8.66699 -37 -13 -57 -13zM120 -40h63l-41 -120h-41z" />
    <glyph glyph-name="uni0237" unicode="&#x237;" horiz-adv-x="180" 
d="M105 -149c-16 -22 -41.668 -33.001 -77.001 -33.001c-9.33301 0 -18.666 0.666992 -27.999 2v50c5.33301 -0.666992 11 -1 17 -1c20.667 0 34.667 5.33301 42 16s11 29.667 11 57v398h-50v50h110v-439c0 -45.333 -8.33301 -78.666 -25 -99.999z" />
    <glyph glyph-name="circumflex" unicode="&#x2c6;" horiz-adv-x="300" 
d="M149 505l-57 -75h-60l94 120h48l94 -120h-60l-57 75h-2z" />
    <glyph glyph-name="caron" unicode="&#x2c7;" horiz-adv-x="300" 
d="M151 475l57 75h60l-94 -120h-48l-94 120h60l57 -75h2z" />
    <glyph glyph-name="breve" unicode="&#x2d8;" horiz-adv-x="300" 
d="M86 550c1.33301 -23.333 7.83301 -41.168 19.5 -53.501s26.5 -18.5 44.5 -18.5c18.667 0 33.667 6.33301 45 19s18 30.334 20 53.001h43c-0.666992 -36.667 -10.834 -65.834 -30.501 -87.501s-45.5 -32.5 -77.5 -32.5c-31.333 0 -56.666 10.833 -75.999 32.5
s-30 50.834 -32 87.501h44z" />
    <glyph glyph-name="dotaccent" unicode="&#x2d9;" horiz-adv-x="210" 
d="M62 496c0 14 3.83398 24.834 11.501 32.501s18.167 11.5 31.5 11.5c12.667 0 23 -3.83301 31 -11.5s12 -17.834 12 -30.501c0 -13.333 -4 -23.833 -12 -31.5s-18.667 -11.5 -32 -11.5c-12.667 0 -22.834 3.83301 -30.501 11.5s-11.5 17.5 -11.5 29.5z" />
    <glyph glyph-name="ring" unicode="&#x2da;" horiz-adv-x="240" 
d="M45 495c0 20 7 35.834 21 47.501s32.333 17.5 55 17.5c24 0 42.333 -5.83301 55 -17.5s19 -27.167 19 -46.5c0 -18.667 -6.83301 -34.334 -20.5 -47.001s-32.5 -19 -56.5 -19c-22.667 0 -40.5 6.16699 -53.5 18.5s-19.5 27.833 -19.5 46.5zM86 496.001
c0 -12 3 -20.833 9 -26.5s14.333 -8.5 25 -8.5c10 0 18.167 3.16699 24.5 9.5s9.5 14.833 9.5 25.5s-3.16699 18.834 -9.5 24.501s-14.5 8.5 -24.5 8.5c-10.667 0 -19 -2.83301 -25 -8.5s-9 -13.834 -9 -24.501z" />
    <glyph glyph-name="ogonek" unicode="&#x2db;" horiz-adv-x="180" 
d="M116 -135c14 0 27.666 3.33301 40.999 10v-48c-14.667 -8 -31 -12 -49 -12c-24 0 -44.333 6.83301 -61 20.5s-25 32.5 -25 56.5c0 36.667 19.667 72 59 106v10h55v-8c-39.333 -32 -59 -64 -59 -96c0 -14 3.83301 -24 11.5 -30s16.834 -9 27.501 -9z" />
    <glyph glyph-name="tilde" unicode="&#x2dc;" horiz-adv-x="300" 
d="M35 463v51c20.667 14.667 42 22 64 22c17.333 0 37.666 -6 60.999 -18c16.667 -8 31 -12 43 -12c21.333 0 41.333 8 60 24h2v-51c-20.667 -14.667 -42 -22 -64 -22c-17.333 0 -37.666 6 -60.999 18c-16.667 8 -31 12 -43 12c-21.333 0 -41.333 -8 -60 -24h-2z" />
    <glyph glyph-name="hungarumlaut" unicode="&#x2dd;" horiz-adv-x="270" 
d="M85 550h63l-73 -120h-45zM190 550h65l-80 -120h-44z" />
    <glyph glyph-name="uni0300" unicode="&#x300;" horiz-adv-x="0" 
d="M-164 430h-46l-80 120h70z" />
    <glyph glyph-name="uni0301" unicode="&#x301;" horiz-adv-x="0" 
d="M-170 550h70l-80 -120h-46z" />
    <glyph glyph-name="uni0302" unicode="&#x302;" horiz-adv-x="0" 
d="M-196 505l-57 -75h-60l94 120h48l94 -120h-60l-57 75h-2z" />
    <glyph glyph-name="uni0303" unicode="&#x303;" horiz-adv-x="0" 
d="M-310 463v51c20.667 14.667 42 22 64 22c17.333 0 37.666 -6 60.999 -18c16.667 -8 31 -12 43 -12c21.333 0 41.333 8 60 24h2v-51c-20.667 -14.667 -42 -22 -64 -22c-17.333 0 -37.666 6 -60.999 18c-16.667 8 -31 12 -43 12c-21.333 0 -41.333 -8 -60 -24h-2z" />
    <glyph glyph-name="uni0304" unicode="&#x304;" horiz-adv-x="0" 
d="M-300 510h210v-48h-210v48z" />
    <glyph glyph-name="uni0306" unicode="&#x306;" horiz-adv-x="0" 
d="M-259 550c1.33301 -23.333 7.83301 -41.168 19.5 -53.501s26.5 -18.5 44.5 -18.5c18.667 0 33.667 6.33301 45 19s18 30.334 20 53.001h43c-0.666992 -36.667 -10.834 -65.834 -30.501 -87.501s-45.5 -32.5 -77.5 -32.5c-31.333 0 -56.666 10.833 -75.999 32.5
s-30 50.834 -32 87.501h44z" />
    <glyph glyph-name="uni0307" unicode="&#x307;" horiz-adv-x="0" 
d="M-238 496c0 14 3.83398 24.834 11.501 32.501s18.167 11.5 31.5 11.5c12.667 0 23 -3.83301 31 -11.5s12 -17.834 12 -30.501c0 -13.333 -4 -23.833 -12 -31.5s-18.667 -11.5 -32 -11.5c-12.667 0 -22.834 3.83301 -30.501 11.5s-11.5 17.5 -11.5 29.5z" />
    <glyph glyph-name="uni0308" unicode="&#x308;" horiz-adv-x="0" 
d="M-310 496c0 13.333 4 24.001 12 32.001s18 12 30 12c13.333 0 23.833 -4 31.5 -12s11.5 -18.333 11.5 -31s-3.83301 -22.834 -11.5 -30.501s-18.5 -11.5 -32.5 -11.5c-12 0 -21.833 3.83301 -29.5 11.5s-11.5 17.5 -11.5 29.5zM-165 496.001c0 13.333 4 24.001 12 32.001
s18 12 30 12c13.333 0 23.833 -4 31.5 -12s11.5 -18.333 11.5 -31s-3.83301 -22.834 -11.5 -30.501s-18.5 -11.5 -32.5 -11.5c-12 0 -21.833 3.83301 -29.5 11.5s-11.5 17.5 -11.5 29.5z" />
    <glyph glyph-name="uni030A" unicode="&#x30a;" horiz-adv-x="0" 
d="M-270 495c0 20 7 35.834 21 47.501s32.333 17.5 55 17.5c24 0 42.333 -5.83301 55 -17.5s19 -27.167 19 -46.5c0 -18.667 -6.83301 -34.334 -20.5 -47.001s-32.5 -19 -56.5 -19c-22.667 0 -40.5 6.16699 -53.5 18.5s-19.5 27.833 -19.5 46.5zM-229 496.001
c0 -12 3 -20.833 9 -26.5s14.333 -8.5 25 -8.5c10 0 18.167 3.16699 24.5 9.5s9.5 14.833 9.5 25.5s-3.16699 18.834 -9.5 24.501s-14.5 8.5 -24.5 8.5c-10.667 0 -19 -2.83301 -25 -8.5s-9 -13.834 -9 -24.501z" />
    <glyph glyph-name="uni030B" unicode="&#x30b;" horiz-adv-x="0" 
d="M-221 550h63l-73 -120h-45zM-116 550h65l-80 -120h-44z" />
    <glyph glyph-name="uni030C" unicode="&#x30c;" horiz-adv-x="0" 
d="M-194 475l57 75h60l-94 -120h-48l-94 120h60l57 -75h2z" />
    <glyph glyph-name="uni0312" unicode="&#x312;" horiz-adv-x="0" 
d="M-165 430h-63l41 120h41z" />
    <glyph glyph-name="uni0315" unicode="&#x315;" horiz-adv-x="60" 
d="M0 550h60l-40 -130h-42z" />
    <glyph glyph-name="uni0326" unicode="&#x326;" horiz-adv-x="0" 
d="M-225 -40h63l-41 -120h-41z" />
    <glyph glyph-name="uni0327" unicode="&#x327;" horiz-adv-x="0" 
d="M-270 -135c12.667 -2.66699 25.667 -3.99805 39 -3.99805c12.667 0 22.667 2.5 30 7.5s11 13.5 11 25.5c0 21.333 -19 32 -57 32l30 82h46l-19 -52c20 -4.66699 34.167 -12.834 42.5 -24.501s12.5 -24.834 12.5 -39.501c0 -23.333 -8.66699 -42 -26 -56s-40 -21 -68 -21
c-13.333 0 -27 1.66699 -41 5v45z" />
    <glyph glyph-name="uni0328" unicode="&#x328;" horiz-adv-x="0" 
d="M-71 -135c14 0 27.666 3.33301 40.999 10v-48c-14.667 -8 -31 -12 -49 -12c-24 0 -44.333 6.83301 -61 20.5s-25 32.5 -25 56.5c0 36.667 19.667 72 59 106v10h55v-8c-39.333 -32 -59 -64 -59 -96c0 -14 3.83301 -24 11.5 -30s16.834 -9 27.501 -9z" />
    <glyph glyph-name="Wgrave" unicode="&#x1e80;" horiz-adv-x="720" 
d="M490 80l121 410h-51v50h160v-50h-52l-154 -495h-58l-96 293h-2l-94 -293h-58l-157 495h-49v50h160v-50h-48l126 -410h2l93 289l-40 121h-53v50h170v-50h-57l135 -410h2zM385 580h-44l-86 110h70z" />
    <glyph glyph-name="wgrave" unicode="&#x1e81;" horiz-adv-x="600" 
d="M433 -5h-57l-79 231h-2l-82 -231h-57l-111 345h-45v50h150v-50h-44l82 -268h2l82 224l-15 44h-47v50h160v-50h-54l92 -268h2l85 268h-45v50h150v-50h-50zM331 430h-46l-80 120h70z" />
    <glyph glyph-name="Wacute" unicode="&#x1e82;" horiz-adv-x="720" 
d="M490 80l121 410h-51v50h160v-50h-52l-154 -495h-58l-96 293h-2l-94 -293h-58l-157 495h-49v50h160v-50h-48l126 -410h2l93 289l-40 121h-53v50h170v-50h-57l135 -410h2zM395 690h70l-86 -110h-44z" />
    <glyph glyph-name="wacute" unicode="&#x1e83;" horiz-adv-x="600" 
d="M433 -5h-57l-79 231h-2l-82 -231h-57l-111 345h-45v50h150v-50h-44l82 -268h2l82 224l-15 44h-47v50h160v-50h-54l92 -268h2l85 268h-45v50h150v-50h-50zM325 550h70l-80 -120h-46z" />
    <glyph glyph-name="Wdieresis" unicode="&#x1e84;" horiz-adv-x="720" 
d="M490 80l121 410h-51v50h160v-50h-52l-154 -495h-58l-96 293h-2l-94 -293h-58l-157 495h-49v50h160v-50h-48l126 -410h2l93 289l-40 121h-53v50h170v-50h-57l135 -410h2zM245 620c0 13.333 3.83398 23.834 11.501 31.501s17.5 11.5 29.5 11.5
c13.333 0 23.666 -3.83301 30.999 -11.5s11 -17.834 11 -30.501s-3.66699 -22.667 -11 -30s-18 -11 -32 -11c-12 0 -21.667 3.66699 -29 11s-11 17 -11 29zM392.001 620.001c0 13.333 3.83398 23.834 11.501 31.501s17.5 11.5 29.5 11.5
c13.333 0 23.666 -3.83301 30.999 -11.5s11 -17.834 11 -30.501s-3.66699 -22.667 -11 -30s-18 -11 -32 -11c-12 0 -21.667 3.66699 -29 11s-11 17 -11 29z" />
    <glyph glyph-name="wdieresis" unicode="&#x1e85;" horiz-adv-x="600" 
d="M433 -5h-57l-79 231h-2l-82 -231h-57l-111 345h-45v50h150v-50h-44l82 -268h2l82 224l-15 44h-47v50h160v-50h-54l92 -268h2l85 268h-45v50h150v-50h-50zM185 496c0 13.333 4 24.001 12 32.001s18 12 30 12c13.333 0 23.833 -4 31.5 -12s11.5 -18.333 11.5 -31
s-3.83301 -22.834 -11.5 -30.501s-18.5 -11.5 -32.5 -11.5c-12 0 -21.833 3.83301 -29.5 11.5s-11.5 17.5 -11.5 29.5zM330 496.001c0 13.333 4 24.001 12 32.001s18 12 30 12c13.333 0 23.833 -4 31.5 -12s11.5 -18.333 11.5 -31s-3.83301 -22.834 -11.5 -30.501
s-18.5 -11.5 -32.5 -11.5c-12 0 -21.833 3.83301 -29.5 11.5s-11.5 17.5 -11.5 29.5z" />
    <glyph glyph-name="Ygrave" unicode="&#x1ef2;" horiz-adv-x="480" 
d="M210 240l-164 250h-46v50h160v-50h-46l130 -198l126 198h-50v50h160v-50h-47l-163 -250v-190h70v-50h-200v50h70v190zM265 580h-44l-86 110h70z" />
    <glyph glyph-name="ygrave" unicode="&#x1ef3;" horiz-adv-x="390" 
d="M340 340l-129.001 -365.003c-8 -23.333 -16.5 -44.666 -25.5 -63.999s-19.333 -36.166 -31 -50.499s-25.5 -25.166 -41.5 -32.499s-35 -11 -57 -11c-12 0 -24 1 -36 3v55c12.667 -2 25 -3 37 -3c10.667 0 20.5 1.16699 29.5 3.5s17.5 7 25.5 14s16.333 18.667 25 35
s18.334 39.833 29.001 70.5h-5l-116 345h-45v50h150v-50h-44l87 -268h2l91 268h-46v50h150v-50h-50zM225.999 429.997h-46l-80 120h70z" />
    <glyph glyph-name="endash" unicode="&#x2013;" 
d="M30 230h360v-50h-360v50z" />
    <glyph glyph-name="emdash" unicode="&#x2014;" horiz-adv-x="810" 
d="M30 230h750v-50h-750v50z" />
    <glyph glyph-name="quoteleft" unicode="&#x2018;" horiz-adv-x="150" 
d="M73 340c-28.667 27.333 -43 55.667 -43 85c0 41.333 23.667 83 71 125l29 -27c-26.667 -26 -40 -51 -40 -75c0 -19.333 12 -40.333 36 -63z" />
    <glyph glyph-name="quoteright" unicode="&#x2019;" horiz-adv-x="150" 
d="M77 550c28.667 -27.333 43 -55.667 43 -85c0 -41.333 -23.667 -83 -71 -125l-29 27c26.667 26 40 51 40 75c0 19.333 -12 40.333 -36 63z" />
    <glyph glyph-name="quotesinglbase" unicode="&#x201a;" horiz-adv-x="150" 
d="M77 118c28.667 -27.333 43 -55.667 43 -85c0 -41.333 -23.667 -83 -71 -125l-29 27c26.667 26 40 51 40 75c0 19.333 -12 40.333 -36 63z" />
    <glyph glyph-name="quotedblleft" unicode="&#x201c;" horiz-adv-x="270" 
d="M73 340c-28.667 27.333 -43 55.667 -43 85c0 41.333 23.667 83 71 125l29 -27c-26.667 -26 -40 -51 -40 -75c0 -19.333 12 -40.333 36 -63zM193 340.001c-28.667 27.333 -43 55.667 -43 85c0 41.333 23.667 83 71 125l29 -27c-26.667 -26 -40 -51 -40 -75
c0 -19.333 12 -40.333 36 -63z" />
    <glyph glyph-name="quotedblright" unicode="&#x201d;" horiz-adv-x="270" 
d="M77 550c28.667 -27.333 43 -55.667 43 -85c0 -41.333 -23.667 -83 -71 -125l-29 27c26.667 26 40 51 40 75c0 19.333 -12 40.333 -36 63zM197 549.999c28.667 -27.333 43 -55.667 43 -85c0 -41.333 -23.667 -83 -71 -125l-29 27c26.667 26 40 51 40 75
c0 19.333 -12 40.333 -36 63z" />
    <glyph glyph-name="quotedblbase" unicode="&#x201e;" horiz-adv-x="270" 
d="M77 118c28.667 -27.333 43 -55.667 43 -85c0 -41.333 -23.667 -83 -71 -125l-29 27c26.667 26 40 51 40 75c0 19.333 -12 40.333 -36 63zM197 117.999c28.667 -27.333 43 -55.667 43 -85c0 -41.333 -23.667 -83 -71 -125l-29 27c26.667 26 40 51 40 75
c0 19.333 -12 40.333 -36 63z" />
    <glyph glyph-name="dagger" unicode="&#x2020;" horiz-adv-x="360" 
d="M205 390h125v-45h-125v-495h-50v495h-125v45h125v150h50v-150z" />
    <glyph glyph-name="daggerdbl" unicode="&#x2021;" horiz-adv-x="360" 
d="M155 0h-125v45h125v300h-125v45h125v150h50v-150h125v-45h-125v-300h125v-45h-125v-150h-50v150z" />
    <glyph glyph-name="bullet" unicode="&#x2022;" horiz-adv-x="240" 
d="M55 274c0 20 5.83398 36.001 17.501 48.001s27.5 18 47.5 18c19.333 0 35 -5.83301 47 -17.5s18 -27.167 18 -46.5c0 -20.667 -6 -36.834 -18 -48.501s-28.333 -17.5 -49 -17.5c-18.667 0 -33.834 5.83301 -45.501 17.5s-17.5 27.167 -17.5 46.5z" />
    <glyph glyph-name="ellipsis" unicode="&#x2026;" horiz-adv-x="540" 
d="M50 39c0 16 4.50098 28.833 13.501 38.5s21.167 14.5 36.5 14.5s27.5 -4.83301 36.5 -14.5s13.5 -21.167 13.5 -34.5c0 -16.667 -4.66699 -29.667 -14 -39s-22 -14 -38 -14c-14.667 0 -26.334 4.66699 -35.001 14s-13 21 -13 35zM230.001 39
c0 16 4.50098 28.833 13.501 38.5s21.167 14.5 36.5 14.5s27.5 -4.83301 36.5 -14.5s13.5 -21.167 13.5 -34.5c0 -16.667 -4.66699 -29.667 -14 -39s-22 -14 -38 -14c-14.667 0 -26.334 4.66699 -35.001 14s-13 21 -13 35zM410.002 39c0 16 4.50098 28.833 13.501 38.5
s21.167 14.5 36.5 14.5s27.5 -4.83301 36.5 -14.5s13.5 -21.167 13.5 -34.5c0 -16.667 -4.66699 -29.667 -14 -39s-22 -14 -38 -14c-14.667 0 -26.334 4.66699 -35.001 14s-13 21 -13 35z" />
    <glyph glyph-name="perthousand" unicode="&#x2030;" horiz-adv-x="1080" 
d="M50 379c0 56 12.3311 98.5 36.998 127.5s57 43.5 97 43.5c38.667 0 69.334 -14.5 92.001 -43.5s34 -69.5 34 -121.5c0 -58 -12.167 -101.667 -36.5 -131s-56.166 -44 -95.499 -44c-38 0 -68.833 14.667 -92.5 44s-35.5 71 -35.5 125zM105.998 382
c0 -41.333 6.16699 -72.5 18.5 -93.5s30.833 -31.5 55.5 -31.5c24 0 42.333 10.5 55 31.5s19 52.167 19 93.5c0 40.667 -5.83301 71 -17.5 91s-30.5 30 -56.5 30c-24 0 -42.333 -9.5 -55 -28.5s-19 -49.833 -19 -92.5zM604.998 550l-370 -550h-60l370 550h60zM469.998 170
c0 56 12.3311 98.5 36.998 127.5s57 43.5 97 43.5c38.667 0 69.334 -14.5 92.001 -43.5s34 -69.5 34 -121.5c0 -58 -12.167 -101.667 -36.5 -131s-56.166 -44 -95.499 -44c-38 0 -68.833 14.667 -92.5 44s-35.5 71 -35.5 125zM525.996 173
c0 -41.333 6.16699 -72.5 18.5 -93.5s30.833 -31.5 55.5 -31.5c24 0 42.333 10.5 55 31.5s19 52.167 19 93.5c0 40.667 -5.83301 71 -17.5 91s-30.5 30 -56.5 30c-24 0 -42.333 -9.5 -55 -28.5s-19 -49.833 -19 -92.5zM769.996 170c0 56 12.3311 98.5 36.998 127.5
s57 43.5 97 43.5c38.667 0 69.334 -14.5 92.001 -43.5s34 -69.5 34 -121.5c0 -58 -12.167 -101.667 -36.5 -131s-56.166 -44 -95.499 -44c-38 0 -68.833 14.667 -92.5 44s-35.5 71 -35.5 125zM825.994 173c0 -41.333 6.16699 -72.5 18.5 -93.5s30.833 -31.5 55.5 -31.5
c24 0 42.333 10.5 55 31.5s19 52.167 19 93.5c0 40.667 -5.83301 71 -17.5 91s-30.5 30 -56.5 30c-24 0 -42.333 -9.5 -55 -28.5s-19 -49.833 -19 -92.5z" />
    <glyph glyph-name="guilsinglleft" unicode="&#x2039;" horiz-adv-x="210" 
d="M30 195l85 135h65l-85 -135l85 -135h-65z" />
    <glyph glyph-name="guilsinglright" unicode="&#x203a;" horiz-adv-x="210" 
d="M180 195l-85 -135h-65l85 135l-85 135h65z" />
    <glyph glyph-name="fraction" unicode="&#x2044;" horiz-adv-x="90" 
d="M260 550l-370 -550h-60l370 550h60z" />
    <glyph glyph-name="uni2070" unicode="&#x2070;" horiz-adv-x="360" 
d="M50 379c0 56 12.3311 98.5 36.998 127.5s57 43.5 97 43.5c38.667 0 69.334 -14.5 92.001 -43.5s34 -69.5 34 -121.5c0 -58 -12.167 -101.667 -36.5 -131s-56.166 -44 -95.499 -44c-38 0 -68.833 14.667 -92.5 44s-35.5 71 -35.5 125zM105.998 382
c0 -41.333 6.16699 -72.5 18.5 -93.5s30.833 -31.5 55.5 -31.5c24 0 42.333 10.5 55 31.5s19 52.167 19 93.5c0 40.667 -5.83301 71 -17.5 91s-30.5 30 -56.5 30c-24 0 -42.333 -9.5 -55 -28.5s-19 -49.833 -19 -92.5z" />
    <glyph glyph-name="uni2074" unicode="&#x2074;" horiz-adv-x="330" 
d="M180 295h-170v40l177 210h53v-205h60v-45h-60v-75h-60v75zM73 340h107v128h-2l-106 -126z" />
    <glyph glyph-name="Euro" unicode="&#x20ac;" horiz-adv-x="450" 
d="M28 240h43c-0.666992 9.33301 -1 19 -1 29c0 9.33301 0.333008 19.666 1 30.999h-49l8 45h46c11.333 64.667 36.333 115 75 151s88 54 148 54c43.333 0 83.666 -7.33301 120.999 -22v-93h-50v55c-19.333 6.66699 -43.333 10 -72 10c-92 0 -145.667 -51.667 -161 -155h225
l-10 -45h-219c-0.666992 -8 -1 -16.667 -1 -26c0 -11.333 0.333008 -22.666 1 -33.999h207l-10 -45h-192c8.66699 -52 26.834 -90.833 54.501 -116.5s63.5 -38.5 107.5 -38.5c35.333 0 75.333 7.66699 120 23v-50c-40.667 -15.333 -81.667 -23 -123 -23
c-60.667 0 -110 17.5 -148 52.5s-62.667 85.833 -74 152.5h-56z" />
    <glyph glyph-name="trademark" unicode="&#x2122;" horiz-adv-x="840" 
d="M100 267h52v226h-65v-63h-47v110h280v-110h-45v63h-68v-226h53v-47h-160v47zM700 466l-99 -248h-41l-101 241h-2l-7 -192h40v-47h-135v47h47l9 226h-51v47h124l99 -237h2l96 237h121v-47h-48l9 -226h47v-47h-140v47h40l-8 199h-2z" />
    <glyph glyph-name="minus" unicode="&#x2212;" horiz-adv-x="390" 
d="M30 183v54h330v-54h-330z" />
    <glyph glyph-name="uni2215" unicode="&#x2215;" horiz-adv-x="90" 
d="M260 550l-370 -550h-60l370 550h60z" />
    <glyph glyph-name="uni01320301" horiz-adv-x="480" 
d="M30 50h60v440h-60v50h180v-50h-60v-440h60v-50h-180v50zM155 690h70l-86 -110h-44zM246 -95c8.66699 -0.666992 16.667 -1 24 -1c22 0 37.5 5 46.5 15s13.5 30.333 13.5 61v510h-60v50h180v-50h-60v-503c0 -44.667 -8.5 -78.667 -25.5 -102s-46.5 -35 -88.5 -35
c-10 0 -20 1 -30 3v52zM395 690h70l-86 -110h-44z" />
    <glyph glyph-name="i.TRK" horiz-adv-x="210" 
d="M30 50h50v290h-50v50h110v-340h50v-50h-160v50zM63 496c0 14 3.83398 24.834 11.501 32.501s18.167 11.5 31.5 11.5c12.667 0 23 -3.83301 31 -11.5s12 -17.834 12 -30.501c0 -13.333 -4 -23.833 -12 -31.5s-18.667 -11.5 -32 -11.5
c-12.667 0 -22.834 3.83301 -30.501 11.5s-11.5 17.5 -11.5 29.5z" />
    <glyph glyph-name="uni01330300" horiz-adv-x="390" 
d="M30 50h50v290h-50v50h110v-340h50v-50h-160v50zM315 -149c-16 -22 -41.668 -33.001 -77.001 -33.001c-9.33301 0 -18.666 0.666992 -27.999 2v50c5.33301 -0.666992 11 -1 17 -1c20.667 0 34.667 5.33301 42 16s11 29.667 11 57v398h-50v50h110v-439
c0 -45.333 -8.33301 -78.666 -25 -99.999zM129.999 549.999h70l-80 -120h-46zM324.999 549.999h70l-80 -120h-46z" />
    <glyph glyph-name="f.alt" horiz-adv-x="240" 
d="M270 500h-49.999v55c-6 1.33301 -13 2 -21 2c-21.333 0 -36.5 -6.5 -45.5 -19.5s-13.5 -33.5 -13.5 -61.5v-86h80v-50h-80v-290h50v-50h-160v50h50v290h-50v50h50v77c0 46 10.667 80.5 32 103.5s50.666 34.5 87.999 34.5c24.667 0 48 -4.33301 70 -13v-92z" />
    <glyph glyph-name="uni0300.cap" horiz-adv-x="0" 
d="M-170 580h-44l-86 110h70z" />
    <glyph glyph-name="uni0301.cap" horiz-adv-x="0" 
d="M-160 690h70l-86 -110h-44z" />
    <glyph glyph-name="uni0302.cap" horiz-adv-x="0" 
d="M-196 644l-49 -64h-60l85 110h50l85 -110h-60l-49 64h-2z" />
    <glyph glyph-name="uni030C.cap" horiz-adv-x="0" 
d="M-194 626l49 64h60l-85 -110h-50l-85 110h60l49 -64h2z" />
    <glyph glyph-name="uni0303.cap" horiz-adv-x="0" 
d="M-300 583v51c15.333 14 33.333 21 54 21c16.667 0 36.667 -6.33301 60 -19c17.333 -8.66699 32 -13 44 -13c20 0 36.667 7.66699 50 23h2v-51c-15.333 -14 -33.333 -21 -54 -21c-16.667 0 -36.667 6.33301 -60 19c-17.333 8.66699 -32 13 -44 13
c-20 0 -36.667 -7.66699 -50 -23h-2z" />
    <glyph glyph-name="uni0308.cap" horiz-adv-x="0" 
d="M-310 620c0 13.333 3.83398 23.834 11.501 31.501s17.5 11.5 29.5 11.5c13.333 0 23.666 -3.83301 30.999 -11.5s11 -17.834 11 -30.501s-3.66699 -22.667 -11 -30s-18 -11 -32 -11c-12 0 -21.667 3.66699 -29 11s-11 17 -11 29zM-162.999 620.001
c0 13.333 3.83398 23.834 11.501 31.501s17.5 11.5 29.5 11.5c13.333 0 23.666 -3.83301 30.999 -11.5s11 -17.834 11 -30.501s-3.66699 -22.667 -11 -30s-18 -11 -32 -11c-12 0 -21.667 3.66699 -29 11s-11 17 -11 29z" />
    <glyph glyph-name="uni0304.cap" horiz-adv-x="0" 
d="M-290 637h190v-47h-190v47z" />
    <glyph glyph-name="uni0306.cap" horiz-adv-x="0" 
d="M-195 626c18 0 32.667 5.33301 44 16s18 26.667 20 48h44c-2.66699 -35.333 -13.667 -62.5 -33 -81.5s-44.333 -28.5 -75 -28.5s-55.667 9.5 -75 28.5s-30.333 46.167 -33 81.5h44c2 -21.333 8.66699 -37.333 20 -48s26 -16 44 -16z" />
    <glyph glyph-name="uni0307.cap" horiz-adv-x="0" 
d="M-238 621c0 14 3.83398 24.834 11.501 32.501s18.167 11.5 31.5 11.5c12.667 0 23 -3.83301 31 -11.5s12 -17.834 12 -30.501c0 -13.333 -4 -23.833 -12 -31.5s-18.667 -11.5 -32 -11.5c-12.667 0 -22.834 3.83301 -30.501 11.5s-11.5 17.5 -11.5 29.5z" />
    <glyph glyph-name="uni030A.cap" horiz-adv-x="0" 
d="M-267 637c0 20 6.66699 35.5 20 46.5s31.333 16.5 54 16.5s40 -5.5 52 -16.5s18 -25.833 18 -44.5s-6.5 -34 -19.5 -46s-31.167 -18 -54.5 -18c-22 0 -39.167 5.83301 -51.5 17.5s-18.5 26.5 -18.5 44.5zM-228 639c0 -12 2.83301 -20.667 8.5 -26s13.834 -8 24.501 -8
c10 0 18 3 24 9s9 14.333 9 25c0 10 -3 17.667 -9 23s-14 8 -24 8c-10.667 0 -18.834 -2.66699 -24.501 -8s-8.5 -13 -8.5 -23z" />
    <glyph glyph-name="uni030B.cap" horiz-adv-x="0" 
d="M-210 690h62l-78 -110h-44zM-106 690h65l-86 -110h-43z" />
    <glyph glyph-name="uni0315.cap" horiz-adv-x="0" 
d="M-98 550h61l-40 -130h-43z" />
    <glyph glyph-name="exclamdown.case" horiz-adv-x="240" 
d="M148 0h-74l16 390h41zM60 497c0 16 4.50098 28.833 13.501 38.5s21.167 14.5 36.5 14.5s27.5 -4.83301 36.5 -14.5s13.5 -21.167 13.5 -34.5c0 -16.667 -4.66699 -29.667 -14 -39s-22 -14 -38 -14c-14.667 0 -26.334 4.66699 -35.001 14s-13 21 -13 35z" />
    <glyph glyph-name="questiondown.case" horiz-adv-x="300" 
d="M240 3c-26 -8.66699 -52.999 -13 -80.999 -13c-40.667 0 -74.334 11.667 -101.001 35s-40 55 -40 95c0 29.333 6 54 18 74s29 38.667 51 56c22 18 38.5 34.167 49.5 48.5s16.5 31.5 16.5 51.5c0 12 -2 25.333 -6 40h44c7.33301 -20 11 -40 11 -60
c0 -22.667 -5.16699 -42.5 -15.5 -59.5s-24.833 -32.833 -43.5 -47.5c-18 -14.667 -33 -29 -45 -43s-18 -33.333 -18 -58c0 -26 8.16699 -45.667 24.5 -59s37.833 -20 64.5 -20c21.333 0 45 4 71 12v-52zM220.001 501c0 -16 -4.50098 -28.833 -13.501 -38.5
s-21.167 -14.5 -36.5 -14.5s-27.5 4.83301 -36.5 14.5s-13.5 21.167 -13.5 34.5c0 16.667 4.66699 29.667 14 39s22 14 38 14c14.667 0 26.334 -4.66699 35.001 -14s13 -21 13 -35z" />
    <glyph glyph-name="parenleft.case" horiz-adv-x="270" 
d="M110 273c0 -140.667 46.667 -261.667 140 -363h-58c-97.333 108 -145.666 227.667 -144.999 359c-0.666992 130.667 47.666 251 144.999 361h58c-93.333 -100.667 -140 -219.667 -140 -357z" />
    <glyph glyph-name="parenright.case" horiz-adv-x="270" 
d="M160 269c0 140 -46.667 260.333 -140 361h58c97.333 -110 145.666 -229 144.999 -357c0.666992 -134 -47.666 -255 -144.999 -363h-58c93.333 101.333 140 221 140 359z" />
    <glyph glyph-name="bracketleft.case" horiz-adv-x="240" 
d="M60 630h140v-50h-85v-620h85v-50h-140v720z" />
    <glyph glyph-name="bracketright.case" horiz-adv-x="240" 
d="M180 -90h-140v50h85v620h-85v50h140v-720z" />
    <glyph glyph-name="braceleft.case" horiz-adv-x="270" 
d="M80 269c24 -6.66699 41.665 -18.332 52.998 -34.999s17 -39.334 17 -68.001v-158c0 -18.667 4.33301 -31.334 13 -38.001s19.334 -10 32.001 -10h35v-50h-35c-33.333 0 -58.333 8 -75 24s-25 41.667 -25 77v156c0 28.667 -6 49 -18 61s-29.333 18 -52 18v48
c22.667 0 40 5.83301 52 17.5s18 31.5 18 59.5v158c0 35.333 8.83301 61 26.5 77s42.834 24 75.501 24h33v-50h-37c-12 0 -22.167 -3.16699 -30.5 -9.5s-12.5 -19.166 -12.5 -38.499v-158c0 -29.333 -5.66699 -52.333 -17 -69s-29 -28 -53 -34v-2z" />
    <glyph glyph-name="braceright.case" horiz-adv-x="270" 
d="M190 271c-24 6 -41.6689 17.3311 -53.002 33.998s-17 39.667 -17 69v158c0 19.333 -4.16699 32.166 -12.5 38.499s-18.5 9.5 -30.5 9.5h-37v50h33c32.667 0 57.834 -8 75.501 -24s26.5 -41.667 26.5 -77v-158c0 -28 6 -47.833 18 -59.5s29.333 -17.5 52 -17.5v-48
c-22.667 0 -40 -6 -52 -18s-18 -32.333 -18 -61v-156c0 -35.333 -8.33301 -61 -25 -77s-41.667 -24 -75 -24h-35v50h35c12.667 0 23.334 3.33301 32.001 10s13 19.334 13 38.001v158c0 28.667 5.66699 51.334 17 68.001s29 28.334 53 35.001v2z" />
    <glyph glyph-name="hyphen.case" horiz-adv-x="210" 
d="M30 300h150v-50h-150v50z" />
    <glyph glyph-name="uni00AD.case" horiz-adv-x="210" 
d="M30 300h150v-50h-150v50z" />
    <glyph glyph-name="endash.case" 
d="M30 300h360v-50h-360v50z" />
    <glyph glyph-name="emdash.case" horiz-adv-x="810" 
d="M30 300h750v-50h-750v50z" />
    <glyph glyph-name="guilsinglleft.case" horiz-adv-x="210" 
d="M30 255l85 135h65l-85 -135l85 -135h-65z" />
    <glyph glyph-name="guilsinglright.case" horiz-adv-x="210" 
d="M180 255l-85 -135h-65l85 135l-85 135h65z" />
    <glyph glyph-name="guillemotleft.case" horiz-adv-x="330" 
d="M30 255l85 135h65l-85 -135l85 -135h-65zM150 255l85 135h65l-85 -135l85 -135h-65z" />
    <glyph glyph-name="guillemotright.case" horiz-adv-x="330" 
d="M180 255l-85 -135h-65l85 135l-85 135h65zM300 255l-85 -135h-65l85 135l-85 135h65z" />
    </font>
</defs>
</svg>
