<svg width="20" height="20" viewBox="0 0 20 20" fill="none" xmlns="http://www.w3.org/2000/svg">
<path fill-rule="evenodd" clip-rule="evenodd" d="M13.6757 2.3072L13.6766 2.93189C15.9721 3.1118 17.4885 4.67601 17.4909 7.07481L17.5 14.0963C17.5033 16.7117 15.8602 18.3208 13.2265 18.325L6.79324 18.3333C4.17599 18.3367 2.51235 16.6892 2.50906 14.0663L2.50001 7.12729C2.49671 4.71266 3.95961 3.15261 6.25514 2.94188L6.25432 2.3172C6.2535 1.95071 6.52501 1.67502 6.88703 1.67502C7.24905 1.67419 7.52057 1.94905 7.52139 2.31553L7.52221 2.89857L12.4095 2.89191L12.4087 2.30887C12.4078 1.94238 12.6794 1.66752 13.0414 1.66669C13.3952 1.66586 13.6749 1.94072 13.6757 2.3072ZM3.7679 7.38466L16.2247 7.368V7.07648C16.1893 5.28571 15.2908 4.34618 13.6782 4.20625L13.679 4.8476C13.679 5.20575 13.4001 5.48977 13.0463 5.48977C12.6843 5.49061 12.412 5.20741 12.412 4.84926L12.4111 4.1746L7.52386 4.18126L7.52468 4.85509C7.52468 5.21408 7.25399 5.49727 6.89197 5.49727C6.52995 5.4981 6.25761 5.21574 6.25761 4.85676L6.25679 4.21541C4.65238 4.37616 3.76461 5.31903 3.76708 7.12562L3.7679 7.38466ZM12.6999 11.1703V11.1794C12.7081 11.5626 13.0208 11.8533 13.4001 11.8449C13.7704 11.8358 14.0657 11.5184 14.0575 11.1353C14.0402 10.7688 13.7432 10.4698 13.3738 10.4706C12.9953 10.4789 12.6991 10.7871 12.6999 11.1703ZM13.3795 14.9101C13.0011 14.9017 12.6958 14.5861 12.695 14.2029C12.6868 13.8198 12.9904 13.5024 13.3688 13.4933H13.3771C13.7638 13.4933 14.0772 13.8089 14.0772 14.2004C14.0781 14.5919 13.7654 14.9092 13.3795 14.9101ZM9.3101 11.1836C9.32655 11.5667 9.64003 11.8657 10.0185 11.8491C10.3888 11.8316 10.6841 11.5151 10.6677 11.1319C10.6586 10.7571 10.3542 10.4656 9.98395 10.4664C9.60547 10.4831 9.30928 10.8004 9.3101 11.1836ZM10.0218 14.8726C9.64332 14.8892 9.33067 14.5902 9.31339 14.2071C9.31339 13.8239 9.60877 13.5074 9.98724 13.4899C10.3575 13.4891 10.6627 13.7806 10.671 14.1546C10.6882 14.5386 10.392 14.8551 10.0218 14.8726ZM5.92039 11.2127C5.93685 11.5959 6.25032 11.8957 6.6288 11.8782C6.99905 11.8616 7.29442 11.5442 7.27714 11.1611C7.26892 10.7863 6.96449 10.4948 6.59342 10.4956C6.21494 10.5122 5.91957 10.8296 5.92039 11.2127ZM6.63197 14.8767C6.2535 14.8942 5.94084 14.5944 5.92356 14.2112C5.92274 13.8281 6.21894 13.5108 6.59741 13.4941C6.96766 13.4933 7.27291 13.7848 7.28114 14.1596C7.29842 14.5427 7.00304 14.8601 6.63197 14.8767Z" fill="#666666"/>
</svg>
