<?xml version="1.0" encoding="utf-8"?>
<!-- Generator: Adobe Illustrator 21.1.0, SVG Export Plug-In . SVG Version: 6.00 Build 0)  -->
<svg version="1.1" id="Ebene_1" xmlns="http://www.w3.org/2000/svg" xmlns:xlink="http://www.w3.org/1999/xlink" x="0px" y="0px"
	 viewBox="0 0 810.8 283" style="enable-background:new 0 0 810.8 283;" xml:space="preserve">
<style type="text/css">
	.st0{fill:none;}
	.st1{fill:#009999;}
</style>
<g id="BoundingBox">
	<polygon class="st0" points="0,423 1000,423 1000,0 0,0 0,0 	"/>
</g>
<g id="Ingenuity_for_life">
	<path d="M243.3,211.4l0.1,0.9c0.2,2.8,0.3,5.5,0.3,8.1l0,0.2l-0.2,0.1c-12.1,8.1-19.6,16.9-23,26.8c-2.6,7.7-2.2,15,1.2,19.7
		c2.3,3.2,5.7,4.9,9.9,4.9c7.2,0,12.9-5.5,16.9-16.2c4.1-11.2,5.5-25.4,5.8-35.3l0-0.2l0.2-0.1c5.3-3.2,11.5-6.5,18.5-9.6l0.3-0.1
		l0.2,0.2c3.2,4.7,10.4,9.4,18,9.4c9.4,0,18.6-7.3,22.1-10.4l0.5-0.4l0.1,0.6c0.6,2.8,2.2,5.1,5,6.8c4.6,2.8,8.2,2.9,10.9,0.1
		c2.1-2.1,3.7-4,5.1-5.6c2.4-2.8,4.5-5.3,7.8-7.6c1.4-1,2.8-0.6,3.8,1c5.7,9.7,12.1,15,18.8,15.5c2,0.1,3.6-0.4,3.8-1.3
		c0.2-0.6-0.3-1.3-1.4-2c-4.2-2.6-7.9-7.9-11.2-16.2c-1.1-2.8-2.6-4.6-7.7-6.6c-1-0.4-1.8-0.6-2.6-0.6c-1.7,0-2.9,0.8-4.1,1.6
		l-0.3,0.2c-3.5,2.3-7.7,6.7-10.7,9.9c-1.4,1.4-2.6,2.7-3.4,3.4c-1.3,1.2-2.3,1.4-2.9,0.8c-0.5-0.5-0.5-1.3-0.5-1.9
		c0.2-4.7,1.5-9.5,4.3-15.5c0.5-1,0.6-2,0.2-2.9c-0.5-1.2-1.8-2.1-3.7-2.8c-1.2-0.4-2.3-0.6-3.1-0.6c-2.3,0-3.4,1.5-4.3,3.7
		c-1.6,4-2.5,7.2-3.4,12.2l0,0.1l-0.1,0.1c-8.4,8.2-15.8,12.4-22.1,12.4c-4.9,0-8.1-2.8-8.7-7.8l0-0.3l0.2-0.1
		c6.9-3.1,13.8-6.5,17-10.5c2.4-2.9,1.9-5.5,1.1-7.2c-1.5-3.1-5.5-5.6-9.1-5.6c-4.6,0-21.3,8.4-21.4,23.2l0,0.2l-0.2,0.1
		c-4,1.8-10.1,4.5-16.1,7.6l-0.6,0.3l0.1-0.7c1-8.5,3.4-15.3,4.5-17.7c0.8-1.6,1-2.7,0.6-3.6c-0.3-0.9-1.2-1.6-3-2.4
		c-2.3-1.1-4.7-0.8-6.4,0.6l-0.3,0.3l-0.2-0.4c0,0-2.1-3.3-6.4-3.3c-8.8,0-21.8,15.2-22.8,21.2c-0.2,1.6,0.3,3.1,1.5,4.6
		c2.4,2.8,7.2,4.8,11,4.6c3.7-0.2,7.6-2.9,9.5-5.3L243.3,211.4z M490,211.7l-0.2,0.5c-1.9,4.1-3.8,8.6-5.8,13.4
		c-5.5,13.3-11.7,28.5-23.3,43.6c-0.5,0.7-0.7,1.3-0.5,1.8c0.2,0.5,0.8,0.7,1.6,0.7c0.8,0,1.7-0.3,2.6-0.9
		c7.8-4.9,18.8-21.5,30.3-45.4c8.7-18,14.3-24,18.8-28.8c0.5-0.6,1.1-1.1,1.6-1.7c0.7-0.8,1-1.5,0.8-2.2c-0.3-1.1-1.7-2.2-4.1-3
		c-3.2-1.1-5.7-0.7-7.5,1.3l-0.2,0.2c-5.9,6.7-13.6,14.6-17,14.6c-0.9,0-1.6-0.3-2.2-0.9c-1.7-1.8-1.3-5.8-1.1-8.7
		c0-0.5,0.1-1,0.1-1.4c0.1-2.5-1.2-3.8-4.8-4.4c-2.7-0.5-11.6-1-18.4-1.4l-0.4,0l0.1-0.4c1.9-10.2,5.1-20.1,7.9-24.8
		c1-1.7,1.8-3.1,1.4-4.1c-0.3-0.8-1.5-1.5-3.7-2c-0.9-0.2-1.7-0.3-2.5-0.3c-3.6,0-4.7,2.7-5.4,4.5c-3.3,8.2-5.9,17.6-7.3,26.5l0,0.3
		l-0.3,0c-1.8-0.1-3.3-0.1-4.4-0.1c-1.2,0-2,0.3-2.3,0.7c-0.3,0.4-0.2,1.1,0.2,2.1c0.6,1.5,2.2,4.1,5.6,5.1l0.3,0.1l0,0.3
		c-0.1,2-0.2,4-0.2,5.9c-0.1,9.8,2.9,15.7,8.6,16.8c0.2,0,0.5,0.1,0.7,0.1c0.7,0,1.7-0.2,2.1-0.8c0.2-0.3,0.1-0.8-0.2-1.4
		c-2.8-5-2.4-14.4-1.5-21.4l0-0.3l0.3,0c3.7-0.5,8.4-1.2,11.6-1.2h0.1c0.7,0,1.3,0.2,1.6,0.5c0.4,0.5,0.5,1.1,0.4,1.8
		c-0.1,1.5-0.1,6.6,3.4,10.4c2.8,3,7.1,4.4,12.8,4.3L490,211.7z M230.4,267.4c-1.3,0-2.5-0.6-3.3-1.8c-1.2-1.8-2.7-6.4,1.3-17.4
		c2.6-7.2,7.4-13.7,14.7-19.9l0.6-0.5l0,0.8C243.1,251.4,237.6,267.4,230.4,267.4z M738.7,207.6l-0.1,0.4c-1.7,10.9-2.5,21.3-2,27.7
		c0.7,8.5,3.4,11,5.3,12.1c1.6,0.9,3.2,1.2,3.8,0.6c0.3-0.3,0.4-0.8,0.3-1.6c-1.2-10.3-0.3-25.1,2.5-40.4l0-0.2l0.2,0
		c4.7-1,9.7-2.3,14.2-3.6l0.5-0.2l-0.1,0.5c-0.4,3.4,1.1,7.4,4.2,11c5.8,6.6,15.8,10.4,27.5,10.4c6.8,0,12.7-2.7,14.7-4.5
		c0.9-0.8,1.1-1.7,1-2.2c-0.2-0.4-0.7-0.5-1.5-0.3c-4.3,1.2-8.5,1.8-12.5,1.8c-9.2,0-16.6-3.1-20.1-8.6l-0.3-0.5l0.6-0.1
		c7.1-0.8,15.7-4.9,17.1-8.1c1.2-2.8,0.3-5.2-0.7-6.7c-2.2-3.3-6.7-5.7-10.7-5.7c-5.1,0-11.3,2.6-15.2,6.4l-0.1,0.1l-0.1,0
		c-5.7,1.4-11.4,2.5-16.6,3.2l-0.5,0.1l0.1-0.5c2.3-10.2,5.1-19.4,8.3-26.6c1-2.3,2-3.7,3.9-3.8c1.7-0.1,3.1,1,3.9,3.2
		c0.3,0.7,0.8,1.2,1.3,1.2c0.6,0,1.2-0.6,1.7-1.6c1.1-2.1,0.2-6.6-3.6-9.2c-2.3-1.6-4.5-2.3-6.5-2.3c-2.5,0-4.6,1.3-6.1,3.7
		c-5.1,8-9.7,21-12.8,36.5l-0.1,0.3l-0.5,0c-2.2,0-4.1-0.1-5.7-0.4c-1.6-0.3-2.6,0-3,0.7c-0.5,0.9,0.1,2.7,1.5,5
		c1.4,2.1,3.4,2.4,5.8,2.3L738.7,207.6z M551,204.8l-0.1,0.5c-1.5,9.4-2.3,18.7-2,25.1c0.3,7.2,1.7,11.5,4.3,13.1
		c0.7,0.4,1.6,0.7,2.4,0.7c0.5,0,1.2-0.1,1.7-0.6c0.4-0.4,0.5-1,0.4-1.8c-1-8.9,0.3-23.7,3.3-38.7l0-0.2l0.2,0
		c5.1-0.8,10.5-1.5,15.5-1.9l0.8-0.1l-0.5,0.6c-1,1.3-1.6,3.2-1.6,5.7c0,5.8,7.5,14.1,19.3,14.1c7,0,15.4-6.1,15.4-13.6
		c0-9.7-8.1-16.1-15.6-16.1c-3.1,0-6.3,1.4-8.8,3.9l-0.1,0.1l-0.2,0c-1.9,0-3.7,0-5.6,0c-6.2,0-11.9,0.2-17,0.5l-0.5,0l0.1-0.5
		c2.6-10.7,5.7-19.5,8.9-25.5c1.3-2.4,2.2-3.5,4-3.7c0.1,0,0.3,0,0.4,0c1.7,0,3.1,1.2,4.2,3.7c0.2,0.5,0.6,1,1.3,1
		c0.6,0,1.3-0.5,1.9-1.3c0.8-1.1,1.1-2.9,0.7-4.7c-0.6-2.6-2.3-4.7-4.8-6c-2.3-1.2-4.4-1.8-6.2-1.8c-2.6,0-4.8,1.2-6.6,3.8
		c-7.4,10.2-11.7,25.1-14,35.8l-0.1,0.2l-0.2,0c-8,1-14.4,2.6-19.1,4.7c-1.3,0.6-1.9,1.2-2,1.9c-0.1,0.9,0.9,2.1,2.8,3.4
		c2.9,2,5.3,2.3,7.6,1c1.7-0.9,4.8-1.9,9-2.9L551,204.8z M711.4,208.2l0,1.1c-0.3,6.7,1.5,11.3,5.5,14.2c1,0.7,2.2,1.1,3.2,1.1
		c0.6,0,1-0.2,1.3-0.5c0.2-0.3,0.2-0.7,0.1-1.2c-1.6-5.7-1-13.2,1.7-20.6c1.3-3.8,1.9-6-1.9-8.1c-2.9-1.6-5.1-1.7-6.2-0.1
		c-0.1,0.2-0.2,0.3-0.4,0.5l-0.2,0.4c-6.8,9.9-17.2,21.5-24.2,21.5c-1.1,0-2-0.4-2.8-1.2c-1.5-1.6-2.1-4.7-1.7-9.3
		c0.9-11.6,6-28.3,11.2-37.3c1.3-2.3,1.7-3.6,1.2-4.5c-0.4-0.8-1.7-1.2-3.8-1.2l-0.2,0c-4.9,0-6.8,2.6-7.9,5.1
		c-4.4,9.7-9.7,24.4-9.9,39.8c-0.1,4.1,1.3,7.5,4.1,10.4c3.7,3.8,8.7,5.1,11.1,5.1c7.4,0,15.4-9,19.4-14.4L711.4,208.2z
		 M156.4,154.7c-2.4,0-3.6,1.6-3.9,3.1c-0.5,2.4-1.3,6.1-2.3,10.4c-2.6,11.2-6.1,26.5-7,37.4c-1.1,13.9,2,16.8,5.5,18
		c0.8,0.3,1.5,0.2,2-0.2c0.4-0.4,0.6-1.1,0.6-2c-0.1-11.9,7.8-44.2,12-57.5c1.5-5,0.2-6.7-2.8-8.2
		C158.9,155.1,157.5,154.7,156.4,154.7z M622.5,192.9c-0.8,0-1.8,0.1-2.3,0.8c-0.3,0.5-0.4,1.1-0.1,2c1.3,4.2-0.4,12.1-1.3,16.7
		c-0.1,0.7-0.3,1.3-0.4,1.9c-0.7,3.8,1,4.8,3.4,6.3c1.1,0.7,2.3,1,3.3,1c1,0,2.3-0.4,2.9-2.1c2.7-8.7,10.5-23.3,31.6-24.3
		c0.6,0,1-0.4,1.1-1c0.2-0.8-0.3-1.9-1.7-2.5c-1.4-0.6-3.2-0.9-5.3-0.9c-6.8,0-15.6,2.9-22,7.3l-0.4,0.3l-0.1-0.5
		c-0.2-0.7-3.4-3.9-6.6-4.7C623.8,193,623.1,192.9,622.5,192.9z M176.5,184.4c-2.2,0-3.2,1.5-4.2,3.9c-2,4.9-4.5,15.1-5.6,22.4
		c-0.7,4.6,0.6,6.2,3.9,8.3c3.7,2.4,7.5,2.5,9.6,0.2c0.9-1,1.8-2.1,2.8-3.1c4.3-4.8,9.1-10.2,13.2-13.2c1-0.7,2.1-0.3,2.6,1
		c5,13.3,13.1,15.3,17.5,15.3c0.6,0,1.3,0,1.9-0.1c1.6-0.2,2.5-1.3,2.5-2.3c0-0.6-0.5-1-1.2-1l-0.2,0c-6.6,0-8-6.6-9.9-15.7
		l-0.2-0.9c-0.6-3.1-2.8-5.4-6.4-6.7c-1-0.4-1.9-0.5-2.7-0.5c-1.8,0-3.1,0.9-4.3,1.8c-3.4,2.4-8.1,7.3-11.9,11.2
		c-3.5,3.6-5.3,5.4-5.9,5.5l-0.5,0.1l0.1-0.5c0.6-3.7,2.6-12.1,5.7-19.1c0.4-0.9,0.4-1.8,0.1-2.6c-0.5-1.2-1.7-2.2-3.6-3
		C178.5,184.7,177.4,184.4,176.5,184.4z M402.1,205.1l0,0.8c0.4,8.6,6.3,13,9.1,13.7c1.6,0.4,3,0.2,3.4-0.5c0.2-0.4,0.2-0.8-0.1-1.4
		c-3.9-6.6-1.5-19-1.2-20.4c0.9-4.2-1.3-5.5-3.7-7l-0.1-0.1c-1.1-0.7-2.2-1-3.2-1c-0.7,0-1.6,0.2-2,1.1C401,198,390.6,209,385.6,209
		c-1.5,0-2.6-0.5-3.3-1.6c-1.7-2.7-0.2-8.1,1.7-12.2c1.3-2.7,0.6-4.4-2.4-6.1c-1.5-0.8-2.9-1.2-4-1.2c-1.5,0-2.6,0.7-3.2,2
		c-0.9,2-2.7,7.1-3.8,13.4c-0.5,2.9,0.5,5.9,2.7,8.5c2.6,3.1,6.6,5.2,9.9,5.2c4.3,0,10.3-3.7,18.3-11.3L402.1,205.1z M429.9,187.9
		c-2,0-3.2,1.4-4,4.6c-2.4,8.9-2,16.8,1,21.6c1.5,2.5,3.7,4,6.4,4.5c1.5,0.3,2.8,0.1,3.2-0.6c0.2-0.4,0.1-0.8,0-1.1
		c-2.3-5-2.9-13.7,0.2-20.8c1.6-3.6,0.8-5.5-2.8-7.2C432.1,188.3,430.9,187.9,429.9,187.9z M593.1,214.9c-2,0-3.8-0.8-4.9-2.2
		c-1.2-1.5-1.7-3.6-1.3-5.7c0.7-3.7,5.1-8.1,9.1-8.1c1.7,0,3.2,0.6,4.3,1.9c1.5,1.6,2.1,3.9,2,5.3
		C601.9,210.8,597.6,214.9,593.1,214.9z M234.3,210.2c-0.8,0-1.2-0.4-1.4-0.6c-0.4-0.6-0.5-1.5-0.2-2.5c1-3.3,8.1-13.9,11.5-13.9
		c0.9,0,1.8,0.5,2.4,1.4c0.8,1.3,1,3,0.3,4.6C244.7,204.1,238.7,210.2,234.3,210.2z M774.4,204.8l0-0.4c-0.5-4.7,2.9-7.6,6.2-8.8
		c0.5-0.2,1.1-0.3,1.7-0.3c1.5,0,2.7,0.6,3.2,1.7c0.5,1,0.3,2.1-0.6,3.2c-2.1,2.8-7.2,3.9-10.1,4.4L774.4,204.8z M283.9,200.6
		l0.2-0.7c1-4.9,3.6-8.6,7.1-10.6c0.5-0.3,1.1-0.5,1.8-0.5c1.3,0,2.4,0.6,2.7,1.6c0.2,0.6,0.4,1.9-1.5,3.7c-2.1,2-5.3,4-9.6,6.2
		L283.9,200.6z M727.1,163.9c-1.1,0-1.9,0.3-2.3,0.8c-0.7,0.9-0.3,2.2,0.1,3.1c1.7,3.4,6.6,7,9.6,7c0.9,0,1.5-0.3,1.9-0.9
		c0.9-1.2-0.1-5.2-2.9-7.3C731.5,164.9,729.1,163.9,727.1,163.9z M432.8,163.7c-0.8,0-1.4,0.3-1.8,0.8c-0.8,1-0.8,2.1-0.2,3.4
		c1.4,2.9,6,5.7,9.3,5.7c1.2,0,2-0.3,2.5-1c0.4-0.4,0-1.3-0.2-1.7C441.1,167.8,435.9,163.7,432.8,163.7z"/>
</g>
<g id="SIEMENS">
	<g>
		<path class="st1" d="M2.1,104.6V84c11.7,3.7,22.1,5.5,31.2,5.5c12.5,0,18.7-3.3,18.7-9.9c0-2.5-0.9-4.5-2.7-6.2
			c-1.9-1.8-6.6-4.2-14.3-7.4C21.2,60.4,12.3,55.6,8.1,51.6C2.7,46.3,0,39.7,0,31.7C0,21.3,3.9,13.5,11.8,8c7.8-5.4,17.9-8,30.4-8
			c6.9,0,16.9,1.3,29.9,3.8v19.8c-9.7-3.9-18.7-5.8-27-5.8c-11.7,0-17.6,3.2-17.6,9.7c0,2.4,1.2,4.4,3.5,5.9c2,1.2,7.4,3.8,16.2,7.8
			C60,46.9,68.5,51.8,72.8,56c5,5,7.5,11.4,7.5,19.3c0,11.3-4.9,20-14.8,25.9c-8,4.8-18.3,7.2-31,7.2C23.8,108.4,13,107.1,2.1,104.6
			L2.1,104.6z"/>
		<polygon class="st1" points="96.8,1.8 96.8,1.8 126,1.8 126,106.3 96.8,106.3 		"/>
		<polygon class="st1" points="152.7,106.3 152.7,1.8 227.6,1.8 227.6,20.7 180.9,20.7 180.9,44.3 221.5,44.3 221.5,61.5 
			180.9,61.5 180.9,86.3 228.8,86.3 228.8,106.3 		"/>
		<polygon class="st1" points="247.8,106.3 247.8,1.8 285.7,1.8 312,68.6 338.9,1.8 374.8,1.8 374.8,106.3 347.2,106.3 347.2,32.3 
			316.5,107.4 298.4,107.4 268.4,32.3 268.4,106.3 		"/>
		<polygon class="st1" points="401.6,106.3 401.6,1.8 476.5,1.8 476.5,20.7 429.7,20.7 429.7,44.3 470.4,44.3 470.4,61.5 
			429.7,61.5 429.7,86.3 477.7,86.3 477.7,106.3 		"/>
		<polygon class="st1" points="496.9,106.3 496.9,1.8 530.7,1.8 566.6,71.8 566.6,1.8 587.1,1.8 587.1,106.3 554.3,106.3 
			517.4,35.4 517.4,106.3 		"/>
		<path class="st1" d="M607.9,104.6V84c11.6,3.7,22,5.5,31.2,5.5c12.5,0,18.7-3.3,18.7-9.9c0-2.5-0.9-4.5-2.6-6.2
			c-1.9-1.8-6.7-4.2-14.4-7.4c-13.7-5.6-22.7-10.4-26.9-14.5c-5.4-5.2-8.1-11.9-8.1-20c0-10.3,3.9-18.1,11.8-23.5
			c7.8-5.4,17.9-8,30.4-8c7,0,16.1,1.1,27.3,3.4l2.6,0.4v19.8c-9.7-3.9-18.7-5.8-27.1-5.8c-11.7,0-17.5,3.2-17.5,9.7
			c0,2.4,1.2,4.4,3.5,5.9c1.9,1.2,7.3,3.8,16.3,7.8c12.7,5.7,21.1,10.6,25.4,14.8c5,5,7.5,11.4,7.5,19.3c0,11.3-4.9,20-14.7,25.9
			c-8,4.8-18.4,7.2-31.1,7.2C629.5,108.4,618.7,107.1,607.9,104.6L607.9,104.6z"/>
	</g>
</g>
</svg>
