<svg width="84" height="84" viewBox="0 0 84 84" fill="none" xmlns="http://www.w3.org/2000/svg">
<path d="M0 42C0 18.804 18.804 0 42 0C65.196 0 84 18.804 84 42C84 65.196 65.196 84 42 84C18.804 84 0 65.196 0 42Z" fill="#FADDDD" fill-opacity="0.5"/>
<path d="M64.1469 29.5934C65.8215 32.8128 66.646 36.2786 66.816 39.8973C66.8245 39.9993 66.816 42.072 66.8075 42.1909C66.731 44.0597 66.4505 45.9031 65.966 47.7124C62.2089 61.754 47.512 69.9259 33.5886 65.7125C31.0385 64.9395 28.6924 63.8013 26.5843 62.3742L17.9396 64.8801L20.0052 55.9182C15.959 50.1843 14.2675 42.8365 15.874 35.4801C18.7811 22.1436 31.7865 13.3176 45.2679 15.6452C53.8616 17.1232 60.1433 21.8802 64.1469 29.5934Z" fill="#F58233"/>
<path d="M27.7676 48.3779C25.8223 48.3779 24.2783 47.7305 23.1357 46.4355C22.0459 45.1934 21.501 43.585 21.501 41.6104C21.501 39.6885 22.0664 38.0918 23.1973 36.8203C24.3691 35.502 25.9043 34.8428 27.8027 34.8428C28.8926 34.8428 29.8037 35.0508 30.5361 35.4668C31.2686 35.877 31.6348 36.3516 31.6348 36.8906C31.6348 37.2363 31.5146 37.5439 31.2744 37.8135C31.0342 38.0771 30.7412 38.209 30.3955 38.209C30.1846 38.209 29.7832 38.127 29.1914 37.9629C28.6055 37.793 28.1484 37.708 27.8203 37.708C26.7715 37.708 25.9658 38.124 25.4033 38.9561C24.917 39.6709 24.6738 40.5791 24.6738 41.6807C24.6738 42.7822 24.9316 43.6816 25.4473 44.3789C26.0215 45.1582 26.8418 45.5479 27.9082 45.5479C28.3477 45.5479 28.8691 45.4395 29.4727 45.2227C30.0762 45 30.4629 44.8887 30.6328 44.8887C30.9492 44.8887 31.2217 45.0205 31.4502 45.2842C31.6846 45.5479 31.8018 45.8408 31.8018 46.1631C31.8018 46.7607 31.415 47.2793 30.6416 47.7188C29.874 48.1582 28.916 48.3779 27.7676 48.3779ZM35.6602 39.1406C36.2344 38.543 37.0459 38.2441 38.0947 38.2441C40.3975 38.2441 41.5488 39.4922 41.5488 41.9883V46.0576C41.5488 47.4346 41.0742 48.123 40.125 48.123C39.1758 48.123 38.7012 47.4346 38.7012 46.0576V42.8496C38.7012 42.1758 38.6191 41.6748 38.4551 41.3467C38.2207 40.8838 37.793 40.6523 37.1719 40.6523C36.1641 40.6523 35.6602 41.373 35.6602 42.8145V46.0576C35.6602 47.4346 35.1855 48.123 34.2363 48.123C33.293 48.123 32.8213 47.4346 32.8213 46.0576V36.3369C32.8213 34.9541 33.293 34.2627 34.2363 34.2627C35.1855 34.2627 35.6602 34.9541 35.6602 36.3369V39.1406ZM49.5381 47.1387C48.9521 47.8594 48.1611 48.2197 47.165 48.2197C45.8643 48.2197 44.8037 47.6982 43.9834 46.6553C43.2334 45.6943 42.8584 44.5459 42.8584 43.21C42.8584 41.8682 43.2539 40.7139 44.0449 39.7471C44.8887 38.71 45.9639 38.1914 47.2705 38.1914C48.2256 38.1914 48.9814 38.5283 49.5381 39.2021C49.8662 38.5986 50.3174 38.2969 50.8916 38.2969C51.8232 38.2969 52.2891 38.9824 52.2891 40.3535V46.0576C52.2891 47.4346 51.8232 48.123 50.8916 48.123C50.2822 48.123 49.8311 47.7949 49.5381 47.1387ZM45.7939 43.1748C45.7939 43.8018 45.9375 44.3291 46.2246 44.7568C46.5586 45.249 47.0273 45.4951 47.6309 45.4951C48.2227 45.4951 48.6855 45.2461 49.0195 44.748C49.3066 44.3145 49.4502 43.79 49.4502 43.1748C49.4502 42.5713 49.3008 42.0557 49.002 41.6279C48.668 41.1475 48.2109 40.9072 47.6309 40.9072C47.0391 40.9072 46.5762 41.1445 46.2422 41.6191C45.9434 42.041 45.7939 42.5596 45.7939 43.1748ZM54.8379 41.0303C53.7012 41.0303 53.1328 40.623 53.1328 39.8086C53.1328 39.0352 53.7012 38.6133 54.8379 38.543C54.8379 38.4551 54.835 38.2998 54.8291 38.0771C54.8232 37.8545 54.8203 37.6787 54.8203 37.5498C54.8203 36.0088 55.3008 35.2383 56.2617 35.2383C57.2109 35.2383 57.6855 36.0088 57.6855 37.5498C57.6855 37.6787 57.6826 37.8574 57.6768 38.0859C57.6709 38.3086 57.668 38.4639 57.668 38.5518C59.0215 38.5518 59.6982 38.9707 59.6982 39.8086C59.6982 40.623 59.0215 41.0303 57.668 41.0303V46.0576C57.668 47.4346 57.1992 48.123 56.2617 48.123C55.3125 48.123 54.8379 47.4346 54.8379 46.0576V41.0303Z" fill="white"/>
</svg>
