<svg width="90" height="28" viewBox="0 0 90 28" fill="none" xmlns="http://www.w3.org/2000/svg">
<rect width="90" height="28" fill="#4460A0"/>
<path d="M42.3799 14.2466C41.1738 13.8999 40.2949 13.4751 39.7432 12.9722C39.1963 12.4644 38.9229 11.8394 38.9229 11.0972C38.9229 10.2573 39.2573 9.56396 39.9263 9.01709C40.6001 8.46533 41.4741 8.18945 42.5483 8.18945C43.2808 8.18945 43.9326 8.33105 44.5039 8.61426C45.0801 8.89746 45.5244 9.28809 45.8369 9.78613C46.1543 10.2842 46.313 10.8286 46.313 11.4194H44.8994C44.8994 10.7749 44.6943 10.2695 44.2842 9.90332C43.874 9.53223 43.2954 9.34668 42.5483 9.34668C41.855 9.34668 41.313 9.50049 40.9224 9.80811C40.5366 10.1108 40.3438 10.5332 40.3438 11.0752C40.3438 11.5098 40.5269 11.8784 40.8931 12.1812C41.2642 12.479 41.8916 12.7524 42.7754 13.0015C43.6641 13.2505 44.3574 13.5264 44.8555 13.8291C45.3584 14.127 45.7295 14.4761 45.9688 14.8765C46.2129 15.2769 46.335 15.748 46.335 16.29C46.335 17.1543 45.998 17.8477 45.3242 18.3701C44.6504 18.8877 43.7495 19.1465 42.6216 19.1465C41.8892 19.1465 41.2056 19.0073 40.5708 18.729C39.936 18.4458 39.4453 18.0601 39.0986 17.5718C38.7568 17.0835 38.5859 16.5293 38.5859 15.9092H39.9995C39.9995 16.5537 40.2363 17.064 40.71 17.4399C41.1885 17.811 41.8257 17.9966 42.6216 17.9966C43.3638 17.9966 43.9326 17.8452 44.3281 17.5425C44.7236 17.2397 44.9214 16.8271 44.9214 16.3047C44.9214 15.7822 44.7383 15.3794 44.3721 15.0962C44.0059 14.8081 43.3418 14.5249 42.3799 14.2466ZM49.2866 12.0347C49.8872 11.2974 50.6685 10.9287 51.6304 10.9287C53.3052 10.9287 54.1499 11.8735 54.1646 13.7632V19H52.8096V13.7559C52.8047 13.1846 52.6729 12.7622 52.4141 12.4888C52.1602 12.2153 51.7622 12.0786 51.2202 12.0786C50.7808 12.0786 50.395 12.1958 50.063 12.4302C49.731 12.6646 49.4722 12.9722 49.2866 13.353V19H47.9316V7.75H49.2866V12.0347ZM61.0859 19C61.0078 18.8438 60.9443 18.5654 60.8955 18.165C60.2656 18.8193 59.5137 19.1465 58.6396 19.1465C57.8584 19.1465 57.2163 18.9268 56.7134 18.4873C56.2153 18.043 55.9663 17.4814 55.9663 16.8027C55.9663 15.9775 56.2788 15.3379 56.9038 14.8838C57.5337 14.4248 58.4175 14.1953 59.5552 14.1953H60.8735V13.5728C60.8735 13.0991 60.7319 12.7231 60.4487 12.4448C60.1655 12.1616 59.748 12.02 59.1963 12.02C58.7129 12.02 58.3076 12.1421 57.9805 12.3862C57.6533 12.6304 57.4897 12.9258 57.4897 13.2725H56.1274C56.1274 12.877 56.2666 12.4961 56.5449 12.1299C56.8281 11.7588 57.209 11.4658 57.6875 11.251C58.1709 11.0361 58.7007 10.9287 59.2769 10.9287C60.1899 10.9287 60.9053 11.1582 61.4229 11.6172C61.9404 12.0713 62.209 12.6987 62.2285 13.4995V17.147C62.2285 17.8745 62.3213 18.4531 62.5068 18.8828V19H61.0859ZM58.8374 17.9673C59.2622 17.9673 59.665 17.8574 60.0459 17.6377C60.4268 17.418 60.7026 17.1323 60.8735 16.7808V15.1548H59.8115C58.1514 15.1548 57.3213 15.6406 57.3213 16.6123C57.3213 17.0371 57.4629 17.3691 57.7461 17.6084C58.0293 17.8477 58.3931 17.9673 58.8374 17.9673ZM68.1831 12.291C67.978 12.2568 67.7559 12.2397 67.5166 12.2397C66.6279 12.2397 66.0249 12.6182 65.7075 13.375V19H64.3525V11.0752H65.6709L65.6929 11.9907C66.1372 11.2827 66.7671 10.9287 67.5825 10.9287C67.8462 10.9287 68.0464 10.9629 68.1831 11.0312V12.291ZM72.5776 19.1465C71.5034 19.1465 70.6294 18.7949 69.9556 18.0918C69.2817 17.3838 68.9448 16.439 68.9448 15.2573V15.0083C68.9448 14.2222 69.0938 13.5215 69.3916 12.9062C69.6943 12.2861 70.1143 11.8027 70.6514 11.4561C71.1934 11.1045 71.7793 10.9287 72.4092 10.9287C73.4395 10.9287 74.2402 11.2681 74.8115 11.9468C75.3828 12.6255 75.6685 13.5972 75.6685 14.8618V15.4258H70.2998C70.3193 16.207 70.5464 16.8394 70.981 17.3228C71.4204 17.8013 71.9771 18.0405 72.6509 18.0405C73.1294 18.0405 73.5347 17.9429 73.8667 17.7476C74.1987 17.5522 74.4893 17.2935 74.7383 16.9712L75.5659 17.6157C74.9019 18.6362 73.9058 19.1465 72.5776 19.1465ZM72.4092 12.042C71.8623 12.042 71.4033 12.2422 71.0322 12.6426C70.6611 13.0381 70.4316 13.5947 70.3438 14.3125H74.3135V14.21C74.2744 13.5215 74.0889 12.9893 73.7568 12.6133C73.4248 12.2324 72.9756 12.042 72.4092 12.042Z" fill="white"/>
<path d="M22.9 4H5.1C4.80826 4 4.52847 4.11589 4.32218 4.32218C4.11589 4.52847 4 4.80826 4 5.1V22.9C4 23.0445 4.02845 23.1875 4.08373 23.321C4.13901 23.4544 4.22004 23.5757 4.32218 23.6778C4.42433 23.78 4.54559 23.861 4.67905 23.9163C4.81251 23.9715 4.95555 24 5.1 24H14.68V16.25H12.08V13.25H14.68V11C14.6261 10.4718 14.6885 9.93813 14.8627 9.43654C15.0369 8.93495 15.3188 8.47755 15.6885 8.09641C16.0582 7.71528 16.5068 7.41964 17.0028 7.23024C17.4989 7.04083 18.0304 6.96225 18.56 7C19.3383 6.99521 20.1163 7.03528 20.89 7.12V9.82H19.3C18.04 9.82 17.8 10.42 17.8 11.29V13.22H20.8L20.41 16.22H17.8V24H22.9C23.0445 24 23.1875 23.9715 23.321 23.9163C23.4544 23.861 23.5757 23.78 23.6778 23.6778C23.78 23.5757 23.861 23.4544 23.9163 23.321C23.9715 23.1875 24 23.0445 24 22.9V5.1C24 4.95555 23.9715 4.81251 23.9163 4.67905C23.861 4.54559 23.78 4.42433 23.6778 4.32218C23.5757 4.22004 23.4544 4.13901 23.321 4.08373C23.1875 4.02845 23.0445 4 22.9 4Z" fill="white"/>
</svg>
