<svg width="40" height="38" viewBox="0 0 40 38" fill="none" xmlns="http://www.w3.org/2000/svg">
<g filter="url(#filter0_d)">
<circle cx="20" cy="18" r="12" fill="white"/>
<path d="M26.7069 15.4088C26.6313 15.1325 26.4774 14.8794 26.2606 14.6749C26.0439 14.4705 25.772 14.322 25.4724 14.2445C24.378 14 20 14 20 14C20 14 15.622 14 14.5276 14.2678C14.228 14.3453 13.9561 14.4938 13.7394 14.6982C13.5226 14.9027 13.3687 15.1558 13.2931 15.4321C13.0928 16.4483 12.9948 17.4791 13.0004 18.5116C12.9932 19.552 13.0912 20.5907 13.2931 21.6145C13.3764 21.8822 13.5338 22.1257 13.7501 22.3215C13.9663 22.5173 14.2341 22.6588 14.5276 22.7322C15.622 23 20 23 20 23C20 23 24.378 23 25.4724 22.7322C25.772 22.6547 26.0439 22.5062 26.2606 22.3018C26.4774 22.0973 26.6313 21.8442 26.7069 21.5679C26.9057 20.5594 27.0037 19.5364 26.9996 18.5116C27.0068 17.4713 26.9088 16.4326 26.7069 15.4088V15.4088Z" stroke="#F58233" stroke-width="1.2" stroke-linecap="round" stroke-linejoin="round"/>
<path d="M19 20L22 18.5L19 17V20Z" stroke="#F58233" stroke-width="1.2" stroke-linecap="round" stroke-linejoin="round"/>
</g>
<defs>
<filter id="filter0_d" x="0" y="-2" width="40" height="40" filterUnits="userSpaceOnUse" color-interpolation-filters="sRGB">
<feFlood flood-opacity="0" result="BackgroundImageFix"/>
<feColorMatrix in="SourceAlpha" type="matrix" values="0 0 0 0 0 0 0 0 0 0 0 0 0 0 0 0 0 0 127 0"/>
<feOffset/>
<feGaussianBlur stdDeviation="4"/>
<feColorMatrix type="matrix" values="0 0 0 0 0 0 0 0 0 0 0 0 0 0 0 0 0 0 0.1 0"/>
<feBlend mode="normal" in2="BackgroundImageFix" result="effect1_dropShadow"/>
<feBlend mode="normal" in="SourceGraphic" in2="effect1_dropShadow" result="shape"/>
</filter>
</defs>
</svg>
