<svg width="48" height="48" viewBox="0 0 48 48" fill="none" xmlns="http://www.w3.org/2000/svg">
<path d="M0 24C0 10.7452 10.7452 0 24 0C37.2548 0 48 10.7452 48 24C48 37.2548 37.2548 48 24 48C10.7452 48 0 37.2548 0 24Z" fill="white"/>
<path d="M23.6808 24.681C23.6856 24.8266 23.6565 25.0111 23.603 25.1907C23.4379 25.7052 23.0493 26.0013 22.5247 26.0013C22.0244 26.0013 21.6164 25.7101 21.4561 25.2101C21.3055 24.749 21.3201 24.2878 21.5387 23.8461C21.7378 23.4432 22.073 23.2199 22.5247 23.2248C22.991 23.2248 23.3213 23.4578 23.5205 23.8704C23.6468 24.1082 23.6856 24.3703 23.6808 24.681Z" fill="#E20008"/>
<path d="M29.8009 24.6373C29.7864 24.3801 29.8301 24.1519 29.9224 23.9335C30.1215 23.4675 30.5052 23.2054 30.9764 23.2151C31.4378 23.2248 31.8264 23.5112 32.0013 23.9772C32.1713 24.4432 32.1713 24.914 31.9527 25.3654C31.7487 25.7975 31.3892 26.0013 30.9181 25.9916C30.4372 25.9819 30.0681 25.7101 29.9029 25.2587C29.8301 25.0548 29.7815 24.8412 29.8009 24.6373Z" fill="#E20008"/>
<path d="M38.1806 22.7983C38.0835 20.7305 37.6123 18.75 36.6554 16.9104C34.3677 12.5028 30.7781 9.78456 25.8674 8.93995C18.1637 7.60994 10.7321 12.6533 9.07091 20.2742C8.15288 24.4779 9.11948 28.6766 11.4316 31.9531L10.2512 37.0742L15.1911 35.6422C16.3957 36.4577 17.7363 37.1082 19.1935 37.5499C27.1497 39.9575 35.548 35.2879 37.6949 27.2641C37.9718 26.2302 38.132 25.1768 38.1758 24.1089C38.1806 24.041 38.1855 22.8566 38.1806 22.7983ZM13.1122 26.3176C13.1802 26.0894 13.3065 25.8904 13.4473 25.7059C14.5451 24.2837 15.6428 22.8615 16.7357 21.4441C16.8231 21.3276 16.9591 21.1916 16.9057 21.0654C16.8474 20.9344 16.6628 21.012 16.5317 21.0169C15.74 21.0315 14.9482 21.0363 14.1565 20.9878C13.9768 20.9781 13.8068 20.9295 13.6416 20.8567C13.3453 20.7208 13.1996 20.4927 13.1947 20.1674C13.1899 19.8374 13.3356 19.5947 13.6416 19.4539C13.9671 19.3034 14.3168 19.2937 14.6665 19.2937C15.9391 19.2888 17.2069 19.2986 18.4795 19.3083C18.8195 19.3083 19.1449 19.3568 19.3829 19.6335C19.6792 19.9733 19.7035 20.4053 19.4024 20.8422C19.0235 21.3858 18.6203 21.9101 18.2172 22.4391C17.4012 23.5168 16.5803 24.5895 15.7642 25.6623C15.7302 25.7059 15.7011 25.7545 15.638 25.8419C16.5123 25.8419 17.3332 25.8419 18.1589 25.8419C18.46 25.8419 18.7563 25.8176 19.0575 25.8661C19.5529 25.9486 19.8201 26.2836 19.7958 26.8078C19.7764 27.2495 19.4704 27.5456 18.9798 27.5699C18.5766 27.5893 18.1735 27.5893 17.7655 27.599C16.5754 27.6233 15.3902 27.6087 14.2002 27.5602C14.0885 27.5553 13.9719 27.5408 13.8602 27.5262C13.2336 27.4243 12.9276 26.9243 13.1122 26.3176ZM25.4254 26.6282C25.4205 27.1913 24.9542 27.5796 24.4054 27.4971C24.2208 27.468 24.0751 27.3757 23.9488 27.2398C23.8371 27.1185 23.7059 27.0796 23.5602 27.1816C22.0399 28.2543 20.1601 27.2301 19.7132 25.4535C19.3926 24.1866 19.8444 22.8081 20.8304 22.0897C21.6318 21.5072 22.6616 21.4732 23.4922 22.012C23.6622 22.1236 23.7982 22.1722 23.9536 21.9926C24.2159 21.6868 24.5511 21.6625 24.9057 21.8033C25.2651 21.944 25.4205 22.2304 25.4254 22.6042C25.4302 23.274 25.4254 23.9439 25.4254 24.6186C25.4254 25.2885 25.4351 25.9584 25.4254 26.6282ZM27.6063 26.4341C27.6063 26.5554 27.5966 26.6768 27.5723 26.7933C27.4849 27.2932 27.1692 27.5262 26.6349 27.4874C26.2123 27.4583 25.916 27.133 25.9063 26.667C25.8917 26.0215 25.8917 25.3759 25.8868 24.7254C25.882 24.2788 25.8868 23.8371 25.8868 23.3905C25.8917 23.3905 25.8965 23.3905 25.9014 23.3905C25.9014 22.3129 25.8965 21.2402 25.9014 20.1626C25.9063 19.4927 26.4211 19.1287 27.0574 19.3374C27.4169 19.4539 27.6015 19.7451 27.6015 20.216C27.6015 21.4683 27.6015 22.7255 27.6015 23.9779C27.6063 24.7982 27.6063 25.6137 27.6063 26.4341ZM30.9433 27.6184C29.2626 27.6087 28.0483 26.337 28.0532 24.5944C28.058 22.8566 29.2578 21.6431 30.9724 21.6479C32.6627 21.6479 33.8771 22.8954 33.8771 24.6235C33.8674 26.3418 32.6093 27.6282 30.9433 27.6184Z" fill="#01442A"/>
<path d="M38.1806 22.7983C38.0835 20.7305 37.6123 18.75 36.6554 16.9103C34.3676 12.5028 30.7781 9.78456 25.8674 8.93995C18.1637 7.60994 10.7321 12.6533 9.07091 20.2742C8.15288 24.4779 9.11948 28.6766 11.4316 31.9531L10.2512 37.0742L15.1911 35.6422C16.3957 36.4577 17.7363 37.1082 19.1935 37.5499C27.1497 39.9575 35.548 35.2879 37.6949 27.2641C37.9718 26.2302 38.132 25.1768 38.1758 24.1089C38.1806 24.041 38.1855 22.8566 38.1806 22.7983ZM13.1122 26.3176C13.1802 26.0894 13.3065 25.8904 13.4473 25.7059C14.5451 24.2837 15.6428 22.8615 16.7357 21.4441C16.8231 21.3276 16.9591 21.1916 16.9057 21.0654C16.8474 20.9344 16.6628 21.012 16.5317 21.0169C15.74 21.0315 14.9482 21.0363 14.1565 20.9878C13.9768 20.9781 13.8068 20.9295 13.6416 20.8567C13.3453 20.7208 13.1996 20.4927 13.1947 20.1674C13.1899 19.8374 13.3356 19.5947 13.6416 19.4539C13.9671 19.3034 14.3168 19.2937 14.6665 19.2937C15.9391 19.2888 17.2069 19.2986 18.4795 19.3083C18.8195 19.3083 19.1449 19.3568 19.3829 19.6335C19.6792 19.9733 19.7035 20.4053 19.4024 20.8422C19.0235 21.3858 18.6203 21.9101 18.2172 22.4391C17.4012 23.5168 16.5803 24.5895 15.7642 25.6623C15.7302 25.7059 15.7011 25.7545 15.638 25.8419C16.5123 25.8419 17.3332 25.8419 18.1589 25.8419C18.46 25.8419 18.7563 25.8176 19.0575 25.8661C19.5529 25.9486 19.8201 26.2836 19.7958 26.8078C19.7764 27.2495 19.4704 27.5456 18.9798 27.5699C18.5766 27.5893 18.1735 27.5893 17.7654 27.599C16.5754 27.6233 15.3902 27.6087 14.2002 27.5602C14.0885 27.5553 13.9719 27.5408 13.8602 27.5262C13.2336 27.4243 12.9276 26.9243 13.1122 26.3176ZM25.4254 26.6282C25.4205 27.1913 24.9542 27.5796 24.4054 27.4971C24.2208 27.468 24.0751 27.3757 23.9488 27.2398C23.8371 27.1185 23.7059 27.0796 23.5602 27.1816C22.0399 28.2543 20.1601 27.2301 19.7132 25.4535C19.3926 24.1866 19.8444 22.8081 20.8304 22.0897C21.6318 21.5072 22.6616 21.4732 23.4922 22.012C23.6622 22.1236 23.7982 22.1722 23.9536 21.9926C24.2159 21.6868 24.5511 21.6625 24.9057 21.8033C25.2651 21.944 25.4205 22.2304 25.4254 22.6042C25.4302 23.274 25.4254 23.9439 25.4254 24.6186C25.4254 25.2885 25.4351 25.9584 25.4254 26.6282ZM27.6063 26.434C27.6063 26.5554 27.5966 26.6768 27.5723 26.7933C27.4849 27.2932 27.1692 27.5262 26.6349 27.4874C26.2123 27.4583 25.916 27.133 25.9063 26.667C25.8917 26.0215 25.8917 25.3759 25.8868 24.7254C25.882 24.2788 25.8868 23.8371 25.8868 23.3905C25.8917 23.3905 25.8965 23.3905 25.9014 23.3905C25.9014 22.3129 25.8965 21.2402 25.9014 20.1626C25.9063 19.4927 26.4211 19.1287 27.0574 19.3374C27.4169 19.4539 27.6014 19.7451 27.6014 20.216C27.6014 21.4683 27.6014 22.7255 27.6014 23.9779C27.6063 24.7982 27.6063 25.6137 27.6063 26.434ZM30.9433 27.6184C29.2626 27.6087 28.0483 26.337 28.0532 24.5944C28.058 22.8566 29.2578 21.6431 30.9724 21.6479C32.6627 21.6479 33.8771 22.8954 33.8771 24.6235C33.8673 26.3418 32.6093 27.6282 30.9433 27.6184Z" fill="#F58233"/>
</svg>
