<svg width="48" height="48" viewBox="0 0 48 48" fill="none" xmlns="http://www.w3.org/2000/svg">
<path fill-rule="evenodd" clip-rule="evenodd" d="M0 24C0 10.7452 10.7452 0 24 0C37.2548 0 48 10.7452 48 24C48 37.2548 37.2548 48 24 48C10.7452 48 0 37.2548 0 24Z" fill="white"/>
<path d="M31.35 10.5H27.3C25.5098 10.5 23.7929 11.2112 22.527 12.477C21.2612 13.7429 20.55 15.4598 20.55 17.25V21.3H16.5V26.7H20.55V37.5H25.95V26.7H30L31.35 21.3H25.95V17.25C25.95 16.892 26.0922 16.5486 26.3454 16.2954C26.5986 16.0422 26.942 15.9 27.3 15.9H31.35V10.5Z" fill="#F58233"/>
</svg>
