<svg width="159" height="52" viewBox="0 0 159 52" fill="none" xmlns="http://www.w3.org/2000/svg">
<g clip-path="url(#clip0)">
<path d="M16.1494 22.3777C16.1494 22.3777 10.6523 28.1296 10.6523 36.4298C10.6523 44.7664 19.9719 51.1007 26.1606 51.1007H45.0545C45.4185 51.1007 45.5641 50.5911 45.2365 50.409C40.6131 47.8243 24.2676 38.5776 23.5031 37.8131C12.8366 30.2774 16.1494 22.3777 16.1494 22.3777Z" fill="#F58233"/>
<path d="M37.628 26.4551C38.2468 25.2537 40.8316 21.1036 40.8316 13.2403C40.8316 5.34053 31.7669 0.862793 25.1413 0.862793H5.91979C5.51934 0.862793 5.41013 1.44526 5.81057 1.55448C9.99707 2.90144 18.9525 6.32345 28.0172 13.4223C36.5722 19.8295 37.0455 24.0888 37.628 26.4551Z" fill="#F58233"/>
<path d="M0.859619 41.9634V22.9239C0.859619 22.9239 1.87894 10.1824 15.8582 10.1824C22.411 10.4008 25.0321 12.7671 25.0321 12.7671C25.0321 12.7671 15.0937 17.0992 1.5513 42.1454C1.36928 42.473 0.859619 42.3274 0.859619 41.9634Z" fill="#F58233"/>
<path d="M48.9497 8.07097C49.1317 7.74333 49.6414 7.85254 49.6414 8.21659V27.5473C49.6414 30.3868 47.1659 40.2888 34.6428 40.2888C28.09 40.0704 22.9934 35.5927 22.9934 35.5927C22.9934 35.5927 32.859 40.1068 39.0113 27.0012C41.232 22.6327 44.2899 17.2449 48.9497 8.07097Z" fill="#F58233"/>
<path d="M82.8057 18.9194C82.8057 23.2516 79.9661 25.545 78.0367 26.3459L83.3153 36.8668H77.0902L72.5032 27.1832H68.1711V36.8668H62.6741V10.4736H73.4134C79.7477 10.4736 82.8057 14.1505 82.8057 18.9194ZM72.5396 23.0695C75.3064 23.0695 77.0538 21.6498 77.0538 19.0287C77.0538 16.2255 75.1608 14.8057 72.6125 14.8057H68.2075V23.0695H72.5396Z" fill="#2A5CAA"/>
<path d="M85.9729 27.4017V25.7999C85.9729 19.5748 89.6497 15.9343 95.1832 15.9343C101.008 15.9343 104.357 19.8296 104.357 25.7635V27.6929H91.2879V28.3846C91.2879 31.0057 92.7805 33.0444 95.438 33.0444C97.6951 33.0444 98.8964 31.8794 99.1148 30.4961H104.175C103.92 33.3356 101.554 37.1581 95.438 37.1581C89.5405 37.1945 85.9729 33.6268 85.9729 27.4017ZM99.1513 24.3801V24.3437C99.1513 21.759 97.6951 19.9388 95.256 19.9388C92.8533 19.9388 91.3243 21.7954 91.3243 24.3437V24.3801H99.1513Z" fill="#2A5CAA"/>
<path d="M108.252 16.2981H113.531V19.356H113.75C114.405 17.7906 116.371 16.0068 119.683 16.0068C123.761 16.0068 126.709 18.5187 126.709 23.3605V36.8665H121.285V24.9259C121.285 21.7587 119.683 20.5938 117.536 20.5938C115.242 20.5938 113.677 22.05 113.677 25.0351V36.8301H108.252V16.2981Z" fill="#2A5CAA"/>
<path d="M137.23 37.1578C133.226 37.1578 130.459 34.7915 130.459 30.9326C130.459 27.2194 133.044 24.8167 137.776 24.8167H142.727V22.8145C142.727 20.9578 141.562 20.0841 139.56 20.0841C137.485 20.0841 136.466 21.1399 136.32 22.6688H131.187C131.333 19.2104 133.481 16.0068 139.633 16.0068C144.511 16.0068 148.042 17.9363 148.042 22.9965V36.8665H142.909V34.2818H142.691C141.963 35.738 140.252 37.1578 137.23 37.1578ZM142.727 30.0225V27.9839H139.087C136.939 27.9839 135.847 29.0396 135.847 30.5322C135.847 32.3524 137.376 33.2261 139.014 33.2261C141.053 33.2261 142.727 31.8791 142.727 30.0225Z" fill="#2A5CAA"/>
<path d="M155.869 8.47144C157.799 8.47144 159 9.59997 159 11.129C159 12.6943 157.799 13.8229 155.869 13.8229C153.976 13.8229 152.775 12.6943 152.775 11.129C152.775 9.56357 153.976 8.47144 155.869 8.47144ZM153.175 16.2984H158.6V36.8304H153.175V16.2984Z" fill="#2A5CAA"/>
<path d="M101.299 51.1373L98.0593 42.9099H100.062L102.319 49.0987L104.576 42.9099H106.469L103.192 51.1373H101.299Z" fill="#2A5CAA"/>
<path d="M110.109 42.9099H108.252V51.1373H110.109V42.9099Z" fill="#2A5CAA"/>
<path d="M114.66 44.4389V46.2227H118.628V47.7517H114.66V49.5719H119.21V51.1373H112.803V42.9099H119.065V44.4389H114.66Z" fill="#2A5CAA"/>
<path d="M125.071 44.4753V51.1373H123.215V44.4753H120.703V42.9099H127.583V44.4753H125.071Z" fill="#2A5CAA"/>
<path d="M135.228 51.1373L131.223 45.8587V51.1373H129.476V42.9099H131.151L135.155 48.1885V42.9099H136.903V51.1373H135.228Z" fill="#2A5CAA"/>
<path d="M141.198 49.5355L140.543 51.1373H138.614L142.181 42.9099H144.111L147.606 51.1373H145.64L144.985 49.5355H141.198ZM143.128 44.8393L141.817 48.0429H144.402L143.128 44.8393Z" fill="#2A5CAA"/>
<path d="M156.634 51.1373V45.5674L154.45 50.3H153.248L151.064 45.5674V51.1373H149.389V42.9099H151.464L153.867 47.9337L156.233 42.9099H158.308V51.1373H156.634Z" fill="#2A5CAA"/>
</g>
<defs>
<clipPath id="clip0">
<rect width="158.14" height="50.2744" fill="white" transform="translate(0.859619 0.862793)"/>
</clipPath>
</defs>
</svg>
