<svg width="32" height="32" viewBox="0 0 32 32" fill="none" xmlns="http://www.w3.org/2000/svg">
<circle cx="16" cy="16" r="13.4" stroke="#666666" stroke-width="2"/>
<g clip-path="url(#clip0)">
<path d="M18.9707 15.1566C17.502 15.1544 16.0355 15.1502 14.5668 15.148C14.5386 15.148 14.5126 15.1544 14.4887 15.1566C14.4887 15.7685 14.4887 16.3699 14.4887 16.9819C14.9356 16.9819 15.3717 16.9819 15.8099 16.9819C16.2459 16.9819 16.682 16.9819 17.131 16.9819C17.118 17.0309 17.1137 17.0672 17.0985 17.097C16.9922 17.3103 16.9054 17.5342 16.7731 17.7325C16.1158 18.724 14.9183 19.0588 13.8401 18.8136C12.2173 18.4468 11.252 16.9222 11.6143 15.3293C12.0156 13.5722 14.044 12.5913 15.6971 13.3632C15.9422 13.4784 16.17 13.634 16.3956 13.7662C16.8382 13.3312 17.2937 12.8834 17.7515 12.4335C17.6994 12.3887 17.6409 12.3354 17.5801 12.2864C16.4911 11.4313 15.2545 11.073 13.8661 11.2372C12.9354 11.346 12.0959 11.6914 11.3865 12.2885C9.95683 13.4933 9.36024 15.0265 9.68999 16.8497C9.99804 18.5513 11.0155 19.7433 12.6274 20.4278C13.5993 20.8415 14.6167 20.8841 15.645 20.6773C16.6191 20.4811 17.4369 20.0163 18.0682 19.2507C18.5563 18.6601 18.8601 17.9841 19.0293 17.2463C19.1811 16.5895 19.218 15.9263 19.1052 15.2589C19.09 15.1715 19.0531 15.1566 18.9707 15.1566Z" fill="#666666"/>
<path d="M23.2 15.1215H22.0481V14.0084H21.0979V15.1215H19.9481V16.0938H21.0979V17.2069H22.0481V16.0938H23.2V15.1215Z" fill="#666666"/>
</g>
<defs>
<clipPath id="clip0">
<rect width="13.6" height="9.6" fill="white" transform="translate(9.6 11.2)"/>
</clipPath>
</defs>
</svg>
