<svg width="32" height="32" viewBox="0 0 32 32" fill="none" xmlns="http://www.w3.org/2000/svg">
<circle cx="16" cy="16" r="13.4" stroke="#666666" stroke-width="2"/>
<path d="M21.6 13.0453C21.1881 13.2172 20.7399 13.3408 20.2782 13.389C20.7576 13.1136 21.1165 12.6785 21.2877 12.1653C20.8379 12.4241 20.3452 12.6056 19.8314 12.7017C19.6166 12.4796 19.3569 12.3027 19.0683 12.182C18.7798 12.0613 18.4686 11.9993 18.1543 12C16.8823 12 15.8593 12.9972 15.8593 14.2208C15.8593 14.3927 15.8809 14.5645 15.9159 14.7298C14.0113 14.6335 12.3127 13.7535 11.1834 12.4062C10.9776 12.7461 10.8698 13.1331 10.8711 13.527C10.8711 14.2976 11.2762 14.9772 11.8941 15.3768C11.53 15.3629 11.1744 15.2662 10.8563 15.0943V15.1217C10.8563 16.2008 11.645 17.0951 12.6963 17.3008C12.4989 17.3504 12.2958 17.3758 12.0919 17.3763C11.9425 17.3763 11.8012 17.362 11.6585 17.3425C11.9492 18.2225 12.7959 18.8617 13.804 18.8825C13.0153 19.48 12.0273 19.8315 10.9546 19.8315C10.7621 19.8315 10.5844 19.825 10.4 19.8041C11.4176 20.4355 12.6249 20.8 13.9252 20.8C18.1462 20.8 20.4559 17.418 20.4559 14.4825C20.4559 14.3862 20.4559 14.2898 20.4492 14.1935C20.896 13.8772 21.2877 13.4853 21.6 13.0453Z" fill="#666666"/>
</svg>
