<svg width="36" height="36" viewBox="0 0 36 36" fill="none" xmlns="http://www.w3.org/2000/svg">
<path d="M20.5471 17.3609L16.7311 13.5449C16.6475 13.4605 16.5479 13.3936 16.4382 13.3479C16.3286 13.3022 16.2109 13.2787 16.0921 13.2787C15.9733 13.2787 15.8557 13.3022 15.746 13.3479C15.6363 13.3936 15.5368 13.4605 15.4531 13.5449C15.2855 13.7135 15.1914 13.9416 15.1914 14.1794C15.1914 14.4172 15.2855 14.6453 15.4531 14.8139L18.6391 17.9999L15.4531 21.1859C15.2855 21.3545 15.1914 21.5826 15.1914 21.8204C15.1914 22.0582 15.2855 22.2863 15.4531 22.4549C15.5372 22.5383 15.637 22.6043 15.7466 22.6491C15.8563 22.6939 15.9737 22.7166 16.0921 22.7159C16.2106 22.7166 16.328 22.6939 16.4376 22.6491C16.5473 22.6043 16.647 22.5383 16.7311 22.4549L20.5471 18.6389C20.6315 18.5552 20.6984 18.4557 20.7441 18.346C20.7898 18.2364 20.8133 18.1187 20.8133 17.9999C20.8133 17.8811 20.7898 17.7635 20.7441 17.6538C20.6984 17.5441 20.6315 17.4446 20.5471 17.3609Z" fill="#C4C4C4"/>
<circle cx="17.9998" cy="18" r="15.2" stroke="#C4C4C4" stroke-width="2"/>
</svg>
