<svg width="19" height="23" viewBox="0 0 19 23" fill="none" xmlns="http://www.w3.org/2000/svg">
<g clip-path="url(#clip0)">
<path d="M15.9956 12.105C16.0271 15.5503 18.9646 16.6969 18.9972 16.7114C18.9723 16.7923 18.5278 18.3453 17.4495 19.9495C16.5174 21.3364 15.55 22.7182 14.026 22.7468C12.5285 22.7749 12.047 21.8429 10.335 21.8429C8.62348 21.8429 8.08849 22.7182 6.67097 22.7749C5.19995 22.8316 4.07973 21.2752 3.1399 19.8934C1.21938 17.0668 -0.24829 11.9062 1.72242 8.42274C2.70143 6.69283 4.45099 5.59737 6.34999 5.56928C7.7945 5.54123 9.15791 6.5586 10.041 6.5586C10.9235 6.5586 12.5804 5.33513 14.3222 5.51481C15.0514 5.5457 17.0982 5.81466 18.4125 7.77312C18.3066 7.83995 15.9702 9.22457 15.9956 12.105ZM13.1813 3.64481C13.9623 2.68245 14.4879 1.34275 14.3445 0.00976562C13.2188 0.0558246 11.8576 0.773418 11.0501 1.73525C10.3265 2.58699 9.69273 3.95027 9.86373 5.25687C11.1185 5.3557 12.4003 4.60778 13.1813 3.64481Z" fill="white"/>
</g>
<defs>
<clipPath id="clip0">
<rect width="18.2133" height="22.7667" fill="white" transform="translate(0.7854 0.00927734)"/>
</clipPath>
</defs>
</svg>
