<svg width="1920" height="665" viewBox="0 0 1920 665" fill="none" xmlns="http://www.w3.org/2000/svg">
<path fill-rule="evenodd" clip-rule="evenodd" d="M40 13.1801L0 19.8586V100V665H1920V100V59.9293L1880 64.3816C1840 68.8339 1760 77.7385 1680 66.6078C1647.27 62.0543 1614.55 54.1478 1581.82 46.2412C1534.55 34.8207 1487.27 23.4002 1440 22.0847C1382.22 20.4769 1324.44 33.9644 1266.67 47.4519C1244.44 52.6394 1222.22 57.8268 1200 62.1555C1120 77.7385 1040 82.1909 960 71.0601C930.526 66.9593 901.053 60.7433 871.579 54.5274C821.053 43.8714 770.526 33.2155 720 33.2155C683.077 33.2155 646.154 38.906 609.231 44.5965C566.154 51.2355 523.077 57.8744 480 55.477C435.2 52.9837 390.4 40.7167 345.6 28.4497C310.4 18.8114 275.2 9.17303 240 4.27549C160 -6.85528 80 6.50164 40 13.1801Z" fill="#005C5F"/>
<g opacity="0.15">
<mask id="mask0" mask-type="alpha" maskUnits="userSpaceOnUse" x="0" y="0" width="1920" height="665">
<path fill-rule="evenodd" clip-rule="evenodd" d="M40 13.18L0 19.8585V100V665H1920V100V59.9292L1880 64.3816C1840 68.8339 1760 77.7385 1680 66.6077C1647.27 62.0542 1614.55 54.1477 1581.82 46.2412C1534.55 34.8206 1487.27 23.4001 1440 22.0846C1382.22 20.4769 1324.44 33.9643 1266.67 47.4518C1244.44 52.6393 1222.22 57.8268 1200 62.1554C1120 77.7385 1040 82.1908 960 71.06C930.526 66.9592 901.053 60.7432 871.579 54.5273C821.053 43.8713 770.526 33.2154 720 33.2154C683.077 33.2154 646.154 38.9059 609.231 44.5965C566.154 51.2354 523.077 57.8743 480 55.4769C435.2 52.9837 390.4 40.7167 345.6 28.4497C310.4 18.8113 275.2 9.17295 240 4.27541C160 -6.85535 80 6.50157 40 13.18Z" fill="#2D3142"/>
</mask>
<g mask="url(#mask0)">
<path d="M0 -16.1136L35.2 -23.3287C70.4 -30.5438 142.4 -44.9741 212.8 -39.5628C284.8 -34.1514 355.2 -8.89841 427.2 -10.7022C497.6 -12.506 569.6 -41.3665 640 -53.993C710.4 -66.6195 782.4 -63.012 852.8 -52.1893C924.8 -41.3665 995.2 -23.3287 1067.2 -21.5249C1137.6 -19.7211 1209.6 -34.1514 1280 -37.759C1350.4 -41.3665 1422.4 -34.1514 1492.8 -19.7211C1564.8 -5.29084 1635.2 16.3546 1707.2 14.5508C1777.6 12.747 1849.6 -12.506 1884.8 -25.1325L1920 -37.759" stroke="white"/>
<path d="M0 343.886L35.2 336.671C70.4 329.456 142.4 315.026 212.8 320.437C284.8 325.849 355.2 351.102 427.2 349.298C497.6 347.494 569.6 318.633 640 306.007C710.4 293.38 782.4 296.988 852.8 307.811C924.8 318.633 995.2 336.671 1067.2 338.475C1137.6 340.279 1209.6 325.849 1280 322.241C1350.4 318.633 1422.4 325.849 1492.8 340.279C1564.8 354.709 1635.2 376.355 1707.2 374.551C1777.6 372.747 1849.6 347.494 1884.8 334.868L1920 322.241" stroke="white"/>
<path d="M0 703.886L35.2 696.671C70.4 689.456 142.4 675.026 212.8 680.437C284.8 685.849 355.2 711.102 427.2 709.298C497.6 707.494 569.6 678.633 640 666.007C710.4 653.38 782.4 656.988 852.8 667.811C924.8 678.633 995.2 696.671 1067.2 698.475C1137.6 700.279 1209.6 685.849 1280 682.241C1350.4 678.633 1422.4 685.849 1492.8 700.279C1564.8 714.709 1635.2 736.355 1707.2 734.551C1777.6 732.747 1849.6 707.494 1884.8 694.868L1920 682.241" stroke="white"/>
<path d="M0 103.886L35.2 96.6713C70.4 89.4562 142.4 75.0259 212.8 80.4372C284.8 85.8486 355.2 111.102 427.2 109.298C497.6 107.494 569.6 78.6335 640 66.007C710.4 53.3805 782.4 56.988 852.8 67.8107C924.8 78.6335 995.2 96.6713 1067.2 98.4751C1137.6 100.279 1209.6 85.8486 1280 82.241C1350.4 78.6335 1422.4 85.8486 1492.8 100.279C1564.8 114.709 1635.2 136.355 1707.2 134.551C1777.6 132.747 1849.6 107.494 1884.8 94.8675L1920 82.241" stroke="white"/>
<path d="M0 463.886L35.2 456.671C70.4 449.456 142.4 435.026 212.8 440.437C284.8 445.849 355.2 471.102 427.2 469.298C497.6 467.494 569.6 438.633 640 426.007C710.4 413.38 782.4 416.988 852.8 427.811C924.8 438.633 995.2 456.671 1067.2 458.475C1137.6 460.279 1209.6 445.849 1280 442.241C1350.4 438.633 1422.4 445.849 1492.8 460.279C1564.8 474.709 1635.2 496.355 1707.2 494.551C1777.6 492.747 1849.6 467.494 1884.8 454.868L1920 442.241" stroke="white"/>
<path d="M0 223.886L35.2 216.671C70.4 209.456 142.4 195.026 212.8 200.437C284.8 205.849 355.2 231.102 427.2 229.298C497.6 227.494 569.6 198.633 640 186.007C710.4 173.38 782.4 176.988 852.8 187.811C924.8 198.633 995.2 216.671 1067.2 218.475C1137.6 220.279 1209.6 205.849 1280 202.241C1350.4 198.633 1422.4 205.849 1492.8 220.279C1564.8 234.709 1635.2 256.355 1707.2 254.551C1777.6 252.747 1849.6 227.494 1884.8 214.868L1920 202.241" stroke="white"/>
<path d="M0 583.886L35.2 576.671C70.4 569.456 142.4 555.026 212.8 560.437C284.8 565.849 355.2 591.102 427.2 589.298C497.6 587.494 569.6 558.633 640 546.007C710.4 533.38 782.4 536.988 852.8 547.811C924.8 558.633 995.2 576.671 1067.2 578.475C1137.6 580.279 1209.6 565.849 1280 562.241C1350.4 558.633 1422.4 565.849 1492.8 580.279C1564.8 594.709 1635.2 616.355 1707.2 614.551C1777.6 612.747 1849.6 587.494 1884.8 574.868L1920 562.241" stroke="white"/>
<path d="M0 23.8864L35.2 16.6713C70.4 9.45617 142.4 -4.97412 212.8 0.437237C284.8 5.84859 355.2 31.1016 427.2 29.2978C497.6 27.494 569.6 -1.36655 640 -13.993C710.4 -26.6195 782.4 -23.012 852.8 -12.1893C924.8 -1.36655 995.2 16.6713 1067.2 18.4751C1137.6 20.2789 1209.6 5.84859 1280 2.24102C1350.4 -1.36655 1422.4 5.8486 1492.8 20.2789C1564.8 34.7092 1635.2 56.3546 1707.2 54.5508C1777.6 52.747 1849.6 27.494 1884.8 14.8675L1920 2.24102" stroke="white"/>
<path d="M0 383.886L35.2 376.671C70.4 369.456 142.4 355.026 212.8 360.437C284.8 365.849 355.2 391.102 427.2 389.298C497.6 387.494 569.6 358.633 640 346.007C710.4 333.38 782.4 336.988 852.8 347.811C924.8 358.633 995.2 376.671 1067.2 378.475C1137.6 380.279 1209.6 365.849 1280 362.241C1350.4 358.633 1422.4 365.849 1492.8 380.279C1564.8 394.709 1635.2 416.355 1707.2 414.551C1777.6 412.747 1849.6 387.494 1884.8 374.868L1920 362.241" stroke="white"/>
<path d="M0 143.886L35.2 136.671C70.4 129.456 142.4 115.026 212.8 120.437C284.8 125.849 355.2 151.102 427.2 149.298C497.6 147.494 569.6 118.633 640 106.007C710.4 93.3805 782.4 96.988 852.8 107.811C924.8 118.633 995.2 136.671 1067.2 138.475C1137.6 140.279 1209.6 125.849 1280 122.241C1350.4 118.633 1422.4 125.849 1492.8 140.279C1564.8 154.709 1635.2 176.355 1707.2 174.551C1777.6 172.747 1849.6 147.494 1884.8 134.868L1920 122.241" stroke="white"/>
<path d="M0 503.886L35.2 496.671C70.4 489.456 142.4 475.026 212.8 480.437C284.8 485.849 355.2 511.102 427.2 509.298C497.6 507.494 569.6 478.633 640 466.007C710.4 453.38 782.4 456.988 852.8 467.811C924.8 478.633 995.2 496.671 1067.2 498.475C1137.6 500.279 1209.6 485.849 1280 482.241C1350.4 478.633 1422.4 485.849 1492.8 500.279C1564.8 514.709 1635.2 536.355 1707.2 534.551C1777.6 532.747 1849.6 507.494 1884.8 494.868L1920 482.241" stroke="white"/>
<path d="M0 263.886L35.2 256.671C70.4 249.456 142.4 235.026 212.8 240.437C284.8 245.849 355.2 271.102 427.2 269.298C497.6 267.494 569.6 238.633 640 226.007C710.4 213.38 782.4 216.988 852.8 227.811C924.8 238.633 995.2 256.671 1067.2 258.475C1137.6 260.279 1209.6 245.849 1280 242.241C1350.4 238.633 1422.4 245.849 1492.8 260.279C1564.8 274.709 1635.2 296.355 1707.2 294.551C1777.6 292.747 1849.6 267.494 1884.8 254.868L1920 242.241" stroke="white"/>
<path d="M0 623.886L35.2 616.671C70.4 609.456 142.4 595.026 212.8 600.437C284.8 605.849 355.2 631.102 427.2 629.298C497.6 627.494 569.6 598.633 640 586.007C710.4 573.38 782.4 576.988 852.8 587.811C924.8 598.633 995.2 616.671 1067.2 618.475C1137.6 620.279 1209.6 605.849 1280 602.241C1350.4 598.633 1422.4 605.849 1492.8 620.279C1564.8 634.709 1635.2 656.355 1707.2 654.551C1777.6 652.747 1849.6 627.494 1884.8 614.868L1920 602.241" stroke="white"/>
<path d="M0 63.8864L35.2 56.6713C70.4 49.4562 142.4 35.0259 212.8 40.4372C284.8 45.8486 355.2 71.1016 427.2 69.2978C497.6 67.494 569.6 38.6335 640 26.007C710.4 13.3805 782.4 16.988 852.8 27.8107C924.8 38.6335 995.2 56.6713 1067.2 58.4751C1137.6 60.2789 1209.6 45.8486 1280 42.241C1350.4 38.6335 1422.4 45.8486 1492.8 60.2789C1564.8 74.7092 1635.2 96.3546 1707.2 94.5508C1777.6 92.747 1849.6 67.494 1884.8 54.8675L1920 42.241" stroke="white"/>
<path d="M0 423.886L35.2 416.671C70.4 409.456 142.4 395.026 212.8 400.437C284.8 405.849 355.2 431.102 427.2 429.298C497.6 427.494 569.6 398.633 640 386.007C710.4 373.38 782.4 376.988 852.8 387.811C924.8 398.633 995.2 416.671 1067.2 418.475C1137.6 420.279 1209.6 405.849 1280 402.241C1350.4 398.633 1422.4 405.849 1492.8 420.279C1564.8 434.709 1635.2 456.355 1707.2 454.551C1777.6 452.747 1849.6 427.494 1884.8 414.868L1920 402.241" stroke="white"/>
<path d="M0 183.886L35.2 176.671C70.4 169.456 142.4 155.026 212.8 160.437C284.8 165.849 355.2 191.102 427.2 189.298C497.6 187.494 569.6 158.633 640 146.007C710.4 133.38 782.4 136.988 852.8 147.811C924.8 158.633 995.2 176.671 1067.2 178.475C1137.6 180.279 1209.6 165.849 1280 162.241C1350.4 158.633 1422.4 165.849 1492.8 180.279C1564.8 194.709 1635.2 216.355 1707.2 214.551C1777.6 212.747 1849.6 187.494 1884.8 174.868L1920 162.241" stroke="white"/>
<path d="M0 543.886L35.2 536.671C70.4 529.456 142.4 515.026 212.8 520.437C284.8 525.849 355.2 551.102 427.2 549.298C497.6 547.494 569.6 518.633 640 506.007C710.4 493.38 782.4 496.988 852.8 507.811C924.8 518.633 995.2 536.671 1067.2 538.475C1137.6 540.279 1209.6 525.849 1280 522.241C1350.4 518.633 1422.4 525.849 1492.8 540.279C1564.8 554.709 1635.2 576.355 1707.2 574.551C1777.6 572.747 1849.6 547.494 1884.8 534.868L1920 522.241" stroke="white"/>
<path d="M0 303.886L35.2 296.671C70.4 289.456 142.4 275.026 212.8 280.437C284.8 285.849 355.2 311.102 427.2 309.298C497.6 307.494 569.6 278.633 640 266.007C710.4 253.38 782.4 256.988 852.8 267.811C924.8 278.633 995.2 296.671 1067.2 298.475C1137.6 300.279 1209.6 285.849 1280 282.241C1350.4 278.633 1422.4 285.849 1492.8 300.279C1564.8 314.709 1635.2 336.355 1707.2 334.551C1777.6 332.747 1849.6 307.494 1884.8 294.868L1920 282.241" stroke="white"/>
<path d="M0 663.886L35.2 656.671C70.4 649.456 142.4 635.026 212.8 640.437C284.8 645.849 355.2 671.102 427.2 669.298C497.6 667.494 569.6 638.633 640 626.007C710.4 613.38 782.4 616.988 852.8 627.811C924.8 638.633 995.2 656.671 1067.2 658.475C1137.6 660.279 1209.6 645.849 1280 642.241C1350.4 638.633 1422.4 645.849 1492.8 660.279C1564.8 674.709 1635.2 696.355 1707.2 694.551C1777.6 692.747 1849.6 667.494 1884.8 654.868L1920 642.241" stroke="white"/>
</g>
</g>
</svg>
