<svg width="1366" height="623" viewBox="0 0 1366 623" fill="none" xmlns="http://www.w3.org/2000/svg">
<rect y="0.849609" width="1366" height="621.815" fill="#005C5F"/>
<g opacity="0.4">
<mask id="mask0" mask-type="alpha" maskUnits="userSpaceOnUse" x="0" y="0" width="1366" height="623">
<rect y="0.849609" width="1366" height="621.815" fill="white"/>
</mask>
<g mask="url(#mask0)">
<path d="M0 34.2078L25.0433 29.0745C50.0867 23.9413 101.312 13.6747 151.398 17.5247C202.623 21.3746 252.71 39.3411 303.935 38.0578C354.022 36.7745 405.247 16.2414 455.333 7.25814C505.42 -1.72509 556.645 0.841549 606.732 8.54146C657.957 16.2414 708.043 29.0745 759.268 30.3579C809.355 31.6412 860.58 21.3746 910.667 18.808C960.753 16.2414 1011.98 21.3746 1062.07 31.6412C1113.29 41.9077 1163.38 57.3075 1214.6 56.0242C1264.69 54.7409 1315.91 36.7745 1340.96 27.7912L1366 18.808" stroke="white" stroke-width="0.711458"/>
<path d="M0 290.333L25.0433 285.2C50.0867 280.066 101.312 269.8 151.398 273.65C202.623 277.5 252.71 295.466 303.935 294.183C354.022 292.899 405.247 272.366 455.333 263.383C505.42 254.4 556.645 256.967 606.732 264.666C657.957 272.366 708.043 285.2 759.268 286.483C809.355 287.766 860.58 277.5 910.667 274.933C960.753 272.366 1011.98 277.5 1062.07 287.766C1113.29 298.033 1163.38 313.433 1214.6 312.149C1264.69 310.866 1315.91 292.899 1340.96 283.916L1366 274.933" stroke="white" stroke-width="0.711458"/>
<path d="M0 546.458L25.0433 541.325C50.0867 536.191 101.312 525.925 151.398 529.775C202.623 533.625 252.71 551.591 303.935 550.308C354.022 549.024 405.247 528.491 455.333 519.508C505.42 510.525 556.645 513.092 606.732 520.791C657.957 528.491 708.043 541.325 759.268 542.608C809.355 543.891 860.58 533.625 910.667 531.058C960.753 528.491 1011.98 533.625 1062.07 543.891C1113.29 554.158 1163.38 569.558 1214.6 568.274C1264.69 566.991 1315.91 549.024 1340.96 540.041L1366 531.058" stroke="white" stroke-width="0.711458"/>
<path d="M0 119.583L25.0433 114.45C50.0867 109.316 101.312 99.0497 151.398 102.9C202.623 106.75 252.71 124.716 303.935 123.433C354.022 122.149 405.247 101.616 455.333 92.6331C505.42 83.6499 556.645 86.2165 606.732 93.9165C657.957 101.616 708.043 114.45 759.268 115.733C809.355 117.016 860.58 106.75 910.667 104.183C960.753 101.616 1011.98 106.75 1062.07 117.016C1113.29 127.283 1163.38 142.683 1214.6 141.399C1264.69 140.116 1315.91 122.149 1340.96 113.166L1366 104.183" stroke="white" stroke-width="0.711458"/>
<path d="M0 375.708L25.0433 370.575C50.0867 365.441 101.312 355.175 151.398 359.025C202.623 362.875 252.71 380.841 303.935 379.558C354.022 378.274 405.247 357.741 455.333 348.758C505.42 339.775 556.645 342.342 606.732 350.041C657.957 357.741 708.043 370.575 759.268 371.858C809.355 373.141 860.58 362.875 910.667 360.308C960.753 357.741 1011.98 362.875 1062.07 373.141C1113.29 383.408 1163.38 398.808 1214.6 397.524C1264.69 396.241 1315.91 378.274 1340.96 369.291L1366 360.308" stroke="white" stroke-width="0.711458"/>
<path d="M0 631.833L25.0433 626.7C50.0867 621.566 101.312 611.3 151.398 615.15C202.623 619 252.71 636.966 303.935 635.683C354.022 634.399 405.247 613.866 455.333 604.883C505.42 595.9 556.645 598.467 606.732 606.166C657.957 613.866 708.043 626.7 759.268 627.983C809.355 629.266 860.58 619 910.667 616.433C960.753 613.866 1011.98 619 1062.07 629.266C1113.29 639.533 1163.38 654.933 1214.6 653.649C1264.69 652.366 1315.91 634.399 1340.96 625.416L1366 616.433" stroke="white" stroke-width="0.711458"/>
<path d="M0 204.958L25.0433 199.825C50.0867 194.691 101.312 184.425 151.398 188.275C202.623 192.125 252.71 210.091 303.935 208.808C354.022 207.524 405.247 186.991 455.333 178.008C505.42 169.025 556.645 171.592 606.732 179.291C657.957 186.991 708.043 199.825 759.268 201.108C809.355 202.391 860.58 192.125 910.667 189.558C960.753 186.991 1011.98 192.125 1062.07 202.391C1113.29 212.658 1163.38 228.058 1214.6 226.774C1264.69 225.491 1315.91 207.524 1340.96 198.541L1366 189.558" stroke="white" stroke-width="0.711458"/>
<path d="M0 461.083L25.0433 455.95C50.0867 450.816 101.312 440.55 151.398 444.4C202.623 448.25 252.71 466.216 303.935 464.933C354.022 463.649 405.247 443.116 455.333 434.133C505.42 425.15 556.645 427.717 606.732 435.416C657.957 443.116 708.043 455.95 759.268 457.233C809.355 458.516 860.58 448.25 910.667 445.683C960.753 443.116 1011.98 448.25 1062.07 458.516C1113.29 468.783 1163.38 484.183 1214.6 482.899C1264.69 481.616 1315.91 463.649 1340.96 454.666L1366 445.683" stroke="white" stroke-width="0.711458"/>
<path d="M0 62.6658L25.0433 57.5326C50.0867 52.3993 101.312 42.1327 151.398 45.9827C202.623 49.8326 252.71 67.7991 303.935 66.5158C354.022 65.2325 405.247 44.6994 455.333 35.7161C505.42 26.7329 556.645 29.2996 606.732 36.9995C657.957 44.6994 708.043 57.5326 759.268 58.8159C809.355 60.0992 860.58 49.8326 910.667 47.266C960.753 44.6994 1011.98 49.8326 1062.07 60.0992C1113.29 70.3657 1163.38 85.7656 1214.6 84.4822C1264.69 83.1989 1315.91 65.2325 1340.96 56.2492L1366 47.266" stroke="white" stroke-width="0.711458"/>
<path d="M0 318.791L25.0433 313.658C50.0867 308.524 101.312 298.258 151.398 302.108C202.623 305.958 252.71 323.924 303.935 322.641C354.022 321.357 405.247 300.824 455.333 291.841C505.42 282.858 556.645 285.425 606.732 293.124C657.957 300.824 708.043 313.658 759.268 314.941C809.355 316.224 860.58 305.958 910.667 303.391C960.753 300.824 1011.98 305.958 1062.07 316.224C1113.29 326.491 1163.38 341.891 1214.6 340.607C1264.69 339.324 1315.91 321.357 1340.96 312.374L1366 303.391" stroke="white" stroke-width="0.711458"/>
<path d="M0 574.916L25.0433 569.783C50.0867 564.649 101.312 554.383 151.398 558.233C202.623 562.083 252.71 580.049 303.935 578.766C354.022 577.482 405.247 556.949 455.333 547.966C505.42 538.983 556.645 541.55 606.732 549.249C657.957 556.949 708.043 569.783 759.268 571.066C809.355 572.349 860.58 562.083 910.667 559.516C960.753 556.949 1011.98 562.083 1062.07 572.349C1113.29 582.616 1163.38 598.016 1214.6 596.732C1264.69 595.449 1315.91 577.482 1340.96 568.499L1366 559.516" stroke="white" stroke-width="0.711458"/>
<path d="M0 148.041L25.0433 142.908C50.0867 137.774 101.312 127.508 151.398 131.358C202.623 135.208 252.71 153.174 303.935 151.891C354.022 150.607 405.247 130.074 455.333 121.091C505.42 112.108 556.645 114.675 606.732 122.374C657.957 130.074 708.043 142.908 759.268 144.191C809.355 145.474 860.58 135.208 910.667 132.641C960.753 130.074 1011.98 135.208 1062.07 145.474C1113.29 155.741 1163.38 171.141 1214.6 169.857C1264.69 168.574 1315.91 150.607 1340.96 141.624L1366 132.641" stroke="white" stroke-width="0.711458"/>
<path d="M0 404.166L25.0433 399.033C50.0867 393.899 101.312 383.633 151.398 387.483C202.623 391.333 252.71 409.299 303.935 408.016C354.022 406.732 405.247 386.199 455.333 377.216C505.42 368.233 556.645 370.8 606.732 378.499C657.957 386.199 708.043 399.033 759.268 400.316C809.355 401.599 860.58 391.333 910.667 388.766C960.753 386.199 1011.98 391.333 1062.07 401.599C1113.29 411.866 1163.38 427.266 1214.6 425.982C1264.69 424.699 1315.91 406.732 1340.96 397.749L1366 388.766" stroke="white" stroke-width="0.711458"/>
<path d="M0 233.416L25.0433 228.283C50.0867 223.149 101.312 212.883 151.398 216.733C202.623 220.583 252.71 238.549 303.935 237.266C354.022 235.982 405.247 215.449 455.333 206.466C505.42 197.483 556.645 200.05 606.732 207.749C657.957 215.449 708.043 228.283 759.268 229.566C809.355 230.849 860.58 220.583 910.667 218.016C960.753 215.449 1011.98 220.583 1062.07 230.849C1113.29 241.116 1163.38 256.516 1214.6 255.232C1264.69 253.949 1315.91 235.982 1340.96 226.999L1366 218.016" stroke="white" stroke-width="0.711458"/>
<path d="M0 489.541L25.0433 484.408C50.0867 479.274 101.312 469.008 151.398 472.858C202.623 476.708 252.71 494.674 303.935 493.391C354.022 492.107 405.247 471.574 455.333 462.591C505.42 453.608 556.645 456.175 606.732 463.874C657.957 471.574 708.043 484.408 759.268 485.691C809.355 486.974 860.58 476.708 910.667 474.141C960.753 471.574 1011.98 476.708 1062.07 486.974C1113.29 497.241 1163.38 512.641 1214.6 511.357C1264.69 510.074 1315.91 492.107 1340.96 483.124L1366 474.141" stroke="white" stroke-width="0.711458"/>
<path d="M0 91.1248L25.0433 85.9915C50.0867 80.8583 101.312 70.5917 151.398 74.4417C202.623 78.2916 252.71 96.2581 303.935 94.9748C354.022 93.6914 405.247 73.1584 455.333 64.1751C505.42 55.1919 556.645 57.7585 606.732 65.4584C657.957 73.1584 708.043 85.9915 759.268 87.2749C809.355 88.5582 860.58 78.2916 910.667 75.725C960.753 73.1584 1011.98 78.2916 1062.07 88.5582C1113.29 98.8247 1163.38 114.225 1214.6 112.941C1264.69 111.658 1315.91 93.6914 1340.96 84.7082L1366 75.725" stroke="white" stroke-width="0.711458"/>
<path d="M0 347.25L25.0433 342.117C50.0867 336.983 101.312 326.717 151.398 330.567C202.623 334.417 252.71 352.383 303.935 351.1C354.022 349.816 405.247 329.283 455.333 320.3C505.42 311.317 556.645 313.884 606.732 321.583C657.957 329.283 708.043 342.117 759.268 343.4C809.355 344.683 860.58 334.417 910.667 331.85C960.753 329.283 1011.98 334.417 1062.07 344.683C1113.29 354.95 1163.38 370.35 1214.6 369.066C1264.69 367.783 1315.91 349.816 1340.96 340.833L1366 331.85" stroke="white" stroke-width="0.711458"/>
<path d="M0 603.375L25.0433 598.242C50.0867 593.108 101.312 582.842 151.398 586.692C202.623 590.542 252.71 608.508 303.935 607.225C354.022 605.941 405.247 585.408 455.333 576.425C505.42 567.442 556.645 570.009 606.732 577.708C657.957 585.408 708.043 598.242 759.268 599.525C809.355 600.808 860.58 590.542 910.667 587.975C960.753 585.408 1011.98 590.542 1062.07 600.808C1113.29 611.075 1163.38 626.475 1214.6 625.191C1264.69 623.908 1315.91 605.941 1340.96 596.958L1366 587.975" stroke="white" stroke-width="0.711458"/>
<path d="M0 176.5L25.0433 171.367C50.0867 166.233 101.312 155.967 151.398 159.817C202.623 163.667 252.71 181.633 303.935 180.35C354.022 179.066 405.247 158.533 455.333 149.55C505.42 140.567 556.645 143.134 606.732 150.833C657.957 158.533 708.043 171.367 759.268 172.65C809.355 173.933 860.58 163.667 910.667 161.1C960.753 158.533 1011.98 163.667 1062.07 173.933C1113.29 184.2 1163.38 199.6 1214.6 198.316C1264.69 197.033 1315.91 179.066 1340.96 170.083L1366 161.1" stroke="white" stroke-width="0.711458"/>
<path d="M0 432.625L25.0433 427.492C50.0867 422.358 101.312 412.092 151.398 415.942C202.623 419.792 252.71 437.758 303.935 436.475C354.022 435.191 405.247 414.658 455.333 405.675C505.42 396.692 556.645 399.259 606.732 406.958C657.957 414.658 708.043 427.492 759.268 428.775C809.355 430.058 860.58 419.792 910.667 417.225C960.753 414.658 1011.98 419.792 1062.07 430.058C1113.29 440.325 1163.38 455.725 1214.6 454.441C1264.69 453.158 1315.91 435.191 1340.96 426.208L1366 417.225" stroke="white" stroke-width="0.711458"/>
<path d="M0 261.875L25.0433 256.742C50.0867 251.608 101.312 241.342 151.398 245.192C202.623 249.042 252.71 267.008 303.935 265.725C354.022 264.441 405.247 243.908 455.333 234.925C505.42 225.942 556.645 228.509 606.732 236.208C657.957 243.908 708.043 256.742 759.268 258.025C809.355 259.308 860.58 249.042 910.667 246.475C960.753 243.908 1011.98 249.042 1062.07 259.308C1113.29 269.575 1163.38 284.975 1214.6 283.691C1264.69 282.408 1315.91 264.441 1340.96 255.458L1366 246.475" stroke="white" stroke-width="0.711458"/>
<path d="M0 518L25.0433 512.867C50.0867 507.733 101.312 497.467 151.398 501.317C202.623 505.167 252.71 523.133 303.935 521.85C354.022 520.566 405.247 500.033 455.333 491.05C505.42 482.067 556.645 484.634 606.732 492.333C657.957 500.033 708.043 512.867 759.268 514.15C809.355 515.433 860.58 505.167 910.667 502.6C960.753 500.033 1011.98 505.167 1062.07 515.433C1113.29 525.7 1163.38 541.1 1214.6 539.816C1264.69 538.533 1315.91 520.566 1340.96 511.583L1366 502.6" stroke="white" stroke-width="0.711458"/>
</g>
</g>
</svg>
