<svg width="22" height="22" viewBox="0 0 22 22" fill="none" xmlns="http://www.w3.org/2000/svg">
<g clip-path="url(#clip0)">
<path d="M11.3955 21.7824C13.0277 21.5506 14.4585 19.8471 15.3589 17.3313C14.0573 17.0398 12.7291 16.8834 11.3955 16.8647V21.7824Z" fill="#212121"/>
<path d="M14.0033 21.382C14.0998 21.3541 14.1959 21.3259 14.2913 21.295C14.3717 21.2691 14.4511 21.2412 14.5304 21.2134C14.6243 21.181 14.7178 21.1477 14.8109 21.1123C14.8903 21.0821 14.9689 21.0501 15.0477 21.0181C15.1386 20.9799 15.2293 20.9419 15.319 20.9037C15.3975 20.8692 15.4753 20.8331 15.5532 20.7968C15.6413 20.7553 15.729 20.713 15.816 20.669C15.8923 20.6301 15.9685 20.5904 16.0449 20.5496C16.1304 20.5038 16.2153 20.4571 16.2997 20.409C16.376 20.3658 16.4496 20.3224 16.5239 20.2777C16.6066 20.2269 16.6889 20.176 16.7707 20.1252C16.8439 20.0786 16.9169 20.0313 16.989 19.9825C17.0695 19.9283 17.1488 19.8719 17.2278 19.8154C17.2987 19.7646 17.3693 19.7139 17.4386 19.6629C17.515 19.604 17.5932 19.5431 17.6698 19.482C17.7377 19.4278 17.8055 19.374 17.8724 19.3183C17.9486 19.255 18.0216 19.1894 18.0955 19.1238C18.1604 19.0663 18.2255 19.0093 18.2889 18.9503C18.3617 18.8823 18.4327 18.8119 18.5036 18.742C18.5651 18.6813 18.6273 18.6215 18.6875 18.5593C18.6986 18.5478 18.7093 18.5353 18.7208 18.5234C17.8888 18.0937 17.0125 17.7564 16.1071 17.5176C15.6362 19.0192 14.7983 20.38 13.6692 21.4763C13.7001 21.4682 13.731 21.4617 13.7619 21.4537C13.8435 21.4308 13.9236 21.4057 14.0033 21.382Z" fill="#212121"/>
<path d="M21.6863 11.5132H17.1126C17.0953 13.299 16.8362 15.0742 16.3424 16.7906C17.3493 17.0595 18.321 17.4462 19.2374 17.9426C20.742 16.1292 21.6032 13.8682 21.6863 11.5132Z" fill="#212121"/>
<path d="M11.3955 10.7503H16.3494C16.33 9.02759 16.0772 7.31553 15.5984 5.66064C14.219 5.97523 12.8101 6.14323 11.3955 6.16186V10.7503Z" fill="#212121"/>
<path d="M11.3955 0.480957V5.39867C12.7291 5.37986 14.0573 5.22359 15.3589 4.9321C14.4585 2.41634 13.0277 0.712845 11.3955 0.480957Z" fill="#212121"/>
<path d="M11.3955 16.1016C12.8101 16.1204 14.219 16.2884 15.5984 16.603C16.0772 14.9481 16.33 13.2359 16.3494 11.5132H11.3955V16.1016Z" fill="#212121"/>
<path d="M19.2374 4.3208C18.321 4.81717 17.3493 5.20384 16.3424 5.47279C16.8362 7.18914 17.0953 8.96434 17.1126 10.7502H21.6863C21.603 8.39533 20.7418 6.13437 19.2374 4.3208Z" fill="#212121"/>
<path d="M18.7221 3.74201C18.7109 3.73064 18.7003 3.71835 18.6893 3.70662C18.629 3.64441 18.5664 3.58443 18.5049 3.5239C18.4342 3.45405 18.3636 3.38346 18.2906 3.31567C18.2274 3.25681 18.162 3.20112 18.0972 3.14245C18.0233 3.07689 17.9493 3.01077 17.8733 2.94744C17.8074 2.89175 17.7398 2.83848 17.6727 2.78502C17.5964 2.72319 17.5181 2.66172 17.4395 2.60268C17.3706 2.55071 17.3008 2.50043 17.2306 2.45014C17.1508 2.39277 17.0708 2.33559 16.9896 2.28102C16.9182 2.23296 16.8458 2.18603 16.7733 2.14002C16.6908 2.08694 16.6085 2.03497 16.5245 1.98468C16.4509 1.94054 16.3766 1.89696 16.3021 1.85468C16.2168 1.80588 16.1313 1.75857 16.045 1.71238C15.9687 1.67419 15.8925 1.63266 15.8161 1.59448C15.7284 1.55015 15.6399 1.5075 15.5492 1.46559C15.4729 1.42927 15.3954 1.39388 15.3168 1.35942C15.2264 1.31938 15.1352 1.28324 15.0441 1.24506C14.9655 1.21303 14.8873 1.18136 14.8079 1.15119C14.7154 1.1158 14.6215 1.08265 14.5276 1.05024C14.4483 1.0223 14.3689 0.994548 14.2885 0.968472C14.1931 0.937554 14.0977 0.909429 13.9998 0.881118C13.9204 0.857836 13.8407 0.834182 13.7604 0.812949C13.7297 0.804567 13.6984 0.798048 13.6675 0.790039C14.7966 1.88634 15.6343 3.24694 16.1054 4.74872C17.0117 4.50994 17.8894 4.17244 18.7221 3.74201Z" fill="#212121"/>
<path d="M0.342529 10.7502H4.91622C4.93355 8.96434 5.19263 7.18914 5.68621 5.47279C4.67949 5.20403 3.7078 4.81736 2.79142 4.3208C1.28685 6.13419 0.425599 8.39533 0.342529 10.7502Z" fill="#212121"/>
<path d="M10.633 21.7824V16.8647C9.29942 16.8836 7.97123 17.0398 6.66968 17.3313C7.56985 19.8471 9.00085 21.5506 10.633 21.7824Z" fill="#212121"/>
<path d="M10.6327 11.5132H5.67883C5.6982 13.2359 5.95077 14.9481 6.42982 16.603C7.80923 16.2882 9.21788 16.1202 10.6327 16.1016V11.5132Z" fill="#212121"/>
<path d="M10.633 0.480957C9.00085 0.712845 7.56985 2.41634 6.66968 4.9321C7.97123 5.22377 9.29942 5.38004 10.633 5.39867V0.480957Z" fill="#212121"/>
<path d="M10.6327 6.16186C9.21807 6.14323 7.80923 5.97523 6.42982 5.66064C5.95077 7.31553 5.6982 9.02759 5.67883 10.7503H10.6327V6.16186Z" fill="#212121"/>
<path d="M8.35838 0.790039C8.32746 0.798048 8.29655 0.804567 8.26563 0.812576C8.18479 0.834182 8.10507 0.858209 8.02461 0.881491C7.92888 0.909429 7.83388 0.937554 7.73778 0.9681C7.65675 0.994362 7.57704 1.0223 7.49732 1.05005C7.40401 1.08302 7.3105 1.1158 7.21812 1.15082C7.1384 1.18136 7.0598 1.21303 6.98083 1.24543C6.89013 1.28362 6.79923 1.3218 6.70964 1.3598C6.63104 1.39425 6.55337 1.43039 6.47552 1.46671C6.38742 1.50824 6.29969 1.55052 6.21271 1.59448C6.13635 1.6334 6.05998 1.67326 5.9838 1.71387C5.89831 1.75969 5.81356 1.80662 5.72938 1.85468C5.65301 1.89733 5.57795 1.9411 5.50438 1.9858C5.4215 2.03572 5.33954 2.08731 5.25796 2.13834C5.18458 2.18528 5.11175 2.23259 5.03967 2.28139C4.95921 2.33559 4.87986 2.39202 4.80089 2.44846C4.72993 2.49931 4.65934 2.54997 4.58986 2.60119C4.51182 2.65986 4.43732 2.72095 4.35872 2.78186C4.29092 2.83606 4.22257 2.88989 4.15626 2.94595C4.07989 3.0089 4.00744 3.07409 3.93387 3.13928C3.86868 3.19739 3.80293 3.25383 3.73923 3.31399C3.66678 3.3816 3.59619 3.45182 3.52541 3.52148C3.46394 3.5822 3.40136 3.64217 3.34101 3.70457C3.33003 3.71612 3.31941 3.72878 3.30786 3.74052C4.13968 4.17039 5.0162 4.5077 5.92159 4.74648C6.39245 3.24563 7.22986 1.88578 8.35838 0.790039Z" fill="#212121"/>
<path d="M3.52407 18.7392C3.59503 18.8091 3.66562 18.8796 3.73845 18.9476C3.80177 19.0063 3.86696 19.062 3.93197 19.1207C4.00591 19.1864 4.07985 19.2523 4.15585 19.3157C4.22178 19.371 4.28902 19.4244 4.35644 19.4781C4.43281 19.5399 4.50899 19.6014 4.58982 19.6608C4.65855 19.7124 4.7284 19.7623 4.79824 19.8135C4.87796 19.8707 4.95842 19.9279 5.03963 19.9828C5.11097 20.0309 5.18342 20.0778 5.25587 20.124C5.33838 20.1769 5.42071 20.2289 5.50471 20.2792C5.57828 20.3235 5.6526 20.3669 5.7271 20.4094C5.8124 20.4582 5.8979 20.5055 5.98413 20.5515C6.06031 20.5897 6.13668 20.6312 6.21304 20.6694C6.30077 20.7137 6.38924 20.7564 6.47994 20.7984C6.55631 20.8344 6.63379 20.8698 6.71239 20.9044C6.80273 20.9445 6.89381 20.9806 6.98507 21.0188C7.06367 21.0508 7.1419 21.0825 7.22124 21.1127C7.31381 21.1482 7.40768 21.1814 7.50156 21.2138C7.5809 21.2415 7.66025 21.2695 7.74071 21.2954C7.83607 21.3263 7.93144 21.3546 8.02941 21.3827C8.10875 21.406 8.18847 21.4297 8.26856 21.4511C8.29948 21.4595 8.33077 21.466 8.36169 21.474C7.2326 20.3775 6.39483 19.0169 5.92379 17.5151C5.0184 17.7541 4.14188 18.0914 3.31006 18.5215C3.32123 18.5328 3.33185 18.5451 3.34303 18.5569C3.40021 18.6187 3.46186 18.6787 3.52407 18.7392Z" fill="#212121"/>
<path d="M2.79142 17.9426C3.7078 17.4462 4.67949 17.0595 5.68621 16.7906C5.19263 15.0742 4.93355 13.299 4.91622 11.5132H0.342529C0.425786 13.868 1.28685 16.129 2.79142 17.9426Z" fill="#212121"/>
</g>
<defs>
<clipPath id="clip0">
<rect width="21.3438" height="21.3438" fill="white" transform="translate(0.342651 0.451172)"/>
</clipPath>
</defs>
</svg>
