<svg width="295" height="61" viewBox="0 0 295 61" fill="none" xmlns="http://www.w3.org/2000/svg">
<path d="M0.046875 5.17112C0.046875 2.50935 2.20466 0.351562 4.86643 0.351562H134.994V60.1141H4.86643C2.20466 60.1141 0.046875 57.9563 0.046875 55.2945V5.17112Z" fill="#005C5F"/>
<path d="M134.995 0.351562H288.016C291.343 0.351562 294.04 2.50935 294.04 5.17112V55.2945C294.04 57.9563 291.343 60.1141 288.016 60.1141H134.995V0.351562Z" fill="white"/>
<path d="M168.97 27.3766H156.771V39.9464H150.417V9.1875H170.495V14.321H156.771V22.2642H168.97V27.3766Z" fill="#005C5F"/>
<path d="M186.105 22.8135C185.272 22.7008 184.537 22.6445 183.902 22.6445C181.586 22.6445 180.069 23.4261 179.348 24.9894V39.9464H173.228V17.0885H179.01L179.179 19.8137C180.407 17.7152 182.109 16.666 184.283 16.666C184.961 16.666 185.596 16.7575 186.19 16.9406L186.105 22.8135Z" fill="#005C5F"/>
<path d="M201.714 39.9464C201.432 39.3971 201.227 38.714 201.1 37.8972C199.617 39.545 197.69 40.3689 195.318 40.3689C193.073 40.3689 191.209 39.721 189.727 38.4253C188.258 37.1296 187.524 35.4959 187.524 33.5242C187.524 31.1018 188.42 29.2427 190.214 27.947C192.021 26.6513 194.626 25.9964 198.029 25.9823H200.846V24.6726C200.846 23.6163 200.571 22.7713 200.02 22.1375C199.483 21.5037 198.629 21.1868 197.457 21.1868C196.426 21.1868 195.614 21.4333 195.021 21.9262C194.443 22.4192 194.153 23.0952 194.153 23.9543H188.032C188.032 22.6304 188.442 21.4051 189.261 20.2784C190.08 19.1517 191.237 18.2715 192.734 17.6377C194.231 16.9899 195.911 16.666 197.775 16.666C200.599 16.666 202.837 17.3772 204.489 18.7996C206.155 20.208 206.988 22.1938 206.988 24.7571V34.665C207.002 36.8338 207.306 38.4746 207.899 39.5872V39.9464H201.714ZM196.652 35.7001C197.556 35.7001 198.389 35.5029 199.151 35.1086C199.914 34.7002 200.479 34.1579 200.846 33.4819V29.5526H198.558C195.494 29.5526 193.864 30.6088 193.666 32.7214L193.645 33.0805C193.645 33.8411 193.913 34.4678 194.45 34.9607C194.986 35.4536 195.72 35.7001 196.652 35.7001Z" fill="#005C5F"/>
<path d="M217.324 17.0885L217.514 19.7292C219.152 17.687 221.348 16.666 224.101 16.666C226.53 16.666 228.337 17.3772 229.523 18.7996C230.709 20.2221 231.316 22.3487 231.345 25.1796V39.9464H225.224V25.3274C225.224 24.0317 224.941 23.0952 224.376 22.5177C223.812 21.9262 222.873 21.6305 221.56 21.6305C219.837 21.6305 218.545 22.3628 217.684 23.8275V39.9464H211.563V17.0885H217.324Z" fill="#005C5F"/>
<path d="M245.535 35.4466C246.665 35.4466 247.582 35.1368 248.288 34.5171C248.994 33.8974 249.361 33.0735 249.39 32.0454H255.129C255.115 33.5946 254.692 35.017 253.859 36.3128C253.026 37.5944 251.882 38.5943 250.428 39.3126C248.987 40.0168 247.392 40.3689 245.641 40.3689C242.365 40.3689 239.781 39.3337 237.889 37.2634C235.997 35.179 235.051 32.3059 235.051 28.6442V28.2428C235.051 24.7218 235.99 21.9121 237.868 19.8137C239.746 17.7152 242.323 16.666 245.599 16.666C248.465 16.666 250.759 17.4828 252.482 19.1165C254.219 20.7362 255.101 22.898 255.129 25.6021H249.39C249.361 24.419 248.994 23.4614 248.288 22.729C247.582 21.9826 246.65 21.6093 245.493 21.6093C244.067 21.6093 242.986 22.1304 242.252 23.1726C241.532 24.2007 241.172 25.8767 241.172 28.2005V28.8343C241.172 31.1863 241.532 32.8763 242.252 33.9044C242.972 34.9325 244.067 35.4466 245.535 35.4466Z" fill="#005C5F"/>
<path d="M269.172 40.3689C265.811 40.3689 263.072 39.3408 260.954 37.2845C258.85 35.2283 257.798 32.489 257.798 29.0667V28.4752C257.798 26.1795 258.243 24.1303 259.132 22.3276C260.022 20.5108 261.279 19.1165 262.902 18.1447C264.54 17.1589 266.404 16.666 268.494 16.666C271.628 16.666 274.092 17.6518 275.886 19.6235C277.693 21.5953 278.597 24.3909 278.597 28.0104V30.5032H264.004C264.201 31.9961 264.794 33.1932 265.783 34.0946C266.785 34.9959 268.049 35.4466 269.574 35.4466C271.932 35.4466 273.775 34.5945 275.102 32.8904L278.109 36.2494C277.192 37.5451 275.949 38.5591 274.382 39.2915C272.814 40.0097 271.078 40.3689 269.172 40.3689ZM268.473 21.6093C267.258 21.6093 266.27 22.0178 265.507 22.8346C264.759 23.6515 264.279 24.8204 264.067 26.3415H272.581V25.8556C272.553 24.5035 272.186 23.4614 271.48 22.729C270.774 21.9826 269.772 21.6093 268.473 21.6093Z" fill="#005C5F"/>
<path d="M18.6026 34.5446H32.1445V39.6345H12.2388V8.88184H18.6026V34.5446Z" fill="white"/>
<path d="M34.0513 10.8629C34.0513 9.94711 34.3512 9.20172 34.9726 8.60541C35.594 8.00909 36.4297 7.71094 37.501 7.71094C38.5509 7.71094 39.3866 8.00909 40.008 8.60541C40.6294 9.20172 40.9508 9.94711 40.9508 10.8629C40.9508 11.7999 40.6294 12.5453 40.008 13.1417C39.3866 13.738 38.5509 14.0361 37.501 14.0361C36.4725 14.0361 35.6369 13.738 34.9941 13.1417C34.3512 12.5453 34.0513 11.7999 34.0513 10.8629ZM40.5651 39.635H34.3941V16.7834H40.5651V39.635Z" fill="white"/>
<path d="M45.9864 39.6341V21.255H42.5581V16.7827H45.9864V14.8447C45.9864 12.2891 46.7364 10.2872 48.2149 8.88163C49.6933 7.47604 51.7718 6.75195 54.4287 6.75195C55.2858 6.75195 56.3143 6.90103 57.5571 7.17789L57.4928 11.9058C56.9785 11.778 56.3571 11.7141 55.6286 11.7141C53.3145 11.7141 52.1574 12.8002 52.1574 14.9512V16.7827H56.7214V21.255H52.1574V39.6341H45.9864Z" fill="white"/>
<path d="M68.6775 40.0608C65.3135 40.0608 62.5708 39.0386 60.4495 36.9728C58.3282 34.907 57.2783 32.181 57.2783 28.7522V28.1559C57.2783 25.8558 57.7283 23.8113 58.6068 22.0011C59.5067 20.1909 60.7709 18.8066 62.3994 17.8269C64.0278 16.8473 65.892 16.3574 67.9918 16.3574C71.1416 16.3574 73.6057 17.3371 75.427 19.3177C77.2269 21.2983 78.1268 24.0882 78.1268 27.7086V30.2004H63.4922C63.685 31.6912 64.285 32.8838 65.292 33.7996C66.2991 34.694 67.5633 35.1413 69.0846 35.1413C71.4416 35.1413 73.3058 34.2894 74.6342 32.5856L77.6555 35.9505C76.7341 37.2496 75.4913 38.2506 73.9057 38.9747C72.3415 39.6988 70.5845 40.0608 68.6775 40.0608ZM67.9704 21.277C66.7491 21.277 65.7634 21.6816 65.0135 22.5122C64.2635 23.3428 63.7707 24.5141 63.5564 26.0262H72.1058V25.5364C72.0844 24.1734 71.6987 23.1298 70.9916 22.3844C70.2845 21.639 69.2775 21.277 67.9704 21.277Z" fill="white"/>
<path d="M96.3185 39.6348H90.1475V16.7832H96.3185V39.6348Z" fill="white"/>
<path d="M105.725 16.7834L105.918 19.4242C107.567 17.3797 109.753 16.3574 112.517 16.3574C114.96 16.3574 116.76 17.0602 117.96 18.4871C119.159 19.914 119.759 22.0437 119.781 24.8548V39.6135H113.631V25.0039C113.631 23.7048 113.353 22.7677 112.774 22.1927C112.217 21.6177 111.274 21.3196 109.946 21.3196C108.21 21.3196 106.925 22.0437 106.068 23.5131V39.6348H99.918V16.7834H105.725Z" fill="white"/>
<path d="M95.4187 6.68848C94.8401 6.68848 94.2188 7.02923 93.576 7.98762C93.4902 8.1154 93.3617 8.15799 93.2331 8.17929C93.1046 8.17929 92.976 8.1154 92.8903 7.98762C92.2475 7.02923 91.6261 6.68848 91.0476 6.68848C89.7834 6.70977 88.7549 7.36999 88.7549 9.07378C88.7549 12.7369 93.2117 13.9509 93.2117 13.9509C93.2117 13.9509 97.6685 12.7369 97.6685 9.07378C97.7114 7.36999 96.6829 6.70977 95.4187 6.68848Z" fill="#FFBD59"/>
</svg>
