<svg width="218" height="45" viewBox="0 0 218 45" fill="none" xmlns="http://www.w3.org/2000/svg">
<path d="M0.958496 4.07487C0.958496 2.11023 2.55115 0.517578 4.51579 0.517578H100.563V44.628H4.51579C2.55115 44.628 0.958496 43.0353 0.958496 41.0707V4.07487Z" fill="#005C5F"/>
<path d="M100.562 0.517578H213.507C215.962 0.517578 217.953 2.11023 217.953 4.07487V41.0707C217.953 43.0353 215.962 44.628 213.507 44.628H100.562V0.517578Z" fill="white"/>
<path d="M125.64 25.2622H116.636V34.5399H111.946V11.8369H126.766V15.6259H116.636V21.4888H125.64V25.2622Z" fill="#005C5F"/>
<path d="M138.287 21.8942C137.672 21.8111 137.13 21.7695 136.661 21.7695C134.952 21.7695 133.831 22.3464 133.3 23.5003V34.5399H128.782V17.6686H133.05L133.175 19.68C134.082 18.1312 135.337 17.3567 136.942 17.3567C137.443 17.3567 137.912 17.4243 138.349 17.5594L138.287 21.8942Z" fill="#005C5F"/>
<path d="M149.808 34.5399C149.6 34.1345 149.448 33.6303 149.355 33.0274C148.26 34.2436 146.838 34.8518 145.087 34.8518C143.43 34.8518 142.054 34.3736 140.96 33.4172C139.876 32.4609 139.334 31.255 139.334 29.7997C139.334 28.0118 139.996 26.6396 141.32 25.6832C142.653 24.7269 144.576 24.2435 147.088 24.2331H149.167V23.2664C149.167 22.4867 148.964 21.863 148.557 21.3952C148.161 20.9275 147.531 20.6936 146.666 20.6936C145.905 20.6936 145.306 20.8755 144.868 21.2393C144.441 21.6031 144.227 22.1021 144.227 22.7362H139.709C139.709 21.7591 140.012 20.8547 140.616 20.0231C141.22 19.1915 142.075 18.5418 143.18 18.074C144.284 17.5958 145.525 17.3567 146.9 17.3567C148.985 17.3567 150.637 17.8817 151.856 18.9316C153.086 19.9711 153.701 21.4368 153.701 23.3287V30.6417C153.711 32.2426 153.935 33.4536 154.373 34.2748V34.5399H149.808ZM146.072 31.4058C146.739 31.4058 147.354 31.2602 147.916 30.9692C148.479 30.6677 148.896 30.2675 149.167 29.7685V26.8683H147.479C145.217 26.8683 144.014 27.6479 143.868 29.2072L143.852 29.4723C143.852 30.0336 144.05 30.4962 144.446 30.86C144.842 31.2238 145.384 31.4058 146.072 31.4058Z" fill="#005C5F"/>
<path d="M161.329 17.6686L161.47 19.6177C162.679 18.1104 164.299 17.3567 166.332 17.3567C168.124 17.3567 169.458 17.8817 170.334 18.9316C171.209 19.9815 171.657 21.5512 171.678 23.6406V34.5399H167.16V23.7497C167.16 22.7934 166.952 22.1021 166.535 21.6759C166.118 21.2393 165.425 21.021 164.456 21.021C163.184 21.021 162.231 21.5616 161.595 22.6427V34.5399H157.077V17.6686H161.329Z" fill="#005C5F"/>
<path d="M182.152 31.2187C182.986 31.2187 183.663 30.99 184.184 30.5326C184.705 30.0752 184.976 29.4671 184.997 28.7082H189.233C189.223 29.8517 188.91 30.9016 188.296 31.858C187.681 32.8039 186.836 33.542 185.763 34.0721C184.7 34.5919 183.522 34.8518 182.23 34.8518C179.812 34.8518 177.905 34.0877 176.509 32.5596C175.112 31.0211 174.414 28.9005 174.414 26.1978V25.9015C174.414 23.3028 175.107 21.2289 176.493 19.68C177.879 18.1312 179.781 17.3567 182.199 17.3567C184.314 17.3567 186.008 17.9597 187.279 19.1655C188.561 20.3609 189.213 21.9566 189.233 23.9524H184.997C184.976 23.0793 184.705 22.3724 184.184 21.8318C183.663 21.2809 182.975 21.0054 182.121 21.0054C181.068 21.0054 180.271 21.39 179.729 22.1593C179.197 22.9181 178.932 24.1552 178.932 25.8704V26.3381C178.932 28.0741 179.197 29.3215 179.729 30.0804C180.26 30.8392 181.068 31.2187 182.152 31.2187Z" fill="#005C5F"/>
<path d="M199.598 34.8518C197.118 34.8518 195.096 34.0929 193.532 32.5752C191.98 31.0575 191.203 29.0357 191.203 26.5097V26.0731C191.203 24.3786 191.531 22.8662 192.188 21.5356C192.845 20.1946 193.772 19.1655 194.971 18.4482C196.18 17.7206 197.555 17.3567 199.098 17.3567C201.411 17.3567 203.23 18.0844 204.553 19.5397C205.887 20.995 206.554 23.0585 206.554 25.73V27.57H195.784C195.929 28.6718 196.367 29.5554 197.097 30.2207C197.837 30.886 198.769 31.2187 199.895 31.2187C201.635 31.2187 202.995 30.5897 203.975 29.3319L206.195 31.8112C205.517 32.7675 204.6 33.516 203.444 34.0565C202.287 34.5867 201.005 34.8518 199.598 34.8518ZM199.082 21.0054C198.186 21.0054 197.456 21.3069 196.893 21.9098C196.341 22.5127 195.987 23.3755 195.83 24.4982H202.115V24.1396C202.094 23.1416 201.823 22.3724 201.302 21.8318C200.781 21.2809 200.041 21.0054 199.082 21.0054Z" fill="#005C5F"/>
<path d="M14.6544 30.5538H24.6496V34.3107H9.95728V11.6123H14.6544V30.5538Z" fill="white"/>
<path d="M26.0571 13.0745C26.0571 12.3986 26.2785 11.8484 26.7372 11.4082C27.1958 10.9681 27.8126 10.748 28.6034 10.748C29.3783 10.748 29.9951 10.9681 30.4538 11.4082C30.9124 11.8484 31.1496 12.3986 31.1496 13.0745C31.1496 13.7661 30.9124 14.3163 30.4538 14.7564C29.9951 15.1966 29.3783 15.4166 28.6034 15.4166C27.8443 15.4166 27.2275 15.1966 26.753 14.7564C26.2785 14.3163 26.0571 13.7661 26.0571 13.0745ZM30.865 34.311H26.3102V17.4444H30.865V34.311Z" fill="white"/>
<path d="M34.8664 34.3103V20.7447H32.3359V17.4437H34.8664V16.0133C34.8664 14.127 35.4199 12.6494 36.5112 11.6119C37.6024 10.5745 39.1365 10.04 41.0976 10.04C41.7302 10.04 42.4893 10.1501 43.4066 10.3544L43.3591 13.8441C42.9796 13.7497 42.5209 13.7026 41.9832 13.7026C40.2752 13.7026 39.4211 14.5043 39.4211 16.0919V17.4437H42.7898V20.7447H39.4211V34.3103H34.8664Z" fill="white"/>
<path d="M51.6146 34.6252C49.1316 34.6252 47.1073 33.8707 45.5416 32.346C43.9759 30.8212 43.2009 28.8092 43.2009 26.2784V25.8383C43.2009 24.1406 43.533 22.6316 44.1815 21.2954C44.8457 19.9593 45.7788 18.9376 46.9808 18.2145C48.1827 17.4914 49.5586 17.1299 51.1085 17.1299C53.4334 17.1299 55.2521 17.853 56.5964 19.3148C57.9249 20.7767 58.5891 22.8359 58.5891 25.5082V27.3473H47.7873C47.9297 28.4476 48.3725 29.3279 49.1158 30.0038C49.8591 30.664 50.7922 30.9941 51.9151 30.9941C53.6548 30.9941 55.0307 30.3654 56.0112 29.1078L58.2412 31.5915C57.5611 32.5503 56.6439 33.2891 55.4735 33.8236C54.319 34.358 53.0222 34.6252 51.6146 34.6252ZM51.0927 20.761C50.1912 20.761 49.4638 21.0597 48.9102 21.6727C48.3567 22.2857 47.9929 23.1503 47.8348 24.2664H54.145V23.9048C54.1292 22.8988 53.8446 22.1286 53.3227 21.5784C52.8008 21.0282 52.0574 20.761 51.0927 20.761Z" fill="white"/>
<path d="M72.0162 34.3109H67.4614V17.4443H72.0162V34.3109Z" fill="white"/>
<path d="M78.9592 17.4443L79.1016 19.3934C80.3194 17.8844 81.9325 17.1299 83.9727 17.1299C85.7756 17.1299 87.1041 17.6486 87.9897 18.7018C88.8753 19.755 89.3182 21.3269 89.334 23.4018V34.2951H84.795V23.5118C84.795 22.553 84.5894 21.8613 84.1624 21.4369C83.7512 21.0125 83.0554 20.7924 82.0748 20.7924C80.7938 20.7924 79.8449 21.3269 79.2123 22.4115V34.3109H74.6733V17.4443H78.9592Z" fill="white"/>
<path d="M71.3519 9.99316C70.9249 9.99316 70.4662 10.2447 69.9918 10.952C69.9285 11.0463 69.8336 11.0778 69.7387 11.0935C69.6438 11.0935 69.5489 11.0463 69.4857 10.952C69.0112 10.2447 68.5526 9.99316 68.1256 9.99316C67.1925 10.0089 66.4333 10.4962 66.4333 11.7537C66.4333 14.4574 69.7229 15.3534 69.7229 15.3534C69.7229 15.3534 73.0125 14.4574 73.0125 11.7537C73.0441 10.4962 72.285 10.0089 71.3519 9.99316Z" fill="#FFBD59"/>
</svg>
