<?xml version="1.0" encoding="utf-8"?>
<!-- Generator: Adobe Illustrator 14.0.0, SVG Export Plug-In . SVG Version: 6.00 Build 43363)  -->
<!DOCTYPE svg PUBLIC "-//W3C//DTD SVG 1.1//EN" "http://www.w3.org/Graphics/SVG/1.1/DTD/svg11.dtd">
<svg version="1.1" id="Layer_1" xmlns="http://www.w3.org/2000/svg" xmlns:xlink="http://www.w3.org/1999/xlink" x="0px" y="0px"
	 width="48.01px" height="56.693px" viewBox="0 0 48.01 56.693" enable-background="new 0 0 48.01 56.693" xml:space="preserve">
<g>
	<g>
		<path fill="#EE3825" d="M34.712,17.775c0-5.669-4.572-10.264-10.214-10.264c-5.643,0-10.214,4.595-10.214,10.264
			c0,8.121,10.214,20.138,10.214,20.138S34.712,25.854,34.712,17.775z M19.461,17.162c0-2.796,2.256-5.063,5.037-5.063
			c2.782,0,5.038,2.267,5.038,5.063s-2.256,5.063-5.038,5.063C21.717,22.224,19.461,19.958,19.461,17.162z M26.975,17.162
			c0-1.375-1.109-2.489-2.477-2.489c-1.368,0-2.478,1.114-2.478,2.489s1.109,2.488,2.478,2.488
			C25.865,19.65,26.975,18.537,26.975,17.162z M30.272,34.343c-0.832,1.208-1.613,2.262-2.264,3.107
			c6.454,0.389,10.684,1.789,12.257,2.832c-1.843,1.221-7.321,2.938-15.767,2.938c-8.444,0-13.923-1.718-15.767-2.938
			c1.574-1.042,5.801-2.441,12.248-2.831c-0.652-0.846-1.435-1.898-2.268-3.106c-7.941,0.785-13.71,3.146-13.71,5.936
			c0,3.433,8.729,6.217,19.496,6.217c10.769,0,19.496-2.783,19.496-6.217C43.997,37.49,38.222,35.128,30.272,34.343z"/>
	</g>
</g>
</svg>
