<?xml version="1.0" encoding="utf-8"?>
<!-- Generator: Adobe Illustrator 14.0.0, SVG Export Plug-In . SVG Version: 6.00 Build 43363)  -->
<!DOCTYPE svg PUBLIC "-//W3C//DTD SVG 1.1//EN" "http://www.w3.org/Graphics/SVG/1.1/DTD/svg11.dtd">
<svg version="1.1" id="Capa_1" xmlns="http://www.w3.org/2000/svg" xmlns:xlink="http://www.w3.org/1999/xlink" x="0px" y="0px"
	 width="113.386px" height="85.039px" viewBox="249.307 263.48 113.386 85.039"
	 enable-background="new 249.307 263.48 113.386 85.039" xml:space="preserve">
<g>
	<path fill="#EE3825" d="M300.031,309.734c0,2.155-1.747,3.902-3.902,3.902s-3.902-1.747-3.902-3.902s1.747-3.902,3.902-3.902
		C298.284,305.833,300.031,307.579,300.031,309.734z M315.871,305.833c-2.155,0-3.902,1.747-3.902,3.902s1.747,3.902,3.902,3.902
		c2.154,0,3.902-1.747,3.902-3.902C319.772,307.579,318.025,305.833,315.871,305.833z M344,307.56v7.416
		c0,3.723-3.019,6.741-6.741,6.741h-4.893c-4.848,13.46-17.226,21.589-26.366,21.589c-9.14,0-21.519-8.129-26.366-21.589h-4.892
		c-3.723,0-6.742-3.019-6.742-6.741v-7.416c0-2.562,1.43-4.791,3.534-5.931c0.071-10.529,3.14-18.752,9.134-24.437
		c5.946-5.639,14.469-8.498,25.332-8.498c10.862,0,19.386,2.859,25.332,8.498c5.994,5.685,9.062,13.908,9.134,24.437
		C342.57,302.769,344,304.997,344,307.56z M329.731,309.759c0-1.734-0.089-3.364-0.22-4.943c-2.992-2.738-8.424-4.814-15.279-5.586
		c0.9,1.012,1.678,2.343,2.149,4.096c-4.199-3.308-12.441-2.521-18.675-9.923c-0.357-0.413-0.667-0.808-0.934-1.169
		c-0.003-0.004-0.007-0.007-0.01-0.012h0c-1.109-1.5-1.487-2.392-1.508-1.404c-0.183,8.508-6.213,15.141-12.91,16.076
		c-0.042,0.937-0.077,1.881-0.077,2.866c0,3.597,0.587,6.874,1.586,9.828c3.761,4.537,9.973,5.818,15.471,6.158
		c1.021-1.624,3.311-2.758,5.978-2.758c3.616,0,6.547,2.081,6.547,4.647s-2.931,4.647-6.547,4.647c-2.781,0-5.151-1.233-6.1-2.97
		c-3.843-0.224-8.067-0.878-11.832-2.656c5.294,7.804,13.502,11.931,18.628,11.931C314.054,338.587,329.731,328.412,329.731,309.759
		z M336.407,300.818c-0.43-18.373-10.917-28.079-30.407-28.079c-19.491,0-29.978,9.706-30.407,28.079h2.594
		c0.948-6.193,2.953-11.286,5.996-15.202c4.85-6.24,12.19-9.404,21.817-9.404s16.967,3.164,21.817,9.404
		c3.043,3.916,5.048,9.009,5.996,15.202H336.407L336.407,300.818z"/>
</g>
</svg>
