<?xml version="1.0" encoding="utf-8"?>
<!-- Generator: Adobe Illustrator 14.0.0, SVG Export Plug-In . SVG Version: 6.00 Build 43363)  -->
<!DOCTYPE svg PUBLIC "-//W3C//DTD SVG 1.1//EN" "http://www.w3.org/Graphics/SVG/1.1/DTD/svg11.dtd">
<svg version="1.1" id="Layer_1" xmlns="http://www.w3.org/2000/svg" xmlns:xlink="http://www.w3.org/1999/xlink" x="0px" y="0px"
	 width="48.01px" height="56.693px" viewBox="0 0 48.01 56.693" enable-background="new 0 0 48.01 56.693" xml:space="preserve">
<g>
	<g>
		<path fill="#EE3825" d="M34.982,4.97H12.117c-1.424,0-2.591,1.138-2.591,2.52v41.179c0,1.381,1.167,2.521,2.591,2.521h22.865
			c1.422,0,2.589-1.135,2.589-2.521V7.49C37.571,6.108,36.406,4.97,34.982,4.97z M23.547,48.661c-1.309,0-2.369-1.032-2.369-2.307
			c0-1.278,1.061-2.311,2.369-2.311c1.313,0,2.373,1.032,2.373,2.311C25.92,47.626,24.857,48.661,23.547,48.661z M34.604,41.522
			H12.495V10.639h22.109V41.522z M21.874,14.3h-6.956v5.512h6.956V14.3z M31.258,14.3h-6.959v5.512h6.959V14.3z M21.874,23.194
			h-6.956v5.514h6.956V23.194z M31.258,23.194h-6.959v5.514h6.959V23.194z M21.874,32.26h-6.956v5.515h6.956V32.26z M31.258,32.26
			h-6.959v5.515h6.959V32.26z"/>
	</g>
</g>
</svg>
