<?xml version="1.0" encoding="utf-8"?>
<!-- Generator: Adobe Illustrator 14.0.0, SVG Export Plug-In . SVG Version: 6.00 Build 43363)  -->
<!DOCTYPE svg PUBLIC "-//W3C//DTD SVG 1.1//EN" "http://www.w3.org/Graphics/SVG/1.1/DTD/svg11.dtd">
<svg version="1.1" id="Capa_1" xmlns="http://www.w3.org/2000/svg" xmlns:xlink="http://www.w3.org/1999/xlink" x="0px" y="0px"
	 width="113.386px" height="85.039px" viewBox="-42.383 -28.209 113.386 85.039"
	 enable-background="new -42.383 -28.209 113.386 85.039" xml:space="preserve">
<g>
	<path fill="#EE3825" d="M14.311-24.75c-18.845,0-34.119,15.275-34.119,34.119c0,12.89,7.146,24.096,17.686,29.902l-0.4,14.101
		l16.097-9.921c0.243,0.005,0.488,0.037,0.736,0.037c18.843,0,34.118-15.273,34.118-34.119C48.429-9.475,33.154-24.75,14.311-24.75z
		 M12.779,29.888c-3.047,0-5.121-2.244-5.121-5.235c0-3.055,2.127-5.24,5.121-5.24c3.114,0,5.125,2.186,5.182,5.24
		C17.963,27.639,15.894,29.888,12.779,29.888z M19.741,8.476c-2.124,2.362-2.991,4.602-2.93,7.2v1.028H9.154l-0.059-1.491
		C8.922,12.281,9.9,9.281,12.496,6.178c1.837-2.192,3.338-4.031,3.338-5.988c0-2.012-1.331-3.336-4.209-3.448
		c-1.893,0-4.201,0.685-5.688,1.725l-1.959-6.28c2.071-1.206,5.518-2.351,9.606-2.351c7.602,0,11.049,4.198,11.049,8.978
		C24.637,3.181,21.934,6.058,19.741,8.476z"/>
</g>
</svg>
