<svg width="48" height="48" viewBox="0 0 48 48" fill="none" xmlns="http://www.w3.org/2000/svg">
<path d="M0 24C0 10.7452 10.7452 0 24 0C37.2548 0 48 10.7452 48 24C48 37.2548 37.2548 48 24 48C10.7452 48 0 37.2548 0 24Z" fill="white"/>
<path d="M14.6428 16H33.6428C34.4828 16 35.1428 16.65 35.1428 17.5V29C35.1428 29.85 34.4828 30.5 33.6428 30.5H14.6428C13.7928 30.5 13.1428 29.85 13.1428 29V17.5C13.1428 16.65 13.7928 16 14.6428 16ZM21.8528 20V26.5L27.5628 23.2L21.8528 20ZM29.3928 32.5H18.7928C18.4928 32.5 18.2928 32.3 18.2928 32C18.2928 31.7 18.4928 31.5 18.7928 31.5H29.4928C29.7928 31.5 29.9928 31.7 29.9928 32C29.9928 32.3 29.6928 32.5 29.3928 32.5Z" fill="#F58233"/>
</svg>
