<svg width="24" height="24" viewBox="0 0 24 24" fill="none" xmlns="http://www.w3.org/2000/svg">
<path d="M17 10.9091C17 14.7273 12 18 12 18C12 18 7 14.7273 7 10.9091C7 9.60712 7.52678 8.35847 8.46447 7.43784C9.40215 6.51721 10.6739 6 12 6C13.3261 6 14.5979 6.51721 15.5355 7.43784C16.4732 8.35847 17 9.60712 17 10.9091Z" stroke="black" stroke-linecap="round" stroke-linejoin="round"/>
<path d="M12 13C13.1046 13 14 12.1046 14 11C14 9.89543 13.1046 9 12 9C10.8954 9 10 9.89543 10 11C10 12.1046 10.8954 13 12 13Z" stroke="black" stroke-linecap="round" stroke-linejoin="round"/>
<circle cx="12" cy="12" r="11.5" stroke="black"/>
</svg>
