<svg width="324" height="113" viewBox="0 0 324 113" fill="none" xmlns="http://www.w3.org/2000/svg">
<g clip-path="url(#clip0)">
<path d="M79.9398 42.7759C79.9398 56.7788 76.4975 67.5208 69.8039 74.81C63.1104 82.0991 53.1657 85.7437 39.9699 85.7437C27.1566 85.7437 17.2119 82.0991 10.3272 74.81C3.44239 67.5208 0 56.7788 0 42.7759C0 28.9649 3.44239 18.2229 10.3272 10.9338C17.0207 3.64459 26.9654 0 40.1612 0C53.1657 0 63.1104 3.64459 69.9952 10.9338C76.4975 18.2229 79.9398 28.7731 79.9398 42.7759ZM23.3317 42.7759C23.3317 58.8889 28.8778 66.9453 39.9699 66.9453C45.516 66.9453 49.7233 65.0271 52.4008 60.9989C55.0782 57.1625 56.4169 51.0242 56.4169 42.7759C56.4169 34.5277 55.0782 28.3894 52.2095 24.3612C49.7233 20.5248 45.516 18.4148 40.1612 18.4148C28.8778 18.4148 23.3317 26.663 23.3317 42.7759Z" fill="#2A5CAA"/>
<path d="M154.334 52.1753C154.334 62.7255 151.465 70.9737 145.919 76.9202C140.373 82.8666 132.532 85.7439 122.396 85.7439C112.642 85.7439 104.993 82.6748 99.2554 76.7283C93.5181 70.7819 90.6494 62.5336 90.6494 52.1753C90.6494 41.6252 93.5181 33.5688 99.0641 27.6223C104.61 21.8677 112.451 18.7986 122.587 18.7986C128.898 18.7986 134.444 20.1413 139.225 22.8268C144.006 25.5123 147.64 29.3487 150.317 34.336C152.995 39.5152 154.334 45.4616 154.334 52.1753ZM113.025 52.1753C113.025 57.7381 113.79 61.9582 115.129 64.8355C116.659 67.7128 118.953 69.2473 122.587 69.2473C126.029 69.2473 128.324 67.7128 129.854 64.8355C131.193 61.9582 131.958 57.7381 131.958 52.1753C131.958 46.6125 131.193 42.5843 129.854 39.707C128.516 36.8297 126.029 35.487 122.587 35.487C119.145 35.487 116.85 36.8297 115.32 39.707C113.79 42.3925 113.025 46.6125 113.025 52.1753Z" fill="#2A5CAA"/>
<path d="M205.013 85.7437C201.762 85.7437 198.894 85.1683 196.407 84.2092C193.921 83.0582 191.244 81.14 188.758 78.4546H187.801C188.566 83.0582 188.758 85.7437 188.758 86.8947V112.79H166.765V20.1412H184.55L187.61 28.3894H188.566C192.583 22.2512 198.32 18.9902 205.396 18.9902C212.472 18.9902 218.018 21.8675 222.034 27.814C226.05 33.7604 227.963 41.8169 227.963 52.1752C227.963 62.5335 225.859 70.7817 221.652 76.7282C217.827 82.8664 212.281 85.7437 205.013 85.7437ZM197.746 36.4459C194.495 36.4459 192.2 37.5968 191.053 39.8987C189.714 42.2005 189.14 45.6533 188.949 50.257V51.9833C188.949 57.5461 189.714 61.5744 191.053 64.068C192.583 66.5617 194.877 67.7126 197.937 67.7126C200.806 67.7126 202.718 66.5617 204.057 64.068C205.396 61.5744 205.97 57.5461 205.97 51.9833C205.97 46.4206 205.396 42.3923 204.057 40.0905C202.718 37.5968 200.615 36.4459 197.746 36.4459Z" fill="#2A5CAA"/>
<path d="M290.116 64.8355C290.116 71.741 287.821 76.9201 283.231 80.5647C278.641 84.0175 271.948 85.9357 263.15 85.9357C258.369 85.9357 254.353 85.7439 250.911 85.1684C247.468 84.593 243.835 83.6339 240.201 82.2911V64.4518C243.644 65.9864 247.277 67.1373 251.485 68.2882C255.501 69.2473 259.134 69.8228 262.385 69.8228C267.167 69.8228 269.461 68.6719 269.461 66.5618C269.461 65.4109 268.888 64.4518 267.549 63.4927C266.21 62.5336 262.385 60.8072 255.883 58.3136C249.955 55.8199 245.938 53.1344 243.644 50.0653C241.349 46.9962 240.201 42.9679 240.201 38.3642C240.201 32.4178 242.496 27.6223 247.086 24.3614C251.676 21.1004 258.178 19.374 266.402 19.374C270.609 19.374 274.625 19.7577 278.259 20.7168C281.892 21.6759 285.717 23.0186 289.733 24.745L283.805 39.1315C280.936 37.7888 277.876 36.6379 274.434 35.6788C271.183 34.7197 268.505 34.336 266.402 34.336C262.768 34.336 261.047 35.2951 261.047 37.0215C261.047 38.1724 261.62 39.1315 262.959 39.8988C264.298 40.6661 267.931 42.2006 273.86 44.6943C278.259 46.6125 281.701 48.3389 283.805 50.2571C285.908 51.9835 287.63 54.0935 288.586 56.5872C289.542 58.3136 290.116 61.3827 290.116 64.8355Z" fill="#2A5CAA"/>
<path d="M320.715 55.2443H302.165L299.296 1.34277H323.584L320.715 55.2443ZM299.487 75.1936C299.487 71.7409 300.443 69.0554 302.547 67.1372C304.651 65.219 307.519 64.2599 311.344 64.2599C315.169 64.2599 318.038 65.219 319.95 67.1372C321.863 69.0554 322.819 71.7409 322.819 75.1936C322.819 78.6464 321.863 81.3319 319.759 83.2501C317.655 85.1683 314.787 86.1274 311.153 86.1274C307.519 86.1274 304.459 85.1683 302.356 83.2501C300.635 81.3319 299.487 78.6464 299.487 75.1936Z" fill="#2A5CAA"/>
</g>
<defs>
<clipPath id="clip0">
<rect width="323.584" height="112.599" fill="white"/>
</clipPath>
</defs>
</svg>
