<svg width="32" height="32" viewBox="0 0 32 32" fill="none" xmlns="http://www.w3.org/2000/svg">
<circle cx="16" cy="16" r="13.4" stroke="#666666" stroke-width="2"/>
<g clip-path="url(#clip0)">
<path d="M15.6308 18.3954C15.312 19.8726 14.9933 21.2829 13.9516 22.3954C13.8435 21.441 13.7467 20.5352 13.9459 19.6233C14.185 18.5595 14.424 17.5017 14.646 16.4318C14.6859 16.2495 14.6745 16.0306 14.629 15.8482C14.4582 15.1431 14.4525 14.4622 14.8282 13.83C15.0616 13.4349 15.3917 13.2039 15.8471 13.2403C16.2626 13.2707 16.587 13.5625 16.5984 14.0063C16.6098 14.4136 16.5415 14.827 16.4618 15.2282C16.3764 15.6598 16.2341 16.0853 16.1146 16.5109C15.9837 16.9668 15.9951 17.3984 16.3423 17.7449C16.7009 18.1036 17.1392 18.1522 17.5604 17.9698C17.8848 17.83 18.2378 17.6294 18.4427 17.3437C19.325 16.1218 19.5242 14.7419 18.9664 13.3133C18.4996 12.1279 17.1904 11.4896 15.8926 11.7206C14.4127 11.9759 13.5019 12.9486 13.2799 14.5291C13.1946 15.1492 13.297 15.7571 13.6101 16.2799C13.7979 16.596 13.815 16.8695 13.7239 17.2099C13.5532 17.8361 13.4678 17.8847 13.0124 17.4288C12.2041 16.6142 11.9081 15.5747 12.022 14.4197C12.2497 12.134 13.8264 10.5838 16.0349 10.4197C17.0652 10.3467 18.0442 10.4987 18.9265 11.0944C20.2243 11.9698 20.8561 13.2403 20.7992 14.8695C20.7423 16.3832 20.2528 17.7024 19.0574 18.6203C18.3914 19.1309 17.6401 19.3376 16.8204 19.1856C16.3537 19.0944 15.9723 18.8574 15.6308 18.3954Z" fill="#666666"/>
</g>
<defs>
<clipPath id="clip0">
<rect width="8.8" height="12" fill="white" transform="translate(12 10.4)"/>
</clipPath>
</defs>
</svg>
