<svg width="211" height="32" viewBox="0 0 211 32" fill="none" xmlns="http://www.w3.org/2000/svg">
<path d="M4.771 16.2466C3.56494 15.8999 2.68604 15.4751 2.13428 14.9722C1.5874 14.4644 1.31396 13.8394 1.31396 13.0972C1.31396 12.2573 1.64844 11.564 2.31738 11.0171C2.99121 10.4653 3.86523 10.1895 4.93945 10.1895C5.67188 10.1895 6.32373 10.3311 6.89502 10.6143C7.47119 10.8975 7.91553 11.2881 8.22803 11.7861C8.54541 12.2842 8.7041 12.8286 8.7041 13.4194H7.29053C7.29053 12.7749 7.08545 12.2695 6.67529 11.9033C6.26514 11.5322 5.68652 11.3467 4.93945 11.3467C4.24609 11.3467 3.7041 11.5005 3.31348 11.8081C2.92773 12.1108 2.73486 12.5332 2.73486 13.0752C2.73486 13.5098 2.91797 13.8784 3.28418 14.1812C3.65527 14.479 4.28271 14.7524 5.1665 15.0015C6.05518 15.2505 6.74854 15.5264 7.24658 15.8291C7.74951 16.127 8.12061 16.4761 8.35986 16.8765C8.604 17.2769 8.72607 17.748 8.72607 18.29C8.72607 19.1543 8.38916 19.8477 7.71533 20.3701C7.0415 20.8877 6.14062 21.1465 5.0127 21.1465C4.28027 21.1465 3.59668 21.0073 2.96191 20.729C2.32715 20.4458 1.83643 20.0601 1.48975 19.5718C1.14795 19.0835 0.977051 18.5293 0.977051 17.9092H2.39062C2.39062 18.5537 2.62744 19.064 3.10107 19.4399C3.57959 19.811 4.2168 19.9966 5.0127 19.9966C5.75488 19.9966 6.32373 19.8452 6.71924 19.5425C7.11475 19.2397 7.3125 18.8271 7.3125 18.3047C7.3125 17.7822 7.12939 17.3794 6.76318 17.0962C6.39697 16.8081 5.73291 16.5249 4.771 16.2466ZM11.6777 14.0347C12.2783 13.2974 13.0596 12.9287 14.0215 12.9287C15.6963 12.9287 16.541 13.8735 16.5557 15.7632V21H15.2007V15.7559C15.1958 15.1846 15.064 14.7622 14.8052 14.4888C14.5513 14.2153 14.1533 14.0786 13.6113 14.0786C13.1719 14.0786 12.7861 14.1958 12.4541 14.4302C12.1221 14.6646 11.8633 14.9722 11.6777 15.353V21H10.3228V9.75H11.6777V14.0347ZM23.4771 21C23.3989 20.8438 23.3354 20.5654 23.2866 20.165C22.6567 20.8193 21.9048 21.1465 21.0308 21.1465C20.2495 21.1465 19.6074 20.9268 19.1045 20.4873C18.6064 20.043 18.3574 19.4814 18.3574 18.8027C18.3574 17.9775 18.6699 17.3379 19.2949 16.8838C19.9248 16.4248 20.8086 16.1953 21.9463 16.1953H23.2646V15.5728C23.2646 15.0991 23.123 14.7231 22.8398 14.4448C22.5566 14.1616 22.1392 14.02 21.5874 14.02C21.104 14.02 20.6987 14.1421 20.3716 14.3862C20.0444 14.6304 19.8809 14.9258 19.8809 15.2725H18.5186C18.5186 14.877 18.6577 14.4961 18.936 14.1299C19.2192 13.7588 19.6001 13.4658 20.0786 13.251C20.562 13.0361 21.0918 12.9287 21.668 12.9287C22.5811 12.9287 23.2964 13.1582 23.814 13.6172C24.3315 14.0713 24.6001 14.6987 24.6196 15.4995V19.147C24.6196 19.8745 24.7124 20.4531 24.8979 20.8828V21H23.4771ZM21.2285 19.9673C21.6533 19.9673 22.0562 19.8574 22.437 19.6377C22.8179 19.418 23.0938 19.1323 23.2646 18.7808V17.1548H22.2026C20.5425 17.1548 19.7124 17.6406 19.7124 18.6123C19.7124 19.0371 19.854 19.3691 20.1372 19.6084C20.4204 19.8477 20.7842 19.9673 21.2285 19.9673ZM30.5742 14.291C30.3691 14.2568 30.147 14.2397 29.9077 14.2397C29.019 14.2397 28.416 14.6182 28.0986 15.375V21H26.7437V13.0752H28.062L28.084 13.9907C28.5283 13.2827 29.1582 12.9287 29.9736 12.9287C30.2373 12.9287 30.4375 12.9629 30.5742 13.0312V14.291ZM34.9688 21.1465C33.8945 21.1465 33.0205 20.7949 32.3467 20.0918C31.6729 19.3838 31.3359 18.439 31.3359 17.2573V17.0083C31.3359 16.2222 31.4849 15.5215 31.7827 14.9062C32.0854 14.2861 32.5054 13.8027 33.0425 13.4561C33.5845 13.1045 34.1704 12.9287 34.8003 12.9287C35.8306 12.9287 36.6313 13.2681 37.2026 13.9468C37.7739 14.6255 38.0596 15.5972 38.0596 16.8618V17.4258H32.6909C32.7104 18.207 32.9375 18.8394 33.3721 19.3228C33.8115 19.8013 34.3682 20.0405 35.042 20.0405C35.5205 20.0405 35.9258 19.9429 36.2578 19.7476C36.5898 19.5522 36.8804 19.2935 37.1294 18.9712L37.957 19.6157C37.293 20.6362 36.2969 21.1465 34.9688 21.1465ZM34.8003 14.042C34.2534 14.042 33.7944 14.2422 33.4233 14.6426C33.0522 15.0381 32.8228 15.5947 32.7349 16.3125H36.7046V16.21C36.6655 15.5215 36.48 14.9893 36.1479 14.6133C35.8159 14.2324 35.3667 14.042 34.8003 14.042Z" fill="#666666"/>
<circle cx="66" cy="16" r="13.4" stroke="#666666" stroke-width="2"/>
<path d="M68.08 11.5467H69.3333V9.42667C68.7265 9.36356 68.1168 9.33241 67.5067 9.33333C65.6933 9.33333 64.4533 10.44 64.4533 12.4667V14.2133H62.4067V16.5867H64.4533V22.6667H66.9067V16.5867H68.9467L69.2533 14.2133H66.9067V12.7C66.9067 12 67.0933 11.5467 68.08 11.5467Z" fill="#666666"/>
<circle cx="109" cy="16" r="13.4" stroke="#666666" stroke-width="2"/>
<path d="M114.6 13.0453C114.188 13.2172 113.74 13.3408 113.278 13.389C113.758 13.1136 114.117 12.6785 114.288 12.1653C113.838 12.4241 113.345 12.6056 112.831 12.7017C112.617 12.4796 112.357 12.3027 112.068 12.182C111.78 12.0613 111.469 11.9993 111.154 12C109.882 12 108.859 12.9972 108.859 14.2208C108.859 14.3927 108.881 14.5645 108.916 14.7298C107.011 14.6335 105.313 13.7535 104.183 12.4062C103.978 12.7461 103.87 13.1331 103.871 13.527C103.871 14.2976 104.276 14.9772 104.894 15.3768C104.53 15.3629 104.174 15.2662 103.856 15.0943V15.1217C103.856 16.2008 104.645 17.0951 105.696 17.3008C105.499 17.3504 105.296 17.3758 105.092 17.3763C104.943 17.3763 104.801 17.362 104.659 17.3425C104.949 18.2225 105.796 18.8617 106.804 18.8825C106.015 19.48 105.027 19.8315 103.955 19.8315C103.762 19.8315 103.584 19.825 103.4 19.8041C104.418 20.4355 105.625 20.8 106.925 20.8C111.146 20.8 113.456 17.418 113.456 14.4825C113.456 14.3862 113.456 14.2898 113.449 14.1935C113.896 13.8772 114.288 13.4853 114.6 13.0453Z" fill="#666666"/>
<circle cx="152" cy="16" r="13.4" stroke="#666666" stroke-width="2"/>
<g clip-path="url(#clip0)">
<path d="M154.971 15.1566C153.502 15.1544 152.035 15.1502 150.567 15.148C150.539 15.148 150.513 15.1544 150.489 15.1566C150.489 15.7685 150.489 16.3699 150.489 16.9819C150.936 16.9819 151.372 16.9819 151.81 16.9819C152.246 16.9819 152.682 16.9819 153.131 16.9819C153.118 17.0309 153.114 17.0672 153.099 17.097C152.992 17.3103 152.905 17.5342 152.773 17.7325C152.116 18.724 150.918 19.0588 149.84 18.8136C148.217 18.4468 147.252 16.9222 147.614 15.3293C148.016 13.5722 150.044 12.5913 151.697 13.3632C151.942 13.4784 152.17 13.634 152.396 13.7662C152.838 13.3312 153.294 12.8834 153.751 12.4335C153.699 12.3887 153.641 12.3354 153.58 12.2864C152.491 11.4313 151.255 11.073 149.866 11.2372C148.935 11.346 148.096 11.6914 147.386 12.2885C145.957 13.4933 145.36 15.0265 145.69 16.8497C145.998 18.5513 147.015 19.7433 148.627 20.4278C149.599 20.8415 150.617 20.8841 151.645 20.6773C152.619 20.4811 153.437 20.0163 154.068 19.2507C154.556 18.6601 154.86 17.9841 155.029 17.2463C155.181 16.5895 155.218 15.9263 155.105 15.2589C155.09 15.1715 155.053 15.1566 154.971 15.1566Z" fill="#666666"/>
<path d="M159.2 15.1215H158.048V14.0084H157.098V15.1215H155.948V16.0938H157.098V17.2069H158.048V16.0938H159.2V15.1215Z" fill="#666666"/>
</g>
<circle cx="195" cy="16" r="13.4" stroke="#666666" stroke-width="2"/>
<g clip-path="url(#clip1)">
<path d="M194.631 18.3954C194.312 19.8726 193.993 21.2829 192.952 22.3954C192.843 21.441 192.747 20.5352 192.946 19.6233C193.185 18.5595 193.424 17.5017 193.646 16.4318C193.686 16.2495 193.674 16.0306 193.629 15.8482C193.458 15.1431 193.453 14.4622 193.828 13.83C194.062 13.4349 194.392 13.2039 194.847 13.2403C195.263 13.2707 195.587 13.5625 195.598 14.0063C195.61 14.4136 195.542 14.827 195.462 15.2282C195.376 15.6598 195.234 16.0853 195.115 16.5109C194.984 16.9668 194.995 17.3984 195.342 17.7449C195.701 18.1036 196.139 18.1522 196.56 17.9698C196.885 17.83 197.238 17.6294 197.443 17.3437C198.325 16.1218 198.524 14.7419 197.966 13.3133C197.5 12.1279 196.19 11.4896 194.893 11.7206C193.413 11.9759 192.502 12.9486 192.28 14.5291C192.195 15.1492 192.297 15.7571 192.61 16.2799C192.798 16.596 192.815 16.8695 192.724 17.2099C192.553 17.8361 192.468 17.8847 192.012 17.4288C191.204 16.6142 190.908 15.5747 191.022 14.4197C191.25 12.134 192.826 10.5838 195.035 10.4197C196.065 10.3467 197.044 10.4987 197.927 11.0944C199.224 11.9698 199.856 13.2403 199.799 14.8695C199.742 16.3832 199.253 17.7024 198.057 18.6203C197.391 19.1309 196.64 19.3376 195.82 19.1856C195.354 19.0944 194.972 18.8574 194.631 18.3954Z" fill="#666666"/>
</g>
<defs>
<clipPath id="clip0">
<rect width="13.6" height="9.6" fill="white" transform="translate(145.6 11.2)"/>
</clipPath>
<clipPath id="clip1">
<rect width="8.8" height="12" fill="white" transform="translate(191 10.4)"/>
</clipPath>
</defs>
</svg>
