<svg width="36" height="36" viewBox="0 0 36 36" fill="none" xmlns="http://www.w3.org/2000/svg">
<circle cx="17.9998" cy="18" r="15.2" stroke="#C4C4C4" stroke-width="2"/>
<path d="M17.3612 17.9999L20.5472 14.8139C20.7149 14.6453 20.8089 14.4172 20.8089 14.1794C20.8089 13.9416 20.7149 13.7135 20.5472 13.5449C20.4636 13.4605 20.364 13.3936 20.2543 13.3479C20.1447 13.3022 20.027 13.2787 19.9082 13.2787C19.7894 13.2787 19.6718 13.3022 19.5621 13.3479C19.4524 13.3936 19.3529 13.4605 19.2692 13.5449L15.4532 17.3609C15.3689 17.4446 15.3019 17.5441 15.2562 17.6538C15.2105 17.7635 15.187 17.8811 15.187 17.9999C15.187 18.1187 15.2105 18.2364 15.2562 18.346C15.3019 18.4557 15.3689 18.5552 15.4532 18.6389L19.2692 22.4999C19.3533 22.5833 19.4531 22.6493 19.5627 22.6941C19.6724 22.7389 19.7898 22.7616 19.9082 22.7609C20.0267 22.7616 20.1441 22.7389 20.2537 22.6941C20.3634 22.6493 20.4631 22.5833 20.5472 22.4999C20.7149 22.3313 20.8089 22.1032 20.8089 21.8654C20.8089 21.6276 20.7149 21.3995 20.5472 21.2309L17.3612 17.9999Z" fill="#C4C4C4"/>
</svg>
