<svg width="84" height="84" viewBox="0 0 84 84" fill="none" xmlns="http://www.w3.org/2000/svg">
<path d="M0 42C0 18.804 18.804 0 42 0C65.196 0 84 18.804 84 42C84 65.196 65.196 84 42 84C18.804 84 0 65.196 0 42Z" fill="#FADDDD" fill-opacity="0.5"/>
<path d="M41.4414 43.1918C41.4499 43.4467 41.3988 43.7695 41.3053 44.0838C41.0163 44.9842 40.3363 45.5024 39.4183 45.5024C38.5428 45.5024 37.8288 44.9927 37.5482 44.1178C37.2847 43.3108 37.3102 42.5038 37.6927 41.7308C38.0413 41.0257 38.6278 40.635 39.4183 40.6434C40.2343 40.6434 40.8123 41.0512 41.1608 41.7732C41.3819 42.1895 41.4499 42.6482 41.4414 43.1918Z" fill="#F58233"/>
<path d="M52.1516 43.1153C52.1261 42.6651 52.2026 42.2659 52.3641 41.8836C52.7126 41.0681 53.3841 40.6094 54.2086 40.6264C55.0161 40.6434 55.6961 41.1446 56.0021 41.9601C56.2997 42.7756 56.2997 43.5995 55.9171 44.3895C55.5601 45.1456 54.9311 45.5023 54.1066 45.4853C53.2651 45.4683 52.6191 44.9927 52.3301 44.2027C52.2026 43.8459 52.1176 43.4721 52.1516 43.1153Z" fill="#F58233"/>
<path d="M66.816 39.8971C66.646 36.2784 65.8215 32.8126 64.1469 29.5931C60.1433 21.88 53.8616 17.123 45.2679 15.6449C31.7865 13.3174 18.7811 22.1433 15.874 35.4799C14.2675 42.8362 15.959 50.1841 20.0052 55.918L17.9396 64.8798L26.5843 62.3739C28.6924 63.801 31.0385 64.9393 33.5886 65.7123C47.512 69.9256 62.2089 61.7538 65.966 47.7122C66.4505 45.9028 66.731 44.0595 66.8075 42.1907C66.816 42.0717 66.8245 39.999 66.816 39.8971ZM22.9462 46.0557C23.0652 45.6565 23.2862 45.3082 23.5328 44.9854C25.4538 42.4965 27.3749 40.0075 29.2874 37.5271C29.4404 37.3232 29.6784 37.0854 29.5849 36.8645C29.4829 36.6352 29.1599 36.7711 28.9304 36.7796C27.5449 36.8051 26.1593 36.8135 24.7738 36.7286C24.4593 36.7116 24.1618 36.6267 23.8728 36.4992C23.3543 36.2614 23.0992 35.8621 23.0907 35.293C23.0822 34.7154 23.3373 34.2906 23.8728 34.0443C24.4423 33.781 25.0543 33.764 25.6663 33.764C27.8934 33.7555 30.1119 33.7725 32.339 33.7895C32.934 33.7895 33.5035 33.8744 33.9201 34.3586C34.4386 34.9532 34.4811 35.7092 33.9541 36.4738C33.291 37.4252 32.5855 38.3426 31.88 39.2685C30.452 41.1543 29.0154 43.0316 27.5874 44.9089C27.5279 44.9854 27.4769 45.0703 27.3664 45.2232C28.8964 45.2232 30.333 45.2232 31.778 45.2232C32.305 45.2232 32.8235 45.1808 33.3505 45.2657C34.2176 45.4101 34.6851 45.9963 34.6426 46.9137C34.6086 47.6867 34.0731 48.2049 33.2145 48.2473C32.509 48.2813 31.8035 48.2813 31.0895 48.2983C29.0069 48.3408 26.9329 48.3153 24.8503 48.2303C24.6548 48.2218 24.4508 48.1964 24.2553 48.1709C23.1587 47.9925 22.6232 47.1175 22.9462 46.0557ZM44.4944 46.5994C44.4859 47.5847 43.6698 48.2643 42.7093 48.1199C42.3863 48.0689 42.1313 47.9075 41.9103 47.6697C41.7148 47.4573 41.4853 47.3894 41.2303 47.5678C38.5697 49.4451 35.2801 47.6527 34.4981 44.5437C33.9371 42.3266 34.7276 39.9141 36.4531 38.6569C37.8557 37.6375 39.6577 37.5781 41.1113 38.521C41.4088 38.7163 41.6468 38.8013 41.9188 38.487C42.3778 37.9518 42.9643 37.9094 43.5848 38.1557C44.2139 38.402 44.4859 38.9032 44.4944 39.5573C44.5029 40.7296 44.4944 41.9018 44.4944 43.0826C44.4944 44.2548 44.5114 45.4271 44.4944 46.5994ZM48.311 46.2596C48.311 46.4719 48.294 46.6843 48.2515 46.8882C48.0985 47.7631 47.546 48.1709 46.6109 48.1029C45.8714 48.052 45.3529 47.4828 45.3359 46.6673C45.3104 45.5375 45.3104 44.4078 45.3019 43.2695C45.2934 42.488 45.3019 41.715 45.3019 40.9334C45.3104 40.9334 45.3189 40.9334 45.3274 40.9334C45.3274 39.0476 45.3189 37.1703 45.3274 35.2845C45.3359 34.1123 46.2369 33.4752 47.3505 33.8404C47.9795 34.0443 48.3025 34.554 48.3025 35.378C48.3025 37.5696 48.3025 39.7697 48.3025 41.9613C48.311 43.3969 48.311 44.824 48.311 46.2596ZM54.1507 48.3323C51.2096 48.3153 49.0845 46.0897 49.093 43.0401C49.1015 39.999 51.2011 37.8754 54.2017 37.8839C57.1597 37.8839 59.2848 40.067 59.2848 43.0911C59.2678 46.0982 57.0662 48.3493 54.1507 48.3323Z" fill="#F58233"/>
</svg>
