<?xml version="1.0" standalone="no"?>
<!DOCTYPE svg PUBLIC "-//W3C//DTD SVG 1.1//EN" "http://www.w3.org/Graphics/SVG/1.1/DTD/svg11.dtd" >
<svg>
<metadata>
Created by FontForge 20090914 at Tue Jan  3 08:29:33 2017
 By www-data
Copyright by NGUYEN HONG HAI
</metadata>
<defs>
<font id="HP-Avo" horiz-adv-x="40" >
  <font-face 
    font-family="HP-Avo"
    font-weight="400"
    font-stretch="normal"
    units-per-em="1000"
    panose-1="2 11 6 3 5 3 2 2 2 4"
    ascent="800"
    descent="-200"
    x-height="548"
    cap-height="740"
    bbox="-572 -223.999 1172 1177"
    underline-thickness="0"
    underline-position="0"
    unicode-range="U+0020-U+2122"
  />
<missing-glyph horiz-adv-x="750" 
d="M46 0v750h658v-750h-658zM658 46v658h-566v-658h566z" />
    <glyph glyph-name=".notdef" horiz-adv-x="750" 
d="M46 0v750h658v-750h-658zM658 46v658h-566v-658h566z" />
    <glyph glyph-name="space" unicode=" " horiz-adv-x="290" 
 />
    <glyph glyph-name="exclam" unicode="!" horiz-adv-x="302" 
d="M112 0v126h74v-126h-74zM112 194v546h74v-546h-74z" />
    <glyph glyph-name="quotedbl" unicode="&#x22;" horiz-adv-x="314" 
d="M74 514v226h52v-226h-52zM186 514v226h52v-226h-52z" />
    <glyph glyph-name="numbersign" unicode="#" horiz-adv-x="556" 
d="M80 0l74 250h-148l16 58h150l36 124h-150l16 58h152l72 250h42l-72 -250h90l74 250h40l-72 -250h150l-16 -58h-152l-36 -124h150l-16 -58h-152l-72 -250h-44l74 250h-90l-74 -250h-42zM214 308h90l36 124h-90z" />
    <glyph glyph-name="dollar" unicode="$" horiz-adv-x="556" 
d="M246 -54l-0.00195312 84.0059c-46.667 7.33301 -86.667 28.666 -120 63.999s-50 76 -50 122v12h70l-2 -8c0 -36 13.167 -66 39.5 -90s57.833 -36 94.5 -36c35.333 0 65.833 12.167 91.5 36.5s38.5 54.166 38.5 89.499c0 41.333 -12.667 73.666 -38 96.999
c-20.667 18.667 -52.667 33.667 -96 45c-32 10 -54.333 17.667 -67 23c-24 10.667 -44 24 -60 40s-28.167 34.667 -36.5 56s-12.5 44.333 -12.5 69c0 44.667 13.5 83.167 40.5 115.5s62.833 52.5 107.5 60.5v82h64v-82c48.667 -7.33301 87.834 -27.5 117.501 -60.5
s44.5 -73.5 44.5 -121.5h-70c0 34 -11.167 62.167 -33.5 84.5s-51.166 33.5 -86.499 33.5c-15.333 0 -28.5 -1.83301 -39.5 -5.5s-23 -10.834 -36 -21.501s-22.333 -23 -28 -37s-8.5 -31.333 -8.5 -52c0 -28 6.66699 -50.333 20 -67c16 -20 49.333 -37 100 -51
c32 -10 55 -18 69 -24c25.333 -11.333 46.333 -25.333 63 -42c38.667 -36.667 58 -83.334 58 -140.001c0 -48.667 -16.667 -92.834 -50 -132.501s-73.333 -59.5 -120 -59.5v-84h-64z" />
    <glyph glyph-name="percent" unicode="%" horiz-adv-x="788" 
d="M182 0l332 740h72l-332 -740h-72zM190 752c48.667 0 89.5 -17.168 122.5 -51.501s49.5 -75.833 49.5 -124.5c0 -47.333 -17.167 -88.166 -51.5 -122.499s-75.166 -51.5 -122.499 -51.5c-46.667 0 -87.334 17.333 -122.001 52s-52 76 -52 124c0 50 16.833 91.5 50.5 124.5
s75.5 49.5 125.5 49.5zM190 679.999c-31.333 0 -56.832 -9.5 -76.499 -28.5s-29.5 -43.5 -29.5 -73.5c0 -28.667 10.167 -53.5 30.5 -74.5s44.833 -31.5 73.5 -31.5c29.333 0 53.666 10.667 72.999 32s29 47.333 29 78c0 26.667 -9.66699 49.667 -29 69s-43 29 -71 29z
M580.001 337.999c48.667 0 89.499 -17.499 122.499 -52.499s49.5 -76.833 49.5 -125.5c0 -48 -17 -89 -51 -123s-75 -51 -123 -51c-47.333 0 -88.166 17.167 -122.499 51.5s-51.5 75.166 -51.5 122.499c0 50 16.833 92.167 50.5 126.5s75.5 51.5 125.5 51.5zM580 268
c-30.667 0 -56 -10.3311 -76 -30.998s-30 -46.334 -30 -77.001c0 -28.667 10.167 -52.834 30.5 -72.501s44.833 -29.5 73.5 -29.5c29.333 0 54 10.333 74 31s30 45.667 30 75c0 28 -10 52.333 -30 73s-44 31 -72 31z" />
    <glyph glyph-name="ampersand" unicode="&#x26;" horiz-adv-x="764" 
d="M602 480l83.999 0.000976562l-138 -260l188 -182l-54 -52l-168 166c-26.667 -52 -56.334 -91.333 -89.001 -118c-39.333 -32 -85.666 -48 -138.999 -48c-63.333 0 -117.166 22.5 -161.499 67.5s-66.5 99.167 -66.5 162.5c0 49.333 16.667 94 50 134
c28 33.333 66.667 62 116 86c-26 26 -44.667 49 -56 69c-14.667 25.333 -22 53.666 -22 84.999c0 44.667 17.5 82.834 52.5 114.501s74.833 47.5 119.5 47.5c50 0 92.833 -16.833 128.5 -50.5s53.5 -75.5 53.5 -125.5c0 -38.667 -15 -73.334 -45 -104.001
c-24.667 -25.333 -57.667 -46 -99 -62l140 -138zM279.999 380.001l-32.001 -18.001c-37.333 -18.667 -64.666 -38 -81.999 -58c-22.667 -26 -34 -57.333 -34 -94c0 -40 14.667 -75.333 44 -106s64 -46 104 -46c34 0 63.333 8.66699 88 26
c29.333 20.667 59.333 61.334 90 122.001zM425.998 586c0 26 -10.834 48.167 -32.501 66.5s-45.5 27.5 -71.5 27.5c-27.333 0 -51.166 -8.83301 -71.499 -26.5s-30.5 -40.167 -30.5 -67.5c0 -21.333 9.33301 -44 28 -68c4.66699 -6 22 -24 52 -54
c46 17.333 79.333 37 100 59c17.333 18.667 26 39.667 26 63z" />
    <glyph glyph-name="quotesingle" unicode="'" horiz-adv-x="210" 
d="M74 514v226h50v-226h-50z" />
    <glyph glyph-name="parenleft" unicode="(" horiz-adv-x="370" 
d="M336 740l-0.000976562 -63.998c-62 -35.333 -111.833 -87.333 -149.5 -156s-56.5 -139.334 -56.5 -212.001l2 -4l-2 -6c0 -70 19.167 -139 57.5 -207s87.833 -119 148.5 -153v-66c-35.333 9.33301 -71.666 30.666 -108.999 63.999c-30.667 27.333 -59 60 -85 98
c-56 82.667 -84 172.667 -84 270c0 96.667 26 186 78 268c26 40 54.333 74 85 102c38 34.667 76.333 56.667 115 66z" />
    <glyph glyph-name="parenright" unicode=")" horiz-adv-x="370" 
d="M34 -128l0.000976562 66c61.333 34 110.666 85.333 147.999 154s56 139.334 56 212.001c0 74.667 -18.333 146.167 -55 214.5s-86.334 120.166 -149.001 155.499v66c39.333 -11.333 77.333 -33.333 114 -66c30.667 -27.333 59.334 -61.333 86.001 -102
c52 -78.667 78 -168 78 -268c0 -99.333 -28 -189.333 -84 -270c-24.667 -36 -53 -68.333 -85 -97c-38 -34 -74.333 -55.667 -109 -65z" />
    <glyph glyph-name="asterisk" unicode="*" horiz-adv-x="428" 
d="M360 634v-52h-100l54 -88l-46 -28l-54 90l-52 -90l-48 28l54 88h-104v52h104l-54 90l48 28l52 -90l54 90l46 -28l-54 -90h100z" />
    <glyph glyph-name="plus" unicode="+" horiz-adv-x="614" 
d="M266 342v212h76v-212h214v-76h-214v-216h-76v216h-214v76h214z" />
    <glyph glyph-name="comma" unicode="," horiz-adv-x="290" 
d="M92 -68l88 194h74l-88 -194h-74z" />
    <glyph glyph-name="hyphen" unicode="-" horiz-adv-x="336" 
d="M32 334h270v-66h-270v66z" />
    <glyph glyph-name="period" unicode="." horiz-adv-x="290" 
d="M102 0v126h74v-126h-74z" />
    <glyph glyph-name="slash" unicode="/" horiz-adv-x="440" 
d="M40 -128l290 868h68l-292 -868h-66z" />
    <glyph glyph-name="zero" unicode="0" horiz-adv-x="556" 
d="M30 282v192c0 40 4 74.667 12 104s23.333 58 46 86c48 58.667 111.333 88 190 88c74 0 134.667 -26.667 182 -80c24 -26 41 -55.5 51 -88.5s15 -69.5 15 -109.5v-192c0 -44 -3 -79.667 -9 -107c-8 -36 -23 -68.333 -45 -97c-51.333 -61.333 -116 -92 -194 -92
c-76 0 -139.333 29.333 -190 88c-23.333 28 -38.833 58.5 -46.5 91.5s-11.5 71.833 -11.5 116.5zM452 294l0.00195312 161.999c0 40.667 -2.66699 72.334 -8 95.001s-13.333 41.667 -24 57c-14.667 21.333 -35.334 38.666 -62.001 51.999s-53.334 20 -80.001 20
c-30 0 -58.667 -7.5 -86 -22.5s-48 -35.5 -62 -61.5c-9.33301 -16.667 -16 -37.334 -20 -62.001s-6 -50.667 -6 -78v-162c0 -38 1.83301 -69.667 5.5 -95s12.5 -48.333 26.5 -69c34.667 -48 82 -72 142 -72c66 0 115.333 27.333 148 82
c10.667 18.667 17.667 40.834 21 66.501s5 54.834 5 87.501z" />
    <glyph glyph-name="one" unicode="1" horiz-adv-x="556" 
d="M280 0v672h-124v68h198v-740h-74z" />
    <glyph glyph-name="two" unicode="2" horiz-adv-x="556" 
d="M34 0v66l282 272c35.333 34 61 62 77 84c26 36 39 70.667 39 104c0 44.667 -15.667 81.5 -47 110.5s-69.666 43.5 -114.999 43.5c-28 0 -54 -6.66699 -78 -20s-43.333 -32 -58 -56c-14.667 -27.333 -22 -56.666 -22 -87.999l2 -16h-74l-2 14
c0 67.333 22.5 123.833 67.5 169.5s101.833 68.5 170.5 68.5c62.667 0 116.667 -22.167 162 -66.5s68 -96.833 68 -157.5c0 -48.667 -14.667 -94.334 -44 -137.001c-16.667 -24 -49.334 -59 -98.001 -105l-228 -218h366v-68h-468z" />
    <glyph glyph-name="three" unicode="3" horiz-adv-x="556" 
d="M158 556l-74.002 0.00195312c0 55.333 17.333 101.833 52 139.5s80 56.5 136 56.5c51.333 0 94.833 -18.5 130.5 -55.5s53.5 -81.833 53.5 -134.5c0 -30 -6.33301 -55.667 -19 -77s-31.667 -41.666 -57 -60.999c36.667 -16.667 66.5 -43.5 89.5 -80.5
s34.5 -76.167 34.5 -117.5c0 -66 -23.167 -122.5 -69.5 -169.5s-102.5 -70.5 -168.5 -70.5c-64 0 -119 23.667 -165 71s-69 103 -69 167l2 8h74c0 -18 1.83301 -34.833 5.5 -50.5s9.83398 -30.834 18.501 -45.501c15.333 -22.667 34.833 -41.334 58.5 -56.001
s48.167 -22 73.5 -22c46.667 0 86 16 118 48s48 71.333 48 118c0 34.667 -10.333 66.167 -31 94.5s-47 48.166 -79 59.499c-11.333 4 -23.333 6.66699 -36 8s-26 2 -40 2h-24v66l26 -2c38.667 0 70.334 9.33301 95.001 28c27.333 20.667 41 50 41 88
c0 32.667 -10.833 59.5 -32.5 80.5s-49.5 31.5 -83.5 31.5c-32 0 -58 -12.333 -78 -37s-30 -53.667 -30 -87z" />
    <glyph glyph-name="four" unicode="4" horiz-adv-x="556" 
d="M386 0v136h-374v66l358 538h90v-538h68v-66h-68v-136h-74zM386 202v436l-286 -436h286z" />
    <glyph glyph-name="five" unicode="5" horiz-adv-x="556" 
d="M66 376l68 364.004h334v-68h-274l-38 -204c19.333 11.333 39.666 20.166 60.999 26.499s43 9.5 65 9.5c68.667 0 126.834 -25.5 174.501 -76.5s71.5 -111.5 71.5 -181.5c0 -70.667 -23.667 -131.667 -71 -183s-106.333 -77 -177 -77c-70 0 -129.833 24.167 -179.5 72.5
s-74.5 106.166 -74.5 173.499h74c0 -46 17.167 -86.5 51.5 -121.5s75.833 -52.5 124.5 -52.5c51.333 0 93.833 18.167 127.5 54.5s50.5 80.166 50.5 131.499s-16.667 95.5 -50 132.5s-75.333 55.5 -126 55.5c-30 0 -58 -6.83301 -84 -20.5s-48.667 -32.834 -68 -57.501z" />
    <glyph glyph-name="six" unicode="6" horiz-adv-x="556" 
d="M296 740l86 0.000976562l-176 -260c26 14.667 55.333 22 88 22c66 0 122.333 -26.667 169 -80c44.667 -51.333 67 -110 67 -176c0 -33.333 -6.16699 -65.333 -18.5 -96s-30.166 -58.667 -53.499 -84c-51.333 -53.333 -112 -80 -182 -80
c-69.333 0 -128.333 25.667 -177 77s-73 111.666 -73 180.999c0 50.667 14 101 42 151c5.33301 10 22.666 37.667 51.999 83zM276 432.001c-49.333 0 -90.998 -18.001 -124.998 -54.001s-51 -78.667 -51 -128c0 -52 16.667 -97 50 -135s75.333 -57 126 -57
c49.333 0 91.666 18.333 126.999 55s53 80.334 53 131.001s-17.333 94.667 -52 132s-77.334 56 -128.001 56z" />
    <glyph glyph-name="seven" unicode="7" horiz-adv-x="556" 
d="M108 0l304 672h-348v68h426v-68l-302 -672h-80z" />
    <glyph glyph-name="eight" unicode="8" horiz-adv-x="556" 
d="M168 414c-28.667 14 -50.1641 33.666 -64.4971 58.999s-21.5 55 -21.5 89c0 55.333 19.167 100.833 57.5 136.5s85.166 53.5 140.499 53.5c54.667 0 100.667 -19 138 -57s56 -84.333 56 -139c0 -30.667 -7.83301 -59.167 -23.5 -85.5s-37.167 -45.166 -64.5 -56.499
c37.333 -16.667 67.666 -43 90.999 -79s35 -75 35 -117c0 -64.667 -23.5 -119.5 -70.5 -164.5s-102.833 -67.5 -167.5 -67.5c-62.667 0 -117 22.667 -163 68s-69 100 -69 164c0 41.333 11.667 80.833 35 118.5s53.666 63.5 90.999 77.5zM276.003 373.999
c-44.667 0 -82.499 -15.501 -113.499 -46.501s-46.5 -68.833 -46.5 -113.5c0 -44 15.333 -81 46 -111s68 -45 112 -45c46 0 84.833 15.5 116.5 46.5s47.5 68.833 47.5 113.5s-15.833 81.834 -47.5 111.501s-69.834 44.5 -114.501 44.5zM280.004 679.998
c-33.333 0 -62.333 -10.668 -87 -32.001s-37 -48.666 -37 -81.999c0 -35.333 11.833 -64.5 35.5 -87.5s53.167 -34.5 88.5 -34.5c31.333 0 59.166 11.833 83.499 35.5s36.5 51.167 36.5 82.5c0 33.333 -11.667 61.333 -35 84s-51.666 34 -84.999 34z" />
    <glyph glyph-name="nine" unicode="9" horiz-adv-x="556" 
d="M260 0l-85.998 0.000976562l174 260c-14 -8.66699 -27.667 -14.834 -41 -18.501s-29 -5.5 -47 -5.5c-64.667 0 -119.834 26.5 -165.501 79.5s-68.5 112.5 -68.5 178.5c0 33.333 6.16699 65.333 18.5 96s30.166 58.667 53.499 84c48 52 108.667 78 182 78
c68.667 0 127.5 -25.5 176.5 -76.5s73.5 -110.833 73.5 -179.5c0 -52 -14 -102.333 -42 -151c-5.33301 -10 -23.333 -37.667 -54 -83zM100.002 496.001l0.000976562 -4c0 -46.667 17.667 -89 53 -127s75 -57 119 -57l6 2l6 -2c47.333 0 87.833 18.167 121.5 54.5
s50.5 78.833 50.5 127.5c0 50.667 -17 95 -51 133s-76.333 57 -127 57c-48.667 0 -90.834 -18.167 -126.501 -54.5s-53.5 -78.833 -53.5 -127.5z" />
    <glyph glyph-name="colon" unicode=":" horiz-adv-x="290" 
d="M102 0v126h74v-126h-74zM102 384v126h74v-126h-74z" />
    <glyph glyph-name="semicolon" unicode=";" horiz-adv-x="290" 
d="M42 -68l88 194h74l-88 -194h-74zM130 384v126h74v-126h-74z" />
    <glyph glyph-name="less" unicode="&#x3c;" horiz-adv-x="614" 
d="M144 302l414 -192v-72l-508 232v64l508 232v-74z" />
    <glyph glyph-name="equal" unicode="=" horiz-adv-x="614" 
d="M556 436v-74h-504v74h504zM556 242v-76h-504v76h504z" />
    <glyph glyph-name="greater" unicode="&#x3e;" horiz-adv-x="614" 
d="M48 110l414 192l-414 190v74l510 -232v-64l-510 -232v72z" />
    <glyph glyph-name="question" unicode="?" horiz-adv-x="602" 
d="M264 0v126h74v-126h-74zM136 508h-70v22c0 28 6.16699 55.833 18.5 83.5s28.833 51.167 49.5 70.5c45.333 45.333 101.333 68 168 68c64 0 117.333 -21.667 160 -65s64 -97 64 -161c0 -42.667 -16 -82.667 -48 -120l-91 -93c-32.667 -38 -49 -77.667 -49 -119h-74l-2 4
c0 36.667 10.667 73 32 109c18 30 42.667 59.667 74 89c28.667 26 48 46 58 60c17.333 24 26 50 26 78c0 40.667 -15.5 75.167 -46.5 103.5s-66.833 42.5 -107.5 42.5l-6 -2c-42.667 0 -79.667 -16 -111 -48s-47 -69.333 -47 -112z" />
    <glyph glyph-name="at" unicode="@" horiz-adv-x="880" 
d="M720 176h60.0029c-31.333 -57.333 -76.833 -103 -136.5 -137s-122.834 -51 -189.501 -51c-108 0 -198.667 37.333 -272 112s-110 166 -110 274c0 104.667 37.167 193.834 111.5 267.501s164.5 110.5 270.5 110.5c43.333 0 85.666 -7.5 126.999 -22.5
s78.333 -36.167 111 -63.5c70.667 -62.667 106 -140 106 -232c0 -68.667 -20 -130 -60 -184c-22.667 -33.333 -47.334 -59 -74.001 -77c-32 -22 -66 -33 -102 -33c-19.333 0 -37 4.33301 -53 13s-27 21.667 -33 39c-14.667 -16 -32.834 -28.333 -54.501 -37
s-43.5 -13 -65.5 -13c-42 0 -75.833 14.333 -101.5 43s-38.5 64.334 -38.5 107.001c0 74 22.667 142 68 204c50 68 110.667 102 182 102c24.667 0 47 -5.5 67 -16.5s35 -27.5 45 -49.5l16 46h68l-102 -304c-2.66699 -6.66699 -5.66699 -15.5 -9 -26.5s-5 -19.5 -5 -25.5
c0 -8.66699 2.83301 -15.834 8.5 -21.501s12.834 -8.5 21.501 -8.5c21.333 0 44 9 68 27c20.667 15.333 38.667 33.666 54 54.999c33.333 48 50 102.667 50 164c0 78.667 -30.333 143.334 -91 194.001c-57.333 48 -125.666 72 -204.999 72
c-92.667 0 -170.834 -33.167 -234.501 -99.5s-95.5 -145.833 -95.5 -238.5c0 -90.667 32.333 -168 97 -232s143 -96 235 -96c52.667 0 102.667 12.167 150 36.5s86 58.166 116 101.499zM370.003 206c23.333 0 46.3311 9.66895 68.998 29.002
c18.667 16 34.334 35.667 47.001 59c14.667 29.333 26.334 57 35.001 83c11.333 34 17 63.667 17 89c0 19.333 -6.83301 36.166 -20.5 50.499s-30.167 21.5 -49.5 21.5c-50 0 -92.667 -28.333 -128 -85c-32 -50.667 -48 -102.334 -48 -155.001c0 -25.333 7 -47 21 -65
s33 -27 57 -27z" />
    <glyph glyph-name="A" unicode="A" horiz-adv-x="740" 
d="M12 0l318 740h82l318 -740h-80l-108 248h-344l-106 -248h-80zM228 316h286l-142 338z" />
    <glyph glyph-name="B" unicode="B" horiz-adv-x="580" 
d="M76 0l0.00195312 740h174c35.333 0 66.166 -2.33301 92.499 -7s52 -15.334 77 -32.001s45.333 -39 61 -67s23.5 -58 23.5 -90c0 -31.333 -7 -59.166 -21 -83.499s-34.333 -45.833 -61 -64.5c38.667 -16 68.667 -40.333 90 -73s32 -70.334 32 -113.001
c0 -34 -8 -66.333 -24 -97s-38.333 -55.167 -67 -73.5s-61.334 -30.166 -98.001 -35.499c-18.667 -2.66699 -53.667 -4 -105 -4h-174zM150.002 68l92.001 -0.000976562l34 -2c22.667 0 44.5 1.83301 65.5 5.5s39.833 9.83398 56.5 18.501c21.333 11.333 38.666 28 51.999 50
s20 44.667 20 68c0 31.333 -8.33301 59 -25 83s-39 41 -67 51c-15.333 5.33301 -34 9 -56 11s-43.333 3 -64 3h-108v-288zM150.003 423.999l80.0029 0.000976562l20 -2c25.333 0 47.666 1.66699 66.999 5s37 9.66602 53 18.999c17.333 8.66699 31.666 22.667 42.999 42
s17 39.333 17 60c0 20 -5.33301 39.5 -16 58.5s-23.5 33 -38.5 42s-31.333 15.167 -49 18.5s-37.834 5 -60.501 5h-116v-248z" />
    <glyph glyph-name="C" unicode="C" horiz-adv-x="822" 
d="M768 550h-81.998c-26.667 40.667 -63.834 72.5 -111.501 95.5s-96.5 34.5 -146.5 34.5c-83.333 0 -155.833 -30.833 -217.5 -92.5s-92.5 -133.5 -92.5 -215.5c0 -85.333 31.333 -159 94 -221s136 -93 220 -93c50 0 97.667 12.167 143 36.5s83 57.5 113 99.5h82
c-32 -62 -79 -112.167 -141 -150.5s-127.667 -57.5 -197 -57.5c-108.667 0 -200.5 37.167 -275.5 111.5s-112.5 165.833 -112.5 274.5c0 105.333 37.333 195 112 269s164.667 111 270 111c80 0 151.333 -20.667 214 -62c25.333 -16.667 49.666 -37 72.999 -61
c28 -28.667 46.333 -55 55 -79z" />
    <glyph glyph-name="D" unicode="D" horiz-adv-x="752" 
d="M76 0l0.00195312 739.999h200c59.333 0 110 -5.66699 152 -17c51.333 -14 97.5 -37.667 138.5 -71s73.5 -75.166 97.5 -125.499s36 -101.833 36 -154.5c0 -53.333 -10.333 -103.833 -31 -151.5s-50.834 -89.667 -90.501 -126s-85.834 -61.833 -138.501 -76.5
c-42.667 -12 -96 -18 -160 -18h-204zM150.002 67.999l96.001 -0.000976562c62 0 108.333 3 139 9c47.333 9.33301 89.666 29 126.999 59c76 59.333 114 138 114 236c0 96 -38 174 -114 234c-34 24.667 -70.167 41.834 -108.5 51.501s-81.5 14.5 -129.5 14.5h-124v-604z" />
    <glyph glyph-name="E" unicode="E" horiz-adv-x="648" 
d="M56 0v740h524v-68h-450v-266h450v-66h-450v-272h450v-68h-524z" />
    <glyph glyph-name="F" unicode="F" horiz-adv-x="498" 
d="M76 0v740h376v-68h-302v-266h290v-68h-290v-338h-74z" />
    <glyph glyph-name="G" unicode="G" horiz-adv-x="880" 
d="M330 342l502.001 0.00390625c0 -99.333 -40.333 -184 -121 -254c-78 -68 -168.333 -102 -271 -102c-106.667 0 -199.334 38 -278.001 114s-118 167.333 -118 274c0 48.667 10.167 96 30.5 142s48.166 86.667 83.499 122c78 76 172 114 282 114
c80 0 152.667 -21.333 218 -64c28 -18.667 53 -39.667 75 -63c27.333 -28.667 45 -56.334 53 -83.001h-84c-25.333 43.333 -61.833 77.166 -109.5 101.499s-98.5 36.5 -152.5 36.5c-40 0 -79.167 -6.83301 -117.5 -20.5s-72.666 -34.5 -102.999 -62.5
s-54.833 -62.333 -73.5 -103s-28 -81.334 -28 -122.001c0 -88.667 32.167 -163.167 96.5 -223.5s140.833 -90.5 229.5 -90.5c67.333 0 129.333 20.167 186 60.5s94 92.166 112 155.499h-412v68z" />
    <glyph glyph-name="H" unicode="H" horiz-adv-x="694" 
d="M76 0v740h74v-326h384v326h74v-740h-74v348h-384v-348h-74z" />
    <glyph glyph-name="I" unicode="I" horiz-adv-x="232" 
d="M76 0v740h74v-740h-74z" />
    <glyph glyph-name="J" unicode="J" horiz-adv-x="486" 
d="M406 740v-532c0 -36 -1.66699 -62 -5 -78c-5.33301 -24.667 -17 -48 -35 -70c-39.333 -49.333 -92 -74 -158 -74c-54.667 0 -101 18.333 -139 55s-57 81.667 -57 135h72c2.66699 -34.667 16.5 -63 41.5 -85s55.167 -33 90.5 -33c24.667 0 46.5 6.5 65.5 19.5
s33.167 31.167 42.5 54.5c2.66699 8 4.66699 18.667 6 32s2 26 2 38v538h74z" />
    <glyph glyph-name="K" unicode="K" horiz-adv-x="602" 
d="M76 0v740h74v-426l342 426h94l-292 -360l292 -380h-92l-248 320l-96 -118v-202h-74z" />
    <glyph glyph-name="L" unicode="L" horiz-adv-x="464" 
d="M76 0v740h74v-672h306v-68h-380z" />
    <glyph glyph-name="M" unicode="M" horiz-adv-x="926" 
d="M76 0v740h114l270 -630l270 630h114v-740h-74v658l-278 -658h-64l-278 658v-658h-74z" />
    <glyph glyph-name="N" unicode="N" horiz-adv-x="740" 
d="M76 0v740h100l414 -614v614h74v-740h-74l-440 650v-650h-74z" />
    <glyph glyph-name="O" unicode="O" horiz-adv-x="740" 
d="M362 752c98 0 182.5 -36.833 253.5 -110.5s106.5 -163.5 106.5 -269.5c0 -106.667 -35 -197.667 -105 -273s-155 -113 -255 -113c-96.667 0 -180.667 36.667 -252 110c-73.333 75.333 -110 165.333 -110 270c-0 108 35.333 199.333 106 274s156 112 256 112zM364 680
c-81.333 0.666992 -150.667 -29.668 -208 -91.001s-86 -135.666 -86 -222.999c0 -84.667 29 -157.167 87 -217.5s127 -90.5 207 -90.5c79.333 0 147.833 30.5 205.5 91.5s86.5 135.167 86.5 222.5c0 84.667 -29.5 157.167 -88.5 217.5s-126.833 90.5 -203.5 90.5z" />
    <glyph glyph-name="P" unicode="P" horiz-adv-x="602" 
d="M76 0l0.000976562 739.999h194c47.333 0 85.166 -2.16699 113.499 -6.5s57.333 -16 87 -35s53 -44.333 70 -76s25.5 -66.5 25.5 -104.5c0 -72.667 -28 -130 -84 -172c-26.667 -19.333 -57.334 -32.666 -92.001 -39.999c-25.333 -5.33301 -58.666 -8 -99.999 -8h-140v-298
h-74zM150.001 365.999l127.998 0.00292969c34.667 0 62.834 1.66699 84.501 5s43 11.666 64 24.999s37.167 30.666 48.5 51.999s17 44.666 17 69.999c0 66.667 -30.667 112.667 -92 138c-13.333 6 -28.666 10.167 -45.999 12.5s-35.333 3.5 -54 3.5h-150v-306z" />
    <glyph glyph-name="Q" unicode="Q" horiz-adv-x="880" 
d="M828 56l-0.00195312 -69.9971h-10c-57.333 0 -109.333 21.333 -156 64c-30.667 -20.667 -65.167 -36.5 -103.5 -47.5s-77.833 -16.5 -118.5 -16.5c-107.333 0 -199.666 36 -276.999 108c-79.333 74 -119 164 -119 270c0 112 38.333 204.667 115 278s171 110 283 110
c112.667 0 207.167 -36.833 283.5 -110.5s114.5 -166.834 114.5 -279.501c0 -50.667 -10.833 -99.334 -32.5 -146.001s-52.167 -88 -91.5 -124c14.667 -10.667 30.334 -19.334 47.001 -26.001s33 -10 49 -10h16zM605.998 102.003l-39.999 30
c-24 19.333 -43.333 33.666 -58 42.999c-21.333 14 -44.666 25.333 -69.999 34s-51.833 15.667 -79.5 21s-55.834 8 -84.501 8c-20 0 -39.833 -1.83301 -59.5 -5.5s-37.834 -9.16699 -54.501 -16.5c10.667 -19.333 25.667 -38.666 45 -57.999s39 -35.333 59 -48
c26.667 -18 55 -31.167 85 -39.5s62.333 -12.5 97 -12.5c29.333 0 57.833 3.5 85.5 10.5s52.5 18.167 74.5 33.5zM129.999 280.003c50 17.333 102.668 26 158.001 26c74.667 0 142.667 -14.333 204 -43c53.333 -24.667 110.666 -65 171.999 -121
c30.667 28.667 55.334 62.667 74.001 102s28 79.333 28 120c0 89.333 -31.333 164.333 -94 225s-139.334 91 -230.001 91c-90 0 -166.5 -30.167 -229.5 -90.5s-94.5 -135.5 -94.5 -225.5c0 -28 4 -56 12 -84z" />
    <glyph glyph-name="R" unicode="R" horiz-adv-x="614" 
d="M76 0v739.998h176c46 0 85.5 -2.16699 118.5 -6.5s63.5 -14.166 91.5 -29.499c37.333 -21.333 66 -50.166 86 -86.499s30 -76.166 30 -119.499c0 -60 -21.333 -112 -64 -156s-94 -66 -154 -66l208 -276h-92l-252 336h22l24 -2c26 0 50.5 1.5 73.5 4.5
s44.5 8.83301 64.5 17.5c30 14 53.5 34.167 70.5 60.5s25.5 56.166 25.5 89.499c0 24.667 -6.33301 49 -19 73s-29.667 43.667 -51 59c-15.333 11.333 -35 19.833 -59 25.5s-59.667 8.5 -107 8.5h-118v-672h-74z" />
    <glyph glyph-name="S" unicode="S" horiz-adv-x="510" 
d="M22 208l80.002 -0.00195312c0 -42 14.167 -77.5 42.5 -106.5s63.5 -43.5 105.5 -43.5c42.667 0 78.667 14 108 42s44 62.667 44 104c0 20 -4.33301 39.167 -13 57.5s-20.834 34.166 -36.501 47.499s-33.834 24 -54.501 32c-12 4.66699 -32 10.334 -60 17.001
c-34.667 9.33301 -57.667 16 -69 20c-24 9.33301 -44.333 21.333 -61 36c-20.667 18 -36.167 38.667 -46.5 62s-15.5 48.666 -15.5 75.999c0 59.333 20.167 107.5 60.5 144.5s90.166 55.5 149.499 55.5c55.333 0 102.833 -19.167 142.5 -57.5s59.5 -85.166 59.5 -140.499
l-76 -2c0 37.333 -13 68 -39 92s-58.333 36 -97 36c-36 0 -66 -12.333 -90 -37s-36 -55 -36 -91c0 -39.333 15.333 -69.666 46 -90.999c18.667 -12.667 51.834 -26 99.501 -40s72.5 -21.333 74.5 -22c26.667 -10 50 -24 70 -42s36 -40.667 48 -68s18 -55.666 18 -84.999
c0 -60.667 -22.167 -112.167 -66.5 -154.5s-96.833 -63.5 -157.5 -63.5c-64 0 -118.333 21 -163 63s-67 95 -67 159z" />
    <glyph glyph-name="T" unicode="T" horiz-adv-x="428" 
d="M178 0v672h-170v68h412v-68h-168v-672h-74z" />
    <glyph glyph-name="U" unicode="U" horiz-adv-x="740" 
d="M72 740l88.001 0.00195312v-450c0 -31.333 2.66699 -59.5 8 -84.5s16 -48.167 32 -69.5c18.667 -24.667 43 -43.834 73 -57.501s63 -20.5 99 -20.5c32.667 0 63.667 6 93 18s52.333 28.667 69 50c19.333 21.333 33 47.333 41 78c6 24 9 52.667 9 86v450h90v-450
c0 -43.333 -4 -79.333 -12 -108c-10.667 -38 -29.334 -71.833 -56.001 -101.5s-60.5 -52.834 -101.5 -69.501s-85.167 -25 -132.5 -25c-44.667 0 -87 7.66699 -127 23s-73.833 37.333 -101.5 66s-47.167 62.667 -58.5 102c-8.66699 30 -13 67.667 -13 113v450z" />
    <glyph glyph-name="V" unicode="V" horiz-adv-x="706" 
d="M316 0l-306 740h82l258 -648l262 648h80l-306 -740h-70z" />
    <glyph glyph-name="W" unicode="W" horiz-adv-x="972" 
d="M220 0l-210 740h78l180 -644l178 644h70l176 -644l182 644h76l-210 -740h-98l-162 606l-162 -606h-98z" />
    <glyph glyph-name="X" unicode="X" horiz-adv-x="614" 
d="M8 0l252 378l-236 362h86l196 -296l194 296h86l-238 -362l254 -378h-88l-208 316l-210 -316h-88z" />
    <glyph glyph-name="Y" unicode="Y" horiz-adv-x="740" 
d="M328 0v248l-310 492h98l256 -416l256 416h100l-312 -492v-248h-88z" />
    <glyph glyph-name="Z" unicode="Z" horiz-adv-x="486" 
d="M18 0v66l362 606h-352v68h436v-68l-362 -604h372v-68h-456z" />
    <glyph glyph-name="bracketleft" unicode="[" horiz-adv-x="360" 
d="M314 -52l0.00292969 -76.001c-26.667 6 -50.834 15.833 -72.501 29.5s-41.5 31.167 -59.5 52.5c-27.333 30.667 -45.833 61.334 -55.5 92.001s-14.5 68.667 -14.5 114v290c0 41.333 3.66699 76.5 11 105.5s22.333 57.833 45 86.5c18.667 22.667 40 42.667 64 60
c27.333 19.333 54.666 32 81.999 38v-76c-48 -21.333 -81.667 -48.666 -101 -81.999s-29 -77.333 -29 -132v-278c0 -59.333 8 -104.333 24 -135c19.333 -36.667 54.666 -66.334 105.999 -89.001z" />
    <glyph glyph-name="backslash" unicode="\" horiz-adv-x="614" 
d="M394 0l-310 740h72l308 -740h-70z" />
    <glyph glyph-name="bracketright" unicode="]" horiz-adv-x="360" 
d="M38 664l0.00195312 75.998c25.333 -6.66699 49.166 -17 71.499 -31s42.5 -31 60.5 -51c27.333 -30.667 46.333 -62.667 57 -96c8.66699 -28 13 -64.667 13 -110v-290c0 -42 -3.66699 -77.167 -11 -105.5s-23 -57.166 -47 -86.499c-17.333 -24 -38.833 -45 -64.5 -63
s-52.167 -29.667 -79.5 -35v76c47.333 19.333 81.333 47 102 83c18.667 32.667 28 76.334 28 131.001v276c0 39.333 -1.33301 66 -4 80c-4.66699 23.333 -15.334 47.333 -32.001 72c-11.333 17.333 -24.333 31.5 -39 42.5s-33 21.5 -55 31.5z" />
    <glyph glyph-name="asciicircum" unicode="^" horiz-adv-x="614" 
d="M82 180h-64l256 560h58l256 -560h-64l-222 484z" />
    <glyph glyph-name="underscore" unicode="_" horiz-adv-x="510" 
d="M500 -126h-500v58h500v-58z" />
    <glyph glyph-name="grave" unicode="`" horiz-adv-x="382" 
d="M106 780l198 -108l-32 -58l-198 106z" />
    <glyph glyph-name="a" unicode="a" horiz-adv-x="694" 
d="M620 548v-547.999h-70v104c-20 -38 -49.167 -67.167 -87.5 -87.5s-79.833 -30.5 -124.5 -30.5c-42 0 -84.333 10 -127 30s-81 49.333 -115 88c-12 13.333 -23.333 34.333 -34 63c-13.333 36.667 -20 73.667 -20 111c0 33.333 7 67.666 21 102.999
c12 30.667 24.333 51.667 37 63c39.333 42 78.333 71.833 117 89.5s78.334 26.5 119.001 26.5c45.333 0 87.166 -9.83301 125.499 -29.5s67.833 -48.5 88.5 -86.5v104h70zM336 488.001c-60 0 -111.668 -21 -155.001 -63s-65 -93 -65 -153s21.833 -110.667 65.5 -152
s95.834 -62 156.501 -62c57.333 0 107 21 149 63s63 91.667 63 149c0 61.333 -20.333 113 -61 155s-91.667 63 -153 63z" />
    <glyph glyph-name="b" unicode="b" horiz-adv-x="684" 
d="M64 0v740.001h74v-294c17.333 36 45.333 64 84 84s79.334 30 122.001 30c81.333 0 151 -27.333 209 -82s87 -122 87 -202c0 -36.667 -6.16699 -71.167 -18.5 -103.5s-27.5 -58.5 -45.5 -78.5c-36 -40.667 -72.667 -69.334 -110 -86.001
c-32.667 -14.667 -70.667 -22 -114 -22s-84.333 9 -123 27c-42.667 20 -74.334 47 -95.001 81v-94h-70zM346 488.001c-29.333 0 -57.333 -5.66602 -84 -16.999s-50.5 -27.5 -71.5 -48.5s-36 -43.667 -45 -68s-13.5 -52.5 -13.5 -84.5c0 -60.667 21.333 -111.167 64 -151.5
s94.667 -60.5 156 -60.5c59.333 0 109.833 21.167 151.5 63.5s62.5 93.166 62.5 152.499c0 61.333 -21.333 112.333 -64 153s-94.667 61 -156 61z" />
    <glyph glyph-name="c" unicode="c" horiz-adv-x="660" 
d="M526 160h82.001c-25.333 -54 -61.333 -96.5 -108 -127.5s-99.334 -46.5 -158.001 -46.5c-83.333 0 -153.666 27 -210.999 81c-59.333 56 -89 125 -89 207c0 80.667 29.167 148.5 87.5 203.5s127.833 82.5 208.5 82.5c60 0 114.667 -15.833 164 -47.5
s84.666 -75.167 105.999 -130.5h-82c-19.333 32 -45.833 57.667 -79.5 77s-69.167 29 -106.5 29c-62 0 -114.833 -20.167 -158.5 -60.5s-65.5 -90.833 -65.5 -151.5c0 -61.333 21 -113 63 -155s93.667 -63 155 -63c40.667 0 76.667 8.5 108 25.5s59.333 42.5 84 76.5z" />
    <glyph glyph-name="d" unicode="d" horiz-adv-x="694" 
d="M622 740l-0.00195312 -739.999h-70v100c-54 -76 -127.333 -114 -220 -114c-40.667 0 -79.5 9 -116.5 27s-74.833 47 -113.5 87c-14 12.667 -27 35 -39 67c-14 36.667 -21 73 -21 109c0 80.667 28.833 148.167 86.5 202.5s126.834 81.5 207.501 81.5
c42.667 0 83.334 -9.33301 122.001 -28s68.667 -45.334 90 -80.001v288h74zM549.998 276.001c0 60.667 -21.166 111.167 -63.499 151.5s-93.833 60.5 -154.5 60.5c-58.667 0 -109.334 -20.667 -152.001 -62s-64 -91.333 -64 -150c0 -60 21.333 -111.333 64 -154
s94 -64 154 -64s111 21.333 153 64s63 94 63 154z" />
    <glyph glyph-name="e" unicode="e" horiz-adv-x="660" 
d="M612 248l-496 -0.00195312c0 -50.667 21.333 -95 64 -133s90 -57 142 -57c42 0 81.167 10.833 117.5 32.5s62.5 50.834 78.5 87.501h78c-19.333 -55.333 -54 -101.166 -104 -137.499s-104 -54.5 -162 -54.5c-80 0 -148 28 -204 84s-84 124 -84 204
c0 78.667 27.667 146 83 202s123 84 203 84c42 0 82 -9.16699 120 -27.5s71.333 -44.5 100 -78.5c24 -30.667 40.667 -62 50 -94s14 -69.333 14 -112zM116 313.998l421.999 0.00195312c-10 49.333 -34.667 90.666 -74 123.999s-84.666 50 -135.999 50
c-52 0 -98.167 -16.333 -138.5 -49s-64.833 -74.334 -73.5 -125.001z" />
    <glyph glyph-name="f" unicode="f" horiz-adv-x="324" 
d="M102 0l0.000976562 480.001h-86v68h86l-2 12c0 56 18 100 54 132s83.333 48 142 48h14v-68h-14c-38.667 0 -68.334 -9.33301 -89.001 -28s-31 -47.334 -31 -86.001v-10h136v-68h-136v-480h-74z" />
    <glyph glyph-name="g" unicode="g" horiz-adv-x="684" 
d="M610 548l-0.00292969 -470.001c0 -52 -2.66699 -88.333 -8 -109c-8 -32.667 -26.667 -64.334 -56 -95.001c-25.333 -28 -57.333 -49.667 -96 -65s-78.667 -23 -120 -23c-61.333 0 -117.666 18.5 -168.999 55.5s-84.333 85.167 -99 144.5h72
c23.333 -42 51.5 -74.167 84.5 -96.5s72.167 -33.5 117.5 -33.5c36.667 0 71.5 8.33301 104.5 25s58.167 40.334 75.5 71.001c10.667 18.667 17.334 36.834 20.001 54.501s4 41.5 4 71.5v30c-17.333 -39.333 -47 -70 -89 -92c-38 -20 -79.667 -30 -125 -30
c-35.333 0 -70.5 7.33301 -105.5 22s-65.833 34.667 -92.5 60c-57.333 53.333 -86 121.333 -86 204c0 36.667 6 72 18 106c10 28.667 21.333 50 34 64c34.667 42.667 71.667 73.667 111 93c34.667 16.667 73.667 25 117 25c45.333 0 87.833 -10.167 127.5 -30.5
s69.834 -49.5 90.501 -87.5v106h70zM319.997 487.999c-56.667 0 -104.832 -20.499 -144.499 -61.499s-59.5 -89.833 -59.5 -146.5c0 -62.667 19.667 -115.334 59 -158.001s89.666 -64 150.999 -64c60.667 0 110.667 20.667 150 62c18.667 20 33.667 43.833 45 71.5
s17 55.167 17 82.5c0 60.667 -20.833 111.5 -62.5 152.5s-93.5 61.5 -155.5 61.5z" />
    <glyph glyph-name="h" unicode="h" horiz-adv-x="614" 
d="M64 0v739.997h74v-272c15.333 28.667 38.333 51.167 69 67.5s63 24.5 97 24.5c36.667 0 71 -7.16699 103 -21.5s59.333 -34.666 82 -60.999s38.667 -56.166 48 -89.499c7.33301 -27.333 11 -60.666 11 -99.999v-288h-74v288c0 36 -2.66699 63.167 -8 81.5
s-13.333 35.166 -24 50.499c-15.333 21.333 -35.833 38 -61.5 50s-52.5 18 -80.5 18c-24.667 0 -49.5 -6.16699 -74.5 -18.5s-44.833 -28.166 -59.5 -47.499c-12 -16 -19.667 -35 -23 -57s-5 -47.667 -5 -77v-288h-74z" />
    <glyph glyph-name="i" unicode="i" horiz-adv-x="210" 
d="M64 0v548h74v-548h-74zM64 614v126h74v-126h-74z" />
    <glyph glyph-name="j" unicode="j" horiz-adv-x="210" 
d="M140 548l-0.000976562 -513.999c0 -50.667 -3.83301 -86.834 -11.5 -108.501s-20.5 -42.167 -38.5 -61.5c-35.333 -37.333 -80.666 -56 -135.999 -56v72c47.333 0 79.333 17.667 96 53c10.667 23.333 16 62.333 16 117v498h74zM65.999 614.001v126h74v-126h-74z" />
    <glyph glyph-name="k" unicode="k" horiz-adv-x="510" 
d="M64 0v740h74v-520l250 328h96l-212 -274l226 -274h-96l-178 216l-86 -112v-104h-74z" />
    <glyph glyph-name="l" unicode="l" horiz-adv-x="210" 
d="M64 0v740h74v-740h-74z" />
    <glyph glyph-name="m" unicode="m" horiz-adv-x="950" 
d="M64 0v548.001h70v-72c12.667 28 31.834 49 57.501 63s55.167 21 88.5 21c72 0 130.667 -28 176 -84c2.66699 -2.66699 5.33398 -6.16699 8.00098 -10.5s4.66699 -7.5 6 -9.5l12 20c18 26 42.833 46.5 74.5 61.5s64.167 22.5 97.5 22.5c57.333 0 114 -28 170 -84
c20 -20 33.667 -43.5 41 -70.5s11 -58.167 11 -93.5v-312h-74v306c0 24 -2 45.833 -6 65.5s-11.333 37.167 -22 52.5c-30.667 42.667 -72 64 -124 64c-23.333 0 -45.833 -5.5 -67.5 -16.5s-39.167 -26.167 -52.5 -45.5c-10.667 -15.333 -17.334 -32.166 -20.001 -50.499
s-4 -41.5 -4 -69.5v-306h-74v314c0 23.333 -1.66699 43.166 -5 59.499s-10.333 32.5 -21 48.5c-30.667 44 -71.334 66 -122.001 66c-24.667 0 -47.167 -4.83301 -67.5 -14.5s-37.833 -24.167 -52.5 -43.5c-12 -16.667 -19.333 -32.834 -22 -48.501s-4 -38.167 -4 -67.5v-314
h-74z" />
    <glyph glyph-name="n" unicode="n" horiz-adv-x="614" 
d="M64 0l0.00195312 547.997h70v-80c42.667 61.333 99.334 92 170.001 92c37.333 0 72.666 -7.83301 105.999 -23.5s62.666 -38.5 87.999 -68.5c20 -24.667 33.333 -50.667 40 -78s10 -61.333 10 -102v-288h-74v288c0 36.667 -2.66699 63.834 -8 81.501
s-13.333 33.834 -24 48.501c-34.667 46.667 -82 70 -142 70c-25.333 0 -50.333 -5.83301 -75 -17.5s-44.334 -27.834 -59.001 -48.501c-12 -17.333 -19.667 -36.666 -23 -57.999s-5 -46.666 -5 -75.999v-288h-74z" />
    <glyph glyph-name="o" unicode="o" horiz-adv-x="660" 
d="M330 560c76 0 142.333 -28 199 -84s85 -122 85 -198c0 -78.667 -27.667 -147 -83 -205s-122.333 -87 -201 -87c-78 0 -145.5 27.833 -202.5 83.5s-85.5 122.5 -85.5 200.5c0 80 28 148.333 84 205s124 85 204 85zM330 488c-60.667 0 -111.501 -21.166 -152.501 -63.499
s-61.5 -93.833 -61.5 -154.5c0 -58 20.833 -107.833 62.5 -149.5s92.167 -62.5 151.5 -62.5c60 0 110 21.333 150 64s60 94.667 60 156c0 59.333 -21.167 109.166 -63.5 149.499s-91.166 60.5 -146.499 60.5z" />
    <glyph glyph-name="p" unicode="p" horiz-adv-x="684" 
d="M64 548h70v-94c20 33.333 50.5 59.333 91.5 78s83.167 28 126.5 28c41.333 0 80.333 -8.5 117 -25.5s72.334 -43.833 107.001 -80.5c17.333 -16 32.333 -40.833 45 -74.5s19 -69.5 19 -107.5c0 -80.667 -29.167 -148.5 -87.5 -203.5s-127.833 -82.5 -208.5 -82.5
c-42.667 0 -82.334 9.66699 -119.001 29c-40.667 21.333 -69.667 50.333 -87 87v-294h-74v740zM346 58c61.333 0 113.333 20.335 156 61.002s64 91.667 64 153c0 60 -20.667 111 -62 153s-92 63 -152 63c-61.333 0 -113.333 -19.833 -156 -59.5s-64 -89.834 -64 -150.501
c0 -31.333 4.5 -59.333 13.5 -84s23.833 -47.334 44.5 -68.001c43.333 -45.333 95.333 -68 156 -68z" />
    <glyph glyph-name="q" unicode="q" horiz-adv-x="684" 
d="M620 548v-740.001h-74v294c-17.333 -36 -45.5 -64.333 -84.5 -85s-80.167 -31 -123.5 -31c-80.667 0 -149.667 27 -207 81c-59.333 56 -89 124.333 -89 205c0 38.667 6.66699 75.334 20 110.001c11.333 30 26 54 44 72c31.333 36 66.333 62.667 105 80s79 26 121 26
s83.5 -9.16699 124.5 -27.5s72.167 -44.5 93.5 -78.5v94h70zM336 57.999c62 0 114.667 22.666 158 67.999c20 20 34.333 42.167 43 66.5s13 52.833 13 85.5c0 60.667 -21 110.834 -63 150.501s-93.667 59.5 -155 59.5c-60 0 -111 -21 -153 -63s-63 -93 -63 -153
c0 -60.667 21.167 -111.5 63.5 -152.5s94.5 -61.5 156.5 -61.5z" />
    <glyph glyph-name="r" unicode="r" horiz-adv-x="314" 
d="M64 0l-0.000976562 547.999h70v-80c13.333 31.333 33.833 54.5 61.5 69.5s59.834 22.5 96.501 22.5v-74c-36 0 -68.667 -12.667 -98 -38c-24 -19.333 -39.333 -39.166 -46 -59.499s-10 -47.833 -10 -82.5v-306h-74z" />
    <glyph glyph-name="s" unicode="s" horiz-adv-x="394" 
d="M18 162l74.002 0.00195312l-2 -4c0 -27.333 10.167 -50.833 30.5 -70.5s44.166 -29.5 71.499 -29.5c26.667 0 49.334 8.66699 68.001 26s28 39.333 28 66c0 30 -10.667 53.667 -32 71c-16.667 13.333 -41.334 24.333 -74.001 33
c-32.667 10.667 -50.334 16.667 -53.001 18c-18 7.33301 -33.667 17.333 -47 30c-29.333 27.333 -44 62 -44 104c0 44.667 15.167 81.5 45.5 110.5s67.833 43.5 112.5 43.5c41.333 0 77 -14.667 107 -44s45 -64 45 -104h-74c0 23.333 -8.16699 41.833 -24.5 55.5
s-36.833 20.5 -61.5 20.5c-21.333 0 -39.333 -7.33301 -54 -22s-22 -32.667 -22 -54c0 -26.667 10 -47.334 30 -62.001c12.667 -9.33301 34.667 -18.666 66 -27.999c49.333 -15.333 85.333 -33 108 -53c30.667 -26.667 46 -62.334 46 -107.001
c0 -52 -16.667 -94.333 -50 -127s-76 -49 -128 -49c-44 0 -83 16.667 -117 50s-51 72.666 -51 117.999z" />
    <glyph glyph-name="t" unicode="t" horiz-adv-x="348" 
d="M126 0v480h-114v68h114v192h74v-192h128v-68h-128v-480h-74z" />
    <glyph glyph-name="u" unicode="u" horiz-adv-x="660" 
d="M586 548l0.000976562 -548.001h-76v86c-18 -33.333 -44.333 -58.333 -79 -75s-73.667 -25 -117 -25c-38 0 -73.5 7.66699 -106.5 23s-66.167 41 -99.5 77c-16 16 -26.667 37.833 -32 65.5s-8 63.167 -8 106.5v290h80v-290c0 -26 1.66699 -48.5 5 -67.5
s10.333 -36.5 21 -52.5c15.333 -25.333 36.5 -45 63.5 -59s56.5 -21 88.5 -21c60.667 0 108.667 22.667 144 68c13.333 16.667 22.666 36.334 27.999 59.001s8 47 8 73v290h80z" />
    <glyph glyph-name="v" unicode="v" horiz-adv-x="556" 
d="M238 0l-230 548h80l190 -454l188 454h80l-230 -548h-78z" />
    <glyph glyph-name="w" unicode="w" horiz-adv-x="834" 
d="M214 0l-206 548h78l172 -458l126 390h62l126 -390l174 458h78l-208 -548h-84l-118 364l-114 -364h-86z" />
    <glyph glyph-name="x" unicode="x" horiz-adv-x="486" 
d="M8 0l188 278l-188 270h88l144 -212l146 212h86l-188 -270l188 -278h-86l-146 220l-144 -220h-88z" />
    <glyph glyph-name="y" unicode="y" horiz-adv-x="660" 
d="M532 548h98l-370 -740h-100l110 220l-260 520h94l212 -430z" />
    <glyph glyph-name="z" unicode="z" horiz-adv-x="428" 
d="M10 0v66l296 414h-286v68h376v-68l-294 -412h314v-68h-406z" />
    <glyph glyph-name="braceleft" unicode="{" horiz-adv-x="360" 
d="M120 420l0.00488281 168c0 55.333 9.5 94.5 28.5 117.5s54.833 34.5 107.5 34.5h16c-28.667 -8.66699 -49.167 -22.5 -61.5 -41.5s-18.5 -43.833 -18.5 -74.5v-178c0 -40.667 -5 -70.334 -15 -89.001c-13.333 -24.667 -38.333 -41.667 -75 -51
c35.333 -6.66699 59.666 -20.667 72.999 -42c11.333 -18 17 -46 17 -84v-192c0 -32.667 5.66699 -57.834 17 -75.501s32.333 -31.167 63 -40.5c-28.667 0 -50.834 1.33301 -66.501 4s-31.5 9.83398 -47.5 21.501s-26.333 26.667 -31 45s-7 40.166 -7 65.499v190
c0 20 -1 34.5 -3 43.5s-7.83301 19.167 -17.5 30.5s-19.334 19.833 -29.001 25.5s-20.5 8.5 -32.5 8.5c12.667 4 22.667 7.66699 30 11s14.666 8.33301 21.999 15c13.333 10.667 21.666 22.334 24.999 35.001s5 30.334 5 53.001z" />
    <glyph glyph-name="bar" unicode="|" horiz-adv-x="684" 
d="M304 0v740h64v-740h-64z" />
    <glyph glyph-name="braceright" unicode="}" horiz-adv-x="360" 
d="M116 446l0.000976562 177.998c0 31.333 -5.83301 56.333 -17.5 75s-31.834 32.334 -60.501 41.001h14c52 0 87.667 -11.5 107 -34.5s29 -62.167 29 -117.5v-168c0 -24 1.5 -41.833 4.5 -53.5s11.167 -23 24.5 -34s31 -19.833 53 -26.5c-14.667 0 -28 -4.33301 -40 -13
c-6 -4 -12.667 -10.333 -20 -19c-10 -11.333 -16.167 -22.333 -18.5 -33s-3.5 -25 -3.5 -43v-190c0 -28 -1.66699 -48.333 -5 -61c-5.33301 -20.667 -16.166 -37 -32.499 -49s-32.166 -19.333 -47.499 -22s-37 -4 -65 -4c29.333 10 49.666 23.667 60.999 41s17 42.333 17 75
v192c0 38 6.16699 66.833 18.5 86.5s36.166 32.834 71.499 39.501c-36 9.33301 -60.667 26 -74 50c-10.667 19.333 -16 49.333 -16 90z" />
    <glyph glyph-name="asciitilde" unicode="~" horiz-adv-x="614" 
d="M514 392l42.002 -48c-18 -32 -37 -57 -57 -75c-26 -23.333 -54.333 -35 -85 -35c-12.667 0 -29.334 3.33301 -50.001 10c-10.667 3.33301 -39.334 14.666 -86.001 33.999c-20 8 -33.333 13 -40 15c-17.333 6 -32 9 -44 9c-22.667 0 -43 -10 -61 -30
c-10 -10.667 -23.667 -30.667 -41 -60l-40 48c18.667 35.333 37.334 62 56.001 80c26 25.333 54.667 38 86 38c25.333 0 64.333 -11.667 117 -35s87 -35 103 -35c20.667 0 40.667 9.33301 60 28c13.333 12.667 26.666 31.334 39.999 56.001z" />
    <glyph glyph-name="uni00A0" unicode="&#xa0;" horiz-adv-x="290" 
 />
    <glyph glyph-name="exclamdown" unicode="&#xa1;" horiz-adv-x="333" 
d="M144 388h45l23 -337v-230h-91v230zM121 571h91v-100h-91v100z" />
    <glyph glyph-name="cent" unicode="&#xa2;" horiz-adv-x="556" 
d="M260 62v89.999c-58.667 0 -109 23.667 -151 71s-63 101.666 -63 162.999c0 58 21.5 110.167 64.5 156.5s92.833 69.5 149.5 69.5v94h66v-94c42.667 -5.33301 80.667 -21.333 114 -48s56.666 -60.667 69.999 -102h-84c-13.333 25.333 -32.833 45 -58.5 59
s-53.5 21 -83.5 21c-44 0 -82.333 -15.167 -115 -45.5s-49 -67.166 -49 -110.499c0 -45.333 16.333 -84 49 -116s71.667 -48 117 -48c25.333 0 50.333 6.16699 75 18.5s45.667 28.833 63 49.5h80c-12.667 -36 -35.667 -66.667 -69 -92s-69.666 -40.666 -108.999 -45.999v-90
h-66z" />
    <glyph glyph-name="sterling" unicode="&#xa3;" horiz-adv-x="556" 
d="M58 0l-0.000976562 68h140c12.667 12 22.834 28.667 30.501 50s11.5 42 11.5 62c0 36 -9 67.667 -27 95c-13.333 20.667 -36.333 44.334 -69 71.001h-126v68h74c-6 14 -11.167 29.333 -15.5 46s-6.5 32 -6.5 46c0 28 5.33301 56 16 84s25.334 53.333 44.001 76
c49.333 57.333 111.333 86 186 86c59.333 0 112.333 -20.333 159 -61s73 -91 79 -151h-70c-6.66699 38.667 -26.334 71.667 -59.001 99s-69 41 -109 41c-48 0 -88.667 -16.333 -122 -49s-50 -73.667 -50 -123c0 -19.333 2.16699 -36.5 6.5 -51.5s11.5 -29.167 21.5 -42.5
h284v-68h-214c22 -22 39.5 -47 52.5 -75s19.5 -57 19.5 -87c0 -20 -2.5 -39.333 -7.5 -58s-12.5 -38 -22.5 -58h26l32 -2c24 0 45 1.83301 63 5.5s35.667 11.167 53 22.5c19.333 14 34.166 31.167 44.499 51.5s15.5 42.5 15.5 66.5v8c0 8 -0.166992 15.667 -0.5 23
s-2.16602 15.666 -5.49902 24.999h72c2.66699 -8 4.66699 -17.167 6 -27.5s2 -20.5 2 -30.5c0 -68 -26.667 -122.667 -80 -164c-24.667 -19.333 -53 -32.333 -85 -39c-22 -4.66699 -53.667 -7 -95 -7h-274z" />
    <glyph glyph-name="currency" unicode="&#xa4;" horiz-adv-x="556" 
d="M52 110l50.001 42.001c-7.33301 18 -13.5 35.667 -18.5 53s-7.5 33.666 -7.5 48.999c0 6 0.666992 13.167 2 21.5l4 24.5c11.333 56 36.666 106.667 75.999 152l-34 42l60 54l36 -44c50.667 33.333 105.334 50 164.001 50c26.667 0 51.167 -4.16699 73.5 -12.5
s43.166 -20.833 62.499 -37.5l52 44l44 -54l-52 -42c16 -32 24 -66 24 -102l-4 -54c-10.667 -50 -36 -98 -76 -144l36 -42l-62 -52l-36 42c-54 -33.333 -108.667 -50 -164 -50c-27.333 0 -51.333 4 -72 12s-42 20.667 -64 38l-52 -42zM512.001 304.001l2.00098 32.001
c0 40 -13.333 74.333 -40 103s-60.667 43 -102 43h-6c-50.667 0 -96.667 -17.5 -138 -52.5s-66 -78.167 -74 -129.5l-4 -34c0 -40.667 14.167 -74.834 42.5 -102.501s63.5 -41.5 105.5 -41.5c50.667 0 96.667 17.333 138 52s66.666 78 75.999 130z" />
    <glyph glyph-name="yen" unicode="&#xa5;" horiz-adv-x="506" 
d="M206 262v30l-224 458h102l166 -376l174 376h94l-230 -458v-30h138v-44h-138v-76h138v-44h-138v-98h-82v98h-138v44h138v76h-138v44h138z" />
    <glyph glyph-name="brokenbar" unicode="&#xa6;" horiz-adv-x="684" 
d="M304 0v740h64v-740h-64z" />
    <glyph glyph-name="section" unicode="&#xa7;" horiz-adv-x="506" 
d="M196 424c-20 -14 -34 -24.333 -42 -31c-25.333 -22 -38 -47 -38 -75l-2 -6c0 -20 6.33301 -37 19 -51c10 -11.333 28.333 -26.333 55 -45l-2 -2l-6 2l132 -86c31.333 23.333 51.5 43 60.5 59s13.5 33.667 13.5 53c0 18.667 -6.33301 35.667 -19 51
c-14.667 18 -43 42.333 -85 73l-45 30zM148 458c-22 14.667 -39.1689 33.498 -51.502 56.498s-18.5 47.5 -18.5 73.5c0 50 16.5 89.5 49.5 118.5s75.833 43.5 128.5 43.5s93.834 -15.5 123.501 -46.5s44.5 -72.833 44.5 -125.5v-4h-82c0 34.667 -7.66699 61.334 -23 80.001
s-39.666 28 -72.999 28c-25.333 0 -46.333 -7.66699 -63 -23s-25 -35.666 -25 -60.999l-2 -10c0 -18 6.83301 -34 20.5 -48s50.834 -41.333 111.501 -82c76 -52 116.667 -80.333 122 -85c37.333 -33.333 56 -72.333 56 -117c0 -35.333 -10.333 -67.333 -31 -96
c-15.333 -22 -40.333 -45.333 -75 -70c23.333 -18 41.166 -37.167 53.499 -57.5s18.5 -44.5 18.5 -72.5c0 -54 -16.833 -95.5 -50.5 -124.5s-80.834 -43.5 -141.501 -43.5c-53.333 0 -96.333 16.667 -129 50s-49 76 -49 128l2 8h80c0 -37.333 8.83301 -66.666 26.5 -87.999
s44.834 -32 81.501 -32c30 0 54.167 7.66699 72.5 23s27.5 37.666 27.5 66.999c0 27.333 -11 52 -33 74c-19.333 19.333 -67 53.333 -143 102c-54 34.667 -90.833 64.5 -110.5 89.5s-29.5 54.5 -29.5 88.5c0 36 10.667 67.667 32 95c19.333 24.667 46 45 80 61z" />
    <glyph glyph-name="dieresis" unicode="&#xa8;" horiz-adv-x="694" 
d="M458 700l29.9971 -47.999c-11.333 -10.667 -24.5 -19.667 -39.5 -27s-29.167 -11 -42.5 -11s-24.5 1.5 -33.5 4.5s-21.333 8.66699 -37 17s-26.667 13.5 -33 15.5s-13.166 3 -20.499 3c-9.33301 0 -19.166 -2.83301 -29.499 -8.5s-19.166 -12.834 -26.499 -21.501l-28 50
c26 28 55.333 42 88 42c18 0 39.333 -6.66699 64 -20s42.667 -20 54 -20c10.667 0 21.667 3.33301 33 10c4 2 11 6.66699 21 14z" />
    <glyph glyph-name="copyright" unicode="&#xa9;" horiz-adv-x="752" 
d="M374 -14c-106 0 -196.501 37.5 -271.501 112.5s-112.5 165.5 -112.5 271.5c0 105.333 37.333 195.333 112 270s165.334 112 272.001 112c105.333 0 195.333 -37.333 270 -112s112 -164.667 112 -270c0 -106 -37.167 -196.5 -111.5 -271.5s-164.5 -112.5 -270.5 -112.5z
M373.999 34c93.333 0 172.666 32.667 237.999 98s98 144.666 98 237.999s-32.667 172.666 -98 237.999s-144.666 98 -237.999 98s-172.666 -32.667 -237.999 -98s-98 -144.666 -98 -237.999s32.667 -172.666 98 -237.999s144.666 -98 237.999 -98zM513.999 300
l54 -0.00195312c-4.66699 -44.667 -23.667 -80.5 -57 -107.5s-73 -40.5 -119 -40.5c-63.333 0 -114.5 20.833 -153.5 62.5s-58.5 94.834 -58.5 159.501c0 64 18.667 116.333 56 157s88 61 152 61c47.333 0 87.5 -12.667 120.5 -38s52.833 -60.666 59.5 -105.999h-54
c-6 29.333 -20.667 53.333 -44 72s-50 28 -80 28c-48.667 0 -86.5 -16.5 -113.5 -49.5s-40.5 -74.5 -40.5 -124.5c0 -48.667 13.333 -89.334 40 -122.001c29.333 -36 68 -54 116 -54c30.667 0 57.667 9.33301 81 28s37 43.334 41 74.001z" />
    <glyph glyph-name="ordfeminine" unicode="&#xaa;" horiz-adv-x="624" 
d="M99 596h440v-452h-440v452z" />
    <glyph glyph-name="guillemotleft" unicode="&#xab;" horiz-adv-x="428" 
d="M172 102l-76 200l150 198l52 -30l-124 -168l62 -168zM346 102l-76 200l150 198l52 -30l-124 -168l62 -168z" />
    <glyph glyph-name="logicalnot" unicode="&#xac;" horiz-adv-x="893" 
d="M404 675v-4l-175 -106v25l129 85h46zM404 651v-31l-175 -105v18zM404 594v-24l-175 -105v11l4 2zM404 537v-18l-164 -100l162 59l2 2v-11l-79 -50l79 28v-333h-155l-5 -2h-15v173h-53v-178l-175 -105v423l147 53l28 19v-13l-105 -65l105 39v-24h5l-27 -15l44 15h31v11
l90 33zM12 0h-11v2zM1 430v26l64 22l111 76v-19zM1 480v13l175 118v-26zM229 618v29l46 28h53zM1 530v20l175 118v-32zM229 668v7h15zM1 581v26l103 68h55zM1 633v42h72zM475 675h19l-19 -11v11zM527 675h53l-105 -64v29zM610 675h40h7.5h7.5l-190 -114v22zM694 675
c13.333 0 28.667 -1.33301 46 -4l-265 -160v15zM762.001 664c10.667 -2 21.667 -6.33301 33 -13l-320 -191v13l10 5zM812.001 640c0.666992 -1.33301 1.5 -2.5 2.5 -3.5s2.5 -2.16699 4.5 -3.5c1.33301 -1.33301 4 -5 8 -11l-129 -78c0 1.33301 -1.33301 3.33301 -4 6
s-5.66699 4 -9 4zM838.001 600c0.666992 -1.33301 3 -7.66699 7 -19l-140 -84v7v2.5v4.5zM849.001 551.999c0 -3.33301 0.333008 -6.66699 1 -10s1 -6.33301 1 -9l-146 -88v2.5v1.5v16l35 13zM851.001 494.998l-0.000976562 -3.99902v-5v-2l-105 -65l105 39v-26l-21 -13
l21 8c0 -44 -4.33301 -75.333 -13 -94c-8.66699 -20.667 -24.667 -35.334 -48 -44.001c-25.333 -11.333 -56.666 -17 -93.999 -17h-46v-176l-162 -96h-13v443l94 35l81 52v-15l-158 -96l158 57v-14l-72 -43l72 26v-57h6.5h6.5c14.667 0 25.667 4.33301 33 13c6 6 9 17 9 33
l118 44z" />
    <glyph glyph-name="uni00AD" unicode="&#xad;" horiz-adv-x="336" 
d="M32 334h270v-66h-270v66z" />
    <glyph glyph-name="registered" unicode="&#xae;" horiz-adv-x="290" 
d="M374 -14c-106 0 -196.501 37.5 -271.501 112.5s-112.5 165.5 -112.5 271.5c0 105.333 37.333 195.333 112 270s165.334 112 272.001 112c105.333 0 195.333 -37.333 270 -112s112 -164.667 112 -270c0 -106 -37.167 -196.5 -111.5 -271.5s-164.5 -112.5 -270.5 -112.5z
M373.999 34c93.333 0 172.666 32.667 237.999 98s98 144.666 98 237.999s-32.667 172.666 -98 237.999s-144.666 98 -237.999 98s-172.666 -32.667 -237.999 -98s-98 -144.666 -98 -237.999s32.667 -172.666 98 -237.999s144.666 -98 237.999 -98zM435.999 354l128.003 -198
h-62l-122 198h-96v-198h-52v428h186c23.333 0 42.666 -1.33301 57.999 -4s30.666 -8.5 45.999 -17.5s27.166 -21.833 35.499 -38.5s12.5 -34.667 12.5 -54c0 -40 -12.167 -69.333 -36.5 -88s-56.833 -28 -97.5 -28zM284.002 394h80l36 -2c44.667 0 76.334 7.66699 95.001 23
c15.333 12.667 23 31.667 23 57c0 30 -11.667 50.667 -35 62c-16.667 8 -42.334 12 -77.001 12h-122v-152z" />
    <glyph glyph-name="macron" unicode="&#xaf;" horiz-adv-x="290" 
 />
    <glyph glyph-name="degree" unicode="&#xb0;" horiz-adv-x="882" 
d="M449 616c70 0 126.667 -22.667 170 -68s65 -101 65 -167s-21.667 -121.333 -65 -166s-100 -67 -170 -67c-68.667 0 -124.5 22.5 -167.5 67.5s-64.5 100.167 -64.5 165.5s21.5 120.833 64.5 166.5s98.833 68.5 167.5 68.5z" />
    <glyph glyph-name="plusminus" unicode="&#xb1;" horiz-adv-x="506" 
d="M216 350v156h70v-156h172v-70h-172v-160h-70v160h-172v70h172zM44 0v70h414v-70h-414z" />
    <glyph glyph-name="uni00B2" unicode="&#xb2;" horiz-adv-x="306" 
d="M198 484l-88.001 -73.9971c-11.333 -11.333 -18.666 -19.666 -21.999 -24.999c-5.33301 -8.66699 -8 -19.667 -8 -33h202v-52h-262c0 18 1.5 35.167 4.5 51.5s8.16699 31.833 15.5 46.5c2.66699 8 7.83398 17.667 15.501 29s14.5 19.666 20.5 24.999l90 80
c30.667 26.667 46 58 46 94c0 23.333 -4.66699 41.166 -14 53.499s-26 18.5 -50 18.5c-23.333 0 -39.833 -8.5 -49.5 -25.5s-14.5 -37.167 -14.5 -60.5l2 -14h-62v28c0 18 2.16699 34.167 6.5 48.5s12.166 28.166 23.499 41.499c10.667 9.33301 22 16.666 34 21.999
c18 8 39.333 12 64 12c40 0 70.667 -11 92 -33s32 -52.333 32 -91c0 -31.333 -6.66699 -58 -20 -80c-10.667 -18 -30 -38.667 -58 -62z" />
    <glyph glyph-name="uni00B3" unicode="&#xb3;" horiz-adv-x="306" 
d="M116 504l-0.000976562 56.001h24c22 0 37.333 3.33301 46 10c13.333 10 20 30 20 60c0 23.333 -4.33301 40.5 -13 51.5s-24.334 16.5 -47.001 16.5c-24 0 -40.333 -7 -49 -21s-13 -33.667 -13 -59h-58l-2 4c0 37.333 10 67.333 30 90c22.667 25.333 54.667 38 96 38
c36.667 0 65.834 -10.167 87.501 -30.5s32.5 -47.5 32.5 -81.5c0 -26 -5 -47.167 -15 -63.5s-27.667 -28.5 -53 -36.5c27.333 -6 47.833 -18.167 61.5 -36.5s20.5 -40.833 20.5 -67.5c0 -44 -10.667 -78 -32 -102c-23.333 -26.667 -58.666 -40 -105.999 -40
c-44 0 -76.667 11.667 -98 35s-32 55.666 -32 96.999l2 8h58l-2 -14c0 -23.333 6 -41.833 18 -55.5s31.333 -20.5 58 -20.5c22.667 0 40 6.66699 52 20s18 32 18 56c0 33.333 -7 56 -21 68s-38.333 18 -73 18h-10z" />
    <glyph glyph-name="acute" unicode="&#xb4;" horiz-adv-x="428" 
d="M172 102l-76 200l150 198l52 -30l-124 -168l62 -168zM346 102l-76 200l150 198l52 -30l-124 -168l62 -168z" />
    <glyph glyph-name="uni00B5" unicode="&#xb5;" horiz-adv-x="506" 
d="M344 0l-0.00195312 74.002c-31.333 -60 -76 -90 -134 -90c-9.33301 0 -18.833 2.33301 -28.5 7l-27.5 13v-194h-78v746h78v-432c0 -24 5.33301 -42 16 -54s29.334 -18 56.001 -18c40 0 71.333 16.667 94 50c8.66699 13.333 14.834 28.166 18.501 44.499
s5.5 34.166 5.5 53.499v356h78v-556h-78z" />
    <glyph glyph-name="paragraph" unicode="&#xb6;" horiz-adv-x="448" 
d="M158 -116v482c-42 0 -78.833 18.833 -110.5 56.5s-47.5 82.167 -47.5 133.5c0 27.333 4.66699 54 14 80s22.5 48.5 39.5 67.5s35.5 31.5 55.5 37.5s45 9 75 9h208v-866h-80v800h-76v-800h-78z" />
    <glyph glyph-name="periodcentered" unicode="&#xb7;" horiz-adv-x="290" 
 />
    <glyph glyph-name="periodcentered" unicode="&#x2219;" horiz-adv-x="290" 
 />
    <glyph glyph-name="cedilla" unicode="&#xb8;" horiz-adv-x="290" 
 />
    <glyph glyph-name="uni00B9" unicode="&#xb9;" horiz-adv-x="306" 
d="M172 624h-104v44c38.667 0 65.667 4.66699 81 14c19.333 12 31 34.667 35 68h50v-450h-62v324z" />
    <glyph glyph-name="ordmasculine" unicode="&#xba;" horiz-adv-x="664" 
d="M113 618h472v-489h-472v489zM157 576v-409h386v409h-386z" />
    <glyph glyph-name="guillemotright" unicode="&#xbb;" horiz-adv-x="428" 
d="M292 102l-54 32l126 168l-64 168l66 30l76 -198zM118 102l-52 32l124 168l-62 168l64 30l76 -198z" />
    <glyph glyph-name="onequarter" unicode="&#xbc;" horiz-adv-x="752" 
d="M618 372l-134 -214h134v214zM442 162l178 288h58v-292h38v-50h-38v-108h-60v108h-176v54zM144 0l452 750h62l-452 -750h-62zM138 624h-104v44c38.667 0 65.667 4.66699 81 14c19.333 12 31 34.667 35 68h50v-450h-62v324z" />
    <glyph glyph-name="onehalf" unicode="&#xbd;" horiz-adv-x="752" 
d="M92 0l452 750h62l-452 -750h-62zM146 624h-104v44c38.667 0 65.667 4.66699 81 14c19.333 12 31 34.667 35 68h50v-450h-62v324zM626 184l-88.001 -73.9971c-11.333 -11.333 -18.666 -19.666 -21.999 -24.999c-5.33301 -8.66699 -8 -19.667 -8 -33h202v-52h-262
c0 18 1.5 35.167 4.5 51.5s8.16699 31.833 15.5 46.5c2.66699 8 7.83398 17.667 15.501 29s14.5 19.666 20.5 24.999l90 80c30.667 26.667 46 58 46 94c0 23.333 -4.66699 41.166 -14 53.499s-26 18.5 -50 18.5c-23.333 0 -39.833 -8.5 -49.5 -25.5
s-14.5 -37.167 -14.5 -60.5l2 -14h-62v28c0 18 2.16699 34.167 6.5 48.5s12.166 28.166 23.499 41.499c10.667 9.33301 22 16.666 34 21.999c18 8 39.333 12 64 12c40 0 70.667 -11 92 -33s32 -52.333 32 -91c0 -31.333 -6.66699 -58 -20 -80
c-10.667 -18 -30 -38.667 -58 -62z" />
    <glyph glyph-name="threequarters" unicode="&#xbe;" horiz-adv-x="752" 
d="M632 372l-134 -214h134v214zM456 162l178 288h58v-292h38v-50h-38v-108h-60v108h-176v54zM158 0l452 750h62l-452 -750h-62zM120 504l-0.000976562 56.001h24c22 0 37.333 3.33301 46 10c13.333 10 20 30 20 60c0 23.333 -4.33301 40.5 -13 51.5
s-24.334 16.5 -47.001 16.5c-24 0 -40.333 -7 -49 -21s-13 -33.667 -13 -59h-58l-2 4c0 37.333 10 67.333 30 90c22.667 25.333 54.667 38 96 38c36.667 0 65.834 -10.167 87.501 -30.5s32.5 -47.5 32.5 -81.5c0 -26 -5 -47.167 -15 -63.5s-27.667 -28.5 -53 -36.5
c27.333 -6 47.833 -18.167 61.5 -36.5s20.5 -40.833 20.5 -67.5c0 -44 -10.667 -78 -32 -102c-23.333 -26.667 -58.666 -40 -105.999 -40c-44 0 -76.667 11.667 -98 35s-32 55.666 -32 96.999l2 8h58l-2 -14c0 -23.333 6 -41.833 18 -55.5s31.333 -20.5 58 -20.5
c22.667 0 40 6.66699 52 20s18 32 18 56c0 33.333 -7 56 -21 68s-38.333 18 -73 18h-10z" />
    <glyph glyph-name="questiondown" unicode="&#xbf;" horiz-adv-x="500" 
d="M353 46h87c0 -68 -14.333 -122.333 -43 -163c-34.667 -48.667 -86.334 -73 -155.001 -73c-61.333 0 -110.666 16.833 -147.999 50.5s-56 79.5 -56 137.5c0 54 16 103 48 147l101 125c9.33301 12.667 16 25.5 20 38.5s6 27.167 6 42.5v36h89
c0 -52.667 -4.16699 -90 -12.5 -112s-31 -53.167 -68 -93.5s-62.167 -73.5 -75.5 -99.5c-11.333 -24.667 -17 -50.667 -17 -78c0 -34.667 7.33301 -62.667 22 -84c18.667 -26.667 45 -40 79 -40c47.333 0 81 17.333 101 52c14.667 27.333 22 65.333 22 114zM211 559h91v-100
h-91v100z" />
    <glyph glyph-name="Agrave" unicode="&#xc0;" 
d="M-546 806l144 126h64l146 -126h-90l-88 72l-86 -72h-90zM-209 966l-32 -30l-206 106l64 54z" />
    <glyph glyph-name="Aacute" unicode="&#xc1;" 
d="M-546 806l144 126h64l146 -126h-90l-88 72l-86 -72h-90zM-238 918l174 130l64 -54l-206 -106z" />
    <glyph glyph-name="Acircumflex" unicode="&#xc2;" 
d="M-546 806l144 126h64l146 -126h-90l-88 72l-86 -72h-90z" />
    <glyph glyph-name="Atilde" unicode="&#xc3;" 
d="M-546 806l144 126h64l146 -126h-90l-88 72l-86 -72h-90zM-232 1076l25.999 -40.002c-11.333 -11.333 -25.833 -22.5 -43.5 -33.5s-33.167 -16.5 -46.5 -16.5c-12.667 0 -23.5 1.5 -32.5 4.5s-22.167 8.83301 -39.5 17.5c-10.667 6.66699 -19.167 11.334 -25.5 14.001
s-14.5 4 -24.5 4c-10.667 0 -23.667 -3.16699 -39 -9.5s-25.666 -13.166 -30.999 -20.499l-32 40c13.333 14.667 29.5 27 48.5 37s37.5 15 55.5 15c16.667 0 33.334 -4 50.001 -12c39.333 -18.667 62.666 -28 69.999 -28c9.33301 0 19.5 2.5 30.5 7.5
s22.167 11.833 33.5 20.5z" />
    <glyph glyph-name="Adieresis" unicode="&#xc4;" 
d="M-546 806l144 126h64l146 -126h-90l-88 72l-86 -72h-90zM-406 -192v126h74v-126h-74z" />
    <glyph glyph-name="Aring" unicode="&#xc5;" 
d="M-546 806l144 126h64l146 -126h-90l-88 72l-86 -72h-90zM-274 1055l-60.001 0.00195312l2 14c4 26 16.667 46.667 38 62c12.667 9.33301 26.834 16 42.501 20s32.167 6 49.5 6c37.333 0 66.833 -8.66699 88.5 -26s32.5 -40.333 32.5 -69
c0 -27.333 -12.667 -51.333 -38 -72c-6.66699 -4.66699 -16.667 -9.5 -30 -14.5s-22 -9.5 -26 -13.5c-6 -4 -10.333 -6.66699 -13 -8s-4.33398 -4 -5.00098 -8v-40h-53v37c0 12 2 22.333 6 31s10.333 16 19 22c14 9.33301 27 18.666 39 27.999s19.333 16.333 22 21l6.5 11.5
c1.66699 3 2.5 6.83301 2.5 11.5s-1.66699 10 -5 16c-0.666992 2 -3.5 5.66699 -8.5 11s-12 8.83301 -21 10.5s-18.833 2.5 -29.5 2.5c-10 -1.33301 -18.167 -2.83301 -24.5 -4.5s-12.166 -4.83398 -17.499 -9.50098c-2 -2 -4.16699 -6.33301 -6.5 -13l-7.5 -21z" />
    <glyph glyph-name="AE" unicode="&#xc6;" horiz-adv-x="232" 
d="M76 0v740h74v-740h-74zM61 945h-60.002l2 14c4 26 16.667 46.667 38 62c12.667 9.33301 26.834 16 42.501 20s32.167 6 49.5 6c37.333 0 66.833 -8.66699 88.5 -26s32.5 -40.333 32.5 -69c0 -27.333 -12.667 -51.333 -38 -72c-6.66699 -4.66699 -16.667 -9.5 -30 -14.5
s-22 -9.5 -26 -13.5c-6 -4 -10.333 -6.66699 -13 -8s-4.33398 -4 -5.00098 -8v-40h-53v37c0 12 2 22.333 6 31s10.333 16 19 22l41 29c10.667 8.66699 17.334 15.334 20.001 20.001l6.5 11.5c1.66699 3 2.5 6.83301 2.5 11.5s-1.66699 10 -5 16
c-0.666992 2 -3.5 5.66699 -8.5 11s-12 8.83301 -21 10.5s-18.833 2.5 -29.5 2.5c-10 -1.33301 -18.167 -2.83301 -24.5 -4.5s-12.166 -4.83398 -17.499 -9.50098c-2 -2 -4.16699 -6.33301 -6.5 -13l-7.5 -21z" />
    <glyph glyph-name="Ccedilla" unicode="&#xc7;" horiz-adv-x="660" 
d="M250 -90l36.001 82.001c-69.333 12 -127.333 44 -174 96s-70 114 -70 186c0 80.667 29.167 148.5 87.5 203.5s127.833 82.5 208.5 82.5c60 0 114.667 -15.833 164 -47.5s84.666 -75.167 105.999 -130.5h-82c-19.333 32 -45.833 57.667 -79.5 77s-69.167 29 -106.5 29
c-62 0 -114.833 -20.167 -158.5 -60.5s-65.5 -90.833 -65.5 -151.5c0 -61.333 21 -113 63 -155s93.667 -63 155 -63c40.667 0 76.667 8.5 108 25.5s59.333 42.5 84 76.5h82c-25.333 -54 -61.333 -96.5 -108 -127.5s-99.334 -46.5 -158.001 -46.5l-20 2l-18 -46
c10 4 20 6 30 6c24 0 43 -7.33301 57 -22s21 -34 21 -58c0 -24.667 -8.16699 -46.167 -24.5 -64.5s-36.833 -27.5 -61.5 -27.5c-49.333 0 -79.333 24 -90 72l44 6c0 -9.33301 5.16699 -17.333 15.5 -24s20.5 -10 30.5 -10c13.333 0 24 4.66699 32 14s12 20.666 12 33.999
s-4.66699 24.333 -14 33s-20.666 13 -33.999 13c-18 0 -31.333 -7.33301 -40 -22z" />
    <glyph glyph-name="Egrave" unicode="&#xc8;" 
d="M-520 906h62c7.33301 -15.333 19.5 -26.833 36.5 -34.5s34.833 -11.5 53.5 -11.5s36.334 4 53.001 12s28.334 19.333 35.001 34h64c-8.66699 -34 -27.667 -60.333 -57 -79c-26.667 -16.667 -58.334 -25 -95.001 -25s-68.334 8.33301 -95.001 25
c-29.333 18.667 -48.333 45 -57 79zM-334 966l-32 -30l-206 106l64 54z" />
    <glyph glyph-name="Eacute" unicode="&#xc9;" 
d="M-520 906h62c7.33301 -15.333 19.5 -26.833 36.5 -34.5s34.833 -11.5 53.5 -11.5s36.334 4 53.001 12s28.334 19.333 35.001 34h64c-8.66699 -34 -27.667 -60.333 -57 -79c-26.667 -16.667 -58.334 -25 -95.001 -25s-68.334 8.33301 -95.001 25
c-29.333 18.667 -48.333 45 -57 79zM-416 966l174 130l64 -54l-206 -106z" />
    <glyph glyph-name="Ecircumflex" unicode="&#xca;" 
d="M-520 906h62c7.33301 -15.333 19.5 -26.833 36.5 -34.5s34.833 -11.5 53.5 -11.5s36.334 4 53.001 12s28.334 19.333 35.001 34h64c-8.66699 -34 -27.667 -60.333 -57 -79c-26.667 -16.667 -58.334 -25 -95.001 -25s-68.334 8.33301 -95.001 25
c-29.333 18.667 -48.333 45 -57 79z" />
    <glyph glyph-name="Edieresis" unicode="&#xcb;" 
d="M-520 906h62c7.33301 -15.333 19.5 -26.833 36.5 -34.5s34.833 -11.5 53.5 -11.5s36.334 4 53.001 12s28.334 19.333 35.001 34h64c-8.66699 -34 -27.667 -60.333 -57 -79c-26.667 -16.667 -58.334 -25 -95.001 -25s-68.334 8.33301 -95.001 25
c-29.333 18.667 -48.333 45 -57 79zM-406 -192v126h74v-126h-74z" />
    <glyph glyph-name="Igrave" unicode="&#xcc;" horiz-adv-x="232" 
d="M76 0v740h74v-740h-74zM226 836l-32 -30l-206 106l64 54z" />
    <glyph glyph-name="Iacute" unicode="&#xcd;" horiz-adv-x="232" 
d="M76 0v740h74v-740h-74zM24 836l174 130l64 -54l-206 -106z" />
    <glyph glyph-name="Icircumflex" unicode="&#xce;" horiz-adv-x="740" 
d="M328 0v248l-310 492h98l256 -416l256 416h100l-312 -492v-248h-88zM334 -192v126h74v-126h-74z" />
    <glyph glyph-name="Idieresis" unicode="&#xcf;" 
d="M-406 -192v126h74v-126h-74z" />
    <glyph glyph-name="Eth" unicode="&#xd0;" horiz-adv-x="290" 
 />
    <glyph glyph-name="Ntilde" unicode="&#xd1;" horiz-adv-x="752" 
d="M196 68l96.001 -0.000976562c62 0 108.333 3 139 9c47.333 9.33301 89.666 29 126.999 59c76 59.333 114 138 114 236c0 96 -38 174 -114 234c-34 24.667 -70.167 41.834 -108.5 51.501s-81.5 14.5 -129.5 14.5h-124v-244h212v-70h-212v-290zM326.001 -0.000976562
l-203.998 -0.000976562v358h-48v70h48v312h200c59.333 0 110 -5.66699 152 -17c51.333 -14 97.5 -37.667 138.5 -71s73.5 -75.166 97.5 -125.499s36 -101.833 36 -154.5c0 -53.333 -10.333 -103.833 -31 -151.5s-50.834 -89.667 -90.501 -126
s-85.834 -61.833 -138.501 -76.5c-42.667 -12 -96 -18 -160 -18z" />
    <glyph glyph-name="Ograve" unicode="&#xd2;" horiz-adv-x="232" 
d="M76 0v740h74v-740h-74zM76 -192v126h74v-126h-74z" />
    <glyph glyph-name="Oacute" unicode="&#xd3;" horiz-adv-x="232" 
d="M76 0v740h74v-740h-74zM258 896l25.999 -40.002c-11.333 -11.333 -25.833 -22.5 -43.5 -33.5s-33.167 -16.5 -46.5 -16.5c-12.667 0 -23.5 1.5 -32.5 4.5s-22.167 8.83301 -39.5 17.5c-10.667 6.66699 -19.167 11.334 -25.5 14.001s-14.5 4 -24.5 4
c-10.667 0 -23.667 -3.16699 -39 -9.5s-25.666 -13.166 -30.999 -20.499l-32 40c13.333 14.667 29.5 27 48.5 37s37.5 15 55.5 15c16.667 0 33.334 -4 50.001 -12c39.333 -18.667 62.666 -28 69.999 -28c9.33301 0 19.5 2.5 30.5 7.5s22.167 11.833 33.5 20.5z" />
    <glyph glyph-name="Ocircumflex" unicode="&#xd4;" horiz-adv-x="740" 
d="M364 680c-81.333 0.666992 -150.667 -29.668 -208 -91.001s-86 -135.666 -86 -222.999c0 -84.667 29 -157.167 87 -217.5s127 -90.5 207 -90.5c79.333 0 147.833 30.5 205.5 91.5s86.5 135.167 86.5 222.5c0 84.667 -29.5 157.167 -88.5 217.5s-126.833 90.5 -203.5 90.5
zM645.999 688.998c10 10.667 16.8311 23.502 20.498 38.502s5.5 31.5 5.5 49.5h-80v74h132v-18c0 -6.66699 0.333008 -14 1 -22c0 -18 -1 -36.667 -3 -56c0 -21.333 -5.16699 -40.833 -15.5 -58.5s-25.166 -32.834 -44.499 -45.501
c-5.33301 -4.66699 -11.166 -8.83398 -17.499 -12.501s-12.5 -6.5 -18.5 -8.5c30 -34.667 53.5 -74 70.5 -118s25.5 -90.667 25.5 -140c0 -106.667 -35 -197.667 -105 -273s-155 -113 -255 -113c-96.667 0 -180.667 36.667 -252 110c-73.333 75.333 -110 165.333 -110 270
c0 108 35.333 199.333 106 274s156 112 256 112c44 0 86.667 -8.5 128 -25.5s78.333 -40.833 111 -71.5c3.33301 1.33301 11 6.33301 23 15s19.333 15 22 19z" />
    <glyph glyph-name="Otilde" unicode="&#xd5;" 
d="M-232 896l25.999 -40.002c-11.333 -11.333 -25.833 -22.5 -43.5 -33.5s-33.167 -16.5 -46.5 -16.5c-12.667 0 -23.5 1.5 -32.5 4.5s-22.167 8.83301 -39.5 17.5c-10.667 6.66699 -19.167 11.334 -25.5 14.001s-14.5 4 -24.5 4c-10.667 0 -23.667 -3.16699 -39 -9.5
s-25.666 -13.166 -30.999 -20.499l-32 40c13.333 14.667 29.5 27 48.5 37s37.5 15 55.5 15c16.667 0 33.334 -4 50.001 -12c39.333 -18.667 62.666 -28 69.999 -28c9.33301 0 19.5 2.5 30.5 7.5s22.167 11.833 33.5 20.5z" />
    <glyph glyph-name="Odieresis" unicode="&#xd6;" horiz-adv-x="740" 
d="M674 644l0.000976562 -353.998c0 -43.333 -4 -79.333 -12 -108c-10.667 -38 -29.334 -71.833 -56.001 -101.5s-60.5 -52.834 -101.5 -69.501s-85.167 -25 -132.5 -25c-44.667 0 -87 7.66699 -127 23s-73.833 37.333 -101.5 66s-47.167 62.667 -58.5 102
c-8.66699 30 -13 67.667 -13 113v450h88v-450c0 -31.333 2.66699 -59.5 8 -84.5s16 -48.167 32 -69.5c18.667 -24.667 43 -43.834 73 -57.501s63 -20.5 99 -20.5c32.667 0 63.667 6 93 18s52.333 28.667 69 50c19.333 21.333 33 47.333 41 78c6 24 9 52.667 9 86v450h90v-52
c10 2.66699 17 7 21 13c10 10.667 16.833 23.5 20.5 38.5s5.5 31.5 5.5 49.5h-80v74h128c0 -5.33301 0.333008 -15.333 1 -30s1 -24 1 -28v-23c-1.33301 -7.33301 -2 -12.333 -2 -15c0 -43.333 -19.333 -78 -58 -104c-10 -8 -22.333 -14.333 -37 -19z" />
    <glyph glyph-name="multiply" unicode="&#xd7;" horiz-adv-x="290" 
 />
    <glyph glyph-name="Oslash" unicode="&#xd8;" 
d="M-264 836l-32 -30l-206 106l64 54z" />
    <glyph glyph-name="Ugrave" unicode="&#xd9;" 
d="M-486 836l174 130l64 -54l-206 -106z" />
    <glyph glyph-name="Uacute" unicode="&#xda;" 
d="M-520 906h62c7.33301 -15.333 19.5 -26.833 36.5 -34.5s34.833 -11.5 53.5 -11.5s36.334 4 53.001 12s28.334 19.333 35.001 34h64c-8.66699 -34 -27.667 -60.333 -57 -79c-26.667 -16.667 -58.334 -25 -95.001 -25s-68.334 8.33301 -95.001 25
c-29.333 18.667 -48.333 45 -57 79zM-414 1075l-60.001 0.00195312l2 14c4 26 16.667 46.667 38 62c12.667 9.33301 26.834 16 42.501 20s32.167 6 49.5 6c37.333 0 66.833 -8.66699 88.5 -26s32.5 -40.333 32.5 -69c0 -27.333 -12.667 -51.333 -38 -72
c-6.66699 -4.66699 -16.667 -9.5 -30 -14.5s-22 -9.5 -26 -13.5c-6 -4 -10.333 -6.66699 -13 -8s-4.33398 -4 -5.00098 -8v-40h-53v37c0 12 2 22.333 6 31s10.333 16 19 22c14 9.33301 27 18.666 39 27.999s19.333 16.333 22 21l6.5 11.5c1.66699 3 2.5 6.83301 2.5 11.5
s-1.66699 10 -5 16c-0.666992 2 -3.5 5.66699 -8.5 11s-12 8.83301 -21 10.5s-18.833 2.5 -29.5 2.5c-10 -1.33301 -18.167 -2.83301 -24.5 -4.5s-12.166 -4.83398 -17.499 -9.50098c-2 -2 -4.16699 -6.33301 -6.5 -13l-7.5 -21z" />
    <glyph glyph-name="Ucircumflex" unicode="&#xdb;" 
d="M-422 950l-66.001 -0.00195312v8c0 27.333 11.333 49.333 34 66c12 8.66699 26.833 14.834 44.5 18.501s36.167 5.5 55.5 5.5c37.333 0 67 -8 89 -24s33 -38 33 -66c0 -27.333 -12.667 -51.333 -38 -72c-6.66699 -4.66699 -16.667 -9.5 -30 -14.5s-22 -9.5 -26 -13.5
c-6 -4 -10.333 -6.66699 -13 -8s-4.33398 -4 -5.00098 -8v-40h-56v38c0 8 0.166992 14.833 0.5 20.5s1.5 10.834 3.5 15.501s5.16699 8.5 9.5 11.5l12.5 8.5l42 26c11.333 8.66699 18.333 15.167 21 19.5s4.83398 8 6.50098 11s2.5 6.83301 2.5 11.5s-1.66699 10 -5 16
c-0.666992 2 -3.5 5.66699 -8.5 11s-12 8.83301 -21 10.5s-18.833 2.5 -29.5 2.5c-10 -1.33301 -18.167 -2.83301 -24.5 -4.5s-11.666 -4.5 -15.999 -8.5s-7.5 -8 -9.5 -12c-4 -8 -6 -15.667 -6 -23v-6z" />
    <glyph glyph-name="Udieresis" unicode="&#xdc;" 
d="M-520 906h62c7.33301 -15.333 19.5 -26.833 36.5 -34.5s34.833 -11.5 53.5 -11.5s36.334 4 53.001 12s28.334 19.333 35.001 34h64c-8.66699 -34 -27.667 -60.333 -57 -79c-26.667 -16.667 -58.334 -25 -95.001 -25s-68.334 8.33301 -95.001 25
c-29.333 18.667 -48.333 45 -57 79zM-162 1041l25.999 -40.002c-11.333 -11.333 -25.833 -22.5 -43.5 -33.5s-33.167 -16.5 -46.5 -16.5c-12.667 0 -23.5 1.5 -32.5 4.5s-22.167 8.83301 -39.5 17.5c-10.667 6.66699 -19.167 11.334 -25.5 14.001s-14.5 4 -24.5 4
c-10.667 0 -23.667 -3.16699 -39 -9.5s-25.666 -13.166 -30.999 -20.499l-32 40c13.333 14.667 29.5 27 48.5 37s37.5 15 55.5 15c16.667 0 33.334 -4 50.001 -12c39.333 -18.667 62.666 -28 69.999 -28c9.33301 0 19.5 2.5 30.5 7.5s22.167 11.833 33.5 20.5z" />
    <glyph glyph-name="Yacute" unicode="&#xdd;" horiz-adv-x="290" 
 />
    <glyph glyph-name="Thorn" unicode="&#xde;" horiz-adv-x="290" 
 />
    <glyph glyph-name="germandbls" unicode="&#xdf;" horiz-adv-x="290" 
 />
    <glyph glyph-name="agrave" unicode="&#xe0;" 
d="M-498 616l144 126h64l146 -126h-90l-88 72l-86 -72h-90zM-161 776l-32 -30l-206 106l64 54z" />
    <glyph glyph-name="aacute" unicode="&#xe1;" 
d="M-498 616l144 126h64l146 -126h-90l-88 72l-86 -72h-90zM-186 726l174 130l64 -54l-206 -106z" />
    <glyph glyph-name="acircumflex" unicode="&#xe2;" 
d="M-498 616l144 126h64l146 -126h-90l-88 72l-86 -72h-90z" />
    <glyph glyph-name="atilde" unicode="&#xe3;" 
d="M-498 616l144 126h64l146 -126h-90l-88 72l-86 -72h-90zM-182 876l25.999 -40.002c-11.333 -11.333 -25.833 -22.5 -43.5 -33.5s-33.167 -16.5 -46.5 -16.5c-12.667 0 -23.5 1.5 -32.5 4.5s-22.167 8.83301 -39.5 17.5c-10.667 6.66699 -19.167 11.334 -25.5 14.001
s-14.5 4 -24.5 4c-10.667 0 -23.667 -3.16699 -39 -9.5s-25.666 -13.166 -30.999 -20.499l-32 40c13.333 14.667 29.5 27 48.5 37s37.5 15 55.5 15c16.667 0 33.334 -4 50.001 -12c39.333 -18.667 62.666 -28 69.999 -28c9.33301 0 19.5 2.5 30.5 7.5
s22.167 11.833 33.5 20.5z" />
    <glyph glyph-name="adieresis" unicode="&#xe4;" 
d="M-361 -177v126h74v-126h-74zM-498 616l144 126h64l146 -126h-90l-88 72l-86 -72h-90z" />
    <glyph glyph-name="aring" unicode="&#xe5;" 
d="M-498 616l144 126h64l146 -126h-90l-88 72l-86 -72h-90zM-209 845l-60.001 0.00195312l2 14c4 26 16.667 46.667 38 62c12.667 9.33301 26.834 16 42.501 20s32.167 6 49.5 6c37.333 0 66.833 -8.66699 88.5 -26s32.5 -40.333 32.5 -69
c0 -27.333 -12.667 -51.333 -38 -72c-6.66699 -4.66699 -16.667 -9.5 -30 -14.5s-22 -9.5 -26 -13.5c-6 -4 -10.333 -6.66699 -13 -8s-4.33398 -4 -5.00098 -8v-40h-53v37c0 12 2 22.333 6 31s10.333 16 19 22c14 9.33301 27 18.666 39 27.999s19.333 16.333 22 21l6.5 11.5
c1.66699 3 2.5 6.83301 2.5 11.5s-1.66699 10 -5 16c-0.666992 2 -3.5 5.66699 -8.5 11s-12 8.83301 -21 10.5s-18.833 2.5 -29.5 2.5c-10 -1.33301 -18.167 -2.83301 -24.5 -4.5s-12.166 -4.83398 -17.499 -9.50098c-2 -2 -4.16699 -6.33301 -6.5 -13l-7.5 -21z" />
    <glyph glyph-name="ae" unicode="&#xe6;" horiz-adv-x="210" 
d="M64 0v548h74v-548h-74zM46 740h-60.002l2 14c4 26 16.667 46.667 38 62c12.667 9.33301 26.834 16 42.501 20s32.167 6 49.5 6c37.333 0 66.833 -8.66699 88.5 -26s32.5 -40.333 32.5 -69c0 -27.333 -12.667 -51.333 -38 -72c-6.66699 -4.66699 -16.667 -9.5 -30 -14.5
s-22 -9.5 -26 -13.5c-6 -4 -10.333 -6.66699 -13 -8s-4.33398 -4 -5.00098 -8v-40h-53v37c0 12 2 22.333 6 31s10.333 16 19 22l41 29c10.667 8.66699 17.334 15.334 20.001 20.001l6.5 11.5c1.66699 3 2.5 6.83301 2.5 11.5s-1.66699 10 -5 16
c-0.666992 2 -3.5 5.66699 -8.5 11s-12 8.83301 -21 10.5s-18.833 2.5 -29.5 2.5c-10 -1.33301 -18.167 -2.83301 -24.5 -4.5s-12.166 -4.83398 -17.499 -9.50098c-2 -2 -4.16699 -6.33301 -6.5 -13l-7.5 -21z" />
    <glyph glyph-name="ccedilla" unicode="&#xe7;" horiz-adv-x="290" 
 />
    <glyph glyph-name="egrave" unicode="&#xe8;" 
d="M-456 716l61.998 -0.000976562c7.33301 -15.333 19.5 -26.833 36.5 -34.5s34.833 -11.5 53.5 -11.5s36.334 4 53.001 12s28.334 19.333 35.001 34h64c-8.66699 -33.333 -27 -58.666 -55 -75.999s-60.333 -26 -97 -26c-37.333 0 -69 8 -95 24
c-29.333 18 -48.333 44 -57 78zM-264.002 775.999l-32 -30l-206 106l64 54z" />
    <glyph glyph-name="eacute" unicode="&#xe9;" 
d="M-456 716l61.998 -0.000976562c7.33301 -15.333 19.5 -26.833 36.5 -34.5s34.833 -11.5 53.5 -11.5s36.334 4 53.001 12s28.334 19.333 35.001 34h64c-8.66699 -33.333 -27 -58.666 -55 -75.999s-60.333 -26 -97 -26c-37.333 0 -69 8 -95 24
c-29.333 18 -48.333 44 -57 78zM-346.002 775.999l174 130l64 -54l-206 -106z" />
    <glyph glyph-name="ecircumflex" unicode="&#xea;" 
d="M-456 716l61.998 -0.000976562c7.33301 -15.333 19.5 -26.833 36.5 -34.5s34.833 -11.5 53.5 -11.5s36.334 4 53.001 12s28.334 19.333 35.001 34h64c-8.66699 -33.333 -27 -58.666 -55 -75.999s-60.333 -26 -97 -26c-37.333 0 -69 8 -95 24
c-29.333 18 -48.333 44 -57 78z" />
    <glyph glyph-name="edieresis" unicode="&#xeb;" 
d="M-456 716l61.998 -0.000976562c7.33301 -15.333 19.5 -26.833 36.5 -34.5s34.833 -11.5 53.5 -11.5s36.334 4 53.001 12s28.334 19.333 35.001 34h64c-8.66699 -33.333 -27 -58.666 -55 -75.999s-60.333 -26 -97 -26c-37.333 0 -69 8 -95 24
c-29.333 18 -48.333 44 -57 78zM-336.002 -172.001v126h74v-126h-74z" />
    <glyph glyph-name="igrave" unicode="&#xec;" horiz-adv-x="210" 
d="M64 0v548h74v-548h-74zM196 646l-32 -30l-206 106l64 54z" />
    <glyph glyph-name="iacute" unicode="&#xed;" horiz-adv-x="210" 
d="M64 0v548h74v-548h-74zM14 646l174 130l64 -54l-206 -106z" />
    <glyph glyph-name="icircumflex" unicode="&#xee;" horiz-adv-x="544" 
d="M448 548h80l-316 -740h-78l86 210l-210 530h78l176 -436zM364 -167v126h74v-126h-74z" />
    <glyph glyph-name="idieresis" unicode="&#xef;" 
d="M-346 -192v126h74v-126h-74z" />
    <glyph glyph-name="eth" unicode="&#xf0;" horiz-adv-x="290" 
 />
    <glyph glyph-name="ntilde" unicode="&#xf1;" horiz-adv-x="694" 
d="M622 610l-0.00195312 -609.999h-70v100c-54 -76 -127.333 -114 -220 -114c-40.667 0 -79.5 9 -116.5 27s-74.833 47 -113.5 87c-14 12.667 -27 35 -39 67c-14 36.667 -21 73 -21 109c0 80.667 28.833 148.167 86.5 202.5s126.834 81.5 207.501 81.5
c42.667 0 83.334 -9.33301 122.001 -28s68.667 -45.334 90 -80.001v158h-186v66h186v64h74v-64h40v-66h-40zM549.998 276.001c0 60.667 -21.166 111.167 -63.499 151.5s-93.833 60.5 -154.5 60.5c-58.667 0 -109.334 -20.667 -152.001 -62s-64 -91.333 -64 -150
c0 -60 21.333 -111.333 64 -154s94 -64 154 -64s111 21.333 153 64s63 94 63 154z" />
    <glyph glyph-name="ograve" unicode="&#xf2;" horiz-adv-x="210" 
d="M64 0v548h74v-548h-74zM64 614v126h74v-126h-74zM64 -192v126h74v-126h-74z" />
    <glyph glyph-name="oacute" unicode="&#xf3;" horiz-adv-x="210" 
d="M64 0v548h74v-548h-74zM228 716l25.999 -40.002c-11.333 -11.333 -25.833 -22.5 -43.5 -33.5s-33.167 -16.5 -46.5 -16.5c-12.667 0 -23.5 1.5 -32.5 4.5s-22.167 8.83301 -39.5 17.5c-10.667 6.66699 -19.167 11.334 -25.5 14.001s-14.5 4 -24.5 4
c-10.667 0 -23.667 -3.16699 -39 -9.5s-25.666 -13.166 -30.999 -20.499l-32 40c13.333 14.667 29.5 27 48.5 37s37.5 15 55.5 15c16.667 0 33.334 -4 50.001 -12c39.333 -18.667 62.666 -28 69.999 -28c9.33301 0 19.5 2.5 30.5 7.5s22.167 11.833 33.5 20.5z" />
    <glyph glyph-name="ocircumflex" unicode="&#xf4;" horiz-adv-x="660" 
d="M330 488c-60.667 0 -111.501 -21.166 -152.501 -63.499s-61.5 -93.833 -61.5 -154.5c0 -58 20.833 -107.833 62.5 -149.5s92.167 -62.5 151.5 -62.5c60 0 110 21.333 150 64s60 94.667 60 156c0 59.333 -21.167 109.166 -63.5 149.499s-91.166 60.5 -146.499 60.5z
M542.999 461.001c10 2.66699 17 6.99902 21 12.999c10 10.667 16.833 23.5 20.5 38.5s5.5 31.5 5.5 49.5h-70v82h117v-18c0 -6.66699 0.333008 -14 1 -22c0 -18 -1 -36.667 -3 -56c0 -22 -4.66699 -43.167 -14 -63.5s-23 -36.5 -41 -48.5l-12 -8
c30.667 -46.667 46 -96.667 46 -150c0 -78.667 -27.667 -147 -83 -205s-122.333 -87 -201 -87c-78 0 -145.5 27.833 -202.5 83.5s-85.5 122.5 -85.5 200.5c0 80 28 148.333 84 205s124 85 204 85c40.667 0 79.5 -8.66699 116.5 -26s69.167 -41.666 96.5 -72.999z" />
    <glyph glyph-name="otilde" unicode="&#xf5;" 
d="M-172 716l25.999 -40.002c-11.333 -11.333 -25.833 -22.5 -43.5 -33.5s-33.167 -16.5 -46.5 -16.5c-12.667 0 -23.5 1.5 -32.5 4.5s-22.167 8.83301 -39.5 17.5c-10.667 6.66699 -19.167 11.334 -25.5 14.001s-14.5 4 -24.5 4c-10.667 0 -23.667 -3.16699 -39 -9.5
s-25.666 -13.166 -30.999 -20.499l-32 40c13.333 14.667 29.5 27 48.5 37s37.5 15 55.5 15c16.667 0 33.334 -4 50.001 -12c39.333 -18.667 62.666 -28 69.999 -28c9.33301 0 19.5 2.5 30.5 7.5s22.167 11.833 33.5 20.5z" />
    <glyph glyph-name="odieresis" unicode="&#xf6;" horiz-adv-x="660" 
d="M586 451l0.000976562 -451h-76v86c-18 -33.333 -44.333 -58.333 -79 -75s-73.667 -25 -117 -25c-38 0 -73.5 7.66699 -106.5 23s-66.167 41 -99.5 77c-16 16 -26.667 37.833 -32 65.5s-8 63.167 -8 106.5v290h80v-290c0 -26 1.66699 -48.5 5 -67.5s10.333 -36.5 21 -52.5
c15.333 -25.333 36.5 -45 63.5 -59s56.5 -21 88.5 -21c60.667 0 108.667 22.667 144 68c13.333 16.667 22.666 36.334 27.999 59.001s8 47 8 73v290h80v-53c6.66699 2 12 5.66699 16 11c10 10.667 16.833 23.5 20.5 38.5s5.5 31.5 5.5 49.5h-76v78h114
c0 -5.33301 0.333008 -15.333 1 -30s1 -24 1 -28v-23c-1.33301 -7.33301 -2 -12.333 -2 -15c0 -24 -3.66699 -45 -11 -63s-19.666 -33 -36.999 -45c-10.667 -8.66699 -21.334 -14.334 -32.001 -17.001z" />
    <glyph glyph-name="divide" unicode="&#xf7;" horiz-adv-x="290" 
 />
    <glyph glyph-name="oslash" unicode="&#xf8;" 
d="M-214 646l-32 -30l-206 106l64 54z" />
    <glyph glyph-name="ugrave" unicode="&#xf9;" 
d="M-426 646l174 130l64 -54l-206 -106z" />
    <glyph glyph-name="uacute" unicode="&#xfa;" 
d="M-456 716l61.998 -0.000976562c7.33301 -15.333 19.5 -26.833 36.5 -34.5s34.833 -11.5 53.5 -11.5s36.334 4 53.001 12s28.334 19.333 35.001 34h64c-8.66699 -33.333 -27 -58.666 -55 -75.999s-60.333 -26 -97 -26c-37.333 0 -69 8 -95 24
c-29.333 18 -48.333 44 -57 78zM-349.002 874.999l-60.001 0.00195312l2 14c4 26 16.667 46.667 38 62c12.667 9.33301 26.834 16 42.501 20s32.167 6 49.5 6c37.333 0 66.833 -8.66699 88.5 -26s32.5 -40.333 32.5 -69c0 -27.333 -12.667 -51.333 -38 -72
c-6.66699 -4.66699 -16.667 -9.5 -30 -14.5s-22 -9.5 -26 -13.5c-6 -4 -10.333 -6.66699 -13 -8s-4.33398 -4 -5.00098 -8v-40h-53v37c0 12 2 22.333 6 31s10.333 16 19 22c14 9.33301 27 18.666 39 27.999s19.333 16.333 22 21l6.5 11.5c1.66699 3 2.5 6.83301 2.5 11.5
s-1.66699 10 -5 16c-0.666992 2 -3.5 5.66699 -8.5 11s-12 8.83301 -21 10.5s-18.833 2.5 -29.5 2.5c-10 -1.33301 -18.167 -2.83301 -24.5 -4.5s-12.166 -4.83398 -17.499 -9.50098c-2 -2 -4.16699 -6.33301 -6.5 -13l-7.5 -21z" />
    <glyph glyph-name="ucircumflex" unicode="&#xfb;" 
d="M-362 760l-66.001 -0.00195312v8c0 27.333 11.333 49.333 34 66c12 8.66699 26.833 14.834 44.5 18.501s36.167 5.5 55.5 5.5c37.333 0 67 -8 89 -24s33 -38 33 -66c0 -27.333 -12.667 -51.333 -38 -72c-6.66699 -4.66699 -16.667 -9.5 -30 -14.5s-22 -9.5 -26 -13.5
c-6 -4 -10.333 -6.66699 -13 -8s-4.33398 -4 -5.00098 -8v-40h-56v38c0 8 0.166992 14.833 0.5 20.5s1.5 10.834 3.5 15.501s5.16699 8.5 9.5 11.5l12.5 8.5l42 26c11.333 8.66699 18.333 15.167 21 19.5s4.83398 8 6.50098 11s2.5 6.83301 2.5 11.5s-1.66699 10 -5 16
c-0.666992 2 -3.5 5.66699 -8.5 11s-12 8.83301 -21 10.5s-18.833 2.5 -29.5 2.5c-10 -1.33301 -18.167 -2.83301 -24.5 -4.5s-11.666 -4.5 -15.999 -8.5s-7.5 -8 -9.5 -12c-4 -8 -6 -15.667 -6 -23v-6z" />
    <glyph glyph-name="udieresis" unicode="&#xfc;" 
d="M-456 716l61.998 -0.000976562c7.33301 -15.333 19.5 -26.833 36.5 -34.5s34.833 -11.5 53.5 -11.5s36.334 4 53.001 12s28.334 19.333 35.001 34h64c-8.66699 -33.333 -27 -58.666 -55 -75.999s-60.333 -26 -97 -26c-37.333 0 -69 8 -95 24
c-29.333 18 -48.333 44 -57 78zM-87.002 845.999l25.999 -40.002c-11.333 -11.333 -25.833 -22.5 -43.5 -33.5s-33.167 -16.5 -46.5 -16.5c-12.667 0 -23.5 1.5 -32.5 4.5s-22.167 8.83301 -39.5 17.5c-10.667 6.66699 -19.167 11.334 -25.5 14.001s-14.5 4 -24.5 4
c-10.667 0 -23.667 -3.16699 -39 -9.5s-25.666 -13.166 -30.999 -20.499l-32 40c13.333 14.667 29.5 27 48.5 37s37.5 15 55.5 15c16.667 0 33.334 -4 50.001 -12c39.333 -18.667 62.666 -28 69.999 -28c9.33301 0 19.5 2.5 30.5 7.5s22.167 11.833 33.5 20.5z" />
    <glyph glyph-name="yacute" unicode="&#xfd;" horiz-adv-x="290" 
 />
    <glyph glyph-name="thorn" unicode="&#xfe;" horiz-adv-x="290" 
 />
    <glyph glyph-name="ydieresis" unicode="&#xff;" horiz-adv-x="544" 
d="M448 548h80l-316 -740h-78l86 210l-210 530h78l176 -436zM364 -167v126h74v-126h-74z" />
    <glyph glyph-name="OE" unicode="&#x152;" 
d="M-422 950l-66.001 -0.00195312v8c0 27.333 11.333 49.333 34 66c12 8.66699 26.833 14.834 44.5 18.501s36.167 5.5 55.5 5.5c37.333 0 67 -8 89 -24s33 -38 33 -66c0 -27.333 -12.667 -51.333 -38 -72c-6.66699 -4.66699 -16.667 -9.5 -30 -14.5s-22 -9.5 -26 -13.5
c-6 -4 -10.333 -6.66699 -13 -8s-4.33398 -4 -5.00098 -8v-40h-56v38c0 8 0.166992 14.833 0.5 20.5s1.5 10.834 3.5 15.501s5.16699 8.5 9.5 11.5l12.5 8.5l42 26c11.333 8.66699 18.333 15.167 21 19.5s4.83398 8 6.50098 11s2.5 6.83301 2.5 11.5s-1.66699 10 -5 16
c-0.666992 2 -3.5 5.66699 -8.5 11s-12 8.83301 -21 10.5s-18.833 2.5 -29.5 2.5c-10 -1.33301 -18.167 -2.83301 -24.5 -4.5s-11.666 -4.5 -15.999 -8.5s-7.5 -8 -9.5 -12c-4 -8 -6 -15.667 -6 -23v-6z" />
    <glyph glyph-name="oe" unicode="&#x153;" 
d="M-362 760l-66.001 -0.00195312v8c0 27.333 11.333 49.333 34 66c12 8.66699 26.833 14.834 44.5 18.501s36.167 5.5 55.5 5.5c37.333 0 67 -8 89 -24s33 -38 33 -66c0 -27.333 -12.667 -51.333 -38 -72c-6.66699 -4.66699 -16.667 -9.5 -30 -14.5s-22 -9.5 -26 -13.5
c-6 -4 -10.333 -6.66699 -13 -8s-4.33398 -4 -5.00098 -8v-40h-56v38c0 8 0.166992 14.833 0.5 20.5s1.5 10.834 3.5 15.501s5.16699 8.5 9.5 11.5l12.5 8.5l42 26c11.333 8.66699 18.333 15.167 21 19.5s4.83398 8 6.50098 11s2.5 6.83301 2.5 11.5s-1.66699 10 -5 16
c-0.666992 2 -3.5 5.66699 -8.5 11s-12 8.83301 -21 10.5s-18.833 2.5 -29.5 2.5c-10 -1.33301 -18.167 -2.83301 -24.5 -4.5s-11.666 -4.5 -15.999 -8.5s-7.5 -8 -9.5 -12c-4 -8 -6 -15.667 -6 -23v-6z" />
    <glyph glyph-name="Scaron" unicode="&#x160;" horiz-adv-x="290" 
 />
    <glyph glyph-name="scaron" unicode="&#x161;" horiz-adv-x="290" 
 />
    <glyph glyph-name="Ydieresis" unicode="&#x178;" horiz-adv-x="740" 
d="M328 0v248l-310 492h98l256 -416l256 416h100l-312 -492v-248h-88zM334 -192v126h74v-126h-74z" />
    <glyph glyph-name="florin" unicode="&#x192;" horiz-adv-x="500" 
d="M10 -179l10.002 67.998c9.33301 -7.33301 24 -11 44 -11l27 3c9.33301 2 18.333 5.66699 27 11s18 25 28 59l20 94l60 363h-110v67h122c15.333 87.333 29.666 146 42.999 176c29.333 66 75 99 137 99c27.333 0 50.666 -3.66699 69.999 -11l-17 -77
c-13.333 14 -31 21 -53 21c-26 0 -46.333 -13.667 -61 -41c-3.33301 -6.66699 -6.5 -15.667 -9.5 -27l-13.5 -51l-17 -89h121v-67h-130l-52 -329c-8 -54 -19 -102 -33 -144c-18 -55.333 -38.667 -89.666 -62 -102.999c-4.66699 -2.66699 -10.5 -5.5 -17.5 -8.5
s-14.833 -5.66699 -23.5 -8s-16.5 -4.16602 -23.5 -5.49902s-14.833 -2 -23.5 -2c-22.667 0 -43.667 4.33301 -63 13z" />
    <glyph glyph-name="circumflex" unicode="&#x2c6;" horiz-adv-x="290" 
 />
    <glyph glyph-name="tilde" unicode="&#x2dc;" horiz-adv-x="290" 
 />
    <glyph glyph-name="endash" unicode="&#x2013;" horiz-adv-x="510" 
d="M0 334h500v-66h-500v66z" />
    <glyph glyph-name="emdash" unicode="&#x2014;" horiz-adv-x="1006" 
d="M0 334h1000v-66h-1000v66z" />
    <glyph glyph-name="quoteleft" unicode="&#x2018;" horiz-adv-x="360" 
d="M260 546h-74l-88 194h74z" />
    <glyph glyph-name="quoteright" unicode="&#x2019;" horiz-adv-x="360" 
d="M92 546l88 194h74l-88 -194h-74z" />
    <glyph glyph-name="quotesinglbase" unicode="&#x201a;" horiz-adv-x="833" 
d="M229 290h197v385h-14zM427 0v215h-233l-100 -215h-94l366 750h419v-75h-276v-248h257v-75h-257v-277h273v-75h-355z" />
    <glyph glyph-name="quotedblleft" unicode="&#x201c;" horiz-adv-x="510" 
d="M406 546h-74l-88 194h74zM258 546h-74l-88 194h74z" />
    <glyph glyph-name="quotedblright" unicode="&#x201d;" horiz-adv-x="486" 
d="M88 546l84 194h74l-88 -194h-70zM232 546l88 194h74l-88 -194h-74z" />
    <glyph glyph-name="quotedblbase" unicode="&#x201e;" horiz-adv-x="290" 
d="M1164 246l-491.998 -0.00488281l-2 -24c0 -45.333 17 -84 51 -116s75 -48 123 -48c39.333 0 79.166 11.167 119.499 33.5s71.166 51.166 92.499 86.499h78c-28 -56 -70.667 -102 -128 -138s-115.333 -54 -174 -54c-41.333 0 -78.833 8.83301 -112.5 26.5
s-60.834 42.834 -81.501 75.501l-18 -102h-70l18 102c-35.333 -34 -71.833 -59.5 -109.5 -76.5s-78.5 -25.5 -122.5 -25.5c-40 0 -75.833 6.16699 -107.5 18.5s-59.167 32.166 -82.5 59.499c-18 20.667 -32.5 45.334 -43.5 74.001s-16.5 57.334 -16.5 86.001
c0 6 0.833008 14.333 2.5 25s2.83398 18.334 3.50098 23.001c16.667 82.667 59.334 152 128.001 208c33.333 27.333 68.666 47.5 105.999 60.5s76.666 19.5 117.999 19.5c42 0 80.333 -9.16699 115 -27.5s60.334 -43.833 77.001 -76.5l20 104h70l-20 -104
c26.667 31.333 61.667 56.5 105 75.5s85 28.5 125 28.5c42.667 0 82 -9.66699 118 -29s64.667 -45.666 86 -78.999c21.333 -36.667 32 -78.667 32 -126c0 -11.333 -0.333008 -20.166 -1 -26.499s-3 -24.166 -7 -53.499zM686.002 313.995l412 0.000976562v12
c0 45.333 -16.833 83.666 -50.5 114.999s-74.167 47 -121.5 47c-60.667 0 -116.667 -22 -168 -66c-36 -30 -60 -66 -72 -108zM344.002 57.9961c61.333 0 117 20.668 167 62.001s80.333 92.666 91 153.999l4 42c0 50 -17.167 91.167 -51.5 123.5s-78.5 48.5 -132.5 48.5
c-61.333 0 -116.5 -21.167 -165.5 -63.5s-79.167 -94.5 -90.5 -156.5l-4 -38c0 -49.333 17.333 -90.333 52 -123s78 -49 130 -49z" />
    <glyph glyph-name="dagger" unicode="&#x2020;" horiz-adv-x="500" 
d="M210 -176v633h-170v70h170v223h80v-223h171v-70h-171v-633h-80z" />
    <glyph glyph-name="daggerdbl" unicode="&#x2021;" horiz-adv-x="500" 
d="M211 51h-172v70h171v328h-169v70h170v231h80v-231h171v-70h-171v-328h171v-70h-171v-227h-80v227z" />
    <glyph glyph-name="bullet" unicode="&#x2022;" horiz-adv-x="290" 
 />
    <glyph glyph-name="ellipsis" unicode="&#x2026;" horiz-adv-x="600" 
d="M172 0h-92v100h92v-100zM342 0h-92v100h92v-100zM512 0h-92v100h92v-100z" />
    <glyph glyph-name="perthousand" unicode="&#x2030;" horiz-adv-x="1111" 
d="M718 186c0 -69.333 -10.168 -117.667 -30.501 -145s-55.5 -41 -105.5 -41c-42 0 -74.833 14.5 -98.5 43.5s-35.5 77.5 -35.5 145.5c0 52.667 9.66699 93 29 121c23.333 34.667 60 52 110 52c46.667 0 81.334 -18.333 104.001 -55c18 -30 27 -70.333 27 -121z
M581.999 305.999c-28 0 -47.333 -16.332 -58 -48.999c-6 -20 -9 -49.333 -9 -88c0 -16.667 0.666992 -30.334 2 -41.001s4.33301 -21.334 9 -32.001c11.333 -26.667 30.333 -40 57 -40s45.667 13 57 39c7.33301 18.667 11 43.334 11 74.001c0 42 -2.66699 71 -8 87
c-10 33.333 -30.333 50 -61 50zM578.999 750l-341 -766h-53l339 766h55zM316.999 560c0 -68.667 -10.668 -116.167 -32.001 -142.5s-57 -39.5 -107 -39.5c-44 0 -76.333 13.333 -97 40c-22.667 30 -34 78.333 -34 145c0 52.667 9.66699 93 29 121
c23.333 34.667 60 52 110 52c46.667 0 81.334 -18.333 104.001 -55c18 -30 27 -70.333 27 -121zM180.998 680c-22 0 -39 -10.334 -51 -31.001c-10.667 -21.333 -16 -57.333 -16 -108c0 -31.333 3.66699 -54.666 11 -69.999c10 -24.667 29 -37 57 -37
c20.667 0 37.167 7.83301 49.5 23.5s18.5 43.5 18.5 83.5c0 42 -2.66699 71.333 -8 88c-10 34 -30.333 51 -61 51zM1071 185.999c0 -68 -10.1689 -116 -30.502 -144s-55.166 -42 -104.499 -42c-44 0 -77 14 -99 42c-24 30 -36 79 -36 147c0 52.667 9.66699 93 29 121
c23.333 34.667 60 52 110 52c46.667 0 81.334 -18.333 104.001 -55c18 -30 27 -70.333 27 -121zM934.996 305.999c-28 0 -47.333 -16.332 -58 -48.999c-6 -20 -9 -49.333 -9 -88c0 -16.667 0.666992 -30.334 2 -41.001s4.33301 -21.334 9 -32.001
c11.333 -26.667 30.333 -40 57 -40s45.667 13 57 39c7.33301 18.667 11 43.334 11 74.001c0 42 -2.66699 71 -8 87c-10 33.333 -30.333 50 -61 50z" />
    <glyph glyph-name="guilsinglleft" unicode="&#x2039;" horiz-adv-x="290" 
 />
    <glyph glyph-name="guilsinglright" unicode="&#x203a;" horiz-adv-x="342" 
d="M236 278l-150 -152v82l100 102l-100 102v84l150 -156v-62z" />
    <glyph glyph-name="trademark" unicode="&#x2122;" horiz-adv-x="750" 
d="M719 750v-421h-55v361l-120 -361h-32l-115 361l-2 -361h-55v421h89l99 -297l103 297h88zM280 750v-60h-109v-361h-61v361h-110v60h280z" />
    <glyph glyph-name="glyph1" horiz-adv-x="0" 
 />
    <glyph glyph-name="glyph2" horiz-adv-x="290" 
 />
    <glyph glyph-name="glyph98" horiz-adv-x="290" 
 />
    <glyph glyph-name="glyph99" horiz-adv-x="290" 
 />
    <glyph glyph-name="glyph111" horiz-adv-x="290" 
 />
    <glyph glyph-name="glyph112" horiz-adv-x="290" 
 />
    <glyph glyph-name="glyph113" horiz-adv-x="290" 
 />
    <glyph glyph-name="glyph114" horiz-adv-x="290" 
 />
    <glyph glyph-name="glyph127" horiz-adv-x="722" 
d="M674 274l-260.004 0.000976562l1 -55c0 -48.667 4 -84.667 12 -108c14 -39.333 41.333 -59 82 -59c32 0 55.333 14.667 70 44c7.33301 15.333 14 44.666 20 87.999h75c0 -48 -11.333 -90.333 -34 -127c-29.333 -48 -71.666 -72 -126.999 -72
c-63.333 0 -110.666 26.667 -141.999 80c-15.333 -24 -35.166 -43.333 -59.499 -58s-51.5 -22 -81.5 -22c-80 0 -134 33.333 -162 100c-18.667 45.333 -28 113.333 -28 204c0 94.667 15.333 165.334 46 212.001s76.334 70 137.001 70c32 0 61 -6.66699 87 -20
c26.667 -12 48 -31.333 64 -58c14 24 31.833 43 53.5 57s46.5 21 74.5 21c68 0 116.333 -28.333 145 -85c19.333 -38.667 29 -89.334 29 -152.001l-1 -38zM121.996 266.001c0 -62 4 -107 12 -135c15.333 -52.667 47 -79 95 -79c44 0 73 19.667 87 59
c11.333 32 17 90.333 17 175c0 41.333 -1.66699 75.5 -5 102.5s-9 49.167 -17 66.5c-14 32.667 -39.667 49 -77 49c-50 0 -83 -29.333 -99 -88c-8.66699 -34.667 -13 -84.667 -13 -150zM413.996 339.001l185 0.000976562v25c0 42.667 -4.33301 74 -13 94
c-13.333 30.667 -38.333 46 -75 46c-39.333 0 -67 -19.333 -83 -58c-9.33301 -24.667 -14 -60.334 -14 -107.001z" />
    <glyph glyph-name="glyph128" horiz-adv-x="290" 
 />
  </font>
</defs>
</svg>
