<?xml version="1.0" standalone="no"?>
<!DOCTYPE svg PUBLIC "-//W3C//DTD SVG 1.1//EN" "http://www.w3.org/Graphics/SVG/1.1/DTD/svg11.dtd" >
<svg xmlns="http://www.w3.org/2000/svg" xmlns:xlink="http://www.w3.org/1999/xlink" version="1.1">
<metadata>
Created by FontForge 20160407 at Thu Sep  8 04:29:25 2016
 By Jimmy Warting
Copyright by NGUYEN HONG HAI
</metadata>
<defs>
<font id="HP-AvoBold" horiz-adv-x="290" >
  <font-face 
    font-family="HP-Avo"
    font-weight="700"
    font-stretch="normal"
    units-per-em="1000"
    panose-1="2 11 8 3 5 3 2 2 2 4"
    ascent="800"
    descent="-200"
    x-height="554"
    cap-height="740"
    bbox="-562 -252 1004 1256"
    underline-thickness="0"
    underline-position="0"
    unicode-range="U+0020-2122"
  />
<missing-glyph horiz-adv-x="774" 
d="M48 0v774h678v-774h-678zM678 48v678h-582v-678h582z" />
    <glyph glyph-name=".notdef" horiz-adv-x="774" 
d="M48 0v774h678v-774h-678zM678 48v678h-582v-678h582z" />
    <glyph glyph-name="glyph1" horiz-adv-x="0" 
 />
    <glyph glyph-name="glyph2" 
 />
    <glyph glyph-name="space" unicode=" " 
 />
    <glyph glyph-name="exclam" unicode="!" 
d="M72 188v552h134v-552h-134zM72 0v128h134v-128h-134z" />
    <glyph glyph-name="quotedbl" unicode="&#x22;" horiz-adv-x="370" 
d="M74 514v226h76v-226h-76zM208 514v226h76v-226h-76z" />
    <glyph glyph-name="numbersign" unicode="#" horiz-adv-x="568" 
d="M500 332v-98h-102l-32 -234h-88l30 234h-84l-32 -234h-88l30 234h-100v98h114l14 92h-100v98h112l30 218h86l-28 -218h86l28 218h90l-30 -218h90v-98h-102l-12 -92h88zM334 424h-86l-12 -92h86z" />
    <glyph glyph-name="dollar" unicode="$" horiz-adv-x="568" 
d="M60 250h132q0 -36 25 -61t61 -25t61 25t25 61q0 31 -24 58q-10 12 -26.5 19t-37.5 13q-90 26 -133 66q-55 51 -55 136q0 79 50 132q18 21 37 34q24 16 47 16v132h124v-132q57 -22 91.5 -67t34.5 -103h-126q-5 27 -23 43.5t-45 16.5q-26 0 -45 -20t-19 -46q0 -38 30 -59
q17 -12 64 -27q65 -21 76 -26q20 -10 42 -28q35 -29 51.5 -69.5t16.5 -88.5q0 -45 -11.5 -77.5t-40.5 -64.5q-21 -22 -45.5 -38t-50.5 -22v-134h-124v134q-67 12 -114.5 67.5t-47.5 122.5v12z" />
    <glyph glyph-name="percent" unicode="%" horiz-adv-x="868" 
d="M224 0l306 740h102l-306 -740h-102zM202 754q74 0 126 -52t52 -128q0 -74 -52 -127t-126 -53q-75 0 -127.5 52.5t-52.5 127.5t52.5 127.5t127.5 52.5zM202 642q-30 0 -50 -19t-20 -49q0 -28 20 -49t48 -21q29 0 49.5 20.5t20.5 49.5t-19.5 48.5t-48.5 19.5zM656 342
q75 0 127.5 -52.5t52.5 -127.5t-52.5 -127.5t-127.5 -52.5q-74 0 -127 53t-53 127q0 75 52.5 127.5t127.5 52.5zM656 232q-31 0 -50.5 -18.5t-19.5 -47.5t20.5 -50.5t49.5 -21.5q28 0 48 21t20 51q0 29 -19.5 47.5t-48.5 18.5z" />
    <glyph glyph-name="ampersand" unicode="&#x26;" horiz-adv-x="684" 
d="M514 436h146l-126 -222l130 -142l-96 -86l-102 106q-36 -49 -79 -77q-51 -33 -105 -33q-100 0 -173 67t-73 167q0 74 38 128q32 46 100 84q-30 33 -44 61q-18 35 -18 73q0 81 53.5 136.5t134.5 55.5q78 0 134 -52t56 -130q0 -61 -30 -107t-86 -75l68 -76zM290 482
q34 15 50 30q24 22 24 52q0 60 -64 60q-26 0 -43 -16t-17 -42q0 -23 16 -46q9 -13 34 -38zM374 194l-116 128q-40 -17 -62 -41q-28 -30 -28 -71q0 -43 29.5 -70.5t72.5 -27.5q34 0 62 25q23 20 42 57z" />
    <glyph glyph-name="quotesingle" unicode="'" horiz-adv-x="232" 
d="M74 514v226h76v-226h-76z" />
    <glyph glyph-name="parenleft" unicode="(" horiz-adv-x="382" 
d="M350 12v-140q-55 8 -109 56q-43 38 -81 96q-86 132 -86 282q0 144 78 266q37 61 83 102q54 48 115 64v-138q-67 -51 -102.5 -130t-35.5 -166t35.5 -165.5t102.5 -126.5z" />
    <glyph glyph-name="parenright" unicode=")" horiz-adv-x="382" 
d="M38 600v138q58 -15 113 -64q46 -41 85 -102q76 -119 76 -266q0 -153 -82 -276q-36 -58 -81 -98q-55 -49 -111 -60v140q66 49 102 127.5t36 164.5q0 89 -35 166.5t-103 129.5z" />
    <glyph glyph-name="asterisk" unicode="*" horiz-adv-x="452" 
d="M178 456l-62 30l54 92l-100 -8v70l100 -6l-54 88l62 30l44 -90l46 92l58 -36l-54 -84l100 6v-70l-102 6l56 -84l-56 -36l-48 92z" />
    <glyph glyph-name="plus" unicode="+" horiz-adv-x="602" 
d="M246 380v190h116v-190h194v-116h-194v-198h-116v198h-194v116h194z" />
    <glyph glyph-name="comma" unicode="," 
d="M72 0v134h134v-128q0 -41 -6 -64.5t-30 -45.5q-18 -18 -42 -27t-48 -9h-6v66q28 5 41 16q17 14 17 40v18h-60z" />
    <glyph glyph-name="hyphen" unicode="-" horiz-adv-x="428" 
d="M74 260v118h278v-118h-278z" />
    <glyph glyph-name="period" unicode="." 
d="M72 0v134h134v-134h-134z" />
    <glyph glyph-name="slash" unicode="/" horiz-adv-x="464" 
d="M26 -128l324 868h94l-324 -868h-94z" />
    <glyph glyph-name="zero" unicode="0" horiz-adv-x="568" 
d="M526 494v-252q0 -55 -13 -98.5t-46 -80.5t-82.5 -59t-100.5 -22q-111 0 -186 72q-39 38 -53.5 84.5t-14.5 109.5v246q0 54 13 98t45.5 81.5t84 59t105.5 21.5q51 0 97.5 -18t82.5 -53.5t52 -84t16 -104.5zM164 492v-240q0 -32 5 -56.5t20.5 -43t39 -29.5t47.5 -11
q57 0 90 42q16 19 21 41.5t5 54.5v246q0 57 -30 92.5t-86 35.5q-52 0 -88 -42q-13 -19 -18.5 -41.5t-5.5 -48.5z" />
    <glyph glyph-name="one" unicode="1" horiz-adv-x="568" 
d="M246 0v614h-92v126h226v-740h-134z" />
    <glyph glyph-name="two" unicode="2" horiz-adv-x="568" 
d="M42 0v126l256 238q43 41 61 67q29 42 29 85q0 47 -29.5 77.5t-76.5 30.5q-53 0 -84.5 -36.5t-31.5 -89.5l2 -14h-134v28q0 99 70.5 170.5t169.5 71.5q105 0 175.5 -69.5t70.5 -174.5q0 -44 -14.5 -83t-43.5 -77l-92 -98l-142 -126h292v-126h-478z" />
    <glyph glyph-name="three" unicode="3" horiz-adv-x="568" 
d="M218 354v126h8q48 0 73 14q33 19 33 64q0 30 -20 48t-50 18q-27 0 -43.5 -18.5t-16.5 -45.5h-132l-2 2q0 78 58 135t136 57q83 0 143.5 -57.5t60.5 -140.5q0 -41 -15.5 -75.5t-48.5 -56.5q57 -20 88 -77q28 -52 28 -119q0 -107 -74.5 -176.5t-181.5 -69.5q-100 0 -173 70
t-73 168h134q0 -46 36 -77t84 -31t82 34t34 82q0 66 -52 102q-21 14 -46 19t-58 5h-12z" />
    <glyph glyph-name="four" unicode="4" horiz-adv-x="568" 
d="M0 220l340 520h112v-504h78v-126h-78v-110h-132v110h-320v110zM320 236v278l-178 -278h178z" />
    <glyph glyph-name="five" unicode="5" horiz-adv-x="568" 
d="M450 740v-126h-236l-22 -136q20 9 45.5 14.5t46.5 5.5q102 0 169 -77t67 -179q0 -107 -74.5 -183.5t-179.5 -76.5q-98 0 -176 71t-78 167h134q6 -46 37 -77t77 -31q55 0 90.5 35.5t35.5 90.5v8q0 50 -37 86t-87 36q-60 0 -98 -48l-118 32l70 388h334z" />
    <glyph glyph-name="six" unicode="6" horiz-adv-x="568" 
d="M286 740h158l-166 -252l38 4q43 0 81.5 -18t70.5 -52q66 -69 66 -176q0 -109 -73.5 -186.5t-182.5 -77.5t-182.5 76.5t-73.5 187.5q0 93 54 172zM276 368q-51 0 -86.5 -35.5t-35.5 -88.5q0 -55 34.5 -93.5t89.5 -38.5q51 0 86.5 37.5t35.5 88.5q0 53 -35.5 91.5
t-88.5 38.5z" />
    <glyph glyph-name="seven" unicode="7" horiz-adv-x="568" 
d="M86 0l276 614h-296v126h434v-126l-266 -614h-148z" />
    <glyph glyph-name="eight" unicode="8" horiz-adv-x="568" 
d="M140 412q-34 34 -47 62t-13 74q0 86 55 146t141 60q85 0 142.5 -59.5t57.5 -144.5q0 -45 -13.5 -77.5t-46.5 -60.5q55 -28 81.5 -76t26.5 -114q0 -98 -73 -169t-173 -71q-105 0 -175.5 71.5t-70.5 176.5q0 58 29 109.5t79 72.5zM280 624q-33 0 -56.5 -22.5t-23.5 -53.5
q0 -33 23.5 -55.5t56.5 -22.5q32 0 54 22t22 56q0 32 -22 54t-54 22zM278 340q-47 0 -80.5 -33.5t-33.5 -82.5q0 -47 33.5 -79.5t80.5 -32.5t79.5 32.5t32.5 79.5q0 50 -32 83t-80 33z" />
    <glyph glyph-name="nine" unicode="9" horiz-adv-x="568" 
d="M112 0l162 248h-24q-101 0 -164.5 69.5t-63.5 170.5q0 112 71 189t183 77q51 0 100.5 -21t86 -59t53 -83.5t16.5 -102.5q0 -53 -19 -101q-14 -34 -49 -91l-196 -296h-156zM274 624q-49 0 -83.5 -37.5t-34.5 -86.5q0 -55 33.5 -92.5t88.5 -37.5q52 0 87 38t35 90
q0 53 -36.5 89.5t-89.5 36.5z" />
    <glyph glyph-name="colon" unicode=":" 
d="M72 0v134h134v-134h-134zM72 370v132h134v-132h-134z" />
    <glyph glyph-name="semicolon" unicode=";" 
d="M72 0v134h134v-128q0 -41 -6 -64.5t-30 -45.5q-18 -18 -42 -27t-48 -9h-6v66q28 5 41 16q17 14 17 40v18h-60zM72 370v132h134v-132h-134z" />
    <glyph glyph-name="less" unicode="&#x3c;" horiz-adv-x="602" 
d="M558 154v-112l-508 226v98l508 228v-112l-362 -166z" />
    <glyph glyph-name="equal" unicode="=" horiz-adv-x="602" 
d="M556 474v-116h-504v116h504zM556 278v-114h-504v114h504z" />
    <glyph glyph-name="greater" unicode="&#x3e;" horiz-adv-x="602" 
d="M48 154l362 162l-362 166v112l510 -228v-98l-510 -226v112z" />
    <glyph glyph-name="question" unicode="?" horiz-adv-x="568" 
d="M166 522h-134q0 38 12.5 76.5t35.5 67.5q31 39 82.5 63.5t101.5 24.5q42 0 80.5 -16.5t71.5 -47.5q70 -70 70 -172q0 -51 -30 -97q-21 -31 -72 -77q-33 -28 -47 -51q-17 -28 -17 -65l2 -6v-34h-134v30q0 30 6.5 59.5t19.5 58t33 50.5q14 16 44.5 41t42.5 42q18 25 18 55
q0 44 -25 70t-69 26q-43 0 -67.5 -27.5t-24.5 -70.5zM188 0v128h134v-128h-134z" />
    <glyph glyph-name="at" unicode="@" horiz-adv-x="740" 
d="M608 142h94q-56 -76 -134 -118t-170 -42q-165 0 -279.5 109.5t-114.5 276.5q0 164 112 275t276 111q68 0 128.5 -21t113 -65.5t82.5 -101.5t30 -126q0 -62 -18.5 -113.5t-61.5 -94.5q-32 -33 -83.5 -60.5t-92.5 -27.5q-24 0 -42 13.5t-18 36.5l2 4q-42 -48 -104 -48
q-78 0 -122 50.5t-44 129.5q0 93 56 161q60 73 152 73q39 0 70.5 -14.5t53.5 -45.5l10 52h96l-50 -298l-2 -22q0 -14 16 -14q17 0 36 13.5t34 32.5q19 28 29.5 65.5t10.5 74.5q0 126 -78 198t-206 72q-136 0 -223 -87t-87 -223q0 -139 94 -226q91 -84 232 -84q55 0 105 22
t97 62zM284 346q0 -39 20 -64.5t58 -25.5q45 0 74.5 33.5t29.5 80.5q0 37 -23.5 61.5t-60.5 24.5q-41 0 -69.5 -34.5t-28.5 -75.5z" />
    <glyph glyph-name="A" unicode="A" horiz-adv-x="740" 
d="M8 0l308 740h106l312 -740h-152l-80 192h-262l-82 -192h-150zM290 324h158l-78 224z" />
    <glyph glyph-name="B" unicode="B" horiz-adv-x="590" 
d="M68 0v740h156q56 0 97.5 -5t78.5 -23q45 -24 74.5 -70t29.5 -96q0 -46 -21 -84.5t-61 -57.5q61 -19 93.5 -66t32.5 -112q0 -111 -90 -176q-39 -29 -97 -41q-45 -9 -107 -9h-186zM206 134h56q36 0 63 5t51 21q36 24 36 72q0 26 -12 44t-38 32q-14 8 -35.5 11t-42.5 3h-78
v-188zM206 456h26l22 -2q17 0 37 3t33 9q42 19 42 68q0 23 -12 39.5t-34 26.5q-7 3 -18.5 4.5t-25.5 1.5h-70v-150z" />
    <glyph glyph-name="C" unicode="C" horiz-adv-x="788" 
d="M598 202h158q-41 -99 -137 -159.5t-205 -60.5q-158 0 -271 115t-113 273t112 271t268 113q114 0 211.5 -61.5t138.5 -164.5h-156q-35 43 -86.5 67.5t-107.5 24.5q-100 0 -171 -75t-71 -179q0 -100 73 -175t171 -75q54 0 100 21.5t86 64.5z" />
    <glyph glyph-name="D" unicode="D" horiz-adv-x="706" 
d="M68 0v740h156q98 0 163 -15q86 -20 146 -70.5t93.5 -128.5t33.5 -160q0 -78 -33.5 -154t-93.5 -126.5t-144 -70.5q-64 -15 -163 -15h-158zM206 134h16q94 0 135 11.5t77 38.5q90 68 90 182q0 60 -25.5 111.5t-72.5 84.5q-42 28 -101 38q-37 6 -109 6h-10v-472z" />
    <glyph glyph-name="E" unicode="E" horiz-adv-x="672" 
d="M68 0v740h532v-134h-394v-170h394v-132h-394v-170h394v-134h-532z" />
    <glyph glyph-name="F" unicode="F" horiz-adv-x="486" 
d="M68 0v740h376v-134h-238v-170h228v-132h-228v-304h-138z" />
    <glyph glyph-name="G" unicode="G" horiz-adv-x="846" 
d="M782 522h-164q-32 46 -84.5 72t-109.5 26q-99 0 -172 -64q-38 -33 -61 -83.5t-23 -102.5q0 -46 18.5 -92t51.5 -80q79 -82 192 -82q65 0 125.5 36.5t90.5 95.5h-310v130h482v-16q0 -160 -116 -270t-276 -110q-162 0 -279 111t-117 273q0 163 116 275.5t278 112.5
q115 0 215.5 -63t142.5 -169z" />
    <glyph glyph-name="H" unicode="H" horiz-adv-x="684" 
d="M68 0v740h138v-296h264v296h136v-740h-136v310h-264v-310h-138z" />
    <glyph glyph-name="I" unicode="I" 
d="M68 0v740h138v-740h-138z" />
    <glyph glyph-name="J" unicode="J" horiz-adv-x="486" 
d="M278 740h136v-522q0 -64 -8.5 -93t-27.5 -57q-57 -86 -162 -86q-83 0 -143 52q-63 55 -63 136h136q13 -50 64 -50q39 0 55 27q13 21 13 63v530z" />
    <glyph glyph-name="K" unicode="K" horiz-adv-x="626" 
d="M68 0v740h138v-320l230 320h164l-280 -364l280 -376h-164l-230 324v-324h-138z" />
    <glyph glyph-name="L" unicode="L" horiz-adv-x="452" 
d="M68 0v740h138v-606h226v-134h-364z" />
    <glyph glyph-name="M" unicode="M" horiz-adv-x="902" 
d="M68 0v740h188l198 -566l200 566h186v-740h-136v554l-192 -554h-116l-190 554v-554h-138z" />
    <glyph glyph-name="N" unicode="N" horiz-adv-x="740" 
d="M68 0v740h154l308 -540v540h138v-740h-152l-310 538v-538h-138z" />
    <glyph glyph-name="O" unicode="O" horiz-adv-x="740" 
d="M370 756q143 0 244.5 -113.5t101.5 -274.5q0 -160 -102 -272t-244 -112q-143 0 -245.5 111.5t-102.5 272.5q0 162 101 275t247 113zM370 622q-94 0 -159 -73t-65 -177q0 -105 65.5 -179.5t158.5 -74.5q90 0 157 75t67 179t-65 177t-159 73z" />
    <glyph glyph-name="P" unicode="P" horiz-adv-x="568" 
d="M206 0h-138v740h192q64 0 103.5 -6.5t81.5 -34.5t68.5 -78.5t26.5 -106.5q0 -55 -22 -104t-66 -84q-34 -29 -89 -40q-39 -8 -101 -8l-30 2h-26v-280zM206 414h24l30 -2q39 0 73 9.5t52.5 34t18.5 56.5q0 71 -72 88q-30 6 -70 6h-56v-192z" />
    <glyph glyph-name="Q" unicode="Q" horiz-adv-x="846" 
d="M828 106v-124h-18q-96 0 -174 56q-42 -26 -100 -41t-112 -15q-161 0 -276 110q-118 113 -118 274q0 165 110 272q56 56 128 86t152 30q163 0 279.5 -111.5t116.5 -276.5q0 -137 -88 -240q37 -20 78 -20h22zM522 140q-62 44 -113 67q-65 29 -127 29q-21 0 -36 -2t-32 -10
q39 -55 96 -81.5t128 -26.5q26 0 53 10q5 2 31 14zM168 374l2 -40q48 14 104 14q108 0 214 -56q35 -18 51 -28q44 -27 79 -60q31 31 45.5 71.5t14.5 88.5q0 106 -74 181t-180 75q-52 0 -99 -20t-85 -58q-33 -33 -52.5 -77t-19.5 -91z" />
    <glyph glyph-name="R" unicode="R" horiz-adv-x="590" 
d="M68 0v740h214q65 0 108.5 -9.5t83.5 -42t63 -82t23 -100.5q0 -42 -16.5 -87t-43 -73.5t-60 -46t-72.5 -25.5l200 -274h-168l-194 284v-284h-138zM206 388h74q46 0 69.5 7.5t40.5 22.5q34 34 34 80q0 53 -40 84q-35 24 -84 24h-94v-218z" />
    <glyph glyph-name="S" unicode="S" horiz-adv-x="522" 
d="M14 208h144q0 -43 29 -67.5t73 -24.5q40 0 68 26t28 66q0 54 -41 86q-25 19 -87 40q-50 16 -69 25q-33 16 -59 43q-58 58 -58 142q0 89 63.5 149.5t154.5 60.5q87 0 151.5 -61.5t64.5 -148.5h-142q0 33 -24.5 54.5t-57.5 21.5q-34 0 -54 -22t-20 -56q0 -36 30 -59
q19 -15 64 -31q66 -23 76 -27q39 -16 68 -41q78 -63 78 -168q0 -98 -71 -166t-169 -68q-96 0 -168 66t-72 160z" />
    <glyph glyph-name="T" unicode="T" horiz-adv-x="428" 
d="M144 0v606h-136v134h410v-134h-138v-606h-136z" />
    <glyph glyph-name="U" unicode="U" horiz-adv-x="740" 
d="M84 740h138v-462q0 -54 26 -100q18 -28 52.5 -45t73.5 -17q29 0 61 18.5t51.5 45t28.5 49t9 49.5v462h138v-462q0 -64 -11 -105q-15 -55 -55 -96.5t-99.5 -68t-122.5 -26.5q-61 0 -119.5 24.5t-100.5 66t-58 96.5q-12 42 -12 109v462z" />
    <glyph glyph-name="V" unicode="V" horiz-adv-x="706" 
d="M296 0l-288 740h144l200 -562l198 562h144l-286 -740h-112z" />
    <glyph glyph-name="W" unicode="W" horiz-adv-x="902" 
d="M222 0l-214 740h140l128 -518l128 518h100l124 -518l130 518h140l-214 -740h-110l-120 490l-122 -490h-110z" />
    <glyph glyph-name="X" unicode="X" horiz-adv-x="684" 
d="M6 0l254 368l-254 372h160l174 -254l176 254h160l-256 -372l256 -368h-160l-176 252l-174 -252h-160z" />
    <glyph glyph-name="Y" unicode="Y" horiz-adv-x="740" 
d="M296 0v254l-242 486h154l160 -320l158 320h150l-242 -486v-254h-138z" />
    <glyph glyph-name="Z" unicode="Z" horiz-adv-x="510" 
d="M18 118l282 488h-266v134h428v-124l-280 -482h298v-134h-462v118z" />
    <glyph glyph-name="bracketleft" unicode="[" horiz-adv-x="324" 
d="M292 740v-144q-50 -16 -68 -76q-12 -40 -12 -110v-226q0 -82 22 -121q19 -34 58 -47v-144q-46 0 -91 32q-38 27 -71 73.5t-44.5 101.5t-11.5 127v232q0 64 12.5 111t47 90.5t69.5 68.5q45 32 89 32z" />
    <glyph glyph-name="backslash" unicode="\" horiz-adv-x="648" 
d="M400 0l-316 740h104l316 -740h-104z" />
    <glyph glyph-name="bracketright" unicode="]" horiz-adv-x="324" 
d="M256 438v-232q0 -71 -10 -119q-13 -63 -45.5 -109t-70.5 -73q-47 -33 -92 -33v144q48 16 67 68q13 36 13 100v226q0 72 -11 109q-18 61 -69 77v144q44 0 89 -32q35 -24 69.5 -68t48.5 -95q11 -41 11 -107z" />
    <glyph glyph-name="asciicircum" unicode="^" horiz-adv-x="602" 
d="M168 316l-104 46l180 378h120l180 -378l-104 -46l-136 278z" />
    <glyph glyph-name="underscore" unicode="_" horiz-adv-x="510" 
d="M500 -138h-500v90h500v-90z" />
    <glyph glyph-name="grave" unicode="`" horiz-adv-x="428" 
d="M74 738l58 102l222 -134l-54 -92z" />
    <glyph glyph-name="a" unicode="a" horiz-adv-x="672" 
d="M616 554v-554h-122v76q-31 -43 -83 -68.5t-107 -25.5q-63 0 -115 24.5t-89 69.5q-70 83 -70 202q0 60 16.5 107t55.5 91q81 96 206 96q118 0 186 -96v78h122zM490 278q0 69 -45.5 116.5t-112.5 47.5h-6q-70 0 -116 -49t-46 -121q0 -67 47.5 -113.5t116.5 -46.5
q72 0 117 47t45 119z" />
    <glyph glyph-name="b" unicode="b" horiz-adv-x="672" 
d="M54 0v740h134v-244q26 38 74 57t98 19q120 0 199 -86.5t79 -207.5v-8q0 -50 -19 -103t-51 -91q-37 -44 -91.5 -69t-112.5 -25q-60 0 -108 23t-80 71v-76h-122zM346 442q-68 0 -117 -45t-49 -113q0 -74 46 -123t120 -49q70 0 115 47t45 117t-45 118t-115 48z" />
    <glyph glyph-name="c" unicode="c" horiz-adv-x="648" 
d="M452 180h150q-27 -88 -105 -143t-171 -55q-56 0 -110.5 22t-97 62.5t-65.5 97t-23 118.5q0 121 86.5 205.5t209.5 84.5q93 0 172 -56.5t104 -145.5h-150q-22 37 -53 54.5t-75 17.5q-72 0 -116 -46t-44 -116q0 -73 46.5 -120.5t119.5 -47.5q37 0 69.5 18.5t52.5 49.5z" />
    <glyph glyph-name="d" unicode="d" horiz-adv-x="672" 
d="M614 740v-740h-122v76q-31 -45 -80.5 -69.5t-105.5 -24.5q-60 0 -111 25t-89 69q-76 86 -76 200q0 117 76 202q38 43 92.5 68.5t111.5 25.5q48 0 93.5 -19.5t76.5 -54.5v242h134zM490 278q0 68 -49 116t-117 48q-64 0 -112 -48t-48 -112q0 -70 46 -120t116 -50
q68 0 116 49t48 117z" />
    <glyph glyph-name="e" unicode="e" horiz-adv-x="648" 
d="M602 218h-430q15 -48 55 -77t91 -29q38 0 70.5 13t53.5 35h146q-26 -75 -101.5 -126.5t-164.5 -51.5q-120 0 -206 85t-86 207q0 124 85 211t209 87q117 0 200.5 -86.5t83.5 -203.5q0 -14 -2 -31t-4 -33zM170 336h304q-17 50 -57 78t-93 28q-50 0 -94.5 -29.5t-59.5 -76.5
z" />
    <glyph glyph-name="f" unicode="f" 
d="M58 0v436h-48v118h48q0 83 49.5 141.5t130.5 58.5l36 -2v-132q-47 0 -62 -9q-22 -13 -22 -57h78v-118h-78v-436h-132z" />
    <glyph glyph-name="g" unicode="g" horiz-adv-x="672" 
d="M490 554h122v-470q0 -69 -17 -119t-60.5 -94.5t-102 -70.5t-118.5 -26q-89 0 -167 51t-109 133h152q23 -25 56.5 -39.5t67.5 -14.5q35 0 67 11.5t58 36t37 56.5q6 17 14 70q-37 -47 -79.5 -71.5t-98.5 -24.5q-51 0 -106 24.5t-94 64.5t-60.5 97t-21.5 118q0 54 19 102.5
t55 89.5q40 45 94 69.5t116 24.5q56 0 103 -24t73 -70v76zM486 276q0 71 -47.5 118.5t-118.5 47.5q-67 0 -112 -48q-23 -23 -33.5 -51t-10.5 -63q0 -72 47 -120t119 -48q66 0 111 48.5t45 115.5z" />
    <glyph glyph-name="h" unicode="h" horiz-adv-x="602" 
d="M54 0v740h134v-228q21 30 60 45t82 15q46 0 89.5 -19.5t72.5 -54.5q34 -38 46 -93q8 -38 8 -105v-300h-134v272q0 79 -17 116q-25 54 -95 54q-59 0 -92 -48q-13 -20 -17.5 -46t-4.5 -60l2 -18v-270h-134z" />
    <glyph glyph-name="i" unicode="i" horiz-adv-x="244" 
d="M54 0v554h134v-554h-134zM54 618v122h134v-122h-134z" />
    <glyph glyph-name="j" unicode="j" horiz-adv-x="266" 
d="M72 554h134v-520q0 -50 -11 -89.5t-41 -72.5q-24 -27 -61 -42.5t-75 -15.5v130q34 0 46 20q8 14 8 50v540zM72 618v122h134v-122h-134z" />
    <glyph glyph-name="k" unicode="k" horiz-adv-x="590" 
d="M54 0v740h134v-446l178 260h156l-200 -270l234 -284h-178l-190 260v-260h-134z" />
    <glyph glyph-name="l" unicode="l" horiz-adv-x="244" 
d="M54 0v740h134v-740h-134z" />
    <glyph glyph-name="m" unicode="m" horiz-adv-x="950" 
d="M54 0v554h122v-50q18 35 59 51.5t87 16.5q95 0 148 -68l14 -18q7 13 14 18q27 33 70.5 50.5t91.5 17.5q51 0 93.5 -16t76 -53t46.5 -89q10 -40 10 -102v-312h-134v296v13q0 30 -4 53t-16 40q-25 40 -82 40q-62 0 -92 -48q-13 -20 -18.5 -51.5t-5.5 -62.5l2 -16v-264h-132
v296q0 39 -3 59t-17.5 41.5t-38.5 33.5t-49 12q-70 0 -94 -59q-14 -35 -14 -119v-264h-134z" />
    <glyph glyph-name="n" unicode="n" horiz-adv-x="602" 
d="M54 0v554h124v-50q24 33 65.5 50.5t86.5 17.5q44 0 85.5 -18t72.5 -50l14 -16q29 -39 38 -96q6 -37 6 -104v-288h-132v262q0 45 -4 77.5t-18.5 55t-39 35t-50.5 12.5q-29 0 -53.5 -12t-38 -34.5t-19 -57t-5.5 -68.5l2 -18v-252h-134z" />
    <glyph glyph-name="o" unicode="o" horiz-adv-x="648" 
d="M330 572q121 0 205.5 -86.5t84.5 -209.5q0 -122 -87 -208t-209 -86q-120 0 -207 87t-87 207q0 124 87 210t213 86zM324 442q-32 0 -61.5 -13t-52.5 -37q-46 -46 -46 -116q0 -68 46 -116t114 -48q70 0 116 47t46 117q0 69 -46.5 117.5t-115.5 48.5z" />
    <glyph glyph-name="p" unicode="p" horiz-adv-x="672" 
d="M54 -186v740h122v-72q64 90 180 90q62 0 110.5 -21.5t91.5 -68.5q76 -79 76 -204q0 -121 -79.5 -208.5t-198.5 -87.5q-54 0 -94 18t-74 60v-246h-134zM342 442q-69 0 -115.5 -47.5t-46.5 -116.5q0 -38 12.5 -69t39.5 -55q22 -19 50 -30.5t56 -11.5q70 0 117 48t47 118
q0 67 -46.5 115.5t-113.5 48.5z" />
    <glyph glyph-name="q" unicode="q" horiz-adv-x="672" 
d="M490 554h122v-740h-134v246q-63 -78 -168 -78q-120 0 -200 90t-80 210q0 56 21.5 107.5t60 93.5t89 65.5t107.5 23.5q58 0 105 -22t77 -68v72zM328 442q-70 0 -117 -46t-47 -116q0 -73 45.5 -120.5t118.5 -47.5q67 0 112.5 49t45.5 117q0 65 -46.5 114.5t-111.5 49.5z
" />
    <glyph glyph-name="r" unicode="r" horiz-adv-x="324" 
d="M54 0v554h122v-50q43 68 120 68h10v-128q-44 0 -80 -26q-22 -18 -31 -42.5t-9 -55.5l2 -20v-300h-134z" />
    <glyph glyph-name="s" unicode="s" horiz-adv-x="452" 
d="M406 402h-130q-3 20 -16.5 30t-35.5 10t-37 -12t-15 -34q0 -24 27 -38q9 -5 49 -16q108 -34 140 -71.5t32 -96.5q0 -81 -56 -134q-28 -26 -66.5 -42t-77.5 -16q-85 0 -142.5 53.5t-57.5 138.5h136q5 -27 23 -44.5t47 -17.5q26 0 44 14t18 40q0 35 -49 56q-2 1 -45 16
q-36 10 -53 18q-23 11 -47 30q-54 45 -54 116q0 74 55 122t131 48q70 0 125 -50t55 -120z" />
    <glyph glyph-name="t" unicode="t" horiz-adv-x="302" 
d="M74 0v436h-64v118h64v186h134v-186h80v-118h-80v-436h-134z" />
    <glyph glyph-name="u" unicode="u" horiz-adv-x="602" 
d="M414 554h134v-554h-122v60q-22 -39 -59 -58.5t-85 -19.5q-105 0 -174 78q-34 36 -46 83q-8 33 -8 99v312h134v-272q0 -36 3 -63.5t13 -48.5q29 -58 96 -58t94 55q20 41 20 115v272z" />
    <glyph glyph-name="v" unicode="v" horiz-adv-x="568" 
d="M226 0l-224 554h148l128 -364l128 364h148l-224 -554h-104z" />
    <glyph glyph-name="w" unicode="w" horiz-adv-x="810" 
d="M210 0l-200 554h142l102 -338l92 338h104l92 -338l102 338h142l-202 -554h-82l-104 360l-106 -360h-82z" />
    <glyph glyph-name="x" unicode="x" horiz-adv-x="568" 
d="M2 0l196 286l-172 268h154l98 -152l94 152h154l-170 -268l198 -286h-164l-112 180l-112 -180h-164z" />
    <glyph glyph-name="y" unicode="y" horiz-adv-x="590" 
d="M108 -186l102 238l-204 502h152l126 -354l134 354h150l-318 -740h-142z" />
    <glyph glyph-name="z" unicode="z" horiz-adv-x="464" 
d="M20 0v118l246 318h-218v118h378v-118l-246 -318h262v-118h-422z" />
    <glyph glyph-name="braceleft" unicode="{" horiz-adv-x="348" 
d="M222 180v-192q0 -50 17 -75.5t63 -40.5h-32q-34 0 -57.5 4.5t-49.5 21.5t-34.5 43.5t-8.5 66.5v190q0 30 -3 43.5t-19 32.5q-25 28 -60 34q14 3 28.5 9.5t23.5 14.5q20 16 25 35t5 53v168q0 44 4.5 69.5t25 45.5t51.5 27.5t65 7.5h36q-43 -12 -61.5 -39.5t-18.5 -74.5
v-178q0 -61 -15 -89q-20 -36 -75 -49q53 -11 73 -43q17 -27 17 -85z" />
    <glyph glyph-name="bar" unicode="|" horiz-adv-x="602" 
d="M244 0v740h118v-740h-118z" />
    <glyph glyph-name="braceright" unicode="}" horiz-adv-x="348" 
d="M118 446v178q0 47 -18 74.5t-62 39.5h34q39 0 68.5 -7t49.5 -27t26 -48.5t6 -67.5v-168q0 -36 4.5 -53.5t25.5 -35t52 -23.5q-35 -6 -60 -34q-15 -17 -18.5 -33t-3.5 -43v-190q0 -42 -6 -62q-9 -29 -36 -48q-24 -15 -51.5 -20.5t-60.5 -5.5h-30q47 15 63.5 40.5
t16.5 75.5v192q0 56 18.5 86.5t71.5 41.5q-54 13 -74 48q-16 29 -16 90z" />
    <glyph glyph-name="asciitilde" unicode="~" horiz-adv-x="602" 
d="M492 422l64 -74q-36 -57 -57 -78q-38 -38 -87 -38q-24 0 -47 7q-10 3 -45 17l-40 16q-16 7 -27 12q-33 14 -51 14q-35 0 -62 -41q-17 -29 -24 -41l-64 74q29 54 58 83q41 41 90 41q40 0 115 -33t95 -33q27 0 49 25q1 2 33 49z" />
    <glyph glyph-name="glyph98" 
 />
    <glyph glyph-name="glyph99" 
 />
    <glyph glyph-name="quotesinglbase" unicode="&#x201a;" 
 />
    <glyph glyph-name="florin" unicode="&#x192;" 
 />
    <glyph glyph-name="quotedblbase" unicode="&#x201e;" 
 />
    <glyph glyph-name="ellipsis" unicode="&#x2026;" 
 />
    <glyph glyph-name="dagger" unicode="&#x2020;" 
 />
    <glyph glyph-name="daggerdbl" unicode="&#x2021;" 
 />
    <glyph glyph-name="circumflex" unicode="&#x2c6;" 
 />
    <glyph glyph-name="perthousand" unicode="&#x2030;" 
 />
    <glyph glyph-name="Scaron" unicode="&#x160;" 
 />
    <glyph glyph-name="guilsinglleft" unicode="&#x2039;" 
 />
    <glyph glyph-name="OE" unicode="&#x152;" horiz-adv-x="40" 
d="M-412 960h-90v12q0 17 6 32q7 12 11.5 18t18.5 20q20 19 47.5 26.5t64.5 7.5q57 0 100 -30q22 -17 31 -32.5t9 -37.5q0 -53 -58 -92q-20 -10 -40 -19q-20 -12 -20 -27v-32h-78v64l2 14q8 11 17 16q22 11 23 12q23 12 39 25q21 18 21 33q0 22 -11.5 34t-38.5 12
q-28 0 -46 -18q-4 -6 -6 -15.5t-2 -16.5v-6z" />
    <glyph glyph-name="glyph111" 
 />
    <glyph glyph-name="glyph112" 
 />
    <glyph glyph-name="glyph113" 
 />
    <glyph glyph-name="glyph114" 
 />
    <glyph glyph-name="quoteleft" unicode="&#x2018;" 
d="M206 614v-134h-134v128q0 40 6 63t30 47q39 36 88 36h8v-68q-26 -3 -42 -17t-16 -39v-16h60z" />
    <glyph glyph-name="quoteright" unicode="&#x2019;" 
d="M72 606v134h134v-130q0 -39 -6 -61.5t-30 -46.5q-18 -16 -42.5 -27t-47.5 -11l-6 2v68q27 3 42.5 16t15.5 40v16h-60z" />
    <glyph glyph-name="quotedblleft" unicode="&#x201c;" horiz-adv-x="486" 
d="M204 614v-134h-134v128q0 40 6 63t30 47q39 36 88 36h8v-68q-26 -3 -42 -17t-16 -39v-16h60zM410 614v-134h-132v128q0 43 5.5 64.5t30.5 45.5q36 36 86 36h8v-68q-26 -3 -41 -16.5t-15 -39.5v-16h58z" />
    <glyph glyph-name="quotedblright" unicode="&#x201d;" horiz-adv-x="486" 
d="M70 606v134h134v-130q0 -39 -6 -61.5t-30 -46.5q-18 -16 -42.5 -27t-47.5 -11l-6 2v68q27 3 42.5 16t15.5 40v16h-60zM278 606v134h132v-130q0 -39 -6 -61.5t-30 -46.5q-16 -16 -41 -27t-49 -11l-6 2v68q28 3 43 15.5t15 40.5v16h-58z" />
    <glyph glyph-name="bullet" unicode="&#x2022;" 
 />
    <glyph glyph-name="endash" unicode="&#x2013;" horiz-adv-x="510" 
d="M0 260v118h500v-118h-500z" />
    <glyph glyph-name="emdash" unicode="&#x2014;" horiz-adv-x="1006" 
d="M0 260v118h1000v-118h-1000z" />
    <glyph glyph-name="tilde" unicode="&#x2dc;" 
 />
    <glyph glyph-name="trademark" unicode="&#x2122;" 
 />
    <glyph glyph-name="scaron" unicode="&#x161;" horiz-adv-x="568" 
d="M472 318q0 -69 -49.5 -118.5t-120.5 -49.5q-69 0 -118.5 49.5t-49.5 118.5q0 70 49 119t119 49q71 0 120.5 -48.5t49.5 -119.5z" />
    <glyph glyph-name="guilsinglright" unicode="&#x203a;" horiz-adv-x="1065" 
d="M1004 0h-354v82q-37 -44 -106 -70t-132 -26q-156 0 -265 113t-109 271q0 159 107.5 271.5t266.5 112.5q64 0 132.5 -26.5t105.5 -71.5v84h354v-134h-218v-170h208v-132h-208v-170h218v-134zM416 618q-106 0 -173 -73t-67 -179q0 -101 69.5 -172.5t170.5 -71.5
q100 0 169 72t69 172q0 102 -68 177t-170 75z" />
    <glyph glyph-name="oe" unicode="&#x153;" horiz-adv-x="40" 
d="M-342 780h-90v12q0 17 6 32q7 12 11.5 18t18.5 20q20 19 47.5 26.5t64.5 7.5q57 0 100 -30q22 -17 31 -32.5t9 -37.5q0 -53 -58 -92q-20 -10 -40 -19q-20 -12 -20 -27v-32h-78v64l2 14q8 11 17 16q22 11 23 12q23 12 39 25q21 18 21 33q0 22 -11.5 34t-38.5 12
q-28 0 -46 -18q-4 -6 -6 -15.5t-2 -16.5v-6z" />
    <glyph glyph-name="glyph127" 
 />
    <glyph glyph-name="glyph128" horiz-adv-x="568" 
d="M374 -18q-161 0 -273.5 112.5t-112.5 273.5t112.5 273.5t273.5 112.5q159 0 272.5 -112.5t113.5 -273.5q0 -160 -113 -273t-273 -113zM374 54q129 0 221.5 91.5t92.5 222.5q0 130 -92 222t-222 92q-131 0 -222.5 -91.5t-91.5 -222.5t91.5 -222.5t222.5 -91.5zM464 334
l102 -176h-94l-94 176h-82v-176h-80v416h200q42 0 67 -3t48.5 -18.5t35 -43.5t11.5 -63q0 -112 -114 -112zM296 396h124q37 0 54 11q22 15 22 51q0 37 -34 49q-20 7 -64 7h-102v-118z" />
    <glyph glyph-name="Ydieresis" unicode="&#x178;" horiz-adv-x="740" 
d="M296 0v254l-242 486h154l160 -320l158 320h150l-242 -486v-254h-138zM298 -176v122h134v-122h-134z" />
    <glyph glyph-name="uni00A0" unicode="&#xa0;" 
 />
    <glyph glyph-name="exclamdown" unicode="&#xa1;" horiz-adv-x="333" 
d="M94 391v141h146v-141h-146zM90 -3l40 336h74l40 -336v-183h-154v183z" />
    <glyph glyph-name="cent" unicode="&#xa2;" horiz-adv-x="568" 
d="M344 40h-126v108q-76 13 -127 83.5t-51 150.5q0 79 51 147t127 83v102h126v-102q63 -15 108.5 -61.5t59.5 -108.5h-140q-13 23 -40 35.5t-54 12.5q-46 0 -76 -33t-30 -79q0 -47 31.5 -77.5t78.5 -30.5q25 0 45 10.5t39 29.5h146q-26 -64 -64 -103q-42 -43 -104 -59v-108z
" />
    <glyph glyph-name="sterling" unicode="&#xa3;" horiz-adv-x="568" 
d="M40 0v126h140q18 30 18 70q0 33 -14.5 60t-41.5 54h-142v126h56q-16 38 -16 78q0 98 71 169t169 71q100 0 174 -80q22 -24 41 -62.5t19 -67.5l-134 -2q-6 34 -35 58t-65 24q-47 0 -76.5 -33.5t-29.5 -82.5q0 -43 26 -72h208v-126h-108q15 -28 22.5 -58t7.5 -64
q0 -17 -2 -32.5t-8 -29.5h10q44 0 72 27t28 73q0 11 -1 17t-7 31h132q5 -10 7.5 -23.5t2.5 -28.5q0 -47 -22 -93.5t-58 -74.5q-36 -31 -77.5 -42.5t-94.5 -11.5h-272z" />
    <glyph glyph-name="currency" unicode="&#xa4;" horiz-adv-x="568" 
d="M28 228l44 44q-20 35 -29 63t-9 65q0 72 38 130l-44 44l78 80l44 -44q29 17 63.5 27.5t66.5 10.5q71 0 134 -38l44 44l76 -80l-44 -44q38 -58 38 -130q0 -35 -9.5 -68t-28.5 -60l44 -44l-76 -80l-44 44q-31 -19 -63 -28.5t-67 -9.5q-76 0 -134 38l-44 -44zM282 278
q51 0 86.5 36.5t35.5 85.5q0 51 -34.5 87.5t-87.5 36.5q-52 0 -88 -37t-36 -87q0 -49 35.5 -85.5t88.5 -36.5z" />
    <glyph glyph-name="yen" unicode="&#xa5;" horiz-adv-x="568" 
d="M208 0v186h-190v88h190l-56 106h-142v88h96l-142 272h152l160 -342l162 342h152l-142 -272h96v-88h-142l-56 -106h190v-88h-190v-186h-138z" />
    <glyph glyph-name="brokenbar" unicode="&#xa6;" horiz-adv-x="602" 
d="M244 0v740h118v-740h-118z" />
    <glyph glyph-name="section" unicode="&#xa7;" horiz-adv-x="574" 
d="M240 512l162 -80q59 -30 85 -61q35 -41 35 -103q0 -28 -20 -64q-27 -48 -74 -70q32 -26 47 -59t15 -69q0 -91 -66 -143q-60 -47 -150 -47q-116 0 -172 75q-38 51 -38 113h132q4 -37 20 -56q22 -26 68 -26q39 0 58 27q14 20 14 43q0 25 -15 41q-10 11 -45 29l-152 78
q-58 29 -82 61q-28 37 -28 99q0 44 27 79q23 29 67 53q-22 20 -35 45q-17 33 -17 71q0 73 52 124q57 56 150 56q83 0 136 -38q66 -48 66 -146h-128q0 36 -20 57t-58 21q-32 0 -52 -17t-20 -39q0 -35 38 -54zM342 310l-146 74q-21 -8 -32.5 -26.5t-11.5 -31.5q0 -22 13 -38
q9 -11 33 -24l158 -84q42 23 42 66q0 16 -10.5 30t-45.5 34z" />
    <glyph glyph-name="dieresis" unicode="&#xa8;" horiz-adv-x="672" 
d="M244 0v740h118v-740h-118z" />
    <glyph glyph-name="copyright" unicode="&#xa9;" horiz-adv-x="740" 
d="M374 -18q-161 0 -273.5 112.5t-112.5 273.5t112.5 273.5t273.5 112.5q159 0 272.5 -112.5t113.5 -273.5q0 -160 -113 -273t-273 -113zM374 54q129 0 221.5 91.5t92.5 222.5q0 130 -92 222t-222 92q-131 0 -222.5 -91.5t-91.5 -222.5t91.5 -222.5t222.5 -91.5zM484 298h86
q-7 -67 -58 -107.5t-120 -40.5q-97 0 -155.5 62.5t-58.5 159.5q0 96 57 159t153 63q72 0 121 -38.5t61 -107.5h-86q-16 76 -96 76q-59 0 -91.5 -44t-32.5 -106q0 -60 34.5 -107t93.5 -47q35 0 62 22t30 56z" />
    <glyph glyph-name="ordfeminine" unicode="&#xaa;" horiz-adv-x="624" 
d="M99 596h440v-452h-440v452z" />
    <glyph glyph-name="guillemotleft" unicode="&#xab;" horiz-adv-x="464" 
d="M388 136l-138 132v100l138 130v-122l-66 -58l66 -58v-124zM176 136l-140 132v100l140 130v-122l-68 -58l68 -58v-124z" />
    <glyph glyph-name="uni00AD" unicode="&#xad;" horiz-adv-x="428" 
d="M74 260v118h278v-118h-278z" />
    <glyph glyph-name="registered" unicode="&#xae;" horiz-adv-x="766" 
d="M306 328v-172h-86v408h152q83 0 122 -26q44 -30 44 -98q0 -54 -26.5 -80t-71.5 -26l104 -178h-102l-94 172h-42zM306 396h78q32 0 45 9q17 12 17 45q0 21 -17 32.5t-61 11.5h-62v-98zM748 360q0 -173 -114 -280q-107 -100 -264 -100q-159 0 -267 100q-115 106 -115 280
q0 172 115 278q108 100 267 100q158 0 264 -99q114 -106 114 -279zM640 360q0 127 -78.5 208.5t-191.5 81.5q-115 0 -193.5 -80.5t-78.5 -209.5q0 -127 77.5 -209.5t190.5 -82.5l4 2q112 -2 191 80t79 210z" />
    <glyph glyph-name="macron" unicode="&#xaf;" horiz-adv-x="350" 
d="M340 678v-74h-346v74h346z" />
    <glyph glyph-name="degree" unicode="&#xb0;" horiz-adv-x="882" 
d="M449 616q105 0 170 -68t65 -167t-65 -166t-170 -67q-103 0 -167.5 67.5t-64.5 165.5t64.5 166.5t167.5 68.5z" />
    <glyph glyph-name="plusminus" unicode="&#xb1;" horiz-adv-x="608" 
d="M236 382v124h112v-124h196v-112h-196v-126h-112v126h-196v112h196zM40 0v112h504v-112h-504z" />
    <glyph glyph-name="uni00B2" unicode="&#xb2;" horiz-adv-x="350" 
d="M102 558h-88q0 70 37 109q41 43 115 43q69 0 113.5 -35.5t44.5 -98.5q0 -50 -29 -89q-21 -28 -61.5 -52.5t-65.5 -42.5q-21 -15 -30 -26h186v-82h-314q0 45 17 79q24 47 85 89q57 38 73 51q43 35 43 75v4q0 17 -14 32q-17 18 -44 18q-42 0 -58 -28q-10 -17 -10 -46z" />
    <glyph glyph-name="uni00B3" unicode="&#xb3;" horiz-adv-x="350" 
d="M8 414h90q0 -27 10 -43q16 -25 56 -25q31 0 47.5 14t16.5 48q0 45 -48 56q-18 4 -50 4v64h14q33 0 47 6q27 12 27 46q0 20 -8 32q-13 20 -46 20q-31 0 -46.5 -16.5t-15.5 -45.5h-86q0 62 39 99t115 37q56 0 94 -25q48 -31 48 -93q0 -31 -16 -52t-38 -30
q33 -12 50.5 -38.5t17.5 -63.5q0 -60 -43.5 -98t-112.5 -38q-59 0 -97 20q-65 35 -65 122z" />
    <glyph glyph-name="acute" unicode="&#xb4;" 
 />
    <glyph glyph-name="mu" unicode="&#xb5;" horiz-adv-x="642" 
d="M546 532v-532h-134v76q-24 -43 -59 -66.5t-67 -23.5q-54 0 -80 26v-220h-140v740h140v-330q0 -56 29 -80q22 -18 63 -18q42 0 71 25q37 32 37 97v306h140z" />
    <glyph glyph-name="paragraph" unicode="&#xb6;" horiz-adv-x="574" 
d="M214 -192v540q-105 0 -163.5 45.5t-58.5 126.5q0 99 70 143q59 37 174 37h304v-892h-112v808h-102v-808h-112z" />
    <glyph glyph-name="periodcentered" unicode="&#xb7;" 
 />
    <glyph glyph-name="periodcentered" unicode="&#x2219;" 
 />
    <glyph glyph-name="cedilla" unicode="&#xb8;" 
 />
    <glyph glyph-name="uni00B9" unicode="&#xb9;" horiz-adv-x="350" 
d="M26 574v62h14q60 0 89 25q23 20 23 49h86v-426h-102v290h-110z" />
    <glyph glyph-name="ordmasculine" unicode="&#xba;" horiz-adv-x="664" 
d="M113 618h472v-489h-472v489zM157 576v-409h386v409h-386z" />
    <glyph glyph-name="guillemotright" unicode="&#xbb;" horiz-adv-x="464" 
d="M74 136v124l68 58l-68 58v122l138 -130v-100zM286 136v124l68 58l-68 58v122l140 -130v-100z" />
    <glyph glyph-name="onequarter" unicode="&#xbc;" horiz-adv-x="868" 
d="M510 158h116l2 182zM716 424v-264h50v-70h-50v-90h-94v90h-184v74l170 260h108zM136 -20l428 730h78l-426 -730h-80zM26 574v62h14q60 0 89 25q23 20 23 49h86v-426h-102v290h-110z" />
    <glyph glyph-name="onehalf" unicode="&#xbd;" horiz-adv-x="868" 
d="M136 -20l428 730h78l-426 -730h-80zM26 574v62h14q60 0 89 25q23 20 23 49h86v-426h-102v290h-110zM572 276h-88q0 90 60 128q38 24 92 24q69 0 113.5 -36t44.5 -100q0 -50 -29 -88q-20 -27 -60 -51t-67 -44q-20 -15 -30 -27h186v-82h-314q0 46 17 80q24 48 85 90
q57 38 73 51q43 35 43 75v4q0 16 -14 30q-18 18 -44 18q-42 0 -58 -27q-10 -17 -10 -45z" />
    <glyph glyph-name="threequarters" unicode="&#xbe;" horiz-adv-x="868" 
d="M542 160h112l2 176zM750 424v-264h50v-70h-50v-90h-96v90h-182v74l170 260h108zM180 -20l428 730h78l-426 -730h-80zM16 414h90q0 -27 10 -43q16 -25 56 -25q31 0 47.5 14t16.5 48q0 45 -48 56q-18 4 -50 4v64h14q33 0 47 6q27 12 27 46q0 20 -8 32q-13 20 -46 20
q-31 0 -46.5 -16.5t-15.5 -45.5h-86q0 62 39 99t115 37q56 0 94 -25q48 -31 48 -93q0 -31 -16 -52t-38 -30q33 -12 50.5 -38.5t17.5 -63.5q0 -60 -43.5 -98t-112.5 -38q-59 0 -97 20q-65 35 -65 122z" />
    <glyph glyph-name="questiondown" unicode="&#xbf;" horiz-adv-x="611" 
d="M237 324h132q0 -78 -16 -113q-20 -43 -86 -90q-62 -43 -62 -99q0 -54 32 -79q25 -20 65 -20q46 0 73.5 25.5t34.5 89.5l141 1q0 -119 -79 -182q-65 -52 -161 -52q-120 0 -190 59q-66 55 -66 154q0 58 31 102q26 36 90 82q35 25 46 45q15 27 15 77zM227 391v141h146v-141
h-146z" />
    <glyph glyph-name="Agrave" unicode="&#xc0;" horiz-adv-x="40" 
d="M-546 806l128 138h106l130 -138h-130l-54 64l-62 -64h-118zM-410 1048l100 64l150 -150l-52 -30z" />
    <glyph glyph-name="Aacute" unicode="&#xc1;" horiz-adv-x="40" 
d="M-546 806l128 138h106l130 -138h-130l-54 64l-62 -64h-118zM30 1010l-198 -116l-52 30l150 150z" />
    <glyph glyph-name="Acircumflex" unicode="&#xc2;" horiz-adv-x="40" 
d="M-546 806l128 138h106l130 -138h-130l-54 64l-62 -64h-118z" />
    <glyph glyph-name="Atilde" unicode="&#xc3;" horiz-adv-x="40" 
d="M-546 806l128 138h106l130 -138h-130l-54 64l-62 -64h-118zM-484 1004l-50 88q19 19 44.5 28.5t55.5 9.5q26 0 63 -14t49 -14q39 0 70 28l50 -86q-26 -22 -47.5 -33t-48.5 -11q-23 0 -61 13t-59 13q-38 0 -66 -22z" />
    <glyph glyph-name="Adieresis" unicode="&#xc4;" horiz-adv-x="40" 
d="M-546 806l128 138h106l130 -138h-130l-54 64l-62 -64h-118zM-426 -181v122h134v-122h-134z" />
    <glyph glyph-name="Aring" unicode="&#xc5;" horiz-adv-x="40" 
d="M-546 806l128 138h106l130 -138h-130l-54 64l-62 -64h-118zM-223 1050h-90v12q0 17 6 32q7 12 11.5 18t18.5 20q20 19 47.5 26.5t64.5 7.5q57 0 100 -30q22 -17 31 -32.5t9 -37.5q0 -53 -58 -92q-20 -10 -40 -19q-20 -12 -20 -27v-32h-78v64l2 14q8 11 17 16q22 11 23 12
q23 12 39 25q21 18 21 33q0 22 -11.5 34t-38.5 12q-28 0 -46 -18q-4 -6 -6 -15.5t-2 -16.5v-6z" />
    <glyph glyph-name="AE" unicode="&#xc6;" 
d="M68 0v740h138v-740h-138zM98 960h-90l-2 12q0 12 8 32q7 12 11.5 18t18.5 20q20 19 47.5 26.5t64.5 7.5q57 0 100 -30q22 -17 31 -32.5t9 -37.5q0 -53 -58 -92q-21 -10 -41 -19q-21 -12 -21 -27l2 -4v-28h-78l-2 42l2 22l2 14q8 11 17 16q22 11 23 12q23 12 39 25
q21 18 21 33q0 22 -11.5 34t-38.5 12q-28 0 -46 -18q-10 -17 -10 -32z" />
    <glyph glyph-name="Ccedilla" unicode="&#xc7;" 
 />
    <glyph glyph-name="Egrave" unicode="&#xc8;" horiz-adv-x="40" 
d="M-528 938h100q7 -19 25 -29.5t41 -10.5q20 0 38.5 10.5t27.5 29.5h98q-7 -66 -51 -101t-113 -35q-67 0 -112 35t-54 101zM-562 1077l100 64l150 -150l-52 -30z" />
    <glyph glyph-name="Eacute" unicode="&#xc9;" horiz-adv-x="40" 
d="M-528 938h100q7 -19 25 -29.5t41 -10.5q20 0 38.5 10.5t27.5 29.5h98q-7 -66 -51 -101t-113 -35q-67 0 -112 35t-54 101zM-163 1079l-198 -116l-52 30l150 150z" />
    <glyph glyph-name="Ecircumflex" unicode="&#xca;" horiz-adv-x="40" 
d="M-528 938h100q7 -19 25 -29.5t41 -10.5q20 0 38.5 10.5t27.5 29.5h98q-7 -66 -51 -101t-113 -35q-67 0 -112 35t-54 101z" />
    <glyph glyph-name="Edieresis" unicode="&#xcb;" horiz-adv-x="40" 
d="M-528 938h100q7 -19 25 -29.5t41 -10.5q20 0 38.5 10.5t27.5 29.5h98q-7 -66 -51 -101t-113 -35q-67 0 -112 35t-54 101zM-426 -171v122h134v-122h-134z" />
    <glyph glyph-name="Igrave" unicode="&#xcc;" 
d="M68 0v740h138v-740h-138zM-12 909l100 64l150 -150l-52 -30z" />
    <glyph glyph-name="Iacute" unicode="&#xcd;" 
d="M68 0v740h138v-740h-138zM297 911l-198 -116l-52 30l150 150z" />
    <glyph glyph-name="Icircumflex" unicode="&#xce;" horiz-adv-x="740" 
d="M296 0v254l-242 486h154l160 -320l158 320h150l-242 -486v-254h-138zM298 -176v122h134v-122h-134z" />
    <glyph glyph-name="Idieresis" unicode="&#xcf;" horiz-adv-x="40" 
d="M-436 -166v122h134v-122h-134z" />
    <glyph glyph-name="Eth" unicode="&#xd0;" 
 />
    <glyph glyph-name="Ntilde" unicode="&#xd1;" horiz-adv-x="740" 
d="M268 0h-158v320h-42v106h42v314h156q98 0 163 -15q86 -20 146 -70.5t93.5 -128.5t33.5 -160q0 -78 -33.5 -154t-93.5 -126.5t-144 -70.5q-64 -15 -163 -15zM386 426v-106h-138v-186h16q94 0 135 11.5t77 38.5q90 68 90 182q0 60 -25.5 111.5t-72.5 84.5q-42 28 -101 38
q-37 6 -109 6h-10v-180h138z" />
    <glyph glyph-name="Ograve" unicode="&#xd2;" 
d="M68 0v740h138v-740h-138zM70 -176v122h134v-122h-134z" />
    <glyph glyph-name="Oacute" unicode="&#xd3;" 
d="M68 0v740h138v-740h-138zM14 814l-50 88q19 19 44.5 28.5t55.5 9.5q26 0 63 -14t49 -14q39 0 70 28l50 -86q-26 -22 -47.5 -33t-48.5 -11q-23 0 -61 13t-59 13q-38 0 -66 -22z" />
    <glyph glyph-name="Ocircumflex" unicode="&#xd4;" horiz-adv-x="740" 
d="M370 622q-94 0 -159 -73t-65 -177q0 -105 65.5 -179.5t158.5 -74.5q90 0 157 75t67 179t-65 177t-159 73zM566 688v6q28 5 41 16q17 14 17 40v18h-60v100h154v-98q0 -32 -13.5 -55.5t-42.5 -50.5q-9 -9 -19 -15.5t-24 -11.5q46 -53 71.5 -122t25.5 -147q0 -160 -102 -272
t-244 -112q-143 0 -245.5 111.5t-102.5 272.5q0 162 101 275t247 113q53 0 103.5 -18t92.5 -50z" />
    <glyph glyph-name="Otilde" unicode="&#xd5;" horiz-adv-x="40" 
d="M-486 814l-50 88q19 19 44.5 28.5t55.5 9.5q26 0 63 -14t49 -14q39 0 70 28l50 -86q-26 -22 -47.5 -33t-48.5 -11q-23 0 -61 13t-59 13q-38 0 -66 -22z" />
    <glyph glyph-name="Odieresis" unicode="&#xd6;" horiz-adv-x="740" 
d="M662 632v-354q0 -64 -11 -105q-15 -55 -55 -96.5t-99.5 -68t-122.5 -26.5q-61 0 -119.5 24.5t-100.5 66t-58 96.5q-12 42 -12 109v462h138v-462q0 -54 26 -100q18 -28 52.5 -45t73.5 -17q29 0 61 18.5t51.5 45t28.5 49t9 49.5v462h138v-34q10 7 16 21t6 31v18h-60v100
h150v-102q0 -33 -15 -60.5t-43 -53.5q-12 -12 -24 -18t-30 -10z" />
    <glyph glyph-name="multiply" unicode="&#xd7;" 
 />
    <glyph glyph-name="Oslash" unicode="&#xd8;" horiz-adv-x="40" 
d="M-492 926l100 64l150 -150l-52 -30z" />
    <glyph glyph-name="Ugrave" unicode="&#xd9;" horiz-adv-x="40" 
d="M-238 928l-198 -116l-52 30l150 150z" />
    <glyph glyph-name="Uacute" unicode="&#xda;" horiz-adv-x="40" 
d="M-528 938h100q7 -19 25 -29.5t41 -10.5q20 0 38.5 10.5t27.5 29.5h98q-7 -66 -51 -101t-113 -35q-67 0 -112 35t-54 101zM-410 1140h-90v12q0 17 6 32q7 12 11.5 18t18.5 20q20 19 47.5 26.5t64.5 7.5q57 0 100 -30q22 -17 31 -32.5t9 -37.5q0 -53 -58 -92
q-20 -10 -40 -19q-20 -12 -20 -27v-32h-78v64l2 14q8 11 17 16q22 11 23 12q23 12 39 25q21 18 21 33q0 22 -11.5 34t-38.5 12q-28 0 -46 -18q-4 -6 -6 -15.5t-2 -16.5v-6z" />
    <glyph glyph-name="Ucircumflex" unicode="&#xdb;" horiz-adv-x="40" 
d="M-412 960h-90v12q0 17 6 32q7 12 11.5 18t18.5 20q20 19 47.5 26.5t64.5 7.5q57 0 100 -30q22 -17 31 -32.5t9 -37.5q0 -53 -58 -92q-20 -10 -40 -19q-20 -12 -20 -27v-32h-78v64l2 14q8 11 17 16q22 11 23 12q23 12 39 25q21 18 21 33q0 22 -11.5 34t-38.5 12
q-28 0 -46 -18q-4 -6 -6 -15.5t-2 -16.5v-6z" />
    <glyph glyph-name="Udieresis" unicode="&#xdc;" horiz-adv-x="40" 
d="M-528 938h100q7 -19 25 -29.5t41 -10.5q20 0 38.5 10.5t27.5 29.5h98q-7 -66 -51 -101t-113 -35q-67 0 -112 35t-54 101zM-406 999l-50 88q19 19 44.5 28.5t55.5 9.5q26 0 63 -14t49 -14q39 0 70 28l50 -86q-26 -22 -47.5 -33t-48.5 -11q-23 0 -61 13t-59 13
q-38 0 -66 -22z" />
    <glyph glyph-name="Yacute" unicode="&#xdd;" 
 />
    <glyph glyph-name="Thorn" unicode="&#xde;" horiz-adv-x="778" 
d="M744 707l-84 -92q34 -44 54 -108.5t20 -147.5q0 -154 -68 -248q-53 -74 -145 -107q-63 -23 -132 -23q-56 0 -106 14q-72 20 -126 68l-82 -90l-42 38l85 93q-35 44 -53 103q-21 67 -21 152q0 154 68 248q53 74 145 107q63 23 132 23q53 0 106 -15q72 -20 126 -66l81 89z
M221 218l304 333q-28 31 -64 45t-72 14q-76 0 -128 -50q-67 -65 -67 -201q0 -45 7 -79.5t20 -61.5zM556 501l-304 -333q28 -32 64 -46t73 -14q76 0 128 50q67 65 67 201q0 45 -7 80t-21 62z" />
    <glyph glyph-name="germandbls" unicode="&#xdf;" horiz-adv-x="611" 
d="M279 -8v110l29 -1q131 0 131 124q0 74 -53 103q-35 19 -100 19v97q53 0 76 12q36 19 36 75q0 43 -26.5 65.5t-74.5 22.5q-35 0 -58 -18q-30 -23 -30 -71v-530h-140v539q0 81 56 133q63 59 177 59q87 0 143 -29q93 -48 93 -167q0 -42 -21 -75.5t-52 -48.5q71 -31 97 -88
q17 -37 17 -94q0 -99 -53 -164q-65 -79 -192 -79q-19 0 -55 6z" />
    <glyph glyph-name="agrave" unicode="&#xe0;" horiz-adv-x="40" 
d="M-498 618l128 138h106l130 -138h-130l-54 64l-62 -64h-118zM-374 866l100 64l150 -150l-52 -30z" />
    <glyph glyph-name="aacute" unicode="&#xe1;" horiz-adv-x="40" 
d="M-498 618l128 138h106l130 -138h-130l-54 64l-62 -64h-118zM82 818l-198 -116l-52 30l150 150z" />
    <glyph glyph-name="acircumflex" unicode="&#xe2;" horiz-adv-x="40" 
d="M-498 618l128 138h106l130 -138h-130l-54 64l-62 -64h-118z" />
    <glyph glyph-name="atilde" unicode="&#xe3;" horiz-adv-x="40" 
d="M-498 618l128 138h106l130 -138h-130l-54 64l-62 -64h-118zM-434 814l-50 88q19 19 44.5 28.5t55.5 9.5q26 0 63 -14t49 -14q39 0 70 28l50 -86q-26 -22 -47.5 -33t-48.5 -11q-23 0 -61 13t-59 13q-38 0 -66 -22z" />
    <glyph glyph-name="adieresis" unicode="&#xe4;" horiz-adv-x="40" 
d="M-498 618l128 138h106l130 -138h-130l-54 64l-62 -64h-118zM-391 -186v122h134v-122h-134z" />
    <glyph glyph-name="aring" unicode="&#xe5;" horiz-adv-x="40" 
d="M-498 618l128 138h106l130 -138h-130l-54 64l-62 -64h-118zM-162 860h-90v12q0 17 6 32q7 12 11.5 18t18.5 20q20 19 47.5 26.5t64.5 7.5q57 0 100 -30q22 -17 31 -32.5t9 -37.5q0 -53 -58 -92q-20 -10 -40 -19q-20 -12 -20 -27v-32h-78v64l2 14q8 11 17 16q22 11 23 12
q23 12 39 25q21 18 21 33q0 22 -11.5 34t-38.5 12q-28 0 -46 -18q-4 -6 -6 -15.5t-2 -16.5v-6z" />
    <glyph glyph-name="ae" unicode="&#xe6;" horiz-adv-x="244" 
d="M54 0v554h134v-554h-134zM82 762h-90v12q0 17 6 32q7 12 11.5 18t18.5 20q20 19 47.5 26.5t64.5 7.5q57 0 100 -30q22 -17 31 -32.5t9 -37.5q0 -53 -58 -92q-21 -10 -41 -19q-21 -12 -21 -27l2 -4v-28h-78l-2 42l2 22l2 14q8 11 17 16q22 11 23 12q23 12 39 25
q21 18 21 33q0 22 -11.5 34t-38.5 12q-28 0 -46 -18q-10 -17 -10 -32z" />
    <glyph glyph-name="ccedilla" unicode="&#xe7;" horiz-adv-x="508" 
d="M236 -116l32 106q-79 22 -136 76q-44 41 -67 97.5t-23 118.5q0 121 86.5 205.5t209.5 84.5q93 0 172 -56.5t104 -145.5h-150q-22 37 -53 54.5t-75 17.5q-72 0 -116 -46t-44 -116q0 -73 46.5 -120.5t119.5 -47.5q37 0 69.5 18.5t52.5 49.5h150q-27 -88 -105 -143t-171 -55
h-20l-14 -40q6 0 17 3t17 3q15 0 33.5 -9t32.5 -21t21 -31.5t7 -40.5q0 -40 -29 -69t-71 -29q-35 0 -65.5 24t-30.5 58h50q3 -14 18 -23t30 -9q19 0 32.5 15.5t13.5 34.5q0 21 -14.5 35.5t-35.5 14.5q-28 0 -42 -28z" />
    <glyph glyph-name="egrave" unicode="&#xe8;" horiz-adv-x="40" 
d="M-458 762h100q7 -19 25 -29.5t41 -10.5q20 0 38.5 10.5t27.5 29.5h98q-7 -67 -51 -101.5t-113 -34.5q-68 0 -111 33q-46 36 -55 103zM-492 908l100 64l150 -150l-52 -30z" />
    <glyph glyph-name="eacute" unicode="&#xe9;" horiz-adv-x="40" 
d="M-458 762h100q7 -19 25 -29.5t41 -10.5q20 0 38.5 10.5t27.5 29.5h98q-7 -67 -51 -101.5t-113 -34.5q-68 0 -111 33q-46 36 -55 103zM-98 908l-198 -116l-52 30l150 150z" />
    <glyph glyph-name="ecircumflex" unicode="&#xea;" horiz-adv-x="40" 
d="M-458 762h100q7 -19 25 -29.5t41 -10.5q20 0 38.5 10.5t27.5 29.5h98q-7 -67 -51 -101.5t-113 -34.5q-68 0 -111 33q-46 36 -55 103z" />
    <glyph glyph-name="edieresis" unicode="&#xeb;" horiz-adv-x="40" 
d="M-498 762h100q7 -19 25 -29.5t41 -10.5q20 0 38.5 10.5t27.5 29.5h98q-7 -67 -51 -101.5t-113 -34.5q-68 0 -111 33q-46 36 -55 103zM-406 -171v122h134v-122h-134z" />
    <glyph glyph-name="igrave" unicode="&#xec;" horiz-adv-x="244" 
d="M54 0v554h134v-554h-134zM-28 718l100 64l150 -150l-52 -30z" />
    <glyph glyph-name="iacute" unicode="&#xed;" horiz-adv-x="244" 
d="M54 0v554h134v-554h-134zM263 723l-198 -116l-52 30l150 150z" />
    <glyph glyph-name="icircumflex" unicode="&#xee;" horiz-adv-x="590" 
d="M108 -186l102 238l-204 502h152l126 -354l134 354h150l-318 -740h-142zM374 -186v122h134v-122h-134z" />
    <glyph glyph-name="idieresis" unicode="&#xef;" horiz-adv-x="40" 
d="M-386 -206v122h134v-122h-134z" />
    <glyph glyph-name="eth" unicode="&#xf0;" 
 />
    <glyph glyph-name="ntilde" unicode="&#xf1;" horiz-adv-x="672" 
d="M480 706v34h134v-34h40v-106h-40v-600h-122v76q-31 -45 -80.5 -69.5t-105.5 -24.5q-60 0 -111 25t-89 69q-76 86 -76 200q0 117 76 202q38 43 92.5 68.5t111.5 25.5q48 0 93.5 -19.5t76.5 -54.5v102h-132v106h132zM490 278q0 68 -49 116t-117 48q-64 0 -112 -48t-48 -112
q0 -70 46 -120t116 -50q68 0 116 49t48 117z" />
    <glyph glyph-name="ograve" unicode="&#xf2;" horiz-adv-x="244" 
d="M54 0v554h134v-554h-134zM54 618v122h134v-122h-134zM59 -176v122h134v-122h-134z" />
    <glyph glyph-name="oacute" unicode="&#xf3;" horiz-adv-x="244" 
d="M54 0v554h134v-554h-134zM4 624l-50 88q19 19 44.5 28.5t55.5 9.5q26 0 63 -14t49 -14q39 0 70 28l50 -86q-26 -22 -47.5 -33t-48.5 -11q-23 0 -61 13t-59 13q-38 0 -66 -22z" />
    <glyph glyph-name="ocircumflex" unicode="&#xf4;" horiz-adv-x="648" 
d="M324 442q-32 0 -61.5 -13t-52.5 -37q-46 -46 -46 -116q0 -68 46 -116t114 -48q70 0 116 47t46 117q0 69 -46.5 117.5t-115.5 48.5zM514 505q22 6 34 18t12 35v18h-60v100h141v-101q0 -35 -9 -52.5t-38 -44.5q-7 -7 -19 -15q-7 -5 -13 -9q27 -38 42.5 -84t15.5 -94
q0 -122 -87 -208t-209 -86q-120 0 -207 87t-87 207q0 124 87 210t213 86q53 0 99 -17t85 -50z" />
    <glyph glyph-name="otilde" unicode="&#xf5;" horiz-adv-x="40" 
d="M-416 634l-50 88q19 19 44.5 28.5t55.5 9.5q26 0 63 -14t49 -14q39 0 70 28l50 -86q-26 -22 -47.5 -33t-48.5 -11q-23 0 -61 13t-59 13q-38 0 -66 -22z" />
    <glyph glyph-name="odieresis" unicode="&#xf6;" horiz-adv-x="602" 
d="M548 447v-447h-122v60q-22 -39 -59 -58.5t-85 -19.5q-105 0 -174 78q-34 36 -46 83q-8 33 -8 99v312h134v-272q0 -36 3 -63.5t13 -48.5q29 -58 96 -58t94 55q20 41 20 115v272h134v-34q9 7 14.5 17.5t5.5 24.5v18h-60v100l138 -1v-99q0 -35 -9 -55.5t-35 -44.5
q-11 -11 -24.5 -19t-29.5 -14z" />
    <glyph glyph-name="divide" unicode="&#xf7;" 
 />
    <glyph glyph-name="oslash" unicode="&#xf8;" horiz-adv-x="40" 
d="M-448 738l100 64l150 -150l-52 -30z" />
    <glyph glyph-name="ugrave" unicode="&#xf9;" horiz-adv-x="40" 
d="M-172 738l-198 -116l-52 30l150 150z" />
    <glyph glyph-name="uacute" unicode="&#xfa;" horiz-adv-x="40" 
d="M-458 762h100q7 -19 25 -29.5t41 -10.5q20 0 38.5 10.5t27.5 29.5h98q-7 -67 -51 -101.5t-113 -34.5q-68 0 -111 33q-46 36 -55 103zM-332 950h-90v12q0 17 6 32q7 12 11.5 18t18.5 20q20 19 47.5 26.5t64.5 7.5q57 0 100 -30q22 -17 31 -32.5t9 -37.5q0 -53 -58 -92
q-20 -10 -40 -19q-20 -12 -20 -27v-32h-78v64l2 14q8 11 17 16q22 11 23 12q23 12 39 25q21 18 21 33q0 22 -11.5 34t-38.5 12q-28 0 -46 -18q-4 -6 -6 -15.5t-2 -16.5v-6z" />
    <glyph glyph-name="ucircumflex" unicode="&#xfb;" horiz-adv-x="40" 
d="M-342 780h-90v12q0 17 6 32q7 12 11.5 18t18.5 20q20 19 47.5 26.5t64.5 7.5q57 0 100 -30q22 -17 31 -32.5t9 -37.5q0 -53 -58 -92q-20 -10 -40 -19q-20 -12 -20 -27v-32h-78v64l2 14q8 11 17 16q22 11 23 12q23 12 39 25q21 18 21 33q0 22 -11.5 34t-38.5 12
q-28 0 -46 -18q-4 -6 -6 -15.5t-2 -16.5v-6z" />
    <glyph glyph-name="udieresis" unicode="&#xfc;" horiz-adv-x="40" 
d="M-458 762h100q7 -19 25 -29.5t41 -10.5q20 0 38.5 10.5t27.5 29.5h98q-7 -67 -51 -101.5t-113 -34.5q-68 0 -111 33q-46 36 -55 103zM-341 814l-50 88q19 19 44.5 28.5t55.5 9.5q26 0 63 -14t49 -14q39 0 70 28l50 -86q-26 -22 -47.5 -33t-48.5 -11q-23 0 -61 13t-59 13
q-38 0 -66 -22z" />
    <glyph glyph-name="yacute" unicode="&#xfd;" 
 />
    <glyph glyph-name="thorn" unicode="&#xfe;" horiz-adv-x="611" 
d="M420 351l-202 -213q31 -34 88 -34q72 0 104 55q24 42 24 107q0 28 -2.5 45.5t-11.5 39.5zM193 179l203 214q-17 18 -38 26.5t-52 8.5q-72 0 -104 -55q-24 -42 -24 -107q0 -22 3.5 -44.5t11.5 -42.5zM589 528l-71 -74q29 -35 44.5 -81t15.5 -107q0 -137 -82 -212
q-74 -68 -190 -68q-106 0 -177 58l-69 -73l-38 29l73 77q-30 36 -45.5 82.5t-15.5 106.5q0 137 82 212q74 68 190 68q105 0 179 -59l69 73z" />
    <glyph glyph-name="ydieresis" unicode="&#xff;" horiz-adv-x="590" 
d="M108 -186l102 238l-204 502h152l126 -354l134 354h150l-318 -740h-142zM374 -176v122h134v-122h-134z" />
    <glyph glyph-name="logicalnot" unicode="&#xac;" horiz-adv-x="893" 
d="M404 675v-4l-175 -106v25l129 85h46zM404 651v-31l-175 -105v18zM404 594v-24l-175 -105v11l4 2zM404 537v-18l-164 -100l162 59l2 2v-11l-79 -50l79 28v-333h-155l-5 -2h-15v173h-53v-178l-175 -105v423l147 53l28 19v-13l-105 -65l105 39v-24h5l-27 -15l44 15h31v11
l90 33zM12 0h-11v2zM1 430v26l64 22l111 76v-19zM1 480v13l175 118v-26zM229 618v29l46 28h53zM1 530v20l175 118v-32zM229 668v7h15zM1 581v26l103 68h55zM1 633v42h72zM475 675h19l-19 -11v11zM527 675h53l-105 -64v29zM610 675h40h7.5h7.5l-190 -114v22zM694 675
q20 0 46 -4l-265 -160v15zM762 664q16 -3 33 -13l-320 -191v13l10 5zM812 640q1 -2 2.5 -3.5t4.5 -3.5q2 -2 8 -11l-129 -78q0 2 -4 6t-9 4zM838 600q1 -2 7 -19l-140 -84v7v2.5v4.5zM849 552q0 -5 1 -10t1 -9l-146 -88v2.5v1.5v16l35 13zM851 495v-4v-5v-2l-105 -65l105 39
v-26l-21 -13l21 8q0 -66 -13 -94q-13 -31 -48 -44q-38 -17 -94 -17h-46v-176l-162 -96h-13v443l94 35l81 52v-15l-158 -96l158 57v-14l-72 -43l72 26v-57h6.5h6.5q22 0 33 13q9 9 9 33l118 44z" />
  </font>
</defs>
</svg>
