<?xml version="1.0" standalone="no"?>
<!DOCTYPE svg PUBLIC "-//W3C//DTD SVG 1.1//EN" "http://www.w3.org/Graphics/SVG/1.1/DTD/svg11.dtd" >
<svg>
<metadata>
Created by FontForge 20090914 at Tue Nov  1 08:05:39 2016
 By www-data
Copyright (c) 1991 VNI All Rights Reserved.
</metadata>
<defs>
<font id="VNI-Helve" horiz-adv-x="40" >
  <font-face 
    font-family="VNI-Helve"
    font-weight="400"
    font-stretch="normal"
    units-per-em="1000"
    panose-1="0 0 0 0 0 0 0 0 0 0"
    ascent="800"
    descent="-200"
    x-height="524"
    cap-height="718"
    bbox="-544.001 -226.001 1252 1121"
    underline-thickness="50"
    underline-position="-75"
    unicode-range="U+0020-U+2122"
  />
<missing-glyph horiz-adv-x="780" 
d="M48 0v780h684v-780h-684zM684 48v684h-588v-684h588z" />
    <glyph glyph-name=".notdef" horiz-adv-x="780" 
d="M48 0v780h684v-780h-684zM684 48v684h-588v-684h588z" />
    <glyph glyph-name="space" unicode=" " horiz-adv-x="294" 
 />
    <glyph glyph-name="exclam" unicode="!" horiz-adv-x="294" 
d="M188 102v-102h-98v102h98zM164 172h-50l-24 310v236h98v-236z" />
    <glyph glyph-name="quotedbl" unicode="&#x22;" horiz-adv-x="384" 
d="M70 464v254h74v-254h-74zM212 464v254h74v-254h-74z" />
    <glyph glyph-name="numbersign" unicode="#" horiz-adv-x="586" 
d="M388 210l-28 -210h-66l28 210h-124l-30 -210h-66l30 210h-104l10 64h102l20 142h-104l10 62h102l30 210h66l-28 -210h124l28 210h68l-30 -210h104l-10 -62h-102l-20 -142h102l-8 -64h-104zM350 416h-124l-20 -142h126z" />
    <glyph glyph-name="dollar" unicode="$" horiz-adv-x="586" 
d="M254 410l-0.000976562 228c-37.333 0 -66.666 -11 -87.999 -33s-32 -49.667 -32 -83c0 -32 12.333 -58 37 -78c21.333 -16.667 49 -28 83 -34zM299.999 308l0.000976562 -254c42.667 0 76 13 100 39c21.333 22.667 32 51.667 32 87c0 27.333 -7.33301 51 -22 71
s-33.334 33.667 -56.001 41zM504 522h-86c-3.33301 31.333 -12 55.333 -26 72c-18.667 22 -49.334 36.667 -92.001 44v-238c63.333 -18.667 106.666 -33.667 129.999 -45c60 -30 90 -83 90 -159s-26.333 -133.333 -79 -172c-40 -29.333 -87 -44 -141 -44v-96h-46v96
c-67.333 0 -119.666 17 -156.999 51c-43.333 40 -65 101 -65 183h88c0 -53.333 9.66699 -91.333 29 -114s54.333 -38 105 -46v266c-83.333 20 -139.666 46.333 -168.999 79c-26 29.333 -39 68.333 -39 117c0 54 19.833 100.167 59.5 138.5s89.167 57.5 148.5 57.5v64h46v-64
c52 -4.66699 94 -17 126 -37c52 -32 78 -83 78 -153z" />
    <glyph glyph-name="percent" unicode="%" horiz-adv-x="934" 
d="M40 526c0 48 16.333 88.333 49 121s73 49 121 49c47.333 0 87.5 -16.5 120.5 -49.5s49.5 -73.167 49.5 -120.5s-16.5 -87.5 -49.5 -120.5s-73.167 -49.5 -120.5 -49.5c-46.667 0 -86.667 16.333 -120 49s-50 73 -50 121zM110 526c0 -30 9.5 -54.167 28.5 -72.5
s42.833 -27.5 71.5 -27.5c29.333 0 53.333 9.66699 72 29s28 43 28 71s-9.66699 51.667 -29 71s-43 29 -71 29s-51.667 -9.66699 -71 -29s-29 -43 -29 -71zM510 164c0 48 16.333 88.333 49 121s73 49 121 49c47.333 0 87.5 -16.5 120.5 -49.5s49.5 -73.167 49.5 -120.5
s-16.5 -87.833 -49.5 -121.5s-73.167 -50.5 -120.5 -50.5c-46.667 0 -86.667 16.667 -120 50s-50 74 -50 122zM580 164c0 -30 9.5 -54.167 28.5 -72.5s42.833 -27.5 71.5 -27.5c29.333 0 53.333 9.66699 72 29s28 43 28 71s-9.66699 51.667 -29 71s-43 29 -71 29
s-51.667 -9.66699 -71 -29s-29 -43 -29 -71zM670 704l-396 -724h-54l394 724h56z" />
    <glyph glyph-name="ampersand" unicode="&#x26;" horiz-adv-x="710" 
d="M418 142l-162 198c-46 -29.333 -76.333 -52.333 -91 -69c-22 -24.667 -33 -55 -33 -91c0 -40 16.667 -71 50 -93c25.333 -16.667 52 -25 80 -25c65.333 0 117.333 26.667 156 80zM286 440c28 18.667 47.666 34.668 58.999 48.001c20.667 23.333 31 48.666 31 75.999
c0 28.667 -9 49.667 -27 63c-13.333 10 -29.666 15 -48.999 15c-32 0 -55.333 -10 -70 -30c-9.33301 -13.333 -14 -29.333 -14 -48c0 -20 8.33301 -43 25 -69c12 -18.667 27 -37 45 -55zM517.999 156.001l128.001 -156.001h-114l-68 82c-27.333 -32 -55 -55.333 -83 -70
c-35.333 -18.667 -77 -28 -125 -28c-78 0 -135.667 24.667 -173 74c-26 34.667 -39 73.334 -39 116.001c0 50.667 10.833 91.667 32.5 123s64.834 65.666 129.501 102.999c-28 34.667 -47 61.334 -57 80.001c-12.667 24 -19 50 -19 78c0 44.667 14.333 81.667 43 111
c32 32.667 74.333 49 127 49c53.333 0 94.666 -15.667 123.999 -47c25.333 -26.667 38 -60.334 38 -101.001c0 -44.667 -14.667 -84 -44 -118c-16.667 -19.333 -45.334 -42.666 -86.001 -69.999l132 -156c8 22 13.667 39.667 17 53s7 33 11 59h84c0 -24 -5 -51.5 -15 -82.5
s-24.333 -64.167 -43 -99.5z" />
    <glyph glyph-name="quotesingle" unicode="'" horiz-adv-x="204" 
d="M60 464v254h72v-254h-72z" />
    <glyph glyph-name="parenleft" unicode="(" horiz-adv-x="360" 
d="M238 734l59.999 0.000976562c-34 -64 -58 -112.667 -72 -146c-22.667 -52.667 -39 -104.5 -49 -155.5s-15 -115.833 -15 -194.5c0 -52 5.83301 -102.333 17.5 -151s27.834 -97.334 48.501 -146.001c12.667 -29.333 36.667 -79 72 -149h-60
c-59.333 88.667 -101 163 -125 223c-31.333 78 -47 160.333 -47 247c0 84.667 14.667 166 44 244c26.667 70 68.667 146 126 228z" />
    <glyph glyph-name="parenright" unicode=")" horiz-adv-x="360" 
d="M96 -208l-60.001 -0.000976562c32.667 62 56.667 111 72 147c22.667 52.667 39 104.667 49 156s15 116.333 15 195c0 52 -5.66699 102 -17 150s-27.666 96.333 -48.999 145c-12.667 30 -36.667 79.667 -72 149h60c40 -60 70.333 -109.667 91 -149
c26 -49.333 46 -100.166 60 -152.499s21 -107.833 21 -166.5c0 -85.333 -14.667 -167 -44 -245c-26.667 -70.667 -68.667 -147 -126 -229z" />
    <glyph glyph-name="asterisk" unicode="*" horiz-adv-x="418" 
d="M40 592l20 54l104 -38v110h60v-110l106 38l20 -54l-108 -34l66 -92l-48 -34l-66 94l-64 -94l-50 34l68 92z" />
    <glyph glyph-name="plus" unicode="+" horiz-adv-x="620" 
d="M256 290v216h74v-216h216v-74h-216v-216h-74v216h-216v74h216z" />
    <glyph glyph-name="comma" unicode="," horiz-adv-x="294" 
d="M88 0v106.001h104v-98c0 -58 -14.667 -100.333 -44 -127c-16 -14.667 -36 -24.334 -60 -29.001v46c19.333 2 33.333 13.333 42 34c6.66699 16 10 38.667 10 68h-52z" />
    <glyph glyph-name="hyphen" unicode="-" horiz-adv-x="360" 
d="M290 322v-90h-246v90h246z" />
    <glyph glyph-name="period" unicode="." horiz-adv-x="294" 
d="M192 106v-106h-104v106h104z" />
    <glyph glyph-name="slash" unicode="/" horiz-adv-x="294" 
d="M296 738l-246 -758h-68l248 758h66z" />
    <glyph glyph-name="zero" unicode="0" horiz-adv-x="586" 
d="M426 342c0 91.333 -12 161.167 -36 209.5s-61.333 72.5 -112 72.5c-48.667 0 -85.167 -24.667 -109.5 -74s-36.5 -118.666 -36.5 -207.999c0 -90.667 12 -160.334 36 -209.001s60.667 -73 110 -73s86.333 24.5 111 73.5s37 118.5 37 208.5zM520 342.001
c0 -94.667 -15 -173 -45 -235c-41.333 -84.667 -107 -127 -197 -127s-155.333 42 -196 126c-29.333 60.667 -44 139.334 -44 236.001c0 95.333 14.667 173.666 44 234.999c40.667 84.667 106 127 196 127s155.667 -42 197 -126c30 -61.333 45 -140 45 -236z" />
    <glyph glyph-name="one" unicode="1" horiz-adv-x="586" 
d="M360 704v-704h-94v500h-164v70c60 0 102 7.66699 126 23c28 18 48.667 55 62 111h70z" />
    <glyph glyph-name="two" unicode="2" horiz-adv-x="586" 
d="M132 452l-88.002 0.00195312c0 99.333 31 169.666 93 210.999c40.667 27.333 91 41 151 41c62.667 0 115 -19 157 -57s63 -89 63 -153c0 -56.667 -18.333 -104.667 -55 -144c-25.333 -27.333 -69.666 -58 -132.999 -92l-74 -40
c-41.333 -22.667 -72.666 -48.334 -93.999 -77.001c-14.667 -20 -23.334 -39 -26.001 -57h382v-84h-482c0 68.667 15.667 126.667 47 174c25.333 38.667 65 74 119 106l92 54c46.667 26 77.667 47 93 63c24.667 26 37 59.667 37 101c0 32.667 -10.333 60.667 -31 84
c-25.333 28 -61.666 42 -108.999 42c-44.667 0 -79 -13.667 -103 -41c-26 -30 -39 -73.667 -39 -131z" />
    <glyph glyph-name="three" unicode="3" horiz-adv-x="586" 
d="M224 324l-0.00488281 76.002l46 -2c38 0 68.667 8.33301 92 25c28 20 42 50.333 42 91c0 27.333 -8.33301 50.666 -25 69.999c-23.333 26.667 -58.333 40 -105 40c-54 0 -92 -19 -114 -57c-14.667 -24.667 -22 -55.667 -22 -93h-86c0 62.667 14.667 113.667 44 153
c38.667 51.333 99.334 77 182.001 77c67.333 0 120.5 -17.167 159.5 -51.5s58.5 -79.166 58.5 -134.499c0 -40.667 -10 -74.334 -30 -101.001c-16 -21.333 -36 -35.666 -60 -42.999c36.667 -12.667 64.334 -31.334 83.001 -56.001c22 -28.667 33 -65.334 33 -110.001
c0 -63.333 -19.667 -115.666 -59 -156.999c-45.333 -47.333 -109.666 -71 -192.999 -71c-24.667 0 -47.667 2.66699 -69 8s-41.666 13.333 -60.999 24c-36.667 19.333 -63.5 47.166 -80.5 83.499s-25.5 76.5 -25.5 120.5h92c0 -43.333 8.33301 -77.333 25 -102
c24.667 -36 66.334 -54 125.001 -54c45.333 0 82 12.667 110 38s42 58 42 98c0 52 -19.667 88.333 -59 109c-26 14 -61 21 -105 21z" />
    <glyph glyph-name="four" unicode="4" horiz-adv-x="586" 
d="M524 172h-104v-172h-88v172h-306v86l322 446h72v-456h104v-76zM106 248h226v318z" />
    <glyph glyph-name="five" unicode="5" horiz-adv-x="586" 
d="M178 602l-30.001 -191.999c17.333 12.667 35.666 22.667 54.999 30c24.667 9.33301 51.667 14 81 14c61.333 0 114 -19.333 158 -58c48 -42 72 -98 72 -168c0 -59.333 -14.667 -110.333 -44 -153c-44 -63.333 -114 -95 -210 -95c-56.667 0 -103.667 12.667 -141 38
c-50 33.333 -79 86 -87 158h92c4 -40 19.167 -69.667 45.5 -89s60.5 -29 102.5 -29c44.667 0 80.5 15.333 107.5 46s40.5 68.667 40.5 114c0 49.333 -14.667 87.666 -44 114.999s-66.666 41 -111.999 41c-51.333 0 -94.666 -22 -129.999 -66l-76 4l54 376h364v-86h-298z" />
    <glyph glyph-name="six" unicode="6" horiz-adv-x="586" 
d="M504 516h-85.999c-6.66699 33.333 -19 59 -37 77c-20.667 20.667 -49 31 -85 31c-60 0 -105 -34 -135 -102c-20.667 -47.333 -31 -100 -31 -158l2 -2c13.333 23.333 31.666 42.333 54.999 57c30.667 19.333 67.667 29 111 29c54 0 101.333 -16 142 -48
c52 -40.667 78 -98.667 78 -174c0 -36 -5.16699 -68 -15.5 -96s-26.833 -54.333 -49.5 -79s-45 -42 -67 -52c-28 -12.667 -65.333 -19 -112 -19c-32 0 -62.667 7.33301 -92 22c-36.667 18 -66.667 45.333 -90 82c-20 31.333 -34 66.833 -42 106.5s-12 85.5 -12 137.5
c0 97.333 17 179 51 245c45.333 87.333 115 131 209 131c50.667 0 95 -13.333 133 -40c48.667 -34 73 -83.333 73 -148zM142.001 216c0 -41.333 11.665 -76.667 34.998 -106c26.667 -33.333 64.334 -50 113.001 -50c41.333 0 74.666 15 99.999 45s38 69 38 117
c0 38 -10 70.333 -30 97c-25.333 34 -62.666 51 -111.999 51c-47.333 0 -83.166 -14.333 -107.499 -43s-36.5 -65.667 -36.5 -111z" />
    <glyph glyph-name="seven" unicode="7" horiz-adv-x="586" 
d="M38 602l0.000976562 86.001h486v-76c-30 -32 -61.333 -72.333 -94 -121c-44.667 -66.667 -82.334 -136.334 -113.001 -209.001c-39.333 -92.667 -67 -186.667 -83 -282h-96c12 95.333 45.667 200.333 101 315c53.333 109.333 115 205 185 287h-386z" />
    <glyph glyph-name="eight" unicode="8" horiz-adv-x="586" 
d="M492 522c0 -43.333 -10.999 -78.3291 -32.999 -104.996c-13.333 -16.667 -32.333 -31 -57 -43c43.333 -18 74.666 -44.667 93.999 -80c14.667 -26.667 22 -56.667 22 -90c0 -62.667 -18.667 -114.334 -56 -155.001c-42.667 -46 -103.334 -69 -182.001 -69
c-28 0 -54.333 3.33301 -79 10c-34.667 9.33301 -65 24.666 -91 45.999c-31.333 24 -52.333 54.333 -63 91c-6 20 -9 45 -9 75c0 42 10.333 77.333 31 106s50.334 50.667 89.001 66c-64 23.333 -96 68.666 -96 135.999c0 47.333 14.667 88.666 44 123.999
c38.667 46.667 95.334 70 170.001 70c71.333 0 126.666 -20 165.999 -60c33.333 -34 50 -74.667 50 -122zM278.001 330.004c-46.667 0 -83.333 -13.333 -110 -40c-24 -24 -36 -54 -36 -90s9.66699 -66.333 29 -91c26 -32.667 66.333 -49 121 -49c40 0 71.667 8.33301 95 25
c31.333 22.667 47 59 47 109c0 44.667 -13.667 78.5 -41 101.5s-62.333 34.5 -105 34.5zM276.002 406.004c37.333 0 67.667 10.999 91 32.999s35 49 35 81c0 26 -9 48.333 -27 67c-24 24.667 -59 37 -105 37c-42 0 -73 -12.333 -93 -37
c-15.333 -19.333 -23 -43.666 -23 -72.999c0 -32 12 -58 36 -78s52.667 -30 86 -30z" />
    <glyph glyph-name="nine" unicode="9" horiz-adv-x="586" 
d="M264 236c-66 0 -119.498 20.167 -160.498 60.5s-61.5 95.5 -61.5 165.5c0 68 19 124.333 57 169c41.333 48.667 97.666 73 168.999 73c98 0 167 -40 207 -120c26 -52 39 -120.667 39 -206c0 -47.333 -4 -93 -12 -137c-13.333 -74 -36 -132.333 -68 -175
c-42.667 -57.333 -100.667 -86 -174 -86c-74 0 -129.667 23 -167 69c-28.667 35.333 -43 75.666 -43 120.999h88c0 -36 11 -64.333 33 -85s51 -31 87 -31c48 0 85.167 20.833 111.5 62.5s45.166 108.834 56.499 201.501l-2 2c-12.667 -26 -34 -46.5 -64 -61.5
s-62 -22.5 -96 -22.5zM276.002 314c33.333 0 61.666 9.33301 84.999 28c34 27.333 51 71.333 51 132c0 44 -11 79 -33 105c-25.333 30 -61.666 45 -108.999 45c-41.333 0 -74.333 -14.333 -99 -43s-37 -67 -37 -115c0 -59.333 16.333 -101.333 49 -126
c22.667 -17.333 53.667 -26 93 -26z" />
    <glyph glyph-name="colon" unicode=":" horiz-adv-x="294" 
d="M192 106v-106h-104v106h104zM192 516v-106h-104v106h104z" />
    <glyph glyph-name="semicolon" unicode=";" horiz-adv-x="294" 
d="M88 0v106.001h104v-98c0 -58 -14.667 -100.333 -44 -127c-16 -14.667 -36 -24.334 -60 -29.001v46c19.333 2 33.333 13.333 42 34c6.66699 16 10 38.667 10 68h-52zM192 410.001h-104v106h104v-106z" />
    <glyph glyph-name="less" unicode="&#x3c;" horiz-adv-x="620" 
d="M536 92v-80l-488 206v70l488 208v-80l-390 -162z" />
    <glyph glyph-name="equal" unicode="=" horiz-adv-x="620" 
d="M546 390v-72h-506v72h506zM546 188v-72h-506v72h506z" />
    <glyph glyph-name="greater" unicode="&#x3e;" horiz-adv-x="620" 
d="M48 416v80l488 -208v-70l-488 -206v80l390 162z" />
    <glyph glyph-name="question" unicode="?" horiz-adv-x="586" 
d="M144 494h-88.002c0 54 7 94.667 21 122c12 23.333 31.667 45.333 59 66c40.667 30.667 88.667 46 144 46c59.333 0 108.666 -16.667 147.999 -50c42.667 -36 64 -84.667 64 -146c0 -32 -7 -59.667 -21 -83c-11.333 -19.333 -35.666 -47 -72.999 -83
c-27.333 -26.667 -45 -45 -53 -55c-23.333 -30 -35 -69 -35 -117l2 -10h-88c0 64 11 112.333 33 145c8.66699 13.333 28.334 35.833 59.001 67.5s49.334 51.5 56.001 59.5c17.333 22 26 49.333 26 82c0 27.333 -8 51.333 -24 72c-22 28 -54 42 -96 42
c-43.333 0 -76.5 -13.167 -99.5 -39.5s-34.5 -65.833 -34.5 -118.5zM317.998 102v-102h-96v102h96z" />
    <glyph glyph-name="at" unicode="@" horiz-adv-x="737" 
d="M624 408c0 25.333 -7.99805 47 -23.998 65s-35.333 27 -58 27c-42.667 0 -79.334 -22 -110.001 -66c-28 -40 -42 -82.667 -42 -128c0 -29.333 7.66699 -53 23 -71s35.666 -27 60.999 -27c40 0 75.667 23.333 107 70c28.667 42.667 43 86 43 130zM654.002 494
l19.999 62.0039h68l-59 -205c-20.667 -70 -31 -110.333 -31 -121c0 -18.667 7.33301 -28 22 -28c34 0 66.167 22.667 96.5 68s45.5 94.666 45.5 147.999c0 78 -27 140.5 -81 187.5s-120.333 70.5 -199 70.5c-88 0 -160.667 -31 -218 -93s-86 -137.667 -86 -227
c0 -88.667 29.833 -162.834 89.5 -222.501s133.834 -89.5 222.501 -89.5c46.667 0 91.5 10.167 134.5 30.5s78.833 48.166 107.5 83.499h68c-33.333 -55.333 -77.666 -98.833 -132.999 -130.5s-115 -47.5 -179 -47.5c-107.333 0 -197.833 36.833 -271.5 110.5
s-110.5 164.167 -110.5 271.5c0 104 36.667 192.667 110 266s162 110 266 110c95.333 0 176.5 -29.5 243.5 -88.5s100.5 -133.5 100.5 -223.5c0 -83.333 -28.667 -154.333 -86 -213c-50 -51.333 -100.667 -77 -152 -77c-18.667 0 -34 5.33301 -46 16s-18 26.667 -18 48
l-2 -2c-17.333 -17.333 -35.333 -31.333 -54 -42c-23.333 -13.333 -45.333 -20 -66 -20c-42.667 0 -78 15.667 -106 47s-42 69 -42 113c0 72 21 135 63 189c45.333 58 101.666 87 168.999 87c24.667 0 46.667 -6.33301 66 -19s35.333 -32.334 48 -59.001z" />
    <glyph glyph-name="A" unicode="A" horiz-adv-x="710" 
d="M478 210h-288l-76 -210h-100l270 718h110l260 -718h-106zM220 296h222l-106 316z" />
    <glyph glyph-name="B" unicode="B" horiz-adv-x="710" 
d="M172 636v-222h174c49.333 0 86 8.33301 110 25c26.667 18.667 40 49 40 91c0 35.333 -11 61.333 -33 78c-24.667 18.667 -63 28 -115 28h-176zM74 0l0.000976562 718.001h316c64 0 114.667 -17.667 152 -53c34.667 -32.667 52 -75 52 -127c0 -30 -6 -56.333 -18 -79
c-16 -30.667 -42 -54.334 -78 -71.001c38 -16.667 65.333 -33 82 -49c32 -31.333 48 -73.666 48 -126.999c0 -60.667 -20.667 -110.334 -62 -149.001c-44.667 -42 -105.334 -63 -182.001 -63h-310zM172.001 336.001v-252h206c50 0 87.833 11.5 113.5 34.5
s38.5 54.833 38.5 95.5c0 46 -18 79 -54 99c-27.333 15.333 -65.333 23 -114 23h-190z" />
    <glyph glyph-name="C" unicode="C" horiz-adv-x="766" 
d="M674 502l-93.9961 -0.000976562c-11.333 56 -39.333 96.667 -84 122c-32.667 18.667 -71.334 28 -116.001 28c-68.667 0 -124.334 -23.667 -167.001 -71c-46 -51.333 -69 -123 -69 -215c0 -91.333 17.333 -162 52 -212c40 -57.333 102 -86 186 -86
c43.333 0 81.333 11.667 114 35c46 33.333 76.667 87 92 161h94c-13.333 -90.667 -47.833 -160.667 -103.5 -210s-125.834 -74 -210.501 -74c-90.667 0 -165 29.333 -223 88c-67.333 68.667 -101 167.334 -101 296.001c0 111.333 30.167 201.5 90.5 270.5
s142.166 103.5 245.499 103.5c86.667 0 157 -24.333 211 -73c47.333 -42.667 75 -97 83 -163z" />
    <glyph glyph-name="D" unicode="D" horiz-adv-x="766" 
d="M82 0v718.001h290c92.667 0 166.167 -31.833 220.5 -95.5s81.5 -147.834 81.5 -252.501c0 -98 -21.333 -179.667 -64 -245c-54 -83.333 -134.667 -125 -242 -125h-286zM178 636.001v-552h188c64 0 114.667 24.167 152 72.5s56 117.5 56 207.5
c0 88.667 -18.833 156.167 -56.5 202.5s-90.167 69.5 -157.5 69.5h-182z" />
    <glyph glyph-name="E" unicode="E" horiz-adv-x="710" 
d="M616 86v-86h-530v718h524v-86h-426v-220h392v-86h-392v-240h432z" />
    <glyph glyph-name="F" unicode="F" horiz-adv-x="642" 
d="M184 326v-326h-98v718h498v-86h-400v-220h352v-86h-352z" />
    <glyph glyph-name="G" unicode="G" horiz-adv-x="822" 
d="M390 302l0.00390625 81.999h314v-384h-62l-24 94c-24 -34 -57.333 -61.5 -100 -82.5s-88 -31.5 -136 -31.5c-56 0 -103.667 9 -143 27c-27.333 12.667 -53 31 -77 55c-48 45.333 -80.667 99.333 -98 162c-10.667 38.667 -16 86 -16 142c0 97.333 27.333 181 82 251
c62.667 80.667 148.667 121 258 121c74 0 139 -19.333 195 -58c63.333 -43.333 99.666 -103.333 108.999 -180h-94c-13.333 56.667 -43 97.667 -89 123c-34.667 19.333 -76.334 29 -125.001 29c-68 0 -123.667 -25 -167 -75c-46 -53.333 -69 -125.666 -69 -216.999
c0 -86 16 -153.667 48 -203c40 -62 104 -93 192 -93c25.333 0 47.666 2.33301 66.999 7c29.333 7.33301 55.666 20.333 78.999 39c30 23.333 51.333 51.666 64 84.999c10.667 28.667 16 64.334 16 107.001h-224z" />
    <glyph glyph-name="H" unicode="H" horiz-adv-x="766" 
d="M550 422v296h96v-718h-96v336h-376v-336h-96v718h96v-296h376z" />
    <glyph glyph-name="I" unicode="I" horiz-adv-x="294" 
d="M188 718v-718h-96v718h96z" />
    <glyph glyph-name="J" unicode="J" horiz-adv-x="530" 
d="M18 232l89.9971 0.000976562v-50c0 -41.333 9.33301 -71.333 28 -90s45.334 -28 80.001 -28c42.667 0 73.334 11.667 92.001 35c16 20 24 49.667 24 89v530h96v-524c0 -76.667 -22.333 -133.334 -67 -170.001c-35.333 -29.333 -81.666 -44 -138.999 -44
c-74.667 0 -129.667 21.667 -165 65c-26 32 -39 70.333 -39 115v72z" />
    <glyph glyph-name="K" unicode="K" horiz-adv-x="710" 
d="M174 252v-252h-98v718h98v-348l348 348h134l-300 -290l308 -428h-126l-252 360z" />
    <glyph glyph-name="L" unicode="L" horiz-adv-x="586" 
d="M174 718v-632h364v-86h-462v718h98z" />
    <glyph glyph-name="M" unicode="M" horiz-adv-x="878" 
d="M762 0h-94v604l-202 -604h-96l-202 602v-602h-94v718h138l206 -606l206 606h138v-718z" />
    <glyph glyph-name="N" unicode="N" horiz-adv-x="766" 
d="M552 718h94v-718h-108l-366 580l-2 -580h-94v718h116l358 -580z" />
    <glyph glyph-name="O" unicode="O" horiz-adv-x="768" 
d="M646 360c0 86 -22 155.667 -66 209c-46 55.333 -107.333 83 -184 83c-76 0 -136.667 -27.333 -182 -82s-68 -124.667 -68 -210c0 -86.667 22.333 -157 67 -211s105.667 -81 183 -81c76.667 0 137.5 27.167 182.5 81.5s67.5 124.5 67.5 210.5zM746 360
c0 -96.667 -24.667 -179.334 -74 -248.001c-62.667 -88 -154.667 -132 -276 -132c-120.667 0 -212.334 43.667 -275.001 131c-50 70 -75 153 -75 249c0 95.333 24.667 177.333 74 246c63.333 88 155.333 132 276 132s212.334 -43.667 275.001 -131
c50 -69.333 75 -151.666 75 -246.999z" />
    <glyph glyph-name="P" unicode="P" horiz-adv-x="710" 
d="M184 636l0.000976562 -250h192c47.333 0 82.666 9.33301 105.999 28c26.667 21.333 40 55.333 40 102c0 42.667 -13.667 74 -41 94c-23.333 17.333 -57 26 -101 26h-196zM184.001 304v-304h-98v718h324c64.667 0 116.167 -18.833 154.5 -56.5s57.5 -86.167 57.5 -145.5
c0 -57.333 -15.667 -105 -47 -143c-38 -46 -93 -69 -165 -69h-226z" />
    <glyph glyph-name="Q" unicode="Q" horiz-adv-x="822" 
d="M420 148l50.001 60l90 -70c25.333 24.667 45 56.5 59 95.5s21 81.167 21 126.5c0 86 -22 155.667 -66 209c-46 55.333 -107.333 83 -184 83c-76 0 -136.667 -27.333 -182 -82s-68 -124.667 -68 -210c0 -86.667 22.333 -157 67 -211s105.667 -81 183 -81
c39.333 0 74.666 7.33301 105.999 22zM734.001 2l-50 -58.001l-110 86c-48 -33.333 -109.333 -50 -184 -50c-120.667 0 -212.334 43.667 -275.001 131c-50 70 -75 153 -75 249c0 95.333 24.667 177.333 74 246c63.333 88 155.333 132 276 132s212.334 -43.667 275.001 -131
c50 -69.333 75 -151.666 75 -246.999c0 -51.333 -7.66699 -100 -23 -146c-18 -54 -45 -99.333 -81 -136z" />
    <glyph glyph-name="R" unicode="R" horiz-adv-x="766" 
d="M186 308l0.000976562 -307.999h-98v718h332c68 0 122 -13 162 -39c49.333 -32 74 -83 74 -153c0 -48 -10.667 -86.667 -32 -116c-14 -20 -36.667 -38.667 -68 -56c28.667 -12.667 48.334 -25 59.001 -37c18 -21.333 27 -54.333 27 -99l6 -130
c0 -20.667 2.16699 -35.5 6.5 -44.5s14.166 -18.167 29.499 -27.5v-16h-118c-6 18 -10.5 47 -13.5 87s-4.5 71 -4.5 93c0 49.333 -12 83.666 -36 102.999c-20.667 16.667 -51.334 25 -92.001 25h-234zM186.001 636.001v-244h224c44 0 77.333 7.33301 100 22
c30.667 20 46 54 46 102s-15.333 81.667 -46 101c-20 12.667 -47.333 19 -82 19h-242z" />
    <glyph glyph-name="S" unicode="S" horiz-adv-x="710" 
d="M600 508l-90.001 -0.00195312c0 51.333 -19.667 89.666 -59 114.999c-32 20.667 -71.667 31 -119 31c-44 0 -79 -7 -105 -21c-39.333 -20.667 -59 -55.667 -59 -105c0 -27.333 8.66699 -48.666 26 -63.999c12.667 -11.333 32 -20 58 -26l206 -48
c50 -12 88.333 -32.333 115 -61c31.333 -33.333 47 -77 47 -131c0 -77.333 -31.333 -135 -94 -173c-49.333 -30 -111.333 -45 -186 -45c-59.333 0 -108.333 8 -147 24c-23.333 9.33301 -47 24.666 -71 45.999c-27.333 25.333 -46.166 52.833 -56.499 82.5
s-15.5 62.834 -15.5 99.501h90c0 -59.333 21.333 -103.666 64 -132.999c34 -23.333 78.667 -35 134 -35c64 0 112.667 12.333 146 37c28 20.667 42 49 42 85c0 36.667 -10.167 63.167 -30.5 79.5s-60.833 31.833 -121.5 46.5l-148 34c-39.333 10 -70.333 24 -93 42
c-39.333 30.667 -59 73.334 -59 128.001c0 62 19 113 57 153c44 46 107 69 189 69c110 0 188 -28.333 234 -85c30.667 -38 46 -86.333 46 -145z" />
    <glyph glyph-name="T" unicode="T" horiz-adv-x="642" 
d="M14 632v86h584v-86h-244v-632h-96v632h-244z" />
    <glyph glyph-name="U" unicode="U" horiz-adv-x="722" 
d="M542 718l96 0.000976562v-466c0 -78.667 -23.333 -142.334 -70 -191.001c-51.333 -54 -124 -81 -218 -81c-91.333 0 -161.666 26.333 -210.999 79c-43.333 46.667 -65 107 -65 181v478h96v-452c0 -71.333 19.333 -123.666 58 -156.999
c31.333 -27.333 72.666 -41 123.999 -41c54 0 97 13 129 39c40.667 33.333 61 85.666 61 156.999v454z" />
    <glyph glyph-name="V" unicode="V" horiz-adv-x="710" 
d="M538 718h110l-262 -718h-104l-262 718h108l206 -612z" />
    <glyph glyph-name="W" unicode="W" horiz-adv-x="990" 
d="M306 0h-102l-188 718h106l134 -584l162 584h106l162 -584l136 584h106l-188 -718h-102l-164 596z" />
    <glyph glyph-name="X" unicode="X" horiz-adv-x="710" 
d="M396 368l252 -368h-120l-192 296l-200 -296h-116l256 368l-240 350h122l182 -274l182 274h116z" />
    <glyph glyph-name="Y" unicode="Y" horiz-adv-x="710" 
d="M382 290v-290h-96v290l-272 428h114l206 -344l206 344h114z" />
    <glyph glyph-name="Z" unicode="Z" horiz-adv-x="642" 
d="M588 86v-86h-564v82l440 550h-408v86h532v-84l-442 -548h442z" />
    <glyph glyph-name="bracketleft" unicode="[" horiz-adv-x="294" 
d="M142 652v-778h108v-70h-186v918h186v-70h-108z" />
    <glyph glyph-name="backslash" unicode="\" horiz-adv-x="294" 
d="M244 -20l-246 758h68l246 -758h-68z" />
    <glyph glyph-name="bracketright" unicode="]" horiz-adv-x="294" 
d="M136 -126v778h-108v70h188v-918h-188v70h108z" />
    <glyph glyph-name="asciicircum" unicode="^" horiz-adv-x="496" 
d="M484 264h-78l-170 344l-172 -344h-78l214 424h72z" />
    <glyph glyph-name="underscore" unicode="_" horiz-adv-x="586" 
d="M556 -126h-556v50h556v-50z" />
    <glyph glyph-name="grave" unicode="`" horiz-adv-x="360" 
d="M144 594l-130 140h108l90 -140h-68z" />
    <glyph glyph-name="a" unicode="a" horiz-adv-x="574" 
d="M144 364l-82 0.00195312c0 60 20 104.667 60 134c36.667 26.667 88.667 40 156 40c42.667 0 80 -7.33301 112 -22c54.667 -24.667 82 -66 82 -124v-300c0 -21.333 10 -32 30 -32l28 4v-64l-23.5 -6.5c-8.33301 -2.33301 -16.5 -3.5 -24.5 -3.5
c-35.333 0 -60.333 8.33301 -75 25c-11.333 12.667 -17 31 -17 55c-23.333 -24.667 -46.333 -43.334 -69 -56.001c-36 -20 -76.333 -30 -121 -30c-48 0 -87.333 14 -118 42s-46 64.667 -46 110c0 35.333 8.33301 65.666 25 90.999c26.667 40.667 71.667 65 135 73l144 18
c14 1.33301 24.333 5.33301 31 12c10 10 15 26.667 15 50c0 57.333 -40.667 86 -122 86c-43.333 0 -75 -12 -95 -36c-12 -14.667 -20.333 -36.667 -25 -66zM384 182.002l-0.000976562 86.001c-7.33301 -6.66699 -20.333 -12.334 -39 -17.001s-51.167 -10 -97.5 -16
s-77.833 -16 -94.5 -30s-25 -32.333 -25 -55c0 -30 7.5 -52.833 22.5 -68.5s38.833 -23.5 71.5 -23.5c42.667 0 80.334 12 113.001 36s49 53.333 49 88z" />
    <glyph glyph-name="b" unicode="b" horiz-adv-x="586" 
d="M142 0l-83.998 0.000976562v718h88v-260c39.333 53.333 90.666 80 153.999 80c67.333 0 121 -25 161 -75c38 -47.333 57 -109 57 -185c0 -76.667 -16 -141.334 -48 -194.001c-40.667 -66.667 -101.334 -100 -182.001 -100c-40 0 -73 9.66699 -99 29
c-16 12 -31 29.667 -45 53zM426.002 264.001c0 52 -6.66504 92.667 -19.998 122c-22.667 49.333 -63.334 74 -122.001 74c-56.667 0 -96.334 -26.333 -119.001 -79c-15.333 -35.333 -23 -83 -23 -143c0 -62 17 -108.667 51 -140c26 -24 57 -36 93 -36
c46.667 0 81.667 18.333 105 55s35 85.667 35 147z" />
    <glyph glyph-name="c" unicode="c" horiz-adv-x="530" 
d="M478 348h-86c-5.33301 35.333 -18.333 62.833 -39 82.5s-49 29.5 -85 29.5c-49.333 0 -86.666 -21 -111.999 -63c-21.333 -36 -32 -81 -32 -135c0 -56.667 8.66699 -101.334 26 -134.001c23.333 -44 62.666 -66 117.999 -66c29.333 0 55.666 11 78.999 33
s38.333 52.333 45 91h86c-6 -52.667 -23.667 -96.667 -53 -132c-38.667 -46.667 -92.334 -70 -161.001 -70c-72 0 -129 24.5 -171 73.5s-63 112.5 -63 190.5c0 86.667 20 155.334 60 206.001c44 56 108 84 192 84c62.667 0 111.334 -20.333 146.001 -61
c28.667 -33.333 45.334 -76.333 50.001 -129z" />
    <glyph glyph-name="d" unicode="d" horiz-adv-x="586" 
d="M500 718v-717.999h-84v72c-18 -32 -41.667 -55.333 -71 -70c-23.333 -12 -49.666 -18 -78.999 -18c-80.667 0 -141.334 33 -182.001 99c-32 52 -48 117 -48 195c0 76 19.167 138.333 57.5 187s91.833 73 160.5 73c41.333 0 76.333 -10.667 105 -32
c14.667 -10.667 31.667 -29.334 51 -56.001l2 6v262h88zM126 264.001c0 -60 12.167 -108.667 36.5 -146s59.5 -56 105.5 -56c36 0 66.667 11.667 92 35c33.333 30.667 50 77.667 50 141c0 60 -7.33301 107.333 -22 142c-22.667 53.333 -62 80 -118 80
c-59.333 0 -100.333 -24.333 -123 -73c-14 -30 -21 -71 -21 -123z" />
    <glyph glyph-name="e" unicode="e" horiz-adv-x="586" 
d="M422 164l87.9971 -0.00195312c-3.33301 -20 -11 -41 -23 -63c-18 -33.333 -41.667 -59.666 -71 -78.999c-18 -12 -34 -20.333 -48 -25c-25.333 -8.66699 -56.666 -13 -93.999 -13c-72 0 -129 24.5 -171 73.5s-63 112.5 -63 190.5c0 86.667 20 155.334 60 206.001
c44 56 108 84 192 84c73.333 0 129 -27.167 167 -81.5s57 -128.5 57 -222.5h-382c0 -55.333 12.833 -97.833 38.5 -127.5s63.5 -44.5 113.5 -44.5c38.667 0 71.334 12 98.001 36c22.667 20.667 35.334 42.667 38.001 66zM133.997 303.998l292 -0.000976562
c0 44.667 -11 80.667 -33 108c-25.333 32 -63 48 -113 48c-40 0 -74.333 -15.667 -103 -47s-43 -67.666 -43 -108.999z" />
    <glyph glyph-name="f" unicode="f" horiz-adv-x="294" 
d="M262 450h-88.001v-450h-88v450h-72v74h72v90c0 76 45.333 114 136 114h18.5c5.66699 0 12.834 -0.666992 21.501 -2v-78l-36 2c-34.667 0 -52 -20.667 -52 -62v-64h88v-74z" />
    <glyph glyph-name="g" unicode="g" horiz-adv-x="586" 
d="M132 264c0 -60.667 11.833 -109.499 35.5 -146.499s58.5 -55.5 104.5 -55.5c36.667 0 67.667 11.667 93 35c34 31.333 51 78.333 51 141c0 59.333 -7.66699 106.666 -23 141.999c-23.333 53.333 -63 80 -119 80c-59.333 0 -100 -24.333 -122 -73
c-13.333 -29.333 -20 -70.333 -20 -123zM500 524.001l-0.000976562 -480c0 -68.667 -10.333 -122 -31 -160c-37.333 -69.333 -108.333 -104 -213 -104c-46 0 -84.667 8.33301 -116 25c-48 26 -76 69.667 -84 131h88c5.33301 -27.333 18.166 -48.166 38.499 -62.499
s46.833 -21.5 79.5 -21.5c64 0 107.333 22 130 66c13.333 26 20 64 20 114v28l-2 -4c-13.333 -21.333 -30.666 -38 -51.999 -50c-25.333 -14.667 -54.666 -22 -87.999 -22c-80.667 0 -141.334 33 -182.001 99c-32 52 -48 117 -48 195c0 75.333 19.5 137.5 58.5 186.5
s92.167 73.5 159.5 73.5c42 0 77.333 -10.667 106 -32c16.667 -12.667 33.334 -31.334 50.001 -56.001l2 74h84z" />
    <glyph glyph-name="h" unicode="h" horiz-adv-x="586" 
d="M492 356l-0.000976562 -356h-88v342c0 40 -6.66699 68.667 -20 86c-16 21.333 -44 32 -84 32c-41.333 0 -74.666 -12.333 -99.999 -37c-30.667 -30 -46 -75.667 -46 -137v-286h-88v718h88v-264c20 24.667 38.333 42.667 55 54c29.333 20 62.333 30 99 30
c51.333 0 92.333 -11.333 123 -34c40.667 -30 61 -79.333 61 -148z" />
    <glyph glyph-name="i" unicode="i" horiz-adv-x="238" 
d="M156 524v-524h-88v524h88zM156 618h-88v100h88v-100z" />
    <glyph glyph-name="j" unicode="j" horiz-adv-x="238" 
d="M156 524v-602.001c0 -35.333 -6 -62.666 -18 -81.999c-20.667 -33.333 -59.334 -50 -116.001 -50h-14h-12c-5.33301 1.33301 -9.33301 2 -12 2v76h18c26.667 0 44.334 3.66699 53.001 11s13 25 13 53v592h88zM156 717.999v-100h-88v100h88z" />
    <glyph glyph-name="k" unicode="k" horiz-adv-x="530" 
d="M290 328l212 -328h-114l-162 264l-74 -66v-198h-84v718h84v-416l226 222h112z" />
    <glyph glyph-name="l" unicode="l" horiz-adv-x="238" 
d="M156 718v-718h-88v718h88z" />
    <glyph glyph-name="m" unicode="m" horiz-adv-x="878" 
d="M66 0v524h82v-74c18.667 24 36.334 42 53.001 54c31.333 22.667 67 34 107 34c31.333 0 58 -6.16699 80 -18.5s42 -34.166 60 -65.499c26.667 29.333 48.667 49.333 66 60c26 16 57.333 24 94 24c40 0 74 -10.667 102 -32c40 -30.667 60 -78.667 60 -144v-362h-88v338
c0 39.333 -6.66699 68.666 -20 87.999c-16 22.667 -42 34 -78 34s-65.333 -13.833 -88 -41.5s-34 -60.5 -34 -98.5v-320h-88v362c0 26 -5.66699 47.667 -17 65c-14.667 22 -36.334 33 -65.001 33c-34 0 -63 -11 -87 -33c-34 -30.667 -51 -77.667 -51 -141v-286h-88z" />
    <glyph glyph-name="n" unicode="n" horiz-adv-x="586" 
d="M492 356v-356h-88v322c0 48 -7.66699 82.333 -23 103c-17.333 23.333 -47 35 -89 35c-34 0 -63 -11 -87 -33c-34 -30.667 -51 -77.667 -51 -141v-286h-88v524h82v-74c18.667 23.333 36.667 41.333 54 54c32 22.667 67.333 34 106 34c51.333 0 92.333 -11.333 123 -34
c40.667 -30 61 -79.333 61 -148z" />
    <glyph glyph-name="o" unicode="o" horiz-adv-x="576" 
d="M36 262c0 75.333 19.333 138.333 58 189c44 58 105.333 87 184 87s140.334 -29 185.001 -87c39.333 -51.333 59 -114.333 59 -189c0 -74 -19.667 -136.667 -59 -188c-44.667 -58.667 -106.334 -88 -185.001 -88c-78 0 -139 29 -183 87
c-39.333 51.333 -59 114.333 -59 189zM126 262c0 -49.333 9.33301 -91.333 28 -126c26.667 -49.333 68 -74 124 -74c55.333 0 96.333 24.333 123 73c19.333 35.333 29 77.666 29 126.999s-9.33301 91.333 -28 126c-26.667 49.333 -68 74 -124 74
c-55.333 0 -96.333 -24.333 -123 -73c-19.333 -35.333 -29 -77.666 -29 -126.999z" />
    <glyph glyph-name="p" unicode="p" horiz-adv-x="586" 
d="M142 238c0 -62 17.002 -108.667 51.002 -140c26 -24 57 -36 93 -36c46.667 0 81.667 18.333 105 55s35 85.667 35 147c0 52 -6.66699 92.667 -20 122c-22.667 49.333 -63.334 74 -122.001 74c-56.667 0 -96.334 -26.333 -119.001 -79c-15.333 -35.333 -23 -83 -23 -143z
M58.002 -208l0.000976562 732.002h84v-74c18.667 25.333 35.667 43.666 51 54.999c30 22 65.667 33 107 33c67.333 0 121 -25 161 -75c38 -47.333 57 -109 57 -185c0 -76.667 -16 -141.334 -48 -194.001c-40.667 -66.667 -101.334 -100 -182.001 -100
c-33.333 0 -61.5 6.5 -84.5 19.5s-41.5 30.5 -55.5 52.5l-2 -264h-88z" />
    <glyph glyph-name="q" unicode="q" horiz-adv-x="586" 
d="M494 524l-0.000976562 -731.999h-88v264c-13.333 -21.333 -30.666 -38 -51.999 -50c-25.333 -14.667 -54.666 -22 -87.999 -22c-80.667 0 -141.334 33 -182.001 99c-32 52 -48 117 -48 195c0 76 19.167 138.333 57.5 187s91.833 73 160.5 73
c41.333 0 76.333 -10.667 105 -32c14.667 -10.667 31.667 -29.334 51 -56.001l2 74h82zM409.999 238.001c0 60 -7.33301 107.333 -22 142c-22.667 53.333 -62 80 -118 80c-59.333 0 -100.333 -24.333 -123 -73c-14 -30 -21 -71 -21 -123c0 -60 12.167 -108.667 36.5 -146
s59.5 -56 105.5 -56c36 0 66.667 11.667 92 35c33.333 30.667 50 77.667 50 141z" />
    <glyph glyph-name="r" unicode="r" horiz-adv-x="360" 
d="M166 304v-304.001h-88v524h82v-88c20 32.667 41.333 57.334 64 74.001c25.333 18.667 54 28 86 28c10.667 0 18 -0.666992 22 -2v-92h-32c-40 0 -72.333 -13.333 -97 -40s-37 -60 -37 -100z" />
    <glyph glyph-name="s" unicode="s" horiz-adv-x="530" 
d="M448 374h-85.999c0 23.333 -6.66699 42 -20 56c-20.667 21.333 -55.334 32 -104.001 32c-32 0 -57.333 -6.83301 -76 -20.5s-28 -31.5 -28 -53.5c0 -20 7.33301 -34.667 22 -44c11.333 -7.33301 36 -16 74 -26l88 -22c53.333 -12.667 91 -29.667 113 -51
s33 -50.333 33 -87c0 -53.333 -19.167 -95.666 -57.5 -126.999s-87.833 -47 -148.5 -47c-91.333 0 -155 22.667 -191 68c-23.333 29.333 -35 68 -35 116h86c0 -38 13 -65.667 39 -83c23.333 -15.333 56.333 -23 99 -23c34.667 0 62.667 6.33301 84 19
c24 14.667 36 35.667 36 63c0 20 -7.16699 35 -21.5 45s-41.833 20.333 -82.5 31l-102 24c-38.667 10 -67.667 24.333 -87 43c-22 21.333 -33 49.666 -33 84.999c0 54 20 96 60 126c35.333 26.667 81.333 40 138 40c62 0 110.833 -15.333 146.5 -46s53.5 -70 53.5 -118z" />
    <glyph glyph-name="t" unicode="t" horiz-adv-x="294" 
d="M258 450h-83.999v-340c0 -17.333 6.33301 -29 19 -35c7.33301 -3.33301 18.333 -5 33 -5h32v-70l-66 -8c-40.667 0 -69.334 11 -86.001 33c-13.333 17.333 -20 44.333 -20 81v344h-72v74h72v146h88v-146h84v-74z" />
    <glyph glyph-name="u" unicode="u" horiz-adv-x="586" 
d="M490 0l-84 0.000976562v76l-2 2c-18.667 -31.333 -41 -54.833 -67 -70.5s-59 -23.5 -99 -23.5c-45.333 0 -83 11.333 -113 34c-38 28.667 -57 72 -57 130v376h88v-348c0 -40.667 9.66699 -70.334 29 -89.001c16.667 -16.667 41 -25 73 -25c50 0 87.667 19.333 113 58
c20.667 31.333 31 70 31 116v288h88v-524z" />
    <glyph glyph-name="v" unicode="v" horiz-adv-x="530" 
d="M396 524h96l-198 -524h-94l-192 524h102l136 -426z" />
    <glyph glyph-name="w" unicode="w" horiz-adv-x="766" 
d="M256 0h-90l-152 524h96l100 -412l104 412h98l102 -412l108 412h88l-152 -524h-92l-106 406z" />
    <glyph glyph-name="x" unicode="x" horiz-adv-x="530" 
d="M306 270l184 -270h-112l-130 198l-126 -198h-110l184 270l-176 254h114l120 -184l122 184h108z" />
    <glyph glyph-name="y" unicode="y" horiz-adv-x="530" 
d="M392 524l97.999 0.000976562l-91.5 -255l-96.5 -259c-42 -106 -72.833 -169.833 -92.5 -191.5s-57.5 -32.5 -113.5 -32.5c-5.33301 0 -9.66602 0.333008 -12.999 1c-10 3.33301 -17.667 5.66602 -23 6.99902v80c5.33301 -2 12.833 -4.16699 22.5 -6.5
s19.5 -3.5 29.5 -3.5c22 0 37.667 6.33301 47 19s25 47 47 103l-194 538h100l138 -426z" />
    <glyph glyph-name="z" unicode="z" horiz-adv-x="530" 
d="M460 452l-312 -378h322v-74h-438v70l314 380h-290v74h404v-72z" />
    <glyph glyph-name="braceleft" unicode="{" horiz-adv-x="360" 
d="M42 234l-0.00195312 59.999c22.667 0 42 12.167 58 36.5s24 54.833 24 91.5v172c0 39.333 10 70.5 30 93.5s44 34.5 72 34.5h66v-64h-44c-16 0 -27.667 -7.33301 -35 -22s-11 -34.667 -11 -60v-170c0 -42.667 -12 -77.667 -36 -105
c-17.333 -20 -34.666 -31.667 -51.999 -35c12.667 -4.66699 24.667 -12 36 -22c34.667 -29.333 52 -70.666 52 -123.999v-170c0 -24 3.66699 -43.667 11 -59s19 -23 35 -23h44v-64h-66c-27.333 0 -50.666 11 -69.999 33c-21.333 24 -32 55.667 -32 95v172
c0 38 -7.83301 69.167 -23.5 93.5s-35.167 36.5 -58.5 36.5z" />
    <glyph glyph-name="bar" unicode="|" horiz-adv-x="282" 
d="M94 -20v758h74v-758h-74z" />
    <glyph glyph-name="braceright" unicode="}" horiz-adv-x="360" 
d="M292 294l0.000976562 -59.998c-23.333 0 -42.5 -12.167 -57.5 -36.5s-22.5 -55.5 -22.5 -93.5v-172c0 -39.333 -10.167 -70.5 -30.5 -93.5s-44.166 -34.5 -71.499 -34.5h-68v64h44c16.667 0 28.5 7.5 35.5 22.5s10.5 34.833 10.5 59.5v170c0 45.333 12 81.666 36 108.999
c15.333 17.333 32.666 29 51.999 35c-11.333 3.33301 -23.333 10.333 -36 21c-34.667 29.333 -52 69.666 -52 120.999v170c0 25.333 -3 44.333 -9 57c-8 16.667 -20.333 25 -37 25h-44v64h68c27.333 0 51.166 -11.5 71.499 -34.5s30.5 -54.167 30.5 -93.5v-172
c0 -38 7.33301 -68.833 22 -92.5s34 -35.5 58 -35.5z" />
    <glyph glyph-name="asciitilde" unicode="~" horiz-adv-x="620" 
d="M488 326l36.001 -55.998c-16.667 -26 -35.5 -46.833 -56.5 -62.5s-44.167 -23.5 -69.5 -23.5c-12.667 0 -26.167 2.16699 -40.5 6.5s-34.833 13.5 -61.5 27.5c-20 11.333 -37 19.333 -51 24c-19.333 6.66699 -40.333 10 -63 10c-20 0 -37.333 -7.33301 -52 -22
c-12 -12 -22.667 -28.667 -32 -50l-36 56c13.333 26 28.333 45.667 45 59c22 18 48.333 27 79 27c16 0 33.333 -2.83301 52 -8.5s38.667 -13.5 60 -23.5c25.333 -10.667 46.666 -19.334 63.999 -26.001s30 -10 38 -10c17.333 0 34 7.66699 50 23
c7.33301 7.33301 20 23.666 38 48.999z" />
    <glyph glyph-name="c128" horiz-adv-x="294" 
 />
    <glyph glyph-name="c129" horiz-adv-x="294" 
 />
    <glyph glyph-name="c141" horiz-adv-x="294" 
 />
    <glyph glyph-name="c142" horiz-adv-x="294" 
 />
    <glyph glyph-name="c143" horiz-adv-x="294" 
 />
    <glyph glyph-name="c144" horiz-adv-x="294" 
 />
    <glyph glyph-name="c157" horiz-adv-x="944" 
d="M519 303l292 -0.000976562c0 45.333 -10.667 81.333 -32 108c-25.333 32 -63.333 48 -114 48c-40 0 -74.333 -15.667 -103 -47s-43 -67.666 -43 -108.999zM807 163.999l87.998 -0.000976562c-2.66699 -19.333 -10 -40.666 -22 -63.999c-17.333 -32.667 -41 -59 -71 -79
c-16.667 -11.333 -32.667 -19.333 -48 -24c-25.333 -8 -56.666 -12 -93.999 -12c-39.333 0 -75.5 8 -108.5 24s-61.5 41.667 -85.5 77c-16 -31.333 -39.833 -55.833 -71.5 -73.5s-70.5 -26.5 -116.5 -26.5c-78.667 0 -140 29 -184 87c-39.333 51.333 -59 114.333 -59 189
c0 75.333 19.333 138.333 58 189c44 58 105.667 87 185 87c88 0 153.333 -35.333 196 -106c24.667 37.333 53 64.333 85 81s71.333 25 118 25c74 0 130 -27.167 168 -81.5s57 -128.833 57 -223.5h-383c0 -55.333 12.833 -97.833 38.5 -127.5s63.834 -44.5 114.501 -44.5
c38 0 71 12.333 99 37c24 21.333 36 43.333 36 66zM125.998 261.998c0 -49.333 9.33301 -91.333 28 -126c26.667 -49.333 68 -74 124 -74c55.333 0 96.333 24.333 123 73c19.333 35.333 29 77.666 29 126.999s-9.33301 91.333 -28 126c-26.667 49.333 -68 74 -124 74
c-55.333 0 -96.333 -24.333 -123 -73c-19.333 -35.333 -29 -77.666 -29 -126.999z" />
    <glyph glyph-name="c158" horiz-adv-x="294" 
 />
    <glyph glyph-name="nonbreakingspace" unicode="&#xa0;" horiz-adv-x="500" 
 />
    <glyph glyph-name="exclamdown" unicode="&#xa1;" horiz-adv-x="333" 
d="M118 421v102h97v-102h-97zM142 352h49l24 -310v-237h-97v237z" />
    <glyph glyph-name="cent" unicode="&#xa2;" horiz-adv-x="598" 
d="M224 78l108 381.999c-5.33301 1.33301 -14.666 2 -27.999 2c-45.333 0 -81.333 -17 -108 -51c-29.333 -37.333 -44 -92.333 -44 -165c0 -35.333 6.66699 -68.666 20 -99.999s30.666 -54 51.999 -68zM522 345.999h-82.001c-6.66699 25.333 -13 44 -19 56
c-12 22.667 -28.333 38 -49 46l-110 -386c6.66699 -2.66699 18 -4 34 -4c36 0 64.667 7.66699 86 23c27.333 20 46.666 54.333 57.999 103h86c-6.66699 -50 -25 -93 -55 -129c-41.333 -50 -98.333 -75 -171 -75c-10 0 -21 1.16699 -33 3.5s-21 3.83301 -27 4.5l-32 -104h-40
l34 114c-42 20 -74.667 49.667 -98 89c-26.667 44 -40 97 -40 159c0 94 21.333 166.167 64 216.5s103.334 75.5 182.001 75.5c18 0 32 -2 42 -6l26 92h40l-26 -100c26.667 -7.33301 51.334 -23 74.001 -47c32 -34 50.667 -77.667 56 -131z" />
    <glyph glyph-name="sterling" unicode="&#xa3;" horiz-adv-x="586" 
d="M204 380l167.999 -0.000976562v-62h-138c2 -8 3.83301 -18.5 5.5 -31.5s2.5 -24.5 2.5 -34.5c0 -30.667 -9.66699 -61.667 -29 -93c-21.333 -35.333 -51.666 -66.333 -90.999 -93l2 2c21.333 10.667 42.5 19 63.5 25s43.167 9 66.5 9c22 0 52.333 -5.66699 91 -17
s64.334 -17 77.001 -17c14 0 28 2.83301 42 8.5s25.333 12.834 34 21.501l42 -66c-42 -32 -84.667 -48 -128 -48c-18.667 0 -51.334 7.66699 -98.001 23s-83.334 23 -110.001 23c-18 0 -37 -3.83301 -57 -11.5s-40.333 -17.834 -61 -30.501l-48 70
c46 31.333 79.333 66.666 100 105.999c14.667 28.667 22 56 22 82c0 10.667 -2.16699 22.834 -6.5 36.501s-8.83301 25.5 -13.5 35.5h-106v62h68c-12 26 -19 41 -21 45c-14 33.333 -21 63 -21 89c0 52 17 96.333 51 133c44 47.333 109 71 195 71
c70.667 0 125.667 -22.333 165 -67c34 -38.667 51 -87 51 -145v-16h-88v10c0 41.333 -12.667 75.333 -38 102s-58.666 40 -99.999 40c-48.667 0 -86 -15.333 -112 -46c-20 -23.333 -30 -48.666 -30 -75.999c0 -18.667 4 -38.667 12 -60s20.667 -48 38 -80z" />
    <glyph glyph-name="currency" unicode="&#xa4;" horiz-adv-x="586" 
d="M480 604l48.001 -48.001l-54 -54c16.667 -20 29.167 -42.667 37.5 -68s12.5 -52.666 12.5 -81.999c0 -60 -16.667 -110.667 -50 -152l54 -56l-46 -44l-54 58c-19.333 -18 -42.166 -31.833 -68.499 -41.5s-53.5 -14.5 -81.5 -14.5c-28.667 0 -55.334 4.5 -80.001 13.5
s-47.334 23.167 -68.001 42.5l-56 -58l-44 44l54 56c-33.333 41.333 -50 92 -50 152c0 60.667 16.667 110.667 50 150l-56 54l48 48l58 -56c19.333 16 41.5 28.333 66.5 37s50.833 13 77.5 13c58 0 106.667 -16.667 146 -50zM106.001 351.999
c0 -48.667 16.833 -90.834 50.5 -126.501s74.167 -53.5 121.5 -53.5s87.833 17.833 121.5 53.5s50.5 77.834 50.5 126.501c0 47.333 -16.833 88.5 -50.5 123.5s-74.167 52.5 -121.5 52.5c-46.667 0 -87 -17.333 -121 -52s-51 -76 -51 -124z" />
    <glyph glyph-name="yen" unicode="&#xa5;" horiz-adv-x="586" 
d="M42 328v56h154l-192 304h100l174 -294l176 294h100l-194 -304h156v-56h-194v-86h194v-56h-194v-186h-88v186h-192v56h192v86h-192z" />
    <glyph glyph-name="brokenbar" unicode="&#xa6;" horiz-adv-x="260" 
d="M94 -19v294h73v-294h-73zM94 460v277h73v-277h-73z" />
    <glyph glyph-name="section" unicode="&#xa7;" horiz-adv-x="586" 
d="M460 554l-84.001 -0.00292969c0 28 -4.66699 50 -14 66c-16 28 -44.667 42 -86 42c-23.333 0 -43.333 -6 -60 -18c-21.333 -15.333 -32 -36.666 -32 -63.999c0 -17.333 6.33301 -33.333 19 -48c10.667 -12 29 -26 55 -42l146 -86c34.667 -20.667 60 -41.334 76 -62.001
c21.333 -27.333 32 -60 32 -98c0 -37.333 -10.667 -70.333 -32 -99c-15.333 -20.667 -38.666 -41 -69.999 -61c16.667 -18 29.5 -35.667 38.5 -53s13.5 -37.666 13.5 -60.999c0 -49.333 -19.333 -89.333 -58 -120c-35.333 -28 -76.666 -42 -123.999 -42
c-60 0 -106.667 14.667 -140 44c-37.333 32.667 -56 80.667 -56 144h88c0 -27.333 4.66699 -50 14 -68c15.333 -29.333 42.666 -44 81.999 -44c26.667 0 49 5 67 15c26 14.667 39 37.667 39 69c0 16.667 -4.33301 30.834 -13 42.501s-23 24.167 -43 37.5l-210 140
c-17.333 12 -31.666 27.333 -42.999 46c-14 24 -21 49.333 -21 76c0 39.333 9.33301 72 28 98c14.667 20.667 38.667 40.667 72 60c-18 19.333 -30.5 35.833 -37.5 49.5s-10.5 30.5 -10.5 50.5c0 42.667 13.667 80 41 112c33.333 38.667 79.666 58 138.999 58
c50 0 90.667 -12 122 -36c41.333 -31.333 62 -80.666 62 -147.999zM367.999 321.997l-173.999 106.002c-21.333 -10.667 -38 -23.834 -50 -39.501s-18 -34.5 -18 -56.5c0 -24 5.66699 -44 17 -60c7.33301 -10.667 17 -19.334 29 -26.001l188 -122
c23.333 16 39.666 29.667 48.999 41c14 17.333 21 37.666 21 60.999c0 20 -5.5 37.833 -16.5 53.5s-26.167 29.834 -45.5 42.501z" />
    <glyph glyph-name="dieresis" unicode="&#xa8;" 
d="M-481 874c0 30.667 10.5 56.5 31.5 77.5s46.833 31.5 77.5 31.5c30 0 55.667 -10.667 77 -32s32 -47 32 -77s-10.667 -55.667 -32 -77s-47 -32 -77 -32s-55.667 10.333 -77 31s-32 46.667 -32 78zM-436 874c0 -19.333 6.16699 -34.833 18.5 -46.5s27.5 -17.5 45.5 -17.5
s33.167 6.16699 45.5 18.5s18.5 27.5 18.5 45.5s-6.16699 33.167 -18.5 45.5s-27.5 18.5 -45.5 18.5c-17.333 0 -32.333 -6.33301 -45 -19s-19 -27.667 -19 -45z" />
    <glyph glyph-name="copyright" unicode="&#xa9;" horiz-adv-x="802" 
d="M394 -20c-105.333 0 -195.667 36.333 -271 109s-113 163 -113 271c0 107.333 37.5 197.166 112.5 269.499s165.5 108.5 271.5 108.5c104.667 0 194.5 -36.167 269.5 -108.5s112.5 -162.166 112.5 -269.499c0 -108 -37.333 -198.333 -112 -271s-164.667 -109 -270 -109z
M85.999 360c0 -90.667 29.667 -166 89 -226s132.333 -90 219 -90s159.334 30 218.001 90s88 135.333 88 226c0 89.333 -29.333 164 -88 224s-131.334 90 -218.001 90s-159.667 -30 -219 -90s-89 -134.667 -89 -224zM525.999 290l68 0.000976562
c-10 -49.333 -32 -88.666 -66 -117.999s-74 -44 -120 -44c-67.333 0 -121.5 22.167 -162.5 66.5s-61.5 100.166 -61.5 167.499c0 66.667 20 121.667 60 165s93.333 65 160 65c50 0 92.167 -13.333 126.5 -40s54.833 -65.334 61.5 -116.001h-66
c-6 27.333 -19.833 49.166 -41.5 65.499s-48.5 24.5 -80.5 24.5c-46 0 -81.5 -15 -106.5 -45s-37.5 -69.667 -37.5 -119c0 -47.333 13.333 -87.166 40 -119.499s62.667 -48.5 108 -48.5c30 0 55.833 9 77.5 27s35.167 41 40.5 69z" />
    <glyph glyph-name="ordfeminine" unicode="&#xaa;" horiz-adv-x="624" 
d="M99 596h440v-452h-440v452z" />
    <glyph glyph-name="guillemotleft" unicode="&#xab;" horiz-adv-x="586" 
d="M254 196v-88l-156 124v92l156 122v-88l-104 -80zM460 196v-88l-158 124v92l158 122v-88l-106 -80z" />
    <glyph glyph-name="logicalnot" unicode="&#xac;" horiz-adv-x="1000" 
d="M517 230v262.001c0 49.333 -16 88.666 -48 117.999s-73.667 44 -125 44c-83.333 0 -142 -40.333 -176 -121c-21.333 -51.333 -32 -116 -32 -194c0 -58 8.66699 -108.5 26 -151.5s40.333 -74.333 69 -94s70.667 -29.5 126 -29.5c39.333 0 74 12.333 104 37
c37.333 30.667 56 73.667 56 129zM523 718.001h439.999v-86h-349v-220h333v-86h-333v-240h351v-86h-443v75c-25.333 -31.333 -46.666 -52.333 -63.999 -63c-32.667 -20.667 -75.667 -31 -129 -31c-92 0 -163.833 34.667 -215.5 104s-77.5 159.333 -77.5 270
c0 94 19.667 175 59 243c54 92.667 136.667 139 248 139c51.333 0 94 -12 128 -36c19.333 -13.333 36 -32 50 -56z" />
    <glyph glyph-name="minus" unicode="&#xad;" horiz-adv-x="360" 
d="M290 322v-90h-246v90h246z" />
    <glyph glyph-name="registered" unicode="&#xae;" horiz-adv-x="802" 
d="M394 -20c-105.333 0 -195.667 36.333 -271 109s-113 163 -113 271c0 107.333 37.5 197.166 112.5 269.499s165.5 108.5 271.5 108.5c104.667 0 194.5 -36.167 269.5 -108.5s112.5 -162.166 112.5 -269.499c0 -108 -37.333 -198.333 -112 -271s-164.667 -109 -270 -109z
M85.999 360c0 -90.667 29.667 -166 89 -226s132.333 -90 219 -90s159.334 30 218.001 90s88 135.333 88 226c0 89.333 -29.333 164 -88 224s-131.334 90 -218.001 90s-159.667 -30 -219 -90s-89 -134.667 -89 -224zM313.999 330v-187.999h-66v436h166
c52.667 0 91.5 -9.83301 116.5 -29.5s37.5 -51.167 37.5 -94.5c0 -36.667 -10.167 -64.834 -30.5 -84.501s-47.5 -31.5 -81.5 -35.5l124 -192h-74l-116 188h-76zM313.999 386.001l80.001 -0.000976562c44.667 0 73.5 5.83301 86.5 17.5s19.5 29.834 19.5 54.501
s-8.83301 41.5 -26.5 50.5s-40.834 13.5 -69.501 13.5h-90v-136z" />
    <glyph glyph-name="macron" unicode="&#xaf;" horiz-adv-x="360" 
d="M324 684v-56h-314v56h314z" />
    <glyph glyph-name="degree" unicode="&#xb0;" horiz-adv-x="882" 
d="M449 616c70 0 126.667 -22.667 170 -68s65 -101 65 -167s-21.667 -121.333 -65 -166s-100 -67 -170 -67c-68.667 0 -124.5 22.5 -167.5 67.5s-64.5 100.167 -64.5 165.5s21.5 120.833 64.5 166.5s98.833 68.5 167.5 68.5z" />
    <glyph glyph-name="plusminus" unicode="&#xb1;" horiz-adv-x="620" 
d="M256 346v160h74v-160h216v-74h-216v-160h-74v160h-216v74h216zM40 0v74h506v-74h-506z" />
    <glyph glyph-name="twosuperior" unicode="&#xb2;" horiz-adv-x="360" 
d="M80 552l-60 -0.000976562c0 60 20 102.667 60 128c25.333 16 58 24 98 24c42.667 0 77.667 -11.333 105 -34s41 -53.334 41 -92.001c0 -27.333 -6.66699 -50.666 -20 -69.999c-16 -23.333 -49.333 -47.333 -100 -72l-44 -24c-22 -11.333 -39.667 -23 -53 -35
c-9.33301 -8.66699 -18.333 -20.334 -27 -35.001h244v-60h-320c0 40.667 10 75.334 30 104.001c16 23.333 40.667 44 74 62l60 34c33.333 18 54 30.667 62 38c16 14.667 24 34.667 24 60v4c0 16.667 -6 30.334 -18 41.001c-15.333 14 -37.333 21 -66 21
c-36 0 -61.333 -12.333 -76 -37c-9.33301 -16 -14 -35 -14 -57z" />
    <glyph glyph-name="threesuperior" unicode="&#xb3;" horiz-adv-x="360" 
d="M6 410l67.999 -0.00292969c0 -22.667 4.66699 -40.334 14 -53.001c14 -19.333 38 -29 72 -29c30 0 53.5 5.83301 70.5 17.5s25.5 29.834 25.5 54.501c0 30.667 -12.333 51.334 -37 62.001c-15.333 6.66699 -37.666 10 -66.999 10h-22v50h26
c25.333 0 44.333 4.33301 57 13c16.667 11.333 25 29.666 25 54.999c0 14.667 -4.33301 26.334 -13 35.001c-13.333 14 -35.666 21 -66.999 21c-30 0 -51.667 -9 -65 -27c-10 -13.333 -15 -31 -15 -53h-62c0 37.333 10.333 68 31 92c26 30.667 66.333 46 121 46
c43.333 0 77.5 -10.5 102.5 -31.5s37.5 -47.833 37.5 -80.5c0 -24.667 -6.66699 -45 -20 -61c-10.667 -13.333 -23.334 -21.666 -38.001 -24.999c23.333 -7.33301 41.833 -19.166 55.5 -35.499s20.5 -37.833 20.5 -64.5c0 -37.333 -13 -68.333 -39 -93
c-30.667 -28.667 -73.667 -43 -129 -43c-31.333 0 -59.333 6.66699 -84 20c-23.333 11.333 -40.5 27.5 -51.5 48.5s-16.5 44.833 -16.5 71.5z" />
    <glyph glyph-name="acute" unicode="&#xb4;" 
d="M-374 804l66 94h80l-100 -142h-92l-100 142h80z" />
    <glyph glyph-name="mu" unicode="&#xb5;" horiz-adv-x="586" 
d="M490 0l-84 0.000976562v76l-2 2c-18.667 -31.333 -41 -54.833 -67 -70.5s-59 -23.5 -99 -23.5c-14 0 -26.667 2 -38 6c-17.333 6 -31.333 16 -42 30l-2 -228h-88v732h88v-348c0 -40.667 9.66699 -70.334 29 -89.001c16.667 -16.667 41 -25 73 -25
c50 0 87.667 19.333 113 58c20.667 31.333 31 70 31 116v288h88v-524z" />
    <glyph glyph-name="paragraph" unicode="&#xb6;" horiz-adv-x="430" 
d="M165 12v412.999c-51.333 0 -92.833 13.833 -124.5 41.5s-47.5 62.834 -47.5 105.501c0 51.333 16.167 89.5 48.5 114.5s77.833 37.5 136.5 37.5h199v-712h-59v664h-95v-664h-58z" />
    <glyph glyph-name="periodcentered" unicode="&#xb7;" horiz-adv-x="250" 
d="M125 385c15.333 0 28.167 -5.16699 38.5 -15.5s15.5 -23.166 15.5 -38.499c0 -14.667 -5.16699 -27.334 -15.5 -38.001s-23.166 -16 -38.499 -16c-14 0 -27 5 -39 15c-10 11.333 -15 24.333 -15 39c0 14 5.16699 26.5 15.5 37.5s23.166 16.5 38.499 16.5z" />
    <glyph glyph-name="periodcentered" unicode="&#x2219;" horiz-adv-x="250" 
d="M125 385c15.333 0 28.167 -5.16699 38.5 -15.5s15.5 -23.166 15.5 -38.499c0 -14.667 -5.16699 -27.334 -15.5 -38.001s-23.166 -16 -38.499 -16c-14 0 -27 5 -39 15c-10 11.333 -15 24.333 -15 39c0 14 5.16699 26.5 15.5 37.5s23.166 16.5 38.499 16.5z" />
    <glyph glyph-name="cedilla" unicode="&#xb8;" 
d="M-284 608l66 92h78l-98 -140h-94l-98 140h80z" />
    <glyph glyph-name="onesuperior" unicode="&#xb9;" horiz-adv-x="360" 
d="M152 578h-108v46c40 0 67.333 4.33301 82 13c18 10.667 31.333 33 40 67h56v-422h-70v296z" />
    <glyph glyph-name="ordmasculine" unicode="&#xba;" horiz-adv-x="664" 
d="M113 618h472v-489h-472v489zM157 576v-409h386v409h-386z" />
    <glyph glyph-name="guillemotright" unicode="&#xbb;" horiz-adv-x="586" 
d="M254 232l-156 -124v88l104 82l-104 80v88l156 -122v-92zM460 232l-158 -124v88l106 82l-106 80v88l158 -122v-92z" />
    <glyph glyph-name="onequarter" unicode="&#xbc;" horiz-adv-x="878" 
d="M420 94v60l206 268h64v-270h66v-58h-66v-94h-64v94h-206zM626 152v188l-144 -188h144zM654 704l-442 -724h-58l442 724h58zM182 580h-108v44c40 0 67.333 4.33301 82 13c18 10.667 31.333 33 40 67h54v-422h-68v298z" />
    <glyph glyph-name="onehalf" unicode="&#xbd;" horiz-adv-x="878" 
d="M618 704l-442 -724h-58l442 724h58zM152 578h-108v46c40 0 67.333 4.33301 82 13c18 10.667 31.333 33 40 67h56v-422h-70v296zM530 272l-60.001 -0.00195312c0 59.333 20 101.333 60 126c26 16 58.667 24 98 24c42.667 0 77.667 -11.333 105 -34s41 -53.334 41 -92.001
c0 -34.667 -11.667 -63.667 -35 -87c-15.333 -15.333 -43.666 -33.666 -84.999 -54.999l-44 -22c-22.667 -12.667 -40.334 -24.667 -53.001 -36c-8.66699 -8 -17.667 -19.333 -27 -34h244v-62h-320c0 41.333 10 76.333 30 105c16.667 24 41.334 45 74.001 63l60 32
c32 17.333 52.667 30.333 62 39c16 15.333 24 35 24 59v4c0 16.667 -6 30.334 -18 41.001c-15.333 14 -37.333 21 -66 21c-36 0 -61.333 -12.333 -76 -37c-9.33301 -15.333 -14 -33.666 -14 -54.999z" />
    <glyph glyph-name="threequarters" unicode="&#xbe;" horiz-adv-x="878" 
d="M474 94v60l206 268h64v-270h66v-58h-66v-94h-64v94h-206zM536 152h144v188zM712 704l-442 -724h-56l442 724h56zM46 410l67.999 -0.00292969c0 -22.667 4.66699 -40.334 14 -53.001c14 -19.333 38 -29 72 -29c30 0 53.5 5.83301 70.5 17.5s25.5 29.834 25.5 54.501
c0 30.667 -12.333 51.334 -37 62.001c-15.333 6.66699 -37.666 10 -66.999 10h-22v50h26c25.333 0 44.333 4.33301 57 13c16.667 11.333 25 29.666 25 54.999c0 14.667 -4.33301 26.334 -13 35.001c-13.333 14 -35.666 21 -66.999 21c-30 0 -51.667 -9 -65 -27
c-10 -13.333 -15 -31 -15 -53h-62c0 37.333 10.333 68 31 92c26 30.667 66.333 46 121 46c43.333 0 77.5 -10.5 102.5 -31.5s37.5 -47.833 37.5 -80.5c0 -24.667 -6.66699 -45 -20 -61c-10.667 -13.333 -23.334 -21.666 -38.001 -24.999
c23.333 -7.33301 41.833 -19.166 55.5 -35.499s20.5 -37.833 20.5 -64.5c0 -37.333 -13 -68.333 -39 -93c-30.667 -28.667 -73.667 -43 -129 -43c-31.333 0 -59.333 6.66699 -84 20c-23.333 11.333 -40.5 27.5 -51.5 48.5s-16.5 44.833 -16.5 71.5z" />
    <glyph glyph-name="questiondown" unicode="&#xbf;" horiz-adv-x="611" 
d="M439 33h88c0 -41.333 -4 -74 -12 -98c-11.333 -34.667 -33.666 -64.667 -66.999 -90c-18.667 -14.667 -41 -26 -67 -34s-52 -12 -78 -12c-59.333 0 -108.666 16.667 -147.999 50c-42.667 36 -64 84.667 -64 146c0 32 7 59.667 21 83
c11.333 19.333 35.666 46.666 72.999 81.999c28.667 27.333 47 46.666 55 57.999c21.333 28.667 32 70.334 32 125.001h88c0 -53.333 -7 -94.333 -21 -123c-10.667 -21.333 -35.334 -52 -74.001 -92c-29.333 -30.667 -47.333 -50 -54 -58c-17.333 -22 -26 -49 -26 -81
c0 -27.333 8 -51.333 24 -72c22 -28 54.333 -42 97 -42c54.667 0 92.667 21 114 63c12.667 24.667 19 56.334 19 95.001zM265 423v102h97v-102h-97z" />
    <glyph glyph-name="Agrave" unicode="&#xc0;" 
d="M-374 884l-66 -94h-80l100 142h92l100 -142h-80zM-208 912l-130 142h108l88 -142h-66z" />
    <glyph glyph-name="Aacute" unicode="&#xc1;" 
d="M-374 884l-66 -94h-80l100 142h92l100 -142h-80zM-60 1038l-130 -142h-66l88 142h108z" />
    <glyph glyph-name="Acircumflex" unicode="&#xc2;" 
d="M-374 884l-66 -94h-80l100 142h92l100 -142h-80z" />
    <glyph glyph-name="Atilde" unicode="&#xc3;" 
d="M-374 884l-66 -94h-80l100 142h92l100 -142h-80zM-252 1098l50.001 -0.000976562c-3.33301 -31.333 -13.833 -57.5 -31.5 -78.5s-40.5 -31.5 -68.5 -31.5c-14.667 0 -34 4.66699 -58 14l-26 8c-32 10.667 -52.667 16 -62 16c-12.667 0 -22.334 -3.5 -29.001 -10.5
s-12.334 -18.167 -17.001 -33.5h-48c4.66699 32.667 14.334 57.667 29.001 75c17.333 20.667 42.333 31 75 31c11.333 0 22.5 -1.16699 33.5 -3.5s22.5 -5.83301 34.5 -10.5l22 -10c8 -3.33301 16.667 -6.16602 26 -8.49902s16 -3.5 20 -3.5c17.333 0 30 5 38 15
c5.33301 6.66699 9.33301 17 12 31z" />
    <glyph glyph-name="Adieresis" unicode="&#xc4;" 
d="M-374 884l-66 -94h-80l100 142h92l100 -142h-80zM-330 -170h-88v100h88v-100z" />
    <glyph glyph-name="Aring" unicode="&#xc5;" 
d="M-374 884l-66 -94h-80l100 142h92l100 -142h-80zM-186 865h-56.999c0 25.333 2.66699 45.5 8 60.5s17.5 29.167 36.5 42.5s28.5 28.333 28.5 45c0 16 -4.33301 27.5 -13 34.5s-18.667 10.5 -30 10.5c-18 0 -30.5 -5 -37.5 -15s-10.5 -22.333 -10.5 -37l-64 -1
c0 36 11.667 63.333 35 82c20 16 44.333 24 73 24c25.333 0 47.666 -5 66.999 -15c32 -16.667 48 -43.667 48 -81c0 -17.333 -4.16699 -32 -12.5 -44s-22.333 -25 -42 -39s-29.5 -36.333 -29.5 -67z" />
    <glyph glyph-name="AE" unicode="&#xc6;" horiz-adv-x="294" 
d="M188 718v-718h-96v718h96zM174 755h-56.999c0 25.333 2.66699 45.5 8 60.5s17.5 29.167 36.5 42.5s28.5 28.333 28.5 45c0 16 -4.33301 27.5 -13 34.5s-18.667 10.5 -30 10.5c-18 0 -30.5 -5 -37.5 -15s-10.5 -22.333 -10.5 -37l-64 -1c0 36 11.667 63.333 35 82
c20 16 44.333 24 73 24c25.333 0 47.666 -5 66.999 -15c32 -16.667 48 -43.667 48 -81c0 -17.333 -4.16699 -32 -12.5 -44s-22.333 -25 -42 -39s-29.5 -36.333 -29.5 -67z" />
    <glyph glyph-name="Ccedilla" unicode="&#xc7;" horiz-adv-x="766" 
d="M674 502l-93.9961 -0.000976562c-11.333 56 -39.333 96.667 -84 122c-32.667 18.667 -71.334 28 -116.001 28c-68.667 0 -124.334 -23.667 -167.001 -71c-46 -51.333 -69 -123 -69 -215c0 -91.333 17.333 -162 52 -212c40 -57.333 102 -86 186 -86
c43.333 0 81.333 11.667 114 35c46 33.333 76.667 87 92 161h94c-13.333 -90.667 -47.833 -160.667 -103.5 -210s-125.834 -74 -210.501 -74c-90.667 0 -165 29.333 -223 88c-67.333 68.667 -101 167.334 -101 296.001c0 111.333 30.167 201.5 90.5 270.5
s142.166 103.5 245.499 103.5c86.667 0 157 -24.333 211 -73c47.333 -42.667 75 -97 83 -163zM274.004 -86.001l64.001 86h48l-46 -62l12 2.5c4.66699 1 10.667 1.5 18 1.5c30 0 52.333 -8.66699 67 -26c11.333 -13.333 17 -30 17 -50c0 -26.667 -10.667 -48.667 -32 -66
s-50 -26 -86 -26c-16.667 0 -32 1.83301 -46 5.5s-30.667 9.16699 -50 16.5l18 40c22.667 -9.33301 44 -14 64 -14c10 0 18.667 1 26 3c20 6 30 19 30 39c0 13.333 -5.33301 23 -16 29s-21.334 9 -32.001 9c-6 0 -12.667 -1 -20 -3l-18 -5z" />
    <glyph glyph-name="Egrave" unicode="&#xc8;" 
d="M-260 898h48c-6 -47.333 -23.333 -82.333 -52 -105c-26 -20.667 -62 -31 -108 -31c-44 0 -78.333 11 -103 33s-39.667 56.333 -45 103h48c3.33301 -10 6 -17.333 8 -22c4.66699 -10 10 -18.667 16 -26c8.66699 -10 19.667 -17.833 33 -23.5s30.333 -8.5 51 -8.5
c34.667 0 60.667 9.33301 78 28c10 10.667 18.667 28 26 52zM-388 902l-130 142h108l88 -142h-66z" />
    <glyph glyph-name="Eacute" unicode="&#xc9;" 
d="M-260 898h48c-6 -47.333 -23.333 -82.333 -52 -105c-26 -20.667 -62 -31 -108 -31c-44 0 -78.333 11 -103 33s-39.667 56.333 -45 103h48c3.33301 -10 6 -17.333 8 -22c4.66699 -10 10 -18.667 16 -26c8.66699 -10 19.667 -17.833 33 -23.5s30.333 -8.5 51 -8.5
c34.667 0 60.667 9.33301 78 28c10 10.667 18.667 28 26 52zM-202 1046l-130 -142h-66l88 142h108z" />
    <glyph glyph-name="Ecircumflex" unicode="&#xca;" 
d="M-260 898h48c-6 -47.333 -23.333 -82.333 -52 -105c-26 -20.667 -62 -31 -108 -31c-44 0 -78.333 11 -103 33s-39.667 56.333 -45 103h48c3.33301 -10 6 -17.333 8 -22c4.66699 -10 10 -18.667 16 -26c8.66699 -10 19.667 -17.833 33 -23.5s30.333 -8.5 51 -8.5
c34.667 0 60.667 9.33301 78 28c10 10.667 18.667 28 26 52z" />
    <glyph glyph-name="Edieresis" unicode="&#xcb;" 
d="M-260 898h48c-6 -47.333 -23.333 -82.333 -52 -105c-26 -20.667 -62 -31 -108 -31c-44 0 -78.333 11 -103 33s-39.667 56.333 -45 103h48c3.33301 -10 6 -17.333 8 -22c4.66699 -10 10 -18.667 16 -26c8.66699 -10 19.667 -17.833 33 -23.5s30.333 -8.5 51 -8.5
c34.667 0 60.667 9.33301 78 28c10 10.667 18.667 28 26 52zM-330 -168h-88v100h88v-100z" />
    <glyph glyph-name="Igrave" unicode="&#xcc;" horiz-adv-x="294" 
d="M188 718v-718h-96v718h96zM138 778l-132 142h110l88 -142h-66z" />
    <glyph glyph-name="Iacute" unicode="&#xcd;" horiz-adv-x="294" 
d="M188 718v-718h-96v718h96zM286 926l-130 -142h-66l88 142h108z" />
    <glyph glyph-name="Icircumflex" unicode="&#xce;" horiz-adv-x="710" 
d="M382 290v-290h-96v290l-272 428h114l206 -344l206 344h114zM382 -168h-88v100h88v-100z" />
    <glyph glyph-name="Idieresis" unicode="&#xcf;" 
d="M-328 -158h-88v100h88v-100z" />
    <glyph glyph-name="Eth" unicode="&#xd0;" horiz-adv-x="278" 
d="M108 915v-102h-92v102h92zM270 915v-102h-92v102h92zM188 718v-718h-96v718h96z" />
    <glyph glyph-name="Ntilde" unicode="&#xd1;" horiz-adv-x="766" 
d="M370 412v-86h-192v-242h188c64 0 114.667 24.167 152 72.5s56 117.5 56 207.5c0 88.667 -18.833 156.167 -56.5 202.5s-90.167 69.5 -157.5 69.5h-182v-224h192zM30 326v86.001h52v306h290c92.667 0 166.167 -31.833 220.5 -95.5s81.5 -147.834 81.5 -252.501
c0 -42 -4.66699 -83 -14 -123c-16.667 -69.333 -44 -124.333 -82 -165c-52 -54.667 -122 -82 -210 -82h-286v326h-52z" />
    <glyph glyph-name="Ograve" unicode="&#xd2;" horiz-adv-x="294" 
d="M188 718v-718h-96v718h96zM184 -166h-88v100h88v-100z" />
    <glyph glyph-name="Oacute" unicode="&#xd3;" horiz-adv-x="294" 
d="M188 718v-718h-96v718h96zM264 916l50.001 -0.000976562c-3.33301 -31.333 -13.833 -57.5 -31.5 -78.5s-40.5 -31.5 -68.5 -31.5c-14.667 0 -34 4.66699 -58 14l-26 8c-32 10.667 -52.667 16 -62 16c-12.667 0 -22.334 -3.5 -29.001 -10.5s-12.334 -18.167 -17.001 -33.5
h-48c4.66699 32.667 14.334 57.667 29.001 75c17.333 20.667 42.333 31 75 31c11.333 0 22.5 -1.16699 33.5 -3.5s22.5 -5.83301 34.5 -10.5l22 -10c8 -3.33301 16.667 -6.16602 26 -8.49902s16 -3.5 20 -3.5c17.333 0 30 5 38 15c5.33301 6.66699 9.33301 17 12 31z" />
    <glyph glyph-name="Ocircumflex" unicode="&#xd4;" horiz-adv-x="768" 
d="M602 672c49.333 -35.333 86.6699 -84.3301 112.003 -146.997c21.333 -52 32 -107 32 -165c0 -96.667 -24.667 -179.334 -74 -248.001c-62.667 -88 -154.667 -132 -276 -132c-120.667 0 -212.334 43.667 -275.001 131c-50 70 -75 153 -75 249
c0 95.333 24.667 177.333 74 246c63.333 88 155.333 132 276 132c33.333 0 64.166 -3.5 92.499 -10.5s54.833 -17.5 79.5 -31.5c4 0.666992 10.833 4.66699 20.5 12s16.167 12.666 19.5 15.999c8.66699 8 14.5 16.667 17.5 26s4.5 20 4.5 32h-56v62h96v-88
c0 -18.667 -10 -38 -30 -58c-14.667 -12.667 -27.334 -21.334 -38.001 -26.001zM646.004 360.003c0 86 -22 155.667 -66 209c-46 55.333 -107.333 83 -184 83c-76 0 -136.667 -27.333 -182 -82s-68 -124.667 -68 -210c0 -86.667 22.333 -157 67 -211s105.667 -81 183 -81
c76.667 0 137.5 27.167 182.5 81.5s67.5 124.5 67.5 210.5z" />
    <glyph glyph-name="Otilde" unicode="&#xd5;" 
d="M-254 918l50.001 -0.000976562c-3.33301 -31.333 -13.833 -57.5 -31.5 -78.5s-40.5 -31.5 -68.5 -31.5c-14.667 0 -34 4.66699 -58 14l-26 8c-32 10.667 -52.667 16 -62 16c-12.667 0 -22.334 -3.5 -29.001 -10.5s-12.334 -18.167 -17.001 -33.5h-48
c4.66699 32.667 14.334 57.667 29.001 75c17.333 20.667 42.333 31 75 31c11.333 0 22.5 -1.16699 33.5 -3.5s22.5 -5.83301 34.5 -10.5l22 -10c8 -3.33301 16.667 -6.16602 26 -8.49902s16 -3.5 20 -3.5c17.333 0 30 5 38 15c5.33301 6.66699 9.33301 17 12 31z" />
    <glyph glyph-name="Odieresis" unicode="&#xd6;" horiz-adv-x="722" 
d="M638 684c4 1.33301 9.16797 3.83105 15.501 7.49805s11.666 7.33398 15.999 11.001s7.5 8.33398 9.5 14.001s3 10.834 3 15.501v24h-56v62h96v-88c0 -18.667 -10 -38 -30 -58c-7.33301 -6.66699 -16.333 -12.667 -27 -18c-3.33301 -1.33301 -12.333 -5.33301 -27 -12
v-390c0 -78.667 -23.333 -142.334 -70 -191.001c-51.333 -54 -124 -81 -218 -81c-91.333 0 -161.666 26.333 -210.999 79c-43.333 46.667 -65 107 -65 181v478h96v-452c0 -71.333 19.333 -123.666 58 -156.999c31.333 -27.333 72.666 -41 123.999 -41c54 0 97 13 129 39
c40.667 33.333 61 85.666 61 156.999v454h96v-34z" />
    <glyph glyph-name="multiply" unicode="&#xd7;" horiz-adv-x="620" 
d="M242 254l-202 202l52 50l200 -200l202 200l52 -50l-202 -202l202 -202l-52 -52l-202 202l-202 -202l-50 52z" />
    <glyph glyph-name="Oslash" unicode="&#xd8;" 
d="M-396 788l-130 142h108l88 -142h-66z" />
    <glyph glyph-name="Ugrave" unicode="&#xd9;" 
d="M-222 930l-130 -142h-66l88 142h108z" />
    <glyph glyph-name="Uacute" unicode="&#xda;" 
d="M-260 918h48c-6 -47.333 -23.333 -82.333 -52 -105c-26 -20.667 -62 -31 -108 -31c-44 0 -78.333 11 -103 33s-39.667 56.333 -45 103h48c3.33301 -10 6 -17.333 8 -22c4.66699 -10 10 -18.667 16 -26c8.66699 -10 19.667 -17.833 33 -23.5s30.333 -8.5 51 -8.5
c34.667 0 60.667 9.33301 78 28c10 10.667 18.667 28 26 52zM-328 887l-59 -0.00195312c0 23.333 2.5 40.833 7.5 52.5s17.167 24.334 36.5 38.001s29 28.834 29 45.501c0 16 -4.33301 27.5 -13 34.5s-18.667 10.5 -30 10.5c-18 0 -30.5 -5 -37.5 -15
s-10.5 -22.333 -10.5 -37l-64 -1c0 36 11.667 63.333 35 82c20 16 44.333 24 73 24c25.333 0 47.666 -5 66.999 -15c32 -16.667 48 -43.667 48 -81c0 -17.333 -4.16699 -32 -12.5 -44s-22.166 -25 -41.499 -39c-10.667 -7.33301 -18 -14.5 -22 -21.5s-6 -18.167 -6 -33.5z
" />
    <glyph glyph-name="Ucircumflex" unicode="&#xdb;" 
d="M-338 759h-56.999c0 25.333 2.66699 45.5 8 60.5s17.5 29.167 36.5 42.5s28.5 28.333 28.5 45c0 16 -4.33301 27.5 -13 34.5s-18.667 10.5 -30 10.5c-18 0 -30.5 -5 -37.5 -15s-10.5 -22.333 -10.5 -37l-64 -1c0 36 11.667 63.333 35 82c20 16 44.333 24 73 24
c25.333 0 47.666 -5 66.999 -15c32 -16.667 48 -43.667 48 -81c0 -17.333 -4.16699 -32 -12.5 -44s-22.333 -25 -42 -39s-29.5 -36.333 -29.5 -67z" />
    <glyph glyph-name="Udieresis" unicode="&#xdc;" 
d="M-260 918h48c-6 -47.333 -23.333 -82.333 -52 -105c-26 -20.667 -62 -31 -108 -31c-44 0 -78.333 11 -103 33s-39.667 56.333 -45 103h48c3.33301 -10 6 -17.333 8 -22c4.66699 -10 10 -18.667 16 -26c8.66699 -10 19.667 -17.833 33 -23.5s30.333 -8.5 51 -8.5
c34.667 0 60.667 9.33301 78 28c10 10.667 18.667 28 26 52zM-146 1078h49.998c-4 -30.667 -15 -56.334 -33 -77.001s-40.333 -31 -67 -31c-8 0 -16.167 0.833008 -24.5 2.5s-20.166 4.83398 -35.499 9.50098l-26 10c-8.66699 2.66699 -19 5.66699 -31 9s-21.667 5 -29 5
c-12.667 0 -22.667 -3.83301 -30 -11.5s-13.333 -18.5 -18 -32.5h-48c4 32 14.5 58 31.5 78s41.167 30 72.5 30c11.333 0 22.333 -1.5 33 -4.5s22.334 -6.83301 35.001 -11.5l22 -8c23.333 -9.33301 39.333 -14 48 -14c17.333 0 30 5.33301 38 16
c5.33301 6.66699 9.33301 16.667 12 30z" />
    <glyph glyph-name="Yacute" unicode="&#xdd;" horiz-adv-x="294" 
d="M188 718v-718h-96v718h96zM138 884l-66 -92h-78l98 140h94l98 -140h-80z" />
    <glyph glyph-name="Thorn" unicode="&#xde;" horiz-adv-x="778" 
d="M590 543l-373 -404.999c21.333 -22.667 46.5 -40.167 75.5 -52.5s61.167 -18.5 96.5 -18.5c76.667 0 137.5 27.167 182.5 81.5s67.5 124.5 67.5 210.5c0 73.333 -16.333 134.666 -49 183.999zM190 171.001l374 407.001c-21.333 23.333 -46.833 41.333 -76.5 54
s-62.5 19 -98.5 19c-76.667 0 -137.5 -27.167 -182.5 -81.5s-67.5 -124.5 -67.5 -210.5c0 -72.667 17 -135.334 51 -188.001zM740 707.002l-83 -91.002c27.333 -35.333 48.333 -77.666 63 -126.999c12.667 -43.333 19 -86.666 19 -129.999c0 -96 -24.667 -178.333 -74 -247
c-62.667 -87.333 -154.667 -131 -276 -131c-50 0 -94.667 7.66699 -134 23s-73.333 36.666 -102 63.999l-80 -87l-32 28l83 90c-29.333 36.667 -50.833 77.834 -64.5 123.501s-20.5 91.167 -20.5 136.5c0 96 24.667 178.333 74 247c62.667 87.333 154.667 131 276 131
c52.667 0 98.5 -7.66699 137.5 -23s72.833 -37.333 101.5 -66l81 89z" />
    <glyph glyph-name="germandbls" unicode="&#xdf;" horiz-adv-x="611" 
d="M67 0l0.00195312 532.001c0 59.333 20.167 106.833 60.5 142.5s97.166 53.5 170.499 53.5s131.5 -16.333 174.5 -49s64.5 -76.334 64.5 -131.001c0 -42 -10.667 -77 -32 -105c-10.667 -14 -27.334 -28.333 -50.001 -43c34.667 -9.33301 63.334 -31.333 86.001 -66
c20 -30.667 30 -62.667 30 -96c0 -84.667 -24 -149 -72 -193c-44 -40 -104 -60 -180 -60c-13.333 0 -24 0.666992 -32 2c-9.33301 2.66699 -16.333 4.33398 -21 5.00098v75l44 -3c113.333 0 170 50 170 150c0 50 -14.667 85.833 -44 107.5s-71.333 32.5 -126 32.5
c-15.333 0 -28.333 -1.33301 -39 -4v79l23 -2c55.333 0 96 11.333 122 34c22 19.333 33 45.666 33 78.999s-13.167 60.333 -39.5 81s-63.833 31 -112.5 31c-52.667 0 -90.334 -13 -113.001 -39c-19.333 -22.667 -29 -57 -29 -103v-510h-88z" />
    <glyph glyph-name="agrave" unicode="&#xe0;" 
d="M-306 676l-66 -92h-78l98 140h94l98 -140h-80zM-146 706l-130 140h108l90 -140h-68z" />
    <glyph glyph-name="aacute" unicode="&#xe1;" 
d="M-306 676l-66 -92h-78l98 140h94l98 -140h-80zM12 838l-130 -140h-68l90 140h108z" />
    <glyph glyph-name="acircumflex" unicode="&#xe2;" 
d="M-306 676l-66 -92h-78l98 140h94l98 -140h-80z" />
    <glyph glyph-name="atilde" unicode="&#xe3;" 
d="M-306 676l-66 -92h-78l98 140h94l98 -140h-80zM-176 878h49.998c-4 -30.667 -15 -56.334 -33 -77.001s-40.333 -31 -67 -31c-8 0 -16.167 0.833008 -24.5 2.5s-20.166 4.83398 -35.499 9.50098l-26 10c-8.66699 2.66699 -19 5.66699 -31 9s-21.667 5 -29 5
c-12.667 0 -22.667 -3.83301 -30 -11.5s-13.333 -18.5 -18 -32.5h-48c4 32 14.5 58 31.5 78s41.167 30 72.5 30c11.333 0 22.333 -1.5 33 -4.5s22.334 -6.83301 35.001 -11.5l22 -8c23.333 -9.33301 39.333 -14 48 -14c17.333 0 30 5.33301 38 16
c5.33301 6.66699 9.33301 16.667 12 30z" />
    <glyph glyph-name="adieresis" unicode="&#xe4;" 
d="M-306 676l-66 -92h-78l98 140h94l98 -140h-80zM-256 -178h-88v100h88v-100z" />
    <glyph glyph-name="aring" unicode="&#xe5;" 
d="M-306 676l-66 -92h-78l98 140h94l98 -140h-80zM-120 669l-59 -0.00195312c0 23.333 2.5 40.833 7.5 52.5s17.167 24.334 36.5 38.001s29 28.834 29 45.501c0 16 -4.33301 27.5 -13 34.5s-18.667 10.5 -30 10.5c-18 0 -30.5 -5 -37.5 -15s-10.5 -22.333 -10.5 -37l-64 -1
c0 36 11.667 63.333 35 82c20 16 44.333 24 73 24c25.333 0 47.666 -5 66.999 -15c32 -16.667 48 -43.667 48 -81c0 -17.333 -4.16699 -32 -12.5 -44s-22.166 -25 -41.499 -39c-10.667 -7.33301 -18 -14.5 -22 -21.5s-6 -18.167 -6 -33.5z" />
    <glyph glyph-name="ae" unicode="&#xe6;" horiz-adv-x="238" 
d="M158 524v-524h-88v524h88zM152 563l-59 -0.00195312c0 23.333 2.5 40.833 7.5 52.5s17.167 24.334 36.5 38.001s29 28.834 29 45.501c0 16 -4.33301 27.5 -13 34.5s-18.667 10.5 -30 10.5c-18 0 -30.5 -5 -37.5 -15s-10.5 -22.333 -10.5 -37l-64 -1
c0 36 11.667 63.333 35 82c20 16 44.333 24 73 24c25.333 0 47.666 -5 66.999 -15c32 -16.667 48 -43.667 48 -81c0 -17.333 -4.16699 -32 -12.5 -44s-22.166 -25 -41.499 -39c-10.667 -7.33301 -18 -14.5 -22 -21.5s-6 -18.167 -6 -33.5z" />
    <glyph glyph-name="ccedilla" unicode="&#xe7;" horiz-adv-x="530" 
d="M478 348h-86c-5.33301 35.333 -18.333 62.833 -39 82.5s-49 29.5 -85 29.5c-49.333 0 -86.666 -21 -111.999 -63c-21.333 -36 -32 -81 -32 -135c0 -56.667 8.66699 -101.334 26 -134.001c23.333 -44 62.666 -66 117.999 -66c29.333 0 55.666 11 78.999 33
s38.333 52.333 45 91h86c-6 -52.667 -23.667 -96.667 -53 -132c-38.667 -46.667 -92.334 -70 -161.001 -70c-72 0 -129 24.5 -171 73.5s-63 112.5 -63 190.5c0 86.667 20 155.334 60 206.001c44 56 108 84 192 84c62.667 0 111.334 -20.333 146.001 -61
c28.667 -33.333 45.334 -76.333 50.001 -129zM164 -86l64 86h46l-46 -62l18 3c4 0.666992 8.66699 1 14 1c28.667 0 50.667 -8.66699 66 -26c12 -14 18 -30.667 18 -50c0 -26.667 -10.667 -48.667 -32 -66s-50 -26 -86 -26c-16.667 0 -32 1.83301 -46 5.5
s-30.667 9.16699 -50 16.5l16 40c12 -4.66699 22 -8.16699 30 -10.5s20 -3.5 36 -3.5c14.667 0 26 2 34 6c14.667 7.33301 22 19.333 22 36c0 13.333 -5.33301 23 -16 29s-21.334 9 -32.001 9c-7.33301 0 -20.666 -2.66699 -39.999 -8z" />
    <glyph glyph-name="egrave" unicode="&#xe8;" 
d="M-204 720h48c-6 -47.333 -23.333 -82.333 -52 -105c-26 -20.667 -62 -31 -108 -31c-44 0 -78.333 11 -103 33s-39.667 56.333 -45 103h48c3.33301 -10 6 -17.333 8 -22c4.66699 -10 10 -18.667 16 -26c8.66699 -10 19.667 -17.833 33 -23.5s30.333 -8.5 51 -8.5
c34.667 0 60.667 9.33301 78 28c10 10.667 18.667 28 26 52zM-342 730l-130 140h108l90 -140h-68z" />
    <glyph glyph-name="eacute" unicode="&#xe9;" 
d="M-204 720h48c-6 -47.333 -23.333 -82.333 -52 -105c-26 -20.667 -62 -31 -108 -31c-44 0 -78.333 11 -103 33s-39.667 56.333 -45 103h48c3.33301 -10 6 -17.333 8 -22c4.66699 -10 10 -18.667 16 -26c8.66699 -10 19.667 -17.833 33 -23.5s30.333 -8.5 51 -8.5
c34.667 0 60.667 9.33301 78 28c10 10.667 18.667 28 26 52zM-150 882l-130 -140h-68l90 140h108z" />
    <glyph glyph-name="ecircumflex" unicode="&#xea;" 
d="M-204 720h48c-6 -47.333 -23.333 -82.333 -52 -105c-26 -20.667 -62 -31 -108 -31c-44 0 -78.333 11 -103 33s-39.667 56.333 -45 103h48c3.33301 -10 6 -17.333 8 -22c4.66699 -10 10 -18.667 16 -26c8.66699 -10 19.667 -17.833 33 -23.5s30.333 -8.5 51 -8.5
c34.667 0 60.667 9.33301 78 28c10 10.667 18.667 28 26 52z" />
    <glyph glyph-name="edieresis" unicode="&#xeb;" 
d="M-204 720h48c-6 -47.333 -23.333 -82.333 -52 -105c-26 -20.667 -62 -31 -108 -31c-44 0 -78.333 11 -103 33s-39.667 56.333 -45 103h48c3.33301 -10 6 -17.333 8 -22c4.66699 -10 10 -18.667 16 -26c8.66699 -10 19.667 -17.833 33 -23.5s30.333 -8.5 51 -8.5
c34.667 0 60.667 9.33301 78 28c10 10.667 18.667 28 26 52zM-256 -174h-88v100h88v-100z" />
    <glyph glyph-name="igrave" unicode="&#xec;" horiz-adv-x="238" 
d="M158 524v-524h-88v524h88zM118 578l-132 140h110l88 -140h-66z" />
    <glyph glyph-name="iacute" unicode="&#xed;" horiz-adv-x="238" 
d="M158 524v-524h-88v524h88zM258 720l-130 -140h-66l88 140h108z" />
    <glyph glyph-name="icircumflex" unicode="&#xee;" horiz-adv-x="530" 
d="M392 524l97.999 0.000976562l-91.5 -255l-96.5 -259c-42 -106 -72.833 -169.833 -92.5 -191.5s-57.5 -32.5 -113.5 -32.5c-5.33301 0 -9.66602 0.333008 -12.999 1c-10 3.33301 -17.667 5.66602 -23 6.99902v80c5.33301 -2 12.833 -4.16699 22.5 -6.5
s19.5 -3.5 29.5 -3.5c22 0 37.667 6.33301 47 19s25 47 47 103l-194 538h100l138 -426zM439.999 -157.999h-88v100h88v-100z" />
    <glyph glyph-name="idieresis" unicode="&#xef;" 
d="M-254 -158h-88v100h88v-100z" />
    <glyph glyph-name="eth" unicode="&#xf0;" horiz-adv-x="238" 
d="M154 524v-524h-88v524h88zM83 719v-102h-92v102h92zM245 719v-102h-92v102h92z" />
    <glyph glyph-name="ntilde" unicode="&#xf1;" horiz-adv-x="586" 
d="M500 586v-585.999h-84v72c-18 -32 -41.667 -55.333 -71 -70c-23.333 -12 -49.666 -18 -78.999 -18c-80.667 0 -141.334 33 -182.001 99c-32 52 -48 117 -48 195c0 76 19.167 138.333 57.5 187s91.833 73 160.5 73c41.333 0 76.333 -10.667 105 -32
c14.667 -10.667 31.667 -29.334 51 -56.001l2 6v126h-126v76h126v60h88v-62h40v-70h-40zM126 264.001c0 -60 12.167 -108.667 36.5 -146s59.5 -56 105.5 -56c36 0 66.667 11.667 92 35c33.333 30.667 50 77.667 50 141c0 60 -7.33301 107.333 -22 142
c-22.667 53.333 -62 80 -118 80c-59.333 0 -100.333 -24.333 -123 -73c-14 -30 -21 -71 -21 -123z" />
    <glyph glyph-name="ograve" unicode="&#xf2;" horiz-adv-x="238" 
d="M156 524v-524h-88v524h88zM156 618h-88v100h88v-100zM160 -168h-88v100h88v-100z" />
    <glyph glyph-name="oacute" unicode="&#xf3;" horiz-adv-x="238" 
d="M158 524v-524h-88v524h88zM246 720h49.998c-4 -30.667 -15 -56.334 -33 -77.001s-40.333 -31 -67 -31c-8 0 -16.167 0.833008 -24.5 2.5s-20.166 4.83398 -35.499 9.50098l-26 10c-8.66699 2.66699 -19 5.66699 -31 9s-21.667 5 -29 5
c-12.667 0 -22.667 -3.83301 -30 -11.5s-13.333 -18.5 -18 -32.5h-48c4 32 14.5 58 31.5 78s41.167 30 72.5 30c11.333 0 22.333 -1.5 33 -4.5s22.334 -6.83301 35.001 -11.5l22 -8c23.333 -9.33301 39.333 -14 48 -14c17.333 0 30 5.33301 38 16
c5.33301 6.66699 9.33301 16.667 12 30z" />
    <glyph glyph-name="ocircumflex" unicode="&#xf4;" horiz-adv-x="586" 
d="M442 478c3.33301 0.666992 8.66797 4.33301 16.001 11s13.333 12.334 18 17.001c8.66699 8 14.5 16.667 17.5 26s4.5 20 4.5 32h-56v62h96v-88c0 -18.667 -10 -38 -30 -58l-21.5 -19.5c-7 -6.33301 -13.167 -10.5 -18.5 -12.5c18 -24.667 31.5 -53.334 40.5 -86.001
s13.5 -66 13.5 -100c0 -74 -19.667 -136.667 -59 -188c-44.667 -58.667 -106.334 -88 -185.001 -88c-78 0 -139 29 -183 87c-39.333 51.333 -59 114.333 -59 189c0 75.333 19.333 138.333 58 189c44 58 105.333 87 184 87c69.333 0 124 -20 164 -60zM126.002 261.999
c0 -49.333 9.33301 -91.333 28 -126c26.667 -49.333 68 -74 124 -74c55.333 0 96.333 24.333 123 73c19.333 35.333 29 77.666 29 126.999s-9.33301 91.333 -28 126c-26.667 49.333 -68 74 -124 74c-55.333 0 -96.333 -24.333 -123 -73
c-19.333 -35.333 -29 -77.666 -29 -126.999z" />
    <glyph glyph-name="otilde" unicode="&#xf5;" 
d="M-194 722h49.998c-4 -30.667 -15 -56.334 -33 -77.001s-40.333 -31 -67 -31c-8 0 -16.167 0.833008 -24.5 2.5s-20.166 4.83398 -35.499 9.50098l-26 10c-8.66699 2.66699 -19 5.66699 -31 9s-21.667 5 -29 5c-12.667 0 -22.667 -3.83301 -30 -11.5
s-13.333 -18.5 -18 -32.5h-48c4 32 14.5 58 31.5 78s41.167 30 72.5 30c11.333 0 22.333 -1.5 33 -4.5s22.334 -6.83301 35.001 -11.5l22 -8c23.333 -9.33301 39.333 -14 48 -14c17.333 0 30 5.33301 38 16c5.33301 6.66699 9.33301 16.667 12 30z" />
    <glyph glyph-name="odieresis" unicode="&#xf6;" horiz-adv-x="586" 
d="M490 490c4 1.33301 9 4.66797 15 10.001c3.33301 4 5.66602 6.66699 6.99902 8c8.66699 8 14.167 16.667 16.5 26s3.5 20.666 3.5 33.999h-56v62h96v-88c0 -18.667 -10 -38 -30 -58c-17.333 -15.333 -34.666 -26.666 -51.999 -33.999v-450h-84v76l-2 2
c-18.667 -31.333 -41 -54.833 -67 -70.5s-59 -23.5 -99 -23.5c-45.333 0 -83 11.333 -113 34c-38 28.667 -57 72 -57 130v376h88v-348c0 -40.667 9.66699 -70.334 29 -89.001c16.667 -16.667 41 -25 73 -25c50 0 87.667 19.333 113 58c20.667 31.333 31 70 31 116v288h88
v-34z" />
    <glyph glyph-name="divide" unicode="&#xf7;" horiz-adv-x="620" 
d="M546 216h-506v74h506v-74zM224 456c0 18.667 6.66699 34.667 20 48s29.333 20 48 20c19.333 0 35.5 -6.5 48.5 -19.5s19.5 -29.167 19.5 -48.5c0 -18 -6.5 -33.833 -19.5 -47.5s-29.167 -20.5 -48.5 -20.5c-18 0 -33.833 6.83301 -47.5 20.5s-20.5 29.5 -20.5 47.5z
M224 50c0 18.667 6.66699 34.667 20 48s29.333 20 48 20s34.667 -6.66699 48 -20s20 -29.333 20 -48c0 -18 -6.5 -34.167 -19.5 -48.5s-29.167 -21.5 -48.5 -21.5c-18 0 -33.833 6.83301 -47.5 20.5s-20.5 30.167 -20.5 49.5z" />
    <glyph glyph-name="oslash" unicode="&#xf8;" 
d="M-292 594l-132 140h110l88 -140h-66z" />
    <glyph glyph-name="ugrave" unicode="&#xf9;" 
d="M-152 734l-130 -140h-68l90 140h108z" />
    <glyph glyph-name="uacute" unicode="&#xfa;" 
d="M-204 720h48c-6 -47.333 -23.333 -82.333 -52 -105c-26 -20.667 -62 -31 -108 -31c-44 0 -78.333 11 -103 33s-39.667 56.333 -45 103h48c3.33301 -10 6 -17.333 8 -22c4.66699 -10 10 -18.667 16 -26c8.66699 -10 19.667 -17.833 33 -23.5s30.333 -8.5 51 -8.5
c34.667 0 60.667 9.33301 78 28c10 10.667 18.667 28 26 52zM-272 709l-59 -0.00195312c0 23.333 2.5 40.833 7.5 52.5s17.167 24.334 36.5 38.001s29 28.834 29 45.501c0 16 -4.33301 27.5 -13 34.5s-18.667 10.5 -30 10.5c-18 0 -30.5 -5 -37.5 -15
s-10.5 -22.333 -10.5 -37l-64 -1c0 36 11.667 63.333 35 82c20 16 44.333 24 73 24c25.333 0 47.666 -5 66.999 -15c32 -16.667 48 -43.667 48 -81c0 -17.333 -4.16699 -32 -12.5 -44s-22.166 -25 -41.499 -39c-10.667 -7.33301 -18 -14.5 -22 -21.5s-6 -18.167 -6 -33.5z
" />
    <glyph glyph-name="ucircumflex" unicode="&#xfb;" 
d="M-288 575l-59 -0.00195312c0 23.333 2.5 40.833 7.5 52.5s17.167 24.334 36.5 38.001s29 28.834 29 45.501c0 16 -4.33301 27.5 -13 34.5s-18.667 10.5 -30 10.5c-18 0 -30.5 -5 -37.5 -15s-10.5 -22.333 -10.5 -37l-64 -1c0 36 11.667 63.333 35 82
c20 16 44.333 24 73 24c25.333 0 47.666 -5 66.999 -15c32 -16.667 48 -43.667 48 -81c0 -17.333 -4.16699 -32 -12.5 -44s-22.166 -25 -41.499 -39c-10.667 -7.33301 -18 -14.5 -22 -21.5s-6 -18.167 -6 -33.5z" />
    <glyph glyph-name="udieresis" unicode="&#xfc;" 
d="M-204 720h48c-6 -47.333 -23.333 -82.333 -52 -105c-26 -20.667 -62 -31 -108 -31c-44 0 -78.333 11 -103 33s-39.667 56.333 -45 103h48c3.33301 -10 6 -17.333 8 -22c4.66699 -10 10 -18.667 16 -26c8.66699 -10 19.667 -17.833 33 -23.5s30.333 -8.5 51 -8.5
c34.667 0 60.667 9.33301 78 28c10 10.667 18.667 28 26 52zM-106 884h49.998c-4 -30.667 -15 -56.334 -33 -77.001s-40.333 -31 -67 -31c-8 0 -16.167 0.833008 -24.5 2.5s-20.166 4.83398 -35.499 9.50098l-26 10c-8.66699 2.66699 -19 5.66699 -31 9s-21.667 5 -29 5
c-12.667 0 -22.667 -3.83301 -30 -11.5s-13.333 -18.5 -18 -32.5h-48c4 32 14.5 58 31.5 78s41.167 30 72.5 30c11.333 0 22.333 -1.5 33 -4.5s22.334 -6.83301 35.001 -11.5l22 -8c23.333 -9.33301 39.333 -14 48 -14c17.333 0 30 5.33301 38 16
c5.33301 6.66699 9.33301 16.667 12 30z" />
    <glyph glyph-name="yacute" unicode="&#xfd;" horiz-adv-x="238" 
d="M158 524v-524h-88v524h88zM108 662l-66 -92h-78l98 140h94l98 -140h-80z" />
    <glyph glyph-name="thorn" unicode="&#xfe;" horiz-adv-x="611" 
d="M537 519l-69 -77.999c17.333 -24 30.5 -51.5 39.5 -82.5s13.5 -63.167 13.5 -96.5c0 -75.333 -19.333 -138.333 -58 -189c-44 -58 -105.667 -87 -185 -87c-33.333 0 -63.166 5.16699 -89.499 15.5s-49.5 25.166 -69.5 44.499l-60 -68l-31 26l64 72
c-18.667 25.333 -32.834 54 -42.501 86s-14.5 65.333 -14.5 100c0 75.333 19.333 138.333 58 189c44 58 105.667 87 185 87c34.667 0 65.5 -5.5 92.5 -16.5s50.833 -27.167 71.5 -48.5l64 72zM151 143.001l236 266.999c-12 16 -27.167 28.667 -45.5 38s-39.5 14 -63.5 14
c-55.333 0 -96.333 -24.333 -123 -73c-19.333 -35.333 -29 -77.666 -29 -126.999c0 -20 1.83301 -40 5.5 -60s10.167 -39.667 19.5 -59zM408 373l-233.998 -265c11.333 -14 25.666 -25.167 42.999 -33.5s37.666 -12.5 60.999 -12.5c55.333 0 96.333 24.333 123 73
c19.333 35.333 29 77.666 29 126.999c0 20 -1.5 38.833 -4.5 56.5s-8.83301 35.834 -17.5 54.501z" />
    <glyph glyph-name="ydieresis" unicode="&#xff;" horiz-adv-x="530" 
d="M392 524l97.999 0.000976562l-91.5 -255l-96.5 -259c-42 -106 -72.833 -169.833 -92.5 -191.5s-57.5 -32.5 -113.5 -32.5c-5.33301 0 -9.66602 0.333008 -12.999 1c-10 3.33301 -17.667 5.66602 -23 6.99902v80c5.33301 -2 12.833 -4.16699 22.5 -6.5
s19.5 -3.5 29.5 -3.5c22 0 37.667 6.33301 47 19s25 47 47 103l-194 538h100l138 -426zM439.999 -157.999h-88v100h88v-100z" />
    <glyph glyph-name="OE" unicode="&#x152;" 
d="M-270 902c-4.66699 -18 -12.668 -34.334 -24.001 -49.001c-8.66699 -11.333 -22.667 -25 -42 -41l-4 -10v-34h-42v14c0 18 1.5 32.5 4.5 43.5s10.167 22.5 21.5 34.5c6 8 10.833 14.833 14.5 20.5s7.5 12.167 11.5 19.5c0 13.333 -3.66699 25 -11 35
s-17.666 15 -30.999 15c-20 0 -33.667 -5.16699 -41 -15.5s-11 -25.166 -11 -44.499h-48v6c0 24 8.66699 45 26 63c20 20.667 46.667 31 80 31c30.667 0 55 -9.33301 73 -28c15.333 -16 23 -36 23 -60z" />
    <glyph glyph-name="oe" unicode="&#x153;" 
d="M-220 712c-4.66699 -18 -12.668 -34.334 -24.001 -49.001c-8.66699 -11.333 -22.667 -25 -42 -41l-4 -10v-34h-42v14c0 18 1.5 32.5 4.5 43.5s10.167 22.5 21.5 34.5c6 8 10.833 14.833 14.5 20.5s7.5 12.167 11.5 19.5c0 13.333 -3.66699 25 -11 35
s-17.666 15 -30.999 15c-20 0 -33.667 -5.16699 -41 -15.5s-11 -25.166 -11 -44.499h-48v6c0 24 8.66699 45 26 63c20 20.667 46.667 31 80 31c30.667 0 55 -9.33301 73 -28c15.333 -16 23 -36 23 -60z" />
    <glyph glyph-name="Scaron" unicode="&#x160;" 
d="M-410 902v-102h-90v102h90zM-248 902v-102h-90v102h90z" />
    <glyph glyph-name="scaron" unicode="&#x161;" 
d="M-326 712v-102h-92v102h92zM-164 712v-102h-92v102h92z" />
    <glyph glyph-name="Ydieresis" unicode="&#x178;" horiz-adv-x="710" 
d="M382 290v-290h-96v290l-272 428h114l206 -344l206 344h114zM382 -168h-88v100h88v-100z" />
    <glyph glyph-name="florin" unicode="&#x192;" horiz-adv-x="556" 
d="M501 722l-15.001 -78l-29 11.5c-9.33301 3.66699 -18.666 5.5 -27.999 5.5c-23.333 0 -42.333 -11.333 -57 -34c-10.667 -16 -18.667 -37 -24 -63l-20 -103h114v-70h-127l-60 -327c-17.333 -96.667 -44 -167 -80 -211c-32.667 -40 -74 -60 -124 -60
c-16 0 -27 0.5 -33 1.5s-15.667 4.5 -29 10.5l15 81c10.667 -5.33301 19.167 -9 25.5 -11s14.833 -3 25.5 -3c30 0 53 15.333 69 46c12 23.333 23.667 66 35 128l64 345h-109v70h123l28 124c9.33301 40.667 26.666 75 51.999 103c30 32.667 65.333 49 106 49
c18.667 0 32.334 -1 41.001 -3s21 -6 37 -12z" />
    <glyph glyph-name="circumflex" unicode="&#x2c6;" horiz-adv-x="294" 
 />
    <glyph glyph-name="tilde" unicode="&#x2dc;" 
d="M-415 676c0 30.667 10.5 56.5 31.5 77.5s46.833 31.5 77.5 31.5c30 0 55.667 -10.667 77 -32s32 -47 32 -77s-10.667 -55.667 -32 -77s-47 -32 -77 -32s-55.667 10.333 -77 31s-32 46.667 -32 78zM-370 676c0 -19.333 6.16699 -34.833 18.5 -46.5s27.5 -17.5 45.5 -17.5
s33.167 6.16699 45.5 18.5s18.5 27.5 18.5 45.5s-6.16699 33.167 -18.5 45.5s-27.5 18.5 -45.5 18.5c-17.333 0 -32.333 -6.33301 -45 -19s-19 -27.667 -19 -45z" />
    <glyph glyph-name="endash" unicode="&#x2013;" horiz-adv-x="586" 
d="M556 314v-74h-556v74h556z" />
    <glyph glyph-name="emdash" unicode="&#x2014;" horiz-adv-x="1058" 
d="M1000 314v-74h-1000v74h1000z" />
    <glyph glyph-name="quoteleft" unicode="&#x2018;" horiz-adv-x="238" 
d="M170 576v-106.002h-104v98c0 42.667 7.5 77.334 22.5 104.001s42.167 44.667 81.5 54v-48c-22.667 -3.33301 -38 -17 -46 -41c-5.33301 -15.333 -8 -35.666 -8 -60.999h54z" />
    <glyph glyph-name="quoteright" unicode="&#x2019;" horiz-adv-x="238" 
d="M54 612v106h104v-98c0 -41.333 -7.33301 -74.666 -22 -99.999c-16.667 -28.667 -44 -47.334 -82 -56.001v46c22 3.33301 37 17 45 41c4.66699 14.667 7 35 7 61h-52z" />
    <glyph glyph-name="quotesinglbase" unicode="&#x201a;" horiz-adv-x="1000" 
d="M192 209l-79 -209h-105l292 718h644v-86h-390v-220h356v-86h-356v-240h397v-86h-494v209h-265zM457 295v337h-97l-133 -337h230z" />
    <glyph glyph-name="quotedblleft" unicode="&#x201c;" horiz-adv-x="360" 
d="M308 576v-106.002h-104v98c0 42.667 7.5 77.334 22.5 104.001s42.167 44.667 81.5 54v-48c-22.667 -3.33301 -38 -17 -46 -41c-5.33301 -15.333 -8 -35.666 -8 -60.999h54zM142 575.998v-106h-104v98c0 42 7.83301 76.5 23.5 103.5s42.5 45.167 80.5 54.5v-48
c-22 -3.33301 -37 -17 -45 -41c-4.66699 -14.667 -7 -35 -7 -61h52z" />
    <glyph glyph-name="quotedblright" unicode="&#x201d;" horiz-adv-x="360" 
d="M26 612l0.000976562 106.002h104v-98c0 -42 -7 -75.333 -21 -100c-16.667 -28.667 -44.334 -47.334 -83.001 -56.001v46c22.667 3.33301 38 17 46 41c5.33301 15.333 8 35.666 8 60.999h-54zM192.001 612.002v106h104v-98c0 -41.333 -7.33301 -74.666 -22 -99.999
c-16.667 -28.667 -44 -47.334 -82 -56.001v46c22 3.33301 37 17 45 41c4.66699 14.667 7 35 7 61h-52z" />
    <glyph glyph-name="quotedblbase" unicode="&#x201e;" horiz-adv-x="889" 
d="M465 303h291c0 45.333 -10.667 81.333 -32 108c-25.333 32 -63.333 48 -114 48c-40 0 -74.167 -15.5 -102.5 -46.5s-42.5 -67.5 -42.5 -109.5zM752 164l87.998 -0.00390625c-2.66699 -19.333 -10 -40.666 -22 -63.999c-17.333 -32.667 -41 -59 -71 -79
c-16.667 -11.333 -32.667 -19.333 -48 -24c-25.333 -8 -56.666 -12 -93.999 -12c-54 0 -99 13.667 -135 41c-22 16.667 -41 39.334 -57 68.001c-24.667 -37.333 -54.5 -64.833 -89.5 -82.5s-76.167 -26.5 -123.5 -26.5c-48.667 0 -88.167 13.833 -118.5 41.5
s-45.5 64.167 -45.5 109.5c0 36 8 66.333 24 91c26.667 40.667 71.667 65 135 73l145 18c14 1.33301 24.333 5.33301 31 12c10 9.33301 15 26 15 50c0 56.667 -41 85 -123 85c-44 0 -75.667 -11.667 -95 -35c-12 -14.667 -20.333 -36.667 -25 -66h-81
c0 60.667 18.833 104.834 56.5 132.501s90.834 41.5 159.501 41.5c35.333 0 65 -4.5 89 -13.5s51 -29.167 81 -60.5c24 22.667 43.333 38.334 58 47.001c32 18 70.667 27 116 27c74 0 130 -27.167 168 -81.5s57 -128.833 57 -223.5h-382
c0 -55.333 12.833 -97.833 38.5 -127.5s63.5 -44.5 113.5 -44.5c38 0 71 12.333 99 37c24 21.333 36 43.333 36 66zM383.998 180.996l-0.00195312 86.001c-7.33301 -6 -20.666 -11.333 -39.999 -16s-54.333 -10.334 -105 -17.001
c-31.333 -4.66699 -55.333 -11.334 -72 -20.001c-26.667 -14 -40 -35.667 -40 -65c0 -60.667 31.667 -91 95 -91c42.667 0 80.334 11.833 113.001 35.5s49 52.834 49 87.501z" />
    <glyph glyph-name="dagger" unicode="&#x2020;" horiz-adv-x="556" 
d="M326 431v-590h-94v590h-189v76h189v211h94v-211h188v-76h-188z" />
    <glyph glyph-name="daggerdbl" unicode="&#x2021;" horiz-adv-x="556" 
d="M326 439v-320h188v-76h-188v-202h-94v202h-189v76h189v320h-189v76h189v203h94v-203h188v-76h-188z" />
    <glyph glyph-name="bullet" unicode="&#x2022;" horiz-adv-x="294" 
 />
    <glyph glyph-name="ellipsis" unicode="&#x2026;" horiz-adv-x="608" 
d="M182 102v-102h-92v102h92zM344 102v-102h-92v102h92zM506 102v-102h-92v102h92z" />
    <glyph glyph-name="perthousand" unicode="&#x2030;" horiz-adv-x="1340" 
d="M40 526c0 48 16.333 88.333 49 121s73 49 121 49c47.333 0 87.5 -16.5 120.5 -49.5s49.5 -73.167 49.5 -120.5s-16.5 -87.5 -49.5 -120.5s-73.167 -49.5 -120.5 -49.5c-46.667 0 -86.667 16.333 -120 49s-50 73 -50 121zM110 526c0 -30 9.5 -54.167 28.5 -72.5
s42.833 -27.5 71.5 -27.5c29.333 0 53.333 9.66699 72 29s28 43 28 71s-9.66699 51.667 -29 71s-43 29 -71 29s-51.667 -9.66699 -71 -29s-29 -43 -29 -71zM510 164c0 48 16.333 88.333 49 121s73 49 121 49c47.333 0 87.5 -16.5 120.5 -49.5s49.5 -73.167 49.5 -120.5
s-16.5 -87.833 -49.5 -121.5s-73.167 -50.5 -120.5 -50.5c-46.667 0 -86.667 16.667 -120 50s-50 74 -50 122zM580 164c0 -30 9.5 -54.167 28.5 -72.5s42.833 -27.5 71.5 -27.5c29.333 0 53.333 9.66699 72 29s28 43 28 71s-9.66699 51.667 -29 71s-43 29 -71 29
s-51.667 -9.66699 -71 -29s-29 -43 -29 -71zM670 704l-396 -724h-54l394 724h56zM912 164c0 48 16.333 88.333 49 121s73 49 121 49c47.333 0 87.5 -16.5 120.5 -49.5s49.5 -73.167 49.5 -120.5s-16.5 -87.833 -49.5 -121.5s-73.167 -50.5 -120.5 -50.5
c-46.667 0 -86.667 16.667 -120 50s-50 74 -50 122zM982 164c0 -30 9.5 -54.167 28.5 -72.5s42.833 -27.5 71.5 -27.5c29.333 0 53.333 9.66699 72 29s28 43 28 71s-9.66699 51.667 -29 71s-43 29 -71 29s-51.667 -9.66699 -71 -29s-29 -43 -29 -71z" />
    <glyph glyph-name="guilsinglleft" unicode="&#x2039;" horiz-adv-x="360" 
d="M254 196v-88l-156 124v92l156 122v-88l-104 -80z" />
    <glyph glyph-name="guilsinglright" unicode="&#x203a;" horiz-adv-x="360" 
d="M254 232l-156 -124v88l104 82l-104 80v88l156 -122v-92z" />
    <glyph glyph-name="trademark" unicode="&#x2122;" horiz-adv-x="1000" 
d="M557 718l118 -303l116 303h112v-412h-73v335l-131 -335h-50l-129 335l-2 -335h-73v412h112zM373 718v-60h-127v-352h-73v352h-127v60h327z" />
    <glyph glyph-name=".null" horiz-adv-x="0" 
 />
    <glyph glyph-name="nonmarkingreturn" horiz-adv-x="294" 
 />
  </font>
</defs>
</svg>
