<svg width="26" height="32" viewBox="0 0 26 32" fill="none" xmlns="http://www.w3.org/2000/svg">
<g clip-path="url(#clip0)">
<path d="M21.3783 17.0006C21.4225 21.8433 25.5515 23.4548 25.5972 23.4753C25.5623 23.5889 24.9375 25.7718 23.4219 28.0265C22.1116 29.976 20.7519 31.9181 18.6099 31.9583C16.5051 31.9978 15.8283 30.6878 13.4219 30.6878C11.0163 30.6878 10.2643 31.9182 8.27193 31.9979C6.2043 32.0776 4.62978 29.89 3.30878 27.9477C0.60937 23.9748 -1.45354 16.7212 1.31643 11.825C2.69248 9.39347 5.15161 7.85374 7.82076 7.81425C9.85112 7.77483 11.7675 9.2048 13.0087 9.2048C14.2492 9.2048 16.5779 7.48513 19.0262 7.73769C20.0511 7.78111 22.9281 8.15915 24.7754 10.9119C24.6266 11.0058 21.3426 12.952 21.3783 17.0006ZM17.4226 5.10928C18.5203 3.75662 19.2592 1.8736 19.0576 0C17.4753 0.0647388 15.562 1.07336 14.4271 2.42528C13.41 3.62246 12.5192 5.53863 12.7596 7.37514C14.5232 7.51404 16.3249 6.4628 17.4226 5.10928Z" fill="white"/>
</g>
<defs>
<clipPath id="clip0">
<rect width="25.6" height="32" fill="white"/>
</clipPath>
</defs>
</svg>
