<svg width="1920" height="840" viewBox="0 0 1920 840" fill="none" xmlns="http://www.w3.org/2000/svg">
<g opacity="0.15">
<mask id="mask0" mask-type="alpha" maskUnits="userSpaceOnUse" x="0" y="0" width="1920" height="840">
<rect width="1920" height="840" fill="#2D3142"/>
</mask>
<g mask="url(#mask0)">
<path d="M0 45.8864L35.2 38.6713C70.4 31.4562 142.4 17.0259 212.8 22.4372C284.8 27.8486 355.2 53.1016 427.2 51.2978C497.6 49.494 569.6 20.6335 640 8.00696C710.4 -4.61954 782.4 -1.01197 852.8 9.81074C924.8 20.6335 995.2 38.6713 1067.2 40.4751C1137.6 42.2789 1209.6 27.8486 1280 24.241C1350.4 20.6335 1422.4 27.8486 1492.8 42.2789C1564.8 56.7092 1635.2 78.3546 1707.2 76.5508C1777.6 74.747 1849.6 49.494 1884.8 36.8675L1920 24.241" stroke="white"/>
<path d="M0 405.886L35.2 398.671C70.4 391.456 142.4 377.026 212.8 382.437C284.8 387.849 355.2 413.102 427.2 411.298C497.6 409.494 569.6 380.633 640 368.007C710.4 355.38 782.4 358.988 852.8 369.811C924.8 380.633 995.2 398.671 1067.2 400.475C1137.6 402.279 1209.6 387.849 1280 384.241C1350.4 380.633 1422.4 387.849 1492.8 402.279C1564.8 416.709 1635.2 438.355 1707.2 436.551C1777.6 434.747 1849.6 409.494 1884.8 396.868L1920 384.241" stroke="white"/>
<path d="M0 765.886L35.2 758.671C70.4 751.456 142.4 737.026 212.8 742.437C284.8 747.849 355.2 773.102 427.2 771.298C497.6 769.494 569.6 740.633 640 728.007C710.4 715.38 782.4 718.988 852.8 729.811C924.8 740.633 995.2 758.671 1067.2 760.475C1137.6 762.279 1209.6 747.849 1280 744.241C1350.4 740.633 1422.4 747.849 1492.8 762.279C1564.8 776.709 1635.2 798.355 1707.2 796.551C1777.6 794.747 1849.6 769.494 1884.8 756.868L1920 744.241" stroke="white"/>
<path d="M0 165.886L35.2 158.671C70.4 151.456 142.4 137.026 212.8 142.437C284.8 147.849 355.2 173.102 427.2 171.298C497.6 169.494 569.6 140.633 640 128.007C710.4 115.38 782.4 118.988 852.8 129.811C924.8 140.633 995.2 158.671 1067.2 160.475C1137.6 162.279 1209.6 147.849 1280 144.241C1350.4 140.633 1422.4 147.849 1492.8 162.279C1564.8 176.709 1635.2 198.355 1707.2 196.551C1777.6 194.747 1849.6 169.494 1884.8 156.868L1920 144.241" stroke="white"/>
<path d="M0 525.886L35.2 518.671C70.4 511.456 142.4 497.026 212.8 502.437C284.8 507.849 355.2 533.102 427.2 531.298C497.6 529.494 569.6 500.633 640 488.007C710.4 475.38 782.4 478.988 852.8 489.811C924.8 500.633 995.2 518.671 1067.2 520.475C1137.6 522.279 1209.6 507.849 1280 504.241C1350.4 500.633 1422.4 507.849 1492.8 522.279C1564.8 536.709 1635.2 558.355 1707.2 556.551C1777.6 554.747 1849.6 529.494 1884.8 516.868L1920 504.241" stroke="white"/>
<path d="M0 885.886L35.2 878.671C70.4 871.456 142.4 857.026 212.8 862.437C284.8 867.849 355.2 893.102 427.2 891.298C497.6 889.494 569.6 860.633 640 848.007C710.4 835.38 782.4 838.988 852.8 849.811C924.8 860.633 995.2 878.671 1067.2 880.475C1137.6 882.279 1209.6 867.849 1280 864.241C1350.4 860.633 1422.4 867.849 1492.8 882.279C1564.8 896.709 1635.2 918.355 1707.2 916.551C1777.6 914.747 1849.6 889.494 1884.8 876.868L1920 864.241" stroke="white"/>
<path d="M0 285.886L35.2 278.671C70.4 271.456 142.4 257.026 212.8 262.437C284.8 267.849 355.2 293.102 427.2 291.298C497.6 289.494 569.6 260.633 640 248.007C710.4 235.38 782.4 238.988 852.8 249.811C924.8 260.633 995.2 278.671 1067.2 280.475C1137.6 282.279 1209.6 267.849 1280 264.241C1350.4 260.633 1422.4 267.849 1492.8 282.279C1564.8 296.709 1635.2 318.355 1707.2 316.551C1777.6 314.747 1849.6 289.494 1884.8 276.868L1920 264.241" stroke="white"/>
<path d="M0 645.886L35.2 638.671C70.4 631.456 142.4 617.026 212.8 622.437C284.8 627.849 355.2 653.102 427.2 651.298C497.6 649.494 569.6 620.633 640 608.007C710.4 595.38 782.4 598.988 852.8 609.811C924.8 620.633 995.2 638.671 1067.2 640.475C1137.6 642.279 1209.6 627.849 1280 624.241C1350.4 620.633 1422.4 627.849 1492.8 642.279C1564.8 656.709 1635.2 678.355 1707.2 676.551C1777.6 674.747 1849.6 649.494 1884.8 636.868L1920 624.241" stroke="white"/>
<path d="M0 85.8864L35.2 78.6713C70.4 71.4562 142.4 57.0259 212.8 62.4372C284.8 67.8486 355.2 93.1016 427.2 91.2978C497.6 89.494 569.6 60.6335 640 48.007C710.4 35.3805 782.4 38.988 852.8 49.8107C924.8 60.6335 995.2 78.6713 1067.2 80.4751C1137.6 82.2789 1209.6 67.8486 1280 64.241C1350.4 60.6335 1422.4 67.8486 1492.8 82.2789C1564.8 96.7092 1635.2 118.355 1707.2 116.551C1777.6 114.747 1849.6 89.494 1884.8 76.8675L1920 64.241" stroke="white"/>
<path d="M0 445.886L35.2 438.671C70.4 431.456 142.4 417.026 212.8 422.437C284.8 427.849 355.2 453.102 427.2 451.298C497.6 449.494 569.6 420.633 640 408.007C710.4 395.38 782.4 398.988 852.8 409.811C924.8 420.633 995.2 438.671 1067.2 440.475C1137.6 442.279 1209.6 427.849 1280 424.241C1350.4 420.633 1422.4 427.849 1492.8 442.279C1564.8 456.709 1635.2 478.355 1707.2 476.551C1777.6 474.747 1849.6 449.494 1884.8 436.868L1920 424.241" stroke="white"/>
<path d="M0 805.886L35.2 798.671C70.4 791.456 142.4 777.026 212.8 782.437C284.8 787.849 355.2 813.102 427.2 811.298C497.6 809.494 569.6 780.633 640 768.007C710.4 755.38 782.4 758.988 852.8 769.811C924.8 780.633 995.2 798.671 1067.2 800.475C1137.6 802.279 1209.6 787.849 1280 784.241C1350.4 780.633 1422.4 787.849 1492.8 802.279C1564.8 816.709 1635.2 838.355 1707.2 836.551C1777.6 834.747 1849.6 809.494 1884.8 796.868L1920 784.241" stroke="white"/>
<path d="M0 205.886L35.2 198.671C70.4 191.456 142.4 177.026 212.8 182.437C284.8 187.849 355.2 213.102 427.2 211.298C497.6 209.494 569.6 180.633 640 168.007C710.4 155.38 782.4 158.988 852.8 169.811C924.8 180.633 995.2 198.671 1067.2 200.475C1137.6 202.279 1209.6 187.849 1280 184.241C1350.4 180.633 1422.4 187.849 1492.8 202.279C1564.8 216.709 1635.2 238.355 1707.2 236.551C1777.6 234.747 1849.6 209.494 1884.8 196.868L1920 184.241" stroke="white"/>
<path d="M0 565.886L35.2 558.671C70.4 551.456 142.4 537.026 212.8 542.437C284.8 547.849 355.2 573.102 427.2 571.298C497.6 569.494 569.6 540.633 640 528.007C710.4 515.38 782.4 518.988 852.8 529.811C924.8 540.633 995.2 558.671 1067.2 560.475C1137.6 562.279 1209.6 547.849 1280 544.241C1350.4 540.633 1422.4 547.849 1492.8 562.279C1564.8 576.709 1635.2 598.355 1707.2 596.551C1777.6 594.747 1849.6 569.494 1884.8 556.868L1920 544.241" stroke="white"/>
<path d="M0 325.886L35.2 318.671C70.4 311.456 142.4 297.026 212.8 302.437C284.8 307.849 355.2 333.102 427.2 331.298C497.6 329.494 569.6 300.633 640 288.007C710.4 275.38 782.4 278.988 852.8 289.811C924.8 300.633 995.2 318.671 1067.2 320.475C1137.6 322.279 1209.6 307.849 1280 304.241C1350.4 300.633 1422.4 307.849 1492.8 322.279C1564.8 336.709 1635.2 358.355 1707.2 356.551C1777.6 354.747 1849.6 329.494 1884.8 316.868L1920 304.241" stroke="white"/>
<path d="M0 685.886L35.2 678.671C70.4 671.456 142.4 657.026 212.8 662.437C284.8 667.849 355.2 693.102 427.2 691.298C497.6 689.494 569.6 660.633 640 648.007C710.4 635.38 782.4 638.988 852.8 649.811C924.8 660.633 995.2 678.671 1067.2 680.475C1137.6 682.279 1209.6 667.849 1280 664.241C1350.4 660.633 1422.4 667.849 1492.8 682.279C1564.8 696.709 1635.2 718.355 1707.2 716.551C1777.6 714.747 1849.6 689.494 1884.8 676.868L1920 664.241" stroke="white"/>
<path d="M0 125.886L35.2 118.671C70.4 111.456 142.4 97.0259 212.8 102.437C284.8 107.849 355.2 133.102 427.2 131.298C497.6 129.494 569.6 100.633 640 88.007C710.4 75.3805 782.4 78.988 852.8 89.8107C924.8 100.633 995.2 118.671 1067.2 120.475C1137.6 122.279 1209.6 107.849 1280 104.241C1350.4 100.633 1422.4 107.849 1492.8 122.279C1564.8 136.709 1635.2 158.355 1707.2 156.551C1777.6 154.747 1849.6 129.494 1884.8 116.868L1920 104.241" stroke="white"/>
<path d="M0 485.886L35.2 478.671C70.4 471.456 142.4 457.026 212.8 462.437C284.8 467.849 355.2 493.102 427.2 491.298C497.6 489.494 569.6 460.633 640 448.007C710.4 435.38 782.4 438.988 852.8 449.811C924.8 460.633 995.2 478.671 1067.2 480.475C1137.6 482.279 1209.6 467.849 1280 464.241C1350.4 460.633 1422.4 467.849 1492.8 482.279C1564.8 496.709 1635.2 518.355 1707.2 516.551C1777.6 514.747 1849.6 489.494 1884.8 476.868L1920 464.241" stroke="white"/>
<path d="M0 845.886L35.2 838.671C70.4 831.456 142.4 817.026 212.8 822.437C284.8 827.849 355.2 853.102 427.2 851.298C497.6 849.494 569.6 820.633 640 808.007C710.4 795.38 782.4 798.988 852.8 809.811C924.8 820.633 995.2 838.671 1067.2 840.475C1137.6 842.279 1209.6 827.849 1280 824.241C1350.4 820.633 1422.4 827.849 1492.8 842.279C1564.8 856.709 1635.2 878.355 1707.2 876.551C1777.6 874.747 1849.6 849.494 1884.8 836.868L1920 824.241" stroke="white"/>
<path d="M0 245.886L35.2 238.671C70.4 231.456 142.4 217.026 212.8 222.437C284.8 227.849 355.2 253.102 427.2 251.298C497.6 249.494 569.6 220.633 640 208.007C710.4 195.38 782.4 198.988 852.8 209.811C924.8 220.633 995.2 238.671 1067.2 240.475C1137.6 242.279 1209.6 227.849 1280 224.241C1350.4 220.633 1422.4 227.849 1492.8 242.279C1564.8 256.709 1635.2 278.355 1707.2 276.551C1777.6 274.747 1849.6 249.494 1884.8 236.868L1920 224.241" stroke="white"/>
<path d="M0 605.886L35.2 598.671C70.4 591.456 142.4 577.026 212.8 582.437C284.8 587.849 355.2 613.102 427.2 611.298C497.6 609.494 569.6 580.633 640 568.007C710.4 555.38 782.4 558.988 852.8 569.811C924.8 580.633 995.2 598.671 1067.2 600.475C1137.6 602.279 1209.6 587.849 1280 584.241C1350.4 580.633 1422.4 587.849 1492.8 602.279C1564.8 616.709 1635.2 638.355 1707.2 636.551C1777.6 634.747 1849.6 609.494 1884.8 596.868L1920 584.241" stroke="white"/>
<path d="M0 365.886L35.2 358.671C70.4 351.456 142.4 337.026 212.8 342.437C284.8 347.849 355.2 373.102 427.2 371.298C497.6 369.494 569.6 340.633 640 328.007C710.4 315.38 782.4 318.988 852.8 329.811C924.8 340.633 995.2 358.671 1067.2 360.475C1137.6 362.279 1209.6 347.849 1280 344.241C1350.4 340.633 1422.4 347.849 1492.8 362.279C1564.8 376.709 1635.2 398.355 1707.2 396.551C1777.6 394.747 1849.6 369.494 1884.8 356.868L1920 344.241" stroke="white"/>
<path d="M0 725.886L35.2 718.671C70.4 711.456 142.4 697.026 212.8 702.437C284.8 707.849 355.2 733.102 427.2 731.298C497.6 729.494 569.6 700.633 640 688.007C710.4 675.38 782.4 678.988 852.8 689.811C924.8 700.633 995.2 718.671 1067.2 720.475C1137.6 722.279 1209.6 707.849 1280 704.241C1350.4 700.633 1422.4 707.849 1492.8 722.279C1564.8 736.709 1635.2 758.355 1707.2 756.551C1777.6 754.747 1849.6 729.494 1884.8 716.868L1920 704.241" stroke="white"/>
</g>
</g>
</svg>
