<svg width="78" height="100" viewBox="0 0 78 100" fill="none" xmlns="http://www.w3.org/2000/svg">
<path fill-rule="evenodd" clip-rule="evenodd" d="M58.943 5.34632C57.4758 4.50177 55.9558 3.75364 54.3924 3.10662C45.5732 -0.51235 35.7868 -0.98444 26.6633 1.76899C27.2648 1.78066 27.8646 1.83665 28.4579 1.93651C31.8164 2.38239 35.039 3.7226 37.9437 5.49839C40.8549 7.30149 43.4927 9.51667 45.7758 12.0757C48.0624 14.6339 49.9455 17.5292 51.3596 20.6608C52.7701 23.7733 53.6796 27.0913 54.054 30.4908C54.0528 30.4814 54.0528 30.4718 54.054 30.4624C54.1754 31.2442 54.2702 32.0389 54.3386 32.8465C54.3386 32.9238 54.3386 33.0037 54.3565 33.081C54.3822 33.3928 54.4027 33.7073 54.4181 34.0217C54.4181 34.1222 54.4181 34.2202 54.4335 34.3207C54.4514 34.715 54.4642 35.1093 54.4693 35.5063V35.965C54.4693 41.3774 53.2567 46.5321 51.4595 51.1945C49.7858 55.4464 47.6437 59.4966 45.0733 63.2693C44.4683 64.1713 43.8633 65.0244 43.2787 65.8286C41.8918 67.7049 40.4997 69.4214 39.1435 70.96C43.1506 74.4858 52.4594 78.7616 60.3274 80.1869C69.3414 68.7255 77.3248 53.3002 77.3248 35.9599C77.3248 23.0191 69.9721 11.6737 58.943 5.34632ZM57.8418 83.2099L57.8148 83.2036C57.7287 83.1835 57.5005 83.1301 57.1547 83.0347C55.4032 82.6855 53.6869 82.1765 52.0273 81.514C50.3636 80.8597 48.7537 80.0746 47.2126 79.1661C45.675 78.253 44.217 77.2106 42.8543 76.0501C41.5034 74.8776 40.2781 73.5664 39.1985 72.1377C39.019 71.9264 38.8396 71.715 38.6627 71.496C37.1552 69.813 35.5862 67.9186 34.048 65.8258C28.9436 58.9006 22.8523 48.099 22.8523 35.9623C22.8506 35.2633 22.9037 34.5653 23.0112 33.8747C23.2779 32.1359 23.8741 30.4648 24.7674 28.952C25.6141 27.5117 26.6947 26.2242 27.9643 25.1427C17.6377 32.1762 8.92107 45.269 8.80314 67.8722C10.7995 71.4843 13.0421 74.953 15.5149 78.2537C23.9393 89.5605 33.6481 97.393 38.6601 99.9987C42.9005 97.795 50.5044 91.8414 57.8572 83.2099H57.8418ZM5.12745 59.0804V59.4516C5.12745 59.5495 5.12745 59.6474 5.13258 59.7454L5.13326 59.7575C5.14586 59.9804 5.15858 60.2056 5.17872 60.4258C2.0228 52.9335 2.66893e-05 44.6912 2.66893e-05 35.9643C-0.00230203 34.1199 0.147764 32.2786 0.448676 30.4591C1.27122 25.5587 3.14606 20.8973 5.94271 16.7993C9.9985 10.825 15.8643 6.05439 22.8401 3.14458C35.7561 5.63428 50.6154 17.4977 52.9073 29.5777C51.6734 27.2415 49.8526 25.2707 47.6261 23.8612C46.6502 23.2353 45.6102 22.7169 44.524 22.3148C42.647 21.6181 40.6616 21.2629 38.6608 21.2658H38.248C37.9481 21.271 37.6456 21.2838 37.3456 21.3019C37.3038 21.304 37.2625 21.3084 37.2212 21.3128C37.1637 21.319 37.1064 21.3251 37.0482 21.3251C36.8483 21.338 36.6457 21.3534 36.4458 21.3741L36.0945 21.4127C36.0316 21.4207 35.9684 21.4284 35.905 21.4362C35.7852 21.4508 35.665 21.4654 35.5459 21.4823L35.1793 21.539C35.0024 21.5648 34.8256 21.5957 34.6487 21.6266L34.6486 21.6266L34.2794 21.6962C34.1183 21.7267 33.9594 21.7615 33.7987 21.7967L33.7513 21.807L33.3898 21.8869L32.8463 22.021L32.5079 22.1112C32.3113 22.1662 32.1139 22.2229 31.9157 22.2813C31.8868 22.2899 31.858 22.2983 31.8292 22.3066C31.7634 22.3258 31.6979 22.3448 31.6337 22.3663C31.3431 22.4557 31.0534 22.551 30.7646 22.6524C27.0819 23.8038 23.6469 25.6397 20.6379 28.0648C17.6201 30.4816 14.9476 33.3045 12.6955 36.454C10.4215 39.5946 8.57794 43.0283 7.21431 46.6628C5.8658 50.2891 5.0531 54.1371 5.12745 58.0031V58.4335V58.6912V59.0804Z" fill="url(#paint0_linear)"/>
<defs>
<linearGradient id="paint0_linear" x1="38.6624" y1="0" x2="38.6624" y2="99.9987" gradientUnits="userSpaceOnUse">
<stop stop-color="#FFD012"/>
<stop offset="1" stop-color="#FD8E00"/>
</linearGradient>
</defs>
</svg>
