<svg width="30" height="31" viewBox="0 0 30 31" fill="none" xmlns="http://www.w3.org/2000/svg">
<g clip-path="url(#clip0)">
<path d="M15.5352 30.1579C17.8293 29.8319 19.8404 27.4376 21.1059 23.9015C19.2765 23.4918 17.4096 23.2719 15.5352 23.2457V30.1579Z" fill="#2D3142"/>
<path d="M19.2021 29.5958C19.3377 29.5565 19.4728 29.517 19.6068 29.4735C19.7199 29.4371 19.8314 29.3979 19.943 29.3588C20.0749 29.3133 20.2063 29.2664 20.3372 29.2167C20.4487 29.1743 20.5592 29.1293 20.67 29.0842C20.7977 29.0306 20.9252 28.9771 21.0514 28.9235C21.1616 28.875 21.271 28.8243 21.3805 28.7732C21.5043 28.7148 21.6276 28.6554 21.7499 28.5936C21.8572 28.5389 21.9643 28.4831 22.0716 28.4258C22.1918 28.3614 22.3111 28.2957 22.4297 28.2282C22.5371 28.1674 22.6405 28.1064 22.7449 28.0436C22.8612 27.9721 22.9769 27.9007 23.0918 27.8292C23.1947 27.7637 23.2973 27.6972 23.3986 27.6286C23.5117 27.5525 23.6232 27.4731 23.7342 27.3938C23.834 27.3223 23.9332 27.2511 24.0306 27.1794C24.1379 27.0967 24.2479 27.0111 24.3555 26.9252C24.451 26.849 24.5463 26.7734 24.6403 26.6951C24.7474 26.6061 24.85 26.5139 24.9539 26.4218C25.045 26.3409 25.1367 26.2608 25.2257 26.1778C25.328 26.0822 25.4278 25.9833 25.5275 25.8851C25.6139 25.7998 25.7014 25.7157 25.7859 25.6283C25.8016 25.612 25.8166 25.5945 25.8328 25.5778C24.6634 24.9738 23.4316 24.4997 22.159 24.1641C21.4972 26.2746 20.3194 28.1873 18.7324 29.7282C18.7759 29.717 18.8193 29.7078 18.8628 29.6966C18.9775 29.6644 19.09 29.629 19.2021 29.5958Z" fill="#2D3142"/>
<path d="M29.9994 15.7241H23.5708C23.5465 18.2342 23.1823 20.7294 22.4883 23.1418C23.9035 23.5198 25.2693 24.0633 26.5574 24.761C28.6721 22.2122 29.8827 19.0343 29.9994 15.7241Z" fill="#2D3142"/>
<path d="M15.5352 14.6521H22.4981C22.4709 12.2307 22.1156 9.82431 21.4426 7.49826C19.5037 7.94043 17.5235 8.17657 15.5352 8.20275V14.6521Z" fill="#2D3142"/>
<path d="M15.5352 0.218048V7.1302C17.4096 7.10376 19.2765 6.88412 21.1059 6.47441C19.8404 2.93835 17.8293 0.543982 15.5352 0.218048Z" fill="#2D3142"/>
<path d="M15.5352 22.1734C17.5235 22.1999 19.5037 22.436 21.4426 22.8782C22.1156 20.5521 22.4709 18.1455 22.4981 15.7241H15.5352V22.1734Z" fill="#2D3142"/>
<path d="M26.5574 5.61502C25.2693 6.3127 23.9035 6.85619 22.4883 7.23422C23.1823 9.64665 23.5465 12.1418 23.5708 14.6519H29.9994C29.8824 11.342 28.6719 8.16411 26.5574 5.61502Z" fill="#2D3142"/>
<path d="M25.8331 4.8017C25.8174 4.78574 25.8025 4.76846 25.787 4.75196C25.7022 4.66452 25.6143 4.58023 25.5279 4.49514C25.4284 4.39697 25.3292 4.29775 25.2265 4.20246C25.1378 4.11973 25.0459 4.04145 24.9548 3.95899C24.8509 3.86684 24.7469 3.7739 24.6401 3.68489C24.5474 3.60661 24.4524 3.53174 24.3582 3.45661C24.2508 3.36969 24.1409 3.2833 24.0304 3.20031C23.9335 3.12727 23.8354 3.05658 23.7367 2.9859C23.6246 2.90527 23.512 2.8249 23.3979 2.74819C23.2976 2.68065 23.1958 2.61468 23.094 2.55001C22.978 2.4754 22.8623 2.40236 22.7442 2.33168C22.6408 2.26963 22.5363 2.20837 22.4316 2.14894C22.3117 2.08035 22.1915 2.01386 22.0703 1.94893C21.963 1.89526 21.8559 1.83688 21.7486 1.78322C21.6253 1.72091 21.5009 1.66096 21.3734 1.60205C21.2661 1.551 21.1572 1.50126 21.0467 1.45283C20.9197 1.39655 20.7915 1.34576 20.6634 1.29209C20.553 1.24706 20.443 1.20256 20.3315 1.16015C20.2014 1.11041 20.0694 1.06381 19.9375 1.01825C19.826 0.978984 19.7144 0.939977 19.6013 0.903326C19.4673 0.859868 19.3333 0.820337 19.1956 0.780544C19.084 0.74782 18.972 0.714572 18.8592 0.684728C18.816 0.672947 18.772 0.663784 18.7285 0.652527C20.3155 2.19345 21.4931 4.10586 22.1552 6.2167C23.4291 5.88108 24.6626 5.40671 25.8331 4.8017Z" fill="#2D3142"/>
<path d="M0 14.6519H6.42862C6.45297 12.1418 6.81712 9.64665 7.51088 7.23422C6.09588 6.85645 4.7301 6.31296 3.44207 5.61502C1.3273 8.16385 0.11676 11.342 0 14.6519Z" fill="#2D3142"/>
<path d="M14.4633 30.1579V23.2457C12.5889 23.2722 10.722 23.4918 8.89258 23.9015C10.1578 27.4376 12.1692 29.8319 14.4633 30.1579Z" fill="#2D3142"/>
<path d="M14.463 15.7241H7.5C7.52723 18.1455 7.88222 20.5521 8.55556 22.8782C10.4944 22.4357 12.4744 22.1996 14.463 22.1734V15.7241Z" fill="#2D3142"/>
<path d="M14.4633 0.218048C12.1692 0.543982 10.1578 2.93835 8.89258 6.47441C10.722 6.88438 12.5889 7.10402 14.4633 7.1302V0.218048Z" fill="#2D3142"/>
<path d="M14.463 8.20275C12.4746 8.17657 10.4944 7.94043 8.55556 7.49826C7.88222 9.82431 7.52723 12.2307 7.5 14.6521H14.463V8.20275Z" fill="#2D3142"/>
<path d="M11.2668 0.652008C11.2233 0.663265 11.1799 0.672428 11.1364 0.683685C11.0228 0.714053 10.9108 0.747825 10.7977 0.780549C10.6631 0.819818 10.5296 0.859349 10.3945 0.902283C10.2806 0.939196 10.1686 0.978465 10.0565 1.01747C9.92536 1.06381 9.79394 1.10989 9.66409 1.1591C9.55204 1.20204 9.44156 1.24654 9.33056 1.29209C9.20307 1.34576 9.07531 1.39943 8.94939 1.45284C8.83891 1.50127 8.72974 1.55206 8.62031 1.60311C8.49648 1.66149 8.37318 1.72091 8.25092 1.7827C8.14358 1.83741 8.03625 1.89344 7.92917 1.95051C7.80901 2.01491 7.68989 2.08088 7.57156 2.14842C7.46423 2.20837 7.35872 2.2699 7.25531 2.33273C7.13882 2.40289 7.02363 2.4754 6.90896 2.54714C6.80581 2.61311 6.70345 2.6796 6.60214 2.74819C6.48904 2.82438 6.37752 2.9037 6.26652 2.98302C6.16677 3.05449 6.06755 3.1257 5.9699 3.1977C5.86021 3.28016 5.75549 3.36603 5.64502 3.45164C5.54972 3.52782 5.45364 3.60348 5.36044 3.68228C5.25311 3.77076 5.15127 3.86239 5.04786 3.95402C4.95623 4.0357 4.86382 4.11502 4.77429 4.19958C4.67245 4.29461 4.57323 4.39331 4.47375 4.49122C4.38735 4.57657 4.29939 4.66086 4.21457 4.74856C4.19912 4.7648 4.1842 4.7826 4.16797 4.79909C5.33714 5.40331 6.56915 5.87742 7.84174 6.21304C8.50355 4.1035 9.68058 2.19214 11.2668 0.652008Z" fill="#2D3142"/>
<path d="M4.47072 25.881C4.57047 25.9792 4.66969 26.0784 4.77205 26.1739C4.86106 26.2564 4.95269 26.3347 5.04405 26.4172C5.14799 26.5096 5.25192 26.6022 5.35873 26.6913C5.4514 26.769 5.54591 26.8441 5.64068 26.9195C5.74802 27.0065 5.85509 27.0928 5.96871 27.1764C6.06531 27.2489 6.16349 27.319 6.26166 27.391C6.37371 27.4714 6.4868 27.5518 6.60094 27.629C6.70121 27.6965 6.80305 27.7625 6.90489 27.8274C7.02086 27.9018 7.13657 27.9748 7.25464 28.0455C7.35805 28.1078 7.46251 28.1688 7.56723 28.2285C7.68713 28.2971 7.80729 28.3636 7.9285 28.4283C8.03558 28.4819 8.14291 28.5403 8.25025 28.594C8.37355 28.6563 8.4979 28.7162 8.6254 28.7754C8.73273 28.8259 8.84164 28.8757 8.95212 28.9244C9.07909 28.9806 9.20711 29.0314 9.33538 29.0851C9.44586 29.1301 9.55582 29.1746 9.66734 29.217C9.79745 29.267 9.9294 29.3136 10.0613 29.3592C10.1729 29.3982 10.2844 29.4375 10.3975 29.4739C10.5315 29.5173 10.6656 29.5571 10.8033 29.5966C10.9148 29.6294 11.0268 29.6626 11.1394 29.6927C11.1829 29.7045 11.2268 29.7137 11.2703 29.7249C9.68331 28.1837 8.50576 26.2713 7.84368 24.1605C6.5711 24.4964 5.3391 24.9705 4.16992 25.575C4.18563 25.5909 4.20055 25.6082 4.21626 25.6247C4.29663 25.7116 4.38328 25.7959 4.47072 25.881Z" fill="#2D3142"/>
<path d="M3.44207 24.761C4.7301 24.0633 6.09588 23.5198 7.51088 23.1418C6.81712 20.7294 6.45297 18.2342 6.42862 15.7241H0C0.117022 19.034 1.3273 22.2119 3.44207 24.761Z" fill="#2D3142"/>
</g>
<defs>
<clipPath id="clip0">
<rect width="30" height="30" fill="white" transform="translate(0 0.175781)"/>
</clipPath>
</defs>
</svg>
